G75*
%MOIN*%
%OFA0B0*%
%FSLAX24Y24*%
%IPPOS*%
%LPD*%
%AMOC8*
5,1,8,0,0,1.08239X$1,22.5*
%
%ADD10C,0.0160*%
%ADD11C,0.0060*%
%ADD12C,0.0010*%
%ADD13C,0.0050*%
%ADD14R,0.0059X0.0118*%
%ADD15R,0.0118X0.0118*%
%ADD16C,0.0040*%
%ADD17C,0.0080*%
%ADD18C,0.0020*%
D10*
X001046Y000180D02*
X017188Y000180D01*
X017188Y019865D01*
X001046Y019865D01*
X001046Y000180D01*
X003211Y000180D02*
X003211Y003330D01*
X003211Y000180D02*
X015022Y000180D01*
X015022Y003330D01*
X015022Y016715D02*
X003211Y016715D01*
X003211Y019865D01*
X015022Y019865D01*
X015022Y016715D01*
D11*
X014917Y017985D02*
X014917Y000485D01*
X014638Y000761D02*
X014438Y000761D01*
X014638Y000761D02*
X014638Y000961D01*
X014917Y000485D02*
X014919Y000455D01*
X014924Y000425D01*
X014933Y000396D01*
X014946Y000369D01*
X014961Y000343D01*
X014980Y000319D01*
X015001Y000298D01*
X015025Y000279D01*
X015051Y000264D01*
X015078Y000251D01*
X015107Y000242D01*
X015137Y000237D01*
X015167Y000235D01*
X017067Y000235D01*
X017097Y000237D01*
X017127Y000242D01*
X017156Y000251D01*
X017183Y000264D01*
X017209Y000279D01*
X017233Y000298D01*
X017254Y000319D01*
X017273Y000343D01*
X017288Y000369D01*
X017301Y000396D01*
X017310Y000425D01*
X017315Y000455D01*
X017317Y000485D01*
X017317Y017985D01*
X017315Y018015D01*
X017310Y018045D01*
X017301Y018074D01*
X017288Y018101D01*
X017273Y018127D01*
X017254Y018151D01*
X017233Y018172D01*
X017209Y018191D01*
X017183Y018206D01*
X017156Y018219D01*
X017127Y018228D01*
X017097Y018233D01*
X017067Y018235D01*
X015167Y018235D01*
X015137Y018233D01*
X015107Y018228D01*
X015078Y018219D01*
X015051Y018206D01*
X015025Y018191D01*
X015001Y018172D01*
X014980Y018151D01*
X014961Y018127D01*
X014946Y018101D01*
X014933Y018074D01*
X014924Y018045D01*
X014919Y018015D01*
X014917Y017985D01*
X014638Y018084D02*
X014438Y018084D01*
X014638Y018084D02*
X014638Y018284D01*
X014638Y019084D02*
X014638Y019284D01*
X014438Y019284D01*
X013638Y019284D02*
X013438Y019284D01*
X013438Y019084D01*
X012669Y019084D02*
X012669Y019284D01*
X012469Y019284D01*
X011669Y019284D02*
X011469Y019284D01*
X011469Y019084D01*
X010701Y019084D02*
X010701Y019284D01*
X010501Y019284D01*
X009701Y019284D02*
X009501Y019284D01*
X009501Y019084D01*
X009501Y018284D02*
X009501Y018084D01*
X009701Y018084D01*
X010501Y018084D02*
X010701Y018084D01*
X010701Y018284D01*
X011469Y018284D02*
X011469Y018084D01*
X011669Y018084D01*
X012469Y018084D02*
X012669Y018084D01*
X012669Y018284D01*
X013438Y018284D02*
X013438Y018084D01*
X013638Y018084D01*
X008732Y018084D02*
X008532Y018084D01*
X008732Y018084D02*
X008732Y018284D01*
X008732Y019084D02*
X008732Y019284D01*
X008532Y019284D01*
X007732Y019284D02*
X007532Y019284D01*
X007532Y019084D01*
X006764Y019084D02*
X006764Y019284D01*
X006564Y019284D01*
X005764Y019284D02*
X005564Y019284D01*
X005564Y019084D01*
X004795Y019084D02*
X004795Y019284D01*
X004595Y019284D01*
X003795Y019284D02*
X003595Y019284D01*
X003595Y019084D01*
X003595Y018284D02*
X003595Y018084D01*
X003795Y018084D01*
X003317Y017985D02*
X003317Y000485D01*
X003595Y000761D02*
X003595Y000961D01*
X003595Y000761D02*
X003795Y000761D01*
X003317Y000485D02*
X003315Y000455D01*
X003310Y000425D01*
X003301Y000396D01*
X003288Y000369D01*
X003273Y000343D01*
X003254Y000319D01*
X003233Y000298D01*
X003209Y000279D01*
X003183Y000264D01*
X003156Y000251D01*
X003127Y000242D01*
X003097Y000237D01*
X003067Y000235D01*
X001167Y000235D01*
X001137Y000237D01*
X001107Y000242D01*
X001078Y000251D01*
X001051Y000264D01*
X001025Y000279D01*
X001001Y000298D01*
X000980Y000319D01*
X000961Y000343D01*
X000946Y000369D01*
X000933Y000396D01*
X000924Y000425D01*
X000919Y000455D01*
X000917Y000485D01*
X000917Y017985D01*
X000919Y018015D01*
X000924Y018045D01*
X000933Y018074D01*
X000946Y018101D01*
X000961Y018127D01*
X000980Y018151D01*
X001001Y018172D01*
X001025Y018191D01*
X001051Y018206D01*
X001078Y018219D01*
X001107Y018228D01*
X001137Y018233D01*
X001167Y018235D01*
X003067Y018235D01*
X003097Y018233D01*
X003127Y018228D01*
X003156Y018219D01*
X003183Y018206D01*
X003209Y018191D01*
X003233Y018172D01*
X003254Y018151D01*
X003273Y018127D01*
X003288Y018101D01*
X003301Y018074D01*
X003310Y018045D01*
X003315Y018015D01*
X003317Y017985D01*
X004595Y018084D02*
X004795Y018084D01*
X004795Y018284D01*
X005564Y018284D02*
X005564Y018084D01*
X005764Y018084D01*
X006564Y018084D02*
X006764Y018084D01*
X006764Y018284D01*
X007532Y018284D02*
X007532Y018084D01*
X007732Y018084D01*
X013477Y011993D02*
X013477Y011393D01*
X013479Y011376D01*
X013483Y011359D01*
X013490Y011343D01*
X013500Y011329D01*
X013513Y011316D01*
X013527Y011306D01*
X013543Y011299D01*
X013560Y011295D01*
X013577Y011293D01*
X014677Y011293D01*
X014694Y011295D01*
X014711Y011299D01*
X014727Y011306D01*
X014741Y011316D01*
X014754Y011329D01*
X014764Y011343D01*
X014771Y011359D01*
X014775Y011376D01*
X014777Y011393D01*
X014777Y011993D01*
X014775Y012010D01*
X014771Y012027D01*
X014764Y012043D01*
X014754Y012057D01*
X014741Y012070D01*
X014727Y012080D01*
X014711Y012087D01*
X014694Y012091D01*
X014677Y012093D01*
X013577Y012093D01*
X013560Y012091D01*
X013543Y012087D01*
X013527Y012080D01*
X013513Y012070D01*
X013500Y012057D01*
X013490Y012043D01*
X013483Y012027D01*
X013479Y012010D01*
X013477Y011993D01*
X013761Y011255D02*
X014261Y011255D01*
X014511Y011005D01*
X014511Y010505D01*
X014261Y010255D01*
X013761Y010255D01*
X013511Y010505D01*
X013511Y011005D01*
X013761Y011255D01*
X013721Y009870D02*
X014821Y009870D01*
X014838Y009868D01*
X014855Y009864D01*
X014871Y009857D01*
X014885Y009847D01*
X014898Y009834D01*
X014908Y009820D01*
X014915Y009804D01*
X014919Y009787D01*
X014921Y009770D01*
X014921Y009170D01*
X014919Y009153D01*
X014915Y009136D01*
X014908Y009120D01*
X014898Y009106D01*
X014885Y009093D01*
X014871Y009083D01*
X014855Y009076D01*
X014838Y009072D01*
X014821Y009070D01*
X013721Y009070D01*
X013796Y009070D02*
X014896Y009070D01*
X014913Y009068D01*
X014930Y009064D01*
X014946Y009057D01*
X014960Y009047D01*
X014973Y009034D01*
X014983Y009020D01*
X014990Y009004D01*
X014994Y008987D01*
X014996Y008970D01*
X014996Y008370D01*
X014994Y008353D01*
X014990Y008336D01*
X014983Y008320D01*
X014973Y008306D01*
X014960Y008293D01*
X014946Y008283D01*
X014930Y008276D01*
X014913Y008272D01*
X014896Y008270D01*
X013796Y008270D01*
X013761Y008255D02*
X014261Y008255D01*
X014511Y008005D01*
X014511Y007505D01*
X014261Y007255D01*
X014511Y007005D01*
X014511Y006505D01*
X014261Y006255D01*
X014511Y006005D01*
X014511Y005505D01*
X014261Y005255D01*
X013761Y005255D01*
X013511Y005505D01*
X013511Y006005D01*
X013761Y006255D01*
X013511Y006505D01*
X013511Y007005D01*
X013761Y007255D01*
X013511Y007505D01*
X013511Y008005D01*
X013761Y008255D01*
X013796Y008270D02*
X013779Y008272D01*
X013762Y008276D01*
X013746Y008283D01*
X013732Y008293D01*
X013719Y008306D01*
X013709Y008320D01*
X013702Y008336D01*
X013698Y008353D01*
X013696Y008370D01*
X013696Y008970D01*
X013698Y008987D01*
X013702Y009004D01*
X013709Y009020D01*
X013719Y009034D01*
X013732Y009047D01*
X013746Y009057D01*
X013762Y009064D01*
X013779Y009068D01*
X013796Y009070D01*
X013721Y009070D02*
X013704Y009072D01*
X013687Y009076D01*
X013671Y009083D01*
X013657Y009093D01*
X013644Y009106D01*
X013634Y009120D01*
X013627Y009136D01*
X013623Y009153D01*
X013621Y009170D01*
X013621Y009770D01*
X013623Y009787D01*
X013627Y009804D01*
X013634Y009820D01*
X013644Y009834D01*
X013657Y009847D01*
X013671Y009857D01*
X013687Y009864D01*
X013704Y009868D01*
X013721Y009870D01*
X012347Y008143D02*
X012347Y005523D01*
X012207Y005383D01*
X009587Y005383D01*
X009587Y008143D01*
X012347Y008143D01*
X011906Y005683D02*
X011908Y005706D01*
X011914Y005729D01*
X011923Y005750D01*
X011936Y005770D01*
X011952Y005787D01*
X011970Y005801D01*
X011990Y005812D01*
X012012Y005820D01*
X012035Y005824D01*
X012059Y005824D01*
X012082Y005820D01*
X012104Y005812D01*
X012124Y005801D01*
X012142Y005787D01*
X012158Y005770D01*
X012171Y005750D01*
X012180Y005729D01*
X012186Y005706D01*
X012188Y005683D01*
X012186Y005660D01*
X012180Y005637D01*
X012171Y005616D01*
X012158Y005596D01*
X012142Y005579D01*
X012124Y005565D01*
X012104Y005554D01*
X012082Y005546D01*
X012059Y005542D01*
X012035Y005542D01*
X012012Y005546D01*
X011990Y005554D01*
X011970Y005565D01*
X011952Y005579D01*
X011936Y005596D01*
X011923Y005616D01*
X011914Y005637D01*
X011908Y005660D01*
X011906Y005683D01*
X013343Y004396D02*
X013343Y004196D01*
X013343Y004396D02*
X013543Y004396D01*
X014343Y004396D02*
X014543Y004396D01*
X014543Y004196D01*
X014543Y003396D02*
X014543Y003196D01*
X014343Y003196D01*
X013543Y003196D02*
X013343Y003196D01*
X013343Y003396D01*
X013438Y001961D02*
X013638Y001961D01*
X013438Y001961D02*
X013438Y001761D01*
X012669Y001761D02*
X012669Y001961D01*
X012469Y001961D01*
X011669Y001961D02*
X011469Y001961D01*
X011469Y001761D01*
X010701Y001761D02*
X010701Y001961D01*
X010501Y001961D01*
X009701Y001961D02*
X009501Y001961D01*
X009501Y001761D01*
X009501Y000961D02*
X009501Y000761D01*
X009701Y000761D01*
X010501Y000761D02*
X010701Y000761D01*
X010701Y000961D01*
X011469Y000961D02*
X011469Y000761D01*
X011669Y000761D01*
X012469Y000761D02*
X012669Y000761D01*
X012669Y000961D01*
X013438Y000961D02*
X013438Y000761D01*
X013638Y000761D01*
X014638Y001761D02*
X014638Y001961D01*
X014438Y001961D01*
X008732Y001961D02*
X008732Y001761D01*
X008732Y001961D02*
X008532Y001961D01*
X007732Y001961D02*
X007532Y001961D01*
X007532Y001761D01*
X006764Y001761D02*
X006764Y001961D01*
X006564Y001961D01*
X005764Y001961D02*
X005564Y001961D01*
X005564Y001761D01*
X004795Y001761D02*
X004795Y001961D01*
X004595Y001961D01*
X003795Y001961D02*
X003595Y001961D01*
X003595Y001761D01*
X004595Y000761D02*
X004795Y000761D01*
X004795Y000961D01*
X005564Y000961D02*
X005564Y000761D01*
X005764Y000761D01*
X006564Y000761D02*
X006764Y000761D01*
X006764Y000961D01*
X007532Y000961D02*
X007532Y000761D01*
X007732Y000761D01*
X008532Y000761D02*
X008732Y000761D01*
X008732Y000961D01*
X004656Y003740D02*
X004656Y004240D01*
X004406Y004490D01*
X004656Y004740D01*
X004656Y005240D01*
X004406Y005490D01*
X004656Y005740D01*
X004656Y006240D01*
X004406Y006490D01*
X003906Y006490D01*
X003656Y006240D01*
X003656Y005740D01*
X003906Y005490D01*
X003656Y005240D01*
X003656Y004740D01*
X003906Y004490D01*
X003656Y004240D01*
X003656Y003740D01*
X003906Y003490D01*
X004406Y003490D01*
X004656Y003740D01*
X005835Y007007D02*
X005585Y007257D01*
X005585Y008757D01*
X005835Y009007D01*
X006335Y009007D01*
X006585Y008757D01*
X006585Y007257D01*
X006335Y007007D01*
X005835Y007007D01*
X006585Y007257D02*
X006835Y007007D01*
X007335Y007007D01*
X007585Y007257D01*
X007585Y008757D01*
X007335Y009007D01*
X006835Y009007D01*
X006585Y008757D01*
X007585Y008757D02*
X007835Y009007D01*
X008335Y009007D01*
X008585Y008757D01*
X008585Y007257D01*
X008335Y007007D01*
X007835Y007007D01*
X007585Y007257D01*
X004656Y008740D02*
X004406Y008490D01*
X003906Y008490D01*
X003656Y008740D01*
X003656Y009240D01*
X003906Y009490D01*
X004406Y009490D01*
X004656Y009240D01*
X004656Y008740D01*
X004629Y009671D02*
X004429Y009671D01*
X004629Y009671D02*
X004629Y009871D01*
X004629Y010671D02*
X004629Y010871D01*
X004429Y010871D01*
X004611Y011010D02*
X003511Y011010D01*
X003494Y011012D01*
X003477Y011016D01*
X003461Y011023D01*
X003447Y011033D01*
X003434Y011046D01*
X003424Y011060D01*
X003417Y011076D01*
X003413Y011093D01*
X003411Y011110D01*
X003411Y011710D01*
X003413Y011727D01*
X003417Y011744D01*
X003424Y011760D01*
X003434Y011774D01*
X003447Y011787D01*
X003461Y011797D01*
X003477Y011804D01*
X003494Y011808D01*
X003511Y011810D01*
X004611Y011810D01*
X004628Y011808D01*
X004645Y011804D01*
X004661Y011797D01*
X004675Y011787D01*
X004688Y011774D01*
X004698Y011760D01*
X004705Y011744D01*
X004709Y011727D01*
X004711Y011710D01*
X004711Y011110D01*
X004709Y011093D01*
X004705Y011076D01*
X004698Y011060D01*
X004688Y011046D01*
X004675Y011033D01*
X004661Y011023D01*
X004645Y011016D01*
X004628Y011012D01*
X004611Y011010D01*
X003629Y010871D02*
X003429Y010871D01*
X003429Y010671D01*
X003429Y009871D02*
X003429Y009671D01*
X003629Y009671D01*
D12*
X011927Y004758D02*
X011927Y004633D01*
X011952Y004608D01*
X012002Y004608D01*
X012027Y004633D01*
X012027Y004758D01*
X012075Y004708D02*
X012125Y004758D01*
X012125Y004608D01*
X012075Y004608D02*
X012175Y004608D01*
D13*
X000441Y000610D02*
X000291Y000760D01*
X000742Y000760D01*
X000742Y000610D02*
X000742Y000910D01*
X004830Y003915D02*
X005281Y003915D01*
X005281Y003765D02*
X005281Y004065D01*
X004981Y003765D02*
X004830Y003915D01*
X005943Y005256D02*
X008069Y005256D01*
X008090Y005254D01*
X008111Y005256D01*
X008131Y005262D01*
X008150Y005271D01*
X008167Y005283D01*
X008182Y005298D01*
X008193Y005315D01*
X008202Y005334D01*
X008207Y005354D01*
X008207Y005512D01*
X008420Y005349D02*
X008026Y004956D01*
X006452Y004956D01*
X006452Y006924D01*
X008420Y006924D01*
X008420Y005349D01*
X008420Y004956D01*
X008026Y004956D01*
X008535Y004882D02*
X008537Y004896D01*
X008543Y004910D01*
X008551Y004922D01*
X008563Y004930D01*
X008577Y004936D01*
X008591Y004938D01*
X008605Y004936D01*
X008619Y004930D01*
X008631Y004922D01*
X008639Y004910D01*
X008645Y004896D01*
X008647Y004882D01*
X008645Y004868D01*
X008639Y004854D01*
X008631Y004842D01*
X008619Y004834D01*
X008605Y004828D01*
X008591Y004826D01*
X008577Y004828D01*
X008563Y004834D01*
X008551Y004842D01*
X008543Y004854D01*
X008537Y004868D01*
X008535Y004882D01*
X007616Y005650D02*
X007616Y006240D01*
X006435Y006240D01*
X006435Y005650D01*
X007616Y005650D01*
X006609Y005940D02*
X006611Y005997D01*
X006617Y006054D01*
X006627Y006110D01*
X006640Y006166D01*
X006658Y006220D01*
X006679Y006273D01*
X006704Y006324D01*
X006732Y006374D01*
X006764Y006421D01*
X006798Y006467D01*
X006836Y006509D01*
X006877Y006549D01*
X006920Y006587D01*
X006966Y006621D01*
X007014Y006651D01*
X007064Y006679D01*
X007116Y006703D01*
X007170Y006723D01*
X007224Y006739D01*
X007280Y006752D01*
X007336Y006761D01*
X007393Y006766D01*
X007450Y006767D01*
X007507Y006764D01*
X007564Y006757D01*
X007620Y006746D01*
X007675Y006732D01*
X007729Y006713D01*
X007782Y006691D01*
X007833Y006666D01*
X007882Y006636D01*
X007929Y006604D01*
X007974Y006568D01*
X008016Y006530D01*
X008055Y006488D01*
X008091Y006444D01*
X008125Y006398D01*
X008155Y006349D01*
X008181Y006299D01*
X008204Y006247D01*
X008223Y006193D01*
X008239Y006138D01*
X008251Y006082D01*
X008259Y006025D01*
X008263Y005969D01*
X008263Y005911D01*
X008259Y005855D01*
X008251Y005798D01*
X008239Y005742D01*
X008223Y005687D01*
X008204Y005633D01*
X008181Y005581D01*
X008155Y005531D01*
X008125Y005482D01*
X008091Y005436D01*
X008055Y005392D01*
X008016Y005350D01*
X007974Y005312D01*
X007929Y005276D01*
X007882Y005244D01*
X007833Y005214D01*
X007782Y005189D01*
X007729Y005167D01*
X007675Y005148D01*
X007620Y005134D01*
X007564Y005123D01*
X007507Y005116D01*
X007450Y005113D01*
X007393Y005114D01*
X007336Y005119D01*
X007280Y005128D01*
X007224Y005141D01*
X007170Y005157D01*
X007116Y005177D01*
X007064Y005201D01*
X007014Y005229D01*
X006966Y005259D01*
X006920Y005293D01*
X006877Y005331D01*
X006836Y005371D01*
X006798Y005413D01*
X006764Y005459D01*
X006732Y005506D01*
X006704Y005556D01*
X006679Y005607D01*
X006658Y005660D01*
X006640Y005714D01*
X006627Y005770D01*
X006617Y005826D01*
X006611Y005883D01*
X006609Y005940D01*
X005943Y005256D02*
X005926Y005257D01*
X005909Y005262D01*
X005894Y005269D01*
X005880Y005279D01*
X005868Y005291D01*
X005858Y005305D01*
X005851Y005320D01*
X005846Y005337D01*
X005845Y005354D01*
X005845Y005512D01*
X005845Y006378D02*
X005845Y006536D01*
X005846Y006553D01*
X005851Y006570D01*
X005858Y006585D01*
X005868Y006599D01*
X005880Y006611D01*
X005894Y006621D01*
X005909Y006628D01*
X005926Y006633D01*
X005943Y006634D01*
X008108Y006634D01*
X008125Y006633D01*
X008142Y006628D01*
X008157Y006621D01*
X008171Y006611D01*
X008183Y006599D01*
X008193Y006585D01*
X008200Y006570D01*
X008205Y006553D01*
X008206Y006536D01*
X008207Y006536D02*
X008207Y006378D01*
X004626Y009620D02*
X013326Y009620D01*
X013326Y016220D01*
X004626Y016220D01*
X004626Y009620D01*
X003481Y008990D02*
X003406Y009065D01*
X003331Y009065D01*
X003256Y008990D01*
X003256Y008765D01*
X003406Y008765D01*
X003481Y008840D01*
X003481Y008990D01*
X003256Y008765D02*
X003105Y008915D01*
X003030Y009065D01*
X002914Y009433D02*
X002914Y009658D01*
X002989Y009733D01*
X003139Y009733D01*
X003214Y009658D01*
X003214Y009433D01*
X003364Y009433D02*
X002914Y009433D01*
X003064Y009894D02*
X002914Y010044D01*
X003064Y010194D01*
X003364Y010194D01*
X003364Y010354D02*
X003364Y010579D01*
X003289Y010654D01*
X002989Y010654D01*
X002914Y010579D01*
X002914Y010354D01*
X003364Y010354D01*
X003139Y010194D02*
X003139Y009894D01*
X003064Y009894D02*
X003364Y009894D01*
X003289Y010814D02*
X003214Y010814D01*
X003139Y010889D01*
X003139Y011040D01*
X003214Y011115D01*
X003289Y011115D01*
X003364Y011040D01*
X003364Y010889D01*
X003289Y010814D01*
X003139Y010889D02*
X003064Y010814D01*
X002989Y010814D01*
X002914Y010889D01*
X002914Y011040D01*
X002989Y011115D01*
X003064Y011115D01*
X003139Y011040D01*
X003301Y011825D02*
X003226Y011900D01*
X003301Y011825D02*
X003451Y011825D01*
X003526Y011900D01*
X003526Y011975D01*
X003451Y012050D01*
X003301Y012050D01*
X003226Y012125D01*
X003226Y012200D01*
X003301Y012275D01*
X003451Y012275D01*
X003526Y012200D01*
X003686Y011900D02*
X003761Y011825D01*
X003836Y011825D01*
X003911Y011900D01*
X003911Y012275D01*
X003836Y012275D02*
X003986Y012275D01*
X004147Y012125D02*
X004297Y012275D01*
X004297Y011825D01*
X004147Y011825D02*
X004447Y011825D01*
X004607Y011900D02*
X004907Y012200D01*
X004907Y011900D01*
X004832Y011825D01*
X004682Y011825D01*
X004607Y011900D01*
X004607Y012200D01*
X004682Y012275D01*
X004832Y012275D01*
X004907Y012200D01*
X003867Y017410D02*
X003942Y017485D01*
X003942Y017635D01*
X003867Y017710D01*
X003792Y017710D01*
X003716Y017635D01*
X003716Y017560D01*
X003716Y017635D02*
X003641Y017710D01*
X003566Y017710D01*
X003491Y017635D01*
X003491Y017485D01*
X003566Y017410D01*
X003716Y017871D02*
X003566Y018021D01*
X003491Y018171D01*
X003716Y018096D02*
X003716Y017871D01*
X003867Y017871D01*
X003942Y017946D01*
X003942Y018096D01*
X003867Y018171D01*
X003792Y018171D01*
X003716Y018096D01*
X012401Y008870D02*
X012326Y008795D01*
X012326Y008720D01*
X012401Y008645D01*
X012551Y008645D01*
X012626Y008570D01*
X012626Y008495D01*
X012551Y008420D01*
X012401Y008420D01*
X012326Y008495D01*
X012401Y008870D02*
X012551Y008870D01*
X012626Y008795D01*
X012936Y008870D02*
X013086Y008870D01*
X013011Y008870D02*
X013011Y008495D01*
X012936Y008420D01*
X012861Y008420D01*
X012786Y008495D01*
X013247Y008420D02*
X013547Y008420D01*
X013397Y008420D02*
X013397Y008870D01*
X013247Y008720D01*
X013707Y008720D02*
X013857Y008870D01*
X013857Y008420D01*
X013707Y008420D02*
X014007Y008420D01*
X013875Y009915D02*
X013950Y009990D01*
X013950Y010365D01*
X013875Y010365D02*
X014025Y010365D01*
X014185Y010215D02*
X014335Y010365D01*
X014335Y009915D01*
X014185Y009915D02*
X014485Y009915D01*
X014645Y009915D02*
X014946Y010215D01*
X014946Y010290D01*
X014871Y010365D01*
X014720Y010365D01*
X014645Y010290D01*
X014645Y009915D02*
X014946Y009915D01*
X013875Y009915D02*
X013800Y009915D01*
X013725Y009990D01*
X013564Y009990D02*
X013564Y010065D01*
X013489Y010140D01*
X013339Y010140D01*
X013264Y010215D01*
X013264Y010290D01*
X013339Y010365D01*
X013489Y010365D01*
X013564Y010290D01*
X013261Y010530D02*
X013336Y010605D01*
X013336Y010755D01*
X013261Y010830D01*
X013186Y010830D01*
X013111Y010755D01*
X013111Y010530D01*
X013261Y010530D01*
X013111Y010530D02*
X012960Y010680D01*
X012885Y010830D01*
X013264Y009990D02*
X013339Y009915D01*
X013489Y009915D01*
X013564Y009990D01*
X013577Y012168D02*
X013502Y012243D01*
X013577Y012168D02*
X013727Y012168D01*
X013802Y012243D01*
X013802Y012318D01*
X013727Y012393D01*
X013577Y012393D01*
X013502Y012469D01*
X013502Y012544D01*
X013577Y012619D01*
X013727Y012619D01*
X013802Y012544D01*
X013962Y012243D02*
X014037Y012168D01*
X014112Y012168D01*
X014187Y012243D01*
X014187Y012619D01*
X014112Y012619D02*
X014262Y012619D01*
X014422Y012544D02*
X014422Y012243D01*
X014497Y012168D01*
X014648Y012168D01*
X014723Y012243D01*
X014883Y012393D02*
X015183Y012393D01*
X015108Y012168D02*
X015108Y012619D01*
X014883Y012393D01*
X014723Y012544D02*
X014648Y012619D01*
X014497Y012619D01*
X014422Y012544D01*
X017566Y017410D02*
X017491Y017485D01*
X017491Y017635D01*
X017566Y017710D01*
X017641Y017710D01*
X017716Y017635D01*
X017792Y017710D01*
X017867Y017710D01*
X017942Y017635D01*
X017942Y017485D01*
X017867Y017410D01*
X017716Y017560D02*
X017716Y017635D01*
X017716Y017871D02*
X017716Y018096D01*
X017792Y018171D01*
X017867Y018171D01*
X017942Y018096D01*
X017942Y017946D01*
X017867Y017871D01*
X017716Y017871D01*
X017566Y018021D01*
X017491Y018171D01*
X015136Y005830D02*
X015136Y005530D01*
X015136Y005680D02*
X014685Y005680D01*
X014836Y005530D01*
X014350Y003021D02*
X014199Y003021D01*
X014124Y002946D01*
X014124Y002646D01*
X014425Y002946D01*
X014425Y002646D01*
X014350Y002571D01*
X014199Y002571D01*
X014124Y002646D01*
X013964Y002571D02*
X013664Y002571D01*
X013814Y002571D02*
X013814Y003021D01*
X013664Y002871D01*
X013504Y002946D02*
X013504Y002646D01*
X013429Y002571D01*
X013204Y002571D01*
X013204Y003021D01*
X013429Y003021D01*
X013504Y002946D01*
X013043Y002871D02*
X013043Y002571D01*
X013043Y002796D02*
X012743Y002796D01*
X012743Y002871D02*
X012743Y002571D01*
X012583Y002796D02*
X012508Y002721D01*
X012283Y002721D01*
X012283Y002571D02*
X012283Y003021D01*
X012508Y003021D01*
X012583Y002946D01*
X012583Y002796D01*
X012743Y002871D02*
X012893Y003021D01*
X013043Y002871D01*
X014350Y003021D02*
X014425Y002946D01*
X014742Y000910D02*
X014742Y000610D01*
X014742Y000760D02*
X014291Y000760D01*
X014441Y000610D01*
D14*
X005422Y007699D03*
X004950Y007699D03*
D15*
X005186Y007699D03*
D16*
X003816Y007741D02*
X003739Y007665D01*
X003816Y007741D02*
X003816Y007895D01*
X003739Y007972D01*
X003586Y007972D01*
X003509Y007895D01*
X003509Y007818D01*
X003586Y007665D01*
X003355Y007665D01*
X003355Y007972D01*
X003432Y007511D02*
X003355Y007434D01*
X003355Y007281D01*
X003432Y007204D01*
X003739Y007204D01*
X003816Y007281D01*
X003816Y007434D01*
X003739Y007511D01*
X005687Y004817D02*
X005687Y004357D01*
X005993Y004357D01*
X006147Y004357D02*
X006454Y004357D01*
X006607Y004357D02*
X006837Y004357D01*
X006914Y004433D01*
X006914Y004740D01*
X006837Y004817D01*
X006607Y004817D01*
X006607Y004357D01*
X006300Y004587D02*
X006147Y004587D01*
X006147Y004817D02*
X006147Y004357D01*
X006147Y004817D02*
X006454Y004817D01*
X007068Y004664D02*
X007221Y004817D01*
X007221Y004357D01*
X007068Y004357D02*
X007375Y004357D01*
X010855Y004120D02*
X010855Y003660D01*
X010855Y003813D02*
X011085Y003813D01*
X011162Y003890D01*
X011162Y004044D01*
X011085Y004120D01*
X010855Y004120D01*
X011315Y003967D02*
X011315Y003660D01*
X011315Y003890D02*
X011622Y003890D01*
X011622Y003967D02*
X011622Y003660D01*
X011776Y003660D02*
X012006Y003660D01*
X012083Y003737D01*
X012083Y004044D01*
X012006Y004120D01*
X011776Y004120D01*
X011776Y003660D01*
X011622Y003967D02*
X011469Y004120D01*
X011315Y003967D01*
X012236Y003967D02*
X012313Y003890D01*
X012543Y003890D01*
X012543Y003737D02*
X012543Y004044D01*
X012466Y004120D01*
X012313Y004120D01*
X012236Y004044D01*
X012236Y003967D01*
X012236Y003737D02*
X012313Y003660D01*
X012466Y003660D01*
X012543Y003737D01*
X012487Y009343D02*
X012180Y009343D01*
X012487Y009650D01*
X012487Y009726D01*
X012410Y009803D01*
X012256Y009803D01*
X012180Y009726D01*
X011873Y009803D02*
X011873Y009343D01*
X012026Y009343D02*
X011719Y009343D01*
X011566Y009419D02*
X011566Y009726D01*
X011489Y009803D01*
X011259Y009803D01*
X011259Y009343D01*
X011489Y009343D01*
X011566Y009419D01*
X011719Y009650D02*
X011873Y009803D01*
X011105Y009650D02*
X011105Y009343D01*
X011105Y009573D02*
X010798Y009573D01*
X010798Y009650D02*
X010798Y009343D01*
X010645Y009573D02*
X010568Y009496D01*
X010338Y009496D01*
X010338Y009343D02*
X010338Y009803D01*
X010568Y009803D01*
X010645Y009726D01*
X010645Y009573D01*
X010798Y009650D02*
X010952Y009803D01*
X011105Y009650D01*
X008655Y011293D02*
X008655Y011447D01*
X008655Y011370D02*
X008195Y011370D01*
X008195Y011293D02*
X008195Y011447D01*
X008271Y011600D02*
X008195Y011677D01*
X008195Y011830D01*
X008271Y011907D01*
X008348Y012061D02*
X008195Y012214D01*
X008655Y012214D01*
X008655Y012061D02*
X008655Y012368D01*
X008578Y011907D02*
X008655Y011830D01*
X008655Y011677D01*
X008578Y011600D01*
X008271Y011600D01*
X007430Y009753D02*
X007430Y009293D01*
X007277Y009293D02*
X007584Y009293D01*
X007277Y009600D02*
X007430Y009753D01*
X007123Y009676D02*
X007123Y009523D01*
X007047Y009446D01*
X006816Y009446D01*
X006816Y009293D02*
X006816Y009753D01*
X007047Y009753D01*
X007123Y009676D01*
X006970Y009446D02*
X007123Y009293D01*
X006038Y011752D02*
X005731Y011752D01*
X006038Y012059D01*
X006038Y012135D01*
X005961Y012212D01*
X005808Y012212D01*
X005731Y012135D01*
X005578Y012135D02*
X005501Y012212D01*
X005347Y012212D01*
X005271Y012135D01*
X005271Y011828D01*
X005347Y011752D01*
X005501Y011752D01*
X005578Y011828D01*
X005626Y013585D02*
X003846Y013585D01*
X003805Y014905D02*
X003575Y014905D01*
X003575Y015365D01*
X003805Y015365D01*
X003882Y015289D01*
X003882Y014982D01*
X003805Y014905D01*
X003846Y015085D02*
X005626Y015085D01*
X004342Y015058D02*
X004342Y014982D01*
X004266Y014905D01*
X004112Y014905D01*
X004035Y014982D01*
X004189Y015135D02*
X004266Y015135D01*
X004342Y015058D01*
X004266Y015135D02*
X004342Y015212D01*
X004342Y015289D01*
X004266Y015365D01*
X004112Y015365D01*
X004035Y015289D01*
X012755Y015006D02*
X012755Y014852D01*
X012832Y014775D01*
X012832Y014622D02*
X012755Y014545D01*
X012755Y014315D01*
X013216Y014315D01*
X013216Y014545D01*
X013139Y014622D01*
X012832Y014622D01*
X012755Y015006D02*
X012832Y015082D01*
X012909Y015082D01*
X013216Y014775D01*
X013216Y015082D01*
X013336Y014255D02*
X013336Y016035D01*
X014836Y016035D02*
X014836Y014255D01*
D17*
X014086Y014818D02*
X014480Y015221D01*
X013692Y015221D01*
X014086Y014818D01*
X005063Y014335D02*
X004660Y014729D01*
X004660Y013941D01*
X005063Y014335D01*
D18*
X006726Y006103D02*
X006680Y006056D01*
X006680Y006009D01*
X006726Y005963D01*
X006820Y005963D01*
X006867Y005916D01*
X006867Y005869D01*
X006820Y005822D01*
X006726Y005822D01*
X006680Y005869D01*
X006726Y006103D02*
X006820Y006103D01*
X006867Y006056D01*
X006956Y006009D02*
X007049Y006103D01*
X007049Y005822D01*
X006956Y005822D02*
X007143Y005822D01*
M02*
