G75*
%MOIN*%
%OFA0B0*%
%FSLAX24Y24*%
%IPPOS*%
%LPD*%
%AMOC8*
5,1,8,0,0,1.08239X$1,22.5*
%
%ADD10C,0.0160*%
%ADD11C,0.0030*%
%ADD12C,0.0060*%
%ADD13OC8,0.0640*%
%ADD14R,0.0520X0.0920*%
%ADD15R,0.1457X0.0906*%
%ADD16OC8,0.1290*%
%ADD17R,0.0670X0.0827*%
%ADD18R,0.0552X0.0631*%
%ADD19C,0.0600*%
%ADD20OC8,0.0600*%
%ADD21R,0.0540X0.1040*%
%ADD22R,0.0670X0.0749*%
%ADD23R,0.0300X0.0840*%
%ADD24R,0.0631X0.0552*%
%ADD25R,0.0500X0.0670*%
%ADD26R,0.0060X0.0720*%
%ADD27R,0.0670X0.0500*%
%ADD28R,0.0720X0.0060*%
%ADD29R,0.0312X0.0004*%
%ADD30R,0.0344X0.0004*%
%ADD31R,0.0368X0.0004*%
%ADD32R,0.0392X0.0004*%
%ADD33R,0.0408X0.0004*%
%ADD34R,0.0424X0.0004*%
%ADD35R,0.0432X0.0004*%
%ADD36R,0.0448X0.0004*%
%ADD37R,0.0456X0.0004*%
%ADD38R,0.0472X0.0004*%
%ADD39R,0.0480X0.0004*%
%ADD40R,0.0488X0.0004*%
%ADD41R,0.0496X0.0004*%
%ADD42R,0.0504X0.0004*%
%ADD43R,0.0512X0.0004*%
%ADD44R,0.0520X0.0004*%
%ADD45R,0.0528X0.0004*%
%ADD46R,0.0536X0.0004*%
%ADD47R,0.0536X0.0004*%
%ADD48R,0.0544X0.0004*%
%ADD49R,0.0552X0.0004*%
%ADD50R,0.0560X0.0004*%
%ADD51R,0.0560X0.0004*%
%ADD52R,0.0568X0.0004*%
%ADD53R,0.0576X0.0004*%
%ADD54R,0.0584X0.0004*%
%ADD55R,0.0592X0.0004*%
%ADD56R,0.0592X0.0004*%
%ADD57R,0.0600X0.0004*%
%ADD58R,0.0608X0.0004*%
%ADD59R,0.0608X0.0004*%
%ADD60R,0.0616X0.0004*%
%ADD61R,0.0624X0.0004*%
%ADD62R,0.0632X0.0004*%
%ADD63R,0.0632X0.0004*%
%ADD64R,0.0640X0.0004*%
%ADD65R,0.0648X0.0004*%
%ADD66R,0.0648X0.0004*%
%ADD67R,0.0656X0.0004*%
%ADD68R,0.0664X0.0004*%
%ADD69R,0.0664X0.0004*%
%ADD70R,0.0672X0.0004*%
%ADD71R,0.0680X0.0004*%
%ADD72R,0.0680X0.0004*%
%ADD73R,0.0688X0.0004*%
%ADD74R,0.0696X0.0004*%
%ADD75R,0.0700X0.0004*%
%ADD76R,0.0708X0.0004*%
%ADD77R,0.0716X0.0004*%
%ADD78R,0.0720X0.0004*%
%ADD79R,0.0720X0.0004*%
%ADD80R,0.0724X0.0004*%
%ADD81R,0.0808X0.0004*%
%ADD82R,0.0824X0.0004*%
%ADD83R,0.0832X0.0004*%
%ADD84R,0.0840X0.0004*%
%ADD85R,0.0848X0.0004*%
%ADD86R,0.0856X0.0004*%
%ADD87R,0.0860X0.0004*%
%ADD88R,0.0864X0.0004*%
%ADD89R,0.0864X0.0004*%
%ADD90R,0.0868X0.0004*%
%ADD91R,0.0872X0.0004*%
%ADD92R,0.0872X0.0004*%
%ADD93R,0.0860X0.0004*%
%ADD94R,0.0832X0.0004*%
%ADD95R,0.0824X0.0004*%
%ADD96R,0.0708X0.0004*%
%ADD97R,0.0712X0.0004*%
%ADD98R,0.0712X0.0004*%
%ADD99R,0.0700X0.0004*%
%ADD100R,0.0696X0.0004*%
%ADD101R,0.0692X0.0004*%
%ADD102R,0.0668X0.0004*%
%ADD103R,0.0660X0.0004*%
%ADD104R,0.0452X0.0004*%
%ADD105R,0.0188X0.0004*%
%ADD106R,0.0448X0.0004*%
%ADD107R,0.0440X0.0004*%
%ADD108R,0.0184X0.0004*%
%ADD109R,0.0432X0.0004*%
%ADD110R,0.0184X0.0004*%
%ADD111R,0.0424X0.0004*%
%ADD112R,0.0412X0.0004*%
%ADD113R,0.0128X0.0004*%
%ADD114R,0.0044X0.0004*%
%ADD115R,0.0400X0.0004*%
%ADD116R,0.0008X0.0004*%
%ADD117R,0.0388X0.0004*%
%ADD118R,0.0132X0.0004*%
%ADD119R,0.0360X0.0004*%
%ADD120R,0.0136X0.0004*%
%ADD121R,0.0340X0.0004*%
%ADD122R,0.0140X0.0004*%
%ADD123R,0.0328X0.0004*%
%ADD124R,0.0144X0.0004*%
%ADD125R,0.0324X0.0004*%
%ADD126R,0.0148X0.0004*%
%ADD127R,0.0320X0.0004*%
%ADD128R,0.0156X0.0004*%
%ADD129R,0.0316X0.0004*%
%ADD130R,0.0176X0.0004*%
%ADD131R,0.0080X0.0004*%
%ADD132R,0.0052X0.0004*%
%ADD133R,0.0380X0.0004*%
%ADD134R,0.0372X0.0004*%
%ADD135R,0.0356X0.0004*%
%ADD136R,0.0004X0.0004*%
%ADD137R,0.0308X0.0004*%
%ADD138R,0.0060X0.0004*%
%ADD139R,0.0240X0.0004*%
%ADD140R,0.0232X0.0004*%
%ADD141R,0.0044X0.0004*%
%ADD142R,0.0164X0.0004*%
%ADD143R,0.0056X0.0004*%
%ADD144R,0.0036X0.0004*%
%ADD145R,0.0156X0.0004*%
%ADD146R,0.0048X0.0004*%
%ADD147R,0.0024X0.0004*%
%ADD148R,0.0036X0.0004*%
%ADD149R,0.0016X0.0004*%
%ADD150R,0.0028X0.0004*%
%ADD151R,0.0012X0.0004*%
%ADD152R,0.0124X0.0004*%
%ADD153R,0.0108X0.0004*%
%ADD154R,0.0008X0.0004*%
%ADD155R,0.0092X0.0004*%
%ADD156R,0.0068X0.0004*%
%ADD157R,0.0008X0.0004*%
%ADD158R,0.0016X0.0004*%
%ADD159R,0.0024X0.0004*%
%ADD160R,0.0032X0.0004*%
%ADD161R,0.0032X0.0004*%
%ADD162R,0.0040X0.0004*%
%ADD163R,0.0056X0.0004*%
%ADD164R,0.0064X0.0004*%
%ADD165R,0.0072X0.0004*%
%ADD166R,0.0088X0.0004*%
%ADD167R,0.0096X0.0004*%
%ADD168R,0.0104X0.0004*%
%ADD169R,0.0112X0.0004*%
%ADD170R,0.0120X0.0004*%
%ADD171R,0.0124X0.0004*%
%ADD172R,0.0128X0.0004*%
%ADD173R,0.0144X0.0004*%
%ADD174R,0.0152X0.0004*%
%ADD175R,0.0152X0.0004*%
%ADD176R,0.0160X0.0004*%
%ADD177R,0.0168X0.0004*%
%ADD178R,0.0176X0.0004*%
%ADD179R,0.0184X0.0004*%
%ADD180R,0.0192X0.0004*%
%ADD181R,0.0200X0.0004*%
%ADD182R,0.0208X0.0004*%
%ADD183R,0.0216X0.0004*%
%ADD184R,0.0216X0.0004*%
%ADD185R,0.0224X0.0004*%
%ADD186R,0.0232X0.0004*%
%ADD187R,0.0240X0.0004*%
%ADD188R,0.0248X0.0004*%
%ADD189R,0.0256X0.0004*%
%ADD190R,0.0264X0.0004*%
%ADD191R,0.0272X0.0004*%
%ADD192R,0.0280X0.0004*%
%ADD193R,0.0288X0.0004*%
%ADD194R,0.0296X0.0004*%
%ADD195R,0.0304X0.0004*%
%ADD196R,0.0320X0.0004*%
%ADD197R,0.0328X0.0004*%
%ADD198R,0.0336X0.0004*%
%ADD199R,0.0336X0.0004*%
%ADD200R,0.0200X0.0004*%
%ADD201R,0.0128X0.0004*%
%ADD202R,0.0204X0.0004*%
%ADD203R,0.0216X0.0004*%
%ADD204R,0.0228X0.0004*%
%ADD205R,0.0416X0.0004*%
%ADD206R,0.0424X0.0004*%
%ADD207R,0.0428X0.0004*%
%ADD208R,0.0304X0.0004*%
%ADD209R,0.0180X0.0004*%
%ADD210R,0.0112X0.0004*%
%ADD211R,0.0176X0.0004*%
%ADD212R,0.0112X0.0004*%
%ADD213R,0.0132X0.0004*%
%ADD214R,0.0116X0.0004*%
%ADD215R,0.0332X0.0004*%
%ADD216R,0.0336X0.0004*%
%ADD217R,0.0480X0.0004*%
%ADD218R,0.0496X0.0004*%
%ADD219R,0.0512X0.0004*%
%ADD220R,0.0544X0.0004*%
%ADD221R,0.0208X0.0004*%
%ADD222R,0.0356X0.0004*%
%ADD223R,0.0208X0.0004*%
%ADD224R,0.0364X0.0004*%
%ADD225R,0.0212X0.0004*%
%ADD226R,0.0368X0.0004*%
%ADD227R,0.0220X0.0004*%
%ADD228R,0.0600X0.0004*%
%ADD229R,0.0356X0.0004*%
%ADD230R,0.0228X0.0004*%
%ADD231R,0.0236X0.0004*%
%ADD232R,0.0360X0.0004*%
%ADD233R,0.0368X0.0004*%
%ADD234R,0.0244X0.0004*%
%ADD235R,0.0252X0.0004*%
%ADD236R,0.0376X0.0004*%
%ADD237R,0.0672X0.0004*%
%ADD238R,0.0624X0.0004*%
%ADD239R,0.0596X0.0004*%
%ADD240R,0.0552X0.0004*%
%ADD241R,0.0456X0.0004*%
%ADD242R,0.0384X0.0004*%
%ADD243R,0.0352X0.0004*%
%ADD244R,0.0188X0.0004*%
%ADD245R,0.0108X0.0004*%
%ADD246C,0.0555*%
%ADD247R,0.0985X0.0985*%
%ADD248C,0.0640*%
D10*
X001046Y000180D02*
X017188Y000180D01*
X017188Y019865D01*
X001046Y019865D01*
X001046Y000180D01*
D11*
X003981Y000456D02*
X003981Y000649D01*
X003981Y000456D02*
X004077Y000359D01*
X004174Y000456D01*
X004174Y000649D01*
X004275Y000649D02*
X004469Y000649D01*
X004469Y000504D01*
X004372Y000553D01*
X004324Y000553D01*
X004275Y000504D01*
X004275Y000408D01*
X004324Y000359D01*
X004420Y000359D01*
X004469Y000408D01*
X005581Y000380D02*
X005629Y000332D01*
X005726Y000332D01*
X005774Y000380D01*
X005774Y000574D01*
X005726Y000622D01*
X005629Y000622D01*
X005581Y000574D01*
X005875Y000574D02*
X005875Y000380D01*
X005924Y000332D01*
X006069Y000332D01*
X006069Y000622D01*
X005924Y000622D01*
X005875Y000574D01*
X006170Y000525D02*
X006170Y000332D01*
X006170Y000477D02*
X006364Y000477D01*
X006364Y000525D02*
X006267Y000622D01*
X006170Y000525D01*
X006364Y000525D02*
X006364Y000332D01*
X006463Y000332D02*
X006511Y000332D01*
X006511Y000380D01*
X006463Y000380D01*
X006463Y000332D01*
X006463Y000477D02*
X006511Y000477D01*
X006511Y000525D01*
X006463Y000525D01*
X006463Y000477D01*
X006612Y000477D02*
X006806Y000477D01*
X006660Y000622D01*
X006660Y000332D01*
X007573Y000375D02*
X007573Y000665D01*
X007766Y000665D02*
X007573Y000375D01*
X007766Y000375D02*
X007766Y000665D01*
X007866Y000665D02*
X007963Y000665D01*
X007914Y000665D02*
X007914Y000375D01*
X007866Y000375D02*
X007963Y000375D01*
X008064Y000327D02*
X008257Y000327D01*
X008359Y000423D02*
X008407Y000375D01*
X008504Y000375D01*
X008552Y000423D01*
X008552Y000617D01*
X008504Y000665D01*
X008407Y000665D01*
X008359Y000617D01*
X008651Y000568D02*
X008651Y000520D01*
X008699Y000520D01*
X008699Y000568D01*
X008651Y000568D01*
X008651Y000423D02*
X008651Y000375D01*
X008699Y000375D01*
X008699Y000423D01*
X008651Y000423D01*
X008801Y000423D02*
X008849Y000375D01*
X008946Y000375D01*
X008994Y000423D01*
X008994Y000520D02*
X008897Y000568D01*
X008849Y000568D01*
X008801Y000520D01*
X008801Y000423D01*
X008994Y000520D02*
X008994Y000665D01*
X008801Y000665D01*
X009367Y000676D02*
X009367Y000386D01*
X009560Y000676D01*
X009560Y000386D01*
X009660Y000386D02*
X009757Y000386D01*
X009709Y000386D02*
X009709Y000676D01*
X009757Y000676D02*
X009660Y000676D01*
X009858Y000338D02*
X010052Y000338D01*
X010153Y000386D02*
X010153Y000580D01*
X010249Y000676D01*
X010346Y000580D01*
X010346Y000386D01*
X010445Y000386D02*
X010445Y000434D01*
X010494Y000434D01*
X010494Y000386D01*
X010445Y000386D01*
X010445Y000531D02*
X010494Y000531D01*
X010494Y000580D01*
X010445Y000580D01*
X010445Y000531D01*
X010346Y000531D02*
X010153Y000531D01*
X010595Y000483D02*
X010643Y000531D01*
X010788Y000531D01*
X010788Y000434D01*
X010740Y000386D01*
X010643Y000386D01*
X010595Y000434D01*
X010595Y000483D01*
X010691Y000628D02*
X010788Y000531D01*
X010691Y000628D02*
X010595Y000676D01*
X011463Y000621D02*
X011463Y000427D01*
X011511Y000379D01*
X011608Y000379D01*
X011656Y000427D01*
X011656Y000621D01*
X011608Y000669D01*
X011511Y000669D01*
X011463Y000621D01*
X011757Y000669D02*
X011951Y000669D01*
X011951Y000379D01*
X011757Y000379D01*
X011854Y000524D02*
X011951Y000524D01*
X012052Y000379D02*
X012052Y000669D01*
X012245Y000669D02*
X012052Y000379D01*
X012245Y000379D02*
X012245Y000669D01*
X012344Y000572D02*
X012344Y000524D01*
X012393Y000524D01*
X012393Y000572D01*
X012344Y000572D01*
X012344Y000427D02*
X012344Y000379D01*
X012393Y000379D01*
X012393Y000427D01*
X012344Y000427D01*
X012494Y000621D02*
X012687Y000427D01*
X012687Y000379D01*
X012687Y000669D02*
X012494Y000669D01*
X012494Y000621D01*
X013636Y000613D02*
X013636Y000419D01*
X013684Y000371D01*
X013829Y000371D01*
X013829Y000661D01*
X013684Y000661D01*
X013636Y000613D01*
X013931Y000661D02*
X013931Y000371D01*
X014124Y000661D01*
X014124Y000371D01*
X014225Y000419D02*
X014225Y000516D01*
X014322Y000516D01*
X014419Y000419D02*
X014370Y000371D01*
X014274Y000371D01*
X014225Y000419D01*
X014419Y000419D02*
X014419Y000613D01*
X014370Y000661D01*
X014274Y000661D01*
X014225Y000613D01*
X014264Y019387D02*
X014167Y019387D01*
X014119Y019435D01*
X014119Y019532D01*
X014216Y019532D01*
X014312Y019629D02*
X014312Y019435D01*
X014264Y019387D01*
X014312Y019629D02*
X014264Y019677D01*
X014167Y019677D01*
X014119Y019629D01*
X014018Y019677D02*
X014018Y019387D01*
X013824Y019387D02*
X013824Y019677D01*
X013723Y019677D02*
X013578Y019677D01*
X013530Y019629D01*
X013530Y019435D01*
X013578Y019387D01*
X013723Y019387D01*
X013723Y019677D01*
X014018Y019677D02*
X013824Y019387D01*
X012731Y019447D02*
X012682Y019399D01*
X012586Y019399D01*
X012537Y019447D01*
X012537Y019495D01*
X012586Y019544D01*
X012634Y019544D01*
X012586Y019544D02*
X012537Y019592D01*
X012537Y019640D01*
X012586Y019689D01*
X012682Y019689D01*
X012731Y019640D01*
X012436Y019592D02*
X012436Y019544D01*
X012388Y019544D01*
X012388Y019592D01*
X012436Y019592D01*
X012436Y019447D02*
X012388Y019447D01*
X012388Y019399D01*
X012436Y019399D01*
X012436Y019447D01*
X012289Y019495D02*
X012144Y019495D01*
X012095Y019544D01*
X012095Y019640D01*
X012144Y019689D01*
X012289Y019689D01*
X012289Y019399D01*
X011994Y019399D02*
X011994Y019689D01*
X011801Y019689D02*
X011801Y019399D01*
X011897Y019495D01*
X011994Y019399D01*
X011699Y019399D02*
X011699Y019689D01*
X011603Y019592D01*
X011506Y019689D01*
X011506Y019399D01*
X010672Y019387D02*
X010478Y019580D01*
X010478Y019629D01*
X010527Y019677D01*
X010623Y019677D01*
X010672Y019629D01*
X010672Y019387D02*
X010478Y019387D01*
X010377Y019387D02*
X010377Y019435D01*
X010329Y019435D01*
X010329Y019387D01*
X010377Y019387D01*
X010377Y019532D02*
X010377Y019580D01*
X010329Y019580D01*
X010329Y019532D01*
X010377Y019532D01*
X010230Y019484D02*
X010085Y019484D01*
X010036Y019532D01*
X010036Y019629D01*
X010085Y019677D01*
X010230Y019677D01*
X010230Y019387D01*
X009935Y019387D02*
X009935Y019677D01*
X009742Y019677D02*
X009742Y019387D01*
X009838Y019484D01*
X009935Y019387D01*
X009640Y019387D02*
X009640Y019677D01*
X009544Y019580D01*
X009447Y019677D01*
X009447Y019387D01*
X008802Y019410D02*
X008608Y019410D01*
X008705Y019410D02*
X008705Y019701D01*
X008802Y019604D01*
X008507Y019604D02*
X008507Y019556D01*
X008459Y019556D01*
X008459Y019604D01*
X008507Y019604D01*
X008507Y019459D02*
X008507Y019410D01*
X008459Y019410D01*
X008459Y019459D01*
X008507Y019459D01*
X008360Y019507D02*
X008215Y019507D01*
X008166Y019556D01*
X008166Y019652D01*
X008215Y019701D01*
X008360Y019701D01*
X008360Y019410D01*
X008065Y019410D02*
X007968Y019507D01*
X007871Y019410D01*
X007871Y019701D01*
X007770Y019701D02*
X007674Y019604D01*
X007577Y019701D01*
X007577Y019410D01*
X007770Y019410D02*
X007770Y019701D01*
X008065Y019701D02*
X008065Y019410D01*
X006660Y019459D02*
X006612Y019410D01*
X006515Y019410D01*
X006466Y019459D01*
X006466Y019652D01*
X006660Y019459D01*
X006660Y019652D01*
X006612Y019701D01*
X006515Y019701D01*
X006466Y019652D01*
X006365Y019604D02*
X006365Y019556D01*
X006317Y019556D01*
X006317Y019604D01*
X006365Y019604D01*
X006365Y019459D02*
X006365Y019410D01*
X006317Y019410D01*
X006317Y019459D01*
X006365Y019459D01*
X006218Y019507D02*
X006073Y019507D01*
X006024Y019556D01*
X006024Y019652D01*
X006073Y019701D01*
X006218Y019701D01*
X006218Y019410D01*
X005923Y019410D02*
X005923Y019701D01*
X005730Y019701D02*
X005730Y019410D01*
X005827Y019507D01*
X005923Y019410D01*
X005629Y019410D02*
X005629Y019701D01*
X005532Y019604D01*
X005435Y019701D01*
X005435Y019410D01*
X004502Y019435D02*
X004454Y019387D01*
X004357Y019387D01*
X004308Y019435D01*
X004308Y019532D01*
X004357Y019580D01*
X004405Y019580D01*
X004502Y019532D01*
X004502Y019677D01*
X004308Y019677D01*
X004207Y019677D02*
X004207Y019484D01*
X004111Y019387D01*
X004014Y019484D01*
X004014Y019677D01*
D12*
X002986Y019154D02*
X002913Y019080D01*
X002839Y019080D01*
X002766Y019154D01*
X002766Y019521D01*
X002839Y019521D02*
X002693Y019521D01*
X002526Y019521D02*
X002526Y019080D01*
X002526Y019227D02*
X002232Y019521D01*
X002065Y019521D02*
X002065Y019080D01*
X001919Y019227D01*
X001772Y019080D01*
X001772Y019521D01*
X002232Y019080D02*
X002452Y019301D01*
X002452Y018771D02*
X002306Y018771D01*
X002232Y018697D01*
X002232Y018624D01*
X002306Y018551D01*
X002232Y018477D01*
X002232Y018404D01*
X002306Y018330D01*
X002452Y018330D01*
X002526Y018404D01*
X002379Y018551D02*
X002306Y018551D01*
X002526Y018697D02*
X002452Y018771D01*
X002693Y018624D02*
X002839Y018330D01*
X002986Y018624D01*
X002065Y018404D02*
X001992Y018404D01*
X001992Y018330D01*
X002065Y018330D01*
X002065Y018404D01*
X001835Y018404D02*
X001762Y018330D01*
X001615Y018330D01*
X001542Y018404D01*
X001542Y018697D01*
X001615Y018771D01*
X001762Y018771D01*
X001835Y018697D01*
X001835Y018624D01*
X001762Y018551D01*
X001542Y018551D01*
D13*
X006085Y008507D03*
X007085Y008507D03*
X007085Y007507D03*
X006085Y007507D03*
X008085Y007507D03*
X008085Y008507D03*
D14*
X007727Y016762D03*
X008637Y016762D03*
X009719Y016747D03*
X010628Y016747D03*
X011538Y016747D03*
X012534Y016747D03*
X013443Y016747D03*
X014353Y016747D03*
X006817Y016762D03*
X005719Y016778D03*
X004810Y016778D03*
X003900Y016778D03*
D15*
X004810Y014338D03*
X007727Y014322D03*
X010628Y014306D03*
X013443Y014306D03*
D16*
X014038Y018684D03*
X012069Y018684D03*
X010101Y018684D03*
X008132Y018684D03*
X006164Y018684D03*
X004195Y018684D03*
X004029Y010271D03*
X004195Y001361D03*
X006164Y001361D03*
X008132Y001361D03*
X010101Y001361D03*
X012069Y001361D03*
X014038Y001361D03*
X013943Y003796D03*
D17*
X007679Y005840D03*
X006576Y005840D03*
D18*
X013752Y009865D03*
X014500Y009865D03*
D19*
X015617Y000735D03*
X001617Y000735D03*
D20*
X001617Y001735D03*
X001617Y002735D03*
X001617Y003735D03*
X001617Y004735D03*
X001617Y005735D03*
X001617Y006735D03*
X001617Y007735D03*
X001617Y008735D03*
X001617Y009735D03*
X001617Y010735D03*
X001617Y011735D03*
X001617Y012735D03*
X001617Y013735D03*
X001617Y014735D03*
X001617Y015735D03*
X001617Y016735D03*
X001617Y017735D03*
X002617Y017735D03*
X002617Y016735D03*
X002617Y015735D03*
X002617Y014735D03*
X002617Y013735D03*
X002617Y012735D03*
X002617Y011735D03*
X002617Y010735D03*
X002617Y009735D03*
X002617Y008735D03*
X002617Y007735D03*
X002617Y006735D03*
X002617Y005735D03*
X002617Y004735D03*
X002617Y003735D03*
X002617Y002735D03*
X002617Y001735D03*
X002617Y000735D03*
X015617Y001735D03*
X016617Y001735D03*
X016617Y000735D03*
X016617Y002735D03*
X016617Y003735D03*
X016617Y004735D03*
X016617Y005735D03*
X016617Y006735D03*
X016617Y007735D03*
X016617Y008735D03*
X016617Y009735D03*
X016617Y010735D03*
X016617Y011735D03*
X016617Y012735D03*
X016617Y013735D03*
X016617Y014735D03*
X016617Y015735D03*
X016617Y016735D03*
X016617Y017735D03*
X015617Y017735D03*
X015617Y016735D03*
X015617Y015735D03*
X015617Y014735D03*
X015617Y013735D03*
X015617Y012735D03*
X015617Y011735D03*
X015617Y010735D03*
X015617Y009735D03*
X015617Y008735D03*
X015617Y007735D03*
X015617Y006735D03*
X015617Y005735D03*
X015617Y004735D03*
X015617Y003735D03*
X015617Y002735D03*
D21*
X010662Y012583D03*
D22*
X005556Y002920D03*
X004454Y002920D03*
D23*
X009750Y005443D03*
X010250Y005443D03*
X010750Y005443D03*
X011250Y005443D03*
X011750Y005443D03*
X012250Y005443D03*
X012750Y005443D03*
X012750Y007863D03*
X012250Y007863D03*
X011750Y007863D03*
X011250Y007863D03*
X010750Y007863D03*
X010250Y007863D03*
X009750Y007863D03*
D24*
X009517Y004433D03*
X009517Y003685D03*
D25*
X009798Y013037D03*
X009198Y013037D03*
X007787Y013068D03*
X007187Y013068D03*
D26*
X007487Y013068D03*
X009498Y013037D03*
D27*
X009484Y011955D03*
X009484Y011355D03*
X009484Y011128D03*
X009484Y010528D03*
X009471Y009845D03*
X009471Y009245D03*
D28*
X009471Y009545D03*
X009484Y010828D03*
X009484Y011655D03*
D29*
X015941Y018352D03*
X015937Y018864D03*
X015941Y019164D03*
X015941Y019168D03*
D30*
X015941Y018356D03*
D31*
X015941Y018360D03*
D32*
X015941Y018364D03*
X015965Y018848D03*
D33*
X015941Y019228D03*
X015941Y019232D03*
X015941Y019488D03*
X015941Y018368D03*
D34*
X015941Y018372D03*
D35*
X015941Y018376D03*
X015941Y019248D03*
X015941Y019484D03*
D36*
X015941Y018380D03*
D37*
X015941Y018384D03*
D38*
X015941Y018388D03*
D39*
X015941Y018392D03*
X015941Y019476D03*
D40*
X015941Y019284D03*
X015941Y018396D03*
D41*
X015941Y018400D03*
D42*
X015941Y018404D03*
X015941Y019296D03*
D43*
X015941Y019468D03*
X015941Y018408D03*
D44*
X015941Y018412D03*
X015941Y019304D03*
X015941Y019308D03*
D45*
X015941Y019312D03*
X015941Y018416D03*
D46*
X015941Y018420D03*
D47*
X015941Y018424D03*
X015941Y019316D03*
X015941Y019464D03*
D48*
X015941Y019324D03*
X015941Y018428D03*
D49*
X015941Y018432D03*
X015941Y019328D03*
D50*
X015941Y019332D03*
X015941Y018436D03*
D51*
X015941Y018440D03*
D52*
X015941Y018444D03*
X015941Y019336D03*
X015941Y019456D03*
D53*
X015941Y018452D03*
X015941Y018448D03*
D54*
X015941Y018456D03*
X015941Y019452D03*
D55*
X015941Y018460D03*
D56*
X015941Y018464D03*
D57*
X015941Y018468D03*
X015941Y018472D03*
D58*
X015941Y018476D03*
X015941Y019444D03*
D59*
X015941Y018480D03*
D60*
X015941Y018484D03*
X015941Y018488D03*
D61*
X015941Y018492D03*
X015941Y018496D03*
D62*
X015941Y018500D03*
D63*
X015941Y018504D03*
X015941Y019436D03*
D64*
X015941Y018512D03*
X015941Y018508D03*
D65*
X015941Y018516D03*
X015941Y018524D03*
X015941Y019432D03*
D66*
X015941Y018520D03*
D67*
X015941Y018528D03*
X015941Y018532D03*
X015941Y019396D03*
X015941Y019428D03*
D68*
X015941Y019424D03*
X015941Y019404D03*
X015941Y018536D03*
D69*
X015941Y018540D03*
X015941Y019400D03*
D70*
X015941Y019408D03*
X015937Y018776D03*
X015941Y018552D03*
X015941Y018548D03*
X015941Y018544D03*
D71*
X015941Y018556D03*
X015941Y018772D03*
X015941Y019412D03*
X015941Y019416D03*
D72*
X015941Y018560D03*
D73*
X015941Y018564D03*
X015941Y018568D03*
X015941Y018768D03*
D74*
X015941Y018576D03*
X015941Y018572D03*
D75*
X015939Y018580D03*
D76*
X015939Y018584D03*
X015939Y018588D03*
D77*
X015939Y018592D03*
X015939Y018596D03*
D78*
X015941Y018600D03*
D79*
X015941Y018604D03*
D80*
X015943Y018608D03*
D81*
X015941Y018612D03*
X015941Y018704D03*
D82*
X015941Y018616D03*
D83*
X015941Y018620D03*
D84*
X015941Y018624D03*
X015941Y018692D03*
D85*
X015941Y018688D03*
X015941Y018628D03*
D86*
X015941Y018632D03*
X015941Y018684D03*
D87*
X015943Y018636D03*
D88*
X015941Y018640D03*
D89*
X015941Y018644D03*
X015941Y018672D03*
X015941Y018676D03*
D90*
X015943Y018668D03*
X015943Y018652D03*
X015943Y018648D03*
D91*
X015941Y018656D03*
X015941Y018664D03*
D92*
X015941Y018660D03*
D93*
X015943Y018680D03*
D94*
X015941Y018696D03*
D95*
X015941Y018700D03*
D96*
X015951Y018736D03*
X015947Y018748D03*
D97*
X015949Y018740D03*
D98*
X015949Y018744D03*
D99*
X015947Y018752D03*
X015947Y018756D03*
D100*
X015945Y018760D03*
D101*
X015943Y018764D03*
D102*
X015935Y018780D03*
D103*
X015935Y018784D03*
X015935Y018788D03*
D104*
X015835Y018792D03*
D105*
X016167Y018808D03*
X016171Y018796D03*
X016171Y018792D03*
D106*
X015833Y018796D03*
D107*
X015833Y018800D03*
D108*
X016169Y018800D03*
D109*
X015833Y018804D03*
D110*
X016169Y018804D03*
D111*
X015829Y018808D03*
D112*
X015827Y018812D03*
D113*
X016129Y018816D03*
X016133Y018812D03*
X016049Y019188D03*
X016053Y019192D03*
D114*
X016239Y018812D03*
D115*
X015825Y018816D03*
X015941Y019224D03*
D116*
X015941Y018964D03*
X016257Y018816D03*
D117*
X015823Y018820D03*
D118*
X016123Y018820D03*
X015779Y019260D03*
D119*
X015829Y019348D03*
X015813Y018824D03*
D120*
X015941Y018892D03*
X015941Y019048D03*
X016061Y019208D03*
X016121Y018824D03*
D121*
X015807Y018828D03*
D122*
X016115Y018828D03*
X016063Y019212D03*
D123*
X015873Y019268D03*
X015809Y018832D03*
D124*
X016109Y018832D03*
D125*
X015811Y018836D03*
D126*
X015939Y018888D03*
X016103Y018836D03*
D127*
X015817Y018840D03*
X015941Y019500D03*
D128*
X016059Y019220D03*
X016095Y018840D03*
D129*
X015823Y018844D03*
D130*
X016077Y018844D03*
D131*
X015941Y019008D03*
X015941Y019012D03*
X015713Y018848D03*
D132*
X015715Y018852D03*
X015815Y018876D03*
D133*
X015963Y018852D03*
D134*
X015959Y018856D03*
D135*
X015955Y018860D03*
X015835Y019340D03*
D136*
X016107Y018864D03*
D137*
X015935Y018868D03*
D138*
X015815Y018872D03*
D139*
X015969Y018872D03*
X015941Y019116D03*
X015741Y019384D03*
X015941Y019508D03*
D140*
X015753Y019364D03*
X015749Y019368D03*
X015969Y018876D03*
D141*
X015811Y018880D03*
D142*
X015939Y018880D03*
D143*
X016053Y018880D03*
D144*
X015811Y018884D03*
D145*
X015939Y018884D03*
D146*
X015941Y018988D03*
X016057Y018884D03*
D147*
X015809Y018888D03*
D148*
X015939Y018912D03*
X016059Y018888D03*
D149*
X016065Y018896D03*
X015809Y018892D03*
D150*
X016063Y018892D03*
D151*
X015807Y018896D03*
D152*
X015939Y018896D03*
X015783Y019252D03*
X016115Y019276D03*
D153*
X015939Y018900D03*
D154*
X016069Y018900D03*
D155*
X015939Y018904D03*
D156*
X015939Y018908D03*
D157*
X015941Y018960D03*
D158*
X015941Y018968D03*
D159*
X015941Y018972D03*
D160*
X015941Y018976D03*
D161*
X015941Y018980D03*
D162*
X015941Y018984D03*
D163*
X015941Y018992D03*
X015941Y018996D03*
D164*
X015941Y019000D03*
D165*
X015941Y019004D03*
D166*
X015941Y019016D03*
D167*
X015941Y019020D03*
D168*
X015941Y019024D03*
X015941Y019028D03*
D169*
X015941Y019032D03*
D170*
X015941Y019036D03*
X016117Y019272D03*
D171*
X015939Y019040D03*
D172*
X015941Y019044D03*
X016057Y019196D03*
X016061Y019204D03*
X015781Y019256D03*
D173*
X015941Y019052D03*
X016061Y019216D03*
D174*
X015941Y019056D03*
D175*
X015941Y019060D03*
D176*
X015941Y019064D03*
D177*
X015941Y019068D03*
X015941Y019072D03*
D178*
X015941Y019076D03*
D179*
X015941Y019080D03*
D180*
X015941Y019084D03*
X015941Y019088D03*
D181*
X015941Y019092D03*
X015869Y019188D03*
X015865Y019192D03*
X015861Y019196D03*
D182*
X015857Y019208D03*
X015941Y019096D03*
D183*
X015941Y019100D03*
D184*
X015941Y019104D03*
D185*
X015941Y019108D03*
D186*
X015941Y019112D03*
X015745Y019376D03*
D187*
X015941Y019120D03*
D188*
X015941Y019124D03*
D189*
X015941Y019128D03*
D190*
X015941Y019132D03*
X015941Y019136D03*
D191*
X015941Y019140D03*
D192*
X015941Y019144D03*
X015941Y019504D03*
D193*
X015941Y019152D03*
X015941Y019148D03*
D194*
X015941Y019156D03*
D195*
X015941Y019160D03*
D196*
X015941Y019172D03*
D197*
X015941Y019176D03*
D198*
X015941Y019180D03*
D199*
X015941Y019184D03*
D200*
X015861Y019200D03*
D201*
X016057Y019200D03*
D202*
X016127Y019344D03*
X015859Y019204D03*
D203*
X015857Y019212D03*
X015857Y019216D03*
D204*
X015859Y019220D03*
D205*
X015941Y019236D03*
D206*
X015941Y019240D03*
D207*
X015943Y019244D03*
D208*
X016009Y019252D03*
D209*
X015951Y019256D03*
X015947Y019264D03*
D210*
X016109Y019256D03*
X016113Y019264D03*
D211*
X015949Y019260D03*
D212*
X016113Y019260D03*
D213*
X015779Y019264D03*
D214*
X016115Y019268D03*
D215*
X015871Y019272D03*
D216*
X015873Y019276D03*
D217*
X015941Y019280D03*
D218*
X015941Y019288D03*
X015941Y019292D03*
X015941Y019472D03*
D219*
X015941Y019300D03*
D220*
X015941Y019320D03*
D221*
X016121Y019340D03*
D222*
X016071Y019368D03*
X016071Y019372D03*
X015831Y019344D03*
D223*
X016129Y019348D03*
D224*
X015827Y019352D03*
D225*
X016131Y019352D03*
D226*
X015829Y019356D03*
D227*
X016127Y019356D03*
D228*
X015941Y019360D03*
D229*
X016067Y019364D03*
X016075Y019376D03*
D230*
X015747Y019372D03*
D231*
X015743Y019380D03*
D232*
X016077Y019380D03*
D233*
X016077Y019384D03*
X016077Y019388D03*
D234*
X015743Y019388D03*
D235*
X015743Y019392D03*
D236*
X016077Y019392D03*
D237*
X015941Y019420D03*
D238*
X015941Y019440D03*
D239*
X015943Y019448D03*
D240*
X015941Y019460D03*
D241*
X015941Y019480D03*
D242*
X015941Y019492D03*
D243*
X015941Y019496D03*
D244*
X015939Y019512D03*
D245*
X015943Y019516D03*
D246*
X012883Y015520D02*
X012368Y015520D01*
X012368Y010320D02*
X012883Y010320D01*
X005583Y010320D02*
X005068Y010320D01*
X005068Y015520D02*
X005583Y015520D01*
D247*
X012215Y012890D03*
X013947Y012890D03*
D248*
X013711Y010755D02*
X014311Y010755D01*
X014311Y007755D02*
X013711Y007755D01*
X013711Y006755D02*
X014311Y006755D01*
X014311Y005755D02*
X013711Y005755D01*
X004456Y005990D02*
X003856Y005990D01*
X003856Y004990D02*
X004456Y004990D01*
X004456Y003990D02*
X003856Y003990D01*
X003856Y008990D02*
X004456Y008990D01*
M02*
