G75*
%MOIN*%
%OFA0B0*%
%FSLAX24Y24*%
%IPPOS*%
%LPD*%
%AMOC8*
5,1,8,0,0,1.08239X$1,22.5*
%
%ADD10C,0.0160*%
%ADD11R,0.0480X0.0880*%
%ADD12R,0.1417X0.0866*%
%ADD13R,0.0630X0.0787*%
%ADD14R,0.0512X0.0591*%
%ADD15R,0.0500X0.1000*%
%ADD16R,0.0630X0.0709*%
%ADD17R,0.0260X0.0800*%
%ADD18R,0.0591X0.0512*%
%ADD19R,0.0460X0.0630*%
%ADD20R,0.0630X0.0460*%
%ADD21R,0.0945X0.0945*%
D10*
X001046Y000180D02*
X017188Y000180D01*
X017188Y019865D01*
X001046Y019865D01*
X001046Y000180D01*
D11*
X003900Y016778D03*
X004810Y016778D03*
X005719Y016778D03*
X006817Y016762D03*
X007727Y016762D03*
X008637Y016762D03*
X009719Y016747D03*
X010628Y016747D03*
X011538Y016747D03*
X012534Y016747D03*
X013443Y016747D03*
X014353Y016747D03*
D12*
X013443Y014306D03*
X010628Y014306D03*
X007727Y014322D03*
X004810Y014338D03*
D13*
X006576Y005840D03*
X007679Y005840D03*
D14*
X013752Y009865D03*
X014500Y009865D03*
D15*
X010662Y012583D03*
D16*
X005556Y002920D03*
X004454Y002920D03*
D17*
X009750Y005443D03*
X010250Y005443D03*
X010750Y005443D03*
X011250Y005443D03*
X011750Y005443D03*
X012250Y005443D03*
X012750Y005443D03*
X012750Y007863D03*
X012250Y007863D03*
X011750Y007863D03*
X011250Y007863D03*
X010750Y007863D03*
X010250Y007863D03*
X009750Y007863D03*
D18*
X009517Y004433D03*
X009517Y003685D03*
D19*
X009798Y013037D03*
X009198Y013037D03*
X007787Y013068D03*
X007187Y013068D03*
D20*
X009484Y011955D03*
X009484Y011355D03*
X009484Y011128D03*
X009484Y010528D03*
X009471Y009845D03*
X009471Y009245D03*
D21*
X012215Y012890D03*
X013947Y012890D03*
M02*
