G75*
%MOIN*%
%OFA0B0*%
%FSLAX24Y24*%
%IPPOS*%
%LPD*%
%AMOC8*
5,1,8,0,0,1.08239X$1,22.5*
%
%ADD10C,0.0160*%
%ADD11C,0.0080*%
%ADD12C,0.0040*%
%ADD13C,0.0060*%
%ADD14C,0.0020*%
%ADD15C,0.0050*%
D10*
X001046Y000180D02*
X017188Y000180D01*
X017188Y019865D01*
X001046Y019865D01*
X001046Y000180D01*
D11*
X013005Y012496D02*
X013005Y013284D01*
X013408Y012890D01*
X013005Y012496D01*
X012153Y014826D02*
X014734Y014826D01*
X014734Y016226D01*
X012153Y016226D01*
X012153Y014826D01*
X011919Y014826D02*
X009338Y014826D01*
X009338Y016226D01*
X011919Y016226D01*
X011919Y014826D01*
X009017Y014842D02*
X006437Y014842D01*
X006437Y016242D01*
X009017Y016242D01*
X009017Y014842D01*
X006100Y014858D02*
X003519Y014858D01*
X003519Y016258D01*
X006100Y016258D01*
X006100Y014858D01*
D12*
X004585Y015060D02*
X004509Y014983D01*
X004355Y014983D01*
X004278Y015060D01*
X004278Y015367D01*
X004355Y015443D01*
X004509Y015443D01*
X004585Y015367D01*
X004585Y015060D01*
X004432Y015136D02*
X004278Y014983D01*
X004125Y015060D02*
X004048Y014983D01*
X003895Y014983D01*
X003818Y015060D01*
X003818Y015213D01*
X003895Y015290D01*
X003972Y015290D01*
X004125Y015213D01*
X004125Y015443D01*
X003818Y015443D01*
X008155Y015312D02*
X008462Y015312D01*
X008232Y015543D01*
X008232Y015082D01*
X008616Y015082D02*
X008769Y015236D01*
X008616Y015159D02*
X008692Y015082D01*
X008846Y015082D01*
X008923Y015159D01*
X008923Y015466D01*
X008846Y015543D01*
X008692Y015543D01*
X008616Y015466D01*
X008616Y015159D01*
X010922Y015128D02*
X010999Y015051D01*
X011152Y015051D01*
X011229Y015128D01*
X011382Y015128D02*
X011382Y015435D01*
X011459Y015512D01*
X011613Y015512D01*
X011689Y015435D01*
X011689Y015128D01*
X011613Y015051D01*
X011459Y015051D01*
X011382Y015128D01*
X011382Y015051D02*
X011536Y015205D01*
X011229Y015435D02*
X011152Y015512D01*
X010999Y015512D01*
X010922Y015435D01*
X010922Y015358D01*
X010999Y015282D01*
X010922Y015205D01*
X010922Y015128D01*
X010999Y015282D02*
X011075Y015282D01*
X012191Y013640D02*
X013971Y013640D01*
X013994Y015001D02*
X013687Y015001D01*
X013994Y015001D02*
X013687Y015308D01*
X013687Y015385D01*
X013764Y015462D01*
X013917Y015462D01*
X013994Y015385D01*
X014147Y015385D02*
X014147Y015078D01*
X014224Y015001D01*
X014377Y015001D01*
X014454Y015078D01*
X014454Y015385D01*
X014377Y015462D01*
X014224Y015462D01*
X014147Y015385D01*
X014301Y015155D02*
X014147Y015001D01*
X013971Y012140D02*
X012191Y012140D01*
X010902Y011646D02*
X010442Y011646D01*
X010442Y011493D02*
X010442Y011800D01*
X010748Y011493D02*
X010902Y011646D01*
X010442Y011339D02*
X010442Y011032D01*
X010442Y011186D02*
X010902Y011186D01*
X010748Y011032D01*
X010825Y010879D02*
X010518Y010879D01*
X010442Y010802D01*
X010442Y010572D01*
X010902Y010572D01*
X010902Y010802D01*
X010825Y010879D01*
X010748Y010418D02*
X010442Y010418D01*
X010672Y010418D02*
X010672Y010112D01*
X010748Y010112D02*
X010902Y010265D01*
X010748Y010418D01*
X010748Y010112D02*
X010442Y010112D01*
X010672Y009958D02*
X010595Y009881D01*
X010595Y009651D01*
X010442Y009651D02*
X010902Y009651D01*
X010902Y009881D01*
X010825Y009958D01*
X010672Y009958D01*
X013643Y008990D02*
X013950Y008990D01*
X013797Y008990D02*
X013797Y009450D01*
X013950Y009297D01*
X014104Y009374D02*
X014181Y009450D01*
X014334Y009450D01*
X014411Y009374D01*
X014411Y009067D01*
X014334Y008990D01*
X014181Y008990D01*
X014104Y009067D01*
X010421Y004346D02*
X010344Y004346D01*
X010267Y004270D01*
X010191Y004346D01*
X010114Y004346D01*
X010037Y004270D01*
X010037Y004116D01*
X010114Y004040D01*
X010114Y003886D02*
X010037Y003809D01*
X010037Y003656D01*
X010114Y003579D01*
X010421Y003579D01*
X010498Y003656D01*
X010498Y003809D01*
X010421Y003886D01*
X010421Y004040D02*
X010498Y004116D01*
X010498Y004270D01*
X010421Y004346D01*
X010267Y004270D02*
X010267Y004193D01*
X007608Y006360D02*
X007608Y006820D01*
X007377Y006820D01*
X007301Y006743D01*
X007301Y006590D01*
X007377Y006513D01*
X007608Y006513D01*
X007454Y006513D02*
X007301Y006360D01*
X007147Y006590D02*
X006840Y006590D01*
X006917Y006360D02*
X006917Y006820D01*
X007147Y006590D01*
D13*
X009171Y008895D02*
X009771Y008895D01*
X009788Y008897D01*
X009805Y008901D01*
X009821Y008908D01*
X009835Y008918D01*
X009848Y008931D01*
X009858Y008945D01*
X009865Y008961D01*
X009869Y008978D01*
X009871Y008995D01*
X009871Y010095D01*
X009869Y010112D01*
X009865Y010129D01*
X009858Y010145D01*
X009848Y010159D01*
X009835Y010172D01*
X009821Y010182D01*
X009805Y010189D01*
X009788Y010193D01*
X009771Y010195D01*
X009171Y010195D01*
X009184Y010178D02*
X009784Y010178D01*
X009801Y010180D01*
X009818Y010184D01*
X009834Y010191D01*
X009848Y010201D01*
X009861Y010214D01*
X009871Y010228D01*
X009878Y010244D01*
X009882Y010261D01*
X009884Y010278D01*
X009884Y011378D01*
X009882Y011395D01*
X009878Y011412D01*
X009871Y011428D01*
X009861Y011442D01*
X009848Y011455D01*
X009834Y011465D01*
X009818Y011472D01*
X009801Y011476D01*
X009784Y011478D01*
X009184Y011478D01*
X009167Y011476D01*
X009150Y011472D01*
X009134Y011465D01*
X009120Y011455D01*
X009107Y011442D01*
X009097Y011428D01*
X009090Y011412D01*
X009086Y011395D01*
X009084Y011378D01*
X009084Y010278D01*
X009086Y010261D01*
X009090Y010244D01*
X009097Y010228D01*
X009107Y010214D01*
X009120Y010201D01*
X009134Y010191D01*
X009150Y010184D01*
X009167Y010180D01*
X009184Y010178D01*
X009171Y010195D02*
X009154Y010193D01*
X009137Y010189D01*
X009121Y010182D01*
X009107Y010172D01*
X009094Y010159D01*
X009084Y010145D01*
X009077Y010129D01*
X009073Y010112D01*
X009071Y010095D01*
X009071Y008995D01*
X009073Y008978D01*
X009077Y008961D01*
X009084Y008945D01*
X009094Y008931D01*
X009107Y008918D01*
X009121Y008908D01*
X009137Y008901D01*
X009154Y008897D01*
X009171Y008895D01*
X009500Y007273D02*
X009500Y006853D01*
X009500Y006453D01*
X009500Y006033D01*
X009502Y006010D01*
X009507Y005987D01*
X009516Y005965D01*
X009529Y005945D01*
X009544Y005927D01*
X009562Y005912D01*
X009582Y005899D01*
X009604Y005890D01*
X009627Y005885D01*
X009650Y005883D01*
X009500Y006453D02*
X009527Y006455D01*
X009554Y006460D01*
X009580Y006470D01*
X009604Y006482D01*
X009626Y006498D01*
X009646Y006516D01*
X009663Y006538D01*
X009678Y006561D01*
X009688Y006586D01*
X009696Y006612D01*
X009700Y006639D01*
X009700Y006667D01*
X009696Y006694D01*
X009688Y006720D01*
X009678Y006745D01*
X009663Y006768D01*
X009646Y006790D01*
X009626Y006808D01*
X009604Y006824D01*
X009580Y006836D01*
X009554Y006846D01*
X009527Y006851D01*
X009500Y006853D01*
X009500Y007273D02*
X009502Y007296D01*
X009507Y007319D01*
X009516Y007341D01*
X009529Y007361D01*
X009544Y007379D01*
X009562Y007394D01*
X009582Y007407D01*
X009604Y007416D01*
X009627Y007421D01*
X009650Y007423D01*
X009784Y011005D02*
X009184Y011005D01*
X009167Y011007D01*
X009150Y011011D01*
X009134Y011018D01*
X009120Y011028D01*
X009107Y011041D01*
X009097Y011055D01*
X009090Y011071D01*
X009086Y011088D01*
X009084Y011105D01*
X009084Y012205D01*
X009086Y012222D01*
X009090Y012239D01*
X009097Y012255D01*
X009107Y012269D01*
X009120Y012282D01*
X009134Y012292D01*
X009150Y012299D01*
X009167Y012303D01*
X009184Y012305D01*
X009784Y012305D01*
X009801Y012303D01*
X009818Y012299D01*
X009834Y012292D01*
X009848Y012282D01*
X009861Y012269D01*
X009871Y012255D01*
X009878Y012239D01*
X009882Y012222D01*
X009884Y012205D01*
X009884Y011105D01*
X009882Y011088D01*
X009878Y011071D01*
X009871Y011055D01*
X009861Y011041D01*
X009848Y011028D01*
X009834Y011018D01*
X009818Y011011D01*
X009801Y011007D01*
X009784Y011005D01*
X010048Y012637D02*
X008948Y012637D01*
X008931Y012639D01*
X008914Y012643D01*
X008898Y012650D01*
X008884Y012660D01*
X008871Y012673D01*
X008861Y012687D01*
X008854Y012703D01*
X008850Y012720D01*
X008848Y012737D01*
X008848Y013337D01*
X008850Y013354D01*
X008854Y013371D01*
X008861Y013387D01*
X008871Y013401D01*
X008884Y013414D01*
X008898Y013424D01*
X008914Y013431D01*
X008931Y013435D01*
X008948Y013437D01*
X010048Y013437D01*
X010065Y013435D01*
X010082Y013431D01*
X010098Y013424D01*
X010112Y013414D01*
X010125Y013401D01*
X010135Y013387D01*
X010142Y013371D01*
X010146Y013354D01*
X010148Y013337D01*
X010148Y012737D01*
X010146Y012720D01*
X010142Y012703D01*
X010135Y012687D01*
X010125Y012673D01*
X010112Y012660D01*
X010098Y012650D01*
X010082Y012643D01*
X010065Y012639D01*
X010048Y012637D01*
X008137Y012768D02*
X008137Y013368D01*
X008135Y013385D01*
X008131Y013402D01*
X008124Y013418D01*
X008114Y013432D01*
X008101Y013445D01*
X008087Y013455D01*
X008071Y013462D01*
X008054Y013466D01*
X008037Y013468D01*
X006937Y013468D01*
X006920Y013466D01*
X006903Y013462D01*
X006887Y013455D01*
X006873Y013445D01*
X006860Y013432D01*
X006850Y013418D01*
X006843Y013402D01*
X006839Y013385D01*
X006837Y013368D01*
X006837Y012768D01*
X006839Y012751D01*
X006843Y012734D01*
X006850Y012718D01*
X006860Y012704D01*
X006873Y012691D01*
X006887Y012681D01*
X006903Y012674D01*
X006920Y012670D01*
X006937Y012668D01*
X008037Y012668D01*
X008054Y012670D01*
X008071Y012674D01*
X008087Y012681D01*
X008101Y012691D01*
X008114Y012704D01*
X008124Y012718D01*
X008131Y012734D01*
X008135Y012751D01*
X008137Y012768D01*
X012850Y007423D02*
X012873Y007421D01*
X012896Y007416D01*
X012918Y007407D01*
X012938Y007394D01*
X012956Y007379D01*
X012971Y007361D01*
X012984Y007341D01*
X012993Y007319D01*
X012998Y007296D01*
X013000Y007273D01*
X013000Y006033D01*
X012998Y006010D01*
X012993Y005987D01*
X012984Y005965D01*
X012971Y005945D01*
X012956Y005927D01*
X012938Y005912D01*
X012918Y005899D01*
X012896Y005890D01*
X012873Y005885D01*
X012850Y005883D01*
D14*
X013000Y007283D02*
X009500Y007283D01*
D15*
X008832Y009420D02*
X008682Y009420D01*
X008607Y009495D01*
X008607Y009570D01*
X008682Y009645D01*
X008832Y009645D01*
X008907Y009720D01*
X008907Y009795D01*
X008832Y009870D01*
X008682Y009870D01*
X008607Y009795D01*
X008447Y009495D02*
X008372Y009420D01*
X008296Y009420D01*
X008221Y009495D01*
X008221Y009870D01*
X008296Y009870D02*
X008146Y009870D01*
X007986Y009720D02*
X007836Y009870D01*
X007686Y009720D01*
X007686Y009420D01*
X007986Y009420D02*
X007986Y009720D01*
X007986Y009645D02*
X007686Y009645D01*
X007758Y010568D02*
X007683Y010643D01*
X007758Y010568D02*
X007908Y010568D01*
X007983Y010643D01*
X007983Y010943D01*
X007908Y011018D01*
X007758Y011018D01*
X007683Y010943D01*
X008143Y011018D02*
X008293Y011018D01*
X008218Y011018D02*
X008218Y010643D01*
X008293Y010568D01*
X008369Y010568D01*
X008444Y010643D01*
X008604Y010643D02*
X008679Y010568D01*
X008829Y010568D01*
X008904Y010643D01*
X008829Y010793D02*
X008679Y010793D01*
X008604Y010718D01*
X008604Y010643D01*
X008829Y010793D02*
X008904Y010868D01*
X008904Y010943D01*
X008829Y011018D01*
X008679Y011018D01*
X008604Y010943D01*
X008636Y011428D02*
X008786Y011428D01*
X008861Y011503D01*
X008786Y011653D02*
X008636Y011653D01*
X008561Y011578D01*
X008561Y011503D01*
X008636Y011428D01*
X008786Y011653D02*
X008861Y011728D01*
X008861Y011803D01*
X008786Y011878D01*
X008636Y011878D01*
X008561Y011803D01*
X008250Y011878D02*
X008100Y011878D01*
X008175Y011878D02*
X008175Y011503D01*
X008250Y011428D01*
X008325Y011428D01*
X008400Y011503D01*
X007940Y011503D02*
X007865Y011428D01*
X007715Y011428D01*
X007640Y011503D01*
X007640Y011803D01*
X007715Y011878D01*
X007865Y011878D01*
X007940Y011803D01*
X007940Y011503D01*
X006589Y012888D02*
X006514Y012813D01*
X006364Y012813D01*
X006289Y012888D01*
X006289Y012963D01*
X006364Y013038D01*
X006514Y013038D01*
X006589Y013113D01*
X006589Y013188D01*
X006514Y013263D01*
X006364Y013263D01*
X006289Y013188D01*
X006128Y012888D02*
X006053Y012813D01*
X005978Y012813D01*
X005903Y012888D01*
X005903Y013263D01*
X005978Y013263D02*
X005828Y013263D01*
X005668Y013188D02*
X005668Y012888D01*
X005593Y012813D01*
X005443Y012813D01*
X005368Y012888D01*
X005208Y012888D02*
X005133Y012813D01*
X004982Y012813D01*
X004907Y012888D01*
X004907Y012963D01*
X004982Y013038D01*
X005057Y013038D01*
X004982Y013038D02*
X004907Y013113D01*
X004907Y013188D01*
X004982Y013263D01*
X005133Y013263D01*
X005208Y013188D01*
X005368Y013188D02*
X005443Y013263D01*
X005593Y013263D01*
X005668Y013188D01*
X009049Y013552D02*
X009124Y013477D01*
X009049Y013552D02*
X009049Y013702D01*
X009124Y013777D01*
X009199Y013777D01*
X009274Y013702D01*
X009274Y013552D01*
X009349Y013477D01*
X009424Y013477D01*
X009500Y013552D01*
X009500Y013702D01*
X009424Y013777D01*
X009500Y014087D02*
X009500Y014238D01*
X009500Y014162D02*
X009124Y014162D01*
X009049Y014087D01*
X009049Y014012D01*
X009124Y013937D01*
X009124Y014398D02*
X009049Y014473D01*
X009049Y014623D01*
X009124Y014698D01*
X009049Y014858D02*
X009349Y015158D01*
X009424Y015158D01*
X009500Y015083D01*
X009500Y014933D01*
X009424Y014858D01*
X009424Y014698D02*
X009500Y014623D01*
X009500Y014473D01*
X009424Y014398D01*
X009124Y014398D01*
X009049Y014858D02*
X009049Y015158D01*
X008907Y009495D02*
X008832Y009420D01*
M02*
