G75*
%MOIN*%
%OFA0B0*%
%FSLAX24Y24*%
%IPPOS*%
%LPD*%
%AMOC8*
5,1,8,0,0,1.08239X$1,22.5*
%
%ADD10C,0.0160*%
%ADD11C,0.0030*%
%ADD12C,0.0060*%
%ADD13OC8,0.0640*%
%ADD14R,0.0520X0.0920*%
%ADD15R,0.1457X0.0906*%
%ADD16OC8,0.1290*%
%ADD17OC8,0.0670*%
%ADD18R,0.0670X0.0827*%
%ADD19R,0.0552X0.0631*%
%ADD20C,0.0600*%
%ADD21OC8,0.0600*%
%ADD22R,0.0540X0.1040*%
%ADD23R,0.0670X0.0749*%
%ADD24R,0.0300X0.0840*%
%ADD25R,0.0631X0.0552*%
%ADD26R,0.0500X0.0670*%
%ADD27R,0.0060X0.0720*%
%ADD28R,0.0670X0.0500*%
%ADD29R,0.0720X0.0060*%
%ADD30R,0.0312X0.0004*%
%ADD31R,0.0344X0.0004*%
%ADD32R,0.0368X0.0004*%
%ADD33R,0.0392X0.0004*%
%ADD34R,0.0408X0.0004*%
%ADD35R,0.0424X0.0004*%
%ADD36R,0.0432X0.0004*%
%ADD37R,0.0448X0.0004*%
%ADD38R,0.0456X0.0004*%
%ADD39R,0.0472X0.0004*%
%ADD40R,0.0480X0.0004*%
%ADD41R,0.0488X0.0004*%
%ADD42R,0.0496X0.0004*%
%ADD43R,0.0504X0.0004*%
%ADD44R,0.0512X0.0004*%
%ADD45R,0.0520X0.0004*%
%ADD46R,0.0528X0.0004*%
%ADD47R,0.0536X0.0004*%
%ADD48R,0.0536X0.0004*%
%ADD49R,0.0544X0.0004*%
%ADD50R,0.0552X0.0004*%
%ADD51R,0.0560X0.0004*%
%ADD52R,0.0560X0.0004*%
%ADD53R,0.0568X0.0004*%
%ADD54R,0.0576X0.0004*%
%ADD55R,0.0584X0.0004*%
%ADD56R,0.0592X0.0004*%
%ADD57R,0.0592X0.0004*%
%ADD58R,0.0600X0.0004*%
%ADD59R,0.0608X0.0004*%
%ADD60R,0.0608X0.0004*%
%ADD61R,0.0616X0.0004*%
%ADD62R,0.0624X0.0004*%
%ADD63R,0.0632X0.0004*%
%ADD64R,0.0632X0.0004*%
%ADD65R,0.0640X0.0004*%
%ADD66R,0.0648X0.0004*%
%ADD67R,0.0648X0.0004*%
%ADD68R,0.0656X0.0004*%
%ADD69R,0.0664X0.0004*%
%ADD70R,0.0664X0.0004*%
%ADD71R,0.0672X0.0004*%
%ADD72R,0.0680X0.0004*%
%ADD73R,0.0680X0.0004*%
%ADD74R,0.0688X0.0004*%
%ADD75R,0.0696X0.0004*%
%ADD76R,0.0700X0.0004*%
%ADD77R,0.0708X0.0004*%
%ADD78R,0.0716X0.0004*%
%ADD79R,0.0720X0.0004*%
%ADD80R,0.0720X0.0004*%
%ADD81R,0.0724X0.0004*%
%ADD82R,0.0808X0.0004*%
%ADD83R,0.0824X0.0004*%
%ADD84R,0.0832X0.0004*%
%ADD85R,0.0840X0.0004*%
%ADD86R,0.0848X0.0004*%
%ADD87R,0.0856X0.0004*%
%ADD88R,0.0860X0.0004*%
%ADD89R,0.0864X0.0004*%
%ADD90R,0.0864X0.0004*%
%ADD91R,0.0868X0.0004*%
%ADD92R,0.0872X0.0004*%
%ADD93R,0.0872X0.0004*%
%ADD94R,0.0860X0.0004*%
%ADD95R,0.0832X0.0004*%
%ADD96R,0.0824X0.0004*%
%ADD97R,0.0708X0.0004*%
%ADD98R,0.0712X0.0004*%
%ADD99R,0.0712X0.0004*%
%ADD100R,0.0700X0.0004*%
%ADD101R,0.0696X0.0004*%
%ADD102R,0.0692X0.0004*%
%ADD103R,0.0668X0.0004*%
%ADD104R,0.0660X0.0004*%
%ADD105R,0.0452X0.0004*%
%ADD106R,0.0188X0.0004*%
%ADD107R,0.0448X0.0004*%
%ADD108R,0.0440X0.0004*%
%ADD109R,0.0184X0.0004*%
%ADD110R,0.0432X0.0004*%
%ADD111R,0.0184X0.0004*%
%ADD112R,0.0424X0.0004*%
%ADD113R,0.0412X0.0004*%
%ADD114R,0.0128X0.0004*%
%ADD115R,0.0044X0.0004*%
%ADD116R,0.0400X0.0004*%
%ADD117R,0.0008X0.0004*%
%ADD118R,0.0388X0.0004*%
%ADD119R,0.0132X0.0004*%
%ADD120R,0.0360X0.0004*%
%ADD121R,0.0136X0.0004*%
%ADD122R,0.0340X0.0004*%
%ADD123R,0.0140X0.0004*%
%ADD124R,0.0328X0.0004*%
%ADD125R,0.0144X0.0004*%
%ADD126R,0.0324X0.0004*%
%ADD127R,0.0148X0.0004*%
%ADD128R,0.0320X0.0004*%
%ADD129R,0.0156X0.0004*%
%ADD130R,0.0316X0.0004*%
%ADD131R,0.0176X0.0004*%
%ADD132R,0.0080X0.0004*%
%ADD133R,0.0052X0.0004*%
%ADD134R,0.0380X0.0004*%
%ADD135R,0.0372X0.0004*%
%ADD136R,0.0356X0.0004*%
%ADD137R,0.0004X0.0004*%
%ADD138R,0.0308X0.0004*%
%ADD139R,0.0060X0.0004*%
%ADD140R,0.0240X0.0004*%
%ADD141R,0.0232X0.0004*%
%ADD142R,0.0044X0.0004*%
%ADD143R,0.0164X0.0004*%
%ADD144R,0.0056X0.0004*%
%ADD145R,0.0036X0.0004*%
%ADD146R,0.0156X0.0004*%
%ADD147R,0.0048X0.0004*%
%ADD148R,0.0024X0.0004*%
%ADD149R,0.0036X0.0004*%
%ADD150R,0.0016X0.0004*%
%ADD151R,0.0028X0.0004*%
%ADD152R,0.0012X0.0004*%
%ADD153R,0.0124X0.0004*%
%ADD154R,0.0108X0.0004*%
%ADD155R,0.0008X0.0004*%
%ADD156R,0.0092X0.0004*%
%ADD157R,0.0068X0.0004*%
%ADD158R,0.0008X0.0004*%
%ADD159R,0.0016X0.0004*%
%ADD160R,0.0024X0.0004*%
%ADD161R,0.0032X0.0004*%
%ADD162R,0.0032X0.0004*%
%ADD163R,0.0040X0.0004*%
%ADD164R,0.0056X0.0004*%
%ADD165R,0.0064X0.0004*%
%ADD166R,0.0072X0.0004*%
%ADD167R,0.0088X0.0004*%
%ADD168R,0.0096X0.0004*%
%ADD169R,0.0104X0.0004*%
%ADD170R,0.0112X0.0004*%
%ADD171R,0.0120X0.0004*%
%ADD172R,0.0124X0.0004*%
%ADD173R,0.0128X0.0004*%
%ADD174R,0.0144X0.0004*%
%ADD175R,0.0152X0.0004*%
%ADD176R,0.0152X0.0004*%
%ADD177R,0.0160X0.0004*%
%ADD178R,0.0168X0.0004*%
%ADD179R,0.0176X0.0004*%
%ADD180R,0.0184X0.0004*%
%ADD181R,0.0192X0.0004*%
%ADD182R,0.0200X0.0004*%
%ADD183R,0.0208X0.0004*%
%ADD184R,0.0216X0.0004*%
%ADD185R,0.0216X0.0004*%
%ADD186R,0.0224X0.0004*%
%ADD187R,0.0232X0.0004*%
%ADD188R,0.0240X0.0004*%
%ADD189R,0.0248X0.0004*%
%ADD190R,0.0256X0.0004*%
%ADD191R,0.0264X0.0004*%
%ADD192R,0.0272X0.0004*%
%ADD193R,0.0280X0.0004*%
%ADD194R,0.0288X0.0004*%
%ADD195R,0.0296X0.0004*%
%ADD196R,0.0304X0.0004*%
%ADD197R,0.0320X0.0004*%
%ADD198R,0.0328X0.0004*%
%ADD199R,0.0336X0.0004*%
%ADD200R,0.0336X0.0004*%
%ADD201R,0.0200X0.0004*%
%ADD202R,0.0128X0.0004*%
%ADD203R,0.0204X0.0004*%
%ADD204R,0.0216X0.0004*%
%ADD205R,0.0228X0.0004*%
%ADD206R,0.0416X0.0004*%
%ADD207R,0.0424X0.0004*%
%ADD208R,0.0428X0.0004*%
%ADD209R,0.0304X0.0004*%
%ADD210R,0.0180X0.0004*%
%ADD211R,0.0112X0.0004*%
%ADD212R,0.0176X0.0004*%
%ADD213R,0.0112X0.0004*%
%ADD214R,0.0132X0.0004*%
%ADD215R,0.0116X0.0004*%
%ADD216R,0.0332X0.0004*%
%ADD217R,0.0336X0.0004*%
%ADD218R,0.0480X0.0004*%
%ADD219R,0.0496X0.0004*%
%ADD220R,0.0512X0.0004*%
%ADD221R,0.0544X0.0004*%
%ADD222R,0.0208X0.0004*%
%ADD223R,0.0356X0.0004*%
%ADD224R,0.0208X0.0004*%
%ADD225R,0.0364X0.0004*%
%ADD226R,0.0212X0.0004*%
%ADD227R,0.0368X0.0004*%
%ADD228R,0.0220X0.0004*%
%ADD229R,0.0600X0.0004*%
%ADD230R,0.0356X0.0004*%
%ADD231R,0.0228X0.0004*%
%ADD232R,0.0236X0.0004*%
%ADD233R,0.0360X0.0004*%
%ADD234R,0.0368X0.0004*%
%ADD235R,0.0244X0.0004*%
%ADD236R,0.0252X0.0004*%
%ADD237R,0.0376X0.0004*%
%ADD238R,0.0672X0.0004*%
%ADD239R,0.0624X0.0004*%
%ADD240R,0.0596X0.0004*%
%ADD241R,0.0552X0.0004*%
%ADD242R,0.0456X0.0004*%
%ADD243R,0.0384X0.0004*%
%ADD244R,0.0352X0.0004*%
%ADD245R,0.0188X0.0004*%
%ADD246R,0.0108X0.0004*%
%ADD247C,0.0555*%
%ADD248R,0.0985X0.0985*%
%ADD249C,0.0640*%
D10*
X003348Y000180D02*
X019490Y000180D01*
X019490Y019865D01*
X003348Y019865D01*
X003348Y000180D01*
D11*
X006283Y000456D02*
X006283Y000649D01*
X006283Y000456D02*
X006380Y000359D01*
X006477Y000456D01*
X006477Y000649D01*
X006578Y000649D02*
X006771Y000649D01*
X006771Y000504D01*
X006674Y000553D01*
X006626Y000553D01*
X006578Y000504D01*
X006578Y000408D01*
X006626Y000359D01*
X006723Y000359D01*
X006771Y000408D01*
X007883Y000380D02*
X007932Y000332D01*
X008028Y000332D01*
X008077Y000380D01*
X008077Y000574D01*
X008028Y000622D01*
X007932Y000622D01*
X007883Y000574D01*
X008178Y000574D02*
X008178Y000380D01*
X008226Y000332D01*
X008371Y000332D01*
X008371Y000622D01*
X008226Y000622D01*
X008178Y000574D01*
X008473Y000525D02*
X008473Y000332D01*
X008473Y000477D02*
X008666Y000477D01*
X008666Y000525D02*
X008569Y000622D01*
X008473Y000525D01*
X008666Y000525D02*
X008666Y000332D01*
X008765Y000332D02*
X008813Y000332D01*
X008813Y000380D01*
X008765Y000380D01*
X008765Y000332D01*
X008765Y000477D02*
X008813Y000477D01*
X008813Y000525D01*
X008765Y000525D01*
X008765Y000477D01*
X008915Y000477D02*
X009108Y000477D01*
X008963Y000622D01*
X008963Y000332D01*
X009875Y000375D02*
X009875Y000665D01*
X010069Y000665D02*
X009875Y000375D01*
X010069Y000375D02*
X010069Y000665D01*
X010169Y000665D02*
X010265Y000665D01*
X010217Y000665D02*
X010217Y000375D01*
X010265Y000375D02*
X010169Y000375D01*
X010367Y000327D02*
X010560Y000327D01*
X010661Y000423D02*
X010710Y000375D01*
X010806Y000375D01*
X010855Y000423D01*
X010855Y000617D01*
X010806Y000665D01*
X010710Y000665D01*
X010661Y000617D01*
X010954Y000568D02*
X010954Y000520D01*
X011002Y000520D01*
X011002Y000568D01*
X010954Y000568D01*
X010954Y000423D02*
X010954Y000375D01*
X011002Y000375D01*
X011002Y000423D01*
X010954Y000423D01*
X011103Y000423D02*
X011152Y000375D01*
X011248Y000375D01*
X011297Y000423D01*
X011297Y000520D02*
X011200Y000568D01*
X011152Y000568D01*
X011103Y000520D01*
X011103Y000423D01*
X011297Y000520D02*
X011297Y000665D01*
X011103Y000665D01*
X011669Y000676D02*
X011669Y000386D01*
X011863Y000676D01*
X011863Y000386D01*
X011963Y000386D02*
X012059Y000386D01*
X012011Y000386D02*
X012011Y000676D01*
X012059Y000676D02*
X011963Y000676D01*
X012161Y000338D02*
X012354Y000338D01*
X012455Y000386D02*
X012455Y000580D01*
X012552Y000676D01*
X012649Y000580D01*
X012649Y000386D01*
X012748Y000386D02*
X012796Y000386D01*
X012796Y000434D01*
X012748Y000434D01*
X012748Y000386D01*
X012748Y000531D02*
X012796Y000531D01*
X012796Y000580D01*
X012748Y000580D01*
X012748Y000531D01*
X012649Y000531D02*
X012455Y000531D01*
X012897Y000483D02*
X012946Y000531D01*
X013091Y000531D01*
X013091Y000434D01*
X013042Y000386D01*
X012946Y000386D01*
X012897Y000434D01*
X012897Y000483D01*
X012994Y000628D02*
X012897Y000676D01*
X012994Y000628D02*
X013091Y000531D01*
X013765Y000621D02*
X013765Y000427D01*
X013814Y000379D01*
X013910Y000379D01*
X013959Y000427D01*
X013959Y000621D01*
X013910Y000669D01*
X013814Y000669D01*
X013765Y000621D01*
X014060Y000669D02*
X014253Y000669D01*
X014253Y000379D01*
X014060Y000379D01*
X014157Y000524D02*
X014253Y000524D01*
X014354Y000379D02*
X014354Y000669D01*
X014548Y000669D02*
X014354Y000379D01*
X014548Y000379D02*
X014548Y000669D01*
X014647Y000572D02*
X014647Y000524D01*
X014695Y000524D01*
X014695Y000572D01*
X014647Y000572D01*
X014647Y000427D02*
X014647Y000379D01*
X014695Y000379D01*
X014695Y000427D01*
X014647Y000427D01*
X014796Y000621D02*
X014990Y000427D01*
X014990Y000379D01*
X014990Y000669D02*
X014796Y000669D01*
X014796Y000621D01*
X015938Y000613D02*
X015938Y000419D01*
X015987Y000371D01*
X016132Y000371D01*
X016132Y000661D01*
X015987Y000661D01*
X015938Y000613D01*
X016233Y000661D02*
X016233Y000371D01*
X016427Y000661D01*
X016427Y000371D01*
X016528Y000419D02*
X016528Y000516D01*
X016624Y000516D01*
X016528Y000419D02*
X016576Y000371D01*
X016673Y000371D01*
X016721Y000419D01*
X016721Y000613D01*
X016673Y000661D01*
X016576Y000661D01*
X016528Y000613D01*
X016567Y019387D02*
X016470Y019387D01*
X016421Y019435D01*
X016421Y019532D01*
X016518Y019532D01*
X016421Y019629D02*
X016470Y019677D01*
X016567Y019677D01*
X016615Y019629D01*
X016615Y019435D01*
X016567Y019387D01*
X016320Y019387D02*
X016320Y019677D01*
X016127Y019387D01*
X016127Y019677D01*
X016026Y019677D02*
X015880Y019677D01*
X015832Y019629D01*
X015832Y019435D01*
X015880Y019387D01*
X016026Y019387D01*
X016026Y019677D01*
X015033Y019640D02*
X014985Y019689D01*
X014888Y019689D01*
X014840Y019640D01*
X014840Y019592D01*
X014888Y019544D01*
X014840Y019495D01*
X014840Y019447D01*
X014888Y019399D01*
X014985Y019399D01*
X015033Y019447D01*
X014937Y019544D02*
X014888Y019544D01*
X014739Y019544D02*
X014739Y019592D01*
X014690Y019592D01*
X014690Y019544D01*
X014739Y019544D01*
X014739Y019447D02*
X014739Y019399D01*
X014690Y019399D01*
X014690Y019447D01*
X014739Y019447D01*
X014591Y019495D02*
X014446Y019495D01*
X014398Y019544D01*
X014398Y019640D01*
X014446Y019689D01*
X014591Y019689D01*
X014591Y019399D01*
X014297Y019399D02*
X014200Y019495D01*
X014103Y019399D01*
X014103Y019689D01*
X014002Y019689D02*
X013905Y019592D01*
X013809Y019689D01*
X013809Y019399D01*
X014002Y019399D02*
X014002Y019689D01*
X014297Y019689D02*
X014297Y019399D01*
X012974Y019387D02*
X012781Y019580D01*
X012781Y019629D01*
X012829Y019677D01*
X012926Y019677D01*
X012974Y019629D01*
X012974Y019387D02*
X012781Y019387D01*
X012680Y019387D02*
X012680Y019435D01*
X012631Y019435D01*
X012631Y019387D01*
X012680Y019387D01*
X012680Y019532D02*
X012680Y019580D01*
X012631Y019580D01*
X012631Y019532D01*
X012680Y019532D01*
X012532Y019484D02*
X012387Y019484D01*
X012339Y019532D01*
X012339Y019629D01*
X012387Y019677D01*
X012532Y019677D01*
X012532Y019387D01*
X012238Y019387D02*
X012141Y019484D01*
X012044Y019387D01*
X012044Y019677D01*
X011943Y019677D02*
X011846Y019580D01*
X011749Y019677D01*
X011749Y019387D01*
X011943Y019387D02*
X011943Y019677D01*
X012238Y019677D02*
X012238Y019387D01*
X011104Y019410D02*
X010911Y019410D01*
X011007Y019410D02*
X011007Y019701D01*
X011104Y019604D01*
X010809Y019604D02*
X010809Y019556D01*
X010761Y019556D01*
X010761Y019604D01*
X010809Y019604D01*
X010809Y019459D02*
X010809Y019410D01*
X010761Y019410D01*
X010761Y019459D01*
X010809Y019459D01*
X010662Y019507D02*
X010517Y019507D01*
X010469Y019556D01*
X010469Y019652D01*
X010517Y019701D01*
X010662Y019701D01*
X010662Y019410D01*
X010368Y019410D02*
X010271Y019507D01*
X010174Y019410D01*
X010174Y019701D01*
X010073Y019701D02*
X009976Y019604D01*
X009879Y019701D01*
X009879Y019410D01*
X010073Y019410D02*
X010073Y019701D01*
X010368Y019701D02*
X010368Y019410D01*
X008962Y019459D02*
X008914Y019410D01*
X008817Y019410D01*
X008769Y019459D01*
X008769Y019652D01*
X008962Y019459D01*
X008962Y019652D01*
X008914Y019701D01*
X008817Y019701D01*
X008769Y019652D01*
X008668Y019604D02*
X008619Y019604D01*
X008619Y019556D01*
X008668Y019556D01*
X008668Y019604D01*
X008668Y019459D02*
X008668Y019410D01*
X008619Y019410D01*
X008619Y019459D01*
X008668Y019459D01*
X008520Y019507D02*
X008375Y019507D01*
X008327Y019556D01*
X008327Y019652D01*
X008375Y019701D01*
X008520Y019701D01*
X008520Y019410D01*
X008226Y019410D02*
X008226Y019701D01*
X008032Y019701D02*
X008032Y019410D01*
X008129Y019507D01*
X008226Y019410D01*
X007931Y019410D02*
X007931Y019701D01*
X007834Y019604D01*
X007738Y019701D01*
X007738Y019410D01*
X006805Y019435D02*
X006756Y019387D01*
X006659Y019387D01*
X006611Y019435D01*
X006611Y019532D01*
X006659Y019580D01*
X006708Y019580D01*
X006805Y019532D01*
X006805Y019677D01*
X006611Y019677D01*
X006510Y019677D02*
X006510Y019484D01*
X006413Y019387D01*
X006316Y019484D01*
X006316Y019677D01*
D12*
X005289Y019154D02*
X005215Y019080D01*
X005142Y019080D01*
X005069Y019154D01*
X005069Y019521D01*
X005142Y019521D02*
X004995Y019521D01*
X004828Y019521D02*
X004828Y019080D01*
X004828Y019227D02*
X004535Y019521D01*
X004368Y019521D02*
X004368Y019080D01*
X004221Y019227D01*
X004074Y019080D01*
X004074Y019521D01*
X004535Y019080D02*
X004755Y019301D01*
X004755Y018771D02*
X004608Y018771D01*
X004535Y018697D01*
X004535Y018624D01*
X004608Y018551D01*
X004535Y018477D01*
X004535Y018404D01*
X004608Y018330D01*
X004755Y018330D01*
X004828Y018404D01*
X004682Y018551D02*
X004608Y018551D01*
X004828Y018697D02*
X004755Y018771D01*
X004995Y018624D02*
X005142Y018330D01*
X005289Y018624D01*
X004368Y018404D02*
X004295Y018404D01*
X004295Y018330D01*
X004368Y018330D01*
X004368Y018404D01*
X004138Y018404D02*
X004064Y018330D01*
X003918Y018330D01*
X003844Y018404D01*
X003844Y018697D01*
X003918Y018771D01*
X004064Y018771D01*
X004138Y018697D01*
X004138Y018624D01*
X004064Y018551D01*
X003844Y018551D01*
D13*
X008388Y008507D03*
X009388Y008507D03*
X010388Y008507D03*
X010388Y007507D03*
X009388Y007507D03*
X008388Y007507D03*
D14*
X008022Y016778D03*
X007112Y016778D03*
X006202Y016778D03*
X009120Y016762D03*
X010029Y016762D03*
X010939Y016762D03*
X012021Y016747D03*
X012931Y016747D03*
X013841Y016747D03*
X014836Y016747D03*
X015746Y016747D03*
X016656Y016747D03*
D15*
X015746Y014306D03*
X012931Y014306D03*
X010029Y014322D03*
X007112Y014338D03*
D16*
X006331Y010271D03*
X006498Y018684D03*
X008466Y018684D03*
X010435Y018684D03*
X012403Y018684D03*
X014372Y018684D03*
X016340Y018684D03*
X016340Y001361D03*
X014372Y001361D03*
X012403Y001361D03*
X010435Y001361D03*
X008466Y001361D03*
X006498Y001361D03*
D17*
X014750Y003741D03*
D18*
X009981Y005840D03*
X008879Y005840D03*
D19*
X016054Y009865D03*
X016802Y009865D03*
D20*
X017919Y000735D03*
X003919Y000735D03*
D21*
X004919Y000735D03*
X004919Y001735D03*
X003919Y001735D03*
X003919Y002735D03*
X004919Y002735D03*
X004919Y003735D03*
X003919Y003735D03*
X003919Y004735D03*
X004919Y004735D03*
X004919Y005735D03*
X003919Y005735D03*
X003919Y006735D03*
X004919Y006735D03*
X004919Y007735D03*
X003919Y007735D03*
X003919Y008735D03*
X004919Y008735D03*
X004919Y009735D03*
X003919Y009735D03*
X003919Y010735D03*
X004919Y010735D03*
X004919Y011735D03*
X003919Y011735D03*
X003919Y012735D03*
X004919Y012735D03*
X004919Y013735D03*
X003919Y013735D03*
X003919Y014735D03*
X004919Y014735D03*
X004919Y015735D03*
X003919Y015735D03*
X003919Y016735D03*
X004919Y016735D03*
X004919Y017735D03*
X003919Y017735D03*
X017919Y017735D03*
X018919Y017735D03*
X018919Y016735D03*
X017919Y016735D03*
X017919Y015735D03*
X018919Y015735D03*
X018919Y014735D03*
X017919Y014735D03*
X017919Y013735D03*
X018919Y013735D03*
X018919Y012735D03*
X017919Y012735D03*
X017919Y011735D03*
X018919Y011735D03*
X018919Y010735D03*
X017919Y010735D03*
X017919Y009735D03*
X018919Y009735D03*
X018919Y008735D03*
X017919Y008735D03*
X017919Y007735D03*
X018919Y007735D03*
X018919Y006735D03*
X017919Y006735D03*
X017919Y005735D03*
X018919Y005735D03*
X018919Y004735D03*
X017919Y004735D03*
X017919Y003735D03*
X018919Y003735D03*
X018919Y002735D03*
X017919Y002735D03*
X017919Y001735D03*
X018919Y001735D03*
X018919Y000735D03*
D22*
X012964Y012583D03*
D23*
X007859Y002920D03*
X006756Y002920D03*
D24*
X012052Y005443D03*
X012552Y005443D03*
X013052Y005443D03*
X013552Y005443D03*
X014052Y005443D03*
X014552Y005443D03*
X015052Y005443D03*
X015052Y007863D03*
X014552Y007863D03*
X014052Y007863D03*
X013552Y007863D03*
X013052Y007863D03*
X012552Y007863D03*
X012052Y007863D03*
D25*
X011820Y004433D03*
X011820Y003685D03*
D26*
X012100Y013037D03*
X011500Y013037D03*
X010090Y013068D03*
X009490Y013068D03*
D27*
X009790Y013068D03*
X011800Y013037D03*
D28*
X011786Y011955D03*
X011786Y011355D03*
X011786Y011128D03*
X011786Y010528D03*
X011773Y009845D03*
X011773Y009245D03*
D29*
X011773Y009545D03*
X011786Y010828D03*
X011786Y011655D03*
D30*
X018228Y018382D03*
X018224Y018894D03*
X018228Y019194D03*
X018228Y019198D03*
D31*
X018228Y018386D03*
D32*
X018228Y018390D03*
D33*
X018228Y018394D03*
X018252Y018878D03*
D34*
X018228Y019258D03*
X018228Y019262D03*
X018228Y019518D03*
X018228Y018398D03*
D35*
X018228Y018402D03*
D36*
X018228Y018406D03*
X018228Y019278D03*
X018228Y019514D03*
D37*
X018228Y018410D03*
D38*
X018228Y018414D03*
D39*
X018228Y018418D03*
D40*
X018228Y018422D03*
X018228Y019506D03*
D41*
X018228Y019314D03*
X018228Y018426D03*
D42*
X018228Y018430D03*
D43*
X018228Y018434D03*
X018228Y019326D03*
D44*
X018228Y019498D03*
X018228Y018438D03*
D45*
X018228Y018442D03*
X018228Y019334D03*
X018228Y019338D03*
D46*
X018228Y019342D03*
X018228Y018446D03*
D47*
X018228Y018450D03*
D48*
X018228Y018454D03*
X018228Y019346D03*
X018228Y019494D03*
D49*
X018228Y019354D03*
X018228Y018458D03*
D50*
X018228Y018462D03*
X018228Y019358D03*
D51*
X018228Y019362D03*
X018228Y018466D03*
D52*
X018228Y018470D03*
D53*
X018228Y018474D03*
X018228Y019366D03*
X018228Y019486D03*
D54*
X018228Y018482D03*
X018228Y018478D03*
D55*
X018228Y018486D03*
X018228Y019482D03*
D56*
X018228Y018490D03*
D57*
X018228Y018494D03*
D58*
X018228Y018498D03*
X018228Y018502D03*
D59*
X018228Y018506D03*
X018228Y019474D03*
D60*
X018228Y018510D03*
D61*
X018228Y018514D03*
X018228Y018518D03*
D62*
X018228Y018522D03*
X018228Y018526D03*
D63*
X018228Y018530D03*
D64*
X018228Y018534D03*
X018228Y019466D03*
D65*
X018228Y018542D03*
X018228Y018538D03*
D66*
X018228Y018546D03*
X018228Y018554D03*
X018228Y019462D03*
D67*
X018228Y018550D03*
D68*
X018228Y018558D03*
X018228Y018562D03*
X018228Y019426D03*
X018228Y019458D03*
D69*
X018228Y019454D03*
X018228Y019434D03*
X018228Y018566D03*
D70*
X018228Y018570D03*
X018228Y019430D03*
D71*
X018228Y019438D03*
X018224Y018806D03*
X018228Y018582D03*
X018228Y018578D03*
X018228Y018574D03*
D72*
X018228Y018586D03*
X018228Y018802D03*
X018228Y019442D03*
X018228Y019446D03*
D73*
X018228Y018590D03*
D74*
X018228Y018594D03*
X018228Y018598D03*
X018228Y018798D03*
D75*
X018228Y018606D03*
X018228Y018602D03*
D76*
X018226Y018610D03*
D77*
X018226Y018614D03*
X018226Y018618D03*
D78*
X018226Y018622D03*
X018226Y018626D03*
D79*
X018228Y018630D03*
D80*
X018228Y018634D03*
D81*
X018230Y018638D03*
D82*
X018228Y018642D03*
X018228Y018734D03*
D83*
X018228Y018646D03*
D84*
X018228Y018650D03*
D85*
X018228Y018654D03*
X018228Y018722D03*
D86*
X018228Y018718D03*
X018228Y018658D03*
D87*
X018228Y018662D03*
X018228Y018714D03*
D88*
X018230Y018666D03*
D89*
X018228Y018670D03*
D90*
X018228Y018674D03*
X018228Y018702D03*
X018228Y018706D03*
D91*
X018230Y018698D03*
X018230Y018682D03*
X018230Y018678D03*
D92*
X018228Y018686D03*
X018228Y018694D03*
D93*
X018228Y018690D03*
D94*
X018230Y018710D03*
D95*
X018228Y018726D03*
D96*
X018228Y018730D03*
D97*
X018238Y018766D03*
X018234Y018778D03*
D98*
X018236Y018770D03*
D99*
X018236Y018774D03*
D100*
X018234Y018782D03*
X018234Y018786D03*
D101*
X018232Y018790D03*
D102*
X018230Y018794D03*
D103*
X018222Y018810D03*
D104*
X018222Y018814D03*
X018222Y018818D03*
D105*
X018122Y018822D03*
D106*
X018454Y018838D03*
X018458Y018826D03*
X018458Y018822D03*
D107*
X018120Y018826D03*
D108*
X018120Y018830D03*
D109*
X018456Y018830D03*
D110*
X018120Y018834D03*
D111*
X018456Y018834D03*
D112*
X018116Y018838D03*
D113*
X018114Y018842D03*
D114*
X018416Y018846D03*
X018420Y018842D03*
X018336Y019218D03*
X018340Y019222D03*
D115*
X018526Y018842D03*
D116*
X018112Y018846D03*
X018228Y019254D03*
D117*
X018228Y018994D03*
X018544Y018846D03*
D118*
X018110Y018850D03*
D119*
X018410Y018850D03*
X018066Y019290D03*
D120*
X018116Y019378D03*
X018100Y018854D03*
D121*
X018228Y018922D03*
X018228Y019078D03*
X018348Y019238D03*
X018408Y018854D03*
D122*
X018094Y018858D03*
D123*
X018402Y018858D03*
X018350Y019242D03*
D124*
X018160Y019298D03*
X018096Y018862D03*
D125*
X018396Y018862D03*
D126*
X018098Y018866D03*
D127*
X018226Y018918D03*
X018390Y018866D03*
D128*
X018104Y018870D03*
X018228Y019530D03*
D129*
X018346Y019250D03*
X018382Y018870D03*
D130*
X018110Y018874D03*
D131*
X018364Y018874D03*
D132*
X018228Y019038D03*
X018228Y019042D03*
X018000Y018878D03*
D133*
X018002Y018882D03*
X018102Y018906D03*
D134*
X018250Y018882D03*
D135*
X018246Y018886D03*
D136*
X018242Y018890D03*
X018122Y019370D03*
D137*
X018394Y018894D03*
D138*
X018222Y018898D03*
D139*
X018102Y018902D03*
D140*
X018256Y018902D03*
X018228Y019146D03*
X018028Y019414D03*
X018228Y019538D03*
D141*
X018040Y019394D03*
X018036Y019398D03*
X018256Y018906D03*
D142*
X018098Y018910D03*
D143*
X018226Y018910D03*
D144*
X018340Y018910D03*
D145*
X018098Y018914D03*
D146*
X018226Y018914D03*
D147*
X018228Y019018D03*
X018344Y018914D03*
D148*
X018096Y018918D03*
D149*
X018226Y018942D03*
X018346Y018918D03*
D150*
X018352Y018926D03*
X018096Y018922D03*
D151*
X018350Y018922D03*
D152*
X018094Y018926D03*
D153*
X018226Y018926D03*
X018070Y019282D03*
X018402Y019306D03*
D154*
X018226Y018930D03*
D155*
X018356Y018930D03*
D156*
X018226Y018934D03*
D157*
X018226Y018938D03*
D158*
X018228Y018990D03*
D159*
X018228Y018998D03*
D160*
X018228Y019002D03*
D161*
X018228Y019006D03*
D162*
X018228Y019010D03*
D163*
X018228Y019014D03*
D164*
X018228Y019022D03*
X018228Y019026D03*
D165*
X018228Y019030D03*
D166*
X018228Y019034D03*
D167*
X018228Y019046D03*
D168*
X018228Y019050D03*
D169*
X018228Y019054D03*
X018228Y019058D03*
D170*
X018228Y019062D03*
D171*
X018228Y019066D03*
X018404Y019302D03*
D172*
X018226Y019070D03*
D173*
X018228Y019074D03*
X018344Y019226D03*
X018348Y019234D03*
X018068Y019286D03*
D174*
X018228Y019082D03*
X018348Y019246D03*
D175*
X018228Y019086D03*
D176*
X018228Y019090D03*
D177*
X018228Y019094D03*
D178*
X018228Y019098D03*
X018228Y019102D03*
D179*
X018228Y019106D03*
D180*
X018228Y019110D03*
D181*
X018228Y019114D03*
X018228Y019118D03*
D182*
X018228Y019122D03*
X018156Y019218D03*
X018152Y019222D03*
X018148Y019226D03*
D183*
X018144Y019238D03*
X018228Y019126D03*
D184*
X018228Y019130D03*
D185*
X018228Y019134D03*
D186*
X018228Y019138D03*
D187*
X018228Y019142D03*
X018032Y019406D03*
D188*
X018228Y019150D03*
D189*
X018228Y019154D03*
D190*
X018228Y019158D03*
D191*
X018228Y019162D03*
X018228Y019166D03*
D192*
X018228Y019170D03*
D193*
X018228Y019174D03*
X018228Y019534D03*
D194*
X018228Y019182D03*
X018228Y019178D03*
D195*
X018228Y019186D03*
D196*
X018228Y019190D03*
D197*
X018228Y019202D03*
D198*
X018228Y019206D03*
D199*
X018228Y019210D03*
D200*
X018228Y019214D03*
D201*
X018148Y019230D03*
D202*
X018344Y019230D03*
D203*
X018414Y019374D03*
X018146Y019234D03*
D204*
X018144Y019242D03*
X018144Y019246D03*
D205*
X018146Y019250D03*
D206*
X018228Y019266D03*
D207*
X018228Y019270D03*
D208*
X018230Y019274D03*
D209*
X018296Y019282D03*
D210*
X018238Y019286D03*
X018234Y019294D03*
D211*
X018396Y019286D03*
X018400Y019294D03*
D212*
X018236Y019290D03*
D213*
X018400Y019290D03*
D214*
X018066Y019294D03*
D215*
X018402Y019298D03*
D216*
X018158Y019302D03*
D217*
X018160Y019306D03*
D218*
X018228Y019310D03*
D219*
X018228Y019318D03*
X018228Y019322D03*
X018228Y019502D03*
D220*
X018228Y019330D03*
D221*
X018228Y019350D03*
D222*
X018408Y019370D03*
D223*
X018358Y019398D03*
X018358Y019402D03*
X018118Y019374D03*
D224*
X018416Y019378D03*
D225*
X018114Y019382D03*
D226*
X018418Y019382D03*
D227*
X018116Y019386D03*
D228*
X018414Y019386D03*
D229*
X018228Y019390D03*
D230*
X018354Y019394D03*
X018362Y019406D03*
D231*
X018034Y019402D03*
D232*
X018030Y019410D03*
D233*
X018364Y019410D03*
D234*
X018364Y019414D03*
X018364Y019418D03*
D235*
X018030Y019418D03*
D236*
X018030Y019422D03*
D237*
X018364Y019422D03*
D238*
X018228Y019450D03*
D239*
X018228Y019470D03*
D240*
X018230Y019478D03*
D241*
X018228Y019490D03*
D242*
X018228Y019510D03*
D243*
X018228Y019522D03*
D244*
X018228Y019526D03*
D245*
X018226Y019542D03*
D246*
X018230Y019546D03*
D247*
X015186Y015520D02*
X014671Y015520D01*
X014671Y010320D02*
X015186Y010320D01*
X007886Y010320D02*
X007371Y010320D01*
X007371Y015520D02*
X007886Y015520D01*
D248*
X014517Y012890D03*
X016249Y012890D03*
D249*
X015993Y009010D02*
X016593Y009010D01*
X016593Y006010D02*
X015993Y006010D01*
X015993Y005010D02*
X016593Y005010D01*
X016593Y004010D02*
X015993Y004010D01*
X006758Y003990D02*
X006158Y003990D01*
X006158Y004990D02*
X006758Y004990D01*
X006758Y005990D02*
X006158Y005990D01*
X006158Y008990D02*
X006758Y008990D01*
M02*
