G75*
%MOIN*%
%OFA0B0*%
%FSLAX24Y24*%
%IPPOS*%
%LPD*%
%AMOC8*
5,1,8,0,0,1.08239X$1,22.5*
%
%ADD10C,0.0160*%
%ADD11C,0.0030*%
%ADD12OC8,0.0640*%
%ADD13R,0.0520X0.0920*%
%ADD14R,0.1457X0.0906*%
%ADD15OC8,0.1290*%
%ADD16C,0.0640*%
%ADD17R,0.0670X0.0827*%
%ADD18C,0.0600*%
%ADD19OC8,0.0600*%
%ADD20R,0.2040X0.1040*%
D10*
X001046Y000180D02*
X017188Y000180D01*
X017188Y019865D01*
X001046Y019865D01*
X001046Y000180D01*
D11*
X003971Y000456D02*
X003971Y000649D01*
X003971Y000456D02*
X004067Y000359D01*
X004164Y000456D01*
X004164Y000649D01*
X004265Y000649D02*
X004459Y000649D01*
X004459Y000504D01*
X004362Y000553D01*
X004314Y000553D01*
X004265Y000504D01*
X004265Y000408D01*
X004314Y000359D01*
X004410Y000359D01*
X004459Y000408D01*
X005581Y000380D02*
X005629Y000332D01*
X005726Y000332D01*
X005774Y000380D01*
X005774Y000574D01*
X005726Y000622D01*
X005629Y000622D01*
X005581Y000574D01*
X005875Y000574D02*
X005875Y000380D01*
X005924Y000332D01*
X006069Y000332D01*
X006069Y000622D01*
X005924Y000622D01*
X005875Y000574D01*
X006170Y000525D02*
X006170Y000332D01*
X006170Y000477D02*
X006364Y000477D01*
X006364Y000525D02*
X006267Y000622D01*
X006170Y000525D01*
X006364Y000525D02*
X006364Y000332D01*
X006463Y000332D02*
X006511Y000332D01*
X006511Y000380D01*
X006463Y000380D01*
X006463Y000332D01*
X006463Y000477D02*
X006511Y000477D01*
X006511Y000525D01*
X006463Y000525D01*
X006463Y000477D01*
X006612Y000477D02*
X006806Y000477D01*
X006660Y000622D01*
X006660Y000332D01*
X007573Y000375D02*
X007573Y000665D01*
X007766Y000665D02*
X007573Y000375D01*
X007766Y000375D02*
X007766Y000665D01*
X007866Y000665D02*
X007963Y000665D01*
X007914Y000665D02*
X007914Y000375D01*
X007866Y000375D02*
X007963Y000375D01*
X008064Y000327D02*
X008257Y000327D01*
X008359Y000423D02*
X008407Y000375D01*
X008504Y000375D01*
X008552Y000423D01*
X008552Y000617D01*
X008504Y000665D01*
X008407Y000665D01*
X008359Y000617D01*
X008651Y000568D02*
X008651Y000520D01*
X008699Y000520D01*
X008699Y000568D01*
X008651Y000568D01*
X008651Y000423D02*
X008651Y000375D01*
X008699Y000375D01*
X008699Y000423D01*
X008651Y000423D01*
X008801Y000423D02*
X008849Y000375D01*
X008946Y000375D01*
X008994Y000423D01*
X008994Y000520D02*
X008897Y000568D01*
X008849Y000568D01*
X008801Y000520D01*
X008801Y000423D01*
X008994Y000520D02*
X008994Y000665D01*
X008801Y000665D01*
X009530Y000669D02*
X009530Y000379D01*
X009723Y000669D01*
X009723Y000379D01*
X009823Y000379D02*
X009920Y000379D01*
X009871Y000379D02*
X009871Y000669D01*
X009823Y000669D02*
X009920Y000669D01*
X010021Y000331D02*
X010214Y000331D01*
X010315Y000379D02*
X010315Y000572D01*
X010412Y000669D01*
X010509Y000572D01*
X010509Y000379D01*
X010608Y000379D02*
X010608Y000427D01*
X010656Y000427D01*
X010656Y000379D01*
X010608Y000379D01*
X010608Y000524D02*
X010656Y000524D01*
X010656Y000572D01*
X010608Y000572D01*
X010608Y000524D01*
X010509Y000524D02*
X010315Y000524D01*
X010757Y000476D02*
X010806Y000524D01*
X010951Y000524D01*
X010951Y000427D01*
X010902Y000379D01*
X010806Y000379D01*
X010757Y000427D01*
X010757Y000476D01*
X010854Y000621D02*
X010757Y000669D01*
X010854Y000621D02*
X010951Y000524D01*
X011463Y000427D02*
X011463Y000621D01*
X011511Y000669D01*
X011608Y000669D01*
X011656Y000621D01*
X011656Y000427D01*
X011608Y000379D01*
X011511Y000379D01*
X011463Y000427D01*
X011757Y000379D02*
X011951Y000379D01*
X011951Y000669D01*
X011757Y000669D01*
X011854Y000524D02*
X011951Y000524D01*
X012052Y000379D02*
X012052Y000669D01*
X012245Y000669D02*
X012052Y000379D01*
X012245Y000379D02*
X012245Y000669D01*
X012344Y000572D02*
X012344Y000524D01*
X012393Y000524D01*
X012393Y000572D01*
X012344Y000572D01*
X012344Y000427D02*
X012344Y000379D01*
X012393Y000379D01*
X012393Y000427D01*
X012344Y000427D01*
X012494Y000621D02*
X012687Y000427D01*
X012687Y000379D01*
X012687Y000669D02*
X012494Y000669D01*
X012494Y000621D01*
X013636Y000613D02*
X013636Y000419D01*
X013684Y000371D01*
X013829Y000371D01*
X013829Y000661D01*
X013684Y000661D01*
X013636Y000613D01*
X013931Y000661D02*
X013931Y000371D01*
X014124Y000661D01*
X014124Y000371D01*
X014225Y000419D02*
X014225Y000516D01*
X014322Y000516D01*
X014419Y000419D02*
X014370Y000371D01*
X014274Y000371D01*
X014225Y000419D01*
X014419Y000419D02*
X014419Y000613D01*
X014370Y000661D01*
X014274Y000661D01*
X014225Y000613D01*
X014264Y019387D02*
X014167Y019387D01*
X014119Y019435D01*
X014119Y019532D01*
X014216Y019532D01*
X014312Y019629D02*
X014312Y019435D01*
X014264Y019387D01*
X014018Y019387D02*
X014018Y019677D01*
X013824Y019387D01*
X013824Y019677D01*
X013723Y019677D02*
X013578Y019677D01*
X013530Y019629D01*
X013530Y019435D01*
X013578Y019387D01*
X013723Y019387D01*
X013723Y019677D01*
X014119Y019629D02*
X014167Y019677D01*
X014264Y019677D01*
X014312Y019629D01*
X012731Y019640D02*
X012682Y019689D01*
X012586Y019689D01*
X012537Y019640D01*
X012537Y019592D01*
X012586Y019544D01*
X012537Y019495D01*
X012537Y019447D01*
X012586Y019399D01*
X012682Y019399D01*
X012731Y019447D01*
X012634Y019544D02*
X012586Y019544D01*
X012436Y019544D02*
X012436Y019592D01*
X012388Y019592D01*
X012388Y019544D01*
X012436Y019544D01*
X012436Y019447D02*
X012436Y019399D01*
X012388Y019399D01*
X012388Y019447D01*
X012436Y019447D01*
X012289Y019495D02*
X012144Y019495D01*
X012095Y019544D01*
X012095Y019640D01*
X012144Y019689D01*
X012289Y019689D01*
X012289Y019399D01*
X011994Y019399D02*
X011897Y019495D01*
X011801Y019399D01*
X011801Y019689D01*
X011699Y019689D02*
X011603Y019592D01*
X011506Y019689D01*
X011506Y019399D01*
X011699Y019399D02*
X011699Y019689D01*
X011994Y019689D02*
X011994Y019399D01*
X010672Y019387D02*
X010478Y019580D01*
X010478Y019629D01*
X010527Y019677D01*
X010623Y019677D01*
X010672Y019629D01*
X010672Y019387D02*
X010478Y019387D01*
X010377Y019387D02*
X010377Y019435D01*
X010329Y019435D01*
X010329Y019387D01*
X010377Y019387D01*
X010377Y019532D02*
X010377Y019580D01*
X010329Y019580D01*
X010329Y019532D01*
X010377Y019532D01*
X010230Y019484D02*
X010085Y019484D01*
X010036Y019532D01*
X010036Y019629D01*
X010085Y019677D01*
X010230Y019677D01*
X010230Y019387D01*
X009935Y019387D02*
X009935Y019677D01*
X009742Y019677D02*
X009742Y019387D01*
X009838Y019484D01*
X009935Y019387D01*
X009640Y019387D02*
X009640Y019677D01*
X009544Y019580D01*
X009447Y019677D01*
X009447Y019387D01*
X008802Y019410D02*
X008608Y019410D01*
X008705Y019410D02*
X008705Y019701D01*
X008802Y019604D01*
X008507Y019604D02*
X008507Y019556D01*
X008459Y019556D01*
X008459Y019604D01*
X008507Y019604D01*
X008507Y019459D02*
X008507Y019410D01*
X008459Y019410D01*
X008459Y019459D01*
X008507Y019459D01*
X008360Y019507D02*
X008215Y019507D01*
X008166Y019556D01*
X008166Y019652D01*
X008215Y019701D01*
X008360Y019701D01*
X008360Y019410D01*
X008065Y019410D02*
X008065Y019701D01*
X007871Y019701D02*
X007871Y019410D01*
X007968Y019507D01*
X008065Y019410D01*
X007770Y019410D02*
X007770Y019701D01*
X007674Y019604D01*
X007577Y019701D01*
X007577Y019410D01*
X006660Y019459D02*
X006466Y019652D01*
X006466Y019459D01*
X006515Y019410D01*
X006612Y019410D01*
X006660Y019459D01*
X006660Y019652D01*
X006612Y019701D01*
X006515Y019701D01*
X006466Y019652D01*
X006365Y019604D02*
X006365Y019556D01*
X006317Y019556D01*
X006317Y019604D01*
X006365Y019604D01*
X006365Y019459D02*
X006365Y019410D01*
X006317Y019410D01*
X006317Y019459D01*
X006365Y019459D01*
X006218Y019507D02*
X006073Y019507D01*
X006024Y019556D01*
X006024Y019652D01*
X006073Y019701D01*
X006218Y019701D01*
X006218Y019410D01*
X005923Y019410D02*
X005827Y019507D01*
X005730Y019410D01*
X005730Y019701D01*
X005629Y019701D02*
X005629Y019410D01*
X005435Y019410D02*
X005435Y019701D01*
X005532Y019604D01*
X005629Y019701D01*
X005923Y019701D02*
X005923Y019410D01*
X004502Y019435D02*
X004454Y019387D01*
X004357Y019387D01*
X004308Y019435D01*
X004308Y019532D01*
X004357Y019580D01*
X004405Y019580D01*
X004502Y019532D01*
X004502Y019677D01*
X004308Y019677D01*
X004207Y019677D02*
X004207Y019484D01*
X004111Y019387D01*
X004014Y019484D01*
X004014Y019677D01*
D12*
X004884Y012038D03*
X004884Y011038D03*
X005884Y011038D03*
X005884Y012038D03*
X006884Y012038D03*
X006884Y011038D03*
D13*
X006817Y016762D03*
X007727Y016762D03*
X008637Y016762D03*
X009719Y016747D03*
X010628Y016747D03*
X011538Y016747D03*
X012534Y016747D03*
X013443Y016747D03*
X014353Y016747D03*
X005719Y016778D03*
X004810Y016778D03*
X003900Y016778D03*
D14*
X004810Y014338D03*
X007727Y014322D03*
X010628Y014306D03*
X013443Y014306D03*
D15*
X014038Y018684D03*
X012069Y018684D03*
X010101Y018684D03*
X008132Y018684D03*
X006164Y018684D03*
X004195Y018684D03*
X004810Y005641D03*
X004821Y004137D03*
X004195Y001361D03*
X006164Y001361D03*
X008132Y001361D03*
X010101Y001361D03*
X012069Y001361D03*
X014038Y001361D03*
D16*
X011400Y004199D02*
X011400Y004799D01*
X010400Y004799D02*
X010400Y004199D01*
X009400Y004199D02*
X009400Y004799D01*
X008400Y004799D02*
X008400Y004199D01*
X007400Y004199D02*
X007400Y004799D01*
X006400Y004799D02*
X006400Y004199D01*
D17*
X007880Y007542D03*
X008983Y007542D03*
D18*
X015617Y000735D03*
X001617Y000735D03*
D19*
X001617Y001735D03*
X001617Y002735D03*
X001617Y003735D03*
X001617Y004735D03*
X001617Y005735D03*
X001617Y006735D03*
X001617Y007735D03*
X001617Y008735D03*
X001617Y009735D03*
X001617Y010735D03*
X001617Y011735D03*
X001617Y012735D03*
X001617Y013735D03*
X001617Y014735D03*
X001617Y015735D03*
X001617Y016735D03*
X001617Y017735D03*
X002617Y017735D03*
X002617Y016735D03*
X002617Y015735D03*
X002617Y014735D03*
X002617Y013735D03*
X002617Y012735D03*
X002617Y011735D03*
X002617Y010735D03*
X002617Y009735D03*
X002617Y008735D03*
X002617Y007735D03*
X002617Y006735D03*
X002617Y005735D03*
X002617Y004735D03*
X002617Y003735D03*
X002617Y002735D03*
X002617Y001735D03*
X002617Y000735D03*
X015617Y001735D03*
X016617Y001735D03*
X016617Y000735D03*
X016617Y002735D03*
X016617Y003735D03*
X016617Y004735D03*
X016617Y005735D03*
X016617Y006735D03*
X016617Y007735D03*
X016617Y008735D03*
X016617Y009735D03*
X016617Y010735D03*
X016617Y011735D03*
X016617Y012735D03*
X016617Y013735D03*
X016617Y014735D03*
X016617Y015735D03*
X016617Y016735D03*
X016617Y017735D03*
X015617Y017735D03*
X015617Y016735D03*
X015617Y015735D03*
X015617Y014735D03*
X015617Y013735D03*
X015617Y012735D03*
X015617Y011735D03*
X015617Y010735D03*
X015617Y009735D03*
X015617Y008735D03*
X015617Y007735D03*
X015617Y006735D03*
X015617Y005735D03*
X015617Y004735D03*
X015617Y003735D03*
X015617Y002735D03*
D20*
X010884Y013089D03*
M02*
