G75*
%MOIN*%
%OFA0B0*%
%FSLAX24Y24*%
%IPPOS*%
%LPD*%
%AMOC8*
5,1,8,0,0,1.08239X$1,22.5*
%
%ADD10C,0.0160*%
%ADD11C,0.0060*%
%ADD12R,0.0500X0.0220*%
%ADD13R,0.0220X0.0500*%
%ADD14OC8,0.0600*%
%ADD15OC8,0.1250*%
%ADD16R,0.0472X0.0472*%
%ADD17R,0.0630X0.0787*%
%ADD18R,0.0512X0.0591*%
%ADD19C,0.0600*%
%ADD20C,0.0560*%
%ADD21OC8,0.0560*%
%ADD22R,0.0460X0.0630*%
%ADD23R,0.2000X0.1000*%
%ADD24R,0.1000X0.0500*%
%ADD25C,0.0356*%
%ADD26C,0.0240*%
%ADD27C,0.0320*%
D10*
X001046Y000180D02*
X017188Y000180D01*
X017188Y019865D01*
X001046Y019865D01*
X001046Y000180D01*
X002341Y006251D02*
X003424Y006251D01*
X003711Y006538D01*
X009794Y006538D01*
X010538Y007282D01*
X010538Y008207D01*
X010853Y008207D02*
X010853Y006845D01*
X010640Y006633D01*
X010896Y006208D02*
X009664Y006208D01*
X009400Y005944D01*
X009400Y004499D01*
X010400Y004499D02*
X010428Y004526D01*
X010428Y005530D01*
X010782Y005885D01*
X011081Y005885D01*
X011483Y006286D01*
X011483Y008207D01*
X011168Y008207D02*
X011168Y006479D01*
X010896Y006208D01*
X009719Y006897D02*
X010223Y007400D01*
X010223Y008207D01*
X009912Y008203D02*
X009912Y007566D01*
X009558Y007211D01*
X005467Y007211D01*
X005215Y007463D01*
X004924Y007463D01*
X004912Y007475D01*
X004888Y008066D02*
X005077Y008066D01*
X005656Y007487D01*
X009412Y007487D01*
X009593Y007668D01*
X009593Y008207D01*
X009908Y008207D02*
X009912Y008203D01*
X009005Y008794D02*
X008550Y008794D01*
X007924Y008168D01*
X005794Y008168D01*
X005758Y008133D01*
X006227Y009215D02*
X006164Y009278D01*
X005109Y009278D01*
X004432Y008526D02*
X007810Y008526D01*
X008392Y009109D01*
X009005Y009109D01*
X009005Y009739D02*
X008002Y009739D01*
X007609Y010133D01*
X007199Y010133D01*
X007329Y010003D01*
X007329Y009215D01*
X007199Y010133D02*
X004377Y010133D01*
X004337Y010172D01*
X004282Y009278D02*
X004282Y008676D01*
X004432Y008526D01*
X003294Y007239D02*
X003636Y006897D01*
X009719Y006897D01*
X011798Y007849D02*
X011932Y007715D01*
X012597Y007715D01*
X012605Y007723D01*
X012609Y007719D01*
X013522Y007719D01*
X014117Y007759D02*
X014140Y007735D01*
X015617Y007735D01*
X016617Y007735D01*
X016117Y009235D02*
X016617Y009735D01*
X016117Y009235D02*
X014924Y009235D01*
X014487Y008798D01*
X013140Y008798D01*
X012829Y009109D01*
X012385Y009109D01*
X012385Y009424D02*
X012955Y009424D01*
X013258Y009121D01*
X013987Y009121D01*
X014077Y009211D01*
X014101Y009235D01*
X014101Y009967D01*
X014014Y010054D01*
X012385Y010054D01*
X012385Y009739D02*
X013333Y009739D01*
X013499Y009574D01*
X013353Y010369D02*
X013499Y010515D01*
X013499Y010932D01*
X013730Y011163D01*
X013730Y012302D01*
X013105Y012302D01*
X011487Y010684D01*
X009005Y010684D01*
X008404Y010684D01*
X008227Y010507D01*
X007203Y010507D01*
X006884Y010826D01*
X006884Y011038D01*
X006884Y012038D02*
X006841Y012082D01*
X006841Y012274D01*
X007054Y012487D01*
X009274Y012487D01*
X009593Y012168D01*
X009593Y011587D01*
X009908Y011587D02*
X009908Y012467D01*
X009510Y012865D01*
X006432Y012865D01*
X006199Y013278D02*
X005884Y012963D01*
X005884Y012038D01*
X005388Y011534D02*
X008495Y011534D01*
X008731Y011771D01*
X009005Y010999D02*
X007995Y010999D01*
X007884Y011109D01*
X007806Y013278D02*
X006199Y013278D01*
X006475Y014086D02*
X009491Y014086D01*
X010538Y013038D01*
X010538Y011587D01*
X010853Y011587D02*
X010853Y013432D01*
X011168Y013007D02*
X011660Y013499D01*
X011660Y014432D01*
X011613Y014479D01*
X010924Y014479D01*
X010912Y014491D01*
X009731Y015223D02*
X012105Y015223D01*
X012164Y015164D01*
X012164Y013456D01*
X011483Y012774D01*
X011483Y011587D01*
X011168Y011587D02*
X011168Y013007D01*
X011798Y012641D02*
X012046Y012889D01*
X012396Y012889D01*
X012400Y012893D01*
X011798Y012641D02*
X011798Y011587D01*
X012385Y010369D02*
X013353Y010369D01*
X013499Y010932D02*
X013499Y010963D01*
X013628Y011093D01*
X014377Y011093D02*
X014959Y011093D01*
X015065Y011200D01*
X014664Y012302D02*
X014330Y012302D01*
X014664Y012302D02*
X014932Y012570D01*
X014932Y013554D01*
X015097Y013719D01*
X015601Y013719D01*
X015617Y013735D01*
X014334Y013428D02*
X014334Y014708D01*
X014857Y015231D01*
X015932Y015231D01*
X016117Y015416D01*
X016117Y016243D01*
X016117Y017235D01*
X016617Y017735D01*
X016117Y016243D02*
X016116Y016241D01*
X016115Y016240D01*
X016113Y016239D01*
X012817Y016239D01*
X012392Y015814D01*
X008094Y015814D01*
X007494Y015814D02*
X003758Y015814D01*
X003668Y015723D01*
X003164Y014235D02*
X003786Y013613D01*
X007069Y013613D01*
X007199Y013743D01*
X009152Y013743D01*
X010223Y012672D01*
X010223Y011587D01*
X012385Y008794D02*
X012719Y008794D01*
X013168Y008345D01*
X013798Y008345D01*
X011798Y008207D02*
X011798Y007849D01*
X014286Y003684D02*
X014243Y003641D01*
X006538Y003641D01*
X006400Y003778D01*
X006400Y004499D01*
X008211Y002605D02*
X012853Y002605D01*
X013097Y002849D01*
X014672Y002849D01*
X014751Y002928D01*
X013369Y002314D02*
X013254Y002200D01*
X010188Y002200D01*
X010101Y002113D01*
X010101Y001361D01*
X008132Y001361D02*
X008132Y002526D01*
X008211Y002605D01*
X002341Y006251D02*
X002121Y006471D01*
X002121Y012231D01*
X001617Y012735D01*
X002617Y012735D02*
X004475Y012735D01*
X004512Y012773D01*
X004884Y012038D02*
X005388Y011534D01*
X013730Y012302D02*
X013777Y012057D01*
X013770Y012050D01*
X013777Y012057D02*
X013778Y012058D01*
X013778Y013384D01*
X013734Y013428D01*
D11*
X013405Y007291D02*
X013111Y007291D01*
X013038Y007218D01*
X013038Y006998D01*
X013478Y006998D01*
X013478Y007218D01*
X013405Y007291D01*
X013478Y006831D02*
X013478Y006537D01*
X013038Y006537D01*
X013038Y006831D01*
X013258Y006684D02*
X013258Y006537D01*
X013478Y006371D02*
X013478Y006077D01*
X013038Y006077D01*
X012728Y005924D02*
X012288Y005924D01*
X012288Y006144D01*
X012361Y006217D01*
X012508Y006217D01*
X012582Y006144D01*
X012582Y005924D01*
X012655Y005767D02*
X012728Y005767D01*
X012728Y005693D01*
X012655Y005693D01*
X012655Y005767D01*
X012728Y005533D02*
X012728Y005386D01*
X012728Y005460D02*
X012288Y005460D01*
X012288Y005533D02*
X012288Y005386D01*
X012288Y004989D02*
X012728Y004989D01*
X012728Y005156D02*
X012728Y005230D01*
X012655Y005230D01*
X012655Y005156D01*
X012728Y005156D01*
X012508Y004989D02*
X012508Y004696D01*
X012655Y004539D02*
X012728Y004539D01*
X012728Y004466D01*
X012655Y004466D01*
X012655Y004539D01*
X012728Y004696D02*
X012288Y004696D01*
X012361Y004299D02*
X012288Y004225D01*
X012288Y004079D01*
X012361Y004005D01*
X012655Y004005D01*
X012728Y004079D01*
X012728Y004225D01*
X012655Y004299D01*
X013038Y004612D02*
X013478Y004612D01*
X013478Y004466D02*
X013478Y004759D01*
X013478Y004926D02*
X013478Y004999D01*
X013405Y004999D01*
X013405Y004926D01*
X013478Y004926D01*
X013478Y005156D02*
X013478Y005450D01*
X013478Y005303D02*
X013038Y005303D01*
X013185Y005156D01*
X013038Y004612D02*
X013185Y004466D01*
X013185Y004299D02*
X013478Y004152D01*
X013185Y004005D01*
X013788Y004079D02*
X013861Y004005D01*
X013935Y004005D01*
X014008Y004079D01*
X014008Y004225D01*
X014082Y004299D01*
X014155Y004299D01*
X014228Y004225D01*
X014228Y004079D01*
X014155Y004005D01*
X013788Y004079D02*
X013788Y004225D01*
X013861Y004299D01*
X013788Y004466D02*
X014228Y004466D01*
X014008Y004466D02*
X014008Y004759D01*
X013788Y004759D02*
X014228Y004759D01*
X014228Y004926D02*
X014228Y005073D01*
X014228Y004999D02*
X013788Y004999D01*
X013788Y004926D02*
X013788Y005073D01*
X013788Y005233D02*
X014228Y005233D01*
X014228Y005527D01*
X014228Y005693D02*
X014228Y005987D01*
X014228Y006154D02*
X014228Y006374D01*
X014155Y006447D01*
X013861Y006447D01*
X013788Y006374D01*
X013788Y006154D01*
X014228Y006154D01*
X014228Y005693D02*
X013788Y005693D01*
X013788Y005527D02*
X013788Y005233D01*
X014008Y005233D02*
X014008Y005380D01*
X012728Y006384D02*
X012728Y006457D01*
X012655Y006457D01*
X012655Y006384D01*
X012728Y006384D01*
D12*
X012385Y008794D03*
X012385Y009109D03*
X012385Y009424D03*
X012385Y009739D03*
X012385Y010054D03*
X012385Y010369D03*
X012385Y010684D03*
X012385Y010999D03*
X009005Y010999D03*
X009005Y010684D03*
X009005Y010369D03*
X009005Y010054D03*
X009005Y009739D03*
X009005Y009424D03*
X009005Y009109D03*
X009005Y008794D03*
D13*
X009593Y008207D03*
X009908Y008207D03*
X010223Y008207D03*
X010538Y008207D03*
X010853Y008207D03*
X011168Y008207D03*
X011483Y008207D03*
X011798Y008207D03*
X011798Y011587D03*
X011483Y011587D03*
X011168Y011587D03*
X010853Y011587D03*
X010538Y011587D03*
X010223Y011587D03*
X009908Y011587D03*
X009593Y011587D03*
D14*
X006884Y012038D03*
X005884Y012038D03*
X005884Y011038D03*
X006884Y011038D03*
X004884Y011038D03*
X004884Y012038D03*
D15*
X004810Y005641D03*
X004821Y004137D03*
X004195Y001361D03*
X006164Y001361D03*
X008132Y001361D03*
X010101Y001361D03*
X012069Y001361D03*
X014038Y001361D03*
X014038Y018684D03*
X012069Y018684D03*
X010101Y018684D03*
X008132Y018684D03*
X006164Y018684D03*
X004195Y018684D03*
D16*
X004282Y009278D03*
X005109Y009278D03*
D17*
X006227Y009215D03*
X007329Y009215D03*
D18*
X013628Y011093D03*
X014377Y011093D03*
D19*
X011400Y004799D02*
X011400Y004199D01*
X010400Y004199D02*
X010400Y004799D01*
X009400Y004799D02*
X009400Y004199D01*
X008400Y004199D02*
X008400Y004799D01*
X007400Y004799D02*
X007400Y004199D01*
X006400Y004199D02*
X006400Y004799D01*
D20*
X001617Y000735D03*
X015617Y000735D03*
D21*
X016617Y000735D03*
X016617Y001735D03*
X016617Y002735D03*
X016617Y003735D03*
X016617Y004735D03*
X016617Y005735D03*
X016617Y006735D03*
X016617Y007735D03*
X016617Y008735D03*
X016617Y009735D03*
X016617Y010735D03*
X016617Y011735D03*
X016617Y012735D03*
X016617Y013735D03*
X016617Y014735D03*
X016617Y015735D03*
X016617Y016735D03*
X016617Y017735D03*
X015617Y017735D03*
X015617Y016735D03*
X015617Y015735D03*
X015617Y014735D03*
X015617Y013735D03*
X015617Y012735D03*
X015617Y011735D03*
X015617Y010735D03*
X015617Y009735D03*
X015617Y008735D03*
X015617Y007735D03*
X015617Y006735D03*
X015617Y005735D03*
X015617Y004735D03*
X015617Y003735D03*
X015617Y002735D03*
X015617Y001735D03*
X002617Y001735D03*
X002617Y000735D03*
X001617Y001735D03*
X001617Y002735D03*
X001617Y003735D03*
X001617Y004735D03*
X001617Y005735D03*
X001617Y006735D03*
X001617Y007735D03*
X001617Y008735D03*
X001617Y009735D03*
X001617Y010735D03*
X001617Y011735D03*
X001617Y012735D03*
X001617Y013735D03*
X001617Y014735D03*
X001617Y015735D03*
X001617Y016735D03*
X001617Y017735D03*
X002617Y017735D03*
X002617Y016735D03*
X002617Y015735D03*
X002617Y014735D03*
X002617Y013735D03*
X002617Y012735D03*
X002617Y011735D03*
X002617Y010735D03*
X002617Y009735D03*
X002617Y008735D03*
X002617Y007735D03*
X002617Y006735D03*
X002617Y005735D03*
X002617Y004735D03*
X002617Y003735D03*
X002617Y002735D03*
D22*
X013730Y012302D03*
X014330Y012302D03*
X014334Y013428D03*
X013734Y013428D03*
X008094Y015814D03*
X007494Y015814D03*
D23*
X010912Y014491D03*
D24*
X013798Y008345D03*
D25*
X014117Y007759D03*
X013522Y007719D03*
X014077Y009211D03*
X013499Y009574D03*
X013499Y010515D03*
X015065Y011200D03*
X012400Y012893D03*
X010853Y013432D03*
X009731Y015223D03*
X007806Y013278D03*
X006432Y012865D03*
X006475Y014086D03*
X004512Y012773D03*
X003164Y014235D03*
X003668Y015420D03*
X007152Y019282D03*
X009109Y019271D03*
X011101Y019271D03*
X008731Y011771D03*
X007884Y011109D03*
X005758Y008133D03*
X004888Y008066D03*
X004912Y007475D03*
X003294Y007239D03*
X004337Y010172D03*
X010640Y006633D03*
X014286Y003684D03*
X014751Y002928D03*
X013369Y002314D03*
D26*
X001617Y017735D02*
X003443Y019562D01*
X007152Y019562D01*
X007152Y019282D01*
X007152Y019562D02*
X009101Y019562D01*
X009109Y019554D01*
X009109Y019271D01*
X009101Y019562D02*
X011089Y019562D01*
X011089Y019282D01*
X011101Y019271D01*
X011089Y019562D02*
X013160Y019562D01*
X014038Y018684D01*
D27*
X004195Y018684D02*
X004195Y018034D01*
X003896Y017735D01*
X003668Y017507D01*
X003668Y015723D01*
X003668Y015420D01*
X002617Y016735D02*
X001617Y017735D01*
X002617Y017735D02*
X003896Y017735D01*
M02*
