%
M48
M72
T01C0.0197
T02C0.0236
T03C0.0315
T04C0.0360
T05C0.0400
T06C0.0520
%
T01
X8786Y9780
X5896Y5340
T02
X3916Y15985
X6366Y14685
X6541Y15280
X6951Y16195
X8086Y14995
X8400Y15912
X9561Y15555
X9921Y14855
X11751Y15005
X12621Y13295
X13116Y12300
X13211Y11270
X11576Y9975
X11906Y9360
X12626Y9000
X13058Y8652
X14581Y9065
X14798Y6208
X13645Y4913
X14606Y3060
X16136Y3310
X13146Y18010
X11101Y19156
X9109Y19156
X7152Y19156
X3593Y13213
X3397Y12716
X2121Y13010
X3051Y11265
X5246Y8940
X6101Y10335
X6486Y10810
X7461Y10735
X7731Y10170
X7559Y9550
X8282Y9644
X8831Y10435
X8116Y11585
X8116Y12420
X8961Y12400
X9446Y12220
X9796Y12540
X10276Y11775
X10111Y11270
X10181Y10010
X10826Y9420
X8911Y8530
X10356Y6240
X9134Y5324
X9331Y4825
X10081Y4535
X11271Y3385
X11761Y3932
X9401Y3170
X8904Y2811
X8293Y2805
X7886Y3175
X7361Y2750
X6938Y3288
X6350Y3288
X6361Y2835
X5762Y3288
X6050Y4574
X4826Y5440
X5026Y6680
X5931Y6830
X7631Y5285
X9286Y1940
X11616Y6610
X5876Y12295
X3316Y3700
X3092Y3276
X14196Y13560
T03
X5326Y15520
X5326Y10320
X12626Y10320
X12626Y15520
T04
X1617Y17735
X1617Y16735
X1617Y15735
X1617Y14735
X1617Y13735
X1617Y12735
X1617Y11735
X1617Y10735
X1617Y9735
X1617Y8735
X1617Y7735
X1617Y6735
X1617Y5735
X1617Y4735
X1617Y3735
X1617Y2735
X1617Y1735
X1617Y735
X2617Y735
X2617Y1735
X2617Y2735
X2617Y3735
X2617Y4735
X2617Y5735
X2617Y6735
X2617Y7735
X2617Y8735
X2617Y9735
X2617Y10735
X2617Y11735
X2617Y12735
X2617Y13735
X2617Y14735
X2617Y15735
X2617Y16735
X2617Y17735
X15617Y17735
X16617Y17735
X16617Y16735
X16617Y15735
X16617Y14735
X16617Y13735
X16617Y12735
X16617Y11735
X16617Y10735
X16617Y9735
X16617Y8735
X16617Y7735
X16617Y6735
X16617Y5735
X16617Y4735
X16617Y3735
X16617Y2735
X16617Y1735
X16617Y735
X15617Y16735
X15617Y15735
X15617Y14735
X15617Y13735
X15617Y12735
X15617Y11735
X15617Y10735
X15617Y9735
X15617Y8735
X15617Y7735
X15617Y6735
X15617Y5735
X15617Y4735
X15617Y3735
X15617Y2735
X15617Y1735
X15617Y735
T05
X4156Y8990
X6085Y8507
X7085Y8507
X7085Y7507
X6085Y7507
X8085Y7507
X8085Y8507
X4156Y5990
X4156Y4990
X4156Y3990
X14011Y5755
X14011Y6755
X14011Y7755
X14011Y10755
T06
X4195Y18684
X6164Y18684
X8132Y18684
X10101Y18684
X12069Y18684
X14038Y18684
X4029Y10271
X4195Y1361
X6164Y1361
X8132Y1361
X10101Y1361
X12069Y1361
X14038Y1361
X13943Y3796
M30
