G75*
%MOIN*%
%OFA0B0*%
%FSLAX24Y24*%
%IPPOS*%
%LPD*%
%AMOC8*
5,1,8,0,0,1.08239X$1,22.5*
%
%ADD10C,0.0160*%
%ADD11C,0.0080*%
%ADD12C,0.0040*%
D10*
X001046Y000180D02*
X017188Y000180D01*
X017188Y019865D01*
X001046Y019865D01*
X001046Y000180D01*
D11*
X003519Y014858D02*
X006100Y014858D01*
X006100Y016258D01*
X003519Y016258D01*
X003519Y014858D01*
X006437Y014842D02*
X009017Y014842D01*
X009017Y016242D01*
X006437Y016242D01*
X006437Y014842D01*
X009338Y014826D02*
X011919Y014826D01*
X011919Y016226D01*
X009338Y016226D01*
X009338Y014826D01*
X012153Y014826D02*
X014734Y014826D01*
X014734Y016226D01*
X012153Y016226D01*
X012153Y014826D01*
D12*
X012577Y015026D02*
X012884Y015026D01*
X012577Y015333D01*
X012577Y015410D01*
X012654Y015487D01*
X012807Y015487D01*
X012884Y015410D01*
X013037Y015410D02*
X013037Y015103D01*
X013114Y015026D01*
X013267Y015026D01*
X013344Y015103D01*
X013344Y015410D01*
X013267Y015487D01*
X013114Y015487D01*
X013037Y015410D01*
X013191Y015180D02*
X013037Y015026D01*
X011849Y014160D02*
X011849Y013700D01*
X011849Y013853D02*
X011618Y013853D01*
X011542Y013930D01*
X011542Y014084D01*
X011618Y014160D01*
X011849Y014160D01*
X011388Y014007D02*
X011235Y014160D01*
X011081Y014007D01*
X011081Y013700D01*
X010928Y013700D02*
X010698Y013700D01*
X010621Y013777D01*
X010621Y014084D01*
X010698Y014160D01*
X010928Y014160D01*
X010928Y013700D01*
X011081Y013930D02*
X011388Y013930D01*
X011388Y014007D02*
X011388Y013700D01*
X010467Y013777D02*
X010467Y013853D01*
X010391Y013930D01*
X010237Y013930D01*
X010161Y013853D01*
X010161Y013777D01*
X010237Y013700D01*
X010391Y013700D01*
X010467Y013777D01*
X010391Y013930D02*
X010467Y014007D01*
X010467Y014084D01*
X010391Y014160D01*
X010237Y014160D01*
X010161Y014084D01*
X010161Y014007D01*
X010237Y013930D01*
X010222Y015026D02*
X010376Y015180D01*
X010529Y015103D02*
X010453Y015026D01*
X010299Y015026D01*
X010222Y015103D01*
X010222Y015410D01*
X010299Y015487D01*
X010453Y015487D01*
X010529Y015410D01*
X010529Y015103D01*
X010069Y015103D02*
X009992Y015026D01*
X009839Y015026D01*
X009762Y015103D01*
X009762Y015180D01*
X009839Y015257D01*
X009915Y015257D01*
X009839Y015257D02*
X009762Y015333D01*
X009762Y015410D01*
X009839Y015487D01*
X009992Y015487D01*
X010069Y015410D01*
X007628Y015426D02*
X007628Y015119D01*
X007551Y015042D01*
X007397Y015042D01*
X007321Y015119D01*
X007321Y015426D01*
X007397Y015503D01*
X007551Y015503D01*
X007628Y015426D01*
X007474Y015196D02*
X007321Y015042D01*
X007167Y015272D02*
X006860Y015272D01*
X006937Y015042D02*
X006937Y015503D01*
X007167Y015272D01*
X004710Y015135D02*
X004634Y015058D01*
X004480Y015058D01*
X004403Y015135D01*
X004403Y015442D01*
X004480Y015518D01*
X004634Y015518D01*
X004710Y015442D01*
X004710Y015135D01*
X004557Y015211D02*
X004403Y015058D01*
X004250Y015135D02*
X004173Y015058D01*
X004020Y015058D01*
X003943Y015135D01*
X003943Y015288D01*
X004020Y015365D01*
X004097Y015365D01*
X004250Y015288D01*
X004250Y015518D01*
X003943Y015518D01*
X008298Y008523D02*
X008298Y008062D01*
X008451Y008062D02*
X008144Y008062D01*
X008451Y008369D02*
X008298Y008523D01*
X008605Y008446D02*
X008605Y008292D01*
X008681Y008216D01*
X008912Y008216D01*
X008912Y008062D02*
X008912Y008523D01*
X008681Y008523D01*
X008605Y008446D01*
X008758Y008216D02*
X008605Y008062D01*
M02*
