%
M48
M72
T01C0.0236
T02C0.0360
T03C0.0400
T04C0.0520
%
T01
X3668Y15420
X3164Y14235
X4512Y12773
X6432Y12865
X6475Y14086
X7806Y13278
X8731Y11771
X7884Y11109
X5758Y8133
X4888Y8066
X4912Y7475
X3294Y7239
X4337Y10172
X9731Y15223
X10853Y13432
X12400Y12893
X13499Y10515
X13499Y9574
X14077Y9211
X14117Y7759
X13522Y7719
X10640Y6633
X14286Y3684
X14751Y2928
X13369Y2314
X11101Y19271
X9109Y19271
X7152Y19282
X15065Y11200
T02
X1617Y17735
X1617Y16735
X1617Y15735
X1617Y14735
X1617Y13735
X1617Y12735
X1617Y11735
X1617Y10735
X1617Y9735
X1617Y8735
X1617Y7735
X1617Y6735
X1617Y5735
X1617Y4735
X1617Y3735
X1617Y2735
X1617Y1735
X1617Y735
X2617Y735
X2617Y1735
X2617Y2735
X2617Y3735
X2617Y4735
X2617Y5735
X2617Y6735
X2617Y7735
X2617Y8735
X2617Y9735
X2617Y10735
X2617Y11735
X2617Y12735
X2617Y13735
X2617Y14735
X2617Y15735
X2617Y16735
X2617Y17735
X15617Y17735
X16617Y17735
X16617Y16735
X16617Y15735
X16617Y14735
X16617Y13735
X16617Y12735
X16617Y11735
X16617Y10735
X16617Y9735
X16617Y8735
X16617Y7735
X16617Y6735
X16617Y5735
X16617Y4735
X16617Y3735
X16617Y2735
X16617Y1735
X16617Y735
X15617Y16735
X15617Y15735
X15617Y14735
X15617Y13735
X15617Y12735
X15617Y11735
X15617Y10735
X15617Y9735
X15617Y8735
X15617Y7735
X15617Y6735
X15617Y5735
X15617Y4735
X15617Y3735
X15617Y2735
X15617Y1735
X15617Y735
T03
X4884Y12038
X4884Y11038
X5884Y11038
X5884Y12038
X6884Y12038
X6884Y11038
X6400Y4499
X7400Y4499
X8400Y4499
X9400Y4499
X10400Y4499
X11400Y4499
T04
X4195Y18684
X6164Y18684
X8132Y18684
X10101Y18684
X12069Y18684
X14038Y18684
X4810Y5641
X4821Y4137
X4195Y1361
X6164Y1361
X8132Y1361
X10101Y1361
X12069Y1361
X14038Y1361
M30
