G75*
%MOIN*%
%OFA0B0*%
%FSLAX24Y24*%
%IPPOS*%
%LPD*%
%AMOC8*
5,1,8,0,0,1.08239X$1,22.5*
%
%ADD10C,0.0160*%
%ADD11R,0.0500X0.0220*%
%ADD12R,0.0220X0.0500*%
%ADD13R,0.0472X0.0472*%
%ADD14R,0.0500X0.1000*%
%ADD15R,0.1000X0.0500*%
%ADD16R,0.0460X0.0630*%
%ADD17R,0.0866X0.0236*%
%ADD18R,0.0512X0.0591*%
%ADD19R,0.0800X0.0260*%
%ADD20R,0.0591X0.0512*%
%ADD21R,0.1063X0.0630*%
%ADD22R,0.0630X0.0460*%
%ADD23R,0.0787X0.0433*%
D10*
X001046Y000180D02*
X017188Y000180D01*
X017188Y019865D01*
X001046Y019865D01*
X001046Y000180D01*
D11*
X009277Y005660D03*
X009277Y005975D03*
X009277Y006290D03*
X009277Y006605D03*
X009277Y006920D03*
X009277Y007235D03*
X009277Y007550D03*
X009277Y007865D03*
X012657Y007865D03*
X012657Y007550D03*
X012657Y007235D03*
X012657Y006920D03*
X012657Y006605D03*
X012657Y006290D03*
X012657Y005975D03*
X012657Y005660D03*
D12*
X012069Y005073D03*
X011754Y005073D03*
X011440Y005073D03*
X011125Y005073D03*
X010810Y005073D03*
X010495Y005073D03*
X010180Y005073D03*
X009865Y005073D03*
X009865Y008453D03*
X010180Y008453D03*
X010495Y008453D03*
X010810Y008453D03*
X011125Y008453D03*
X011440Y008453D03*
X011754Y008453D03*
X012069Y008453D03*
D13*
X007782Y006015D03*
X006955Y006015D03*
D14*
X014224Y008903D03*
D15*
X012857Y004995D03*
D16*
X012683Y011792D03*
X013283Y011792D03*
X004425Y010089D03*
X003825Y010089D03*
X002736Y018782D03*
X002136Y018782D03*
D17*
X005534Y015788D03*
X005534Y015288D03*
X005534Y014788D03*
X005534Y014288D03*
X005534Y013788D03*
X005534Y013288D03*
X005534Y012788D03*
X005534Y012288D03*
X005534Y011788D03*
X005534Y011288D03*
X009156Y011288D03*
X009156Y011788D03*
X009156Y012288D03*
X009156Y012788D03*
X009156Y013288D03*
X009156Y013788D03*
X009156Y014288D03*
X009156Y014788D03*
X009156Y015288D03*
X009156Y015788D03*
D18*
X004485Y010932D03*
X003737Y010932D03*
D19*
X010992Y013306D03*
X010992Y013806D03*
X010992Y014306D03*
X010992Y014806D03*
X010992Y015306D03*
X010992Y015806D03*
X010992Y016306D03*
X013412Y016306D03*
X013412Y015806D03*
X013412Y015306D03*
X013412Y014806D03*
X013412Y014306D03*
X013412Y013806D03*
X013412Y013306D03*
D20*
X014359Y014525D03*
X014359Y015273D03*
X005786Y006654D03*
X005786Y005906D03*
D21*
X003967Y015086D03*
X003967Y016188D03*
D22*
X003686Y006180D03*
X003686Y005580D03*
D23*
X006618Y005271D03*
X006618Y006609D03*
X008193Y006609D03*
X008193Y005271D03*
M02*
