G75*
%MOIN*%
%OFA0B0*%
%FSLAX24Y24*%
%IPPOS*%
%LPD*%
%AMOC8*
5,1,8,0,0,1.08239X$1,22.5*
%
%ADD10C,0.0160*%
%ADD11C,0.0060*%
%ADD12C,0.0010*%
%ADD13R,0.0118X0.0059*%
%ADD14R,0.0118X0.0118*%
%ADD15C,0.0050*%
%ADD16C,0.0020*%
D10*
X001046Y000180D02*
X017188Y000180D01*
X017188Y019865D01*
X001046Y019865D01*
X001046Y000180D01*
X003211Y000180D02*
X003211Y003330D01*
X003211Y000180D02*
X015022Y000180D01*
X015022Y003330D01*
X015022Y016715D02*
X003211Y016715D01*
X003211Y019865D01*
X015022Y019865D01*
X015022Y016715D01*
D11*
X014917Y017985D02*
X014917Y000485D01*
X014638Y000761D02*
X014438Y000761D01*
X014638Y000761D02*
X014638Y000961D01*
X014917Y000485D02*
X014919Y000455D01*
X014924Y000425D01*
X014933Y000396D01*
X014946Y000369D01*
X014961Y000343D01*
X014980Y000319D01*
X015001Y000298D01*
X015025Y000279D01*
X015051Y000264D01*
X015078Y000251D01*
X015107Y000242D01*
X015137Y000237D01*
X015167Y000235D01*
X017067Y000235D01*
X017097Y000237D01*
X017127Y000242D01*
X017156Y000251D01*
X017183Y000264D01*
X017209Y000279D01*
X017233Y000298D01*
X017254Y000319D01*
X017273Y000343D01*
X017288Y000369D01*
X017301Y000396D01*
X017310Y000425D01*
X017315Y000455D01*
X017317Y000485D01*
X017317Y017985D01*
X017315Y018015D01*
X017310Y018045D01*
X017301Y018074D01*
X017288Y018101D01*
X017273Y018127D01*
X017254Y018151D01*
X017233Y018172D01*
X017209Y018191D01*
X017183Y018206D01*
X017156Y018219D01*
X017127Y018228D01*
X017097Y018233D01*
X017067Y018235D01*
X015167Y018235D01*
X015137Y018233D01*
X015107Y018228D01*
X015078Y018219D01*
X015051Y018206D01*
X015025Y018191D01*
X015001Y018172D01*
X014980Y018151D01*
X014961Y018127D01*
X014946Y018101D01*
X014933Y018074D01*
X014924Y018045D01*
X014919Y018015D01*
X014917Y017985D01*
X014638Y018084D02*
X014438Y018084D01*
X014638Y018084D02*
X014638Y018284D01*
X014638Y019084D02*
X014638Y019284D01*
X014438Y019284D01*
X013638Y019284D02*
X013438Y019284D01*
X013438Y019084D01*
X012669Y019084D02*
X012669Y019284D01*
X012469Y019284D01*
X011669Y019284D02*
X011469Y019284D01*
X011469Y019084D01*
X010701Y019084D02*
X010701Y019284D01*
X010501Y019284D01*
X009701Y019284D02*
X009501Y019284D01*
X009501Y019084D01*
X009501Y018284D02*
X009501Y018084D01*
X009701Y018084D01*
X010501Y018084D02*
X010701Y018084D01*
X010701Y018284D01*
X011469Y018284D02*
X011469Y018084D01*
X011669Y018084D01*
X012469Y018084D02*
X012669Y018084D01*
X012669Y018284D01*
X013438Y018284D02*
X013438Y018084D01*
X013638Y018084D01*
X012822Y016556D02*
X012402Y016556D01*
X012002Y016556D01*
X011582Y016556D01*
X011559Y016554D01*
X011536Y016549D01*
X011514Y016540D01*
X011494Y016527D01*
X011476Y016512D01*
X011461Y016494D01*
X011448Y016474D01*
X011439Y016452D01*
X011434Y016429D01*
X011432Y016406D01*
X012002Y016556D02*
X012004Y016529D01*
X012009Y016502D01*
X012019Y016476D01*
X012031Y016452D01*
X012047Y016430D01*
X012065Y016410D01*
X012087Y016393D01*
X012110Y016378D01*
X012135Y016368D01*
X012161Y016360D01*
X012188Y016356D01*
X012216Y016356D01*
X012243Y016360D01*
X012269Y016368D01*
X012294Y016378D01*
X012317Y016393D01*
X012339Y016410D01*
X012357Y016430D01*
X012373Y016452D01*
X012385Y016476D01*
X012395Y016502D01*
X012400Y016529D01*
X012402Y016556D01*
X012822Y016556D02*
X012845Y016554D01*
X012868Y016549D01*
X012890Y016540D01*
X012910Y016527D01*
X012928Y016512D01*
X012943Y016494D01*
X012956Y016474D01*
X012965Y016452D01*
X012970Y016429D01*
X012972Y016406D01*
X012972Y013206D02*
X012970Y013183D01*
X012965Y013160D01*
X012956Y013138D01*
X012943Y013118D01*
X012928Y013100D01*
X012910Y013085D01*
X012890Y013072D01*
X012868Y013063D01*
X012845Y013058D01*
X012822Y013056D01*
X011582Y013056D01*
X011559Y013058D01*
X011536Y013063D01*
X011514Y013072D01*
X011494Y013085D01*
X011476Y013100D01*
X011461Y013118D01*
X011448Y013138D01*
X011439Y013160D01*
X011434Y013183D01*
X011432Y013206D01*
X012333Y012092D02*
X012333Y011492D01*
X012335Y011475D01*
X012339Y011458D01*
X012346Y011442D01*
X012356Y011428D01*
X012369Y011415D01*
X012383Y011405D01*
X012399Y011398D01*
X012416Y011394D01*
X012433Y011392D01*
X013533Y011392D01*
X013550Y011394D01*
X013567Y011398D01*
X013583Y011405D01*
X013597Y011415D01*
X013610Y011428D01*
X013620Y011442D01*
X013627Y011458D01*
X013631Y011475D01*
X013633Y011492D01*
X013633Y012092D01*
X013631Y012109D01*
X013627Y012126D01*
X013620Y012142D01*
X013610Y012156D01*
X013597Y012169D01*
X013583Y012179D01*
X013567Y012186D01*
X013550Y012190D01*
X013533Y012192D01*
X012433Y012192D01*
X012416Y012190D01*
X012399Y012186D01*
X012383Y012179D01*
X012369Y012169D01*
X012356Y012156D01*
X012346Y012142D01*
X012339Y012126D01*
X012335Y012109D01*
X012333Y012092D01*
X013644Y010883D02*
X013894Y011133D01*
X014394Y011133D01*
X014644Y010883D01*
X014644Y010383D01*
X014394Y010133D01*
X013894Y010133D01*
X013644Y010383D01*
X013644Y010883D01*
X013894Y008196D02*
X014394Y008196D01*
X014644Y007946D01*
X014644Y007446D01*
X014394Y007196D01*
X014644Y006946D01*
X014644Y006446D01*
X014394Y006196D01*
X014644Y005946D01*
X014644Y005446D01*
X014394Y005196D01*
X013894Y005196D01*
X013644Y005446D01*
X013644Y005946D01*
X013894Y006196D01*
X013644Y006446D01*
X013644Y006946D01*
X013894Y007196D01*
X013644Y007446D01*
X013644Y007946D01*
X013894Y008196D01*
X013894Y007196D02*
X014394Y007196D01*
X014394Y006196D02*
X013894Y006196D01*
X012347Y005523D02*
X012347Y008143D01*
X009587Y008143D01*
X009587Y005383D01*
X012207Y005383D01*
X012347Y005523D01*
X011906Y005683D02*
X011908Y005706D01*
X011914Y005729D01*
X011923Y005750D01*
X011936Y005770D01*
X011952Y005787D01*
X011970Y005801D01*
X011990Y005812D01*
X012012Y005820D01*
X012035Y005824D01*
X012059Y005824D01*
X012082Y005820D01*
X012104Y005812D01*
X012124Y005801D01*
X012142Y005787D01*
X012158Y005770D01*
X012171Y005750D01*
X012180Y005729D01*
X012186Y005706D01*
X012188Y005683D01*
X012186Y005660D01*
X012180Y005637D01*
X012171Y005616D01*
X012158Y005596D01*
X012142Y005579D01*
X012124Y005565D01*
X012104Y005554D01*
X012082Y005546D01*
X012059Y005542D01*
X012035Y005542D01*
X012012Y005546D01*
X011990Y005554D01*
X011970Y005565D01*
X011952Y005579D01*
X011936Y005596D01*
X011923Y005616D01*
X011914Y005637D01*
X011908Y005660D01*
X011906Y005683D01*
X013343Y004396D02*
X013343Y004196D01*
X013343Y004396D02*
X013543Y004396D01*
X014343Y004396D02*
X014543Y004396D01*
X014543Y004196D01*
X014543Y003396D02*
X014543Y003196D01*
X014343Y003196D01*
X013543Y003196D02*
X013343Y003196D01*
X013343Y003396D01*
X013438Y001961D02*
X013638Y001961D01*
X013438Y001961D02*
X013438Y001761D01*
X012669Y001761D02*
X012669Y001961D01*
X012469Y001961D01*
X011669Y001961D02*
X011469Y001961D01*
X011469Y001761D01*
X010701Y001761D02*
X010701Y001961D01*
X010501Y001961D01*
X009701Y001961D02*
X009501Y001961D01*
X009501Y001761D01*
X009501Y000961D02*
X009501Y000761D01*
X009701Y000761D01*
X010501Y000761D02*
X010701Y000761D01*
X010701Y000961D01*
X011469Y000961D02*
X011469Y000761D01*
X011669Y000761D01*
X012469Y000761D02*
X012669Y000761D01*
X012669Y000961D01*
X013438Y000961D02*
X013438Y000761D01*
X013638Y000761D01*
X014638Y001761D02*
X014638Y001961D01*
X014438Y001961D01*
X008732Y001961D02*
X008732Y001761D01*
X008732Y001961D02*
X008532Y001961D01*
X007732Y001961D02*
X007532Y001961D01*
X007532Y001761D01*
X006764Y001761D02*
X006764Y001961D01*
X006564Y001961D01*
X005764Y001961D02*
X005564Y001961D01*
X005564Y001761D01*
X004795Y001761D02*
X004795Y001961D01*
X004595Y001961D01*
X003795Y001961D02*
X003595Y001961D01*
X003595Y001761D01*
X003595Y000961D02*
X003595Y000761D01*
X003795Y000761D01*
X003317Y000485D02*
X003317Y017985D01*
X003595Y018084D02*
X003595Y018284D01*
X003595Y018084D02*
X003795Y018084D01*
X003317Y017985D02*
X003315Y018015D01*
X003310Y018045D01*
X003301Y018074D01*
X003288Y018101D01*
X003273Y018127D01*
X003254Y018151D01*
X003233Y018172D01*
X003209Y018191D01*
X003183Y018206D01*
X003156Y018219D01*
X003127Y018228D01*
X003097Y018233D01*
X003067Y018235D01*
X001167Y018235D01*
X001137Y018233D01*
X001107Y018228D01*
X001078Y018219D01*
X001051Y018206D01*
X001025Y018191D01*
X001001Y018172D01*
X000980Y018151D01*
X000961Y018127D01*
X000946Y018101D01*
X000933Y018074D01*
X000924Y018045D01*
X000919Y018015D01*
X000917Y017985D01*
X000917Y000485D01*
X000919Y000455D01*
X000924Y000425D01*
X000933Y000396D01*
X000946Y000369D01*
X000961Y000343D01*
X000980Y000319D01*
X001001Y000298D01*
X001025Y000279D01*
X001051Y000264D01*
X001078Y000251D01*
X001107Y000242D01*
X001137Y000237D01*
X001167Y000235D01*
X003067Y000235D01*
X003097Y000237D01*
X003127Y000242D01*
X003156Y000251D01*
X003183Y000264D01*
X003209Y000279D01*
X003233Y000298D01*
X003254Y000319D01*
X003273Y000343D01*
X003288Y000369D01*
X003301Y000396D01*
X003310Y000425D01*
X003315Y000455D01*
X003317Y000485D01*
X004595Y000761D02*
X004795Y000761D01*
X004795Y000961D01*
X005564Y000961D02*
X005564Y000761D01*
X005764Y000761D01*
X006564Y000761D02*
X006764Y000761D01*
X006764Y000961D01*
X007532Y000961D02*
X007532Y000761D01*
X007732Y000761D01*
X008532Y000761D02*
X008732Y000761D01*
X008732Y000961D01*
X005254Y003658D02*
X005004Y003408D01*
X004504Y003408D01*
X004254Y003658D01*
X004254Y004158D01*
X004504Y004408D01*
X004254Y004658D01*
X004254Y005158D01*
X004504Y005408D01*
X004254Y005658D01*
X004254Y006158D01*
X004504Y006408D01*
X004254Y006658D01*
X004254Y007158D01*
X004504Y007408D01*
X004254Y007658D01*
X004254Y008158D01*
X004504Y008408D01*
X004254Y008658D01*
X004254Y009158D01*
X004504Y009408D01*
X005004Y009408D01*
X005254Y009158D01*
X005254Y008658D01*
X005004Y008408D01*
X005254Y008158D01*
X005254Y007658D01*
X005004Y007408D01*
X005254Y007158D01*
X005254Y006658D01*
X005004Y006408D01*
X005254Y006158D01*
X005254Y005658D01*
X005004Y005408D01*
X005254Y005158D01*
X005254Y004658D01*
X005004Y004408D01*
X005254Y004158D01*
X005254Y003658D01*
X003986Y005230D02*
X003386Y005230D01*
X003369Y005232D01*
X003352Y005236D01*
X003336Y005243D01*
X003322Y005253D01*
X003309Y005266D01*
X003299Y005280D01*
X003292Y005296D01*
X003288Y005313D01*
X003286Y005330D01*
X003286Y006430D01*
X003288Y006447D01*
X003292Y006464D01*
X003299Y006480D01*
X003309Y006494D01*
X003322Y006507D01*
X003336Y006517D01*
X003352Y006524D01*
X003369Y006528D01*
X003386Y006530D01*
X003986Y006530D01*
X004003Y006528D01*
X004020Y006524D01*
X004036Y006517D01*
X004050Y006507D01*
X004063Y006494D01*
X004073Y006480D01*
X004080Y006464D01*
X004084Y006447D01*
X004086Y006430D01*
X004086Y005330D01*
X004084Y005313D01*
X004080Y005296D01*
X004073Y005280D01*
X004063Y005266D01*
X004050Y005253D01*
X004036Y005243D01*
X004020Y005236D01*
X004003Y005232D01*
X003986Y005230D01*
X005835Y007007D02*
X005585Y007257D01*
X005585Y008757D01*
X005835Y009007D01*
X006335Y009007D01*
X006585Y008757D01*
X006585Y007257D01*
X006335Y007007D01*
X005835Y007007D01*
X006585Y007257D02*
X006835Y007007D01*
X007335Y007007D01*
X007585Y007257D01*
X007585Y008757D01*
X007335Y009007D01*
X006835Y009007D01*
X006585Y008757D01*
X006569Y009171D02*
X006769Y009171D01*
X006769Y009371D01*
X006769Y010171D02*
X006769Y010371D01*
X006569Y010371D01*
X005769Y010371D02*
X005569Y010371D01*
X005569Y010171D01*
X005569Y009371D02*
X005569Y009171D01*
X005769Y009171D01*
X004775Y009789D02*
X004775Y010389D01*
X004773Y010406D01*
X004769Y010423D01*
X004762Y010439D01*
X004752Y010453D01*
X004739Y010466D01*
X004725Y010476D01*
X004709Y010483D01*
X004692Y010487D01*
X004675Y010489D01*
X003575Y010489D01*
X003558Y010487D01*
X003541Y010483D01*
X003525Y010476D01*
X003511Y010466D01*
X003498Y010453D01*
X003488Y010439D01*
X003481Y010423D01*
X003477Y010406D01*
X003475Y010389D01*
X003475Y009789D01*
X003477Y009772D01*
X003481Y009755D01*
X003488Y009739D01*
X003498Y009725D01*
X003511Y009712D01*
X003525Y009702D01*
X003541Y009695D01*
X003558Y009691D01*
X003575Y009689D01*
X004675Y009689D01*
X004692Y009691D01*
X004709Y009695D01*
X004725Y009702D01*
X004739Y009712D01*
X004752Y009725D01*
X004762Y009739D01*
X004769Y009755D01*
X004773Y009772D01*
X004775Y009789D01*
X007585Y008757D02*
X007835Y009007D01*
X008335Y009007D01*
X008585Y008757D01*
X008585Y007257D01*
X008335Y007007D01*
X007835Y007007D01*
X007585Y007257D01*
X007532Y018084D02*
X007532Y018284D01*
X007532Y018084D02*
X007732Y018084D01*
X008532Y018084D02*
X008732Y018084D01*
X008732Y018284D01*
X008732Y019084D02*
X008732Y019284D01*
X008532Y019284D01*
X007732Y019284D02*
X007532Y019284D01*
X007532Y019084D01*
X006764Y019084D02*
X006764Y019284D01*
X006564Y019284D01*
X005764Y019284D02*
X005564Y019284D01*
X005564Y019084D01*
X004795Y019084D02*
X004795Y019284D01*
X004595Y019284D01*
X003795Y019284D02*
X003595Y019284D01*
X003595Y019084D01*
X003086Y019082D02*
X003086Y018482D01*
X003084Y018465D01*
X003080Y018448D01*
X003073Y018432D01*
X003063Y018418D01*
X003050Y018405D01*
X003036Y018395D01*
X003020Y018388D01*
X003003Y018384D01*
X002986Y018382D01*
X001886Y018382D01*
X001869Y018384D01*
X001852Y018388D01*
X001836Y018395D01*
X001822Y018405D01*
X001809Y018418D01*
X001799Y018432D01*
X001792Y018448D01*
X001788Y018465D01*
X001786Y018482D01*
X001786Y019082D01*
X001788Y019099D01*
X001792Y019116D01*
X001799Y019132D01*
X001809Y019146D01*
X001822Y019159D01*
X001836Y019169D01*
X001852Y019176D01*
X001869Y019180D01*
X001886Y019182D01*
X002986Y019182D01*
X003003Y019180D01*
X003020Y019176D01*
X003036Y019169D01*
X003050Y019159D01*
X003063Y019146D01*
X003073Y019132D01*
X003080Y019116D01*
X003084Y019099D01*
X003086Y019082D01*
X004595Y018084D02*
X004795Y018084D01*
X004795Y018284D01*
X005564Y018284D02*
X005564Y018084D01*
X005764Y018084D01*
X006564Y018084D02*
X006764Y018084D01*
X006764Y018284D01*
D12*
X011927Y004758D02*
X011927Y004633D01*
X011952Y004608D01*
X012002Y004608D01*
X012027Y004633D01*
X012027Y004758D01*
X012075Y004708D02*
X012125Y004758D01*
X012125Y004608D01*
X012075Y004608D02*
X012175Y004608D01*
D13*
X007310Y005778D03*
X007310Y006251D03*
D14*
X007310Y006015D03*
D15*
X000441Y000610D02*
X000291Y000760D01*
X000742Y000760D01*
X000742Y000610D02*
X000742Y000910D01*
X005504Y003873D02*
X005429Y004023D01*
X005504Y003873D02*
X005654Y003723D01*
X005654Y003948D01*
X005729Y004023D01*
X005804Y004023D01*
X005879Y003948D01*
X005879Y003798D01*
X005804Y003723D01*
X005654Y003723D01*
X006422Y004956D02*
X006422Y006924D01*
X008390Y006924D01*
X008390Y005349D01*
X007996Y004956D01*
X006422Y004956D01*
X006579Y005940D02*
X006581Y005997D01*
X006587Y006054D01*
X006597Y006110D01*
X006610Y006166D01*
X006628Y006220D01*
X006649Y006273D01*
X006674Y006324D01*
X006702Y006374D01*
X006734Y006421D01*
X006768Y006467D01*
X006806Y006509D01*
X006847Y006549D01*
X006890Y006587D01*
X006936Y006621D01*
X006984Y006651D01*
X007034Y006679D01*
X007086Y006703D01*
X007140Y006723D01*
X007194Y006739D01*
X007250Y006752D01*
X007306Y006761D01*
X007363Y006766D01*
X007420Y006767D01*
X007477Y006764D01*
X007534Y006757D01*
X007590Y006746D01*
X007645Y006732D01*
X007699Y006713D01*
X007752Y006691D01*
X007803Y006666D01*
X007852Y006636D01*
X007899Y006604D01*
X007944Y006568D01*
X007986Y006530D01*
X008025Y006488D01*
X008061Y006444D01*
X008095Y006398D01*
X008125Y006349D01*
X008151Y006299D01*
X008174Y006247D01*
X008193Y006193D01*
X008209Y006138D01*
X008221Y006082D01*
X008229Y006025D01*
X008233Y005969D01*
X008233Y005911D01*
X008229Y005855D01*
X008221Y005798D01*
X008209Y005742D01*
X008193Y005687D01*
X008174Y005633D01*
X008151Y005581D01*
X008125Y005531D01*
X008095Y005482D01*
X008061Y005436D01*
X008025Y005392D01*
X007986Y005350D01*
X007944Y005312D01*
X007899Y005276D01*
X007852Y005244D01*
X007803Y005214D01*
X007752Y005189D01*
X007699Y005167D01*
X007645Y005148D01*
X007590Y005134D01*
X007534Y005123D01*
X007477Y005116D01*
X007420Y005113D01*
X007363Y005114D01*
X007306Y005119D01*
X007250Y005128D01*
X007194Y005141D01*
X007140Y005157D01*
X007086Y005177D01*
X007034Y005201D01*
X006984Y005229D01*
X006936Y005259D01*
X006890Y005293D01*
X006847Y005331D01*
X006806Y005371D01*
X006768Y005413D01*
X006734Y005459D01*
X006702Y005506D01*
X006674Y005556D01*
X006649Y005607D01*
X006628Y005660D01*
X006610Y005714D01*
X006597Y005770D01*
X006587Y005826D01*
X006581Y005883D01*
X006579Y005940D01*
X007996Y004956D02*
X008390Y004956D01*
X008390Y005349D01*
X008505Y004882D02*
X008507Y004896D01*
X008513Y004910D01*
X008521Y004922D01*
X008533Y004930D01*
X008547Y004936D01*
X008561Y004938D01*
X008575Y004936D01*
X008589Y004930D01*
X008601Y004922D01*
X008609Y004910D01*
X008615Y004896D01*
X008617Y004882D01*
X008615Y004868D01*
X008609Y004854D01*
X008601Y004842D01*
X008589Y004834D01*
X008575Y004828D01*
X008561Y004826D01*
X008547Y004828D01*
X008533Y004834D01*
X008521Y004842D01*
X008513Y004854D01*
X008507Y004868D01*
X008505Y004882D01*
X004079Y008723D02*
X004079Y009023D01*
X004079Y008873D02*
X003629Y008873D01*
X003779Y008723D01*
X003867Y017410D02*
X003942Y017485D01*
X003942Y017635D01*
X003867Y017710D01*
X003792Y017710D01*
X003716Y017635D01*
X003716Y017560D01*
X003716Y017635D02*
X003641Y017710D01*
X003566Y017710D01*
X003491Y017635D01*
X003491Y017485D01*
X003566Y017410D01*
X003716Y017871D02*
X003716Y018096D01*
X003792Y018171D01*
X003867Y018171D01*
X003942Y018096D01*
X003942Y017946D01*
X003867Y017871D01*
X003716Y017871D01*
X003566Y018021D01*
X003491Y018171D01*
X017491Y018171D02*
X017566Y018021D01*
X017716Y017871D01*
X017716Y018096D01*
X017792Y018171D01*
X017867Y018171D01*
X017942Y018096D01*
X017942Y017946D01*
X017867Y017871D01*
X017716Y017871D01*
X017641Y017710D02*
X017716Y017635D01*
X017792Y017710D01*
X017867Y017710D01*
X017942Y017635D01*
X017942Y017485D01*
X017867Y017410D01*
X017716Y017560D02*
X017716Y017635D01*
X017641Y017710D02*
X017566Y017710D01*
X017491Y017635D01*
X017491Y017485D01*
X017566Y017410D01*
X014742Y000910D02*
X014742Y000610D01*
X014742Y000760D02*
X014291Y000760D01*
X014441Y000610D01*
D16*
X011572Y013056D02*
X011572Y016556D01*
M02*
