G75*
%MOIN*%
%OFA0B0*%
%FSLAX24Y24*%
%IPPOS*%
%LPD*%
%AMOC8*
5,1,8,0,0,1.08239X$1,22.5*
%
%ADD10C,0.0160*%
%ADD11C,0.0030*%
%ADD12R,0.0540X0.0260*%
%ADD13R,0.0260X0.0540*%
%ADD14OC8,0.0640*%
%ADD15OC8,0.1290*%
%ADD16OC8,0.0670*%
%ADD17R,0.0512X0.0512*%
%ADD18R,0.0552X0.0670*%
%ADD19C,0.0600*%
%ADD20OC8,0.0600*%
%ADD21R,0.1040X0.0540*%
%ADD22R,0.0540X0.1040*%
%ADD23R,0.0906X0.0276*%
%ADD24R,0.0552X0.0631*%
%ADD25R,0.0670X0.1103*%
%ADD26R,0.0500X0.0670*%
%ADD27R,0.0060X0.0720*%
%ADD28R,0.0827X0.0473*%
%ADD29R,0.0631X0.0552*%
%ADD30C,0.0555*%
%ADD31R,0.0985X0.0985*%
%ADD32C,0.0640*%
%ADD33R,0.0312X0.0004*%
%ADD34R,0.0344X0.0004*%
%ADD35R,0.0368X0.0004*%
%ADD36R,0.0392X0.0004*%
%ADD37R,0.0408X0.0004*%
%ADD38R,0.0424X0.0004*%
%ADD39R,0.0432X0.0004*%
%ADD40R,0.0448X0.0004*%
%ADD41R,0.0456X0.0004*%
%ADD42R,0.0472X0.0004*%
%ADD43R,0.0480X0.0004*%
%ADD44R,0.0488X0.0004*%
%ADD45R,0.0496X0.0004*%
%ADD46R,0.0504X0.0004*%
%ADD47R,0.0512X0.0004*%
%ADD48R,0.0520X0.0004*%
%ADD49R,0.0528X0.0004*%
%ADD50R,0.0536X0.0004*%
%ADD51R,0.0536X0.0004*%
%ADD52R,0.0544X0.0004*%
%ADD53R,0.0552X0.0004*%
%ADD54R,0.0560X0.0004*%
%ADD55R,0.0560X0.0004*%
%ADD56R,0.0568X0.0004*%
%ADD57R,0.0576X0.0004*%
%ADD58R,0.0584X0.0004*%
%ADD59R,0.0592X0.0004*%
%ADD60R,0.0592X0.0004*%
%ADD61R,0.0600X0.0004*%
%ADD62R,0.0608X0.0004*%
%ADD63R,0.0608X0.0004*%
%ADD64R,0.0616X0.0004*%
%ADD65R,0.0624X0.0004*%
%ADD66R,0.0632X0.0004*%
%ADD67R,0.0632X0.0004*%
%ADD68R,0.0640X0.0004*%
%ADD69R,0.0648X0.0004*%
%ADD70R,0.0648X0.0004*%
%ADD71R,0.0656X0.0004*%
%ADD72R,0.0664X0.0004*%
%ADD73R,0.0664X0.0004*%
%ADD74R,0.0672X0.0004*%
%ADD75R,0.0680X0.0004*%
%ADD76R,0.0680X0.0004*%
%ADD77R,0.0688X0.0004*%
%ADD78R,0.0696X0.0004*%
%ADD79R,0.0700X0.0004*%
%ADD80R,0.0708X0.0004*%
%ADD81R,0.0716X0.0004*%
%ADD82R,0.0720X0.0004*%
%ADD83R,0.0720X0.0004*%
%ADD84R,0.0724X0.0004*%
%ADD85R,0.0808X0.0004*%
%ADD86R,0.0824X0.0004*%
%ADD87R,0.0832X0.0004*%
%ADD88R,0.0840X0.0004*%
%ADD89R,0.0848X0.0004*%
%ADD90R,0.0856X0.0004*%
%ADD91R,0.0860X0.0004*%
%ADD92R,0.0864X0.0004*%
%ADD93R,0.0864X0.0004*%
%ADD94R,0.0868X0.0004*%
%ADD95R,0.0872X0.0004*%
%ADD96R,0.0872X0.0004*%
%ADD97R,0.0860X0.0004*%
%ADD98R,0.0832X0.0004*%
%ADD99R,0.0824X0.0004*%
%ADD100R,0.0708X0.0004*%
%ADD101R,0.0712X0.0004*%
%ADD102R,0.0712X0.0004*%
%ADD103R,0.0700X0.0004*%
%ADD104R,0.0696X0.0004*%
%ADD105R,0.0692X0.0004*%
%ADD106R,0.0668X0.0004*%
%ADD107R,0.0660X0.0004*%
%ADD108R,0.0452X0.0004*%
%ADD109R,0.0188X0.0004*%
%ADD110R,0.0448X0.0004*%
%ADD111R,0.0440X0.0004*%
%ADD112R,0.0184X0.0004*%
%ADD113R,0.0432X0.0004*%
%ADD114R,0.0184X0.0004*%
%ADD115R,0.0424X0.0004*%
%ADD116R,0.0412X0.0004*%
%ADD117R,0.0128X0.0004*%
%ADD118R,0.0044X0.0004*%
%ADD119R,0.0400X0.0004*%
%ADD120R,0.0008X0.0004*%
%ADD121R,0.0388X0.0004*%
%ADD122R,0.0132X0.0004*%
%ADD123R,0.0360X0.0004*%
%ADD124R,0.0136X0.0004*%
%ADD125R,0.0340X0.0004*%
%ADD126R,0.0140X0.0004*%
%ADD127R,0.0328X0.0004*%
%ADD128R,0.0144X0.0004*%
%ADD129R,0.0324X0.0004*%
%ADD130R,0.0148X0.0004*%
%ADD131R,0.0320X0.0004*%
%ADD132R,0.0156X0.0004*%
%ADD133R,0.0316X0.0004*%
%ADD134R,0.0176X0.0004*%
%ADD135R,0.0080X0.0004*%
%ADD136R,0.0052X0.0004*%
%ADD137R,0.0380X0.0004*%
%ADD138R,0.0372X0.0004*%
%ADD139R,0.0356X0.0004*%
%ADD140R,0.0004X0.0004*%
%ADD141R,0.0308X0.0004*%
%ADD142R,0.0060X0.0004*%
%ADD143R,0.0240X0.0004*%
%ADD144R,0.0232X0.0004*%
%ADD145R,0.0044X0.0004*%
%ADD146R,0.0164X0.0004*%
%ADD147R,0.0056X0.0004*%
%ADD148R,0.0036X0.0004*%
%ADD149R,0.0156X0.0004*%
%ADD150R,0.0048X0.0004*%
%ADD151R,0.0024X0.0004*%
%ADD152R,0.0036X0.0004*%
%ADD153R,0.0016X0.0004*%
%ADD154R,0.0028X0.0004*%
%ADD155R,0.0012X0.0004*%
%ADD156R,0.0124X0.0004*%
%ADD157R,0.0108X0.0004*%
%ADD158R,0.0008X0.0004*%
%ADD159R,0.0092X0.0004*%
%ADD160R,0.0068X0.0004*%
%ADD161R,0.0008X0.0004*%
%ADD162R,0.0016X0.0004*%
%ADD163R,0.0024X0.0004*%
%ADD164R,0.0032X0.0004*%
%ADD165R,0.0032X0.0004*%
%ADD166R,0.0040X0.0004*%
%ADD167R,0.0056X0.0004*%
%ADD168R,0.0064X0.0004*%
%ADD169R,0.0072X0.0004*%
%ADD170R,0.0088X0.0004*%
%ADD171R,0.0096X0.0004*%
%ADD172R,0.0104X0.0004*%
%ADD173R,0.0112X0.0004*%
%ADD174R,0.0120X0.0004*%
%ADD175R,0.0124X0.0004*%
%ADD176R,0.0128X0.0004*%
%ADD177R,0.0144X0.0004*%
%ADD178R,0.0152X0.0004*%
%ADD179R,0.0152X0.0004*%
%ADD180R,0.0160X0.0004*%
%ADD181R,0.0168X0.0004*%
%ADD182R,0.0176X0.0004*%
%ADD183R,0.0184X0.0004*%
%ADD184R,0.0192X0.0004*%
%ADD185R,0.0200X0.0004*%
%ADD186R,0.0208X0.0004*%
%ADD187R,0.0216X0.0004*%
%ADD188R,0.0216X0.0004*%
%ADD189R,0.0224X0.0004*%
%ADD190R,0.0232X0.0004*%
%ADD191R,0.0240X0.0004*%
%ADD192R,0.0248X0.0004*%
%ADD193R,0.0256X0.0004*%
%ADD194R,0.0264X0.0004*%
%ADD195R,0.0272X0.0004*%
%ADD196R,0.0280X0.0004*%
%ADD197R,0.0288X0.0004*%
%ADD198R,0.0296X0.0004*%
%ADD199R,0.0304X0.0004*%
%ADD200R,0.0320X0.0004*%
%ADD201R,0.0328X0.0004*%
%ADD202R,0.0336X0.0004*%
%ADD203R,0.0336X0.0004*%
%ADD204R,0.0200X0.0004*%
%ADD205R,0.0128X0.0004*%
%ADD206R,0.0204X0.0004*%
%ADD207R,0.0216X0.0004*%
%ADD208R,0.0228X0.0004*%
%ADD209R,0.0416X0.0004*%
%ADD210R,0.0424X0.0004*%
%ADD211R,0.0428X0.0004*%
%ADD212R,0.0304X0.0004*%
%ADD213R,0.0180X0.0004*%
%ADD214R,0.0112X0.0004*%
%ADD215R,0.0176X0.0004*%
%ADD216R,0.0112X0.0004*%
%ADD217R,0.0132X0.0004*%
%ADD218R,0.0116X0.0004*%
%ADD219R,0.0332X0.0004*%
%ADD220R,0.0336X0.0004*%
%ADD221R,0.0480X0.0004*%
%ADD222R,0.0496X0.0004*%
%ADD223R,0.0512X0.0004*%
%ADD224R,0.0544X0.0004*%
%ADD225R,0.0208X0.0004*%
%ADD226R,0.0356X0.0004*%
%ADD227R,0.0208X0.0004*%
%ADD228R,0.0364X0.0004*%
%ADD229R,0.0212X0.0004*%
%ADD230R,0.0368X0.0004*%
%ADD231R,0.0220X0.0004*%
%ADD232R,0.0600X0.0004*%
%ADD233R,0.0356X0.0004*%
%ADD234R,0.0228X0.0004*%
%ADD235R,0.0236X0.0004*%
%ADD236R,0.0360X0.0004*%
%ADD237R,0.0368X0.0004*%
%ADD238R,0.0244X0.0004*%
%ADD239R,0.0252X0.0004*%
%ADD240R,0.0376X0.0004*%
%ADD241R,0.0672X0.0004*%
%ADD242R,0.0624X0.0004*%
%ADD243R,0.0596X0.0004*%
%ADD244R,0.0552X0.0004*%
%ADD245R,0.0456X0.0004*%
%ADD246R,0.0384X0.0004*%
%ADD247R,0.0352X0.0004*%
%ADD248R,0.0188X0.0004*%
%ADD249R,0.0108X0.0004*%
%ADD250R,0.0946X0.0670*%
D10*
X003348Y000180D02*
X019490Y000180D01*
X019490Y019865D01*
X003348Y019865D01*
X003348Y000180D01*
D11*
X007456Y009591D02*
X007553Y009591D01*
X007601Y009639D01*
X007601Y009833D01*
X007553Y009881D01*
X007456Y009881D01*
X007408Y009833D01*
X007408Y009785D01*
X007456Y009736D01*
X007601Y009736D01*
X007456Y009591D02*
X007408Y009639D01*
X015224Y004532D02*
X015321Y004629D01*
X015321Y004339D01*
X015224Y004339D02*
X015418Y004339D01*
X015519Y004339D02*
X015713Y004339D01*
X015616Y004339D02*
X015616Y004629D01*
X015519Y004532D01*
X015899Y008690D02*
X015802Y008786D01*
X016092Y008786D01*
X016092Y008690D02*
X016092Y008883D01*
X016044Y008984D02*
X015850Y009178D01*
X016044Y009178D01*
X016092Y009129D01*
X016092Y009033D01*
X016044Y008984D01*
X015850Y008984D01*
X015802Y009033D01*
X015802Y009129D01*
X015850Y009178D01*
D12*
X014960Y007865D03*
X014960Y007550D03*
X014960Y007235D03*
X014960Y006920D03*
X014960Y006605D03*
X014960Y006290D03*
X014960Y005975D03*
X014960Y005660D03*
X011580Y005660D03*
X011580Y005975D03*
X011580Y006290D03*
X011580Y006605D03*
X011580Y006920D03*
X011580Y007235D03*
X011580Y007550D03*
X011580Y007865D03*
D13*
X012167Y008453D03*
X012482Y008453D03*
X012797Y008453D03*
X013112Y008453D03*
X013427Y008453D03*
X013742Y008453D03*
X014057Y008453D03*
X014372Y008453D03*
X014372Y005073D03*
X014057Y005073D03*
X013742Y005073D03*
X013427Y005073D03*
X013112Y005073D03*
X012797Y005073D03*
X012482Y005073D03*
X012167Y005073D03*
D14*
X010388Y007507D03*
X010388Y008507D03*
X009388Y008507D03*
X009388Y007507D03*
X008388Y007507D03*
X008388Y008507D03*
D15*
X006331Y010271D03*
X006498Y018684D03*
X008466Y018684D03*
X010435Y018684D03*
X012403Y018684D03*
X014372Y018684D03*
X016340Y018684D03*
X016340Y001361D03*
X014372Y001361D03*
X012403Y001361D03*
X010435Y001361D03*
X008466Y001361D03*
X006498Y001361D03*
D16*
X014750Y003741D03*
D17*
X007489Y007344D03*
X007489Y008171D03*
D18*
X007701Y009498D03*
X008449Y009498D03*
D19*
X003919Y000735D03*
X017919Y000735D03*
D20*
X018919Y000735D03*
X018919Y001735D03*
X017919Y001735D03*
X017919Y002735D03*
X018919Y002735D03*
X018919Y003735D03*
X017919Y003735D03*
X017919Y004735D03*
X018919Y004735D03*
X018919Y005735D03*
X017919Y005735D03*
X017919Y006735D03*
X018919Y006735D03*
X018919Y007735D03*
X017919Y007735D03*
X017919Y008735D03*
X018919Y008735D03*
X018919Y009735D03*
X017919Y009735D03*
X017919Y010735D03*
X018919Y010735D03*
X018919Y011735D03*
X017919Y011735D03*
X017919Y012735D03*
X018919Y012735D03*
X018919Y013735D03*
X017919Y013735D03*
X017919Y014735D03*
X018919Y014735D03*
X018919Y015735D03*
X017919Y015735D03*
X017919Y016735D03*
X018919Y016735D03*
X018919Y017735D03*
X017919Y017735D03*
X004919Y017735D03*
X003919Y017735D03*
X003919Y016735D03*
X004919Y016735D03*
X004919Y015735D03*
X003919Y015735D03*
X003919Y014735D03*
X004919Y014735D03*
X004919Y013735D03*
X003919Y013735D03*
X003919Y012735D03*
X004919Y012735D03*
X004919Y011735D03*
X003919Y011735D03*
X003919Y010735D03*
X004919Y010735D03*
X004919Y009735D03*
X003919Y009735D03*
X003919Y008735D03*
X004919Y008735D03*
X004919Y007735D03*
X003919Y007735D03*
X003919Y006735D03*
X004919Y006735D03*
X004919Y005735D03*
X003919Y005735D03*
X003919Y004735D03*
X004919Y004735D03*
X004919Y003735D03*
X003919Y003735D03*
X003919Y002735D03*
X004919Y002735D03*
X004919Y001735D03*
X003919Y001735D03*
X004919Y000735D03*
D21*
X015015Y009518D03*
D22*
X015003Y004866D03*
D23*
X013289Y011273D03*
X013289Y011773D03*
X013289Y012273D03*
X013289Y012773D03*
X013289Y013273D03*
X013289Y013773D03*
X013289Y014273D03*
X013289Y014773D03*
X013289Y015273D03*
X013289Y015773D03*
X009667Y015773D03*
X009667Y015273D03*
X009667Y014773D03*
X009667Y014273D03*
X009667Y013773D03*
X009667Y013273D03*
X009667Y012773D03*
X009667Y012273D03*
X009667Y011773D03*
X009667Y011273D03*
D24*
X008427Y011232D03*
X007679Y011232D03*
D25*
X007568Y012866D03*
X006465Y012866D03*
D26*
X006663Y011410D03*
X006063Y011410D03*
X016129Y011693D03*
X016729Y011693D03*
X016838Y008070D03*
X016238Y008070D03*
X016248Y007230D03*
X016848Y007230D03*
D27*
X016548Y007230D03*
X016538Y008070D03*
X016429Y011693D03*
X006363Y011410D03*
D28*
X008951Y006609D03*
X008951Y005271D03*
X010526Y005271D03*
X010526Y006609D03*
D29*
X006548Y007246D03*
X006548Y007994D03*
D30*
X007371Y010320D02*
X007886Y010320D01*
X007886Y015520D02*
X007371Y015520D01*
X014671Y015520D02*
X015186Y015520D01*
X015186Y010320D02*
X014671Y010320D01*
D31*
X016388Y014279D03*
X016388Y016011D03*
X007904Y014335D03*
X006172Y014335D03*
D32*
X006158Y008990D02*
X006758Y008990D01*
X006758Y005990D02*
X006158Y005990D01*
X006158Y004990D02*
X006758Y004990D01*
X006758Y003990D02*
X006158Y003990D01*
X015993Y004010D02*
X016593Y004010D01*
X016593Y005010D02*
X015993Y005010D01*
X015993Y006010D02*
X016593Y006010D01*
X016593Y009010D02*
X015993Y009010D01*
D33*
X018228Y018382D03*
X018232Y018894D03*
X018228Y019194D03*
X018228Y019198D03*
D34*
X018228Y018386D03*
D35*
X018228Y018390D03*
D36*
X018228Y018394D03*
X018204Y018878D03*
D37*
X018228Y019258D03*
X018228Y019262D03*
X018228Y019518D03*
X018228Y018398D03*
D38*
X018228Y018402D03*
D39*
X018228Y018406D03*
X018228Y019278D03*
X018228Y019514D03*
D40*
X018228Y018410D03*
D41*
X018228Y018414D03*
D42*
X018228Y018418D03*
D43*
X018228Y018422D03*
X018228Y019506D03*
D44*
X018228Y019314D03*
X018228Y018426D03*
D45*
X018228Y018430D03*
D46*
X018228Y018434D03*
X018228Y019326D03*
D47*
X018228Y019498D03*
X018228Y018438D03*
D48*
X018228Y018442D03*
X018228Y019334D03*
X018228Y019338D03*
D49*
X018228Y019342D03*
X018228Y018446D03*
D50*
X018228Y018450D03*
D51*
X018228Y018454D03*
X018228Y019346D03*
X018228Y019494D03*
D52*
X018228Y019354D03*
X018228Y018458D03*
D53*
X018228Y018462D03*
X018228Y019358D03*
D54*
X018228Y019362D03*
X018228Y018466D03*
D55*
X018228Y018470D03*
D56*
X018228Y018474D03*
X018228Y019366D03*
X018228Y019486D03*
D57*
X018228Y018482D03*
X018228Y018478D03*
D58*
X018228Y018486D03*
X018228Y019482D03*
D59*
X018228Y018490D03*
D60*
X018228Y018494D03*
D61*
X018228Y018498D03*
X018228Y018502D03*
D62*
X018228Y018506D03*
X018228Y019474D03*
D63*
X018228Y018510D03*
D64*
X018228Y018514D03*
X018228Y018518D03*
D65*
X018228Y018522D03*
X018228Y018526D03*
D66*
X018228Y018530D03*
D67*
X018228Y018534D03*
X018228Y019466D03*
D68*
X018228Y018542D03*
X018228Y018538D03*
D69*
X018228Y018546D03*
X018228Y018554D03*
X018228Y019462D03*
D70*
X018228Y018550D03*
D71*
X018228Y018558D03*
X018228Y018562D03*
X018228Y019426D03*
X018228Y019458D03*
D72*
X018228Y019454D03*
X018228Y019434D03*
X018228Y018566D03*
D73*
X018228Y018570D03*
X018228Y019430D03*
D74*
X018228Y019438D03*
X018232Y018806D03*
X018228Y018582D03*
X018228Y018578D03*
X018228Y018574D03*
D75*
X018228Y018586D03*
X018228Y018802D03*
X018228Y019442D03*
X018228Y019446D03*
D76*
X018228Y018590D03*
D77*
X018228Y018594D03*
X018228Y018598D03*
X018228Y018798D03*
D78*
X018228Y018606D03*
X018228Y018602D03*
D79*
X018230Y018610D03*
D80*
X018230Y018614D03*
X018230Y018618D03*
D81*
X018230Y018622D03*
X018230Y018626D03*
D82*
X018228Y018630D03*
D83*
X018228Y018634D03*
D84*
X018226Y018638D03*
D85*
X018228Y018642D03*
X018228Y018734D03*
D86*
X018228Y018646D03*
D87*
X018228Y018650D03*
D88*
X018228Y018654D03*
X018228Y018722D03*
D89*
X018228Y018718D03*
X018228Y018658D03*
D90*
X018228Y018662D03*
X018228Y018714D03*
D91*
X018226Y018666D03*
D92*
X018228Y018670D03*
D93*
X018228Y018674D03*
X018228Y018702D03*
X018228Y018706D03*
D94*
X018226Y018698D03*
X018226Y018682D03*
X018226Y018678D03*
D95*
X018228Y018686D03*
X018228Y018694D03*
D96*
X018228Y018690D03*
D97*
X018226Y018710D03*
D98*
X018228Y018726D03*
D99*
X018228Y018730D03*
D100*
X018218Y018766D03*
X018222Y018778D03*
D101*
X018220Y018770D03*
D102*
X018220Y018774D03*
D103*
X018222Y018782D03*
X018222Y018786D03*
D104*
X018224Y018790D03*
D105*
X018226Y018794D03*
D106*
X018234Y018810D03*
D107*
X018234Y018814D03*
X018234Y018818D03*
D108*
X018334Y018822D03*
D109*
X018002Y018838D03*
X017998Y018826D03*
X017998Y018822D03*
D110*
X018336Y018826D03*
D111*
X018336Y018830D03*
D112*
X018000Y018830D03*
D113*
X018336Y018834D03*
D114*
X018000Y018834D03*
D115*
X018340Y018838D03*
D116*
X018342Y018842D03*
D117*
X018040Y018846D03*
X018036Y018842D03*
X018120Y019218D03*
X018116Y019222D03*
D118*
X017930Y018842D03*
D119*
X018344Y018846D03*
X018228Y019254D03*
D120*
X018228Y018994D03*
X017912Y018846D03*
D121*
X018346Y018850D03*
D122*
X018046Y018850D03*
X018390Y019290D03*
D123*
X018340Y019378D03*
X018356Y018854D03*
D124*
X018228Y018922D03*
X018228Y019078D03*
X018108Y019238D03*
X018048Y018854D03*
D125*
X018362Y018858D03*
D126*
X018106Y019242D03*
X018054Y018858D03*
D127*
X018360Y018862D03*
X018296Y019298D03*
D128*
X018060Y018862D03*
D129*
X018358Y018866D03*
D130*
X018230Y018918D03*
X018066Y018866D03*
D131*
X018352Y018870D03*
X018228Y019530D03*
D132*
X018110Y019250D03*
X018074Y018870D03*
D133*
X018346Y018874D03*
D134*
X018092Y018874D03*
D135*
X018228Y019038D03*
X018228Y019042D03*
X018456Y018878D03*
D136*
X018454Y018882D03*
X018354Y018906D03*
D137*
X018206Y018882D03*
D138*
X018210Y018886D03*
D139*
X018214Y018890D03*
X018334Y019370D03*
D140*
X018062Y018894D03*
D141*
X018234Y018898D03*
D142*
X018354Y018902D03*
D143*
X018200Y018902D03*
X018228Y019146D03*
X018428Y019414D03*
X018228Y019538D03*
D144*
X018416Y019394D03*
X018420Y019398D03*
X018200Y018906D03*
D145*
X018358Y018910D03*
D146*
X018230Y018910D03*
D147*
X018116Y018910D03*
D148*
X018358Y018914D03*
D149*
X018230Y018914D03*
D150*
X018228Y019018D03*
X018112Y018914D03*
D151*
X018360Y018918D03*
D152*
X018230Y018942D03*
X018110Y018918D03*
D153*
X018104Y018926D03*
X018360Y018922D03*
D154*
X018106Y018922D03*
D155*
X018362Y018926D03*
D156*
X018230Y018926D03*
X018386Y019282D03*
X018054Y019306D03*
D157*
X018230Y018930D03*
D158*
X018100Y018930D03*
D159*
X018230Y018934D03*
D160*
X018230Y018938D03*
D161*
X018228Y018990D03*
D162*
X018228Y018998D03*
D163*
X018228Y019002D03*
D164*
X018228Y019006D03*
D165*
X018228Y019010D03*
D166*
X018228Y019014D03*
D167*
X018228Y019022D03*
X018228Y019026D03*
D168*
X018228Y019030D03*
D169*
X018228Y019034D03*
D170*
X018228Y019046D03*
D171*
X018228Y019050D03*
D172*
X018228Y019054D03*
X018228Y019058D03*
D173*
X018228Y019062D03*
D174*
X018228Y019066D03*
X018052Y019302D03*
D175*
X018230Y019070D03*
D176*
X018228Y019074D03*
X018112Y019226D03*
X018108Y019234D03*
X018388Y019286D03*
D177*
X018228Y019082D03*
X018108Y019246D03*
D178*
X018228Y019086D03*
D179*
X018228Y019090D03*
D180*
X018228Y019094D03*
D181*
X018228Y019098D03*
X018228Y019102D03*
D182*
X018228Y019106D03*
D183*
X018228Y019110D03*
D184*
X018228Y019114D03*
X018228Y019118D03*
D185*
X018228Y019122D03*
X018300Y019218D03*
X018304Y019222D03*
X018308Y019226D03*
D186*
X018312Y019238D03*
X018228Y019126D03*
D187*
X018228Y019130D03*
D188*
X018228Y019134D03*
D189*
X018228Y019138D03*
D190*
X018228Y019142D03*
X018424Y019406D03*
D191*
X018228Y019150D03*
D192*
X018228Y019154D03*
D193*
X018228Y019158D03*
D194*
X018228Y019162D03*
X018228Y019166D03*
D195*
X018228Y019170D03*
D196*
X018228Y019174D03*
X018228Y019534D03*
D197*
X018228Y019182D03*
X018228Y019178D03*
D198*
X018228Y019186D03*
D199*
X018228Y019190D03*
D200*
X018228Y019202D03*
D201*
X018228Y019206D03*
D202*
X018228Y019210D03*
D203*
X018228Y019214D03*
D204*
X018308Y019230D03*
D205*
X018112Y019230D03*
D206*
X018042Y019374D03*
X018310Y019234D03*
D207*
X018312Y019242D03*
X018312Y019246D03*
D208*
X018310Y019250D03*
D209*
X018228Y019266D03*
D210*
X018228Y019270D03*
D211*
X018226Y019274D03*
D212*
X018160Y019282D03*
D213*
X018218Y019286D03*
X018222Y019294D03*
D214*
X018060Y019286D03*
X018056Y019294D03*
D215*
X018220Y019290D03*
D216*
X018056Y019290D03*
D217*
X018390Y019294D03*
D218*
X018054Y019298D03*
D219*
X018298Y019302D03*
D220*
X018296Y019306D03*
D221*
X018228Y019310D03*
D222*
X018228Y019318D03*
X018228Y019322D03*
X018228Y019502D03*
D223*
X018228Y019330D03*
D224*
X018228Y019350D03*
D225*
X018048Y019370D03*
D226*
X018098Y019398D03*
X018098Y019402D03*
X018338Y019374D03*
D227*
X018040Y019378D03*
D228*
X018342Y019382D03*
D229*
X018038Y019382D03*
D230*
X018340Y019386D03*
D231*
X018042Y019386D03*
D232*
X018228Y019390D03*
D233*
X018102Y019394D03*
X018094Y019406D03*
D234*
X018422Y019402D03*
D235*
X018426Y019410D03*
D236*
X018092Y019410D03*
D237*
X018092Y019414D03*
X018092Y019418D03*
D238*
X018426Y019418D03*
D239*
X018426Y019422D03*
D240*
X018092Y019422D03*
D241*
X018228Y019450D03*
D242*
X018228Y019470D03*
D243*
X018226Y019478D03*
D244*
X018228Y019490D03*
D245*
X018228Y019510D03*
D246*
X018228Y019522D03*
D247*
X018228Y019526D03*
D248*
X018230Y019542D03*
D249*
X018226Y019546D03*
D250*
X010568Y005945D03*
X008088Y005945D03*
M02*
