G75*
%MOIN*%
%OFA0B0*%
%FSLAX24Y24*%
%IPPOS*%
%LPD*%
%AMOC8*
5,1,8,0,0,1.08239X$1,22.5*
%
%ADD10C,0.0160*%
%ADD11R,0.0500X0.0220*%
%ADD12R,0.0220X0.0500*%
%ADD13OC8,0.0600*%
%ADD14OC8,0.1250*%
%ADD15OC8,0.0630*%
%ADD16R,0.0472X0.0472*%
%ADD17R,0.0512X0.0630*%
%ADD18C,0.0560*%
%ADD19OC8,0.0560*%
%ADD20R,0.1000X0.0500*%
%ADD21R,0.0500X0.1000*%
%ADD22R,0.0866X0.0236*%
%ADD23R,0.0512X0.0591*%
%ADD24R,0.0630X0.1063*%
%ADD25R,0.0460X0.0630*%
%ADD26R,0.0787X0.0433*%
%ADD27R,0.0591X0.0512*%
%ADD28C,0.0515*%
%ADD29R,0.0945X0.0945*%
%ADD30C,0.0600*%
%ADD31R,0.0312X0.0004*%
%ADD32R,0.0344X0.0004*%
%ADD33R,0.0368X0.0004*%
%ADD34R,0.0392X0.0004*%
%ADD35R,0.0408X0.0004*%
%ADD36R,0.0424X0.0004*%
%ADD37R,0.0432X0.0004*%
%ADD38R,0.0448X0.0004*%
%ADD39R,0.0456X0.0004*%
%ADD40R,0.0472X0.0004*%
%ADD41R,0.0480X0.0004*%
%ADD42R,0.0488X0.0004*%
%ADD43R,0.0496X0.0004*%
%ADD44R,0.0504X0.0004*%
%ADD45R,0.0512X0.0004*%
%ADD46R,0.0520X0.0004*%
%ADD47R,0.0528X0.0004*%
%ADD48R,0.0536X0.0004*%
%ADD49R,0.0536X0.0004*%
%ADD50R,0.0544X0.0004*%
%ADD51R,0.0552X0.0004*%
%ADD52R,0.0560X0.0004*%
%ADD53R,0.0560X0.0004*%
%ADD54R,0.0568X0.0004*%
%ADD55R,0.0576X0.0004*%
%ADD56R,0.0584X0.0004*%
%ADD57R,0.0592X0.0004*%
%ADD58R,0.0592X0.0004*%
%ADD59R,0.0600X0.0004*%
%ADD60R,0.0608X0.0004*%
%ADD61R,0.0608X0.0004*%
%ADD62R,0.0616X0.0004*%
%ADD63R,0.0624X0.0004*%
%ADD64R,0.0632X0.0004*%
%ADD65R,0.0632X0.0004*%
%ADD66R,0.0640X0.0004*%
%ADD67R,0.0648X0.0004*%
%ADD68R,0.0648X0.0004*%
%ADD69R,0.0656X0.0004*%
%ADD70R,0.0664X0.0004*%
%ADD71R,0.0664X0.0004*%
%ADD72R,0.0672X0.0004*%
%ADD73R,0.0680X0.0004*%
%ADD74R,0.0680X0.0004*%
%ADD75R,0.0688X0.0004*%
%ADD76R,0.0696X0.0004*%
%ADD77R,0.0700X0.0004*%
%ADD78R,0.0708X0.0004*%
%ADD79R,0.0716X0.0004*%
%ADD80R,0.0720X0.0004*%
%ADD81R,0.0720X0.0004*%
%ADD82R,0.0724X0.0004*%
%ADD83R,0.0808X0.0004*%
%ADD84R,0.0824X0.0004*%
%ADD85R,0.0832X0.0004*%
%ADD86R,0.0840X0.0004*%
%ADD87R,0.0848X0.0004*%
%ADD88R,0.0856X0.0004*%
%ADD89R,0.0860X0.0004*%
%ADD90R,0.0864X0.0004*%
%ADD91R,0.0864X0.0004*%
%ADD92R,0.0868X0.0004*%
%ADD93R,0.0872X0.0004*%
%ADD94R,0.0872X0.0004*%
%ADD95R,0.0860X0.0004*%
%ADD96R,0.0832X0.0004*%
%ADD97R,0.0824X0.0004*%
%ADD98R,0.0708X0.0004*%
%ADD99R,0.0712X0.0004*%
%ADD100R,0.0712X0.0004*%
%ADD101R,0.0700X0.0004*%
%ADD102R,0.0696X0.0004*%
%ADD103R,0.0692X0.0004*%
%ADD104R,0.0668X0.0004*%
%ADD105R,0.0660X0.0004*%
%ADD106R,0.0452X0.0004*%
%ADD107R,0.0188X0.0004*%
%ADD108R,0.0448X0.0004*%
%ADD109R,0.0440X0.0004*%
%ADD110R,0.0184X0.0004*%
%ADD111R,0.0432X0.0004*%
%ADD112R,0.0184X0.0004*%
%ADD113R,0.0424X0.0004*%
%ADD114R,0.0412X0.0004*%
%ADD115R,0.0128X0.0004*%
%ADD116R,0.0044X0.0004*%
%ADD117R,0.0400X0.0004*%
%ADD118R,0.0008X0.0004*%
%ADD119R,0.0388X0.0004*%
%ADD120R,0.0132X0.0004*%
%ADD121R,0.0360X0.0004*%
%ADD122R,0.0136X0.0004*%
%ADD123R,0.0340X0.0004*%
%ADD124R,0.0140X0.0004*%
%ADD125R,0.0328X0.0004*%
%ADD126R,0.0144X0.0004*%
%ADD127R,0.0324X0.0004*%
%ADD128R,0.0148X0.0004*%
%ADD129R,0.0320X0.0004*%
%ADD130R,0.0156X0.0004*%
%ADD131R,0.0316X0.0004*%
%ADD132R,0.0176X0.0004*%
%ADD133R,0.0080X0.0004*%
%ADD134R,0.0052X0.0004*%
%ADD135R,0.0380X0.0004*%
%ADD136R,0.0372X0.0004*%
%ADD137R,0.0356X0.0004*%
%ADD138R,0.0004X0.0004*%
%ADD139R,0.0308X0.0004*%
%ADD140R,0.0060X0.0004*%
%ADD141R,0.0240X0.0004*%
%ADD142R,0.0232X0.0004*%
%ADD143R,0.0044X0.0004*%
%ADD144R,0.0164X0.0004*%
%ADD145R,0.0056X0.0004*%
%ADD146R,0.0036X0.0004*%
%ADD147R,0.0156X0.0004*%
%ADD148R,0.0048X0.0004*%
%ADD149R,0.0024X0.0004*%
%ADD150R,0.0036X0.0004*%
%ADD151R,0.0016X0.0004*%
%ADD152R,0.0028X0.0004*%
%ADD153R,0.0012X0.0004*%
%ADD154R,0.0124X0.0004*%
%ADD155R,0.0108X0.0004*%
%ADD156R,0.0008X0.0004*%
%ADD157R,0.0092X0.0004*%
%ADD158R,0.0068X0.0004*%
%ADD159R,0.0008X0.0004*%
%ADD160R,0.0016X0.0004*%
%ADD161R,0.0024X0.0004*%
%ADD162R,0.0032X0.0004*%
%ADD163R,0.0032X0.0004*%
%ADD164R,0.0040X0.0004*%
%ADD165R,0.0056X0.0004*%
%ADD166R,0.0064X0.0004*%
%ADD167R,0.0072X0.0004*%
%ADD168R,0.0088X0.0004*%
%ADD169R,0.0096X0.0004*%
%ADD170R,0.0104X0.0004*%
%ADD171R,0.0112X0.0004*%
%ADD172R,0.0120X0.0004*%
%ADD173R,0.0124X0.0004*%
%ADD174R,0.0128X0.0004*%
%ADD175R,0.0144X0.0004*%
%ADD176R,0.0152X0.0004*%
%ADD177R,0.0152X0.0004*%
%ADD178R,0.0160X0.0004*%
%ADD179R,0.0168X0.0004*%
%ADD180R,0.0176X0.0004*%
%ADD181R,0.0184X0.0004*%
%ADD182R,0.0192X0.0004*%
%ADD183R,0.0200X0.0004*%
%ADD184R,0.0208X0.0004*%
%ADD185R,0.0216X0.0004*%
%ADD186R,0.0216X0.0004*%
%ADD187R,0.0224X0.0004*%
%ADD188R,0.0232X0.0004*%
%ADD189R,0.0240X0.0004*%
%ADD190R,0.0248X0.0004*%
%ADD191R,0.0256X0.0004*%
%ADD192R,0.0264X0.0004*%
%ADD193R,0.0272X0.0004*%
%ADD194R,0.0280X0.0004*%
%ADD195R,0.0288X0.0004*%
%ADD196R,0.0296X0.0004*%
%ADD197R,0.0304X0.0004*%
%ADD198R,0.0320X0.0004*%
%ADD199R,0.0328X0.0004*%
%ADD200R,0.0336X0.0004*%
%ADD201R,0.0336X0.0004*%
%ADD202R,0.0200X0.0004*%
%ADD203R,0.0128X0.0004*%
%ADD204R,0.0204X0.0004*%
%ADD205R,0.0216X0.0004*%
%ADD206R,0.0228X0.0004*%
%ADD207R,0.0416X0.0004*%
%ADD208R,0.0424X0.0004*%
%ADD209R,0.0428X0.0004*%
%ADD210R,0.0304X0.0004*%
%ADD211R,0.0180X0.0004*%
%ADD212R,0.0112X0.0004*%
%ADD213R,0.0176X0.0004*%
%ADD214R,0.0112X0.0004*%
%ADD215R,0.0132X0.0004*%
%ADD216R,0.0116X0.0004*%
%ADD217R,0.0332X0.0004*%
%ADD218R,0.0336X0.0004*%
%ADD219R,0.0480X0.0004*%
%ADD220R,0.0496X0.0004*%
%ADD221R,0.0512X0.0004*%
%ADD222R,0.0544X0.0004*%
%ADD223R,0.0208X0.0004*%
%ADD224R,0.0356X0.0004*%
%ADD225R,0.0208X0.0004*%
%ADD226R,0.0364X0.0004*%
%ADD227R,0.0212X0.0004*%
%ADD228R,0.0368X0.0004*%
%ADD229R,0.0220X0.0004*%
%ADD230R,0.0600X0.0004*%
%ADD231R,0.0356X0.0004*%
%ADD232R,0.0228X0.0004*%
%ADD233R,0.0236X0.0004*%
%ADD234R,0.0360X0.0004*%
%ADD235R,0.0368X0.0004*%
%ADD236R,0.0244X0.0004*%
%ADD237R,0.0252X0.0004*%
%ADD238R,0.0376X0.0004*%
%ADD239R,0.0672X0.0004*%
%ADD240R,0.0624X0.0004*%
%ADD241R,0.0596X0.0004*%
%ADD242R,0.0552X0.0004*%
%ADD243R,0.0456X0.0004*%
%ADD244R,0.0384X0.0004*%
%ADD245R,0.0352X0.0004*%
%ADD246R,0.0188X0.0004*%
%ADD247R,0.0108X0.0004*%
%ADD248R,0.0906X0.0630*%
%ADD249C,0.0356*%
%ADD250C,0.0100*%
%ADD251C,0.0240*%
%ADD252C,0.0320*%
%ADD253C,0.0120*%
%ADD254C,0.0317*%
D10*
X003348Y000180D02*
X019490Y000180D01*
X019490Y019865D01*
X003348Y019865D01*
X003348Y000180D01*
X003628Y001123D02*
X003628Y001347D01*
X003720Y001255D01*
X004118Y001255D01*
X004399Y001536D01*
X004399Y001934D01*
X004118Y002215D01*
X003720Y002215D01*
X003628Y002123D01*
X003628Y002347D01*
X003720Y002255D01*
X004118Y002255D01*
X004186Y002324D01*
X004211Y002263D01*
X004346Y002128D01*
X004417Y002058D01*
X004509Y002020D01*
X004525Y002020D01*
X004439Y001934D01*
X004439Y001536D01*
X004720Y001255D01*
X005118Y001255D01*
X005399Y001536D01*
X005399Y001934D01*
X005313Y002020D01*
X005990Y002020D01*
X005673Y001703D01*
X005673Y001019D01*
X006156Y000536D01*
X006840Y000536D01*
X007323Y001019D01*
X007323Y001703D01*
X007006Y002020D01*
X007959Y002020D01*
X007641Y001703D01*
X007641Y001019D01*
X008125Y000536D01*
X008808Y000536D01*
X009291Y001019D01*
X009291Y001703D01*
X008974Y002020D01*
X009927Y002020D01*
X009610Y001703D01*
X009610Y001019D01*
X010093Y000536D01*
X010777Y000536D01*
X011260Y001019D01*
X011260Y001703D01*
X010943Y002020D01*
X011155Y002020D01*
X011210Y001965D01*
X011210Y001865D01*
X011268Y001726D01*
X011374Y001619D01*
X011513Y001562D01*
X011578Y001562D01*
X011578Y001019D01*
X012062Y000536D01*
X012745Y000536D01*
X013228Y001019D01*
X013228Y001703D01*
X012745Y002186D01*
X012062Y002186D01*
X011944Y002069D01*
X011909Y002154D01*
X011803Y002261D01*
X011792Y002265D01*
X014123Y002265D01*
X014123Y002186D01*
X014030Y002186D01*
X013547Y001703D01*
X013547Y001019D01*
X014030Y000536D01*
X014714Y000536D01*
X015197Y001019D01*
X015197Y001703D01*
X014965Y001935D01*
X015776Y001935D01*
X015535Y001695D01*
X015535Y001411D01*
X016290Y001411D01*
X016290Y001311D01*
X015535Y001311D01*
X015535Y001028D01*
X016007Y000556D01*
X016290Y000556D01*
X016290Y001311D01*
X016390Y001311D01*
X016390Y000556D01*
X016674Y000556D01*
X017145Y001028D01*
X017145Y001311D01*
X016390Y001311D01*
X016390Y001411D01*
X017145Y001411D01*
X017145Y001695D01*
X016785Y002055D01*
X017439Y002709D01*
X017439Y002536D01*
X017720Y002255D01*
X018118Y002255D01*
X018399Y002536D01*
X018399Y002932D01*
X018439Y002932D01*
X018439Y002536D01*
X018720Y002255D01*
X019118Y002255D01*
X019210Y002347D01*
X019210Y002123D01*
X019118Y002215D01*
X018720Y002215D01*
X018439Y001934D01*
X018439Y001536D01*
X018720Y001255D01*
X019118Y001255D01*
X019210Y001347D01*
X019210Y001123D01*
X019118Y001215D01*
X018720Y001215D01*
X018439Y000934D01*
X018439Y000536D01*
X018515Y000460D01*
X018323Y000460D01*
X018326Y000463D01*
X018399Y000640D01*
X018399Y000831D01*
X018326Y001007D01*
X018191Y001142D01*
X018015Y001215D01*
X017824Y001215D01*
X017647Y001142D01*
X017512Y001007D01*
X017439Y000831D01*
X017439Y000640D01*
X017512Y000463D01*
X017515Y000460D01*
X005323Y000460D01*
X005399Y000536D01*
X005399Y000934D01*
X005118Y001215D01*
X004720Y001215D01*
X004439Y000934D01*
X004439Y000536D01*
X004515Y000460D01*
X004323Y000460D01*
X004326Y000463D01*
X004399Y000640D01*
X004399Y000831D01*
X004326Y001007D01*
X004191Y001142D01*
X004015Y001215D01*
X003824Y001215D01*
X003647Y001142D01*
X003628Y001123D01*
X003628Y001131D02*
X003636Y001131D01*
X003628Y001290D02*
X003686Y001290D01*
X004152Y001290D02*
X004686Y001290D01*
X004636Y001131D02*
X004202Y001131D01*
X004340Y000973D02*
X004478Y000973D01*
X004439Y000814D02*
X004399Y000814D01*
X004399Y000656D02*
X004439Y000656D01*
X004478Y000497D02*
X004340Y000497D01*
X005202Y001131D02*
X005673Y001131D01*
X005673Y001290D02*
X005152Y001290D01*
X005311Y001448D02*
X005673Y001448D01*
X005673Y001607D02*
X005399Y001607D01*
X005399Y001765D02*
X005735Y001765D01*
X005894Y001924D02*
X005399Y001924D01*
X005383Y002520D02*
X005399Y002536D01*
X005399Y002897D01*
X005470Y002897D01*
X005609Y002955D01*
X005644Y002990D01*
X007078Y002990D01*
X007170Y003028D01*
X007687Y003545D01*
X007787Y003545D01*
X007744Y003502D01*
X007687Y003363D01*
X007687Y003213D01*
X007744Y003074D01*
X007851Y002967D01*
X007990Y002910D01*
X008140Y002910D01*
X008279Y002967D01*
X008330Y003019D01*
X008285Y002910D01*
X008285Y002760D01*
X008343Y002621D01*
X008444Y002520D01*
X005383Y002520D01*
X005399Y002558D02*
X008406Y002558D01*
X008303Y002716D02*
X005399Y002716D01*
X005399Y002875D02*
X008285Y002875D01*
X007785Y003033D02*
X007175Y003033D01*
X007333Y003192D02*
X007696Y003192D01*
X007687Y003350D02*
X007492Y003350D01*
X007650Y003509D02*
X007751Y003509D01*
X008883Y002520D02*
X008948Y002585D01*
X009258Y002585D01*
X009313Y002608D01*
X009343Y002536D01*
X009359Y002520D01*
X008883Y002520D01*
X008921Y002558D02*
X009334Y002558D01*
X009071Y001924D02*
X009831Y001924D01*
X009672Y001765D02*
X009229Y001765D01*
X009291Y001607D02*
X009610Y001607D01*
X009610Y001448D02*
X009291Y001448D01*
X009291Y001290D02*
X009610Y001290D01*
X009610Y001131D02*
X009291Y001131D01*
X009245Y000973D02*
X009657Y000973D01*
X009815Y000814D02*
X009086Y000814D01*
X008928Y000656D02*
X009974Y000656D01*
X010896Y000656D02*
X011942Y000656D01*
X011784Y000814D02*
X011055Y000814D01*
X011213Y000973D02*
X011625Y000973D01*
X011578Y001131D02*
X011260Y001131D01*
X011260Y001290D02*
X011578Y001290D01*
X011578Y001448D02*
X011260Y001448D01*
X011260Y001607D02*
X011405Y001607D01*
X011252Y001765D02*
X011198Y001765D01*
X011210Y001924D02*
X011039Y001924D01*
X011823Y002241D02*
X014123Y002241D01*
X013926Y002082D02*
X012849Y002082D01*
X013008Y001924D02*
X013768Y001924D01*
X013609Y001765D02*
X013166Y001765D01*
X013228Y001607D02*
X013547Y001607D01*
X013547Y001448D02*
X013228Y001448D01*
X013228Y001290D02*
X013547Y001290D01*
X013547Y001131D02*
X013228Y001131D01*
X013182Y000973D02*
X013594Y000973D01*
X013752Y000814D02*
X013023Y000814D01*
X012865Y000656D02*
X013911Y000656D01*
X014833Y000656D02*
X015908Y000656D01*
X015749Y000814D02*
X014992Y000814D01*
X015150Y000973D02*
X015591Y000973D01*
X015535Y001131D02*
X015197Y001131D01*
X015197Y001290D02*
X015535Y001290D01*
X015535Y001448D02*
X015197Y001448D01*
X015197Y001607D02*
X015535Y001607D01*
X015606Y001765D02*
X015135Y001765D01*
X014976Y001924D02*
X015764Y001924D01*
X016290Y001290D02*
X016390Y001290D01*
X016390Y001131D02*
X016290Y001131D01*
X016290Y000973D02*
X016390Y000973D01*
X016390Y000814D02*
X016290Y000814D01*
X016290Y000656D02*
X016390Y000656D01*
X016773Y000656D02*
X017439Y000656D01*
X017439Y000814D02*
X016932Y000814D01*
X017090Y000973D02*
X017498Y000973D01*
X017636Y001131D02*
X017145Y001131D01*
X017145Y001290D02*
X017686Y001290D01*
X017720Y001255D02*
X017439Y001536D01*
X017439Y001934D01*
X017720Y002215D01*
X018118Y002215D01*
X018399Y001934D01*
X018399Y001536D01*
X018118Y001255D01*
X017720Y001255D01*
X017527Y001448D02*
X017145Y001448D01*
X017145Y001607D02*
X017439Y001607D01*
X017439Y001765D02*
X017075Y001765D01*
X016916Y001924D02*
X017439Y001924D01*
X017587Y002082D02*
X016813Y002082D01*
X016971Y002241D02*
X019210Y002241D01*
X018587Y002082D02*
X018251Y002082D01*
X018399Y001924D02*
X018439Y001924D01*
X018439Y001765D02*
X018399Y001765D01*
X018399Y001607D02*
X018439Y001607D01*
X018527Y001448D02*
X018311Y001448D01*
X018152Y001290D02*
X018686Y001290D01*
X018636Y001131D02*
X018202Y001131D01*
X018340Y000973D02*
X018478Y000973D01*
X018439Y000814D02*
X018399Y000814D01*
X018399Y000656D02*
X018439Y000656D01*
X018478Y000497D02*
X018340Y000497D01*
X017498Y000497D02*
X005360Y000497D01*
X005399Y000656D02*
X006037Y000656D01*
X005878Y000814D02*
X005399Y000814D01*
X005361Y000973D02*
X005720Y000973D01*
X004527Y001448D02*
X004311Y001448D01*
X004399Y001607D02*
X004439Y001607D01*
X004439Y001765D02*
X004399Y001765D01*
X004399Y001924D02*
X004439Y001924D01*
X004393Y002082D02*
X004251Y002082D01*
X004234Y002241D02*
X003628Y002241D01*
X003628Y003123D02*
X003628Y003347D01*
X003720Y003255D01*
X004118Y003255D01*
X004173Y003310D01*
X004173Y003160D01*
X004118Y003215D01*
X003720Y003215D01*
X003628Y003123D01*
X003628Y003192D02*
X003697Y003192D01*
X004142Y003192D02*
X004173Y003192D01*
X004673Y003192D02*
X004697Y003192D01*
X004720Y003215D02*
X004673Y003168D01*
X004673Y003302D01*
X004720Y003255D01*
X005017Y003255D01*
X005017Y003215D01*
X004720Y003215D01*
X004673Y004168D02*
X004673Y004302D01*
X004720Y004255D01*
X005118Y004255D01*
X005399Y004536D01*
X005399Y004934D01*
X005118Y005215D01*
X004720Y005215D01*
X004673Y005168D01*
X004673Y005302D01*
X004720Y005255D01*
X005118Y005255D01*
X005399Y005536D01*
X005399Y005934D01*
X005118Y006215D01*
X004720Y006215D01*
X004673Y006168D01*
X004673Y006302D01*
X004720Y006255D01*
X005118Y006255D01*
X005399Y006536D01*
X005399Y006934D01*
X005118Y007215D01*
X004720Y007215D01*
X004673Y007168D01*
X004673Y007302D01*
X004720Y007255D01*
X005118Y007255D01*
X005399Y007536D01*
X005399Y007934D01*
X005118Y008215D01*
X004720Y008215D01*
X004673Y008168D01*
X004673Y008302D01*
X004720Y008255D01*
X005118Y008255D01*
X005399Y008536D01*
X005399Y008934D01*
X005118Y009215D01*
X004720Y009215D01*
X004673Y009168D01*
X004673Y009302D01*
X004720Y009255D01*
X005118Y009255D01*
X005399Y009536D01*
X005399Y009934D01*
X005118Y010215D01*
X004720Y010215D01*
X004673Y010168D01*
X004673Y010302D01*
X004720Y010255D01*
X005118Y010255D01*
X005399Y010536D01*
X005399Y010887D01*
X005429Y010887D01*
X005568Y010944D01*
X005634Y011011D01*
X005750Y010895D01*
X005788Y010895D01*
X005506Y010613D01*
X005506Y009930D01*
X005571Y009865D01*
X005491Y009785D01*
X005453Y009693D01*
X005453Y004585D01*
X005491Y004493D01*
X005621Y004363D01*
X005692Y004293D01*
X005736Y004275D01*
X005734Y004273D01*
X005658Y004089D01*
X005658Y004078D01*
X005543Y004078D01*
X005404Y004021D01*
X005358Y003975D01*
X005118Y004215D01*
X004720Y004215D01*
X004673Y004168D01*
X004673Y004301D02*
X004674Y004301D01*
X004173Y004301D02*
X004164Y004301D01*
X004173Y004310D02*
X004173Y004160D01*
X004118Y004215D01*
X003720Y004215D01*
X003628Y004123D01*
X003628Y004347D01*
X003720Y004255D01*
X004118Y004255D01*
X004173Y004310D01*
X003674Y004301D02*
X003628Y004301D01*
X003628Y004143D02*
X003648Y004143D01*
X003628Y005123D02*
X003628Y005347D01*
X003720Y005255D01*
X004118Y005255D01*
X004173Y005310D01*
X004173Y005160D01*
X004118Y005215D01*
X003720Y005215D01*
X003628Y005123D01*
X003628Y005252D02*
X004173Y005252D01*
X004673Y005252D02*
X005453Y005252D01*
X005453Y005094D02*
X005240Y005094D01*
X005398Y004935D02*
X005453Y004935D01*
X005453Y004777D02*
X005399Y004777D01*
X005399Y004618D02*
X005453Y004618D01*
X005525Y004460D02*
X005322Y004460D01*
X005164Y004301D02*
X005684Y004301D01*
X005680Y004143D02*
X005191Y004143D01*
X005349Y003984D02*
X005368Y003984D01*
X005453Y005411D02*
X005273Y005411D01*
X005399Y005569D02*
X005453Y005569D01*
X005453Y005728D02*
X005399Y005728D01*
X005399Y005886D02*
X005453Y005886D01*
X005453Y006045D02*
X005289Y006045D01*
X005130Y006203D02*
X005453Y006203D01*
X005453Y006362D02*
X005224Y006362D01*
X005383Y006520D02*
X005453Y006520D01*
X005453Y006679D02*
X005399Y006679D01*
X005399Y006837D02*
X005453Y006837D01*
X005453Y006996D02*
X005338Y006996D01*
X005453Y007154D02*
X005179Y007154D01*
X005175Y007313D02*
X005453Y007313D01*
X005453Y007471D02*
X005334Y007471D01*
X005399Y007630D02*
X005453Y007630D01*
X005453Y007788D02*
X005399Y007788D01*
X005387Y007947D02*
X005453Y007947D01*
X005453Y008105D02*
X005228Y008105D01*
X005126Y008264D02*
X005453Y008264D01*
X005453Y008422D02*
X005285Y008422D01*
X005399Y008581D02*
X005453Y008581D01*
X005453Y008739D02*
X005399Y008739D01*
X005399Y008898D02*
X005453Y008898D01*
X005453Y009056D02*
X005277Y009056D01*
X005119Y009215D02*
X005453Y009215D01*
X005453Y009373D02*
X005236Y009373D01*
X005394Y009532D02*
X005453Y009532D01*
X005453Y009690D02*
X005399Y009690D01*
X005399Y009849D02*
X005555Y009849D01*
X005506Y010007D02*
X005326Y010007D01*
X005168Y010166D02*
X005506Y010166D01*
X005506Y010324D02*
X005187Y010324D01*
X005345Y010483D02*
X005506Y010483D01*
X005534Y010641D02*
X005399Y010641D01*
X005399Y010800D02*
X005693Y010800D01*
X005687Y010958D02*
X005581Y010958D01*
X004975Y011215D02*
X004720Y011215D01*
X004673Y011168D01*
X004673Y011302D01*
X004720Y011255D01*
X004975Y011255D01*
X004975Y011215D01*
X004700Y011275D02*
X004673Y011275D01*
X004173Y011275D02*
X004138Y011275D01*
X004118Y011255D02*
X004173Y011310D01*
X004173Y011160D01*
X004118Y011215D01*
X003720Y011215D01*
X003628Y011123D01*
X003628Y011347D01*
X003720Y011255D01*
X004118Y011255D01*
X003700Y011275D02*
X003628Y011275D01*
X003628Y012123D02*
X003628Y012347D01*
X003720Y012255D01*
X004118Y012255D01*
X004173Y012310D01*
X004173Y012160D01*
X004118Y012215D01*
X003720Y012215D01*
X003628Y012123D01*
X003628Y012226D02*
X004173Y012226D01*
X004673Y012226D02*
X005976Y012226D01*
X005950Y012252D02*
X006068Y012135D01*
X006863Y012135D01*
X006980Y012252D01*
X006980Y013481D01*
X006863Y013598D01*
X006068Y013598D01*
X006034Y013564D01*
X005971Y013591D01*
X005821Y013591D01*
X005682Y013533D01*
X005575Y013427D01*
X005518Y013288D01*
X005518Y013251D01*
X005382Y013387D01*
X005316Y013453D01*
X005399Y013536D01*
X005399Y013934D01*
X005143Y014190D01*
X005500Y014190D01*
X005500Y013780D01*
X005617Y013663D01*
X006727Y013663D01*
X006845Y013780D01*
X006845Y014890D01*
X006727Y015007D01*
X005617Y015007D01*
X005500Y014890D01*
X005500Y014830D01*
X005399Y014830D01*
X005399Y014934D01*
X005118Y015215D01*
X004720Y015215D01*
X004439Y014934D01*
X004439Y014536D01*
X004720Y014255D01*
X004947Y014255D01*
X004963Y014239D01*
X005020Y014215D01*
X004720Y014215D01*
X004439Y013934D01*
X004439Y013753D01*
X004399Y013793D01*
X004399Y013934D01*
X004118Y014215D01*
X003720Y014215D01*
X003628Y014123D01*
X003628Y014347D01*
X003720Y014255D01*
X004118Y014255D01*
X004399Y014536D01*
X004399Y014934D01*
X004118Y015215D01*
X003720Y015215D01*
X003628Y015123D01*
X003628Y015347D01*
X003720Y015255D01*
X004118Y015255D01*
X004399Y015536D01*
X004399Y015934D01*
X004118Y016215D01*
X003720Y016215D01*
X003628Y016123D01*
X003628Y016347D01*
X003628Y016347D01*
X003720Y016255D01*
X004118Y016255D01*
X004399Y016536D01*
X004399Y016934D01*
X004118Y017215D01*
X003720Y017215D01*
X003628Y017123D01*
X003628Y017375D01*
X003729Y017275D01*
X003909Y017275D01*
X003909Y017725D01*
X003929Y017725D01*
X003929Y017275D01*
X004110Y017275D01*
X004379Y017545D01*
X004379Y017725D01*
X003929Y017725D01*
X003929Y017745D01*
X003909Y017745D01*
X003909Y018195D01*
X003729Y018195D01*
X003628Y018095D01*
X003628Y019585D01*
X017743Y019585D01*
X017692Y019535D01*
X017692Y019535D01*
X017688Y019531D01*
X017688Y019357D01*
X017696Y019349D01*
X017696Y019345D01*
X017708Y019333D01*
X017708Y019329D01*
X017712Y019325D01*
X017720Y019317D01*
X017720Y019313D01*
X017728Y019305D01*
X017732Y019301D01*
X017732Y019297D01*
X017744Y019285D01*
X017744Y019281D01*
X017756Y019269D01*
X017756Y019265D01*
X017768Y019253D01*
X017768Y019249D01*
X017772Y019245D01*
X017780Y019237D01*
X017780Y019233D01*
X017788Y019225D01*
X017792Y019221D01*
X017792Y019217D01*
X017800Y019209D01*
X017800Y019205D01*
X017812Y019193D01*
X017812Y019193D01*
X017812Y019193D01*
X017812Y019189D01*
X017816Y019185D01*
X017824Y019177D01*
X017824Y019173D01*
X017836Y019161D01*
X017836Y019157D01*
X017848Y019145D01*
X017848Y019141D01*
X017860Y019129D01*
X017860Y019125D01*
X017872Y019113D01*
X017872Y019109D01*
X017876Y019105D01*
X017884Y019097D01*
X017884Y019093D01*
X017892Y019085D01*
X017896Y019081D01*
X017896Y019077D01*
X017907Y019066D01*
X017889Y019048D01*
X017825Y019048D01*
X017708Y018931D01*
X017708Y018915D01*
X017704Y018911D01*
X017704Y018903D01*
X017616Y018815D01*
X017596Y018795D01*
X017596Y018787D01*
X017592Y018783D01*
X017592Y018779D01*
X017592Y018601D01*
X017592Y018593D01*
X017596Y018589D01*
X017596Y018581D01*
X017696Y018481D01*
X017700Y018477D01*
X017700Y018473D01*
X017704Y018469D01*
X017704Y018461D01*
X017708Y018457D01*
X017708Y018453D01*
X017712Y018449D01*
X017712Y018445D01*
X017716Y018441D01*
X017716Y018437D01*
X017720Y018433D01*
X017720Y018429D01*
X017724Y018425D01*
X017724Y018421D01*
X017728Y018417D01*
X017728Y018413D01*
X017732Y018409D01*
X017732Y018405D01*
X017740Y018397D01*
X017740Y018393D01*
X017748Y018385D01*
X017748Y018381D01*
X017752Y018377D01*
X017760Y018369D01*
X017760Y018365D01*
X017877Y018248D01*
X017881Y018244D01*
X017885Y018240D01*
X017889Y018236D01*
X017893Y018232D01*
X017897Y018228D01*
X017901Y018224D01*
X017905Y018220D01*
X017909Y018216D01*
X017913Y018216D01*
X017921Y018208D01*
X017925Y018208D01*
X017929Y018204D01*
X017933Y018200D01*
X017937Y018200D01*
X017941Y018196D01*
X017945Y018196D01*
X017946Y018195D01*
X017929Y018195D01*
X017929Y017745D01*
X017909Y017745D01*
X017909Y017725D01*
X017459Y017725D01*
X017459Y017545D01*
X017729Y017275D01*
X017909Y017275D01*
X017909Y017725D01*
X017929Y017725D01*
X017929Y017275D01*
X018110Y017275D01*
X018153Y017318D01*
X018143Y017295D01*
X018143Y017190D01*
X018118Y017215D01*
X017720Y017215D01*
X017439Y016934D01*
X017439Y016545D01*
X017061Y016545D01*
X017061Y016566D01*
X016944Y016684D01*
X015993Y016684D01*
X015993Y017849D01*
X015962Y017924D01*
X016007Y017879D01*
X016290Y017879D01*
X016290Y018634D01*
X015535Y018634D01*
X015535Y018383D01*
X015524Y018388D01*
X015373Y018388D01*
X015234Y018331D01*
X015128Y018224D01*
X015070Y018085D01*
X015070Y017935D01*
X015128Y017796D01*
X015234Y017689D01*
X015353Y017640D01*
X015353Y015926D01*
X015288Y015947D01*
X015220Y015957D01*
X014928Y015957D01*
X014636Y015957D01*
X014568Y015947D01*
X014517Y015930D01*
X014518Y015931D01*
X014518Y015933D01*
X014518Y015935D01*
X014518Y015983D01*
X014528Y016564D01*
X014529Y016567D01*
X014528Y016614D01*
X014529Y016661D01*
X014528Y016664D01*
X015353Y016664D01*
X015353Y016506D02*
X014527Y016506D01*
X014528Y016664D02*
X014528Y016667D01*
X014510Y016710D01*
X014492Y016753D01*
X014490Y016755D01*
X014489Y016758D01*
X014456Y016791D01*
X014423Y016825D01*
X014420Y016826D01*
X013210Y018017D01*
X013176Y018052D01*
X013174Y018052D01*
X013173Y018053D01*
X013128Y018071D01*
X013084Y018090D01*
X013082Y018090D01*
X013081Y018090D01*
X013033Y018090D01*
X012976Y018090D01*
X013228Y018342D01*
X013228Y019026D01*
X012745Y019509D01*
X012062Y019509D01*
X011578Y019026D01*
X011578Y018342D01*
X011827Y018093D01*
X011013Y018096D01*
X011260Y018342D01*
X011260Y019026D01*
X010777Y019509D01*
X010093Y019509D01*
X009610Y019026D01*
X009610Y018342D01*
X009853Y018099D01*
X009050Y018101D01*
X009291Y018342D01*
X009291Y019026D01*
X008808Y019509D01*
X008125Y019509D01*
X007641Y019026D01*
X007641Y018342D01*
X007879Y018104D01*
X007762Y018105D01*
X007378Y018489D01*
X007378Y018910D01*
X007340Y019002D01*
X007323Y019019D01*
X007323Y019026D01*
X006840Y019509D01*
X006156Y019509D01*
X005673Y019026D01*
X005673Y019008D01*
X005668Y018996D01*
X005655Y018978D01*
X005649Y018951D01*
X005638Y018925D01*
X005638Y018904D01*
X005628Y018880D01*
X005628Y018857D01*
X005623Y018836D01*
X005628Y018808D01*
X005628Y018380D01*
X005666Y018288D01*
X007436Y016518D01*
X007507Y016448D01*
X007599Y016410D01*
X008934Y016410D01*
X008933Y016409D01*
X008875Y016270D01*
X008875Y016199D01*
X008788Y016235D01*
X006503Y016235D01*
X006433Y016306D01*
X006294Y016363D01*
X006143Y016363D01*
X006004Y016306D01*
X005898Y016199D01*
X005840Y016060D01*
X005840Y015910D01*
X005898Y015771D01*
X006004Y015664D01*
X006143Y015607D01*
X006294Y015607D01*
X006433Y015664D01*
X006503Y015735D01*
X006989Y015735D01*
X006965Y015688D01*
X006944Y015622D01*
X006933Y015554D01*
X006933Y015520D01*
X007628Y015520D01*
X006933Y015520D01*
X006933Y015486D01*
X006944Y015418D01*
X006965Y015352D01*
X006997Y015291D01*
X007037Y015235D01*
X007086Y015186D01*
X007142Y015146D01*
X007203Y015115D01*
X007268Y015093D01*
X007336Y015083D01*
X007628Y015083D01*
X007628Y015520D01*
X007628Y015520D01*
X007628Y015520D01*
X007628Y015083D01*
X007920Y015083D01*
X007988Y015093D01*
X008054Y015115D01*
X008115Y015146D01*
X008171Y015186D01*
X008220Y015235D01*
X008260Y015291D01*
X008291Y015352D01*
X008313Y015418D01*
X008323Y015486D01*
X008323Y015520D01*
X008323Y015554D01*
X008313Y015622D01*
X008291Y015688D01*
X008267Y015735D01*
X008635Y015735D01*
X008726Y015643D01*
X008728Y015642D01*
X008629Y015601D01*
X008523Y015494D01*
X008465Y015355D01*
X008465Y015205D01*
X008523Y015066D01*
X008545Y015043D01*
X008459Y015007D01*
X007349Y015007D01*
X007232Y014890D01*
X007232Y013780D01*
X007349Y013663D01*
X008460Y013663D01*
X008577Y013780D01*
X008577Y014198D01*
X008675Y014239D01*
X008743Y014307D01*
X008744Y014307D01*
X008883Y014364D01*
X008989Y014471D01*
X009033Y014578D01*
X009033Y014572D01*
X009097Y014509D01*
X009089Y014502D01*
X009066Y014461D01*
X009053Y014415D01*
X009053Y014273D01*
X009053Y014131D01*
X009066Y014086D01*
X009089Y014045D01*
X009111Y014023D01*
X009089Y014002D01*
X009066Y013961D01*
X009053Y013915D01*
X009053Y013773D01*
X009053Y013631D01*
X009066Y013586D01*
X009089Y013545D01*
X009111Y013523D01*
X009089Y013502D01*
X009066Y013461D01*
X009053Y013415D01*
X009053Y013273D01*
X009053Y013131D01*
X009066Y013086D01*
X009089Y013045D01*
X009111Y013023D01*
X009089Y013002D01*
X009066Y012961D01*
X009053Y012915D01*
X009053Y012773D01*
X009053Y012631D01*
X009064Y012593D01*
X008415Y012593D01*
X008393Y012616D01*
X008254Y012673D01*
X008103Y012673D01*
X008063Y012656D01*
X008063Y012789D01*
X007645Y012789D01*
X007645Y012155D01*
X007827Y012155D01*
X007858Y012081D01*
X007964Y011974D01*
X008103Y011917D01*
X008254Y011917D01*
X008341Y011953D01*
X009033Y011953D01*
X009033Y011572D01*
X009082Y011523D01*
X009071Y011512D01*
X008883Y011512D01*
X008883Y011610D01*
X008766Y011727D01*
X008089Y011727D01*
X008037Y011676D01*
X008005Y011695D01*
X007959Y011707D01*
X007727Y011707D01*
X007727Y011280D01*
X007631Y011280D01*
X007631Y011707D01*
X007400Y011707D01*
X007354Y011695D01*
X007313Y011671D01*
X007279Y011638D01*
X007256Y011596D01*
X007243Y011551D01*
X007243Y011280D01*
X007631Y011280D01*
X007631Y011184D01*
X007243Y011184D01*
X007243Y010913D01*
X007256Y010867D01*
X007279Y010826D01*
X007313Y010792D01*
X007339Y010777D01*
X007280Y010777D01*
X007112Y010708D01*
X007087Y010683D01*
X006913Y010856D01*
X006913Y010895D01*
X006976Y010895D01*
X007093Y011012D01*
X007093Y011808D01*
X006976Y011925D01*
X005750Y011925D01*
X005633Y011808D01*
X005633Y011715D01*
X005504Y011715D01*
X005412Y011677D01*
X005399Y011664D01*
X005399Y011934D01*
X005118Y012215D01*
X004720Y012215D01*
X004673Y012168D01*
X004673Y012330D01*
X004729Y012275D01*
X004909Y012275D01*
X004909Y012725D01*
X004929Y012725D01*
X004929Y012275D01*
X005110Y012275D01*
X005366Y012532D01*
X005378Y012502D01*
X005485Y012396D01*
X005624Y012338D01*
X005774Y012338D01*
X005913Y012396D01*
X005950Y012433D01*
X005950Y012252D01*
X005950Y012385D02*
X005886Y012385D01*
X005559Y012095D02*
X007679Y012095D01*
X007679Y012526D01*
X007888Y012735D01*
X008418Y012735D01*
X008723Y013040D01*
X008723Y014060D01*
X008963Y014300D01*
X009648Y014300D01*
X009658Y014290D01*
X009667Y014273D02*
X009667Y014273D01*
X009667Y014273D01*
X010280Y014273D01*
X010280Y014131D01*
X010267Y014086D01*
X010244Y014045D01*
X010222Y014023D01*
X010244Y014002D01*
X010267Y013961D01*
X010280Y013915D01*
X010280Y013773D01*
X009667Y013773D01*
X009667Y013773D01*
X009667Y013273D01*
X009667Y013273D01*
X010280Y013273D01*
X010280Y013131D01*
X010267Y013086D01*
X010244Y013045D01*
X010222Y013023D01*
X010244Y013002D01*
X010267Y012961D01*
X010280Y012915D01*
X010280Y012773D01*
X009667Y012773D01*
X009667Y012773D01*
X009667Y012593D01*
X009667Y012593D01*
X009667Y012773D01*
X009667Y012773D01*
X010280Y012773D01*
X010280Y012772D01*
X010343Y012798D01*
X010494Y012798D01*
X010633Y012741D01*
X010723Y012650D01*
X010979Y012650D01*
X011049Y012721D01*
X011188Y012778D01*
X011339Y012778D01*
X011478Y012721D01*
X011584Y012614D01*
X011641Y012475D01*
X011641Y012325D01*
X011584Y012186D01*
X011478Y012079D01*
X011339Y012022D01*
X011188Y012022D01*
X011049Y012079D01*
X010979Y012150D01*
X010683Y012150D01*
X010633Y012099D01*
X010494Y012042D01*
X010343Y012042D01*
X010291Y012064D01*
X010251Y012023D01*
X010251Y012023D01*
X010280Y012023D01*
X010372Y011985D01*
X010394Y011963D01*
X010494Y011963D01*
X010633Y011906D01*
X010739Y011799D01*
X010796Y011660D01*
X010796Y011510D01*
X011572Y011510D01*
X011690Y011461D01*
X012046Y011105D01*
X012072Y011105D01*
X012035Y011195D01*
X012035Y011345D01*
X012093Y011484D01*
X012199Y011591D01*
X012239Y011607D01*
X012200Y011700D01*
X012200Y011850D01*
X012258Y011989D01*
X012364Y012096D01*
X012503Y012153D01*
X012654Y012153D01*
X012655Y012152D01*
X012655Y012290D01*
X012383Y012290D01*
X012313Y012219D01*
X012174Y012162D01*
X012023Y012162D01*
X011884Y012219D01*
X011778Y012326D01*
X011720Y012465D01*
X011720Y012615D01*
X011778Y012754D01*
X011884Y012861D01*
X012023Y012918D01*
X012174Y012918D01*
X012313Y012861D01*
X012383Y012790D01*
X012675Y012790D01*
X012675Y012915D01*
X012688Y012961D01*
X012711Y013002D01*
X012733Y013023D01*
X012711Y013045D01*
X012688Y013086D01*
X012675Y013131D01*
X012675Y013273D01*
X013289Y013273D01*
X013289Y013273D01*
X013902Y013273D01*
X013902Y013131D01*
X013889Y013086D01*
X013866Y013045D01*
X013844Y013023D01*
X013866Y013002D01*
X013889Y012961D01*
X013902Y012915D01*
X013902Y012790D01*
X014505Y012790D01*
X014651Y012937D01*
X014699Y012984D01*
X014603Y013081D01*
X014545Y013220D01*
X014545Y013370D01*
X014603Y013509D01*
X014603Y013510D01*
X014603Y014241D01*
X014603Y014369D01*
X014652Y014486D01*
X015254Y015088D01*
X015220Y015083D01*
X014928Y015083D01*
X014928Y015520D01*
X014233Y015520D01*
X014928Y015520D01*
X014928Y015520D01*
X014928Y015957D01*
X014928Y015520D01*
X014928Y015520D01*
X014928Y015520D01*
X014743Y015335D01*
X014743Y014570D01*
X014453Y014280D01*
X013998Y014280D01*
X013998Y012905D01*
X013893Y012800D01*
X013315Y012800D01*
X012488Y012800D01*
X012378Y012910D01*
X011918Y012910D01*
X011753Y012745D01*
X011748Y012740D01*
X011748Y012220D01*
X011878Y012226D02*
X011601Y012226D01*
X011641Y012385D02*
X011753Y012385D01*
X011720Y012543D02*
X011613Y012543D01*
X011497Y012702D02*
X011756Y012702D01*
X011753Y012745D02*
X009695Y012745D01*
X009667Y012773D01*
X009667Y013273D01*
X009667Y012773D01*
X008990Y012773D01*
X008723Y013040D01*
X009053Y013177D02*
X008063Y013177D01*
X008063Y013019D02*
X009106Y013019D01*
X009053Y012860D02*
X007645Y012860D01*
X007645Y012789D02*
X007645Y012944D01*
X007490Y012944D01*
X007490Y012789D01*
X007073Y012789D01*
X007073Y012311D01*
X007085Y012265D01*
X007109Y012224D01*
X007142Y012191D01*
X007183Y012167D01*
X007229Y012155D01*
X007490Y012155D01*
X007490Y012789D01*
X007645Y012789D01*
X007645Y012702D02*
X007490Y012702D01*
X007490Y012860D02*
X006980Y012860D01*
X007073Y012944D02*
X007490Y012944D01*
X007490Y013578D01*
X007229Y013578D01*
X007183Y013565D01*
X007142Y013542D01*
X007109Y013508D01*
X007085Y013467D01*
X007073Y013421D01*
X007073Y012944D01*
X007073Y013019D02*
X006980Y013019D01*
X006980Y013177D02*
X007073Y013177D01*
X007073Y013336D02*
X006980Y013336D01*
X006967Y013494D02*
X007101Y013494D01*
X007232Y013811D02*
X006845Y013811D01*
X006845Y013970D02*
X007232Y013970D01*
X007232Y014128D02*
X006845Y014128D01*
X006845Y014287D02*
X007232Y014287D01*
X007232Y014445D02*
X006845Y014445D01*
X006845Y014604D02*
X007232Y014604D01*
X007232Y014762D02*
X006845Y014762D01*
X006814Y014921D02*
X007262Y014921D01*
X007035Y015238D02*
X003628Y015238D01*
X004254Y015079D02*
X004584Y015079D01*
X004439Y014921D02*
X004399Y014921D01*
X004399Y014762D02*
X004439Y014762D01*
X004439Y014604D02*
X004399Y014604D01*
X004308Y014445D02*
X004530Y014445D01*
X004689Y014287D02*
X004149Y014287D01*
X004205Y014128D02*
X004633Y014128D01*
X004475Y013970D02*
X004364Y013970D01*
X004399Y013811D02*
X004439Y013811D01*
X004174Y013311D02*
X004182Y013303D01*
X004103Y013224D01*
X004099Y013215D01*
X003720Y013215D01*
X003628Y013123D01*
X003628Y013347D01*
X003720Y013255D01*
X004118Y013255D01*
X004174Y013311D01*
X003682Y013177D02*
X003628Y013177D01*
X003628Y013336D02*
X003640Y013336D01*
X003628Y014128D02*
X003633Y014128D01*
X003628Y014287D02*
X003689Y014287D01*
X004259Y015396D02*
X004579Y015396D01*
X004439Y015536D02*
X004720Y015255D01*
X005118Y015255D01*
X005399Y015536D01*
X005399Y015934D01*
X005118Y016215D01*
X004720Y016215D01*
X004439Y015934D01*
X004439Y015536D01*
X004439Y015555D02*
X004399Y015555D01*
X004399Y015713D02*
X004439Y015713D01*
X004439Y015872D02*
X004399Y015872D01*
X004303Y016030D02*
X004535Y016030D01*
X004694Y016189D02*
X004145Y016189D01*
X004210Y016347D02*
X004657Y016347D01*
X004729Y016275D02*
X004459Y016545D01*
X004459Y016725D01*
X004909Y016725D01*
X004909Y016745D01*
X004459Y016745D01*
X004459Y016926D01*
X004729Y017195D01*
X004909Y017195D01*
X004909Y016745D01*
X004929Y016745D01*
X004929Y017195D01*
X005110Y017195D01*
X005379Y016926D01*
X005379Y016745D01*
X004929Y016745D01*
X004929Y016725D01*
X004929Y016275D01*
X005110Y016275D01*
X005379Y016545D01*
X005379Y016725D01*
X004929Y016725D01*
X004909Y016725D01*
X004909Y016275D01*
X004729Y016275D01*
X004909Y016347D02*
X004929Y016347D01*
X004929Y016506D02*
X004909Y016506D01*
X004909Y016664D02*
X004929Y016664D01*
X004929Y016823D02*
X004909Y016823D01*
X004909Y016981D02*
X004929Y016981D01*
X004929Y017140D02*
X004909Y017140D01*
X004720Y017255D02*
X005118Y017255D01*
X005399Y017536D01*
X005399Y017934D01*
X005118Y018215D01*
X004720Y018215D01*
X004439Y017934D01*
X004439Y017536D01*
X004720Y017255D01*
X004677Y017298D02*
X004133Y017298D01*
X004194Y017140D02*
X004673Y017140D01*
X004515Y016981D02*
X004352Y016981D01*
X004399Y016823D02*
X004459Y016823D01*
X004459Y016664D02*
X004399Y016664D01*
X004368Y016506D02*
X004498Y016506D01*
X005182Y016347D02*
X006104Y016347D01*
X006332Y016347D02*
X008907Y016347D01*
X008657Y015713D02*
X008278Y015713D01*
X008323Y015555D02*
X008583Y015555D01*
X008482Y015396D02*
X008306Y015396D01*
X008323Y015520D02*
X007628Y015520D01*
X008323Y015520D01*
X008221Y015238D02*
X008465Y015238D01*
X008517Y015079D02*
X005254Y015079D01*
X005399Y014921D02*
X005530Y014921D01*
X005259Y015396D02*
X006951Y015396D01*
X006933Y015555D02*
X005399Y015555D01*
X005399Y015713D02*
X005956Y015713D01*
X005856Y015872D02*
X005399Y015872D01*
X005303Y016030D02*
X005840Y016030D01*
X005893Y016189D02*
X005145Y016189D01*
X005340Y016506D02*
X007449Y016506D01*
X007291Y016664D02*
X005379Y016664D01*
X005379Y016823D02*
X007132Y016823D01*
X006974Y016981D02*
X005324Y016981D01*
X005165Y017140D02*
X006815Y017140D01*
X006657Y017298D02*
X005161Y017298D01*
X005319Y017457D02*
X006498Y017457D01*
X006340Y017615D02*
X005399Y017615D01*
X005399Y017774D02*
X006181Y017774D01*
X006023Y017932D02*
X005399Y017932D01*
X005243Y018091D02*
X005864Y018091D01*
X005706Y018249D02*
X003628Y018249D01*
X003628Y018408D02*
X005628Y018408D01*
X005628Y018566D02*
X003628Y018566D01*
X003628Y018725D02*
X005628Y018725D01*
X005630Y018883D02*
X003628Y018883D01*
X003628Y019042D02*
X005689Y019042D01*
X005847Y019200D02*
X003628Y019200D01*
X003628Y019359D02*
X006006Y019359D01*
X006990Y019359D02*
X007974Y019359D01*
X007816Y019200D02*
X007149Y019200D01*
X007307Y019042D02*
X007657Y019042D01*
X007641Y018883D02*
X007378Y018883D01*
X007378Y018725D02*
X007641Y018725D01*
X007641Y018566D02*
X007378Y018566D01*
X007459Y018408D02*
X007641Y018408D01*
X007618Y018249D02*
X007735Y018249D01*
X008959Y019359D02*
X009943Y019359D01*
X009784Y019200D02*
X009117Y019200D01*
X009276Y019042D02*
X009626Y019042D01*
X009610Y018883D02*
X009291Y018883D01*
X009291Y018725D02*
X009610Y018725D01*
X009610Y018566D02*
X009291Y018566D01*
X009291Y018408D02*
X009610Y018408D01*
X009703Y018249D02*
X009198Y018249D01*
X010927Y019359D02*
X011911Y019359D01*
X011753Y019200D02*
X011086Y019200D01*
X011244Y019042D02*
X011594Y019042D01*
X011578Y018883D02*
X011260Y018883D01*
X011260Y018725D02*
X011578Y018725D01*
X011578Y018566D02*
X011260Y018566D01*
X011260Y018408D02*
X011578Y018408D01*
X011672Y018249D02*
X011167Y018249D01*
X012896Y019359D02*
X013880Y019359D01*
X014030Y019509D02*
X013547Y019026D01*
X013547Y018342D01*
X014030Y017859D01*
X014714Y017859D01*
X015197Y018342D01*
X015197Y019026D01*
X014714Y019509D01*
X014030Y019509D01*
X013721Y019200D02*
X013054Y019200D01*
X013213Y019042D02*
X013563Y019042D01*
X013547Y018883D02*
X013228Y018883D01*
X013228Y018725D02*
X013547Y018725D01*
X013547Y018566D02*
X013228Y018566D01*
X013228Y018408D02*
X013547Y018408D01*
X013640Y018249D02*
X013135Y018249D01*
X012977Y018091D02*
X013799Y018091D01*
X013957Y017932D02*
X013296Y017932D01*
X013457Y017774D02*
X015150Y017774D01*
X015071Y017932D02*
X014787Y017932D01*
X014945Y018091D02*
X015072Y018091D01*
X015104Y018249D02*
X015153Y018249D01*
X015197Y018408D02*
X015535Y018408D01*
X015535Y018566D02*
X015197Y018566D01*
X015197Y018725D02*
X016290Y018725D01*
X016290Y018734D02*
X016290Y018634D01*
X016390Y018634D01*
X016390Y017879D01*
X016674Y017879D01*
X017145Y018350D01*
X017145Y018634D01*
X016390Y018634D01*
X016390Y018734D01*
X016290Y018734D01*
X015535Y018734D01*
X015535Y019017D01*
X016007Y019489D01*
X016290Y019489D01*
X016290Y018734D01*
X016390Y018734D02*
X016390Y019489D01*
X016674Y019489D01*
X017145Y019017D01*
X017145Y018734D01*
X016390Y018734D01*
X016390Y018725D02*
X017592Y018725D01*
X017592Y018779D02*
X017592Y018779D01*
X017685Y018883D02*
X017145Y018883D01*
X017121Y019042D02*
X017819Y019042D01*
X017892Y019085D02*
X017892Y019085D01*
X017876Y019105D02*
X017876Y019105D01*
X017816Y019185D02*
X017816Y019185D01*
X017805Y019200D02*
X016963Y019200D01*
X016804Y019359D02*
X017688Y019359D01*
X017712Y019325D02*
X017712Y019325D01*
X017728Y019305D02*
X017728Y019305D01*
X017772Y019245D02*
X017772Y019245D01*
X017788Y019225D02*
X017788Y019225D01*
X017688Y019517D02*
X003628Y019517D01*
X003929Y018195D02*
X003929Y017745D01*
X004379Y017745D01*
X004379Y017926D01*
X004110Y018195D01*
X003929Y018195D01*
X003929Y018091D02*
X003909Y018091D01*
X003909Y017932D02*
X003929Y017932D01*
X003929Y017774D02*
X003909Y017774D01*
X003909Y017615D02*
X003929Y017615D01*
X003929Y017457D02*
X003909Y017457D01*
X003909Y017298D02*
X003929Y017298D01*
X003706Y017298D02*
X003628Y017298D01*
X003628Y017140D02*
X003645Y017140D01*
X004291Y017457D02*
X004519Y017457D01*
X004439Y017615D02*
X004379Y017615D01*
X004379Y017774D02*
X004439Y017774D01*
X004439Y017932D02*
X004373Y017932D01*
X004214Y018091D02*
X004596Y018091D01*
X003694Y016189D02*
X003628Y016189D01*
X005205Y014128D02*
X005500Y014128D01*
X005500Y013970D02*
X005364Y013970D01*
X005399Y013811D02*
X005500Y013811D01*
X005399Y013653D02*
X009053Y013653D01*
X009053Y013773D02*
X009667Y013773D01*
X009667Y013773D01*
X010280Y013773D01*
X010280Y013631D01*
X010267Y013586D01*
X010244Y013545D01*
X010222Y013523D01*
X010244Y013502D01*
X010267Y013461D01*
X010280Y013415D01*
X010280Y013273D01*
X009667Y013273D01*
X009667Y013273D01*
X009667Y013071D01*
X009667Y012773D01*
X009667Y012773D01*
X009053Y012773D01*
X009667Y012773D01*
X009667Y012773D01*
X009667Y012702D02*
X009667Y012702D01*
X009667Y012860D02*
X009667Y012860D01*
X009667Y013019D02*
X009667Y013019D01*
X009667Y013177D02*
X009667Y013177D01*
X009667Y013273D02*
X009053Y013273D01*
X009667Y013273D01*
X009667Y013273D01*
X009667Y013273D01*
X009667Y013475D01*
X009667Y013773D01*
X009673Y013766D01*
X009673Y013275D01*
X009667Y013282D01*
X009667Y013773D01*
X009667Y014273D01*
X009667Y013773D01*
X009667Y013773D01*
X009667Y013773D01*
X009667Y014071D01*
X009667Y014273D01*
X009667Y014273D01*
X010280Y014273D01*
X010280Y014415D01*
X010267Y014461D01*
X010264Y014467D01*
X010348Y014502D01*
X010463Y014617D01*
X010464Y014617D01*
X010603Y014674D01*
X010709Y014781D01*
X010766Y014920D01*
X010766Y015070D01*
X010709Y015209D01*
X010613Y015305D01*
X011579Y015305D01*
X011649Y015234D01*
X011788Y015177D01*
X011939Y015177D01*
X012078Y015234D01*
X012184Y015341D01*
X012241Y015480D01*
X012241Y015563D01*
X012321Y015483D01*
X012392Y015413D01*
X012484Y015375D01*
X012655Y015375D01*
X012655Y015093D01*
X012520Y015093D01*
X012438Y015176D01*
X012299Y015233D01*
X012148Y015233D01*
X012009Y015176D01*
X011903Y015069D01*
X011845Y014930D01*
X011845Y014780D01*
X011903Y014641D01*
X012009Y014534D01*
X012148Y014477D01*
X012184Y014477D01*
X012241Y014453D01*
X012686Y014453D01*
X012675Y014415D01*
X012675Y014273D01*
X012675Y014131D01*
X012688Y014086D01*
X012711Y014045D01*
X012733Y014023D01*
X012711Y014002D01*
X012688Y013961D01*
X012675Y013915D01*
X012675Y013773D01*
X012675Y013631D01*
X012688Y013586D01*
X012711Y013545D01*
X012733Y013523D01*
X012711Y013502D01*
X012688Y013461D01*
X012675Y013415D01*
X012675Y013273D01*
X013289Y013273D01*
X013289Y012975D01*
X013289Y012790D01*
X013289Y012790D01*
X013289Y013273D01*
X013289Y013273D01*
X013902Y013273D01*
X013902Y013415D01*
X013889Y013461D01*
X013866Y013502D01*
X013844Y013523D01*
X013866Y013545D01*
X013889Y013586D01*
X013902Y013631D01*
X013902Y013773D01*
X013289Y013773D01*
X013289Y013773D01*
X013289Y013273D01*
X013289Y013773D01*
X013289Y013773D01*
X013902Y013773D01*
X013902Y013915D01*
X013889Y013961D01*
X013866Y014002D01*
X013844Y014023D01*
X013866Y014045D01*
X013889Y014086D01*
X013902Y014131D01*
X013902Y014273D01*
X013289Y014273D01*
X013289Y014273D01*
X013289Y013975D01*
X013289Y013773D01*
X013289Y013571D01*
X013289Y013273D01*
X013338Y013224D01*
X013338Y012760D01*
X013285Y012813D01*
X013285Y014270D01*
X013289Y014273D01*
X013289Y014273D01*
X013902Y014273D01*
X013902Y014415D01*
X013889Y014461D01*
X013866Y014502D01*
X013858Y014509D01*
X013922Y014572D01*
X013922Y014650D01*
X013978Y014627D01*
X014129Y014627D01*
X014268Y014684D01*
X014374Y014791D01*
X014431Y014930D01*
X014431Y015080D01*
X014388Y015185D01*
X014442Y015146D01*
X014503Y015115D01*
X014568Y015093D01*
X014636Y015083D01*
X014928Y015083D01*
X014928Y015520D01*
X014928Y015555D02*
X014928Y015555D01*
X014928Y015713D02*
X014928Y015713D01*
X014928Y015872D02*
X014928Y015872D01*
X014519Y016030D02*
X015353Y016030D01*
X015353Y016189D02*
X014522Y016189D01*
X014524Y016347D02*
X015353Y016347D01*
X015353Y016823D02*
X014425Y016823D01*
X014263Y016981D02*
X015353Y016981D01*
X015353Y017140D02*
X014102Y017140D01*
X013941Y017298D02*
X015353Y017298D01*
X015353Y017457D02*
X013780Y017457D01*
X013618Y017615D02*
X015353Y017615D01*
X015993Y017615D02*
X017459Y017615D01*
X017459Y017745D02*
X017909Y017745D01*
X017909Y018195D01*
X017729Y018195D01*
X017459Y017926D01*
X017459Y017745D01*
X017459Y017774D02*
X015993Y017774D01*
X015993Y017457D02*
X017547Y017457D01*
X017706Y017298D02*
X015993Y017298D01*
X015993Y017140D02*
X017645Y017140D01*
X017486Y016981D02*
X015993Y016981D01*
X015993Y016823D02*
X017439Y016823D01*
X017439Y016664D02*
X016963Y016664D01*
X016787Y016265D02*
X016388Y016011D01*
X016787Y016265D02*
X018218Y016265D01*
X018423Y016470D01*
X018423Y017239D01*
X018919Y017735D01*
X018596Y018091D02*
X018214Y018091D01*
X018125Y018180D02*
X018467Y018180D01*
X018471Y018184D01*
X018483Y018184D01*
X018487Y018188D01*
X018495Y018188D01*
X018499Y018192D01*
X018507Y018192D01*
X018511Y018196D01*
X018515Y018196D01*
X018519Y018200D01*
X018523Y018200D01*
X018527Y018204D01*
X018531Y018208D01*
X018535Y018208D01*
X018543Y018216D01*
X018547Y018216D01*
X018551Y018220D01*
X018555Y018224D01*
X018559Y018228D01*
X018563Y018232D01*
X018567Y018236D01*
X018571Y018240D01*
X018575Y018244D01*
X018579Y018248D01*
X018696Y018365D01*
X018696Y018369D01*
X018704Y018377D01*
X018708Y018381D01*
X018708Y018385D01*
X018716Y018393D01*
X018716Y018397D01*
X018724Y018405D01*
X018724Y018409D01*
X018728Y018413D01*
X018728Y018417D01*
X018732Y018421D01*
X018732Y018425D01*
X018736Y018429D01*
X018736Y018433D01*
X018740Y018437D01*
X018740Y018441D01*
X018744Y018445D01*
X018744Y018449D01*
X018748Y018453D01*
X018748Y018457D01*
X018752Y018461D01*
X018752Y018469D01*
X018756Y018473D01*
X018756Y018477D01*
X018760Y018481D01*
X018844Y018565D01*
X018856Y018577D01*
X018856Y018581D01*
X018860Y018585D01*
X018860Y018597D01*
X018864Y018601D01*
X018864Y018779D01*
X018860Y018783D01*
X018860Y018791D01*
X018856Y018795D01*
X018856Y018799D01*
X018852Y018803D01*
X018848Y018807D01*
X018844Y018811D01*
X018840Y018815D01*
X018768Y018887D01*
X018768Y018895D01*
X018764Y018899D01*
X018764Y018903D01*
X018760Y018907D01*
X018760Y018911D01*
X018756Y018915D01*
X018752Y018919D01*
X018752Y018923D01*
X018748Y018927D01*
X018744Y018931D01*
X018740Y018935D01*
X018623Y019052D01*
X018615Y019060D01*
X018611Y019060D01*
X018603Y019068D01*
X018599Y019068D01*
X018595Y019072D01*
X018591Y019072D01*
X018587Y019076D01*
X018583Y019076D01*
X018579Y019080D01*
X018567Y019080D01*
X018563Y019084D01*
X018564Y019085D01*
X018572Y019093D01*
X018572Y019097D01*
X018580Y019105D01*
X018584Y019109D01*
X018584Y019113D01*
X018596Y019125D01*
X018596Y019129D01*
X018608Y019141D01*
X018608Y019145D01*
X018620Y019157D01*
X018620Y019161D01*
X018624Y019165D01*
X018632Y019173D01*
X018632Y019177D01*
X018640Y019185D01*
X018640Y019189D01*
X018656Y019205D01*
X018656Y019209D01*
X018664Y019217D01*
X018664Y019221D01*
X018668Y019225D01*
X018676Y019233D01*
X018676Y019237D01*
X018684Y019245D01*
X018688Y019249D01*
X018688Y019253D01*
X018700Y019265D01*
X018700Y019269D01*
X018712Y019281D01*
X018712Y019285D01*
X018724Y019297D01*
X018724Y019301D01*
X018728Y019305D01*
X018736Y019313D01*
X018736Y019317D01*
X018744Y019325D01*
X018748Y019329D01*
X018748Y019333D01*
X018760Y019345D01*
X018760Y019349D01*
X018768Y019357D01*
X018768Y019531D01*
X018764Y019535D01*
X018714Y019585D01*
X019210Y019585D01*
X019210Y018123D01*
X019118Y018215D01*
X018720Y018215D01*
X018439Y017934D01*
X018439Y017651D01*
X018379Y017591D01*
X018379Y017725D01*
X017929Y017725D01*
X017929Y017745D01*
X018379Y017745D01*
X018379Y017926D01*
X018125Y018180D01*
X017929Y018091D02*
X017909Y018091D01*
X017909Y017932D02*
X017929Y017932D01*
X017929Y017774D02*
X017909Y017774D01*
X017909Y017615D02*
X017929Y017615D01*
X017929Y017457D02*
X017909Y017457D01*
X017909Y017298D02*
X017929Y017298D01*
X018133Y017298D02*
X018144Y017298D01*
X018379Y017615D02*
X018403Y017615D01*
X018379Y017774D02*
X018439Y017774D01*
X018439Y017932D02*
X018373Y017932D01*
X018580Y018249D02*
X019210Y018249D01*
X019210Y018408D02*
X018724Y018408D01*
X018704Y018377D02*
X018704Y018377D01*
X018760Y018481D02*
X018760Y018481D01*
X018844Y018565D02*
X018844Y018565D01*
X018845Y018566D02*
X019210Y018566D01*
X019210Y018725D02*
X018864Y018725D01*
X018840Y018815D02*
X018840Y018815D01*
X018772Y018883D02*
X019210Y018883D01*
X019210Y019042D02*
X018634Y019042D01*
X018623Y019052D02*
X018623Y019052D01*
X018564Y019085D02*
X018564Y019085D01*
X018563Y019084D02*
X018563Y019084D01*
X018580Y019105D02*
X018580Y019105D01*
X018624Y019165D02*
X018624Y019165D01*
X018651Y019200D02*
X019210Y019200D01*
X019210Y019359D02*
X018768Y019359D01*
X018744Y019325D02*
X018744Y019325D01*
X018728Y019305D02*
X018728Y019305D01*
X018684Y019245D02*
X018684Y019245D01*
X018668Y019225D02*
X018668Y019225D01*
X018740Y018935D02*
X018740Y018935D01*
X018756Y018915D02*
X018756Y018915D01*
X018768Y019517D02*
X019210Y019517D01*
X018764Y019535D02*
X018764Y019535D01*
X017696Y018481D02*
X017696Y018481D01*
X017732Y018408D02*
X017145Y018408D01*
X017145Y018566D02*
X017611Y018566D01*
X017592Y018601D02*
X017592Y018601D01*
X017752Y018377D02*
X017752Y018377D01*
X017876Y018249D02*
X017044Y018249D01*
X016885Y018091D02*
X017624Y018091D01*
X017466Y017932D02*
X016727Y017932D01*
X016390Y017932D02*
X016290Y017932D01*
X016290Y018091D02*
X016390Y018091D01*
X016390Y018249D02*
X016290Y018249D01*
X016290Y018408D02*
X016390Y018408D01*
X016390Y018566D02*
X016290Y018566D01*
X016290Y018883D02*
X016390Y018883D01*
X016390Y019042D02*
X016290Y019042D01*
X016290Y019200D02*
X016390Y019200D01*
X016390Y019359D02*
X016290Y019359D01*
X015877Y019359D02*
X014864Y019359D01*
X015023Y019200D02*
X015718Y019200D01*
X015560Y019042D02*
X015181Y019042D01*
X015197Y018883D02*
X015535Y018883D01*
X018377Y016028D02*
X018456Y016106D01*
X018456Y016106D01*
X018661Y016311D01*
X018662Y016314D01*
X018720Y016255D01*
X019118Y016255D01*
X019210Y016347D01*
X019210Y016347D01*
X019210Y016123D01*
X019118Y016215D01*
X018720Y016215D01*
X018439Y015934D01*
X018439Y015536D01*
X018720Y015255D01*
X019118Y015255D01*
X019210Y015347D01*
X019210Y015123D01*
X019118Y015215D01*
X018720Y015215D01*
X018439Y014934D01*
X018439Y014536D01*
X018720Y014255D01*
X019118Y014255D01*
X019210Y014347D01*
X019210Y014123D01*
X019118Y014215D01*
X018720Y014215D01*
X018439Y013934D01*
X018439Y013536D01*
X018720Y013255D01*
X019118Y013255D01*
X019210Y013347D01*
X019210Y013123D01*
X019118Y013215D01*
X018720Y013215D01*
X018439Y012934D01*
X018439Y012536D01*
X018501Y012475D01*
X018464Y012490D01*
X018353Y012490D01*
X018399Y012536D01*
X018399Y012934D01*
X018118Y013215D01*
X017720Y013215D01*
X017439Y012934D01*
X017439Y012536D01*
X017485Y012490D01*
X016522Y012490D01*
X016005Y013007D01*
X015913Y013045D01*
X015208Y013045D01*
X015244Y013081D01*
X015301Y013220D01*
X015301Y013370D01*
X015244Y013509D01*
X015243Y013510D01*
X015243Y014172D01*
X015716Y014645D01*
X015716Y013724D01*
X015833Y013606D01*
X016120Y013606D01*
X016120Y013485D01*
X016178Y013346D01*
X016284Y013239D01*
X016423Y013182D01*
X016574Y013182D01*
X016713Y013239D01*
X016819Y013346D01*
X016876Y013485D01*
X016876Y013606D01*
X016944Y013606D01*
X017061Y013724D01*
X017061Y014834D01*
X016944Y014951D01*
X015977Y014951D01*
X015993Y014991D01*
X015993Y015339D01*
X016944Y015339D01*
X017061Y015456D01*
X017061Y015985D01*
X017490Y015985D01*
X017439Y015934D01*
X017439Y015536D01*
X017720Y015255D01*
X018118Y015255D01*
X018399Y015536D01*
X018399Y015934D01*
X018326Y016007D01*
X018377Y016028D01*
X018379Y016030D02*
X018535Y016030D01*
X018538Y016189D02*
X018694Y016189D01*
X018439Y015872D02*
X018399Y015872D01*
X018399Y015713D02*
X018439Y015713D01*
X018439Y015555D02*
X018399Y015555D01*
X018259Y015396D02*
X018579Y015396D01*
X018584Y015079D02*
X018254Y015079D01*
X018118Y015215D02*
X017720Y015215D01*
X017439Y014934D01*
X017439Y014536D01*
X017720Y014255D01*
X018118Y014255D01*
X018399Y014536D01*
X018399Y014934D01*
X018118Y015215D01*
X018399Y014921D02*
X018439Y014921D01*
X018439Y014762D02*
X018399Y014762D01*
X018399Y014604D02*
X018439Y014604D01*
X018530Y014445D02*
X018308Y014445D01*
X018149Y014287D02*
X018689Y014287D01*
X018633Y014128D02*
X018205Y014128D01*
X018118Y014215D02*
X017720Y014215D01*
X017439Y013934D01*
X017439Y013536D01*
X017720Y013255D01*
X018118Y013255D01*
X018399Y013536D01*
X018399Y013934D01*
X018118Y014215D01*
X018364Y013970D02*
X018475Y013970D01*
X018439Y013811D02*
X018399Y013811D01*
X018399Y013653D02*
X018439Y013653D01*
X018481Y013494D02*
X018357Y013494D01*
X018198Y013336D02*
X018640Y013336D01*
X018682Y013177D02*
X018156Y013177D01*
X018315Y013019D02*
X018524Y013019D01*
X018439Y012860D02*
X018399Y012860D01*
X018399Y012702D02*
X018439Y012702D01*
X018439Y012543D02*
X018399Y012543D01*
X018753Y012255D02*
X018793Y012215D01*
X019118Y012215D01*
X019210Y012123D01*
X019210Y012347D01*
X019118Y012255D01*
X018753Y012255D01*
X018782Y012226D02*
X019210Y012226D01*
X018542Y011434D02*
X018296Y011434D01*
X018399Y011536D02*
X018118Y011255D01*
X017720Y011255D01*
X017479Y011497D01*
X017159Y011497D01*
X017159Y011295D01*
X017042Y011178D01*
X015885Y011178D01*
X015834Y011056D01*
X015828Y011050D01*
X017555Y011050D01*
X017720Y011215D01*
X018118Y011215D01*
X018399Y010934D01*
X018399Y010699D01*
X018439Y010739D01*
X018439Y010934D01*
X018720Y011215D01*
X019118Y011215D01*
X019210Y011123D01*
X019210Y011347D01*
X019118Y011255D01*
X018720Y011255D01*
X018439Y011536D01*
X018439Y011862D01*
X018399Y011902D01*
X018399Y011536D01*
X018399Y011592D02*
X018439Y011592D01*
X018439Y011751D02*
X018399Y011751D01*
X017919Y011735D02*
X017907Y011747D01*
X017542Y011434D02*
X017159Y011434D01*
X017139Y011275D02*
X017700Y011275D01*
X017622Y011117D02*
X015859Y011117D01*
X015586Y010550D02*
X017439Y010550D01*
X017439Y010536D01*
X017470Y010505D01*
X017464Y010505D01*
X017372Y010467D01*
X017070Y010165D01*
X015617Y010165D01*
X015643Y010229D01*
X015643Y010411D01*
X015586Y010550D01*
X015614Y010483D02*
X017409Y010483D01*
X017229Y010324D02*
X015643Y010324D01*
X015617Y010166D02*
X017070Y010166D01*
X017439Y009827D02*
X017315Y009703D01*
X017223Y009665D01*
X015715Y009665D01*
X015715Y009401D01*
X015742Y009421D01*
X015809Y009455D01*
X015881Y009478D01*
X015956Y009490D01*
X016273Y009490D01*
X016273Y009030D01*
X016273Y008990D01*
X015533Y008990D01*
X015435Y009031D01*
X015306Y009031D01*
X015306Y009068D01*
X015517Y009068D01*
X015513Y009048D01*
X015513Y009030D01*
X016273Y009030D01*
X016313Y009030D01*
X016313Y009490D01*
X016631Y009490D01*
X016706Y009478D01*
X016778Y009455D01*
X016845Y009421D01*
X016906Y009376D01*
X016959Y009323D01*
X017004Y009262D01*
X017038Y009194D01*
X017062Y009122D01*
X017073Y009048D01*
X017073Y009030D01*
X016313Y009030D01*
X016313Y008990D01*
X017073Y008990D01*
X017073Y008972D01*
X017062Y008898D01*
X017038Y008826D01*
X017004Y008758D01*
X016959Y008697D01*
X016906Y008644D01*
X016845Y008599D01*
X016778Y008565D01*
X016777Y008565D01*
X016803Y008565D01*
X016803Y008105D01*
X016873Y008105D01*
X016803Y008105D01*
X016838Y008070D02*
X016838Y008465D01*
X016293Y009010D01*
X016273Y009056D02*
X016313Y009056D01*
X016313Y009215D02*
X016273Y009215D01*
X016273Y009373D02*
X016313Y009373D01*
X016909Y009373D02*
X017602Y009373D01*
X017720Y009255D02*
X017439Y009536D01*
X017439Y009827D01*
X017439Y009690D02*
X017283Y009690D01*
X017444Y009532D02*
X015715Y009532D01*
X015515Y009056D02*
X015306Y009056D01*
X015360Y008652D02*
X015159Y008652D01*
X014057Y007550D01*
X014372Y007235D01*
X014960Y007235D01*
X014964Y007240D01*
X015433Y007240D01*
X015508Y007165D01*
X015508Y006675D01*
X015439Y006605D01*
X014960Y006605D01*
X014960Y006290D02*
X014960Y006290D01*
X014995Y006255D01*
X014960Y006290D02*
X013848Y006290D01*
X013563Y006575D01*
X013626Y006638D01*
X013908Y006920D01*
X014960Y006920D01*
X014944Y006904D01*
X014960Y006920D02*
X014530Y006920D01*
X014530Y006818D01*
X014510Y006798D01*
X014510Y006412D01*
X014530Y006392D01*
X014530Y006290D01*
X014530Y006188D01*
X014510Y006168D01*
X014510Y005910D01*
X013342Y005910D01*
X013036Y006215D01*
X013036Y006315D01*
X012979Y006454D01*
X012873Y006561D01*
X012734Y006618D01*
X012583Y006618D01*
X012444Y006561D01*
X012338Y006454D01*
X012280Y006315D01*
X012280Y006165D01*
X012338Y006026D01*
X012444Y005919D01*
X012583Y005862D01*
X012683Y005862D01*
X013022Y005523D01*
X012030Y005523D01*
X012030Y006483D01*
X012010Y006503D01*
X012010Y006605D01*
X011580Y006605D01*
X011580Y006605D01*
X012010Y006605D01*
X012010Y006707D01*
X012030Y006727D01*
X012030Y007010D01*
X012042Y006998D01*
X012134Y006960D01*
X014304Y006960D01*
X014316Y006955D01*
X014530Y006955D01*
X014530Y006920D01*
X014960Y006920D01*
X014960Y006920D01*
X014530Y006837D02*
X012030Y006837D01*
X012030Y006996D02*
X012048Y006996D01*
X012010Y006679D02*
X014510Y006679D01*
X014510Y006520D02*
X012913Y006520D01*
X013017Y006362D02*
X014530Y006362D01*
X014530Y006290D02*
X014960Y006290D01*
X014281Y006290D01*
X014530Y006290D02*
X014960Y006290D01*
X014530Y006203D02*
X013049Y006203D01*
X013207Y006045D02*
X014510Y006045D01*
X013918Y006610D02*
X013653Y006610D01*
X013563Y006575D02*
X013533Y006605D01*
X011580Y006605D01*
X011150Y006605D01*
X011150Y006503D01*
X011130Y006483D01*
X011130Y006434D01*
X011119Y006445D01*
X011119Y006909D01*
X011002Y007026D01*
X010614Y007026D01*
X010888Y007300D01*
X011130Y007300D01*
X011130Y007113D01*
X011130Y006727D01*
X011150Y006707D01*
X011150Y006605D01*
X011580Y006605D01*
X011580Y006605D01*
X011150Y006679D02*
X011119Y006679D01*
X011119Y006837D02*
X011130Y006837D01*
X011130Y006996D02*
X011033Y006996D01*
X011130Y007154D02*
X010742Y007154D01*
X010888Y007300D02*
X010888Y007300D01*
X011580Y007550D02*
X014057Y007550D01*
X015078Y008175D02*
X015209Y008306D01*
X015285Y008274D01*
X015435Y008274D01*
X015574Y008332D01*
X015681Y008438D01*
X015738Y008577D01*
X015738Y008602D01*
X015742Y008599D01*
X015809Y008565D01*
X015881Y008542D01*
X015882Y008542D01*
X015808Y008468D01*
X015808Y008115D01*
X015352Y008115D01*
X015292Y008175D01*
X015078Y008175D01*
X015166Y008264D02*
X015808Y008264D01*
X015808Y008422D02*
X015664Y008422D01*
X015738Y008581D02*
X015779Y008581D01*
X014768Y008657D02*
X014682Y008571D01*
X014682Y008712D01*
X014714Y008679D01*
X014768Y008657D01*
X014691Y008581D02*
X014682Y008581D01*
X013668Y009653D02*
X013600Y009586D01*
X013530Y009515D01*
X013506Y009458D01*
X013506Y009495D01*
X013449Y009634D01*
X013358Y009725D01*
X013594Y009725D01*
X013664Y009654D01*
X013668Y009653D01*
X013629Y009690D02*
X013393Y009690D01*
X013491Y009532D02*
X013546Y009532D01*
X012925Y010085D02*
X012861Y010085D01*
X012861Y010022D01*
X012925Y010085D01*
X012068Y011117D02*
X012034Y011117D01*
X012035Y011275D02*
X011876Y011275D01*
X011717Y011434D02*
X012072Y011434D01*
X012203Y011592D02*
X010796Y011592D01*
X010759Y011751D02*
X012200Y011751D01*
X012225Y011909D02*
X010624Y011909D01*
X010555Y012068D02*
X011078Y012068D01*
X011449Y012068D02*
X012336Y012068D01*
X012319Y012226D02*
X012655Y012226D01*
X013289Y012773D02*
X013315Y012800D01*
X013289Y012860D02*
X013289Y012860D01*
X013289Y013019D02*
X013289Y013019D01*
X013289Y013177D02*
X013289Y013177D01*
X013289Y013273D02*
X013289Y013273D01*
X013289Y013273D01*
X013289Y013336D02*
X013289Y013336D01*
X013289Y013494D02*
X013289Y013494D01*
X013289Y013653D02*
X013289Y013653D01*
X013289Y013773D02*
X012675Y013773D01*
X013289Y013773D01*
X013289Y013773D01*
X013289Y013773D01*
X013289Y014273D01*
X013992Y014273D01*
X013998Y014280D01*
X013902Y014287D02*
X014603Y014287D01*
X014603Y014128D02*
X013901Y014128D01*
X013884Y013970D02*
X014603Y013970D01*
X014603Y013811D02*
X013902Y013811D01*
X013902Y013653D02*
X014603Y013653D01*
X014597Y013494D02*
X013870Y013494D01*
X013902Y013336D02*
X014545Y013336D01*
X014563Y013177D02*
X013902Y013177D01*
X013849Y013019D02*
X014665Y013019D01*
X014575Y012860D02*
X013902Y012860D01*
X013289Y013811D02*
X013289Y013811D01*
X013289Y013970D02*
X013289Y013970D01*
X013289Y014128D02*
X013289Y014128D01*
X013285Y014270D02*
X012513Y014270D01*
X012338Y014095D01*
X011793Y014095D01*
X011615Y014273D01*
X009667Y014273D01*
X009053Y014273D01*
X009667Y014273D01*
X009667Y014128D02*
X009667Y014128D01*
X009667Y013970D02*
X009667Y013970D01*
X009667Y013811D02*
X009667Y013811D01*
X009667Y013773D02*
X009053Y013773D01*
X009053Y013811D02*
X008577Y013811D01*
X008577Y013970D02*
X009071Y013970D01*
X009054Y014128D02*
X008577Y014128D01*
X008722Y014287D02*
X009053Y014287D01*
X009061Y014445D02*
X008963Y014445D01*
X009033Y014792D02*
X009033Y014949D01*
X008966Y014922D01*
X008989Y014899D01*
X009033Y014792D01*
X009033Y014921D02*
X008968Y014921D01*
X007904Y014335D02*
X007673Y014510D01*
X007628Y015238D02*
X007628Y015238D01*
X007628Y015396D02*
X007628Y015396D01*
X007628Y015520D02*
X007628Y015520D01*
X006978Y015713D02*
X006481Y015713D01*
X005643Y013494D02*
X005357Y013494D01*
X005382Y013387D02*
X005382Y013387D01*
X005433Y013336D02*
X005538Y013336D01*
X004919Y012735D02*
X005559Y012095D01*
X005399Y011909D02*
X005735Y011909D01*
X005633Y011751D02*
X005399Y011751D01*
X005266Y012068D02*
X007871Y012068D01*
X007679Y012095D02*
X007679Y011232D01*
X007631Y011275D02*
X007093Y011275D01*
X007093Y011117D02*
X007243Y011117D01*
X007243Y010958D02*
X007039Y010958D01*
X006970Y010800D02*
X007306Y010800D01*
X008001Y010768D02*
X008005Y010769D01*
X008037Y010788D01*
X008089Y010736D01*
X008410Y010736D01*
X008410Y010735D01*
X008468Y010596D01*
X008574Y010489D01*
X008713Y010432D01*
X008864Y010432D01*
X009003Y010489D01*
X009109Y010596D01*
X009166Y010735D01*
X009166Y010774D01*
X009188Y010826D01*
X009188Y010870D01*
X009410Y010870D01*
X009385Y010810D01*
X009385Y010660D01*
X009443Y010521D01*
X009549Y010414D01*
X009688Y010357D01*
X009701Y010357D01*
X009655Y010245D01*
X009655Y010095D01*
X009713Y009956D01*
X009754Y009915D01*
X009647Y009871D01*
X009541Y009764D01*
X009483Y009625D01*
X009483Y009475D01*
X009527Y009370D01*
X009113Y009370D01*
X009021Y009332D01*
X008905Y009216D01*
X008905Y009896D01*
X008787Y010013D01*
X008225Y010013D01*
X008274Y010061D01*
X008343Y010229D01*
X008343Y010411D01*
X008274Y010579D01*
X008145Y010708D01*
X008001Y010768D01*
X008212Y010641D02*
X008449Y010641D01*
X008314Y010483D02*
X008591Y010483D01*
X008343Y010324D02*
X009688Y010324D01*
X009655Y010166D02*
X008317Y010166D01*
X008793Y010007D02*
X009692Y010007D01*
X009625Y009849D02*
X008905Y009849D01*
X008905Y009690D02*
X009510Y009690D01*
X009483Y009532D02*
X008905Y009532D01*
X008905Y009373D02*
X009526Y009373D01*
X009732Y008870D02*
X010044Y008870D01*
X009888Y008714D01*
X009888Y008360D01*
X009888Y008360D01*
X009888Y008714D01*
X009732Y008870D01*
X009863Y008739D02*
X009913Y008739D01*
X009888Y008581D02*
X009888Y008581D01*
X009888Y008422D02*
X009888Y008422D01*
X009534Y008007D02*
X009241Y008007D01*
X009534Y008007D01*
X009534Y008007D01*
X009872Y007730D02*
X009904Y007730D01*
X009888Y007714D01*
X009888Y007360D01*
X009888Y007360D01*
X009888Y007714D01*
X009872Y007730D01*
X009888Y007630D02*
X009888Y007630D01*
X009888Y007471D02*
X009888Y007471D01*
X009534Y007007D02*
X009447Y007007D01*
X009545Y006909D01*
X009545Y006310D01*
X009427Y006193D01*
X008721Y006193D01*
X008721Y006022D01*
X008166Y006022D01*
X008166Y005868D01*
X008721Y005868D01*
X008721Y005687D01*
X009427Y005687D01*
X009545Y005570D01*
X009545Y004971D01*
X009427Y004854D01*
X008958Y004854D01*
X009007Y004805D01*
X011255Y004805D01*
X011255Y004900D01*
X011287Y004977D01*
X011223Y005003D01*
X011116Y005110D01*
X011099Y005150D01*
X011099Y005030D01*
X011087Y004985D01*
X011063Y004944D01*
X011030Y004910D01*
X010989Y004886D01*
X010943Y004874D01*
X010554Y004874D01*
X010554Y005242D01*
X010497Y005242D01*
X009952Y005242D01*
X009952Y005030D01*
X009964Y004985D01*
X009988Y004944D01*
X010022Y004910D01*
X010063Y004886D01*
X010108Y004874D01*
X010497Y004874D01*
X010497Y005242D01*
X010497Y005299D01*
X009952Y005299D01*
X009952Y005511D01*
X009916Y005547D01*
X009916Y006343D01*
X009932Y006359D01*
X009932Y006609D01*
X009534Y007007D01*
X009545Y006996D02*
X009458Y006996D01*
X009545Y006837D02*
X009704Y006837D01*
X009862Y006679D02*
X009545Y006679D01*
X009545Y006520D02*
X009932Y006520D01*
X009932Y006362D02*
X009545Y006362D01*
X009438Y006203D02*
X009916Y006203D01*
X009916Y006045D02*
X008721Y006045D01*
X008721Y005728D02*
X009916Y005728D01*
X009916Y005886D02*
X008166Y005886D01*
X008011Y005886D02*
X007686Y005886D01*
X007694Y005868D02*
X007665Y005937D01*
X007595Y006007D01*
X007579Y006022D01*
X008011Y006022D01*
X008011Y005868D01*
X007694Y005868D01*
X007455Y006146D02*
X007400Y006202D01*
X007308Y006240D01*
X007196Y006240D01*
X007182Y006273D01*
X007042Y006414D01*
X006858Y006490D01*
X006059Y006490D01*
X005953Y006446D01*
X005953Y008556D01*
X005974Y008545D01*
X006046Y008522D01*
X006121Y008510D01*
X006438Y008510D01*
X006438Y008970D01*
X006478Y008970D01*
X006478Y008510D01*
X006796Y008510D01*
X006871Y008522D01*
X006943Y008545D01*
X007010Y008579D01*
X007071Y008624D01*
X007124Y008677D01*
X007169Y008738D01*
X007198Y008797D01*
X007228Y008726D01*
X007334Y008619D01*
X007363Y008607D01*
X007170Y008607D01*
X007052Y008490D01*
X007052Y007852D01*
X007147Y007758D01*
X007052Y007664D01*
X007052Y007309D01*
X007044Y007318D01*
X007044Y007585D01*
X006992Y007636D01*
X007011Y007669D01*
X007024Y007714D01*
X007024Y007946D01*
X006596Y007946D01*
X006596Y008042D01*
X006500Y008042D01*
X006500Y007946D01*
X006073Y007946D01*
X006073Y007714D01*
X006085Y007669D01*
X006104Y007636D01*
X006053Y007585D01*
X006053Y006907D01*
X006170Y006790D01*
X006865Y006790D01*
X006950Y006705D01*
X006950Y006605D01*
X007008Y006466D01*
X007114Y006359D01*
X007253Y006302D01*
X007353Y006302D01*
X007397Y006258D01*
X007455Y006234D01*
X007455Y006146D01*
X007455Y006203D02*
X007397Y006203D01*
X007112Y006362D02*
X007094Y006362D01*
X006985Y006520D02*
X005953Y006520D01*
X005953Y006679D02*
X006950Y006679D01*
X007049Y007313D02*
X007052Y007313D01*
X007044Y007471D02*
X007052Y007471D01*
X007052Y007630D02*
X006999Y007630D01*
X007024Y007788D02*
X007117Y007788D01*
X007052Y007947D02*
X006596Y007947D01*
X006596Y008042D02*
X007024Y008042D01*
X007024Y008274D01*
X007011Y008319D01*
X006988Y008360D01*
X006954Y008394D01*
X006913Y008418D01*
X006867Y008430D01*
X006596Y008430D01*
X006596Y008042D01*
X006596Y008105D02*
X006500Y008105D01*
X006500Y008042D02*
X006500Y008430D01*
X006229Y008430D01*
X006184Y008418D01*
X006143Y008394D01*
X006109Y008360D01*
X006085Y008319D01*
X006073Y008274D01*
X006073Y008042D01*
X006500Y008042D01*
X006500Y007947D02*
X005953Y007947D01*
X005953Y008105D02*
X006073Y008105D01*
X006073Y008264D02*
X005953Y008264D01*
X005953Y008422D02*
X006200Y008422D01*
X006438Y008581D02*
X006478Y008581D01*
X006478Y008739D02*
X006438Y008739D01*
X006438Y008898D02*
X006478Y008898D01*
X006500Y008422D02*
X006596Y008422D01*
X006596Y008264D02*
X006500Y008264D01*
X006897Y008422D02*
X007052Y008422D01*
X007052Y008264D02*
X007024Y008264D01*
X007024Y008105D02*
X007052Y008105D01*
X007011Y008581D02*
X007143Y008581D01*
X007169Y008739D02*
X007222Y008739D01*
X007218Y009130D02*
X007203Y009174D01*
X007169Y009242D01*
X007124Y009303D01*
X007071Y009356D01*
X007010Y009401D01*
X006943Y009435D01*
X006871Y009458D01*
X006796Y009470D01*
X006697Y009470D01*
X007145Y009918D01*
X007245Y009877D01*
X007245Y009171D01*
X007228Y009154D01*
X007218Y009130D01*
X007245Y009215D02*
X007183Y009215D01*
X007245Y009373D02*
X007048Y009373D01*
X007245Y009532D02*
X006758Y009532D01*
X006917Y009690D02*
X007245Y009690D01*
X007245Y009849D02*
X007075Y009849D01*
X006009Y009446D02*
X005974Y009435D01*
X005953Y009424D01*
X005953Y009483D01*
X005990Y009446D01*
X006009Y009446D01*
X004720Y009215D02*
X004673Y009215D01*
X004173Y009215D02*
X004119Y009215D01*
X004118Y009215D02*
X004173Y009160D01*
X004173Y009310D01*
X004118Y009255D01*
X003720Y009255D01*
X003628Y009347D01*
X003628Y009123D01*
X003720Y009215D01*
X004118Y009215D01*
X003720Y009215D02*
X003628Y009215D01*
X003628Y008347D02*
X003720Y008255D01*
X004118Y008255D01*
X004173Y008310D01*
X004173Y008160D01*
X004118Y008215D01*
X003720Y008215D01*
X003628Y008123D01*
X003628Y008347D01*
X003628Y008264D02*
X003712Y008264D01*
X004126Y008264D02*
X004173Y008264D01*
X004673Y008264D02*
X004712Y008264D01*
X004173Y007310D02*
X004173Y007160D01*
X004118Y007215D01*
X003720Y007215D01*
X003628Y007123D01*
X003628Y007347D01*
X003720Y007255D01*
X004118Y007255D01*
X004173Y007310D01*
X003663Y007313D02*
X003628Y007313D01*
X003628Y007154D02*
X003659Y007154D01*
X003628Y006347D02*
X003720Y006255D01*
X004118Y006255D01*
X004173Y006310D01*
X004173Y006160D01*
X004118Y006215D01*
X003720Y006215D01*
X003628Y006123D01*
X003628Y006347D01*
X003628Y006203D02*
X003708Y006203D01*
X004130Y006203D02*
X004173Y006203D01*
X004673Y006203D02*
X004708Y006203D01*
X005953Y006837D02*
X006123Y006837D01*
X006053Y006996D02*
X005953Y006996D01*
X005953Y007154D02*
X006053Y007154D01*
X006053Y007313D02*
X005953Y007313D01*
X005953Y007471D02*
X006053Y007471D01*
X006098Y007630D02*
X005953Y007630D01*
X005953Y007788D02*
X006073Y007788D01*
X007734Y008607D02*
X007763Y008619D01*
X007869Y008726D01*
X007926Y008865D01*
X007926Y008983D01*
X008039Y008983D01*
X008075Y009018D01*
X008110Y008983D01*
X008138Y008983D01*
X008138Y008964D01*
X007888Y008714D01*
X007888Y008527D01*
X007808Y008607D01*
X007734Y008607D01*
X007835Y008581D02*
X007888Y008581D01*
X007874Y008739D02*
X007913Y008739D01*
X007926Y008898D02*
X008071Y008898D01*
X008638Y008964D02*
X008638Y008983D01*
X008676Y008983D01*
X008659Y008942D01*
X008638Y008964D01*
X009241Y008007D02*
X009241Y008007D01*
X008888Y007653D02*
X008888Y007300D01*
X009162Y007026D01*
X008561Y007026D01*
X008561Y007027D01*
X008587Y007027D01*
X008868Y007308D01*
X008868Y007487D01*
X008408Y007487D01*
X008408Y007527D01*
X008868Y007527D01*
X008868Y007673D01*
X008888Y007653D01*
X008888Y007630D02*
X008868Y007630D01*
X008868Y007471D02*
X008888Y007471D01*
X008888Y007313D02*
X008868Y007313D01*
X008714Y007154D02*
X009033Y007154D01*
X008368Y007487D02*
X007925Y007487D01*
X007925Y007527D01*
X008368Y007527D01*
X008368Y007487D01*
X008052Y007164D02*
X008031Y007156D01*
X007925Y007262D01*
X007925Y007291D01*
X008052Y007164D01*
X007694Y006786D02*
X007760Y006720D01*
X007706Y006720D01*
X007706Y006755D01*
X007694Y006786D01*
X007908Y007681D02*
X007831Y007758D01*
X007925Y007852D01*
X007925Y007921D01*
X007934Y007921D01*
X007991Y007863D01*
X008028Y007826D01*
X007908Y007706D01*
X007908Y007681D01*
X007861Y007788D02*
X007990Y007788D01*
X006750Y005490D02*
X006059Y005490D01*
X005953Y005534D01*
X005953Y005446D01*
X006059Y005490D01*
X006750Y005490D01*
X006750Y005490D01*
X009545Y005569D02*
X009916Y005569D01*
X009952Y005411D02*
X009545Y005411D01*
X009545Y005252D02*
X010497Y005252D01*
X010497Y005299D02*
X010497Y005430D01*
X010554Y005430D01*
X010554Y005299D01*
X010497Y005299D01*
X010554Y005299D02*
X011059Y005299D01*
X011059Y005248D01*
X011061Y005242D01*
X010554Y005242D01*
X010554Y005299D01*
X010554Y005252D02*
X011059Y005252D01*
X011099Y005094D02*
X011132Y005094D01*
X011055Y004935D02*
X011270Y004935D01*
X011783Y005172D02*
X011815Y005248D01*
X011815Y005350D01*
X011857Y005350D01*
X011857Y005136D01*
X011848Y005146D01*
X011783Y005172D01*
X011815Y005252D02*
X011857Y005252D01*
X012030Y005569D02*
X012976Y005569D01*
X012817Y005728D02*
X012030Y005728D01*
X012030Y005886D02*
X012525Y005886D01*
X012330Y006045D02*
X012030Y006045D01*
X012030Y006203D02*
X012280Y006203D01*
X012299Y006362D02*
X012030Y006362D01*
X012010Y006520D02*
X012404Y006520D01*
X011150Y006520D02*
X011119Y006520D01*
X010554Y005411D02*
X010497Y005411D01*
X010497Y005094D02*
X010554Y005094D01*
X010554Y004935D02*
X010497Y004935D01*
X009997Y004935D02*
X009508Y004935D01*
X009545Y005094D02*
X009952Y005094D01*
X010072Y003230D02*
X013178Y003230D01*
X013221Y003248D01*
X013253Y003171D01*
X013359Y003064D01*
X013367Y003061D01*
X011491Y003061D01*
X011421Y003132D01*
X011282Y003189D01*
X011131Y003189D01*
X010992Y003132D01*
X010898Y003037D01*
X010809Y003126D01*
X010671Y003183D01*
X010520Y003183D01*
X010381Y003126D01*
X010311Y003055D01*
X010247Y003055D01*
X010072Y003230D01*
X010110Y003192D02*
X013244Y003192D01*
X013731Y003729D02*
X013736Y003734D01*
X013740Y003725D01*
X013731Y003729D01*
X013897Y003592D02*
X013920Y003535D01*
X014191Y003535D01*
X014235Y003579D01*
X014235Y003594D01*
X014139Y003554D01*
X013988Y003554D01*
X013897Y003592D01*
X014408Y003061D02*
X014436Y003073D01*
X014589Y003226D01*
X014964Y003226D01*
X015265Y003528D01*
X015265Y003954D01*
X015054Y004166D01*
X015336Y004166D01*
X015453Y004283D01*
X015453Y004381D01*
X015561Y004273D01*
X015493Y004109D01*
X015493Y003911D01*
X015569Y003727D01*
X015710Y003586D01*
X015894Y003510D01*
X016693Y003510D01*
X016877Y003586D01*
X017017Y003727D01*
X017093Y003911D01*
X017093Y004109D01*
X017041Y004235D01*
X017110Y004235D01*
X017318Y004027D01*
X017410Y003989D01*
X017494Y003989D01*
X017439Y003934D01*
X017439Y003536D01*
X017513Y003462D01*
X017467Y003443D01*
X017396Y003373D01*
X016458Y002435D01*
X015102Y002435D01*
X014514Y003023D01*
X014422Y003061D01*
X014408Y003061D01*
X014490Y003033D02*
X017056Y003033D01*
X016898Y002875D02*
X014662Y002875D01*
X014821Y002716D02*
X016739Y002716D01*
X016581Y002558D02*
X014979Y002558D01*
X014623Y002206D02*
X014644Y002186D01*
X014623Y002186D01*
X014623Y002206D01*
X014555Y003192D02*
X017215Y003192D01*
X017373Y003350D02*
X015088Y003350D01*
X015246Y003509D02*
X017467Y003509D01*
X017439Y003667D02*
X016957Y003667D01*
X017058Y003826D02*
X017439Y003826D01*
X017489Y003984D02*
X017093Y003984D01*
X017080Y004143D02*
X017202Y004143D01*
X017439Y004613D02*
X017439Y004902D01*
X017336Y004798D01*
X017244Y004760D01*
X017031Y004760D01*
X017021Y004735D01*
X017263Y004735D01*
X017355Y004697D01*
X017425Y004627D01*
X017439Y004613D01*
X017439Y004618D02*
X017434Y004618D01*
X017439Y004777D02*
X017284Y004777D01*
X017091Y005260D02*
X017031Y005260D01*
X017017Y005293D01*
X016877Y005434D01*
X016693Y005510D01*
X016877Y005586D01*
X017017Y005727D01*
X017093Y005911D01*
X017093Y006109D01*
X017021Y006284D01*
X017211Y006093D01*
X017282Y006023D01*
X017374Y005985D01*
X017490Y005985D01*
X017439Y005934D01*
X017439Y005609D01*
X017091Y005260D01*
X017241Y005411D02*
X016900Y005411D01*
X016835Y005569D02*
X017400Y005569D01*
X017439Y005728D02*
X017018Y005728D01*
X017083Y005886D02*
X017439Y005886D01*
X017260Y006045D02*
X017093Y006045D01*
X017102Y006203D02*
X017055Y006203D01*
X017439Y006573D02*
X017215Y006797D01*
X017215Y006797D01*
X017222Y006804D01*
X017246Y006846D01*
X017258Y006891D01*
X017258Y007195D01*
X016883Y007195D01*
X016883Y007265D01*
X016813Y007265D01*
X016813Y007725D01*
X016803Y007725D01*
X016803Y008035D01*
X016873Y008035D01*
X016873Y007575D01*
X016883Y007575D01*
X016883Y007265D01*
X017258Y007265D01*
X017258Y007569D01*
X017246Y007614D01*
X017222Y007656D01*
X017220Y007658D01*
X017236Y007686D01*
X017248Y007731D01*
X017248Y008035D01*
X016873Y008035D01*
X016873Y008105D01*
X016873Y008565D01*
X017092Y008565D01*
X017138Y008553D01*
X017179Y008529D01*
X017212Y008496D01*
X017236Y008454D01*
X017248Y008409D01*
X017248Y008105D01*
X017639Y008105D01*
X017729Y008195D02*
X017459Y007926D01*
X017459Y007745D01*
X017909Y007745D01*
X017909Y007725D01*
X017459Y007725D01*
X017459Y007545D01*
X017729Y007275D01*
X017909Y007275D01*
X017909Y007725D01*
X017929Y007725D01*
X017929Y007275D01*
X018110Y007275D01*
X018158Y007324D01*
X018158Y007175D01*
X018118Y007215D01*
X017720Y007215D01*
X017439Y006934D01*
X017439Y006573D01*
X017439Y006679D02*
X017333Y006679D01*
X017241Y006837D02*
X017439Y006837D01*
X017501Y006996D02*
X017258Y006996D01*
X017258Y007154D02*
X017659Y007154D01*
X017691Y007313D02*
X017258Y007313D01*
X017258Y007471D02*
X017533Y007471D01*
X017459Y007630D02*
X017237Y007630D01*
X017248Y007788D02*
X017459Y007788D01*
X017480Y007947D02*
X017248Y007947D01*
X017248Y008105D02*
X016873Y008105D01*
X016838Y008070D02*
X016838Y007240D01*
X016848Y007230D01*
X016813Y007313D02*
X016883Y007313D01*
X016883Y007471D02*
X016813Y007471D01*
X016813Y007630D02*
X016873Y007630D01*
X016873Y007788D02*
X016803Y007788D01*
X016803Y007947D02*
X016873Y007947D01*
X016873Y008264D02*
X016803Y008264D01*
X016803Y008422D02*
X016873Y008422D01*
X016808Y008581D02*
X017439Y008581D01*
X017439Y008536D02*
X017720Y008255D01*
X018118Y008255D01*
X018158Y008295D01*
X018158Y008147D01*
X018110Y008195D01*
X017929Y008195D01*
X017929Y007745D01*
X017909Y007745D01*
X017909Y008195D01*
X017729Y008195D01*
X017712Y008264D02*
X017248Y008264D01*
X017245Y008422D02*
X017553Y008422D01*
X017439Y008536D02*
X017439Y008934D01*
X017720Y009215D01*
X018118Y009215D01*
X018158Y009175D01*
X018158Y009274D01*
X018174Y009311D01*
X018118Y009255D01*
X017720Y009255D01*
X017720Y009215D02*
X017028Y009215D01*
X017072Y009056D02*
X017561Y009056D01*
X017439Y008898D02*
X017061Y008898D01*
X016990Y008739D02*
X017439Y008739D01*
X017909Y008105D02*
X017929Y008105D01*
X017929Y007947D02*
X017909Y007947D01*
X017909Y007788D02*
X017929Y007788D01*
X017929Y007630D02*
X017909Y007630D01*
X017909Y007471D02*
X017929Y007471D01*
X017929Y007313D02*
X017909Y007313D01*
X018147Y007313D02*
X018158Y007313D01*
X018658Y007313D02*
X018663Y007313D01*
X018658Y007317D02*
X018720Y007255D01*
X019118Y007255D01*
X019210Y007347D01*
X019210Y007123D01*
X019118Y007215D01*
X018720Y007215D01*
X018658Y007153D01*
X018658Y007317D01*
X018658Y007154D02*
X018659Y007154D01*
X019179Y007154D02*
X019210Y007154D01*
X019210Y007313D02*
X019175Y007313D01*
X019210Y008123D02*
X019118Y008215D01*
X018720Y008215D01*
X018658Y008153D01*
X018658Y008317D01*
X018720Y008255D01*
X019118Y008255D01*
X019210Y008347D01*
X019210Y008123D01*
X019210Y008264D02*
X019126Y008264D01*
X018712Y008264D02*
X018658Y008264D01*
X018158Y008264D02*
X018126Y008264D01*
X018119Y009215D02*
X018158Y009215D01*
X018399Y009569D02*
X018399Y009934D01*
X018328Y010005D01*
X018358Y010005D01*
X018450Y010043D01*
X018520Y010113D01*
X018691Y010284D01*
X018720Y010255D01*
X019118Y010255D01*
X019210Y010347D01*
X019210Y010123D01*
X019118Y010215D01*
X018720Y010215D01*
X018439Y009934D01*
X018439Y009609D01*
X018399Y009569D01*
X018399Y009690D02*
X018439Y009690D01*
X018439Y009849D02*
X018399Y009849D01*
X018363Y010007D02*
X018512Y010007D01*
X018572Y010166D02*
X018671Y010166D01*
X019168Y010166D02*
X019210Y010166D01*
X019210Y010324D02*
X019187Y010324D01*
X018439Y010800D02*
X018399Y010800D01*
X018375Y010958D02*
X018463Y010958D01*
X018622Y011117D02*
X018217Y011117D01*
X018138Y011275D02*
X018700Y011275D01*
X019138Y011275D02*
X019210Y011275D01*
X017524Y013019D02*
X015977Y013019D01*
X016152Y012860D02*
X017439Y012860D01*
X017439Y012702D02*
X016310Y012702D01*
X016469Y012543D02*
X017439Y012543D01*
X017682Y013177D02*
X015284Y013177D01*
X015301Y013336D02*
X016188Y013336D01*
X016120Y013494D02*
X015250Y013494D01*
X015243Y013653D02*
X015787Y013653D01*
X015716Y013811D02*
X015243Y013811D01*
X015243Y013970D02*
X015716Y013970D01*
X015716Y014128D02*
X015243Y014128D01*
X015357Y014287D02*
X015716Y014287D01*
X015716Y014445D02*
X015516Y014445D01*
X015674Y014604D02*
X015716Y014604D01*
X015993Y015079D02*
X017584Y015079D01*
X017439Y014921D02*
X016974Y014921D01*
X017061Y014762D02*
X017439Y014762D01*
X017439Y014604D02*
X017061Y014604D01*
X017061Y014445D02*
X017530Y014445D01*
X017689Y014287D02*
X017061Y014287D01*
X017061Y014128D02*
X017633Y014128D01*
X017475Y013970D02*
X017061Y013970D01*
X017061Y013811D02*
X017439Y013811D01*
X017439Y013653D02*
X016990Y013653D01*
X016876Y013494D02*
X017481Y013494D01*
X017640Y013336D02*
X016809Y013336D01*
X015920Y012385D02*
X015793Y012385D01*
X015796Y012375D02*
X015739Y012514D01*
X015708Y012545D01*
X015760Y012545D01*
X016097Y012208D01*
X015816Y012208D01*
X015771Y012163D01*
X015796Y012225D01*
X015796Y012375D01*
X015796Y012226D02*
X016079Y012226D01*
X015699Y012046D02*
X015676Y012023D01*
X015699Y012023D01*
X015699Y012046D01*
X015710Y012543D02*
X015762Y012543D01*
X014186Y011523D02*
X014097Y011486D01*
X014007Y011396D01*
X013922Y011311D01*
X013922Y011474D01*
X013873Y011523D01*
X014186Y011523D01*
X014044Y011434D02*
X013922Y011434D01*
X014007Y011396D02*
X014007Y011396D01*
X012675Y012860D02*
X012313Y012860D01*
X011884Y012860D02*
X010280Y012860D01*
X010227Y013019D02*
X012728Y013019D01*
X012675Y013177D02*
X010280Y013177D01*
X010280Y013336D02*
X012675Y013336D01*
X012707Y013494D02*
X010248Y013494D01*
X010280Y013653D02*
X012675Y013653D01*
X012675Y013811D02*
X010280Y013811D01*
X010262Y013970D02*
X012693Y013970D01*
X012676Y014128D02*
X010279Y014128D01*
X010280Y014287D02*
X012675Y014287D01*
X012675Y014273D02*
X013289Y014273D01*
X013289Y014453D01*
X013289Y014453D01*
X013289Y014273D01*
X013289Y014273D01*
X012675Y014273D01*
X012684Y014445D02*
X010272Y014445D01*
X010449Y014604D02*
X011940Y014604D01*
X011853Y014762D02*
X010690Y014762D01*
X010766Y014921D02*
X011845Y014921D01*
X011913Y015079D02*
X010763Y015079D01*
X010681Y015238D02*
X011646Y015238D01*
X012081Y015238D02*
X012655Y015238D01*
X012433Y015396D02*
X012207Y015396D01*
X012241Y015555D02*
X012250Y015555D01*
X011872Y015933D02*
X011788Y015933D01*
X011649Y015876D01*
X011579Y015805D01*
X011067Y015805D01*
X011081Y015837D01*
X011081Y015987D01*
X011023Y016126D01*
X010917Y016233D01*
X010778Y016290D01*
X010678Y016290D01*
X010562Y016407D01*
X010554Y016410D01*
X011395Y016410D01*
X011872Y015933D01*
X011775Y016030D02*
X011063Y016030D01*
X011081Y015872D02*
X011645Y015872D01*
X011616Y016189D02*
X010961Y016189D01*
X010621Y016347D02*
X011458Y016347D01*
X010322Y015373D02*
X010313Y015373D01*
X010300Y015368D01*
X010300Y015395D01*
X010322Y015373D01*
X009667Y013653D02*
X009667Y013653D01*
X009667Y013494D02*
X009667Y013494D01*
X009667Y013336D02*
X009667Y013336D01*
X009085Y013494D02*
X008035Y013494D01*
X008027Y013508D02*
X007993Y013542D01*
X007952Y013565D01*
X007906Y013578D01*
X007645Y013578D01*
X007645Y012944D01*
X008063Y012944D01*
X008063Y013421D01*
X008051Y013467D01*
X008027Y013508D01*
X008063Y013336D02*
X009053Y013336D01*
X009053Y012702D02*
X008063Y012702D01*
X007645Y012543D02*
X007490Y012543D01*
X007490Y012385D02*
X007645Y012385D01*
X007645Y012226D02*
X007490Y012226D01*
X007108Y012226D02*
X006955Y012226D01*
X006980Y012385D02*
X007073Y012385D01*
X007073Y012543D02*
X006980Y012543D01*
X006980Y012702D02*
X007073Y012702D01*
X007490Y013019D02*
X007645Y013019D01*
X007645Y013177D02*
X007490Y013177D01*
X007490Y013336D02*
X007645Y013336D01*
X007645Y013494D02*
X007490Y013494D01*
X006992Y011909D02*
X009033Y011909D01*
X009033Y011751D02*
X007093Y011751D01*
X007093Y011592D02*
X007254Y011592D01*
X007243Y011434D02*
X007093Y011434D01*
X007631Y011434D02*
X007727Y011434D01*
X007727Y011592D02*
X007631Y011592D01*
X008427Y011232D02*
X009625Y011232D01*
X009667Y011273D01*
X009385Y010800D02*
X009177Y010800D01*
X009128Y010641D02*
X009393Y010641D01*
X009481Y010483D02*
X008986Y010483D01*
X009033Y011592D02*
X008883Y011592D01*
X010213Y010505D02*
X010755Y010505D01*
X010755Y010360D01*
X010770Y010325D01*
X010378Y010325D01*
X010354Y010384D01*
X010248Y010491D01*
X010213Y010505D01*
X010256Y010483D02*
X010755Y010483D01*
X010251Y009825D02*
X010207Y009719D01*
X010207Y009705D01*
X010182Y009764D01*
X010141Y009805D01*
X010188Y009825D01*
X010251Y009825D01*
X011556Y008690D02*
X011591Y008605D01*
X011591Y008455D01*
X011534Y008316D01*
X011428Y008209D01*
X011344Y008175D01*
X011857Y008175D01*
X011857Y008690D01*
X011556Y008690D01*
X011591Y008581D02*
X011857Y008581D01*
X011857Y008422D02*
X011578Y008422D01*
X011482Y008264D02*
X011857Y008264D01*
X011224Y008152D02*
X011189Y008152D01*
X011152Y008115D01*
X011187Y008115D01*
X011224Y008152D01*
X015410Y005740D02*
X015410Y005620D01*
X015481Y005692D01*
X015552Y005762D01*
X015554Y005763D01*
X015528Y005826D01*
X015465Y005763D01*
X015410Y005740D01*
X015410Y005728D02*
X015517Y005728D01*
X016482Y005510D02*
X016693Y005510D01*
X016482Y005510D01*
X016482Y005510D01*
X017753Y005215D02*
X017793Y005255D01*
X018118Y005255D01*
X018399Y005536D01*
X018399Y005934D01*
X018320Y006013D01*
X018345Y006023D01*
X018620Y006298D01*
X018637Y006339D01*
X018720Y006255D01*
X019118Y006255D01*
X019210Y006347D01*
X019210Y006123D01*
X019118Y006215D01*
X018720Y006215D01*
X018439Y005934D01*
X018439Y005536D01*
X018494Y005482D01*
X018285Y005274D01*
X018215Y005204D01*
X018190Y005143D01*
X018118Y005215D01*
X017753Y005215D01*
X017790Y005252D02*
X018264Y005252D01*
X018273Y005411D02*
X018422Y005411D01*
X018439Y005569D02*
X018399Y005569D01*
X018399Y005728D02*
X018439Y005728D01*
X018439Y005886D02*
X018399Y005886D01*
X018366Y006045D02*
X018550Y006045D01*
X018525Y006203D02*
X018708Y006203D01*
X018919Y005735D02*
X018919Y005554D01*
X018974Y005255D02*
X019118Y005255D01*
X019210Y005347D01*
X019210Y005123D01*
X019118Y005215D01*
X018934Y005215D01*
X018974Y005255D01*
X018971Y005252D02*
X019210Y005252D01*
X019210Y006203D02*
X019130Y006203D01*
X019210Y004347D02*
X019118Y004255D01*
X018720Y004255D01*
X018677Y004298D01*
X018677Y004292D01*
X018639Y004200D01*
X018537Y004097D01*
X018466Y004027D01*
X018374Y003989D01*
X018344Y003989D01*
X018399Y003934D01*
X018399Y003688D01*
X018439Y003688D01*
X018439Y003934D01*
X018720Y004215D01*
X019118Y004215D01*
X019210Y004123D01*
X019210Y004347D01*
X019210Y004301D02*
X019164Y004301D01*
X019191Y004143D02*
X019210Y004143D01*
X018648Y004143D02*
X018582Y004143D01*
X018489Y003984D02*
X018349Y003984D01*
X018399Y003826D02*
X018439Y003826D01*
X018817Y003255D02*
X019118Y003255D01*
X019210Y003347D01*
X019210Y003123D01*
X019118Y003215D01*
X018809Y003215D01*
X018817Y003235D01*
X018817Y003255D01*
X019142Y003192D02*
X019210Y003192D01*
X018439Y002875D02*
X018399Y002875D01*
X018399Y002716D02*
X018439Y002716D01*
X018439Y002558D02*
X018399Y002558D01*
X018262Y002399D02*
X018576Y002399D01*
X017576Y002399D02*
X017130Y002399D01*
X017288Y002558D02*
X017439Y002558D01*
X015629Y003667D02*
X015265Y003667D01*
X015265Y003826D02*
X015529Y003826D01*
X015493Y003984D02*
X015236Y003984D01*
X015077Y004143D02*
X015507Y004143D01*
X015534Y004301D02*
X015453Y004301D01*
X015788Y006835D02*
X015788Y007109D01*
X015788Y007221D01*
X015755Y007300D01*
X015818Y007300D01*
X015818Y006835D01*
X015788Y006835D01*
X015788Y006837D02*
X015818Y006837D01*
X015818Y006996D02*
X015788Y006996D01*
X015788Y007154D02*
X015818Y007154D01*
X018753Y009215D02*
X018793Y009255D01*
X019118Y009255D01*
X019210Y009347D01*
X019210Y009123D01*
X019118Y009215D01*
X018753Y009215D01*
X019119Y009215D02*
X019210Y009215D01*
X019156Y013177D02*
X019210Y013177D01*
X019198Y013336D02*
X019210Y013336D01*
X019205Y014128D02*
X019210Y014128D01*
X019210Y014287D02*
X019149Y014287D01*
X019210Y015238D02*
X015993Y015238D01*
X015245Y015079D02*
X014431Y015079D01*
X014428Y014921D02*
X015086Y014921D01*
X014928Y014762D02*
X014345Y014762D01*
X014635Y014445D02*
X013894Y014445D01*
X013922Y014604D02*
X014769Y014604D01*
X014928Y015238D02*
X014928Y015238D01*
X014928Y015396D02*
X014928Y015396D01*
X014291Y015302D02*
X014268Y015326D01*
X014129Y015383D01*
X014029Y015383D01*
X014014Y015398D01*
X014050Y015413D01*
X014241Y015604D01*
X014233Y015554D01*
X014233Y015520D01*
X014233Y015486D01*
X014244Y015418D01*
X014265Y015352D01*
X014291Y015302D01*
X014251Y015396D02*
X014016Y015396D01*
X014191Y015555D02*
X014233Y015555D01*
X013289Y014445D02*
X013289Y014445D01*
X013289Y014287D02*
X013289Y014287D01*
X013289Y014273D02*
X013289Y014273D01*
X011030Y012702D02*
X010672Y012702D01*
X005512Y012385D02*
X005219Y012385D01*
X004929Y012385D02*
X004909Y012385D01*
X004909Y012543D02*
X004929Y012543D01*
X004929Y012702D02*
X004909Y012702D01*
X004173Y010310D02*
X004173Y010160D01*
X004118Y010215D01*
X003720Y010215D01*
X003628Y010123D01*
X003628Y010347D01*
X003720Y010255D01*
X004118Y010255D01*
X004173Y010310D01*
X004168Y010166D02*
X004173Y010166D01*
X003671Y010166D02*
X003628Y010166D01*
X003628Y010324D02*
X003651Y010324D01*
X011939Y002082D02*
X011958Y002082D01*
X007862Y001924D02*
X007102Y001924D01*
X007261Y001765D02*
X007704Y001765D01*
X007641Y001607D02*
X007323Y001607D01*
X007323Y001448D02*
X007641Y001448D01*
X007641Y001290D02*
X007323Y001290D01*
X007323Y001131D02*
X007641Y001131D01*
X007688Y000973D02*
X007276Y000973D01*
X007118Y000814D02*
X007847Y000814D01*
X008005Y000656D02*
X006959Y000656D01*
X019152Y001290D02*
X019210Y001290D01*
X019202Y001131D02*
X019210Y001131D01*
X017579Y015396D02*
X017001Y015396D01*
X017061Y015555D02*
X017439Y015555D01*
X017439Y015713D02*
X017061Y015713D01*
X017061Y015872D02*
X017439Y015872D01*
X018795Y017215D02*
X018835Y017255D01*
X019118Y017255D01*
X019210Y017347D01*
X019210Y017123D01*
X019118Y017215D01*
X018795Y017215D01*
X019161Y017298D02*
X019210Y017298D01*
X019194Y017140D02*
X019210Y017140D01*
X019210Y016189D02*
X019145Y016189D01*
D11*
X014960Y007865D03*
X014960Y007550D03*
X014960Y007235D03*
X014960Y006920D03*
X014960Y006605D03*
X014960Y006290D03*
X014960Y005975D03*
X014960Y005660D03*
X011580Y005660D03*
X011580Y005975D03*
X011580Y006290D03*
X011580Y006605D03*
X011580Y006920D03*
X011580Y007235D03*
X011580Y007550D03*
X011580Y007865D03*
D12*
X012167Y008453D03*
X012482Y008453D03*
X012797Y008453D03*
X013112Y008453D03*
X013427Y008453D03*
X013742Y008453D03*
X014057Y008453D03*
X014372Y008453D03*
X014372Y005073D03*
X014057Y005073D03*
X013742Y005073D03*
X013427Y005073D03*
X013112Y005073D03*
X012797Y005073D03*
X012482Y005073D03*
X012167Y005073D03*
D13*
X010388Y007507D03*
X010388Y008507D03*
X009388Y008507D03*
X009388Y007507D03*
X008388Y007507D03*
X008388Y008507D03*
D14*
X006331Y010271D03*
X006498Y018684D03*
X008466Y018684D03*
X010435Y018684D03*
X012403Y018684D03*
X014372Y018684D03*
X016340Y018684D03*
X016340Y001361D03*
X014372Y001361D03*
X012403Y001361D03*
X010435Y001361D03*
X008466Y001361D03*
X006498Y001361D03*
D15*
X014750Y003741D03*
D16*
X007489Y007344D03*
X007489Y008171D03*
D17*
X007701Y009498D03*
X008449Y009498D03*
D18*
X003919Y000735D03*
X017919Y000735D03*
D19*
X018919Y000735D03*
X018919Y001735D03*
X017919Y001735D03*
X017919Y002735D03*
X018919Y002735D03*
X018919Y003735D03*
X017919Y003735D03*
X017919Y004735D03*
X018919Y004735D03*
X018919Y005735D03*
X017919Y005735D03*
X017919Y006735D03*
X018919Y006735D03*
X018919Y007735D03*
X017919Y007735D03*
X017919Y008735D03*
X018919Y008735D03*
X018919Y009735D03*
X017919Y009735D03*
X017919Y010735D03*
X018919Y010735D03*
X018919Y011735D03*
X017919Y011735D03*
X017919Y012735D03*
X018919Y012735D03*
X018919Y013735D03*
X017919Y013735D03*
X017919Y014735D03*
X018919Y014735D03*
X018919Y015735D03*
X017919Y015735D03*
X017919Y016735D03*
X018919Y016735D03*
X018919Y017735D03*
X017919Y017735D03*
X004919Y017735D03*
X003919Y017735D03*
X003919Y016735D03*
X004919Y016735D03*
X004919Y015735D03*
X003919Y015735D03*
X003919Y014735D03*
X004919Y014735D03*
X004919Y013735D03*
X003919Y013735D03*
X003919Y012735D03*
X004919Y012735D03*
X004919Y011735D03*
X003919Y011735D03*
X003919Y010735D03*
X004919Y010735D03*
X004919Y009735D03*
X003919Y009735D03*
X003919Y008735D03*
X004919Y008735D03*
X004919Y007735D03*
X003919Y007735D03*
X003919Y006735D03*
X004919Y006735D03*
X004919Y005735D03*
X003919Y005735D03*
X003919Y004735D03*
X004919Y004735D03*
X004919Y003735D03*
X003919Y003735D03*
X003919Y002735D03*
X004919Y002735D03*
X004919Y001735D03*
X003919Y001735D03*
X004919Y000735D03*
D20*
X015015Y009518D03*
D21*
X015003Y004866D03*
D22*
X013289Y011273D03*
X013289Y011773D03*
X013289Y012273D03*
X013289Y012773D03*
X013289Y013273D03*
X013289Y013773D03*
X013289Y014273D03*
X013289Y014773D03*
X013289Y015273D03*
X013289Y015773D03*
X009667Y015773D03*
X009667Y015273D03*
X009667Y014773D03*
X009667Y014273D03*
X009667Y013773D03*
X009667Y013273D03*
X009667Y012773D03*
X009667Y012273D03*
X009667Y011773D03*
X009667Y011273D03*
D23*
X008427Y011232D03*
X007679Y011232D03*
D24*
X007568Y012866D03*
X006465Y012866D03*
D25*
X006663Y011410D03*
X006063Y011410D03*
X016129Y011693D03*
X016729Y011693D03*
X016838Y008070D03*
X016238Y008070D03*
X016248Y007230D03*
X016848Y007230D03*
D26*
X010526Y006609D03*
X010526Y005271D03*
X008951Y005271D03*
X008951Y006609D03*
D27*
X006548Y007246D03*
X006548Y007994D03*
D28*
X007371Y010320D02*
X007886Y010320D01*
X007886Y015520D02*
X007371Y015520D01*
X014671Y015520D02*
X015186Y015520D01*
X015186Y010320D02*
X014671Y010320D01*
D29*
X016388Y014279D03*
X016388Y016011D03*
X007904Y014335D03*
X006172Y014335D03*
D30*
X006158Y008990D02*
X006758Y008990D01*
X006758Y005990D02*
X006158Y005990D01*
X006158Y004990D02*
X006758Y004990D01*
X006758Y003990D02*
X006158Y003990D01*
X015993Y004010D02*
X016593Y004010D01*
X016593Y005010D02*
X015993Y005010D01*
X015993Y006010D02*
X016593Y006010D01*
X016593Y009010D02*
X015993Y009010D01*
D31*
X018228Y018382D03*
X018232Y018894D03*
X018228Y019194D03*
X018228Y019198D03*
D32*
X018228Y018386D03*
D33*
X018228Y018390D03*
D34*
X018228Y018394D03*
X018204Y018878D03*
D35*
X018228Y019258D03*
X018228Y019262D03*
X018228Y019518D03*
X018228Y018398D03*
D36*
X018228Y018402D03*
D37*
X018228Y018406D03*
X018228Y019278D03*
X018228Y019514D03*
D38*
X018228Y018410D03*
D39*
X018228Y018414D03*
D40*
X018228Y018418D03*
D41*
X018228Y018422D03*
X018228Y019506D03*
D42*
X018228Y019314D03*
X018228Y018426D03*
D43*
X018228Y018430D03*
D44*
X018228Y018434D03*
X018228Y019326D03*
D45*
X018228Y019498D03*
X018228Y018438D03*
D46*
X018228Y018442D03*
X018228Y019334D03*
X018228Y019338D03*
D47*
X018228Y019342D03*
X018228Y018446D03*
D48*
X018228Y018450D03*
D49*
X018228Y018454D03*
X018228Y019346D03*
X018228Y019494D03*
D50*
X018228Y019354D03*
X018228Y018458D03*
D51*
X018228Y018462D03*
X018228Y019358D03*
D52*
X018228Y019362D03*
X018228Y018466D03*
D53*
X018228Y018470D03*
D54*
X018228Y018474D03*
X018228Y019366D03*
X018228Y019486D03*
D55*
X018228Y018482D03*
X018228Y018478D03*
D56*
X018228Y018486D03*
X018228Y019482D03*
D57*
X018228Y018490D03*
D58*
X018228Y018494D03*
D59*
X018228Y018498D03*
X018228Y018502D03*
D60*
X018228Y018506D03*
X018228Y019474D03*
D61*
X018228Y018510D03*
D62*
X018228Y018514D03*
X018228Y018518D03*
D63*
X018228Y018522D03*
X018228Y018526D03*
D64*
X018228Y018530D03*
D65*
X018228Y018534D03*
X018228Y019466D03*
D66*
X018228Y018542D03*
X018228Y018538D03*
D67*
X018228Y018546D03*
X018228Y018554D03*
X018228Y019462D03*
D68*
X018228Y018550D03*
D69*
X018228Y018558D03*
X018228Y018562D03*
X018228Y019426D03*
X018228Y019458D03*
D70*
X018228Y019454D03*
X018228Y019434D03*
X018228Y018566D03*
D71*
X018228Y018570D03*
X018228Y019430D03*
D72*
X018228Y019438D03*
X018232Y018806D03*
X018228Y018582D03*
X018228Y018578D03*
X018228Y018574D03*
D73*
X018228Y018586D03*
X018228Y018802D03*
X018228Y019442D03*
X018228Y019446D03*
D74*
X018228Y018590D03*
D75*
X018228Y018594D03*
X018228Y018598D03*
X018228Y018798D03*
D76*
X018228Y018606D03*
X018228Y018602D03*
D77*
X018230Y018610D03*
D78*
X018230Y018614D03*
X018230Y018618D03*
D79*
X018230Y018622D03*
X018230Y018626D03*
D80*
X018228Y018630D03*
D81*
X018228Y018634D03*
D82*
X018226Y018638D03*
D83*
X018228Y018642D03*
X018228Y018734D03*
D84*
X018228Y018646D03*
D85*
X018228Y018650D03*
D86*
X018228Y018654D03*
X018228Y018722D03*
D87*
X018228Y018718D03*
X018228Y018658D03*
D88*
X018228Y018662D03*
X018228Y018714D03*
D89*
X018226Y018666D03*
D90*
X018228Y018670D03*
D91*
X018228Y018674D03*
X018228Y018702D03*
X018228Y018706D03*
D92*
X018226Y018698D03*
X018226Y018682D03*
X018226Y018678D03*
D93*
X018228Y018686D03*
X018228Y018694D03*
D94*
X018228Y018690D03*
D95*
X018226Y018710D03*
D96*
X018228Y018726D03*
D97*
X018228Y018730D03*
D98*
X018218Y018766D03*
X018222Y018778D03*
D99*
X018220Y018770D03*
D100*
X018220Y018774D03*
D101*
X018222Y018782D03*
X018222Y018786D03*
D102*
X018224Y018790D03*
D103*
X018226Y018794D03*
D104*
X018234Y018810D03*
D105*
X018234Y018814D03*
X018234Y018818D03*
D106*
X018334Y018822D03*
D107*
X018002Y018838D03*
X017998Y018826D03*
X017998Y018822D03*
D108*
X018336Y018826D03*
D109*
X018336Y018830D03*
D110*
X018000Y018830D03*
D111*
X018336Y018834D03*
D112*
X018000Y018834D03*
D113*
X018340Y018838D03*
D114*
X018342Y018842D03*
D115*
X018040Y018846D03*
X018036Y018842D03*
X018120Y019218D03*
X018116Y019222D03*
D116*
X017930Y018842D03*
D117*
X018344Y018846D03*
X018228Y019254D03*
D118*
X018228Y018994D03*
X017912Y018846D03*
D119*
X018346Y018850D03*
D120*
X018046Y018850D03*
X018390Y019290D03*
D121*
X018340Y019378D03*
X018356Y018854D03*
D122*
X018228Y018922D03*
X018228Y019078D03*
X018108Y019238D03*
X018048Y018854D03*
D123*
X018362Y018858D03*
D124*
X018106Y019242D03*
X018054Y018858D03*
D125*
X018360Y018862D03*
X018296Y019298D03*
D126*
X018060Y018862D03*
D127*
X018358Y018866D03*
D128*
X018230Y018918D03*
X018066Y018866D03*
D129*
X018352Y018870D03*
X018228Y019530D03*
D130*
X018110Y019250D03*
X018074Y018870D03*
D131*
X018346Y018874D03*
D132*
X018092Y018874D03*
D133*
X018228Y019038D03*
X018228Y019042D03*
X018456Y018878D03*
D134*
X018454Y018882D03*
X018354Y018906D03*
D135*
X018206Y018882D03*
D136*
X018210Y018886D03*
D137*
X018214Y018890D03*
X018334Y019370D03*
D138*
X018062Y018894D03*
D139*
X018234Y018898D03*
D140*
X018354Y018902D03*
D141*
X018200Y018902D03*
X018228Y019146D03*
X018428Y019414D03*
X018228Y019538D03*
D142*
X018416Y019394D03*
X018420Y019398D03*
X018200Y018906D03*
D143*
X018358Y018910D03*
D144*
X018230Y018910D03*
D145*
X018116Y018910D03*
D146*
X018358Y018914D03*
D147*
X018230Y018914D03*
D148*
X018228Y019018D03*
X018112Y018914D03*
D149*
X018360Y018918D03*
D150*
X018230Y018942D03*
X018110Y018918D03*
D151*
X018104Y018926D03*
X018360Y018922D03*
D152*
X018106Y018922D03*
D153*
X018362Y018926D03*
D154*
X018230Y018926D03*
X018386Y019282D03*
X018054Y019306D03*
D155*
X018230Y018930D03*
D156*
X018100Y018930D03*
D157*
X018230Y018934D03*
D158*
X018230Y018938D03*
D159*
X018228Y018990D03*
D160*
X018228Y018998D03*
D161*
X018228Y019002D03*
D162*
X018228Y019006D03*
D163*
X018228Y019010D03*
D164*
X018228Y019014D03*
D165*
X018228Y019022D03*
X018228Y019026D03*
D166*
X018228Y019030D03*
D167*
X018228Y019034D03*
D168*
X018228Y019046D03*
D169*
X018228Y019050D03*
D170*
X018228Y019054D03*
X018228Y019058D03*
D171*
X018228Y019062D03*
D172*
X018228Y019066D03*
X018052Y019302D03*
D173*
X018230Y019070D03*
D174*
X018228Y019074D03*
X018112Y019226D03*
X018108Y019234D03*
X018388Y019286D03*
D175*
X018228Y019082D03*
X018108Y019246D03*
D176*
X018228Y019086D03*
D177*
X018228Y019090D03*
D178*
X018228Y019094D03*
D179*
X018228Y019098D03*
X018228Y019102D03*
D180*
X018228Y019106D03*
D181*
X018228Y019110D03*
D182*
X018228Y019114D03*
X018228Y019118D03*
D183*
X018228Y019122D03*
X018300Y019218D03*
X018304Y019222D03*
X018308Y019226D03*
D184*
X018312Y019238D03*
X018228Y019126D03*
D185*
X018228Y019130D03*
D186*
X018228Y019134D03*
D187*
X018228Y019138D03*
D188*
X018228Y019142D03*
X018424Y019406D03*
D189*
X018228Y019150D03*
D190*
X018228Y019154D03*
D191*
X018228Y019158D03*
D192*
X018228Y019162D03*
X018228Y019166D03*
D193*
X018228Y019170D03*
D194*
X018228Y019174D03*
X018228Y019534D03*
D195*
X018228Y019182D03*
X018228Y019178D03*
D196*
X018228Y019186D03*
D197*
X018228Y019190D03*
D198*
X018228Y019202D03*
D199*
X018228Y019206D03*
D200*
X018228Y019210D03*
D201*
X018228Y019214D03*
D202*
X018308Y019230D03*
D203*
X018112Y019230D03*
D204*
X018042Y019374D03*
X018310Y019234D03*
D205*
X018312Y019242D03*
X018312Y019246D03*
D206*
X018310Y019250D03*
D207*
X018228Y019266D03*
D208*
X018228Y019270D03*
D209*
X018226Y019274D03*
D210*
X018160Y019282D03*
D211*
X018218Y019286D03*
X018222Y019294D03*
D212*
X018060Y019286D03*
X018056Y019294D03*
D213*
X018220Y019290D03*
D214*
X018056Y019290D03*
D215*
X018390Y019294D03*
D216*
X018054Y019298D03*
D217*
X018298Y019302D03*
D218*
X018296Y019306D03*
D219*
X018228Y019310D03*
D220*
X018228Y019318D03*
X018228Y019322D03*
X018228Y019502D03*
D221*
X018228Y019330D03*
D222*
X018228Y019350D03*
D223*
X018048Y019370D03*
D224*
X018098Y019398D03*
X018098Y019402D03*
X018338Y019374D03*
D225*
X018040Y019378D03*
D226*
X018342Y019382D03*
D227*
X018038Y019382D03*
D228*
X018340Y019386D03*
D229*
X018042Y019386D03*
D230*
X018228Y019390D03*
D231*
X018102Y019394D03*
X018094Y019406D03*
D232*
X018422Y019402D03*
D233*
X018426Y019410D03*
D234*
X018092Y019410D03*
D235*
X018092Y019414D03*
X018092Y019418D03*
D236*
X018426Y019418D03*
D237*
X018426Y019422D03*
D238*
X018092Y019422D03*
D239*
X018228Y019450D03*
D240*
X018228Y019470D03*
D241*
X018226Y019478D03*
D242*
X018228Y019490D03*
D243*
X018228Y019510D03*
D244*
X018228Y019522D03*
D245*
X018228Y019526D03*
D246*
X018230Y019542D03*
D247*
X018226Y019546D03*
D248*
X010568Y005945D03*
X008088Y005945D03*
D249*
X007328Y006680D03*
X008233Y006830D03*
X007128Y005440D03*
X008353Y004574D03*
X008065Y003288D03*
X008653Y003288D03*
X008663Y002835D03*
X009240Y003288D03*
X009663Y002750D03*
X010188Y003175D03*
X010595Y002805D03*
X011207Y002811D03*
X011703Y003170D03*
X011588Y001940D03*
X013573Y003385D03*
X014063Y003932D03*
X012383Y004535D03*
X011633Y004825D03*
X011437Y005324D03*
X012658Y006240D03*
X013918Y006610D03*
X015360Y008652D03*
X014928Y009000D03*
X014208Y009360D03*
X013878Y009975D03*
X013128Y009420D03*
X012483Y010010D03*
X011133Y010435D03*
X010585Y009644D03*
X010033Y010170D03*
X009763Y010735D03*
X010418Y011585D03*
X010418Y012420D03*
X011263Y012400D03*
X011748Y012220D03*
X012098Y012540D03*
X012578Y011775D03*
X012413Y011270D03*
X014923Y013295D03*
X015418Y012300D03*
X015513Y011270D03*
X016498Y013560D03*
X014053Y015005D03*
X012223Y014855D03*
X011863Y015555D03*
X010703Y015912D03*
X010388Y014995D03*
X009253Y016195D03*
X008843Y015280D03*
X008668Y014685D03*
X008178Y012295D03*
X008788Y010810D03*
X008403Y010335D03*
X007548Y008940D03*
X009862Y009550D03*
X011213Y008530D03*
X009933Y005285D03*
X005618Y003700D03*
X005395Y003276D03*
X005353Y011265D03*
X005699Y012716D03*
X005896Y013213D03*
X004423Y013010D03*
X006218Y015985D03*
X009455Y019156D03*
X011411Y019156D03*
X013403Y019156D03*
X015448Y018010D03*
X018439Y003310D03*
X016243Y002555D03*
D250*
X016108Y002420D01*
X015128Y002420D01*
X014488Y003060D01*
X011813Y003060D01*
X011703Y003170D01*
X011698Y003175D01*
X010188Y003175D01*
X009878Y003070D02*
X010143Y002805D01*
X010595Y002805D01*
X011207Y002811D02*
X014372Y002811D01*
X014998Y002185D01*
X016562Y002185D01*
X017608Y003231D01*
X018360Y003231D01*
X018439Y003310D01*
X018325Y004239D02*
X017459Y004239D01*
X017213Y004485D01*
X015703Y004485D01*
X015513Y004675D01*
X015513Y005370D01*
X015693Y005550D01*
X016178Y005550D01*
X016263Y005635D01*
X016263Y005980D01*
X016293Y006010D01*
X015773Y006585D02*
X017073Y006585D01*
X017423Y006235D01*
X018203Y006235D01*
X018408Y006440D01*
X018408Y009224D01*
X018919Y009735D01*
X018308Y010255D02*
X017513Y010255D01*
X017173Y009915D01*
X014383Y009915D01*
X013963Y010335D01*
X011233Y010335D01*
X011133Y010435D01*
X011543Y010755D02*
X009783Y010755D01*
X009763Y010735D01*
X010033Y010170D02*
X010128Y010075D01*
X012418Y010075D01*
X012483Y010010D01*
X012873Y009680D02*
X013168Y009975D01*
X013878Y009975D01*
X014088Y009720D02*
X015178Y009720D01*
X015015Y009518D01*
X014928Y009000D02*
X014508Y009000D01*
X014372Y008864D01*
X014372Y008453D01*
X014057Y008453D02*
X014057Y009209D01*
X014208Y009360D01*
X014088Y009720D02*
X013742Y009374D01*
X013742Y008453D01*
X013427Y008453D02*
X013427Y009121D01*
X013128Y009420D01*
X012873Y009680D02*
X011188Y009680D01*
X011088Y009780D01*
X010749Y009480D02*
X010585Y009644D01*
X010749Y009480D02*
X012528Y009480D01*
X013112Y008896D01*
X013112Y008453D01*
X012797Y008453D02*
X012797Y008851D01*
X012348Y009300D01*
X010112Y009300D01*
X009862Y009550D01*
X010123Y010080D02*
X010033Y010170D01*
X009162Y009120D02*
X008892Y008849D01*
X008892Y008003D01*
X008889Y008005D01*
X008203Y008005D01*
X008037Y008171D01*
X007489Y008171D01*
X008003Y007745D02*
X006797Y007745D01*
X006548Y007994D01*
X006547Y007995D01*
X006548Y007994D02*
X006548Y008900D01*
X006458Y008990D01*
X005993Y008525D01*
X005993Y006740D01*
X006128Y006605D01*
X006888Y006605D01*
X007203Y006290D01*
X007373Y006290D01*
X007718Y005945D01*
X008088Y005945D01*
X008198Y005340D02*
X007553Y005340D01*
X007453Y005440D01*
X007453Y005795D01*
X007258Y005990D01*
X006458Y005990D01*
X007128Y005440D02*
X007683Y004885D01*
X008573Y004885D01*
X008903Y004555D01*
X011363Y004555D01*
X011633Y004825D01*
X011437Y005324D02*
X011580Y005466D01*
X011580Y005660D01*
X011580Y005975D02*
X010599Y005975D01*
X010568Y005945D01*
X010526Y006609D02*
X010285Y006609D01*
X009388Y007507D01*
X008892Y008003D01*
X009388Y008507D02*
X009914Y007980D01*
X010848Y007980D01*
X010848Y008165D01*
X011213Y008530D01*
X010821Y008940D02*
X010388Y008507D01*
X010821Y008940D02*
X012017Y008940D01*
X012167Y008790D01*
X012167Y008453D01*
X012482Y008453D02*
X012482Y008806D01*
X012168Y009120D01*
X009162Y009120D01*
X008388Y009260D02*
X008449Y009498D01*
X008388Y009260D02*
X008388Y008507D01*
X008003Y007745D02*
X008242Y007507D01*
X008388Y007507D01*
X008233Y006830D02*
X008003Y006830D01*
X007489Y007344D01*
X007328Y006680D02*
X007538Y006470D01*
X008508Y006470D01*
X008648Y006609D01*
X008951Y006609D01*
X009933Y005285D02*
X009948Y005271D01*
X010526Y005271D01*
X011683Y004375D02*
X012143Y004835D01*
X012143Y005049D01*
X012167Y005073D01*
X012482Y005073D02*
X012482Y004634D01*
X012383Y004535D01*
X012468Y004200D02*
X008803Y004200D01*
X008568Y003965D01*
X007443Y003965D01*
X006888Y003410D01*
X005908Y003410D01*
X005618Y003700D01*
X005395Y003276D02*
X005430Y003240D01*
X007028Y003240D01*
X007583Y003795D01*
X008633Y003795D01*
X008858Y004020D01*
X012588Y004020D01*
X013112Y004544D01*
X013112Y005073D01*
X012797Y005073D02*
X012797Y004529D01*
X012468Y004200D01*
X012768Y003840D02*
X008923Y003840D01*
X008703Y003620D01*
X008397Y003620D01*
X008065Y003288D01*
X008065Y003306D01*
X008653Y003288D02*
X009025Y003660D01*
X012948Y003660D01*
X013742Y004454D01*
X013742Y005073D01*
X013427Y005073D02*
X013427Y004499D01*
X012768Y003840D01*
X013128Y003480D02*
X009432Y003480D01*
X009240Y003288D01*
X009443Y003070D02*
X009878Y003070D01*
X009663Y002750D02*
X009663Y002635D01*
X009783Y002515D01*
X014283Y002515D01*
X014373Y002425D01*
X014373Y002051D01*
X014372Y002050D01*
X014372Y001361D01*
X014294Y003285D02*
X013673Y003285D01*
X013573Y003385D01*
X013128Y003480D02*
X014057Y004409D01*
X014057Y005073D01*
X014372Y005073D02*
X014372Y004241D01*
X014063Y003932D01*
X014294Y003285D02*
X014750Y003741D01*
X015003Y004866D02*
X015003Y005617D01*
X014960Y005660D01*
X013238Y005660D01*
X012658Y006240D01*
X012183Y007210D02*
X011978Y007415D01*
X011980Y007420D01*
X011980Y007545D01*
X011683Y007545D01*
X011683Y007555D01*
X011980Y007555D01*
X011980Y007680D01*
X011970Y007716D01*
X012223Y007970D01*
X014478Y007970D01*
X014493Y007955D01*
X014493Y007230D01*
X014473Y007210D01*
X012183Y007210D01*
X012121Y007272D02*
X014493Y007272D01*
X014493Y007371D02*
X012023Y007371D01*
X011980Y007469D02*
X014493Y007469D01*
X014493Y007568D02*
X011980Y007568D01*
X011980Y007666D02*
X014493Y007666D01*
X014493Y007765D02*
X012018Y007765D01*
X012116Y007863D02*
X014493Y007863D01*
X014487Y007962D02*
X012215Y007962D01*
X011580Y007865D02*
X010963Y007865D01*
X010848Y007980D01*
X010431Y007550D02*
X010388Y007507D01*
X010431Y007550D02*
X011580Y007550D01*
X013626Y006638D02*
X013653Y006610D01*
X014960Y005975D02*
X015324Y005975D01*
X015473Y006125D01*
X015473Y006285D01*
X015773Y006585D01*
X016248Y007230D02*
X015928Y007550D01*
X014960Y007550D01*
X014960Y007865D02*
X016033Y007865D01*
X016238Y008070D01*
X018308Y010255D02*
X018788Y010735D01*
X018919Y010735D01*
X017919Y010735D02*
X017854Y010800D01*
X014258Y010800D01*
X013983Y010525D01*
X011773Y010525D01*
X011543Y010755D01*
X012413Y011270D02*
X012417Y011273D01*
X013289Y011273D01*
X013289Y011773D02*
X016049Y011773D01*
X016129Y011693D01*
X016729Y011693D02*
X016783Y011747D01*
X017907Y011747D01*
X018414Y012240D02*
X016418Y012240D01*
X015863Y012795D01*
X014863Y012795D01*
X014608Y012540D01*
X012098Y012540D01*
X011263Y012400D02*
X010438Y012400D01*
X010418Y012420D01*
X010230Y011773D02*
X009667Y011773D01*
X010230Y011773D02*
X010418Y011585D01*
X008403Y010440D02*
X008403Y010335D01*
X008403Y010440D02*
X008133Y010710D01*
X007908Y010710D01*
X007798Y010820D01*
X007798Y011113D01*
X007679Y011232D01*
X006663Y011410D02*
X006663Y010548D01*
X006608Y010548D01*
X006331Y010271D01*
X005703Y009643D01*
X005703Y004635D01*
X005833Y004505D01*
X007088Y004505D01*
X007438Y004155D01*
X008498Y004155D01*
X008718Y004375D01*
X011683Y004375D01*
X011258Y002270D02*
X011588Y001940D01*
X011258Y002270D02*
X004558Y002270D01*
X004423Y002405D01*
X004423Y013010D01*
X004693Y013245D02*
X005170Y013245D01*
X005699Y012716D01*
X004693Y013245D02*
X004543Y013395D01*
X004443Y013395D01*
X004103Y013735D01*
X003919Y013735D01*
X005553Y011465D02*
X005353Y011265D01*
X005553Y011465D02*
X006008Y011465D01*
X006063Y011410D01*
X007568Y012735D02*
X007568Y012866D01*
X007568Y012735D02*
X007888Y012735D01*
X008843Y015280D02*
X009660Y015280D01*
X009667Y015273D01*
X009667Y015773D02*
X010275Y015773D01*
X010493Y015555D01*
X011863Y015555D01*
X012218Y015940D02*
X014223Y015940D01*
X014268Y015985D02*
X013908Y015625D01*
X012533Y015625D01*
X011498Y016660D01*
X007648Y016660D01*
X005878Y018430D01*
X005878Y018830D01*
X005888Y018875D01*
X006233Y019220D01*
X006768Y019220D01*
X007128Y018860D01*
X007128Y018385D01*
X007658Y017855D01*
X013033Y017840D01*
X014278Y016615D01*
X014268Y015985D01*
X014269Y016039D02*
X012120Y016039D01*
X012021Y016137D02*
X014271Y016137D01*
X014272Y016236D02*
X011923Y016236D01*
X011824Y016334D02*
X014274Y016334D01*
X014275Y016433D02*
X011726Y016433D01*
X011627Y016531D02*
X014277Y016531D01*
X014264Y016630D02*
X011529Y016630D01*
X012317Y015842D02*
X014125Y015842D01*
X014026Y015743D02*
X012415Y015743D01*
X012514Y015645D02*
X013928Y015645D01*
X013785Y015273D02*
X014053Y015005D01*
X013785Y015273D02*
X013289Y015273D01*
X014163Y016728D02*
X007580Y016728D01*
X007482Y016827D02*
X014063Y016827D01*
X013963Y016925D02*
X007383Y016925D01*
X007285Y017024D02*
X013863Y017024D01*
X013763Y017122D02*
X007186Y017122D01*
X007088Y017221D02*
X013663Y017221D01*
X013563Y017319D02*
X006989Y017319D01*
X006891Y017418D02*
X013463Y017418D01*
X013363Y017516D02*
X006792Y017516D01*
X006694Y017615D02*
X013262Y017615D01*
X013162Y017713D02*
X006595Y017713D01*
X006497Y017812D02*
X013062Y017812D01*
X010703Y015912D02*
X010420Y016195D01*
X009253Y016195D01*
X008938Y015785D02*
X009655Y015785D01*
X009667Y015773D01*
X008938Y015785D02*
X008738Y015985D01*
X006218Y015985D01*
X006398Y017910D02*
X007603Y017910D01*
X007505Y018009D02*
X006300Y018009D01*
X006201Y018107D02*
X007406Y018107D01*
X007308Y018206D02*
X006103Y018206D01*
X006004Y018304D02*
X007209Y018304D01*
X007128Y018403D02*
X005906Y018403D01*
X005878Y018501D02*
X007128Y018501D01*
X007128Y018600D02*
X005878Y018600D01*
X005878Y018698D02*
X007128Y018698D01*
X007128Y018797D02*
X005878Y018797D01*
X005908Y018895D02*
X007093Y018895D01*
X006995Y018994D02*
X006007Y018994D01*
X006105Y019092D02*
X006896Y019092D01*
X006798Y019191D02*
X006204Y019191D01*
X012578Y011775D02*
X013287Y011775D01*
X013289Y011773D01*
X016498Y013560D02*
X016528Y013590D01*
X018414Y012240D02*
X018919Y011735D01*
X017919Y010735D02*
X017909Y010725D01*
X017918Y005735D02*
X017919Y005735D01*
X017194Y005010D01*
X016293Y005010D01*
X018427Y005062D02*
X018427Y004341D01*
X018325Y004239D01*
X018427Y005062D02*
X018919Y005554D01*
X009443Y003070D02*
X009208Y002835D01*
X008663Y002835D01*
X008353Y004574D02*
X007564Y004574D01*
X007148Y004990D01*
X006458Y004990D01*
X007399Y006609D02*
X007328Y006680D01*
X006762Y007246D01*
X006548Y007246D01*
X007548Y008940D02*
X007548Y009345D01*
X007701Y009498D01*
D251*
X008788Y010810D02*
X008868Y010890D01*
X008868Y011190D01*
X009583Y011190D01*
X011508Y011190D01*
X011913Y010785D01*
X013848Y010785D01*
X014278Y011215D01*
X015458Y011215D01*
X015513Y011270D01*
X015392Y012273D02*
X015418Y012300D01*
X015392Y012273D02*
X013289Y012273D01*
X014923Y013295D02*
X014923Y014305D01*
X015673Y015055D01*
X015673Y017785D01*
X015448Y018010D01*
X016340Y018684D02*
X015463Y019511D01*
X013392Y019511D01*
X013392Y019282D01*
X013403Y019156D01*
X013403Y018210D01*
X014928Y016685D01*
X014928Y015520D01*
X014038Y015975D02*
X013837Y015773D01*
X013289Y015773D01*
X014038Y015975D02*
X014038Y016460D01*
X012758Y017740D01*
X007442Y017740D01*
X006498Y018684D01*
X005578Y018430D02*
X005503Y018355D01*
X004539Y018355D01*
X003919Y017735D01*
X005578Y018430D02*
X005578Y019410D01*
X005679Y019511D01*
X009455Y019511D01*
X009455Y019156D01*
X009455Y019511D02*
X011254Y019511D01*
X011411Y019353D01*
X011411Y019156D01*
X011254Y019511D02*
X013392Y019511D01*
X012223Y014855D02*
X012305Y014773D01*
X013289Y014773D01*
X010388Y014995D02*
X010167Y014773D01*
X009667Y014773D01*
X008668Y014685D02*
X008493Y014510D01*
X007783Y014510D01*
X007743Y014470D01*
X007769Y014470D01*
X007904Y014335D01*
X006389Y013213D02*
X006465Y012866D01*
X006389Y013213D02*
X005896Y013213D01*
X006172Y014335D02*
X005997Y014510D01*
X005144Y014510D01*
X004919Y014735D01*
X008178Y012295D02*
X008180Y012287D01*
X008184Y012279D01*
X008192Y012275D01*
X008200Y012273D01*
X009667Y012273D01*
X009667Y011273D02*
X009583Y011190D01*
X016338Y014084D02*
X016388Y014279D01*
X016410Y014277D01*
X016431Y014272D01*
X016452Y014264D01*
X016470Y014252D01*
X016487Y014238D01*
X016501Y014221D01*
X016513Y014203D01*
X016521Y014182D01*
X016526Y014161D01*
X016528Y014139D01*
X016528Y013590D01*
D252*
X004919Y016735D02*
X003919Y017735D01*
D253*
X007343Y013365D02*
X008578Y013375D01*
X008878Y014290D01*
X011603Y014315D01*
X011783Y014135D01*
X012338Y014135D01*
X012483Y014280D01*
X014423Y014280D01*
X014468Y014235D01*
X014468Y012915D01*
X014323Y012770D01*
X012523Y012770D01*
X012423Y012870D01*
X012237Y012870D01*
X012170Y012898D01*
X012027Y012898D01*
X011959Y012870D01*
X011918Y012870D01*
X011773Y012725D01*
X011416Y012725D01*
X011335Y012758D01*
X011192Y012758D01*
X011110Y012724D01*
X010621Y012724D01*
X010490Y012778D01*
X010347Y012778D01*
X010215Y012724D01*
X010215Y012723D01*
X007743Y012720D01*
X007428Y013035D01*
X007343Y013365D01*
X007351Y013334D02*
X014468Y013334D01*
X014468Y013452D02*
X008604Y013452D01*
X008642Y013571D02*
X014468Y013571D01*
X014468Y013689D02*
X008681Y013689D01*
X008720Y013808D02*
X014468Y013808D01*
X014468Y013926D02*
X008759Y013926D01*
X008798Y014045D02*
X014468Y014045D01*
X014468Y014163D02*
X012366Y014163D01*
X011755Y014163D02*
X008837Y014163D01*
X008876Y014282D02*
X011637Y014282D01*
X011908Y012860D02*
X007604Y012860D01*
X007485Y012978D02*
X014468Y012978D01*
X014468Y013097D02*
X007412Y013097D01*
X007382Y013215D02*
X014468Y013215D01*
X014413Y012860D02*
X012434Y012860D01*
X011789Y012741D02*
X011376Y012741D01*
X011151Y012741D02*
X010579Y012741D01*
X010621Y012724D02*
X010621Y012724D01*
X010258Y012741D02*
X007722Y012741D01*
D254*
X011088Y009780D03*
X008198Y005340D03*
M02*
