G75*
%MOIN*%
%OFA0B0*%
%FSLAX24Y24*%
%IPPOS*%
%LPD*%
%AMOC8*
5,1,8,0,0,1.08239X$1,22.5*
%
%ADD10C,0.0160*%
%ADD11C,0.0030*%
%ADD12C,0.0080*%
%ADD13C,0.0040*%
%ADD14C,0.0060*%
%ADD15C,0.0010*%
%ADD16C,0.0050*%
%ADD17R,0.0059X0.0118*%
%ADD18R,0.0118X0.0118*%
%ADD19C,0.0020*%
D10*
X003348Y000180D02*
X019490Y000180D01*
X019490Y019865D01*
X003348Y019865D01*
X003348Y000180D01*
X005514Y000180D02*
X005514Y003330D01*
X005514Y000180D02*
X017325Y000180D01*
X017325Y003330D01*
X017325Y016715D02*
X005514Y016715D01*
X005514Y019865D01*
X017325Y019865D01*
X017325Y016715D01*
D11*
X016698Y000666D02*
X016553Y000666D01*
X016553Y000376D01*
X016698Y000376D01*
X016746Y000424D01*
X016746Y000618D01*
X016698Y000666D01*
X016451Y000666D02*
X016451Y000376D01*
X016258Y000666D01*
X016258Y000376D01*
X016157Y000424D02*
X016157Y000521D01*
X016060Y000521D01*
X015963Y000424D02*
X016012Y000376D01*
X016108Y000376D01*
X016157Y000424D01*
X015963Y000424D02*
X015963Y000618D01*
X016012Y000666D01*
X016108Y000666D01*
X016157Y000618D01*
X014973Y000631D02*
X014973Y000437D01*
X014925Y000389D01*
X014828Y000389D01*
X014779Y000437D01*
X014779Y000631D01*
X014828Y000679D01*
X014925Y000679D01*
X014973Y000631D01*
X014678Y000679D02*
X014485Y000679D01*
X014485Y000389D01*
X014678Y000389D01*
X014581Y000534D02*
X014485Y000534D01*
X014384Y000389D02*
X014384Y000679D01*
X014190Y000679D02*
X014384Y000389D01*
X014190Y000389D02*
X014190Y000679D01*
X014091Y000582D02*
X014091Y000534D01*
X014043Y000534D01*
X014043Y000582D01*
X014091Y000582D01*
X014091Y000437D02*
X014091Y000389D01*
X014043Y000389D01*
X014043Y000437D01*
X014091Y000437D01*
X013942Y000631D02*
X013748Y000437D01*
X013748Y000389D01*
X013748Y000679D02*
X013942Y000679D01*
X013942Y000631D01*
X012995Y000669D02*
X012995Y000379D01*
X012801Y000669D01*
X012801Y000379D01*
X012702Y000379D02*
X012605Y000379D01*
X012653Y000379D02*
X012653Y000669D01*
X012605Y000669D02*
X012702Y000669D01*
X012504Y000331D02*
X012310Y000331D01*
X012209Y000379D02*
X012209Y000572D01*
X012112Y000669D01*
X012016Y000572D01*
X012016Y000379D01*
X011917Y000379D02*
X011917Y000427D01*
X011868Y000427D01*
X011868Y000379D01*
X011917Y000379D01*
X011917Y000524D02*
X011868Y000524D01*
X011868Y000572D01*
X011917Y000572D01*
X011917Y000524D01*
X012016Y000524D02*
X012209Y000524D01*
X011767Y000476D02*
X011719Y000524D01*
X011574Y000524D01*
X011574Y000427D01*
X011622Y000379D01*
X011719Y000379D01*
X011767Y000427D01*
X011767Y000476D01*
X011670Y000621D02*
X011574Y000524D01*
X011670Y000621D02*
X011767Y000669D01*
X011043Y000665D02*
X011043Y000375D01*
X010850Y000665D01*
X010850Y000375D01*
X010750Y000375D02*
X010653Y000375D01*
X010702Y000375D02*
X010702Y000665D01*
X010750Y000665D02*
X010653Y000665D01*
X010552Y000327D02*
X010359Y000327D01*
X010257Y000423D02*
X010209Y000375D01*
X010112Y000375D01*
X010064Y000423D01*
X010064Y000617D01*
X010112Y000665D01*
X010209Y000665D01*
X010257Y000617D01*
X009965Y000568D02*
X009965Y000520D01*
X009917Y000520D01*
X009917Y000568D01*
X009965Y000568D01*
X009965Y000423D02*
X009965Y000375D01*
X009917Y000375D01*
X009917Y000423D01*
X009965Y000423D01*
X009815Y000423D02*
X009767Y000375D01*
X009670Y000375D01*
X009622Y000423D01*
X009622Y000520D02*
X009719Y000568D01*
X009767Y000568D01*
X009815Y000520D01*
X009815Y000423D01*
X009622Y000520D02*
X009622Y000665D01*
X009815Y000665D01*
X009001Y000599D02*
X008953Y000647D01*
X008856Y000647D01*
X008808Y000599D01*
X008808Y000405D01*
X008856Y000357D01*
X008953Y000357D01*
X009001Y000405D01*
X008706Y000405D02*
X008658Y000357D01*
X008513Y000357D01*
X008513Y000647D01*
X008658Y000647D01*
X008706Y000599D01*
X008706Y000405D01*
X008412Y000357D02*
X008412Y000550D01*
X008315Y000647D01*
X008218Y000550D01*
X008218Y000357D01*
X008119Y000357D02*
X008071Y000357D01*
X008071Y000405D01*
X008119Y000405D01*
X008119Y000357D01*
X008119Y000502D02*
X008071Y000502D01*
X008071Y000550D01*
X008119Y000550D01*
X008119Y000502D01*
X008218Y000502D02*
X008412Y000502D01*
X007970Y000502D02*
X007776Y000502D01*
X007921Y000647D01*
X007921Y000357D01*
X006641Y000431D02*
X006641Y000624D01*
X006641Y000431D02*
X006544Y000334D01*
X006447Y000431D01*
X006447Y000624D01*
X006346Y000624D02*
X006153Y000624D01*
X006153Y000479D01*
X006249Y000528D01*
X006298Y000528D01*
X006346Y000479D01*
X006346Y000383D01*
X006298Y000334D01*
X006201Y000334D01*
X006153Y000383D01*
D12*
X007465Y003670D02*
X007368Y003766D01*
X007465Y003670D02*
X007658Y003670D01*
X007755Y003766D01*
X007755Y003863D01*
X007658Y003960D01*
X007465Y003960D01*
X007368Y004057D01*
X007368Y004153D01*
X007465Y004250D01*
X007658Y004250D01*
X007755Y004153D01*
X007976Y004057D02*
X008169Y004250D01*
X008363Y004057D01*
X008363Y003670D01*
X008583Y003670D02*
X008970Y003670D01*
X009191Y003766D02*
X009288Y003670D01*
X009481Y003670D01*
X009578Y003766D01*
X009578Y003863D01*
X009481Y003960D01*
X009288Y003960D01*
X009191Y004057D01*
X009191Y004153D01*
X009288Y004250D01*
X009481Y004250D01*
X009578Y004153D01*
X009799Y004057D02*
X009992Y004250D01*
X010186Y004057D01*
X010186Y003670D01*
X010186Y003960D02*
X009799Y003960D01*
X009799Y004057D02*
X009799Y003670D01*
X011014Y003670D02*
X011305Y003670D01*
X011401Y003766D01*
X011401Y004153D01*
X011305Y004250D01*
X011014Y004250D01*
X011014Y003670D01*
X011622Y003670D02*
X011816Y003670D01*
X011719Y003670D02*
X011719Y004250D01*
X011622Y004250D02*
X011816Y004250D01*
X012027Y004250D02*
X012317Y004250D01*
X012414Y004153D01*
X012414Y003960D01*
X012317Y003863D01*
X012027Y003863D01*
X012027Y003670D02*
X012027Y004250D01*
X013243Y004250D02*
X013436Y004250D01*
X013339Y004250D02*
X013339Y003670D01*
X013243Y003670D02*
X013436Y003670D01*
X013648Y003670D02*
X013841Y003670D01*
X013744Y003670D02*
X013744Y004250D01*
X013648Y004250D02*
X013841Y004250D01*
X008583Y004250D02*
X008583Y003670D01*
X008363Y003960D02*
X007976Y003960D01*
X007976Y004057D02*
X007976Y003670D01*
X006962Y013941D02*
X006962Y014729D01*
X007365Y014335D01*
X006962Y013941D01*
X015995Y015221D02*
X016782Y015221D01*
X016388Y014818D01*
X015995Y015221D01*
D13*
X015518Y015082D02*
X015518Y014775D01*
X015211Y015082D01*
X015135Y015082D01*
X015058Y015006D01*
X015058Y014852D01*
X015135Y014775D01*
X015135Y014622D02*
X015058Y014545D01*
X015058Y014315D01*
X015518Y014315D01*
X015518Y014545D01*
X015442Y014622D01*
X015135Y014622D01*
X015638Y014255D02*
X015638Y016035D01*
X017138Y016035D02*
X017138Y014255D01*
X014362Y009788D02*
X014209Y009788D01*
X014132Y009711D01*
X014362Y009788D02*
X014439Y009711D01*
X014439Y009635D01*
X014132Y009328D01*
X014439Y009328D01*
X013979Y009328D02*
X013672Y009328D01*
X013825Y009328D02*
X013825Y009788D01*
X013672Y009635D01*
X013518Y009711D02*
X013442Y009788D01*
X013211Y009788D01*
X013211Y009328D01*
X013442Y009328D01*
X013518Y009404D01*
X013518Y009711D01*
X013058Y009635D02*
X013058Y009328D01*
X013058Y009558D02*
X012751Y009558D01*
X012751Y009635D02*
X012751Y009328D01*
X012598Y009558D02*
X012521Y009481D01*
X012291Y009481D01*
X012291Y009328D02*
X012291Y009788D01*
X012521Y009788D01*
X012598Y009711D01*
X012598Y009558D01*
X012751Y009635D02*
X012904Y009788D01*
X013058Y009635D01*
X010958Y011293D02*
X010958Y011447D01*
X010958Y011370D02*
X010497Y011370D01*
X010497Y011293D02*
X010497Y011447D01*
X010574Y011600D02*
X010881Y011600D01*
X010958Y011677D01*
X010958Y011830D01*
X010881Y011907D01*
X010958Y012061D02*
X010958Y012368D01*
X010958Y012214D02*
X010497Y012214D01*
X010651Y012061D01*
X010574Y011907D02*
X010497Y011830D01*
X010497Y011677D01*
X010574Y011600D01*
X009733Y009753D02*
X009733Y009293D01*
X009886Y009293D02*
X009579Y009293D01*
X009426Y009293D02*
X009272Y009446D01*
X009349Y009446D02*
X009119Y009446D01*
X009119Y009293D02*
X009119Y009753D01*
X009349Y009753D01*
X009426Y009676D01*
X009426Y009523D01*
X009349Y009446D01*
X009579Y009600D02*
X009733Y009753D01*
X008341Y011752D02*
X008034Y011752D01*
X008341Y012059D01*
X008341Y012135D01*
X008264Y012212D01*
X008110Y012212D01*
X008034Y012135D01*
X007880Y012135D02*
X007803Y012212D01*
X007650Y012212D01*
X007573Y012135D01*
X007573Y011828D01*
X007650Y011752D01*
X007803Y011752D01*
X007880Y011828D01*
X007928Y013585D02*
X006148Y013585D01*
X006108Y014905D02*
X005878Y014905D01*
X005878Y015365D01*
X006108Y015365D01*
X006184Y015289D01*
X006184Y014982D01*
X006108Y014905D01*
X006148Y015085D02*
X007928Y015085D01*
X006645Y015058D02*
X006645Y014982D01*
X006568Y014905D01*
X006415Y014905D01*
X006338Y014982D01*
X006491Y015135D02*
X006568Y015135D01*
X006645Y015058D01*
X006568Y015135D02*
X006645Y015212D01*
X006645Y015289D01*
X006568Y015365D01*
X006415Y015365D01*
X006338Y015289D01*
X005178Y018610D02*
X005085Y018610D01*
X005131Y018610D02*
X005131Y018891D01*
X005085Y018891D02*
X005178Y018891D01*
X004982Y018891D02*
X004888Y018891D01*
X004935Y018891D02*
X004935Y018610D01*
X004888Y018610D02*
X004982Y018610D01*
X004987Y019090D02*
X004987Y019277D01*
X005080Y019371D01*
X005173Y019277D01*
X005173Y019090D01*
X005173Y019230D02*
X004987Y019230D01*
X004879Y019184D02*
X004879Y019137D01*
X004832Y019090D01*
X004739Y019090D01*
X004692Y019137D01*
X004739Y019230D02*
X004692Y019277D01*
X004692Y019324D01*
X004739Y019371D01*
X004832Y019371D01*
X004879Y019324D01*
X004832Y019230D02*
X004879Y019184D01*
X004832Y019230D02*
X004739Y019230D01*
X004584Y019090D02*
X004397Y019090D01*
X004397Y019371D01*
X004289Y019277D02*
X004289Y019090D01*
X004289Y019230D02*
X004103Y019230D01*
X004103Y019277D02*
X004103Y019090D01*
X003995Y019137D02*
X003948Y019090D01*
X003855Y019090D01*
X003808Y019137D01*
X003855Y019230D02*
X003948Y019230D01*
X003995Y019184D01*
X003995Y019137D01*
X003855Y019230D02*
X003808Y019277D01*
X003808Y019324D01*
X003855Y019371D01*
X003948Y019371D01*
X003995Y019324D01*
X004103Y019277D02*
X004196Y019371D01*
X004289Y019277D01*
X004299Y018891D02*
X004439Y018891D01*
X004486Y018844D01*
X004486Y018750D01*
X004439Y018704D01*
X004299Y018704D01*
X004299Y018610D02*
X004299Y018891D01*
X004196Y018891D02*
X004103Y018891D01*
X004149Y018891D02*
X004149Y018610D01*
X004103Y018610D02*
X004196Y018610D01*
X003995Y018657D02*
X003995Y018844D01*
X003948Y018891D01*
X003808Y018891D01*
X003808Y018610D01*
X003948Y018610D01*
X003995Y018657D01*
X005658Y007972D02*
X005658Y007665D01*
X005888Y007665D01*
X005811Y007818D01*
X005811Y007895D01*
X005888Y007972D01*
X006042Y007972D01*
X006118Y007895D01*
X006118Y007741D01*
X006042Y007665D01*
X006042Y007511D02*
X006118Y007434D01*
X006118Y007281D01*
X006042Y007204D01*
X005735Y007204D01*
X005658Y007281D01*
X005658Y007434D01*
X005735Y007511D01*
D14*
X006208Y008490D02*
X005958Y008740D01*
X005958Y009240D01*
X006208Y009490D01*
X006708Y009490D01*
X006958Y009240D01*
X006958Y008740D01*
X006708Y008490D01*
X006208Y008490D01*
X005931Y009671D02*
X005731Y009671D01*
X005731Y009871D01*
X005731Y010671D02*
X005731Y010871D01*
X005931Y010871D01*
X005813Y011010D02*
X006913Y011010D01*
X006930Y011012D01*
X006947Y011016D01*
X006963Y011023D01*
X006977Y011033D01*
X006990Y011046D01*
X007000Y011060D01*
X007007Y011076D01*
X007011Y011093D01*
X007013Y011110D01*
X007013Y011710D01*
X007011Y011727D01*
X007007Y011744D01*
X007000Y011760D01*
X006990Y011774D01*
X006977Y011787D01*
X006963Y011797D01*
X006947Y011804D01*
X006930Y011808D01*
X006913Y011810D01*
X005813Y011810D01*
X005796Y011808D01*
X005779Y011804D01*
X005763Y011797D01*
X005749Y011787D01*
X005736Y011774D01*
X005726Y011760D01*
X005719Y011744D01*
X005715Y011727D01*
X005713Y011710D01*
X005713Y011110D01*
X005715Y011093D01*
X005719Y011076D01*
X005726Y011060D01*
X005736Y011046D01*
X005749Y011033D01*
X005763Y011023D01*
X005779Y011016D01*
X005796Y011012D01*
X005813Y011010D01*
X006731Y010871D02*
X006931Y010871D01*
X006931Y010671D01*
X006931Y009871D02*
X006931Y009671D01*
X006731Y009671D01*
X007888Y008757D02*
X007888Y007257D01*
X008138Y007007D01*
X008638Y007007D01*
X008888Y007257D01*
X008888Y008757D01*
X008638Y009007D01*
X008138Y009007D01*
X007888Y008757D01*
X008888Y008757D02*
X009138Y009007D01*
X009638Y009007D01*
X009888Y008757D01*
X009888Y007257D01*
X009638Y007007D01*
X009138Y007007D01*
X008888Y007257D01*
X009888Y007257D02*
X010138Y007007D01*
X010638Y007007D01*
X010888Y007257D01*
X010888Y008757D01*
X010638Y009007D01*
X010138Y009007D01*
X009888Y008757D01*
X011890Y008143D02*
X014650Y008143D01*
X014650Y005523D01*
X014510Y005383D01*
X011890Y005383D01*
X011890Y008143D01*
X014209Y005683D02*
X014211Y005706D01*
X014217Y005729D01*
X014226Y005750D01*
X014239Y005770D01*
X014255Y005787D01*
X014273Y005801D01*
X014293Y005812D01*
X014315Y005820D01*
X014338Y005824D01*
X014362Y005824D01*
X014385Y005820D01*
X014407Y005812D01*
X014427Y005801D01*
X014445Y005787D01*
X014461Y005770D01*
X014474Y005750D01*
X014483Y005729D01*
X014489Y005706D01*
X014491Y005683D01*
X014489Y005660D01*
X014483Y005637D01*
X014474Y005616D01*
X014461Y005596D01*
X014445Y005579D01*
X014427Y005565D01*
X014407Y005554D01*
X014385Y005546D01*
X014362Y005542D01*
X014338Y005542D01*
X014315Y005546D01*
X014293Y005554D01*
X014273Y005565D01*
X014255Y005579D01*
X014239Y005596D01*
X014226Y005616D01*
X014217Y005637D01*
X014211Y005660D01*
X014209Y005683D01*
X015793Y005760D02*
X015793Y006260D01*
X016043Y006510D01*
X016543Y006510D01*
X016793Y006260D01*
X016793Y005760D01*
X016543Y005510D01*
X016793Y005260D01*
X016793Y004760D01*
X016543Y004510D01*
X016793Y004260D01*
X016793Y003760D01*
X016543Y003510D01*
X016043Y003510D01*
X015793Y003760D01*
X015793Y004260D01*
X016043Y004510D01*
X015793Y004760D01*
X015793Y005260D01*
X016043Y005510D01*
X015793Y005760D01*
X015998Y006830D02*
X017098Y006830D01*
X017115Y006832D01*
X017132Y006836D01*
X017148Y006843D01*
X017162Y006853D01*
X017175Y006866D01*
X017185Y006880D01*
X017192Y006896D01*
X017196Y006913D01*
X017198Y006930D01*
X017198Y007530D01*
X017196Y007547D01*
X017192Y007564D01*
X017185Y007580D01*
X017175Y007594D01*
X017162Y007607D01*
X017148Y007617D01*
X017132Y007624D01*
X017115Y007628D01*
X017098Y007630D01*
X015998Y007630D01*
X015988Y007670D02*
X017088Y007670D01*
X017105Y007672D01*
X017122Y007676D01*
X017138Y007683D01*
X017152Y007693D01*
X017165Y007706D01*
X017175Y007720D01*
X017182Y007736D01*
X017186Y007753D01*
X017188Y007770D01*
X017188Y008370D01*
X017186Y008387D01*
X017182Y008404D01*
X017175Y008420D01*
X017165Y008434D01*
X017152Y008447D01*
X017138Y008457D01*
X017122Y008464D01*
X017105Y008468D01*
X017088Y008470D01*
X015988Y008470D01*
X016043Y008510D02*
X015793Y008760D01*
X015793Y009260D01*
X016043Y009510D01*
X016543Y009510D01*
X016793Y009260D01*
X016793Y008760D01*
X016543Y008510D01*
X016043Y008510D01*
X015988Y008470D02*
X015971Y008468D01*
X015954Y008464D01*
X015938Y008457D01*
X015924Y008447D01*
X015911Y008434D01*
X015901Y008420D01*
X015894Y008404D01*
X015890Y008387D01*
X015888Y008370D01*
X015888Y007770D01*
X015890Y007753D01*
X015894Y007736D01*
X015901Y007720D01*
X015911Y007706D01*
X015924Y007693D01*
X015938Y007683D01*
X015954Y007676D01*
X015971Y007672D01*
X015988Y007670D01*
X015998Y007630D02*
X015981Y007628D01*
X015964Y007624D01*
X015948Y007617D01*
X015934Y007607D01*
X015921Y007594D01*
X015911Y007580D01*
X015904Y007564D01*
X015900Y007547D01*
X015898Y007530D01*
X015898Y006930D01*
X015900Y006913D01*
X015904Y006896D01*
X015911Y006880D01*
X015921Y006866D01*
X015934Y006853D01*
X015948Y006843D01*
X015964Y006836D01*
X015981Y006832D01*
X015998Y006830D01*
X015050Y004041D02*
X014950Y004041D01*
X015050Y004041D02*
X015050Y003941D01*
X015050Y003541D02*
X015050Y003441D01*
X014950Y003441D01*
X014550Y003441D02*
X014450Y003441D01*
X014450Y003541D01*
X014450Y003941D02*
X014450Y004041D01*
X014550Y004041D01*
X014772Y001961D02*
X014972Y001961D01*
X014972Y001761D01*
X015740Y001761D02*
X015740Y001961D01*
X015940Y001961D01*
X016740Y001961D02*
X016940Y001961D01*
X016940Y001761D01*
X016940Y000961D02*
X016940Y000761D01*
X016740Y000761D01*
X017219Y000485D02*
X017219Y017985D01*
X017221Y018015D01*
X017226Y018045D01*
X017235Y018074D01*
X017248Y018101D01*
X017263Y018127D01*
X017282Y018151D01*
X017303Y018172D01*
X017327Y018191D01*
X017353Y018206D01*
X017380Y018219D01*
X017409Y018228D01*
X017439Y018233D01*
X017469Y018235D01*
X019369Y018235D01*
X019399Y018233D01*
X019429Y018228D01*
X019458Y018219D01*
X019485Y018206D01*
X019511Y018191D01*
X019535Y018172D01*
X019556Y018151D01*
X019575Y018127D01*
X019590Y018101D01*
X019603Y018074D01*
X019612Y018045D01*
X019617Y018015D01*
X019619Y017985D01*
X019619Y000485D01*
X019617Y000455D01*
X019612Y000425D01*
X019603Y000396D01*
X019590Y000369D01*
X019575Y000343D01*
X019556Y000319D01*
X019535Y000298D01*
X019511Y000279D01*
X019485Y000264D01*
X019458Y000251D01*
X019429Y000242D01*
X019399Y000237D01*
X019369Y000235D01*
X017469Y000235D01*
X017439Y000237D01*
X017409Y000242D01*
X017380Y000251D01*
X017353Y000264D01*
X017327Y000279D01*
X017303Y000298D01*
X017282Y000319D01*
X017263Y000343D01*
X017248Y000369D01*
X017235Y000396D01*
X017226Y000425D01*
X017221Y000455D01*
X017219Y000485D01*
X015940Y000761D02*
X015740Y000761D01*
X015740Y000961D01*
X014972Y000961D02*
X014972Y000761D01*
X014772Y000761D01*
X013972Y000761D02*
X013772Y000761D01*
X013772Y000961D01*
X013003Y000961D02*
X013003Y000761D01*
X012803Y000761D01*
X012003Y000761D02*
X011803Y000761D01*
X011803Y000961D01*
X011035Y000961D02*
X011035Y000761D01*
X010835Y000761D01*
X010035Y000761D02*
X009835Y000761D01*
X009835Y000961D01*
X009066Y000961D02*
X009066Y000761D01*
X008866Y000761D01*
X008066Y000761D02*
X007866Y000761D01*
X007866Y000961D01*
X007098Y000961D02*
X007098Y000761D01*
X006898Y000761D01*
X006098Y000761D02*
X005898Y000761D01*
X005898Y000961D01*
X005619Y000485D02*
X005619Y017985D01*
X005617Y018015D01*
X005612Y018045D01*
X005603Y018074D01*
X005590Y018101D01*
X005575Y018127D01*
X005556Y018151D01*
X005535Y018172D01*
X005511Y018191D01*
X005485Y018206D01*
X005458Y018219D01*
X005429Y018228D01*
X005399Y018233D01*
X005369Y018235D01*
X003469Y018235D01*
X003439Y018233D01*
X003409Y018228D01*
X003380Y018219D01*
X003353Y018206D01*
X003327Y018191D01*
X003303Y018172D01*
X003282Y018151D01*
X003263Y018127D01*
X003248Y018101D01*
X003235Y018074D01*
X003226Y018045D01*
X003221Y018015D01*
X003219Y017985D01*
X003219Y000485D01*
X003221Y000455D01*
X003226Y000425D01*
X003235Y000396D01*
X003248Y000369D01*
X003263Y000343D01*
X003282Y000319D01*
X003303Y000298D01*
X003327Y000279D01*
X003353Y000264D01*
X003380Y000251D01*
X003409Y000242D01*
X003439Y000237D01*
X003469Y000235D01*
X005369Y000235D01*
X005399Y000237D01*
X005429Y000242D01*
X005458Y000251D01*
X005485Y000264D01*
X005511Y000279D01*
X005535Y000298D01*
X005556Y000319D01*
X005575Y000343D01*
X005590Y000369D01*
X005603Y000396D01*
X005612Y000425D01*
X005617Y000455D01*
X005619Y000485D01*
X005898Y001761D02*
X005898Y001961D01*
X006098Y001961D01*
X006898Y001961D02*
X007098Y001961D01*
X007098Y001761D01*
X007866Y001761D02*
X007866Y001961D01*
X008066Y001961D01*
X008866Y001961D02*
X009066Y001961D01*
X009066Y001761D01*
X009835Y001761D02*
X009835Y001961D01*
X010035Y001961D01*
X010835Y001961D02*
X011035Y001961D01*
X011035Y001761D01*
X011803Y001761D02*
X011803Y001961D01*
X012003Y001961D01*
X012803Y001961D02*
X013003Y001961D01*
X013003Y001761D01*
X013772Y001761D02*
X013772Y001961D01*
X013972Y001961D01*
X006958Y003740D02*
X006958Y004240D01*
X006708Y004490D01*
X006958Y004740D01*
X006958Y005240D01*
X006708Y005490D01*
X006958Y005740D01*
X006958Y006240D01*
X006708Y006490D01*
X006208Y006490D01*
X005958Y006240D01*
X005958Y005740D01*
X006208Y005490D01*
X005958Y005240D01*
X005958Y004740D01*
X006208Y004490D01*
X005958Y004240D01*
X005958Y003740D01*
X006208Y003490D01*
X006708Y003490D01*
X006958Y003740D01*
X002053Y003692D02*
X002053Y003265D01*
X001626Y003692D01*
X001520Y003692D01*
X001413Y003585D01*
X001413Y003372D01*
X001520Y003265D01*
X001520Y003910D02*
X001413Y004016D01*
X001413Y004230D01*
X001520Y004337D01*
X001947Y003910D01*
X002053Y004016D01*
X002053Y004230D01*
X001947Y004337D01*
X001520Y004337D01*
X001626Y004554D02*
X001413Y004768D01*
X002053Y004768D01*
X002053Y004981D02*
X002053Y004554D01*
X001947Y003910D02*
X001520Y003910D01*
X001733Y005199D02*
X001733Y005519D01*
X001840Y005626D01*
X001947Y005626D01*
X002053Y005519D01*
X002053Y005305D01*
X001947Y005199D01*
X001733Y005199D01*
X001520Y005412D01*
X001413Y005626D01*
X001413Y006270D02*
X002053Y005843D01*
X001947Y006488D02*
X001520Y006488D01*
X001413Y006595D01*
X001413Y006808D01*
X001520Y006915D01*
X001947Y006488D01*
X002053Y006595D01*
X002053Y006808D01*
X001947Y006915D01*
X001520Y006915D01*
X001520Y007132D02*
X001413Y007239D01*
X001413Y007453D01*
X001520Y007559D01*
X001626Y007559D01*
X001733Y007453D01*
X001840Y007559D01*
X001947Y007559D01*
X002053Y007453D01*
X002053Y007239D01*
X001947Y007132D01*
X001733Y007346D02*
X001733Y007453D01*
X002053Y007777D02*
X001413Y008204D01*
X001520Y008421D02*
X001413Y008528D01*
X001413Y008742D01*
X001520Y008848D01*
X001947Y008421D01*
X002053Y008528D01*
X002053Y008742D01*
X001947Y008848D01*
X001520Y008848D01*
X001520Y009066D02*
X001413Y009173D01*
X001413Y009386D01*
X001520Y009493D01*
X001626Y009493D01*
X001733Y009386D01*
X001840Y009493D01*
X001947Y009493D01*
X002053Y009386D01*
X002053Y009173D01*
X001947Y009066D01*
X001733Y009279D02*
X001733Y009386D01*
X001947Y008421D02*
X001520Y008421D01*
X005898Y018084D02*
X005898Y018284D01*
X005898Y018084D02*
X006098Y018084D01*
X006898Y018084D02*
X007098Y018084D01*
X007098Y018284D01*
X007866Y018284D02*
X007866Y018084D01*
X008066Y018084D01*
X008866Y018084D02*
X009066Y018084D01*
X009066Y018284D01*
X009835Y018284D02*
X009835Y018084D01*
X010035Y018084D01*
X010835Y018084D02*
X011035Y018084D01*
X011035Y018284D01*
X011803Y018284D02*
X011803Y018084D01*
X012003Y018084D01*
X012803Y018084D02*
X013003Y018084D01*
X013003Y018284D01*
X013772Y018284D02*
X013772Y018084D01*
X013972Y018084D01*
X014772Y018084D02*
X014972Y018084D01*
X014972Y018284D01*
X015740Y018284D02*
X015740Y018084D01*
X015940Y018084D01*
X016740Y018084D02*
X016940Y018084D01*
X016940Y018284D01*
X016940Y019084D02*
X016940Y019284D01*
X016740Y019284D01*
X015940Y019284D02*
X015740Y019284D01*
X015740Y019084D01*
X014972Y019084D02*
X014972Y019284D01*
X014772Y019284D01*
X013972Y019284D02*
X013772Y019284D01*
X013772Y019084D01*
X013003Y019084D02*
X013003Y019284D01*
X012803Y019284D01*
X012003Y019284D02*
X011803Y019284D01*
X011803Y019084D01*
X011035Y019084D02*
X011035Y019284D01*
X010835Y019284D01*
X010035Y019284D02*
X009835Y019284D01*
X009835Y019084D01*
X009066Y019084D02*
X009066Y019284D01*
X008866Y019284D01*
X008066Y019284D02*
X007866Y019284D01*
X007866Y019084D01*
X007098Y019084D02*
X007098Y019284D01*
X006898Y019284D01*
X006098Y019284D02*
X005898Y019284D01*
X005898Y019084D01*
X015779Y011993D02*
X015779Y011393D01*
X015781Y011376D01*
X015785Y011359D01*
X015792Y011343D01*
X015802Y011329D01*
X015815Y011316D01*
X015829Y011306D01*
X015845Y011299D01*
X015862Y011295D01*
X015879Y011293D01*
X016979Y011293D01*
X016996Y011295D01*
X017013Y011299D01*
X017029Y011306D01*
X017043Y011316D01*
X017056Y011329D01*
X017066Y011343D01*
X017073Y011359D01*
X017077Y011376D01*
X017079Y011393D01*
X017079Y011993D01*
X017077Y012010D01*
X017073Y012027D01*
X017066Y012043D01*
X017056Y012057D01*
X017043Y012070D01*
X017029Y012080D01*
X017013Y012087D01*
X016996Y012091D01*
X016979Y012093D01*
X015879Y012093D01*
X015862Y012091D01*
X015845Y012087D01*
X015829Y012080D01*
X015815Y012070D01*
X015802Y012057D01*
X015792Y012043D01*
X015785Y012027D01*
X015781Y012010D01*
X015779Y011993D01*
D15*
X014427Y004758D02*
X014377Y004708D01*
X014330Y004758D02*
X014330Y004633D01*
X014305Y004608D01*
X014255Y004608D01*
X014230Y004633D01*
X014230Y004758D01*
X014427Y004758D02*
X014427Y004608D01*
X014377Y004608D02*
X014477Y004608D01*
D16*
X003044Y000760D02*
X002594Y000760D01*
X002744Y000610D01*
X003044Y000610D02*
X003044Y000910D01*
X007133Y003915D02*
X007583Y003915D01*
X007583Y003765D02*
X007583Y004065D01*
X007283Y003765D02*
X007133Y003915D01*
X008246Y005256D02*
X010372Y005256D01*
X010371Y005256D02*
X010392Y005254D01*
X010413Y005256D01*
X010433Y005262D01*
X010452Y005271D01*
X010469Y005283D01*
X010484Y005298D01*
X010495Y005315D01*
X010504Y005334D01*
X010509Y005354D01*
X010509Y005512D01*
X010723Y005349D02*
X010329Y004956D01*
X008754Y004956D01*
X008754Y006924D01*
X010723Y006924D01*
X010723Y005349D01*
X010723Y004956D01*
X010329Y004956D01*
X010837Y004882D02*
X010839Y004896D01*
X010845Y004910D01*
X010853Y004922D01*
X010865Y004930D01*
X010879Y004936D01*
X010893Y004938D01*
X010907Y004936D01*
X010921Y004930D01*
X010933Y004922D01*
X010941Y004910D01*
X010947Y004896D01*
X010949Y004882D01*
X010947Y004868D01*
X010941Y004854D01*
X010933Y004842D01*
X010921Y004834D01*
X010907Y004828D01*
X010893Y004826D01*
X010879Y004828D01*
X010865Y004834D01*
X010853Y004842D01*
X010845Y004854D01*
X010839Y004868D01*
X010837Y004882D01*
X009919Y005650D02*
X009919Y006240D01*
X008738Y006240D01*
X008738Y005650D01*
X009919Y005650D01*
X008911Y005940D02*
X008913Y005997D01*
X008919Y006054D01*
X008929Y006110D01*
X008942Y006166D01*
X008960Y006220D01*
X008981Y006273D01*
X009006Y006324D01*
X009034Y006374D01*
X009066Y006421D01*
X009100Y006467D01*
X009138Y006509D01*
X009179Y006549D01*
X009222Y006587D01*
X009268Y006621D01*
X009316Y006651D01*
X009366Y006679D01*
X009418Y006703D01*
X009472Y006723D01*
X009526Y006739D01*
X009582Y006752D01*
X009638Y006761D01*
X009695Y006766D01*
X009752Y006767D01*
X009809Y006764D01*
X009866Y006757D01*
X009922Y006746D01*
X009977Y006732D01*
X010031Y006713D01*
X010084Y006691D01*
X010135Y006666D01*
X010184Y006636D01*
X010231Y006604D01*
X010276Y006568D01*
X010318Y006530D01*
X010357Y006488D01*
X010393Y006444D01*
X010427Y006398D01*
X010457Y006349D01*
X010483Y006299D01*
X010506Y006247D01*
X010525Y006193D01*
X010541Y006138D01*
X010553Y006082D01*
X010561Y006025D01*
X010565Y005969D01*
X010565Y005911D01*
X010561Y005855D01*
X010553Y005798D01*
X010541Y005742D01*
X010525Y005687D01*
X010506Y005633D01*
X010483Y005581D01*
X010457Y005531D01*
X010427Y005482D01*
X010393Y005436D01*
X010357Y005392D01*
X010318Y005350D01*
X010276Y005312D01*
X010231Y005276D01*
X010184Y005244D01*
X010135Y005214D01*
X010084Y005189D01*
X010031Y005167D01*
X009977Y005148D01*
X009922Y005134D01*
X009866Y005123D01*
X009809Y005116D01*
X009752Y005113D01*
X009695Y005114D01*
X009638Y005119D01*
X009582Y005128D01*
X009526Y005141D01*
X009472Y005157D01*
X009418Y005177D01*
X009366Y005201D01*
X009316Y005229D01*
X009268Y005259D01*
X009222Y005293D01*
X009179Y005331D01*
X009138Y005371D01*
X009100Y005413D01*
X009066Y005459D01*
X009034Y005506D01*
X009006Y005556D01*
X008981Y005607D01*
X008960Y005660D01*
X008942Y005714D01*
X008929Y005770D01*
X008919Y005826D01*
X008913Y005883D01*
X008911Y005940D01*
X008246Y005256D02*
X008229Y005257D01*
X008212Y005262D01*
X008197Y005269D01*
X008183Y005279D01*
X008171Y005291D01*
X008161Y005305D01*
X008154Y005320D01*
X008149Y005337D01*
X008148Y005354D01*
X008147Y005354D02*
X008147Y005512D01*
X008147Y006378D02*
X008147Y006536D01*
X008148Y006536D02*
X008149Y006553D01*
X008154Y006570D01*
X008161Y006585D01*
X008171Y006599D01*
X008183Y006611D01*
X008197Y006621D01*
X008212Y006628D01*
X008229Y006633D01*
X008246Y006634D01*
X010411Y006634D01*
X010428Y006633D01*
X010445Y006628D01*
X010460Y006621D01*
X010474Y006611D01*
X010486Y006599D01*
X010496Y006585D01*
X010503Y006570D01*
X010508Y006553D01*
X010509Y006536D01*
X010509Y006378D01*
X006928Y009620D02*
X015628Y009620D01*
X015628Y016220D01*
X006928Y016220D01*
X006928Y009620D01*
X005783Y008990D02*
X005708Y009065D01*
X005633Y009065D01*
X005558Y008990D01*
X005558Y008765D01*
X005708Y008765D01*
X005783Y008840D01*
X005783Y008990D01*
X005558Y008765D02*
X005408Y008915D01*
X005333Y009065D01*
X005217Y009433D02*
X005217Y009658D01*
X005292Y009733D01*
X005442Y009733D01*
X005517Y009658D01*
X005517Y009433D01*
X005667Y009433D02*
X005217Y009433D01*
X005367Y009894D02*
X005217Y010044D01*
X005367Y010194D01*
X005667Y010194D01*
X005667Y010354D02*
X005667Y010579D01*
X005592Y010654D01*
X005292Y010654D01*
X005217Y010579D01*
X005217Y010354D01*
X005667Y010354D01*
X005442Y010194D02*
X005442Y009894D01*
X005367Y009894D02*
X005667Y009894D01*
X005592Y010814D02*
X005517Y010814D01*
X005442Y010889D01*
X005442Y011040D01*
X005517Y011115D01*
X005592Y011115D01*
X005667Y011040D01*
X005667Y010889D01*
X005592Y010814D01*
X005442Y010889D02*
X005367Y010814D01*
X005292Y010814D01*
X005217Y010889D01*
X005217Y011040D01*
X005292Y011115D01*
X005367Y011115D01*
X005442Y011040D01*
X005603Y011825D02*
X005528Y011900D01*
X005603Y011825D02*
X005754Y011825D01*
X005829Y011900D01*
X005829Y011975D01*
X005754Y012050D01*
X005603Y012050D01*
X005528Y012125D01*
X005528Y012200D01*
X005603Y012275D01*
X005754Y012275D01*
X005829Y012200D01*
X006139Y012275D02*
X006289Y012275D01*
X006214Y012275D02*
X006214Y011900D01*
X006139Y011825D01*
X006064Y011825D01*
X005989Y011900D01*
X006449Y011825D02*
X006749Y011825D01*
X006599Y011825D02*
X006599Y012275D01*
X006449Y012125D01*
X006910Y012200D02*
X006910Y011900D01*
X007210Y012200D01*
X007210Y011900D01*
X007135Y011825D01*
X006985Y011825D01*
X006910Y011900D01*
X006910Y012200D02*
X006985Y012275D01*
X007135Y012275D01*
X007210Y012200D01*
X006169Y017410D02*
X006244Y017485D01*
X006244Y017635D01*
X006169Y017710D01*
X006094Y017710D01*
X006019Y017635D01*
X006019Y017560D01*
X006019Y017635D02*
X005944Y017710D01*
X005869Y017710D01*
X005794Y017635D01*
X005794Y017485D01*
X005869Y017410D01*
X006019Y017871D02*
X005869Y018021D01*
X005794Y018171D01*
X006019Y018096D02*
X006019Y017871D01*
X006169Y017871D01*
X006244Y017946D01*
X006244Y018096D01*
X006169Y018171D01*
X006094Y018171D01*
X006019Y018096D01*
X015168Y009085D02*
X015243Y008935D01*
X015393Y008785D01*
X015393Y009010D01*
X015468Y009085D01*
X015543Y009085D01*
X015618Y009010D01*
X015618Y008860D01*
X015543Y008785D01*
X015393Y008785D01*
X015879Y012168D02*
X015804Y012243D01*
X015879Y012168D02*
X016029Y012168D01*
X016104Y012243D01*
X016104Y012318D01*
X016029Y012393D01*
X015879Y012393D01*
X015804Y012469D01*
X015804Y012544D01*
X015879Y012619D01*
X016029Y012619D01*
X016104Y012544D01*
X016415Y012619D02*
X016565Y012619D01*
X016490Y012619D02*
X016490Y012243D01*
X016415Y012168D01*
X016340Y012168D01*
X016265Y012243D01*
X016725Y012243D02*
X016800Y012168D01*
X016950Y012168D01*
X017025Y012243D01*
X017185Y012393D02*
X017486Y012393D01*
X017410Y012168D02*
X017410Y012619D01*
X017185Y012393D01*
X017025Y012544D02*
X016950Y012619D01*
X016800Y012619D01*
X016725Y012544D01*
X016725Y012243D01*
X019869Y017410D02*
X019794Y017485D01*
X019794Y017635D01*
X019869Y017710D01*
X019944Y017710D01*
X020019Y017635D01*
X020094Y017710D01*
X020169Y017710D01*
X020244Y017635D01*
X020244Y017485D01*
X020169Y017410D01*
X020019Y017560D02*
X020019Y017635D01*
X020019Y017871D02*
X019869Y018021D01*
X019794Y018171D01*
X020019Y018096D02*
X020019Y017871D01*
X020169Y017871D01*
X020244Y017946D01*
X020244Y018096D01*
X020169Y018171D01*
X020094Y018171D01*
X020019Y018096D01*
X017418Y004085D02*
X017418Y003785D01*
X017418Y003935D02*
X016968Y003935D01*
X017118Y003785D01*
X016647Y003226D02*
X016722Y003151D01*
X016422Y002851D01*
X016497Y002776D01*
X016647Y002776D01*
X016722Y002851D01*
X016722Y003151D01*
X016647Y003226D02*
X016497Y003226D01*
X016422Y003151D01*
X016422Y002851D01*
X016262Y002776D02*
X015962Y002776D01*
X016112Y002776D02*
X016112Y003226D01*
X015962Y003076D01*
X015801Y003151D02*
X015801Y002851D01*
X015726Y002776D01*
X015501Y002776D01*
X015501Y003226D01*
X015726Y003226D01*
X015801Y003151D01*
X015341Y003076D02*
X015341Y002776D01*
X015341Y003001D02*
X015041Y003001D01*
X015041Y003076D02*
X015041Y002776D01*
X014881Y003001D02*
X014806Y002926D01*
X014580Y002926D01*
X014580Y002776D02*
X014580Y003226D01*
X014806Y003226D01*
X014881Y003151D01*
X014881Y003001D01*
X015041Y003076D02*
X015191Y003226D01*
X015341Y003076D01*
X017044Y000910D02*
X017044Y000610D01*
X017044Y000760D02*
X016594Y000760D01*
X016744Y000610D01*
D17*
X007725Y007699D03*
X007252Y007699D03*
D18*
X007489Y007699D03*
D19*
X009029Y006103D02*
X008982Y006056D01*
X008982Y006009D01*
X009029Y005963D01*
X009122Y005963D01*
X009169Y005916D01*
X009169Y005869D01*
X009122Y005822D01*
X009029Y005822D01*
X008982Y005869D01*
X009029Y006103D02*
X009122Y006103D01*
X009169Y006056D01*
X009258Y006009D02*
X009352Y006103D01*
X009352Y005822D01*
X009445Y005822D02*
X009258Y005822D01*
M02*
