G75*
%MOIN*%
%OFA0B0*%
%FSLAX24Y24*%
%IPPOS*%
%LPD*%
%AMOC8*
5,1,8,0,0,1.08239X$1,22.5*
%
%ADD10C,0.0160*%
%ADD11R,0.0480X0.0880*%
%ADD12R,0.1417X0.0866*%
%ADD13R,0.0630X0.0787*%
%ADD14R,0.0512X0.0591*%
%ADD15R,0.0500X0.1000*%
%ADD16R,0.0630X0.0709*%
%ADD17R,0.0260X0.0800*%
%ADD18R,0.0591X0.0512*%
%ADD19R,0.0460X0.0630*%
%ADD20R,0.0630X0.0460*%
%ADD21R,0.0945X0.0945*%
D10*
X003348Y000180D02*
X019490Y000180D01*
X019490Y019865D01*
X003348Y019865D01*
X003348Y000180D01*
D11*
X006202Y016778D03*
X007112Y016778D03*
X008022Y016778D03*
X009120Y016762D03*
X010029Y016762D03*
X010939Y016762D03*
X012021Y016747D03*
X012931Y016747D03*
X013841Y016747D03*
X014836Y016747D03*
X015746Y016747D03*
X016656Y016747D03*
D12*
X015746Y014306D03*
X012931Y014306D03*
X010029Y014322D03*
X007112Y014338D03*
D13*
X008879Y005840D03*
X009981Y005840D03*
D14*
X016054Y009865D03*
X016802Y009865D03*
D15*
X012964Y012583D03*
D16*
X007859Y002920D03*
X006756Y002920D03*
D17*
X012052Y005443D03*
X012552Y005443D03*
X013052Y005443D03*
X013552Y005443D03*
X014052Y005443D03*
X014552Y005443D03*
X015052Y005443D03*
X015052Y007863D03*
X014552Y007863D03*
X014052Y007863D03*
X013552Y007863D03*
X013052Y007863D03*
X012552Y007863D03*
X012052Y007863D03*
D18*
X011820Y004433D03*
X011820Y003685D03*
D19*
X012100Y013037D03*
X011500Y013037D03*
X010090Y013068D03*
X009490Y013068D03*
D20*
X011786Y011955D03*
X011786Y011355D03*
X011786Y011128D03*
X011786Y010528D03*
X011773Y009845D03*
X011773Y009245D03*
D21*
X014517Y012890D03*
X016249Y012890D03*
M02*
