G75*
%MOIN*%
%OFA0B0*%
%FSLAX24Y24*%
%IPPOS*%
%LPD*%
%AMOC8*
5,1,8,0,0,1.08239X$1,22.5*
%
%ADD10C,0.0160*%
%ADD11R,0.0500X0.0220*%
%ADD12R,0.0220X0.0500*%
%ADD13OC8,0.0600*%
%ADD14OC8,0.1250*%
%ADD15R,0.0472X0.0472*%
%ADD16C,0.0600*%
%ADD17C,0.0540*%
%ADD18OC8,0.0540*%
%ADD19R,0.0500X0.1000*%
%ADD20R,0.1000X0.0500*%
%ADD21R,0.0460X0.0630*%
%ADD22R,0.0866X0.0236*%
%ADD23R,0.0512X0.0591*%
%ADD24R,0.0800X0.0260*%
%ADD25R,0.1063X0.0630*%
%ADD26C,0.0600*%
%ADD27OC8,0.0760*%
%ADD28R,0.0630X0.0460*%
%ADD29R,0.0787X0.0433*%
%ADD30R,0.0591X0.0512*%
%ADD31C,0.0376*%
%ADD32C,0.0100*%
%ADD33C,0.0240*%
%ADD34C,0.0320*%
%ADD35C,0.0060*%
%ADD36C,0.0337*%
D10*
X001046Y000180D02*
X017188Y000180D01*
X017188Y019865D01*
X001046Y019865D01*
X001046Y000180D01*
X001356Y001136D02*
X001356Y001331D01*
X001422Y001265D01*
X001811Y001265D01*
X002087Y001540D01*
X002087Y001930D01*
X001811Y002205D01*
X001422Y002205D01*
X001356Y002139D01*
X001356Y002331D01*
X001422Y002265D01*
X001811Y002265D01*
X002087Y002540D01*
X002087Y002882D01*
X002147Y002882D01*
X002147Y002540D01*
X002422Y002265D01*
X002811Y002265D01*
X003087Y002540D01*
X003087Y002930D01*
X003026Y002990D01*
X005116Y002990D01*
X005207Y003028D01*
X005278Y003098D01*
X005379Y003200D01*
X005433Y003068D01*
X005542Y002959D01*
X005685Y002900D01*
X005840Y002900D01*
X005982Y002959D01*
X006056Y003033D01*
X006056Y003033D01*
X006130Y002959D01*
X006273Y002900D01*
X006427Y002900D01*
X006570Y002959D01*
X006644Y003033D01*
X006718Y002959D01*
X006860Y002900D01*
X007015Y002900D01*
X007157Y002959D01*
X007267Y003068D01*
X007326Y003211D01*
X007326Y003230D01*
X010876Y003230D01*
X010967Y003268D01*
X011038Y003338D01*
X011091Y003391D01*
X011091Y003294D01*
X011150Y003151D01*
X011259Y003042D01*
X011402Y002983D01*
X011556Y002983D01*
X011699Y003042D01*
X011808Y003151D01*
X011867Y003294D01*
X011867Y003448D01*
X011808Y003591D01*
X011729Y003670D01*
X011729Y003730D01*
X012281Y004282D01*
X012319Y004374D01*
X012319Y004545D01*
X012607Y004545D01*
X012607Y004529D01*
X012591Y004529D01*
X012448Y004470D01*
X012339Y004360D01*
X012280Y004218D01*
X012280Y004063D01*
X012339Y003921D01*
X012448Y003812D01*
X012591Y003753D01*
X012745Y003753D01*
X012888Y003812D01*
X012997Y003921D01*
X013056Y004063D01*
X013056Y004175D01*
X013069Y004188D01*
X013107Y004280D01*
X013107Y004545D01*
X013362Y004545D01*
X013386Y004488D01*
X013469Y004404D01*
X013158Y004093D01*
X013158Y003409D01*
X013631Y002936D01*
X009173Y002936D01*
X009124Y002985D01*
X008981Y003044D01*
X008827Y003044D01*
X008684Y002985D01*
X008603Y002904D01*
X008518Y002989D01*
X008375Y003048D01*
X008221Y003048D01*
X008078Y002989D01*
X007999Y002910D01*
X007196Y002910D01*
X007105Y002872D01*
X006418Y002186D01*
X005822Y002186D01*
X005339Y001703D01*
X005339Y001019D01*
X005822Y000536D01*
X006506Y000536D01*
X006989Y001019D01*
X006989Y001635D01*
X007095Y001591D01*
X007249Y001591D01*
X007307Y001615D01*
X007307Y001019D01*
X007791Y000536D01*
X008474Y000536D01*
X008957Y001019D01*
X008957Y001703D01*
X008608Y002052D01*
X009625Y002052D01*
X009276Y001703D01*
X009276Y001019D01*
X009759Y000536D01*
X010443Y000536D01*
X010926Y001019D01*
X010926Y001703D01*
X010577Y002052D01*
X011594Y002052D01*
X011244Y001703D01*
X011244Y001019D01*
X011728Y000536D01*
X012411Y000536D01*
X012894Y001019D01*
X012894Y001703D01*
X012411Y002186D01*
X012284Y002186D01*
X012281Y002192D01*
X012211Y002262D01*
X012097Y002376D01*
X014787Y002376D01*
X014889Y002419D01*
X015147Y002676D01*
X015147Y002540D01*
X015422Y002265D01*
X015811Y002265D01*
X016087Y002540D01*
X016087Y002922D01*
X016147Y002922D01*
X016147Y002540D01*
X016422Y002265D01*
X016811Y002265D01*
X016878Y002331D01*
X016878Y002139D01*
X016811Y002205D01*
X016422Y002205D01*
X016147Y001930D01*
X016147Y001540D01*
X016422Y001265D01*
X016811Y001265D01*
X016878Y001331D01*
X016878Y001139D01*
X016811Y001205D01*
X016422Y001205D01*
X016147Y000930D01*
X016147Y000540D01*
X016197Y000490D01*
X016024Y000490D01*
X016087Y000642D01*
X016087Y000829D01*
X016015Y001001D01*
X015883Y001134D01*
X015710Y001205D01*
X015523Y001205D01*
X015350Y001134D01*
X015218Y001001D01*
X015147Y000829D01*
X015147Y000642D01*
X015209Y000490D01*
X003036Y000490D01*
X003087Y000540D01*
X003087Y000930D01*
X002811Y001205D01*
X002422Y001205D01*
X002147Y000930D01*
X002147Y000540D01*
X002197Y000490D01*
X002024Y000490D01*
X002087Y000642D01*
X002087Y000829D01*
X002015Y001001D01*
X001883Y001134D01*
X001710Y001205D01*
X001523Y001205D01*
X001356Y001136D01*
X001356Y001290D02*
X001398Y001290D01*
X001836Y001290D02*
X002398Y001290D01*
X002422Y001265D02*
X002811Y001265D01*
X003087Y001540D01*
X003087Y001930D01*
X002811Y002205D01*
X002422Y002205D01*
X002147Y001930D01*
X002147Y001540D01*
X002422Y001265D01*
X002348Y001131D02*
X001885Y001131D01*
X002027Y000973D02*
X002189Y000973D01*
X002147Y000814D02*
X002087Y000814D01*
X002087Y000656D02*
X002147Y000656D01*
X002190Y000497D02*
X002027Y000497D01*
X002885Y001131D02*
X003370Y001131D01*
X003370Y001019D02*
X003854Y000536D01*
X004537Y000536D01*
X005020Y001019D01*
X005020Y001703D01*
X004537Y002186D01*
X003854Y002186D01*
X003370Y001703D01*
X003370Y001019D01*
X003417Y000973D02*
X003044Y000973D01*
X003087Y000814D02*
X003576Y000814D01*
X003734Y000656D02*
X003087Y000656D01*
X003043Y000497D02*
X015207Y000497D01*
X015147Y000656D02*
X014471Y000656D01*
X014371Y000556D02*
X014843Y001028D01*
X014843Y001311D01*
X014088Y001311D01*
X014088Y000556D01*
X014371Y000556D01*
X014088Y000656D02*
X013988Y000656D01*
X013988Y000556D02*
X013704Y000556D01*
X013233Y001028D01*
X013233Y001311D01*
X013988Y001311D01*
X014088Y001311D01*
X014088Y001411D01*
X014843Y001411D01*
X014843Y001695D01*
X014371Y002166D01*
X014088Y002166D01*
X014088Y001411D01*
X013988Y001411D01*
X013988Y001311D01*
X013988Y000556D01*
X013988Y000814D02*
X014088Y000814D01*
X014088Y000973D02*
X013988Y000973D01*
X013988Y001131D02*
X014088Y001131D01*
X014088Y001290D02*
X013988Y001290D01*
X013988Y001411D02*
X013233Y001411D01*
X013233Y001695D01*
X013704Y002166D01*
X013988Y002166D01*
X013988Y001411D01*
X013988Y001448D02*
X014088Y001448D01*
X014088Y001607D02*
X013988Y001607D01*
X013988Y001765D02*
X014088Y001765D01*
X014088Y001924D02*
X013988Y001924D01*
X013988Y002082D02*
X014088Y002082D01*
X014455Y002082D02*
X015299Y002082D01*
X015422Y002205D02*
X015147Y001930D01*
X015147Y001540D01*
X015422Y001265D01*
X015811Y001265D01*
X016087Y001540D01*
X016087Y001930D01*
X015811Y002205D01*
X015422Y002205D01*
X015288Y002399D02*
X014841Y002399D01*
X015028Y002558D02*
X015147Y002558D01*
X014731Y002656D02*
X015306Y003231D01*
X016058Y003231D01*
X016136Y003310D01*
X016147Y003698D02*
X016087Y003698D01*
X016087Y003930D01*
X016027Y003989D01*
X016072Y003989D01*
X016164Y004027D01*
X016234Y004097D01*
X016336Y004200D01*
X016375Y004292D01*
X016375Y004313D01*
X016422Y004265D01*
X016811Y004265D01*
X016878Y004331D01*
X016878Y004139D01*
X016811Y004205D01*
X016422Y004205D01*
X016147Y003930D01*
X016147Y003698D01*
X016147Y003826D02*
X016087Y003826D01*
X016032Y003984D02*
X016201Y003984D01*
X016279Y004143D02*
X016359Y004143D01*
X016375Y004301D02*
X016386Y004301D01*
X016847Y004301D02*
X016878Y004301D01*
X016874Y004143D02*
X016878Y004143D01*
X016878Y003331D02*
X016878Y003139D01*
X016811Y003205D01*
X016513Y003205D01*
X016524Y003233D01*
X016524Y003265D01*
X016811Y003265D01*
X016878Y003331D01*
X016878Y003192D02*
X016825Y003192D01*
X016147Y002875D02*
X016087Y002875D01*
X016087Y002716D02*
X016147Y002716D01*
X016147Y002558D02*
X016087Y002558D01*
X015945Y002399D02*
X016288Y002399D01*
X016299Y002082D02*
X015934Y002082D01*
X016087Y001924D02*
X016147Y001924D01*
X016147Y001765D02*
X016087Y001765D01*
X016087Y001607D02*
X016147Y001607D01*
X016239Y001448D02*
X015994Y001448D01*
X015836Y001290D02*
X016398Y001290D01*
X016348Y001131D02*
X015885Y001131D01*
X016027Y000973D02*
X016189Y000973D01*
X016147Y000814D02*
X016087Y000814D01*
X016087Y000656D02*
X016147Y000656D01*
X016190Y000497D02*
X016027Y000497D01*
X015348Y001131D02*
X014843Y001131D01*
X014843Y001290D02*
X015398Y001290D01*
X015239Y001448D02*
X014843Y001448D01*
X014843Y001607D02*
X015147Y001607D01*
X015147Y001765D02*
X014772Y001765D01*
X014614Y001924D02*
X015147Y001924D01*
X014731Y002656D02*
X008904Y002656D01*
X008799Y003033D02*
X008412Y003033D01*
X008183Y003033D02*
X007231Y003033D01*
X007318Y003192D02*
X011133Y003192D01*
X011091Y003350D02*
X011049Y003350D01*
X011280Y003033D02*
X009009Y003033D01*
X008737Y001924D02*
X009497Y001924D01*
X009338Y001765D02*
X008895Y001765D01*
X008957Y001607D02*
X009276Y001607D01*
X009276Y001448D02*
X008957Y001448D01*
X008957Y001290D02*
X009276Y001290D01*
X009276Y001131D02*
X008957Y001131D01*
X008911Y000973D02*
X009323Y000973D01*
X009481Y000814D02*
X008752Y000814D01*
X008594Y000656D02*
X009640Y000656D01*
X010562Y000656D02*
X011608Y000656D01*
X011450Y000814D02*
X010721Y000814D01*
X010879Y000973D02*
X011291Y000973D01*
X011244Y001131D02*
X010926Y001131D01*
X010926Y001290D02*
X011244Y001290D01*
X011244Y001448D02*
X010926Y001448D01*
X010926Y001607D02*
X011244Y001607D01*
X011307Y001765D02*
X010864Y001765D01*
X010705Y001924D02*
X011465Y001924D01*
X012211Y002262D02*
X012211Y002262D01*
X012233Y002241D02*
X016878Y002241D01*
X016836Y001290D02*
X016878Y001290D01*
X015206Y000973D02*
X014788Y000973D01*
X014629Y000814D02*
X015147Y000814D01*
X013605Y000656D02*
X012531Y000656D01*
X012689Y000814D02*
X013447Y000814D01*
X013288Y000973D02*
X012848Y000973D01*
X012894Y001131D02*
X013233Y001131D01*
X013233Y001290D02*
X012894Y001290D01*
X012894Y001448D02*
X013233Y001448D01*
X013233Y001607D02*
X012894Y001607D01*
X012832Y001765D02*
X013303Y001765D01*
X013462Y001924D02*
X012674Y001924D01*
X012515Y002082D02*
X013620Y002082D01*
X014335Y002936D02*
X014808Y003409D01*
X014808Y004093D01*
X014459Y004442D01*
X014667Y004442D01*
X015081Y004027D01*
X015173Y003989D01*
X015206Y003989D01*
X015147Y003930D01*
X015147Y003540D01*
X015198Y003489D01*
X015147Y003469D01*
X015068Y003390D01*
X014615Y002936D01*
X014335Y002936D01*
X014432Y003033D02*
X014711Y003033D01*
X014590Y003192D02*
X014870Y003192D01*
X014749Y003350D02*
X015028Y003350D01*
X015179Y003509D02*
X014808Y003509D01*
X014808Y003667D02*
X015147Y003667D01*
X015147Y003826D02*
X014808Y003826D01*
X014808Y003984D02*
X015201Y003984D01*
X014966Y004143D02*
X014758Y004143D01*
X014807Y004301D02*
X014599Y004301D01*
X015039Y004777D02*
X015147Y004777D01*
X015147Y004669D02*
X014982Y004833D01*
X014912Y004904D01*
X014897Y004910D01*
X015147Y004910D01*
X015147Y004669D01*
X015277Y005410D02*
X014566Y005410D01*
X014568Y005413D01*
X014644Y005596D01*
X014644Y005752D01*
X014684Y005655D01*
X014763Y005576D01*
X014842Y005498D01*
X014945Y005455D01*
X015056Y005455D01*
X015232Y005455D01*
X015277Y005410D01*
X015277Y005411D02*
X014566Y005411D01*
X014633Y005569D02*
X014771Y005569D01*
X014654Y005728D02*
X014644Y005728D01*
X014642Y005801D02*
X014568Y005979D01*
X014427Y006120D01*
X014244Y006196D01*
X014427Y006272D01*
X014568Y006413D01*
X014589Y006463D01*
X014642Y006463D01*
X014642Y005801D01*
X014642Y005886D02*
X014607Y005886D01*
X014642Y006045D02*
X014503Y006045D01*
X014532Y006208D02*
X014400Y006196D01*
X013743Y006196D01*
X013648Y006290D01*
X012657Y006290D01*
X012227Y006290D01*
X012227Y006188D01*
X012207Y006168D01*
X012207Y005523D01*
X010617Y005523D01*
X010707Y005560D01*
X010816Y005669D01*
X010875Y005811D01*
X010875Y005966D01*
X010816Y006109D01*
X010710Y006214D01*
X010707Y006223D01*
X010636Y006294D01*
X010585Y006345D01*
X010493Y006383D01*
X010201Y006383D01*
X010109Y006345D01*
X010039Y006274D01*
X010038Y006274D01*
X009968Y006204D01*
X009930Y006112D01*
X009930Y005523D01*
X009727Y005523D01*
X009727Y006483D01*
X009707Y006503D01*
X009707Y006605D01*
X009277Y006605D01*
X008847Y006605D01*
X008847Y006503D01*
X008827Y006483D01*
X008827Y006225D01*
X008702Y006225D01*
X008787Y006310D01*
X008787Y006909D01*
X008670Y007026D01*
X008311Y007026D01*
X008585Y007300D01*
X008827Y007300D01*
X008827Y007113D01*
X008827Y006727D01*
X008847Y006707D01*
X008847Y006605D01*
X009277Y006605D01*
X009277Y006605D01*
X009277Y006605D01*
X010593Y006605D01*
X010892Y006904D01*
X012641Y006904D01*
X012657Y006920D01*
X012227Y006920D01*
X012227Y006818D01*
X012207Y006798D01*
X012207Y006412D01*
X012227Y006392D01*
X012227Y006290D01*
X012657Y006290D01*
X012657Y006290D01*
X012657Y006290D01*
X013087Y006290D01*
X013087Y006225D01*
X013480Y006225D01*
X013572Y006187D01*
X013727Y006032D01*
X013750Y006009D01*
X013861Y006120D01*
X014045Y006196D01*
X014244Y006196D01*
X014045Y006196D01*
X013861Y006272D01*
X013720Y006413D01*
X013702Y006456D01*
X013700Y006454D01*
X013614Y006368D01*
X013511Y006325D01*
X013087Y006325D01*
X013087Y006290D01*
X012657Y006290D01*
X011979Y006290D01*
X011896Y006373D01*
X011896Y006830D01*
X011987Y006920D01*
X012657Y006920D01*
X012657Y006920D01*
X012657Y006920D01*
X013087Y006920D01*
X013087Y006885D01*
X013262Y006885D01*
X013262Y006955D01*
X013087Y006955D01*
X013087Y006920D01*
X012657Y006920D01*
X012227Y006920D01*
X012227Y007022D01*
X012207Y007042D01*
X012207Y007607D01*
X011913Y007313D01*
X011810Y007270D01*
X009727Y007270D01*
X009727Y006727D01*
X009707Y006707D01*
X009707Y006605D01*
X009277Y006605D01*
X008847Y006679D02*
X008787Y006679D01*
X008787Y006837D02*
X008827Y006837D01*
X008827Y006996D02*
X008700Y006996D01*
X008827Y007154D02*
X008440Y007154D01*
X008585Y007300D02*
X008585Y007300D01*
X009277Y007550D02*
X011754Y007550D01*
X012715Y008511D01*
X012916Y008511D01*
X013542Y007885D01*
X013542Y007211D01*
X013518Y007235D01*
X012657Y007235D01*
X013298Y007235D01*
X013542Y007211D02*
X013542Y006692D01*
X013455Y006605D01*
X012657Y006605D01*
X012207Y006679D02*
X009707Y006679D01*
X009707Y006520D02*
X012207Y006520D01*
X012227Y006362D02*
X010544Y006362D01*
X010721Y006203D02*
X012227Y006203D01*
X012207Y006045D02*
X010842Y006045D01*
X010875Y005886D02*
X012207Y005886D01*
X012207Y005728D02*
X010840Y005728D01*
X010716Y005569D02*
X012207Y005569D01*
X012857Y004995D02*
X013010Y004995D01*
X012857Y004995D02*
X013010Y004841D01*
X013107Y004460D02*
X013414Y004460D01*
X013366Y004301D02*
X013107Y004301D01*
X013056Y004143D02*
X013208Y004143D01*
X013158Y003984D02*
X013023Y003984D01*
X012902Y003826D02*
X013158Y003826D01*
X013158Y003667D02*
X011731Y003667D01*
X011825Y003826D02*
X012434Y003826D01*
X012313Y003984D02*
X011983Y003984D01*
X012142Y004143D02*
X012280Y004143D01*
X012289Y004301D02*
X012314Y004301D01*
X012319Y004460D02*
X012438Y004460D01*
X011842Y003509D02*
X013158Y003509D01*
X013217Y003350D02*
X011867Y003350D01*
X011825Y003192D02*
X013375Y003192D01*
X013534Y003033D02*
X011678Y003033D01*
X010230Y004618D02*
X010085Y004618D01*
X010087Y004623D02*
X010235Y004623D01*
X010062Y004450D01*
X009904Y004450D01*
X009947Y004468D01*
X010018Y004538D01*
X010077Y004597D01*
X010087Y004623D01*
X010072Y004460D02*
X009927Y004460D01*
X009555Y004930D02*
X009375Y004930D01*
X009402Y004996D01*
X009402Y005151D01*
X009343Y005294D01*
X009287Y005350D01*
X009555Y005350D01*
X009555Y004930D01*
X009555Y004935D02*
X009377Y004935D01*
X009402Y005094D02*
X009555Y005094D01*
X009555Y005252D02*
X009361Y005252D01*
X009727Y005569D02*
X009930Y005569D01*
X009930Y005728D02*
X009727Y005728D01*
X009727Y005886D02*
X009930Y005886D01*
X009930Y006045D02*
X009727Y006045D01*
X009727Y006203D02*
X009968Y006203D01*
X010150Y006362D02*
X009727Y006362D01*
X009727Y006837D02*
X012227Y006837D01*
X012227Y006996D02*
X009727Y006996D01*
X009727Y007154D02*
X012207Y007154D01*
X012207Y007313D02*
X011913Y007313D01*
X012071Y007471D02*
X012207Y007471D01*
X011755Y007947D02*
X009727Y007947D01*
X009727Y008003D02*
X011811Y008003D01*
X011638Y007830D01*
X009727Y007830D01*
X009727Y008003D01*
X009555Y008175D02*
X009555Y008690D01*
X008622Y008690D01*
X008585Y008653D01*
X008585Y008300D01*
X008516Y008230D01*
X008596Y008230D01*
X008687Y008192D01*
X008758Y008122D01*
X008764Y008115D01*
X008884Y008115D01*
X008944Y008175D01*
X009555Y008175D01*
X009555Y008264D02*
X008549Y008264D01*
X008585Y008422D02*
X009555Y008422D01*
X009555Y008581D02*
X008585Y008581D01*
X007741Y008870D02*
X007585Y008714D01*
X007585Y008360D01*
X007585Y008360D01*
X007585Y008714D01*
X007429Y008870D01*
X007741Y008870D01*
X007610Y008739D02*
X007560Y008739D01*
X007585Y008581D02*
X007585Y008581D01*
X007585Y008422D02*
X007585Y008422D01*
X007232Y008007D02*
X006939Y008007D01*
X006939Y008007D01*
X007232Y008007D01*
X007232Y008007D01*
X007569Y007730D02*
X007601Y007730D01*
X007585Y007714D01*
X007569Y007730D01*
X007585Y007714D02*
X007585Y007360D01*
X007585Y007360D01*
X007585Y007714D01*
X007585Y007630D02*
X007585Y007630D01*
X007585Y007471D02*
X007585Y007471D01*
X007232Y007007D02*
X007273Y006965D01*
X007190Y006931D01*
X007114Y007007D01*
X007232Y007007D01*
X007243Y006996D02*
X007125Y006996D01*
X006859Y007026D02*
X006248Y007026D01*
X006247Y007027D01*
X006284Y007027D01*
X006565Y007308D01*
X006565Y007487D01*
X006105Y007487D01*
X006105Y007527D01*
X006065Y007527D01*
X006065Y007987D01*
X005886Y007987D01*
X005605Y007706D01*
X005605Y007614D01*
X005567Y007652D01*
X005501Y007680D01*
X005554Y007809D01*
X005554Y008008D01*
X005478Y008192D01*
X005338Y008332D01*
X005154Y008408D01*
X004355Y008408D01*
X004176Y008334D01*
X004176Y008517D01*
X004203Y008498D01*
X004270Y008464D01*
X004342Y008440D01*
X004417Y008428D01*
X004734Y008428D01*
X004734Y008888D01*
X004774Y008888D01*
X004774Y008428D01*
X005092Y008428D01*
X005167Y008440D01*
X005239Y008464D01*
X005306Y008498D01*
X005367Y008542D01*
X005421Y008596D01*
X005465Y008657D01*
X005499Y008724D01*
X005523Y008796D01*
X005534Y008871D01*
X005534Y008888D01*
X004774Y008888D01*
X004774Y008928D01*
X004734Y008928D01*
X004734Y009388D01*
X004428Y009388D01*
X004547Y009508D01*
X004614Y009574D01*
X004737Y009574D01*
X004819Y009656D01*
X004896Y009688D01*
X005129Y009921D01*
X005219Y010011D01*
X005267Y010128D01*
X005267Y010244D01*
X005303Y010280D01*
X005511Y010280D01*
X005344Y010113D01*
X005344Y009430D01*
X005822Y008951D01*
X005585Y008714D01*
X005585Y008300D01*
X005878Y008007D01*
X006292Y008007D01*
X006339Y008054D01*
X006339Y007953D01*
X006354Y007916D01*
X006284Y007987D01*
X006105Y007987D01*
X006105Y007527D01*
X006565Y007527D01*
X006565Y007673D01*
X006585Y007653D01*
X006585Y007300D01*
X006859Y007026D01*
X006731Y007154D02*
X006411Y007154D01*
X006565Y007313D02*
X006585Y007313D01*
X006585Y007471D02*
X006565Y007471D01*
X006565Y007630D02*
X006585Y007630D01*
X006342Y007947D02*
X006324Y007947D01*
X006105Y007947D02*
X006065Y007947D01*
X006065Y007788D02*
X006105Y007788D01*
X006105Y007630D02*
X006065Y007630D01*
X005846Y007947D02*
X005554Y007947D01*
X005546Y007788D02*
X005688Y007788D01*
X005605Y007630D02*
X005590Y007630D01*
X005514Y008105D02*
X005780Y008105D01*
X005621Y008264D02*
X005406Y008264D01*
X005585Y008422D02*
X004176Y008422D01*
X003676Y008422D02*
X002968Y008422D01*
X003087Y008540D02*
X002811Y008265D01*
X002422Y008265D01*
X002376Y008311D01*
X002376Y008159D01*
X002422Y008205D01*
X002811Y008205D01*
X003087Y007930D01*
X003087Y007540D01*
X002811Y007265D01*
X002422Y007265D01*
X002376Y007311D01*
X002376Y007159D01*
X002422Y007205D01*
X002811Y007205D01*
X003087Y006930D01*
X003087Y006540D01*
X003036Y006490D01*
X003171Y006490D01*
X003171Y006493D01*
X003288Y006610D01*
X004046Y006610D01*
X004031Y006625D01*
X003954Y006809D01*
X003954Y007008D01*
X004030Y007190D01*
X003996Y007190D01*
X003904Y007228D01*
X003784Y007348D01*
X003714Y007418D01*
X003676Y007510D01*
X003676Y009290D01*
X003714Y009382D01*
X003907Y009574D01*
X003512Y009574D01*
X003395Y009692D01*
X003395Y009769D01*
X003289Y009769D01*
X003172Y009818D01*
X003127Y009863D01*
X003114Y009863D01*
X003087Y009874D01*
X003087Y009540D01*
X002811Y009265D01*
X002422Y009265D01*
X002376Y009311D01*
X002376Y009159D01*
X002422Y009205D01*
X002811Y009205D01*
X003087Y008930D01*
X003087Y008540D01*
X003087Y008581D02*
X003676Y008581D01*
X003676Y008739D02*
X003087Y008739D01*
X003087Y008898D02*
X003676Y008898D01*
X003676Y009056D02*
X002960Y009056D01*
X002919Y009373D02*
X003710Y009373D01*
X003676Y009215D02*
X002376Y009215D01*
X001876Y009215D02*
X001356Y009215D01*
X001422Y009205D02*
X001356Y009139D01*
X001356Y009331D01*
X001422Y009265D01*
X001811Y009265D01*
X001876Y009330D01*
X001876Y009141D01*
X001811Y009205D01*
X001422Y009205D01*
X001356Y008331D02*
X001422Y008265D01*
X001811Y008265D01*
X001876Y008330D01*
X001876Y008141D01*
X001811Y008205D01*
X001422Y008205D01*
X001356Y008139D01*
X001356Y008331D01*
X001356Y008264D02*
X001876Y008264D01*
X002376Y008264D02*
X003676Y008264D01*
X003676Y008105D02*
X002911Y008105D01*
X003070Y007947D02*
X003676Y007947D01*
X003676Y007788D02*
X003087Y007788D01*
X003087Y007630D02*
X003676Y007630D01*
X003692Y007471D02*
X003017Y007471D01*
X002859Y007313D02*
X003820Y007313D01*
X004015Y007154D02*
X002862Y007154D01*
X003021Y006996D02*
X003954Y006996D01*
X003954Y006837D02*
X003087Y006837D01*
X003087Y006679D02*
X004008Y006679D01*
X004201Y006472D02*
X004355Y006408D01*
X004201Y006344D01*
X004201Y006472D01*
X004201Y006362D02*
X004242Y006362D01*
X004355Y006408D02*
X005154Y006408D01*
X005291Y006352D01*
X005291Y006465D01*
X005154Y006408D01*
X004355Y006408D01*
X004774Y005928D02*
X004754Y005908D01*
X005267Y006362D02*
X005291Y006362D01*
X005834Y005954D02*
X005834Y005858D01*
X006261Y005858D01*
X006261Y005687D01*
X006527Y005687D01*
X006519Y005696D01*
X006519Y006193D01*
X006259Y006193D01*
X006261Y006186D01*
X006261Y005954D01*
X005834Y005954D01*
X005834Y005886D02*
X006519Y005886D01*
X006519Y005728D02*
X006261Y005728D01*
X006261Y006045D02*
X006519Y006045D01*
X007204Y005578D02*
X007274Y005578D01*
X007369Y005673D01*
X007463Y005578D01*
X007644Y005578D01*
X007632Y005557D01*
X007620Y005511D01*
X007619Y005299D01*
X008165Y005299D01*
X008165Y005642D01*
X008218Y005696D01*
X008218Y005725D01*
X008638Y005725D01*
X008634Y005722D01*
X008611Y005667D01*
X008611Y005667D01*
X008221Y005667D01*
X008221Y005299D01*
X008165Y005299D01*
X008165Y005242D01*
X008165Y004930D01*
X008221Y004930D01*
X008221Y005242D01*
X008165Y005242D01*
X007620Y005242D01*
X007620Y005030D01*
X007632Y004985D01*
X007655Y004944D01*
X007669Y004930D01*
X007171Y004930D01*
X007212Y004971D01*
X007212Y005570D01*
X007204Y005578D01*
X007212Y005569D02*
X007639Y005569D01*
X007620Y005411D02*
X007212Y005411D01*
X007212Y005252D02*
X008165Y005252D01*
X008221Y005252D02*
X008596Y005252D01*
X008596Y005242D02*
X008221Y005242D01*
X008221Y005299D01*
X008596Y005299D01*
X008596Y005242D01*
X008221Y005094D02*
X008165Y005094D01*
X008165Y004935D02*
X008221Y004935D01*
X008221Y005411D02*
X008165Y005411D01*
X008165Y005569D02*
X008221Y005569D01*
X007821Y005975D02*
X007782Y006015D01*
X007620Y005094D02*
X007212Y005094D01*
X007176Y004935D02*
X007664Y004935D01*
X008787Y006362D02*
X008827Y006362D01*
X008847Y006520D02*
X008787Y006520D01*
X007214Y009370D02*
X006934Y009370D01*
X006994Y009430D01*
X006994Y010100D01*
X007019Y010100D01*
X007018Y010097D01*
X007018Y009943D01*
X007077Y009800D01*
X007186Y009691D01*
X007196Y009687D01*
X007171Y009627D01*
X007171Y009473D01*
X007214Y009370D01*
X007212Y009373D02*
X006937Y009373D01*
X006994Y009532D02*
X007171Y009532D01*
X007188Y009690D02*
X006994Y009690D01*
X006994Y009849D02*
X007057Y009849D01*
X007018Y010007D02*
X006994Y010007D01*
X006686Y010380D02*
X012864Y010380D01*
X013315Y010831D01*
X013677Y010970D02*
X013690Y010970D01*
X013681Y010961D01*
X013677Y010970D01*
X013584Y010551D02*
X013584Y010401D01*
X013912Y010073D01*
X014008Y010073D01*
X013981Y010005D01*
X013981Y009970D01*
X012294Y009970D01*
X012294Y010097D01*
X012293Y010100D01*
X012920Y010100D01*
X013023Y010143D01*
X013323Y010443D01*
X013392Y010443D01*
X013535Y010502D01*
X013584Y010551D01*
X013584Y010483D02*
X013488Y010483D01*
X013661Y010324D02*
X013204Y010324D01*
X013045Y010166D02*
X013820Y010166D01*
X013981Y010007D02*
X012294Y010007D01*
X012280Y009470D02*
X013774Y009470D01*
X013774Y008320D01*
X013891Y008203D01*
X014556Y008203D01*
X014674Y008320D01*
X014674Y009486D01*
X014569Y009591D01*
X014588Y009599D01*
X014638Y009648D01*
X014756Y009648D01*
X014756Y007793D01*
X014644Y007681D01*
X014644Y007795D01*
X014568Y007979D01*
X014427Y008120D01*
X014244Y008196D01*
X014045Y008196D01*
X013861Y008120D01*
X013781Y008039D01*
X013779Y008043D01*
X013388Y008435D01*
X013446Y008575D01*
X013446Y008730D01*
X013387Y008872D01*
X013277Y008981D01*
X013135Y009041D01*
X013014Y009041D01*
X013014Y009077D01*
X012955Y009220D01*
X012846Y009329D01*
X012703Y009388D01*
X012549Y009388D01*
X012406Y009329D01*
X012327Y009250D01*
X012280Y009250D01*
X012294Y009283D01*
X012294Y009437D01*
X012280Y009470D01*
X012294Y009373D02*
X012512Y009373D01*
X012739Y009373D02*
X013774Y009373D01*
X013774Y009215D02*
X012957Y009215D01*
X013014Y009056D02*
X013774Y009056D01*
X013774Y008898D02*
X013361Y008898D01*
X013442Y008739D02*
X013774Y008739D01*
X013774Y008581D02*
X013446Y008581D01*
X013401Y008422D02*
X013774Y008422D01*
X013830Y008264D02*
X013559Y008264D01*
X013718Y008105D02*
X013846Y008105D01*
X013262Y007769D02*
X013262Y007515D01*
X013107Y007515D01*
X013107Y007924D01*
X013262Y007769D01*
X013243Y007788D02*
X013107Y007788D01*
X013107Y007630D02*
X013262Y007630D01*
X013822Y007311D02*
X013861Y007272D01*
X014045Y007196D01*
X014132Y007196D01*
X014132Y007196D01*
X014045Y007196D01*
X013861Y007120D01*
X013822Y007080D01*
X013822Y007311D01*
X013822Y007154D02*
X013944Y007154D01*
X014191Y006743D02*
X014144Y006696D01*
X014191Y006743D02*
X014792Y006743D01*
X014922Y006613D01*
X014922Y005814D01*
X015000Y005735D01*
X015617Y005735D01*
X015261Y006045D02*
X015202Y006045D01*
X015202Y006015D02*
X015202Y006485D01*
X015422Y006265D01*
X015811Y006265D01*
X015856Y006310D01*
X015856Y006161D01*
X015811Y006205D01*
X015422Y006205D01*
X015232Y006015D01*
X015202Y006015D01*
X015202Y006203D02*
X015420Y006203D01*
X015326Y006362D02*
X015202Y006362D01*
X015147Y006784D02*
X014950Y006980D01*
X014863Y007017D01*
X014908Y007126D01*
X014908Y007238D01*
X015193Y007523D01*
X015430Y007285D01*
X015607Y007285D01*
X015607Y007725D01*
X015627Y007725D01*
X015627Y007285D01*
X015803Y007285D01*
X015856Y007338D01*
X015856Y007161D01*
X015811Y007205D01*
X015422Y007205D01*
X015147Y006930D01*
X015147Y006784D01*
X015147Y006837D02*
X015094Y006837D01*
X015212Y006996D02*
X014914Y006996D01*
X014908Y007154D02*
X015371Y007154D01*
X015403Y007313D02*
X014983Y007313D01*
X015141Y007471D02*
X015244Y007471D01*
X015607Y007471D02*
X015627Y007471D01*
X015627Y007313D02*
X015607Y007313D01*
X015830Y007313D02*
X015856Y007313D01*
X015627Y007630D02*
X015607Y007630D01*
X015607Y007745D02*
X015607Y008185D01*
X015430Y008185D01*
X015256Y008011D01*
X015256Y008431D01*
X015422Y008265D01*
X015811Y008265D01*
X015856Y008310D01*
X015856Y008132D01*
X015803Y008185D01*
X015627Y008185D01*
X015627Y007745D01*
X015607Y007745D01*
X015607Y007788D02*
X015627Y007788D01*
X015627Y007947D02*
X015607Y007947D01*
X015607Y008105D02*
X015627Y008105D01*
X015350Y008105D02*
X015256Y008105D01*
X015256Y008264D02*
X015856Y008264D01*
X016356Y008264D02*
X016878Y008264D01*
X016811Y008265D02*
X016878Y008331D01*
X016878Y008139D01*
X016811Y008205D01*
X016422Y008205D01*
X016356Y008139D01*
X016356Y008331D01*
X016422Y008265D01*
X016811Y008265D01*
X016878Y007331D02*
X016878Y007139D01*
X016811Y007205D01*
X016422Y007205D01*
X016356Y007139D01*
X016356Y007331D01*
X016422Y007265D01*
X016811Y007265D01*
X016878Y007331D01*
X016878Y007313D02*
X016859Y007313D01*
X016862Y007154D02*
X016878Y007154D01*
X016371Y007154D02*
X016356Y007154D01*
X016356Y007313D02*
X016375Y007313D01*
X016356Y006331D02*
X016422Y006265D01*
X016811Y006265D01*
X016878Y006331D01*
X016878Y006139D01*
X016811Y006205D01*
X016422Y006205D01*
X016356Y006139D01*
X016356Y006331D01*
X016356Y006203D02*
X016420Y006203D01*
X016617Y005735D02*
X016617Y005554D01*
X016681Y005265D02*
X016811Y005265D01*
X016878Y005331D01*
X016878Y005139D01*
X016811Y005205D01*
X016621Y005205D01*
X016681Y005265D01*
X016668Y005252D02*
X016878Y005252D01*
X016878Y006203D02*
X016813Y006203D01*
X015856Y006203D02*
X015813Y006203D01*
X014642Y006203D02*
X014261Y006203D01*
X014517Y006362D02*
X014642Y006362D01*
X014027Y006203D02*
X013534Y006203D01*
X013599Y006362D02*
X013771Y006362D01*
X013786Y006045D02*
X013715Y006045D01*
X013557Y005135D02*
X013557Y005062D01*
X013609Y005084D01*
X013557Y005135D01*
X013557Y005094D02*
X013599Y005094D01*
X014644Y007788D02*
X014751Y007788D01*
X014756Y007947D02*
X014582Y007947D01*
X014442Y008105D02*
X014756Y008105D01*
X014756Y008264D02*
X014617Y008264D01*
X014674Y008422D02*
X014756Y008422D01*
X014756Y008581D02*
X014674Y008581D01*
X014674Y008739D02*
X014756Y008739D01*
X014756Y008898D02*
X014674Y008898D01*
X014674Y009056D02*
X014756Y009056D01*
X014756Y009215D02*
X014674Y009215D01*
X014674Y009373D02*
X014756Y009373D01*
X014756Y009532D02*
X014628Y009532D01*
X014369Y009928D02*
X014967Y009928D01*
X015006Y009967D01*
X015278Y010239D01*
X015892Y010239D01*
X016117Y010463D01*
X016117Y013235D01*
X015617Y013735D01*
X015352Y013336D02*
X014916Y013336D01*
X014916Y013494D02*
X015193Y013494D01*
X015147Y013540D02*
X015422Y013265D01*
X015691Y013265D01*
X015751Y013205D01*
X015422Y013205D01*
X015147Y012930D01*
X015147Y012611D01*
X015046Y012569D01*
X014937Y012460D01*
X014878Y012317D01*
X014878Y012310D01*
X014685Y012310D01*
X014729Y012418D01*
X014729Y012487D01*
X014874Y012632D01*
X014916Y012735D01*
X014916Y013615D01*
X015147Y013846D01*
X015147Y013540D01*
X015147Y013653D02*
X014954Y013653D01*
X015112Y013811D02*
X015147Y013811D01*
X015156Y014251D02*
X016002Y014251D01*
X016121Y014369D01*
X016121Y017239D01*
X016617Y017735D01*
X016307Y018091D02*
X015898Y018091D01*
X015803Y018185D02*
X015627Y018185D01*
X015627Y017745D01*
X016067Y017745D01*
X016067Y017922D01*
X015803Y018185D01*
X015607Y018185D02*
X015430Y018185D01*
X015167Y017922D01*
X015167Y017745D01*
X015607Y017745D01*
X015607Y018185D01*
X015607Y018091D02*
X015627Y018091D01*
X015627Y017932D02*
X015607Y017932D01*
X015607Y017774D02*
X015627Y017774D01*
X015627Y017745D02*
X015607Y017745D01*
X015607Y017725D01*
X015627Y017725D01*
X015627Y017745D01*
X015627Y017725D02*
X016067Y017725D01*
X016067Y017581D01*
X016147Y017661D01*
X016147Y017930D01*
X016422Y018205D01*
X016811Y018205D01*
X016878Y018139D01*
X016878Y019555D01*
X001356Y019555D01*
X001356Y018111D01*
X001430Y018185D01*
X001607Y018185D01*
X001607Y017745D01*
X001627Y017745D01*
X002067Y017745D01*
X002067Y017833D01*
X002147Y017753D01*
X002147Y017540D01*
X002422Y017265D01*
X002811Y017265D01*
X003087Y017540D01*
X003087Y017930D01*
X002811Y018205D01*
X002599Y018205D01*
X002537Y018267D01*
X003048Y018267D01*
X003166Y018385D01*
X003166Y018462D01*
X003364Y018462D01*
X003364Y016703D01*
X003353Y016703D01*
X003236Y016586D01*
X003236Y015790D01*
X003353Y015673D01*
X004390Y015673D01*
X004390Y015583D01*
X004391Y015580D01*
X004045Y015580D01*
X004045Y015163D01*
X004679Y015163D01*
X004679Y015281D01*
X004701Y015272D01*
X004855Y015272D01*
X004901Y015291D01*
X004901Y015087D01*
X004964Y015024D01*
X004957Y015017D01*
X004933Y014976D01*
X004921Y014930D01*
X004921Y014788D01*
X004921Y014646D01*
X004933Y014601D01*
X004957Y014560D01*
X004978Y014538D01*
X004957Y014517D01*
X004933Y014476D01*
X004921Y014430D01*
X004921Y014288D01*
X004921Y014146D01*
X004933Y014101D01*
X004957Y014060D01*
X004978Y014038D01*
X004957Y014017D01*
X004933Y013976D01*
X004921Y013930D01*
X004921Y013788D01*
X004921Y013646D01*
X004933Y013601D01*
X004957Y013560D01*
X004978Y013538D01*
X004957Y013517D01*
X004933Y013476D01*
X004921Y013430D01*
X004921Y013288D01*
X004921Y013214D01*
X004816Y013257D01*
X004662Y013257D01*
X004519Y013198D01*
X004410Y013089D01*
X004351Y012946D01*
X004351Y012792D01*
X004410Y012649D01*
X004519Y012540D01*
X004662Y012481D01*
X004725Y012481D01*
X004756Y012468D01*
X004901Y012468D01*
X004901Y012339D01*
X004783Y012388D01*
X004629Y012388D01*
X004486Y012329D01*
X004377Y012220D01*
X004318Y012077D01*
X004318Y011923D01*
X004362Y011817D01*
X004211Y011817D01*
X004160Y011766D01*
X004127Y011785D01*
X004081Y011797D01*
X003850Y011797D01*
X003850Y011370D01*
X003754Y011370D01*
X003754Y011797D01*
X003522Y011797D01*
X003476Y011785D01*
X003435Y011761D01*
X003402Y011728D01*
X003378Y011686D01*
X003366Y011641D01*
X003366Y011370D01*
X003754Y011370D01*
X003754Y011274D01*
X003850Y011274D01*
X003850Y010846D01*
X004081Y010846D01*
X004127Y010859D01*
X004160Y010878D01*
X004211Y010826D01*
X004627Y010826D01*
X004627Y010604D01*
X003512Y010604D01*
X003449Y010542D01*
X003411Y010580D01*
X003269Y010639D01*
X003114Y010639D01*
X003087Y010628D01*
X003087Y010930D01*
X002811Y011205D01*
X002422Y011205D01*
X002376Y011159D01*
X002376Y011311D01*
X002422Y011265D01*
X002811Y011265D01*
X003087Y011540D01*
X003087Y011870D01*
X003186Y011911D01*
X003295Y012020D01*
X003354Y012163D01*
X003354Y012317D01*
X003295Y012460D01*
X003186Y012569D01*
X003067Y012618D01*
X003067Y012725D01*
X002627Y012725D01*
X002627Y012745D01*
X003067Y012745D01*
X003067Y012922D01*
X003025Y012963D01*
X003537Y012963D01*
X003547Y012937D01*
X003657Y012827D01*
X003799Y012768D01*
X003954Y012768D01*
X004096Y012827D01*
X004206Y012937D01*
X004265Y013079D01*
X004265Y013234D01*
X004206Y013376D01*
X004096Y013485D01*
X003954Y013544D01*
X003799Y013544D01*
X003747Y013523D01*
X003069Y013523D01*
X003087Y013540D01*
X003087Y013930D01*
X002811Y014205D01*
X002422Y014205D01*
X002147Y013930D01*
X002147Y013601D01*
X002087Y013661D01*
X002087Y013930D01*
X001811Y014205D01*
X001422Y014205D01*
X001356Y014139D01*
X001356Y014331D01*
X001422Y014265D01*
X001811Y014265D01*
X002087Y014540D01*
X002087Y014930D01*
X001811Y015205D01*
X001422Y015205D01*
X001356Y015139D01*
X001356Y015331D01*
X001422Y015265D01*
X001811Y015265D01*
X002087Y015540D01*
X002087Y015930D01*
X001811Y016205D01*
X001422Y016205D01*
X001356Y016139D01*
X001356Y016331D01*
X001422Y016265D01*
X001811Y016265D01*
X002087Y016540D01*
X002087Y016930D01*
X001811Y017205D01*
X001422Y017205D01*
X001356Y017139D01*
X001356Y017360D01*
X001430Y017285D01*
X001607Y017285D01*
X001607Y017725D01*
X001627Y017725D01*
X001627Y017745D01*
X001627Y018185D01*
X001803Y018185D01*
X001816Y018173D01*
X001816Y018275D01*
X001706Y018385D01*
X001706Y019180D01*
X001823Y019297D01*
X003048Y019297D01*
X003166Y019180D01*
X003166Y019102D01*
X003447Y019102D01*
X003854Y019509D01*
X004537Y019509D01*
X005020Y019026D01*
X005020Y018952D01*
X005051Y018921D01*
X005094Y018818D01*
X005094Y018304D01*
X005331Y018066D01*
X005615Y018066D01*
X005339Y018342D01*
X005339Y019026D01*
X005822Y019509D01*
X006506Y019509D01*
X006989Y019026D01*
X006989Y018342D01*
X006672Y018026D01*
X006677Y018024D01*
X006756Y017945D01*
X006900Y017800D01*
X006999Y017899D01*
X007142Y017958D01*
X007296Y017958D01*
X007439Y017899D01*
X007518Y017820D01*
X010001Y017820D01*
X010093Y017782D01*
X010525Y017349D01*
X010564Y017257D01*
X010564Y016787D01*
X010762Y016589D01*
X010810Y016636D01*
X011775Y016636D01*
X011892Y016519D01*
X011892Y016222D01*
X011949Y016245D01*
X012466Y016245D01*
X012557Y016207D01*
X012740Y016025D01*
X012851Y016025D01*
X012994Y015966D01*
X013103Y015857D01*
X013112Y015834D01*
X013112Y016019D01*
X013150Y016056D01*
X013112Y016093D01*
X013112Y016519D01*
X013230Y016636D01*
X014090Y016636D01*
X014152Y016698D01*
X014152Y017720D01*
X014194Y017823D01*
X014250Y017879D01*
X014088Y017879D01*
X014088Y018634D01*
X014088Y018734D01*
X014843Y018734D01*
X014843Y019017D01*
X014371Y019489D01*
X014088Y019489D01*
X014088Y018734D01*
X013988Y018734D01*
X013988Y019489D01*
X013704Y019489D01*
X013233Y019017D01*
X013233Y018734D01*
X013988Y018734D01*
X013988Y018634D01*
X014088Y018634D01*
X014843Y018634D01*
X014843Y018472D01*
X015102Y018730D01*
X015102Y019267D01*
X015219Y019384D01*
X015896Y019384D01*
X015948Y019333D01*
X015980Y019352D01*
X016026Y019364D01*
X016258Y019364D01*
X016258Y018937D01*
X016354Y018937D01*
X016354Y019364D01*
X016585Y019364D01*
X016631Y019352D01*
X016672Y019328D01*
X016706Y019294D01*
X016729Y019253D01*
X016742Y019208D01*
X016742Y018937D01*
X016354Y018937D01*
X016354Y018841D01*
X016742Y018841D01*
X016742Y018570D01*
X016729Y018524D01*
X016706Y018483D01*
X016672Y018449D01*
X016631Y018426D01*
X016585Y018413D01*
X016354Y018413D01*
X016354Y018841D01*
X016258Y018841D01*
X016258Y018413D01*
X016026Y018413D01*
X015980Y018426D01*
X015948Y018445D01*
X015896Y018393D01*
X015557Y018393D01*
X014712Y017548D01*
X014712Y016161D01*
X014761Y016112D01*
X014820Y015970D01*
X014820Y015815D01*
X014761Y015673D01*
X014651Y015564D01*
X014509Y015504D01*
X014354Y015504D01*
X014307Y015524D01*
X014312Y015519D01*
X014312Y015093D01*
X014275Y015056D01*
X014312Y015019D01*
X014312Y014593D01*
X014275Y014556D01*
X014312Y014519D01*
X014312Y014093D01*
X014275Y014056D01*
X014312Y014019D01*
X014312Y013593D01*
X014275Y013556D01*
X014312Y013519D01*
X014312Y013093D01*
X014195Y012976D01*
X013230Y012976D01*
X013186Y013019D01*
X013140Y012973D01*
X012997Y012914D01*
X012984Y012914D01*
X012860Y012790D01*
X013756Y012790D01*
X013847Y012752D01*
X013975Y012625D01*
X014012Y012715D01*
X014121Y012824D01*
X014264Y012883D01*
X014333Y012883D01*
X014356Y012906D01*
X014356Y013787D01*
X014399Y013890D01*
X014478Y013969D01*
X014919Y014409D01*
X014997Y014488D01*
X015100Y014531D01*
X015156Y014531D01*
X015147Y014540D01*
X015147Y014930D01*
X015422Y015205D01*
X015811Y015205D01*
X015841Y015176D01*
X015841Y015294D01*
X015811Y015265D01*
X015422Y015265D01*
X015147Y015540D01*
X015147Y015930D01*
X015422Y016205D01*
X015811Y016205D01*
X015841Y016176D01*
X015841Y016294D01*
X015811Y016265D01*
X015422Y016265D01*
X015147Y016540D01*
X015147Y016930D01*
X015422Y017205D01*
X015811Y017205D01*
X015841Y017176D01*
X015841Y017295D01*
X015860Y017342D01*
X015803Y017285D01*
X015627Y017285D01*
X015627Y017725D01*
X015607Y017725D02*
X015607Y017285D01*
X015430Y017285D01*
X015167Y017549D01*
X015167Y017725D01*
X015607Y017725D01*
X015607Y017615D02*
X015627Y017615D01*
X015627Y017457D02*
X015607Y017457D01*
X015607Y017298D02*
X015627Y017298D01*
X015816Y017298D02*
X015842Y017298D01*
X016067Y017615D02*
X016101Y017615D01*
X016067Y017774D02*
X016147Y017774D01*
X016149Y017932D02*
X016056Y017932D01*
X015910Y018408D02*
X016878Y018408D01*
X016878Y018566D02*
X016741Y018566D01*
X016742Y018725D02*
X016878Y018725D01*
X016878Y018883D02*
X016354Y018883D01*
X016306Y018889D02*
X016290Y018904D01*
X016290Y019463D01*
X014817Y019463D01*
X014038Y018684D01*
X014088Y018725D02*
X015096Y018725D01*
X015102Y018883D02*
X014843Y018883D01*
X014819Y019042D02*
X015102Y019042D01*
X015102Y019200D02*
X014660Y019200D01*
X014502Y019359D02*
X015193Y019359D01*
X015558Y018889D02*
X015558Y018790D01*
X014432Y017664D01*
X014432Y016448D01*
X014365Y016515D01*
X014156Y016306D01*
X013712Y016306D01*
X014118Y016664D02*
X010687Y016664D01*
X010564Y016823D02*
X014152Y016823D01*
X014152Y016981D02*
X010564Y016981D01*
X010564Y017140D02*
X014152Y017140D01*
X014152Y017298D02*
X010547Y017298D01*
X010418Y017457D02*
X014152Y017457D01*
X014152Y017615D02*
X010260Y017615D01*
X010101Y017774D02*
X014174Y017774D01*
X014088Y017932D02*
X013988Y017932D01*
X013988Y017879D02*
X013988Y018634D01*
X013233Y018634D01*
X013233Y018350D01*
X013704Y017879D01*
X013988Y017879D01*
X013988Y018091D02*
X014088Y018091D01*
X014088Y018249D02*
X013988Y018249D01*
X013988Y018408D02*
X014088Y018408D01*
X014088Y018566D02*
X013988Y018566D01*
X013988Y018725D02*
X012894Y018725D01*
X012894Y018883D02*
X013233Y018883D01*
X013257Y019042D02*
X012879Y019042D01*
X012894Y019026D02*
X012411Y019509D01*
X011728Y019509D01*
X011244Y019026D01*
X011244Y018342D01*
X011728Y017859D01*
X012411Y017859D01*
X012894Y018342D01*
X012894Y019026D01*
X012720Y019200D02*
X013416Y019200D01*
X013574Y019359D02*
X012562Y019359D01*
X012894Y018566D02*
X013233Y018566D01*
X013233Y018408D02*
X012894Y018408D01*
X012801Y018249D02*
X013334Y018249D01*
X013493Y018091D02*
X012643Y018091D01*
X012484Y017932D02*
X013651Y017932D01*
X013988Y018883D02*
X014088Y018883D01*
X014088Y019042D02*
X013988Y019042D01*
X013988Y019200D02*
X014088Y019200D01*
X014088Y019359D02*
X013988Y019359D01*
X014843Y018566D02*
X014937Y018566D01*
X015254Y018091D02*
X015336Y018091D01*
X015412Y018249D02*
X016878Y018249D01*
X016354Y018566D02*
X016258Y018566D01*
X016258Y018725D02*
X016354Y018725D01*
X016354Y019042D02*
X016258Y019042D01*
X016258Y019200D02*
X016354Y019200D01*
X016354Y019359D02*
X016258Y019359D01*
X016605Y019359D02*
X016878Y019359D01*
X016878Y019517D02*
X001356Y019517D01*
X001356Y019359D02*
X003703Y019359D01*
X003545Y019200D02*
X003146Y019200D01*
X003644Y018830D02*
X003644Y015960D01*
X003754Y015983D01*
X004010Y015983D01*
X004428Y016007D01*
X004428Y016782D01*
X006640Y016794D01*
X007105Y016330D01*
X009892Y016330D01*
X009975Y016412D01*
X009975Y017086D01*
X009865Y017196D01*
X007330Y017196D01*
X007296Y017182D01*
X007142Y017182D01*
X006999Y017241D01*
X006890Y017350D01*
X006844Y017460D01*
X006518Y017786D01*
X005215Y017786D01*
X004814Y018188D01*
X004814Y018763D01*
X004703Y018873D01*
X003916Y018873D01*
X003841Y018798D01*
X003806Y018739D01*
X003644Y018830D01*
X003644Y018725D02*
X004814Y018725D01*
X004814Y018566D02*
X003644Y018566D01*
X003644Y018408D02*
X004814Y018408D01*
X004814Y018249D02*
X003644Y018249D01*
X003644Y018091D02*
X004911Y018091D01*
X005069Y017932D02*
X003644Y017932D01*
X003644Y017774D02*
X006531Y017774D01*
X006690Y017615D02*
X003644Y017615D01*
X003644Y017457D02*
X006846Y017457D01*
X006942Y017298D02*
X003644Y017298D01*
X003644Y017140D02*
X009921Y017140D01*
X009802Y017089D02*
X009880Y017011D01*
X009975Y016981D02*
X003644Y016981D01*
X003644Y016823D02*
X009975Y016823D01*
X009975Y016664D02*
X006770Y016664D01*
X006929Y016506D02*
X009975Y016506D01*
X009910Y016347D02*
X007087Y016347D01*
X006775Y016263D02*
X006722Y016241D01*
X006654Y016173D01*
X006654Y016277D01*
X006595Y016420D01*
X006501Y016513D01*
X006525Y016514D01*
X006775Y016263D01*
X006691Y016347D02*
X006625Y016347D01*
X006654Y016189D02*
X006669Y016189D01*
X006533Y016506D02*
X006509Y016506D01*
X006942Y015912D02*
X008400Y015912D01*
X008250Y015555D02*
X007710Y015555D01*
X007694Y015593D02*
X007654Y015632D01*
X008131Y015632D01*
X008180Y015583D01*
X008323Y015524D01*
X008477Y015524D01*
X008554Y015556D01*
X008572Y015538D01*
X008523Y015489D01*
X008523Y015087D01*
X008586Y015024D01*
X008579Y015017D01*
X008555Y014976D01*
X008543Y014930D01*
X008543Y014788D01*
X008543Y014646D01*
X008555Y014601D01*
X008579Y014560D01*
X008600Y014538D01*
X008579Y014517D01*
X008555Y014476D01*
X008543Y014430D01*
X008543Y014288D01*
X008543Y014146D01*
X008555Y014101D01*
X008579Y014060D01*
X008600Y014038D01*
X008579Y014017D01*
X008555Y013976D01*
X008543Y013930D01*
X008543Y013788D01*
X008543Y013646D01*
X008555Y013601D01*
X008579Y013560D01*
X008600Y013538D01*
X008579Y013517D01*
X008555Y013476D01*
X008543Y013430D01*
X008543Y013288D01*
X008543Y013146D01*
X008555Y013101D01*
X008579Y013060D01*
X008586Y013052D01*
X008523Y012989D01*
X008523Y012587D01*
X008572Y012538D01*
X008416Y012538D01*
X008398Y012581D01*
X008289Y012690D01*
X008147Y012749D01*
X007992Y012749D01*
X007850Y012690D01*
X007740Y012581D01*
X007681Y012438D01*
X007681Y012284D01*
X007740Y012141D01*
X007850Y012032D01*
X007992Y011973D01*
X008147Y011973D01*
X008289Y012032D01*
X008295Y012038D01*
X008572Y012038D01*
X008523Y011989D01*
X008523Y011587D01*
X008640Y011470D01*
X009622Y011470D01*
X009622Y011470D01*
X007405Y011470D01*
X007326Y011549D01*
X007183Y011608D01*
X007029Y011608D01*
X006886Y011549D01*
X006777Y011440D01*
X006718Y011297D01*
X006718Y011143D01*
X006731Y011110D01*
X006487Y011110D01*
X006475Y011140D01*
X006366Y011249D01*
X006223Y011308D01*
X006069Y011308D01*
X005926Y011249D01*
X005817Y011140D01*
X005758Y010997D01*
X005758Y010843D01*
X005759Y010840D01*
X005267Y010840D01*
X005267Y011468D01*
X005598Y011468D01*
X005602Y011470D01*
X006050Y011470D01*
X006167Y011587D01*
X006167Y011989D01*
X006148Y012008D01*
X006477Y012008D01*
X006526Y011959D01*
X006669Y011900D01*
X006823Y011900D01*
X006966Y011959D01*
X007075Y012068D01*
X007134Y012211D01*
X007134Y012365D01*
X007075Y012508D01*
X006966Y012617D01*
X006823Y012676D01*
X006669Y012676D01*
X006526Y012617D01*
X006477Y012568D01*
X006148Y012568D01*
X006167Y012587D01*
X006167Y012989D01*
X006104Y013052D01*
X006111Y013060D01*
X006135Y013101D01*
X006147Y013146D01*
X006147Y013288D01*
X005534Y013288D01*
X005534Y013108D01*
X005534Y013108D01*
X005534Y013288D01*
X005534Y013288D01*
X005534Y013288D01*
X004921Y013288D01*
X005534Y013288D01*
X005534Y013288D01*
X009156Y013288D01*
X009156Y013108D01*
X009156Y013108D01*
X009156Y013288D01*
X009156Y013288D01*
X008543Y013288D01*
X009156Y013288D01*
X009156Y013288D01*
X009156Y013288D01*
X009769Y013288D01*
X009769Y013206D01*
X009802Y013220D01*
X010712Y013220D01*
X010712Y013306D01*
X011292Y013306D01*
X011292Y013306D01*
X010712Y013306D01*
X010712Y013460D01*
X010725Y013505D01*
X010745Y013541D01*
X010692Y013593D01*
X010692Y014019D01*
X010730Y014056D01*
X010692Y014093D01*
X010692Y014519D01*
X010730Y014556D01*
X010692Y014593D01*
X010692Y014708D01*
X010415Y014986D01*
X010412Y014994D01*
X010371Y014977D01*
X010302Y014977D01*
X010281Y014968D01*
X009759Y014968D01*
X009769Y014930D01*
X009769Y014788D01*
X009156Y014788D01*
X009156Y014788D01*
X009156Y014288D01*
X009156Y014288D01*
X009156Y014086D01*
X009156Y013788D01*
X009156Y013788D01*
X009156Y013288D01*
X009162Y013353D01*
X010148Y013353D01*
X010282Y013487D01*
X010463Y013306D01*
X011292Y013306D01*
X011292Y013476D01*
X011292Y013476D01*
X011292Y013306D01*
X011292Y013306D01*
X011292Y013220D01*
X011292Y013220D01*
X011292Y013306D01*
X011292Y013306D01*
X011293Y013306D02*
X011872Y013306D01*
X011872Y013460D01*
X011860Y013505D01*
X011840Y013541D01*
X011892Y013593D01*
X011892Y014019D01*
X011855Y014056D01*
X011892Y014093D01*
X011892Y014519D01*
X011855Y014556D01*
X011892Y014593D01*
X011892Y015019D01*
X011855Y015056D01*
X012044Y015056D01*
X012136Y015094D01*
X012207Y015164D01*
X012216Y015174D01*
X012328Y015174D01*
X012470Y015233D01*
X012550Y015312D01*
X012554Y015308D01*
X012697Y015249D01*
X012851Y015249D01*
X012994Y015308D01*
X013103Y015417D01*
X013112Y015439D01*
X013112Y015093D01*
X013150Y015056D01*
X013112Y015019D01*
X013112Y014593D01*
X013150Y014556D01*
X013112Y014519D01*
X013112Y014093D01*
X013150Y014056D01*
X013112Y014019D01*
X013112Y013642D01*
X012997Y013690D01*
X012843Y013690D01*
X012700Y013631D01*
X012591Y013522D01*
X012532Y013379D01*
X012532Y013366D01*
X012385Y013220D01*
X011872Y013220D01*
X011872Y013306D01*
X011293Y013306D01*
X011293Y013306D01*
X011292Y013336D02*
X011292Y013336D01*
X010712Y013336D02*
X009769Y013336D01*
X009769Y013288D02*
X009769Y013430D01*
X009757Y013476D01*
X009733Y013517D01*
X009712Y013538D01*
X009733Y013560D01*
X009757Y013601D01*
X009769Y013646D01*
X009769Y013788D01*
X009156Y013788D01*
X009156Y013490D01*
X009156Y013288D01*
X009769Y013288D01*
X009746Y013494D02*
X010722Y013494D01*
X010628Y013494D02*
X004176Y013494D01*
X004199Y013475D02*
X004199Y013837D01*
X004199Y014050D01*
X004077Y014172D01*
X004034Y014255D02*
X004180Y014109D01*
X004034Y014255D02*
X003967Y015086D01*
X003420Y015086D01*
X003215Y015290D01*
X003215Y015298D01*
X003156Y015357D01*
X003156Y016196D01*
X002617Y016735D01*
X002627Y016725D02*
X002627Y016745D01*
X003067Y016745D01*
X003067Y016922D01*
X002803Y017185D01*
X002627Y017185D01*
X002627Y016745D01*
X002607Y016745D01*
X002607Y017185D01*
X002430Y017185D01*
X002167Y016922D01*
X002167Y016745D01*
X002607Y016745D01*
X002607Y016725D01*
X002627Y016725D01*
X003067Y016725D01*
X003067Y016549D01*
X002803Y016285D01*
X002627Y016285D01*
X002627Y016725D01*
X002607Y016725D02*
X002607Y016285D01*
X002430Y016285D01*
X002167Y016549D01*
X002167Y016725D01*
X002607Y016725D01*
X002607Y016664D02*
X002627Y016664D01*
X002627Y016506D02*
X002607Y016506D01*
X002607Y016347D02*
X002627Y016347D01*
X002811Y016205D02*
X002422Y016205D01*
X002147Y015930D01*
X002147Y015540D01*
X002422Y015265D01*
X002811Y015265D01*
X003087Y015540D01*
X003087Y015930D01*
X002811Y016205D01*
X002828Y016189D02*
X003236Y016189D01*
X003236Y016347D02*
X002865Y016347D01*
X003023Y016506D02*
X003236Y016506D01*
X003314Y016664D02*
X003067Y016664D01*
X003067Y016823D02*
X003364Y016823D01*
X003364Y016981D02*
X003007Y016981D01*
X002849Y017140D02*
X003364Y017140D01*
X003364Y017298D02*
X002844Y017298D01*
X003003Y017457D02*
X003364Y017457D01*
X003364Y017615D02*
X003087Y017615D01*
X003087Y017774D02*
X003364Y017774D01*
X003364Y017932D02*
X003084Y017932D01*
X002926Y018091D02*
X003364Y018091D01*
X003364Y018249D02*
X002555Y018249D01*
X002707Y018782D02*
X002736Y018782D01*
X003166Y018408D02*
X003364Y018408D01*
X004128Y017235D02*
X004193Y017170D01*
X004274Y017089D01*
X004428Y016664D02*
X003644Y016664D01*
X003644Y016506D02*
X004428Y016506D01*
X004428Y016347D02*
X003644Y016347D01*
X003644Y016189D02*
X004428Y016189D01*
X004428Y016030D02*
X003644Y016030D01*
X003236Y016030D02*
X002986Y016030D01*
X003087Y015872D02*
X003236Y015872D01*
X003313Y015713D02*
X003087Y015713D01*
X003087Y015555D02*
X003342Y015555D01*
X003325Y015545D02*
X003366Y015568D01*
X003412Y015580D01*
X003890Y015580D01*
X003890Y015163D01*
X004045Y015163D01*
X004045Y015008D01*
X004679Y015008D01*
X004679Y014747D01*
X004666Y014701D01*
X004643Y014660D01*
X004609Y014627D01*
X004568Y014603D01*
X004522Y014591D01*
X004045Y014591D01*
X004045Y015008D01*
X003890Y015008D01*
X003890Y014591D01*
X003412Y014591D01*
X003366Y014603D01*
X003325Y014627D01*
X003292Y014660D01*
X003268Y014701D01*
X003256Y014747D01*
X003256Y015008D01*
X003890Y015008D01*
X003890Y015163D01*
X003256Y015163D01*
X003256Y015424D01*
X003268Y015470D01*
X003292Y015511D01*
X003325Y015545D01*
X003256Y015396D02*
X002942Y015396D01*
X002811Y015205D02*
X002422Y015205D01*
X002147Y014930D01*
X002147Y014540D01*
X002422Y014265D01*
X002811Y014265D01*
X003087Y014540D01*
X003087Y014930D01*
X002811Y015205D01*
X002937Y015079D02*
X003890Y015079D01*
X004045Y015079D02*
X004909Y015079D01*
X004901Y015238D02*
X004679Y015238D01*
X004679Y014921D02*
X004921Y014921D01*
X004921Y014788D02*
X005534Y014788D01*
X005534Y014288D01*
X005534Y013788D01*
X005534Y013288D01*
X004329Y013359D01*
X004314Y013343D01*
X004314Y013361D01*
X004199Y013475D01*
X004076Y013494D02*
X004944Y013494D01*
X004921Y013336D02*
X004222Y013336D01*
X004310Y013336D02*
X010566Y013336D01*
X010526Y013243D02*
X004388Y013243D01*
X003979Y013727D01*
X003345Y013727D01*
X003247Y013826D01*
X003282Y015322D01*
X003436Y015290D01*
X003853Y015302D01*
X003873Y015271D01*
X004306Y015231D01*
X004010Y014830D01*
X009837Y014830D01*
X010306Y014802D01*
X010428Y014778D01*
X010628Y014621D01*
X010628Y013479D01*
X010526Y013243D01*
X010628Y013653D02*
X004042Y013653D01*
X004199Y013837D02*
X004180Y013857D01*
X004314Y013361D02*
X004315Y013359D01*
X004329Y013359D01*
X004314Y013343D02*
X004314Y012975D01*
X004310Y012971D01*
X004310Y012656D01*
X003802Y012149D01*
X003802Y011322D01*
X003754Y011275D02*
X002821Y011275D01*
X002900Y011117D02*
X003366Y011117D01*
X003366Y011003D02*
X003366Y011274D01*
X003754Y011274D01*
X003754Y010846D01*
X003522Y010846D01*
X003476Y010859D01*
X003435Y010882D01*
X003402Y010916D01*
X003378Y010957D01*
X003366Y011003D01*
X003378Y010958D02*
X003058Y010958D01*
X003087Y010800D02*
X004627Y010800D01*
X004627Y010641D02*
X003087Y010641D01*
X002803Y010265D02*
X002803Y010205D01*
X002422Y010205D01*
X002376Y010159D01*
X002376Y010311D01*
X002422Y010265D01*
X002803Y010265D01*
X002382Y010166D02*
X002376Y010166D01*
X001876Y010166D02*
X001851Y010166D01*
X001876Y010141D02*
X001811Y010205D01*
X001422Y010205D01*
X001356Y010139D01*
X001356Y010331D01*
X001422Y010265D01*
X001811Y010265D01*
X001876Y010330D01*
X001876Y010141D01*
X001870Y010324D02*
X001876Y010324D01*
X001363Y010324D02*
X001356Y010324D01*
X001356Y010166D02*
X001382Y010166D01*
X001356Y011139D02*
X001356Y011331D01*
X001422Y011265D01*
X001811Y011265D01*
X001876Y011330D01*
X001876Y011141D01*
X001811Y011205D01*
X001422Y011205D01*
X001356Y011139D01*
X001356Y011275D02*
X001412Y011275D01*
X001821Y011275D02*
X001876Y011275D01*
X002376Y011275D02*
X002412Y011275D01*
X002980Y011434D02*
X003366Y011434D01*
X003366Y011592D02*
X003087Y011592D01*
X003087Y011751D02*
X003425Y011751D01*
X003181Y011909D02*
X004323Y011909D01*
X004318Y012068D02*
X003314Y012068D01*
X003354Y012226D02*
X004383Y012226D01*
X004620Y012385D02*
X003326Y012385D01*
X003212Y012543D02*
X004516Y012543D01*
X004388Y012702D02*
X003067Y012702D01*
X003067Y012860D02*
X003624Y012860D01*
X003877Y013156D02*
X003790Y013243D01*
X002109Y013243D01*
X001617Y013735D01*
X001691Y013265D02*
X001422Y013265D01*
X001356Y013331D01*
X001356Y013139D01*
X001422Y013205D01*
X001751Y013205D01*
X001691Y013265D01*
X001394Y013177D02*
X001356Y013177D01*
X002053Y012963D02*
X002208Y012963D01*
X002167Y012922D01*
X002167Y012745D01*
X002607Y012745D01*
X002607Y012725D01*
X002167Y012725D01*
X002167Y012549D01*
X002234Y012481D01*
X002164Y012452D01*
X002094Y012382D01*
X001914Y012202D01*
X001885Y012132D01*
X001811Y012205D01*
X001422Y012205D01*
X001356Y012139D01*
X001356Y012331D01*
X001422Y012265D01*
X001811Y012265D01*
X002087Y012540D01*
X002087Y012930D01*
X002053Y012963D01*
X002087Y012860D02*
X002167Y012860D01*
X002167Y012702D02*
X002087Y012702D01*
X002087Y012543D02*
X002172Y012543D01*
X002097Y012385D02*
X001931Y012385D01*
X001938Y012226D02*
X001356Y012226D01*
X002617Y012735D02*
X002695Y012656D01*
X004310Y012656D01*
X004306Y012656D01*
X004351Y012860D02*
X004129Y012860D01*
X004239Y013019D02*
X004381Y013019D01*
X004265Y013177D02*
X004498Y013177D01*
X004739Y012869D02*
X004749Y012859D01*
X004792Y012385D02*
X004901Y012385D01*
X004706Y012000D02*
X004706Y011902D01*
X004947Y011660D01*
X005267Y011434D02*
X006774Y011434D01*
X006718Y011275D02*
X006303Y011275D01*
X006484Y011117D02*
X006729Y011117D01*
X006990Y011592D02*
X006167Y011592D01*
X006167Y011751D02*
X008523Y011751D01*
X008523Y011909D02*
X006844Y011909D01*
X006647Y011909D02*
X006167Y011909D01*
X005989Y011275D02*
X005267Y011275D01*
X005267Y011117D02*
X005807Y011117D01*
X005758Y010958D02*
X005267Y010958D01*
X005187Y010560D02*
X006506Y010560D01*
X006686Y010380D01*
X007828Y009830D02*
X007939Y009830D01*
X007901Y009738D01*
X007888Y009770D01*
X007828Y009830D01*
X006359Y008946D02*
X006357Y008942D01*
X006353Y008946D01*
X006359Y008946D01*
X005769Y008898D02*
X004774Y008898D01*
X004774Y008928D02*
X005534Y008928D01*
X005534Y008946D01*
X005523Y009021D01*
X005499Y009093D01*
X005465Y009160D01*
X005421Y009221D01*
X005367Y009274D01*
X005306Y009319D01*
X005239Y009353D01*
X005167Y009377D01*
X005092Y009388D01*
X004774Y009388D01*
X004774Y008928D01*
X004774Y009056D02*
X004734Y009056D01*
X004734Y009215D02*
X004774Y009215D01*
X004774Y009373D02*
X004734Y009373D01*
X004571Y009532D02*
X005344Y009532D01*
X005344Y009690D02*
X004898Y009690D01*
X005057Y009849D02*
X005344Y009849D01*
X005344Y010007D02*
X005215Y010007D01*
X005267Y010166D02*
X005396Y010166D01*
X005007Y010380D02*
X005187Y010560D01*
X005007Y010380D02*
X004947Y010440D01*
X004715Y009960D02*
X004554Y009960D01*
X004425Y010089D01*
X003864Y009532D02*
X003078Y009532D01*
X003087Y009690D02*
X003396Y009690D01*
X003141Y009849D02*
X003087Y009849D01*
X003754Y010958D02*
X003850Y010958D01*
X003850Y011117D02*
X003754Y011117D01*
X003754Y011434D02*
X003850Y011434D01*
X003850Y011592D02*
X003754Y011592D01*
X003754Y011751D02*
X003850Y011751D01*
X005534Y012288D02*
X006746Y012288D01*
X007040Y012543D02*
X007725Y012543D01*
X007681Y012385D02*
X007126Y012385D01*
X007134Y012226D02*
X007705Y012226D01*
X007814Y012068D02*
X007074Y012068D01*
X007222Y011592D02*
X008523Y011592D01*
X008567Y012543D02*
X008414Y012543D01*
X008523Y012702D02*
X008262Y012702D01*
X008523Y012860D02*
X006167Y012860D01*
X006167Y012702D02*
X007877Y012702D01*
X008552Y013019D02*
X006138Y013019D01*
X006147Y013177D02*
X008543Y013177D01*
X008543Y013336D02*
X006147Y013336D01*
X006147Y013288D02*
X006147Y013430D01*
X006135Y013476D01*
X006111Y013517D01*
X006090Y013538D01*
X006111Y013560D01*
X006135Y013601D01*
X006147Y013646D01*
X006147Y013788D01*
X005534Y013788D01*
X005534Y013788D01*
X005534Y013586D01*
X005534Y013288D01*
X006147Y013288D01*
X006124Y013494D02*
X008566Y013494D01*
X008543Y013653D02*
X006147Y013653D01*
X006147Y013788D02*
X006147Y013930D01*
X006135Y013976D01*
X006111Y014017D01*
X006090Y014038D01*
X006111Y014060D01*
X006135Y014101D01*
X006147Y014146D01*
X006147Y014288D01*
X005534Y014288D01*
X005534Y014288D01*
X005534Y014086D01*
X005534Y013788D01*
X005534Y013788D01*
X004921Y013788D01*
X005534Y013788D01*
X005534Y013788D01*
X005534Y013788D01*
X009156Y013788D01*
X008543Y013788D01*
X009156Y013788D01*
X009156Y013788D01*
X009156Y013788D01*
X009769Y013788D01*
X009769Y013930D01*
X009757Y013976D01*
X009733Y014017D01*
X009712Y014038D01*
X009733Y014060D01*
X009757Y014101D01*
X009769Y014146D01*
X009769Y014288D01*
X009156Y014288D01*
X009156Y013788D01*
X009156Y013788D01*
X009156Y013811D02*
X009156Y013811D01*
X009156Y013653D02*
X009156Y013653D01*
X009156Y013494D02*
X009156Y013494D01*
X009156Y013336D02*
X009156Y013336D01*
X009156Y013288D02*
X009156Y013288D01*
X009156Y013177D02*
X009156Y013177D01*
X009769Y013653D02*
X010692Y013653D01*
X010692Y013811D02*
X009769Y013811D01*
X009759Y013970D02*
X010692Y013970D01*
X010628Y013970D02*
X003250Y013970D01*
X003254Y014128D02*
X010628Y014128D01*
X010692Y014128D02*
X009764Y014128D01*
X009769Y014287D02*
X010692Y014287D01*
X010628Y014287D02*
X003258Y014287D01*
X003261Y014445D02*
X010628Y014445D01*
X010692Y014445D02*
X009765Y014445D01*
X009769Y014430D02*
X009757Y014476D01*
X009733Y014517D01*
X009712Y014538D01*
X009733Y014560D01*
X009757Y014601D01*
X009769Y014646D01*
X009769Y014788D01*
X009156Y014788D01*
X009156Y014490D01*
X009156Y014288D01*
X008543Y014288D01*
X009156Y014288D01*
X009156Y014288D01*
X009156Y014288D01*
X005534Y014288D01*
X005534Y014288D01*
X004921Y014288D01*
X005534Y014288D01*
X005534Y014288D01*
X005534Y014180D01*
X005534Y014180D01*
X005534Y014128D02*
X005534Y014128D01*
X005534Y013970D02*
X005534Y013970D01*
X005534Y013859D02*
X005534Y013788D01*
X006147Y013788D01*
X006147Y013811D02*
X008543Y013811D01*
X008554Y013970D02*
X006136Y013970D01*
X006142Y014128D02*
X008548Y014128D01*
X008543Y014287D02*
X006147Y014287D01*
X006147Y014288D02*
X006147Y014430D01*
X006135Y014476D01*
X006111Y014517D01*
X006090Y014538D01*
X006111Y014560D01*
X006135Y014601D01*
X006147Y014646D01*
X006147Y014788D01*
X005534Y014788D01*
X005534Y014788D01*
X005534Y014490D01*
X005534Y014288D01*
X006147Y014288D01*
X006143Y014445D02*
X008547Y014445D01*
X008554Y014604D02*
X006136Y014604D01*
X006147Y014762D02*
X008543Y014762D01*
X008543Y014788D02*
X009156Y014788D01*
X009156Y014788D01*
X009156Y014788D01*
X005534Y014788D01*
X005534Y014788D01*
X004921Y014788D01*
X004921Y014762D02*
X004679Y014762D01*
X004569Y014604D02*
X004932Y014604D01*
X004925Y014445D02*
X002991Y014445D01*
X003087Y014604D02*
X003365Y014604D01*
X003265Y014604D02*
X010628Y014604D01*
X010692Y014604D02*
X009758Y014604D01*
X009769Y014762D02*
X010639Y014762D01*
X010449Y014762D02*
X003269Y014762D01*
X003256Y014762D02*
X003087Y014762D01*
X003087Y014921D02*
X003256Y014921D01*
X003273Y014921D02*
X004077Y014921D01*
X004045Y014921D02*
X003890Y014921D01*
X003890Y014762D02*
X004045Y014762D01*
X004045Y014604D02*
X003890Y014604D01*
X004180Y014353D02*
X004211Y014385D01*
X004211Y014711D01*
X004359Y014859D01*
X004430Y014788D01*
X005534Y014788D01*
X005534Y014788D01*
X006147Y014788D01*
X006147Y014930D01*
X006137Y014968D01*
X007344Y014968D01*
X007384Y014985D01*
X007442Y014985D01*
X007585Y015044D01*
X007694Y015153D01*
X007753Y015296D01*
X007753Y015450D01*
X007694Y015593D01*
X007753Y015396D02*
X008523Y015396D01*
X008523Y015238D02*
X007729Y015238D01*
X007620Y015079D02*
X008531Y015079D01*
X008543Y014921D02*
X006147Y014921D01*
X005534Y014762D02*
X005534Y014762D01*
X005534Y014604D02*
X005534Y014604D01*
X005534Y014445D02*
X005534Y014445D01*
X005534Y014288D02*
X005534Y014288D01*
X005534Y014287D02*
X005534Y014287D01*
X005534Y013811D02*
X005534Y013811D01*
X005534Y013788D02*
X005534Y013788D01*
X005534Y013653D02*
X005534Y013653D01*
X005534Y013494D02*
X005534Y013494D01*
X005534Y013336D02*
X005534Y013336D01*
X005534Y013288D02*
X005534Y013288D01*
X005534Y013177D02*
X005534Y013177D01*
X004921Y013653D02*
X003087Y013653D01*
X003087Y013811D02*
X004921Y013811D01*
X004931Y013970D02*
X003047Y013970D01*
X002888Y014128D02*
X004926Y014128D01*
X004921Y014287D02*
X002833Y014287D01*
X002401Y014287D02*
X001833Y014287D01*
X001888Y014128D02*
X002345Y014128D01*
X002186Y013970D02*
X002047Y013970D01*
X002087Y013811D02*
X002147Y013811D01*
X002147Y013653D02*
X002095Y013653D01*
X001991Y014445D02*
X002242Y014445D01*
X002147Y014604D02*
X002087Y014604D01*
X002087Y014762D02*
X002147Y014762D01*
X002147Y014921D02*
X002087Y014921D01*
X001937Y015079D02*
X002296Y015079D01*
X002291Y015396D02*
X001942Y015396D01*
X002087Y015555D02*
X002147Y015555D01*
X002147Y015713D02*
X002087Y015713D01*
X002087Y015872D02*
X002147Y015872D01*
X002247Y016030D02*
X001986Y016030D01*
X001828Y016189D02*
X002405Y016189D01*
X002368Y016347D02*
X001893Y016347D01*
X002052Y016506D02*
X002210Y016506D01*
X002167Y016664D02*
X002087Y016664D01*
X002087Y016823D02*
X002167Y016823D01*
X002226Y016981D02*
X002035Y016981D01*
X001877Y017140D02*
X002385Y017140D01*
X002389Y017298D02*
X001816Y017298D01*
X001803Y017285D02*
X002067Y017549D01*
X002067Y017725D01*
X001627Y017725D01*
X001627Y017285D01*
X001803Y017285D01*
X001627Y017298D02*
X001607Y017298D01*
X001607Y017457D02*
X001627Y017457D01*
X001627Y017615D02*
X001607Y017615D01*
X001607Y017774D02*
X001627Y017774D01*
X001627Y017932D02*
X001607Y017932D01*
X001607Y018091D02*
X001627Y018091D01*
X001816Y018249D02*
X001356Y018249D01*
X001356Y018408D02*
X001706Y018408D01*
X001706Y018566D02*
X001356Y018566D01*
X001356Y018725D02*
X001706Y018725D01*
X001706Y018883D02*
X001356Y018883D01*
X001356Y019042D02*
X001706Y019042D01*
X001725Y019200D02*
X001356Y019200D01*
X002067Y017774D02*
X002126Y017774D01*
X002147Y017615D02*
X002067Y017615D01*
X001974Y017457D02*
X002231Y017457D01*
X002607Y017140D02*
X002627Y017140D01*
X002627Y016981D02*
X002607Y016981D01*
X002607Y016823D02*
X002627Y016823D01*
X001417Y017298D02*
X001356Y017298D01*
X001356Y017140D02*
X001356Y017140D01*
X001356Y016189D02*
X001405Y016189D01*
X001356Y015238D02*
X003256Y015238D01*
X003280Y015238D02*
X004236Y015238D01*
X004194Y015079D02*
X003276Y015079D01*
X003890Y015238D02*
X004045Y015238D01*
X004045Y015396D02*
X003890Y015396D01*
X003890Y015555D02*
X004045Y015555D01*
X004778Y015660D02*
X004817Y015700D01*
X004817Y016204D01*
X004902Y016288D01*
X005534Y016288D01*
X005520Y016345D01*
X005534Y015788D02*
X005548Y015774D01*
X004722Y016504D02*
X004708Y016490D01*
X004708Y016504D01*
X004722Y016504D01*
X005307Y018091D02*
X005591Y018091D01*
X005432Y018249D02*
X005148Y018249D01*
X005094Y018408D02*
X005339Y018408D01*
X005339Y018566D02*
X005094Y018566D01*
X005094Y018725D02*
X005339Y018725D01*
X005339Y018883D02*
X005067Y018883D01*
X005005Y019042D02*
X005355Y019042D01*
X005513Y019200D02*
X004846Y019200D01*
X004688Y019359D02*
X005672Y019359D01*
X006656Y019359D02*
X007640Y019359D01*
X007791Y019509D02*
X007307Y019026D01*
X007307Y018342D01*
X007791Y017859D01*
X008474Y017859D01*
X008957Y018342D01*
X008957Y019026D01*
X008474Y019509D01*
X007791Y019509D01*
X007482Y019200D02*
X006815Y019200D01*
X006973Y019042D02*
X007323Y019042D01*
X007307Y018883D02*
X006989Y018883D01*
X006989Y018725D02*
X007307Y018725D01*
X007307Y018566D02*
X006989Y018566D01*
X006989Y018408D02*
X007307Y018408D01*
X007401Y018249D02*
X006896Y018249D01*
X006737Y018091D02*
X007559Y018091D01*
X007718Y017932D02*
X007359Y017932D01*
X007079Y017932D02*
X006768Y017932D01*
X008547Y017932D02*
X009686Y017932D01*
X009759Y017859D02*
X010443Y017859D01*
X010926Y018342D01*
X010926Y019026D01*
X010443Y019509D01*
X009759Y019509D01*
X009276Y019026D01*
X009276Y018342D01*
X009759Y017859D01*
X009528Y018091D02*
X008706Y018091D01*
X008864Y018249D02*
X009369Y018249D01*
X009276Y018408D02*
X008957Y018408D01*
X008957Y018566D02*
X009276Y018566D01*
X009276Y018725D02*
X008957Y018725D01*
X008957Y018883D02*
X009276Y018883D01*
X009292Y019042D02*
X008942Y019042D01*
X008783Y019200D02*
X009450Y019200D01*
X009609Y019359D02*
X008625Y019359D01*
X010593Y019359D02*
X011577Y019359D01*
X011419Y019200D02*
X010752Y019200D01*
X010910Y019042D02*
X011260Y019042D01*
X011244Y018883D02*
X010926Y018883D01*
X010926Y018725D02*
X011244Y018725D01*
X011244Y018566D02*
X010926Y018566D01*
X010926Y018408D02*
X011244Y018408D01*
X011338Y018249D02*
X010833Y018249D01*
X010674Y018091D02*
X011496Y018091D01*
X011655Y017932D02*
X010516Y017932D01*
X010255Y016389D02*
X010480Y016164D01*
X010550Y016094D01*
X010642Y016056D01*
X010730Y016056D01*
X010730Y016056D01*
X010695Y016021D01*
X010691Y016026D01*
X010588Y016068D01*
X009993Y016068D01*
X010051Y016092D01*
X010134Y016175D01*
X010212Y016254D01*
X010255Y016357D01*
X010255Y016389D01*
X010251Y016347D02*
X010297Y016347D01*
X010147Y016189D02*
X010455Y016189D01*
X010680Y016030D02*
X010704Y016030D01*
X010532Y015788D02*
X010652Y015668D01*
X010652Y015145D01*
X010991Y014806D01*
X011292Y014806D01*
X011892Y014762D02*
X013112Y014762D01*
X013112Y014604D02*
X011892Y014604D01*
X011892Y014445D02*
X013112Y014445D01*
X013112Y014287D02*
X011892Y014287D01*
X011892Y014128D02*
X013112Y014128D01*
X013112Y013970D02*
X011892Y013970D01*
X011892Y013811D02*
X013112Y013811D01*
X013112Y013653D02*
X013088Y013653D01*
X012752Y013653D02*
X011892Y013653D01*
X011863Y013494D02*
X012579Y013494D01*
X012501Y013336D02*
X011872Y013336D01*
X012930Y012860D02*
X014208Y012860D01*
X014238Y013019D02*
X014356Y013019D01*
X014356Y013177D02*
X014312Y013177D01*
X014312Y013336D02*
X014356Y013336D01*
X014356Y013494D02*
X014312Y013494D01*
X014312Y013653D02*
X014356Y013653D01*
X014366Y013811D02*
X014312Y013811D01*
X014312Y013970D02*
X014479Y013970D01*
X014637Y014128D02*
X014312Y014128D01*
X014312Y014287D02*
X014796Y014287D01*
X014954Y014445D02*
X014312Y014445D01*
X014312Y014604D02*
X015147Y014604D01*
X015147Y014762D02*
X014312Y014762D01*
X014312Y014921D02*
X015147Y014921D01*
X015296Y015079D02*
X014298Y015079D01*
X014312Y015238D02*
X015841Y015238D01*
X016401Y015238D02*
X016878Y015238D01*
X016811Y015265D02*
X016878Y015331D01*
X016878Y015139D01*
X016811Y015205D01*
X016422Y015205D01*
X016401Y015184D01*
X016401Y015287D01*
X016422Y015265D01*
X016811Y015265D01*
X016878Y016139D02*
X016811Y016205D01*
X016422Y016205D01*
X016401Y016184D01*
X016401Y016287D01*
X016422Y016265D01*
X016811Y016265D01*
X016878Y016331D01*
X016878Y016139D01*
X016878Y016189D02*
X016828Y016189D01*
X016405Y016189D02*
X016401Y016189D01*
X015841Y016189D02*
X015828Y016189D01*
X015405Y016189D02*
X014712Y016189D01*
X014712Y016347D02*
X015340Y016347D01*
X015182Y016506D02*
X014712Y016506D01*
X014712Y016664D02*
X015147Y016664D01*
X015147Y016823D02*
X014712Y016823D01*
X014712Y016981D02*
X015198Y016981D01*
X015356Y017140D02*
X014712Y017140D01*
X014712Y017298D02*
X015417Y017298D01*
X015259Y017457D02*
X014712Y017457D01*
X014778Y017615D02*
X015167Y017615D01*
X015167Y017774D02*
X014937Y017774D01*
X015095Y017932D02*
X015177Y017932D01*
X015558Y018814D02*
X015558Y018889D01*
X015922Y019359D02*
X016006Y019359D01*
X016742Y019200D02*
X016878Y019200D01*
X016878Y019042D02*
X016742Y019042D01*
X016878Y017331D02*
X016878Y017139D01*
X016811Y017205D01*
X016483Y017205D01*
X016543Y017265D01*
X016811Y017265D01*
X016878Y017331D01*
X016878Y017298D02*
X016844Y017298D01*
X016877Y017140D02*
X016878Y017140D01*
X015247Y016030D02*
X014795Y016030D01*
X014820Y015872D02*
X015147Y015872D01*
X015147Y015713D02*
X014777Y015713D01*
X014630Y015555D02*
X015147Y015555D01*
X015291Y015396D02*
X014312Y015396D01*
X014432Y015893D02*
X014432Y016448D01*
X013112Y016506D02*
X011892Y016506D01*
X011892Y016347D02*
X013112Y016347D01*
X013112Y016189D02*
X012576Y016189D01*
X012734Y016030D02*
X013124Y016030D01*
X013112Y015872D02*
X013088Y015872D01*
X013082Y015396D02*
X013112Y015396D01*
X013112Y015238D02*
X012475Y015238D01*
X012100Y015079D02*
X013127Y015079D01*
X013112Y014921D02*
X011892Y014921D01*
X011862Y015556D02*
X011855Y015556D01*
X011855Y015556D01*
X011862Y015563D01*
X011862Y015556D01*
X011300Y015814D02*
X011292Y015806D01*
X010532Y015788D02*
X009156Y015788D01*
X008556Y015555D02*
X008551Y015555D01*
X008543Y014788D02*
X009156Y014788D01*
X009156Y014968D01*
X009156Y014968D01*
X009156Y014788D01*
X009156Y014788D01*
X009156Y014762D02*
X009156Y014762D01*
X009156Y014604D02*
X009156Y014604D01*
X009156Y014445D02*
X009156Y014445D01*
X009156Y014288D02*
X009156Y014288D01*
X009769Y014288D01*
X009769Y014430D01*
X009769Y014921D02*
X010480Y014921D01*
X010288Y015359D02*
X010294Y015365D01*
X009156Y014921D02*
X009156Y014921D01*
X009156Y014287D02*
X009156Y014287D01*
X009156Y014128D02*
X009156Y014128D01*
X009156Y013970D02*
X009156Y013970D01*
X010628Y013811D02*
X003261Y013811D01*
X001401Y014287D02*
X001356Y014287D01*
X005178Y009373D02*
X005401Y009373D01*
X005425Y009215D02*
X005559Y009215D01*
X005511Y009056D02*
X005718Y009056D01*
X005610Y008739D02*
X005504Y008739D01*
X005585Y008581D02*
X005405Y008581D01*
X004774Y008581D02*
X004734Y008581D01*
X004734Y008739D02*
X004774Y008739D01*
X003198Y006520D02*
X003066Y006520D01*
X003026Y005990D02*
X003171Y005990D01*
X003171Y005267D01*
X003288Y005150D01*
X004013Y005150D01*
X003954Y005008D01*
X003954Y004825D01*
X003918Y004840D01*
X003764Y004840D01*
X003621Y004781D01*
X003512Y004671D01*
X003453Y004529D01*
X003453Y004374D01*
X003512Y004232D01*
X003621Y004123D01*
X003764Y004064D01*
X003918Y004064D01*
X003990Y004093D01*
X003954Y004008D01*
X003954Y003809D01*
X004031Y003625D01*
X004166Y003490D01*
X003036Y003490D01*
X003087Y003540D01*
X003087Y003930D01*
X002811Y004205D01*
X002422Y004205D01*
X002147Y003930D01*
X002147Y003659D01*
X002087Y003659D01*
X002087Y003930D01*
X001811Y004205D01*
X001422Y004205D01*
X001356Y004139D01*
X001356Y004331D01*
X001422Y004265D01*
X001811Y004265D01*
X002087Y004540D01*
X002087Y004930D01*
X001811Y005205D01*
X001422Y005205D01*
X001356Y005139D01*
X001356Y005331D01*
X001422Y005265D01*
X001811Y005265D01*
X002087Y005540D01*
X002087Y005930D01*
X001811Y006205D01*
X001422Y006205D01*
X001356Y006139D01*
X001356Y006331D01*
X001422Y006265D01*
X001811Y006265D01*
X001905Y006359D01*
X001914Y006338D01*
X001984Y006268D01*
X002224Y006028D01*
X002239Y006022D01*
X002147Y005930D01*
X002147Y005540D01*
X002422Y005265D01*
X002811Y005265D01*
X003087Y005540D01*
X003087Y005930D01*
X003026Y005990D01*
X003087Y005886D02*
X003171Y005886D01*
X003171Y005728D02*
X003087Y005728D01*
X003087Y005569D02*
X003171Y005569D01*
X003171Y005411D02*
X002957Y005411D01*
X002811Y005205D02*
X002422Y005205D01*
X002147Y004930D01*
X002147Y004540D01*
X002422Y004265D01*
X002811Y004265D01*
X003087Y004540D01*
X003087Y004930D01*
X002811Y005205D01*
X002923Y005094D02*
X003990Y005094D01*
X003954Y004935D02*
X003081Y004935D01*
X003087Y004777D02*
X003617Y004777D01*
X003490Y004618D02*
X003087Y004618D01*
X003006Y004460D02*
X003453Y004460D01*
X003483Y004301D02*
X002847Y004301D01*
X002874Y004143D02*
X003601Y004143D01*
X003954Y003984D02*
X003032Y003984D01*
X003087Y003826D02*
X003954Y003826D01*
X004013Y003667D02*
X003087Y003667D01*
X003055Y003509D02*
X004147Y003509D01*
X003884Y004408D02*
X003841Y004452D01*
X003186Y005252D02*
X001356Y005252D01*
X001923Y005094D02*
X002310Y005094D01*
X002152Y004935D02*
X002081Y004935D01*
X002087Y004777D02*
X002147Y004777D01*
X002147Y004618D02*
X002087Y004618D01*
X002006Y004460D02*
X002228Y004460D01*
X002386Y004301D02*
X001847Y004301D01*
X001874Y004143D02*
X002359Y004143D01*
X002201Y003984D02*
X002032Y003984D01*
X002087Y003826D02*
X002147Y003826D01*
X002147Y003667D02*
X002087Y003667D01*
X001744Y003265D02*
X001744Y003205D01*
X001422Y003205D01*
X001356Y003139D01*
X001356Y003331D01*
X001422Y003265D01*
X001744Y003265D01*
X001408Y003192D02*
X001356Y003192D01*
X002087Y002875D02*
X002147Y002875D01*
X002147Y002716D02*
X002087Y002716D01*
X002087Y002558D02*
X002147Y002558D01*
X002288Y002399D02*
X001945Y002399D01*
X001934Y002082D02*
X002299Y002082D01*
X002147Y001924D02*
X002087Y001924D01*
X002087Y001765D02*
X002147Y001765D01*
X002147Y001607D02*
X002087Y001607D01*
X001994Y001448D02*
X002239Y001448D01*
X002836Y001290D02*
X003370Y001290D01*
X003370Y001448D02*
X002994Y001448D01*
X003087Y001607D02*
X003370Y001607D01*
X003433Y001765D02*
X003087Y001765D01*
X003087Y001924D02*
X003591Y001924D01*
X003750Y002082D02*
X002934Y002082D01*
X002945Y002399D02*
X006631Y002399D01*
X006473Y002241D02*
X001356Y002241D01*
X003087Y002558D02*
X006790Y002558D01*
X006948Y002716D02*
X003087Y002716D01*
X003087Y002875D02*
X007110Y002875D01*
X007575Y002052D02*
X007657Y002052D01*
X007560Y001955D01*
X007560Y002037D01*
X007575Y002052D01*
X007172Y002003D02*
X007172Y001979D01*
X007286Y001607D02*
X007307Y001607D01*
X007307Y001448D02*
X006989Y001448D01*
X006989Y001290D02*
X007307Y001290D01*
X007307Y001131D02*
X006989Y001131D01*
X006942Y000973D02*
X007354Y000973D01*
X007513Y000814D02*
X006784Y000814D01*
X006625Y000656D02*
X007671Y000656D01*
X007057Y001607D02*
X006989Y001607D01*
X005718Y002082D02*
X004641Y002082D01*
X004800Y001924D02*
X005560Y001924D01*
X005401Y001765D02*
X004958Y001765D01*
X005020Y001607D02*
X005339Y001607D01*
X005339Y001448D02*
X005020Y001448D01*
X005020Y001290D02*
X005339Y001290D01*
X005339Y001131D02*
X005020Y001131D01*
X004974Y000973D02*
X005386Y000973D01*
X005544Y000814D02*
X004815Y000814D01*
X004657Y000656D02*
X005703Y000656D01*
X005468Y003033D02*
X005212Y003033D01*
X005371Y003192D02*
X005382Y003192D01*
X004758Y004904D02*
X004754Y004908D01*
X002277Y005411D02*
X001957Y005411D01*
X002087Y005569D02*
X002147Y005569D01*
X002147Y005728D02*
X002087Y005728D01*
X002087Y005886D02*
X002147Y005886D01*
X002208Y006045D02*
X001972Y006045D01*
X002049Y006203D02*
X001813Y006203D01*
X001420Y006203D02*
X001356Y006203D01*
X001356Y007139D02*
X001356Y007331D01*
X001422Y007265D01*
X001811Y007265D01*
X001876Y007330D01*
X001876Y007141D01*
X001811Y007205D01*
X001422Y007205D01*
X001356Y007139D01*
X001356Y007154D02*
X001371Y007154D01*
X001356Y007313D02*
X001375Y007313D01*
X001859Y007313D02*
X001876Y007313D01*
X001862Y007154D02*
X001876Y007154D01*
X001386Y004301D02*
X001356Y004301D01*
X001356Y004143D02*
X001359Y004143D01*
X009603Y010660D02*
X010439Y010660D01*
X010438Y010663D01*
X010438Y010817D01*
X010497Y010960D01*
X010507Y010970D01*
X009640Y010970D01*
X009654Y010937D01*
X009654Y010783D01*
X009603Y010660D01*
X009654Y010800D02*
X010438Y010800D01*
X010496Y010958D02*
X009645Y010958D01*
X012182Y012042D02*
X012189Y012050D01*
X012253Y012050D01*
X012253Y012042D01*
X012182Y012042D01*
X013185Y013019D02*
X013187Y013019D01*
X013898Y012702D02*
X014007Y012702D01*
X014341Y012495D02*
X014636Y012790D01*
X014636Y013731D01*
X015156Y014251D01*
X016046Y013971D02*
X016058Y013971D01*
X016161Y014013D01*
X016279Y014132D01*
X016358Y014210D01*
X016393Y014294D01*
X016422Y014265D01*
X016811Y014265D01*
X016878Y014331D01*
X016878Y014139D01*
X016811Y014205D01*
X016422Y014205D01*
X016147Y013930D01*
X016147Y013601D01*
X016087Y013661D01*
X016087Y013930D01*
X016046Y013971D01*
X016047Y013970D02*
X016186Y013970D01*
X016147Y013811D02*
X016087Y013811D01*
X016095Y013653D02*
X016147Y013653D01*
X016397Y013290D02*
X016422Y013265D01*
X016811Y013265D01*
X016878Y013331D01*
X016878Y013139D01*
X016811Y013205D01*
X016422Y013205D01*
X016397Y013180D01*
X016397Y013290D01*
X016839Y013177D02*
X016878Y013177D01*
X016878Y012331D02*
X016878Y012139D01*
X016811Y012205D01*
X016422Y012205D01*
X016397Y012180D01*
X016397Y012290D01*
X016422Y012265D01*
X016811Y012265D01*
X016878Y012331D01*
X016878Y012226D02*
X016397Y012226D01*
X015837Y012226D02*
X015654Y012226D01*
X015654Y012205D02*
X015654Y012265D01*
X015811Y012265D01*
X015837Y012290D01*
X015837Y012180D01*
X015811Y012205D01*
X015654Y012205D01*
X015605Y011747D02*
X015617Y011735D01*
X015666Y011265D02*
X015811Y011265D01*
X015837Y011290D01*
X015837Y011180D01*
X015811Y011205D01*
X015666Y011205D01*
X015666Y011265D01*
X015821Y011275D02*
X015837Y011275D01*
X016397Y011275D02*
X016412Y011275D01*
X016422Y011265D02*
X016397Y011290D01*
X016397Y011180D01*
X016422Y011205D01*
X016811Y011205D01*
X016878Y011139D01*
X016878Y011331D01*
X016811Y011265D01*
X016422Y011265D01*
X016821Y011275D02*
X016878Y011275D01*
X016878Y010331D02*
X016878Y010139D01*
X016811Y010205D01*
X016422Y010205D01*
X016147Y009930D01*
X016147Y009619D01*
X016087Y009559D01*
X016087Y009930D01*
X016025Y009991D01*
X016051Y010002D01*
X016130Y010080D01*
X016354Y010305D01*
X016362Y010325D01*
X016422Y010265D01*
X016811Y010265D01*
X016878Y010331D01*
X016878Y010324D02*
X016870Y010324D01*
X016878Y010166D02*
X016851Y010166D01*
X016382Y010166D02*
X016215Y010166D01*
X016224Y010007D02*
X016056Y010007D01*
X016087Y009849D02*
X016147Y009849D01*
X016147Y009690D02*
X016087Y009690D01*
X015881Y009335D02*
X015856Y009274D01*
X015856Y009161D01*
X015811Y009205D01*
X015422Y009205D01*
X015256Y009040D01*
X015256Y009431D01*
X015422Y009265D01*
X015811Y009265D01*
X015881Y009335D01*
X015856Y009215D02*
X015256Y009215D01*
X015256Y009373D02*
X015314Y009373D01*
X015273Y009056D02*
X015256Y009056D01*
X015256Y008422D02*
X015265Y008422D01*
X016440Y009205D02*
X016500Y009265D01*
X016811Y009265D01*
X016878Y009331D01*
X016878Y009139D01*
X016811Y009205D01*
X016440Y009205D01*
X016450Y009215D02*
X016878Y009215D01*
X016363Y010324D02*
X016362Y010324D01*
X015140Y010485D02*
X015119Y010476D01*
X014851Y010208D01*
X014638Y010208D01*
X014588Y010257D01*
X014569Y010265D01*
X014704Y010401D01*
X014704Y010613D01*
X014164Y010613D01*
X014164Y010653D01*
X014699Y010653D01*
X014829Y010523D01*
X014921Y010485D01*
X015140Y010485D01*
X015134Y010483D02*
X014704Y010483D01*
X014711Y010641D02*
X014164Y010641D01*
X014627Y010324D02*
X014967Y010324D01*
X014906Y012385D02*
X014715Y012385D01*
X014785Y012543D02*
X015020Y012543D01*
X014903Y012702D02*
X015147Y012702D01*
X015147Y012860D02*
X014916Y012860D01*
X014916Y013019D02*
X015235Y013019D01*
X015394Y013177D02*
X014916Y013177D01*
X016276Y014128D02*
X016345Y014128D01*
X016390Y014287D02*
X016401Y014287D01*
X016833Y014287D02*
X016878Y014287D01*
X012379Y008698D02*
X012406Y008671D01*
X012458Y008649D01*
X012379Y008571D01*
X012379Y008698D01*
X012379Y008581D02*
X012389Y008581D01*
X012775Y008175D02*
X012856Y008175D01*
X012815Y008215D01*
X012775Y008175D01*
X012916Y008511D02*
X013058Y008652D01*
X007351Y015359D02*
X007365Y015373D01*
D11*
X009277Y007865D03*
X009277Y007550D03*
X009277Y007235D03*
X009277Y006920D03*
X009277Y006605D03*
X009277Y006290D03*
X009277Y005975D03*
X009277Y005660D03*
X012657Y005660D03*
X012657Y005975D03*
X012657Y006290D03*
X012657Y006605D03*
X012657Y006920D03*
X012657Y007235D03*
X012657Y007550D03*
X012657Y007865D03*
D12*
X012069Y008453D03*
X011754Y008453D03*
X011440Y008453D03*
X011125Y008453D03*
X010810Y008453D03*
X010495Y008453D03*
X010180Y008453D03*
X009865Y008453D03*
X009865Y005073D03*
X010180Y005073D03*
X010495Y005073D03*
X010810Y005073D03*
X011125Y005073D03*
X011440Y005073D03*
X011754Y005073D03*
X012069Y005073D03*
D13*
X008085Y007507D03*
X008085Y008507D03*
X007085Y008507D03*
X006085Y008507D03*
X006085Y007507D03*
X007085Y007507D03*
D14*
X006169Y009771D03*
X006164Y001361D03*
X008132Y001361D03*
X010101Y001361D03*
X012069Y001361D03*
X014038Y001361D03*
X013983Y003751D03*
X004195Y001361D03*
X004195Y018684D03*
X006164Y018684D03*
X008132Y018684D03*
X010101Y018684D03*
X012069Y018684D03*
X014038Y018684D03*
D15*
X007782Y006015D03*
X006955Y006015D03*
D16*
X005054Y005908D02*
X004454Y005908D01*
X004454Y004908D02*
X005054Y004908D01*
X005054Y003908D02*
X004454Y003908D01*
X004454Y006908D02*
X005054Y006908D01*
X005054Y007908D02*
X004454Y007908D01*
X004454Y008908D02*
X005054Y008908D01*
D17*
X001617Y000735D03*
X015617Y000735D03*
D18*
X016617Y000735D03*
X016617Y001735D03*
X016617Y002735D03*
X016617Y003735D03*
X016617Y004735D03*
X016617Y005735D03*
X016617Y006735D03*
X016617Y007735D03*
X016617Y008735D03*
X016617Y009735D03*
X016617Y010735D03*
X016617Y011735D03*
X016617Y012735D03*
X016617Y013735D03*
X016617Y014735D03*
X016617Y015735D03*
X016617Y016735D03*
X016617Y017735D03*
X015617Y017735D03*
X015617Y016735D03*
X015617Y015735D03*
X015617Y014735D03*
X015617Y013735D03*
X015617Y012735D03*
X015617Y011735D03*
X015617Y010735D03*
X015617Y009735D03*
X015617Y008735D03*
X015617Y007735D03*
X015617Y006735D03*
X015617Y005735D03*
X015617Y004735D03*
X015617Y003735D03*
X015617Y002735D03*
X015617Y001735D03*
X002617Y001735D03*
X002617Y000735D03*
X001617Y001735D03*
X001617Y002735D03*
X001617Y003735D03*
X001617Y004735D03*
X001617Y005735D03*
X001617Y006735D03*
X001617Y007735D03*
X001617Y008735D03*
X001617Y009735D03*
X001617Y010735D03*
X001617Y011735D03*
X001617Y012735D03*
X001617Y013735D03*
X001617Y014735D03*
X001617Y015735D03*
X001617Y016735D03*
X001617Y017735D03*
X002617Y017735D03*
X002617Y016735D03*
X002617Y015735D03*
X002617Y014735D03*
X002617Y013735D03*
X002617Y012735D03*
X002617Y011735D03*
X002617Y010735D03*
X002617Y009735D03*
X002617Y008735D03*
X002617Y007735D03*
X002617Y006735D03*
X002617Y005735D03*
X002617Y004735D03*
X002617Y003735D03*
X002617Y002735D03*
D19*
X014224Y008903D03*
D20*
X012857Y004995D03*
D21*
X012683Y011792D03*
X013283Y011792D03*
X004425Y010089D03*
X003825Y010089D03*
X002736Y018782D03*
X002136Y018782D03*
D22*
X005534Y016288D03*
X005534Y015788D03*
X005534Y015288D03*
X005534Y014788D03*
X005534Y014288D03*
X005534Y013788D03*
X005534Y013288D03*
X005534Y012788D03*
X005534Y012288D03*
X005534Y011788D03*
X009156Y011788D03*
X009156Y012288D03*
X009156Y012788D03*
X009156Y013288D03*
X009156Y013788D03*
X009156Y014288D03*
X009156Y014788D03*
X009156Y015288D03*
X009156Y015788D03*
X009156Y016288D03*
D23*
X004550Y011322D03*
X003802Y011322D03*
X015558Y018889D03*
X016306Y018889D03*
D24*
X013712Y016306D03*
X013712Y015806D03*
X013712Y015306D03*
X013712Y014806D03*
X013712Y014306D03*
X013712Y013806D03*
X013712Y013306D03*
X011292Y013306D03*
X011292Y013806D03*
X011292Y014306D03*
X011292Y014806D03*
X011292Y015306D03*
X011292Y015806D03*
X011292Y016306D03*
D25*
X003967Y016188D03*
X003967Y015086D03*
D26*
X014144Y007696D03*
X014144Y006696D03*
X014144Y005696D03*
D27*
X014144Y010633D03*
D28*
X003686Y006180D03*
X003686Y005580D03*
D29*
X006618Y005271D03*
X006618Y006609D03*
X008193Y006609D03*
X008193Y005271D03*
D30*
X005786Y005906D03*
X005786Y006654D03*
D31*
X007406Y006600D03*
X007406Y005280D03*
X006686Y004680D03*
X006095Y004544D03*
X006350Y003288D03*
X006938Y003288D03*
X007886Y003120D03*
X008298Y002660D03*
X008904Y002656D03*
X007172Y001979D03*
X005762Y003288D03*
X003841Y004452D03*
X002132Y003271D03*
X007559Y009550D03*
X007406Y010020D03*
X007526Y010860D03*
X007106Y011220D03*
X006146Y010920D03*
X006746Y012288D03*
X008069Y012361D03*
X009266Y010860D03*
X008282Y009644D03*
X010646Y011940D03*
X011366Y012180D03*
X011932Y011629D03*
X012866Y010860D03*
X013315Y010831D03*
X014369Y009928D03*
X015278Y011239D03*
X015266Y012240D03*
X014341Y012495D03*
X012920Y013302D03*
X012774Y015637D03*
X012251Y015562D03*
X010294Y015365D03*
X008400Y015912D03*
X007365Y015373D03*
X006942Y015912D03*
X006506Y015720D03*
X006266Y016200D03*
X007219Y017570D03*
X007152Y019156D03*
X009109Y019156D03*
X011101Y019156D03*
X014432Y015893D03*
X010046Y012420D03*
X010826Y010740D03*
X011246Y010020D03*
X010826Y009420D03*
X011906Y009360D03*
X011906Y010020D03*
X012626Y009000D03*
X013058Y008652D03*
X014520Y007204D03*
X014532Y006208D03*
X013715Y004708D03*
X012668Y004141D03*
X011479Y003371D03*
X010487Y005889D03*
X009014Y005074D03*
X014606Y003060D03*
X016136Y003310D03*
X004778Y015660D03*
X003877Y013156D03*
X004310Y012656D03*
X004739Y012869D03*
X004706Y012000D03*
X002966Y012240D03*
X003191Y010251D03*
D32*
X003926Y009240D02*
X004406Y009720D01*
X004406Y010071D01*
X004425Y010089D01*
X004715Y009960D02*
X004946Y010190D01*
X004946Y010620D01*
X006146Y010920D02*
X006206Y010860D01*
X007526Y010860D01*
X009266Y010860D01*
X009817Y011629D02*
X011932Y011629D01*
X011932Y011546D01*
X011932Y011629D02*
X012095Y011792D01*
X012683Y011792D01*
X013283Y011792D02*
X013615Y011460D01*
X014546Y011460D01*
X014767Y011239D01*
X015278Y011239D01*
X014971Y010735D02*
X014486Y011220D01*
X007106Y011220D01*
X007346Y011220D01*
X008142Y012288D02*
X009156Y012288D01*
X009204Y012240D01*
X009626Y012240D01*
X009806Y012060D01*
X010226Y012060D01*
X010466Y012300D01*
X010706Y012300D01*
X010826Y012180D01*
X011366Y012180D01*
X011666Y011880D02*
X012086Y012300D01*
X013646Y012300D01*
X013766Y012180D01*
X013766Y011940D01*
X013971Y011735D01*
X015617Y011735D01*
X015266Y012240D02*
X015086Y012060D01*
X014066Y012060D01*
X014006Y012120D01*
X014006Y012240D01*
X013706Y012540D01*
X010166Y012540D01*
X010046Y012420D01*
X009686Y011760D02*
X009817Y011629D01*
X009686Y011760D02*
X009184Y011760D01*
X009156Y011788D01*
X008142Y012288D02*
X008069Y012361D01*
X007526Y010080D02*
X007406Y010020D01*
X007526Y010080D02*
X011186Y010080D01*
X011246Y010020D01*
X010946Y009780D02*
X011126Y009600D01*
X011426Y009600D01*
X011846Y010020D01*
X011906Y010020D01*
X011786Y009720D02*
X011440Y009374D01*
X011440Y008453D01*
X011754Y008453D02*
X011754Y009209D01*
X011906Y009360D01*
X011786Y009720D02*
X014006Y009720D01*
X014224Y009502D01*
X014224Y008903D01*
X015006Y009967D02*
X015006Y007690D01*
X014520Y007204D01*
X013431Y005975D02*
X013586Y005820D01*
X013586Y005460D01*
X013886Y005160D01*
X015866Y005160D01*
X016106Y005400D01*
X016106Y009224D01*
X016617Y009735D01*
X015617Y010735D02*
X014971Y010735D01*
X012866Y010860D02*
X012746Y010740D01*
X010826Y010740D01*
X010946Y009780D02*
X008786Y009780D01*
X008446Y009480D02*
X008282Y009644D01*
X008446Y009480D02*
X010226Y009480D01*
X010810Y008896D01*
X010810Y008453D01*
X011125Y008453D02*
X011125Y009121D01*
X010826Y009420D01*
X010495Y008851D02*
X010046Y009300D01*
X007809Y009300D01*
X007559Y009550D01*
X006860Y009120D02*
X006589Y008849D01*
X006589Y008003D01*
X007085Y007507D01*
X007983Y006609D01*
X008193Y006609D01*
X007821Y005975D02*
X009277Y005975D01*
X009277Y005660D02*
X008926Y005660D01*
X008846Y005580D01*
X008846Y005242D01*
X009014Y005074D01*
X009806Y004680D02*
X006686Y004680D01*
X006506Y004680D01*
X006326Y004860D01*
X005546Y004860D01*
X005486Y004920D01*
X005486Y005160D01*
X005246Y005400D01*
X003866Y005400D01*
X003686Y005580D01*
X003686Y006180D02*
X003626Y006240D01*
X002366Y006240D01*
X002126Y006480D01*
X002126Y012060D01*
X002306Y012240D01*
X002966Y012240D01*
X003926Y009240D02*
X003926Y007560D01*
X004046Y007440D01*
X005426Y007440D01*
X005786Y007080D01*
X005786Y006654D01*
X005831Y006609D01*
X006618Y006609D01*
X006955Y006149D02*
X007406Y006600D01*
X006955Y006149D02*
X006955Y006015D01*
X007046Y005640D02*
X006052Y005640D01*
X005786Y005906D01*
X005786Y005160D02*
X005906Y005160D01*
X005786Y005160D02*
X005037Y005908D01*
X004754Y005908D01*
X004786Y005940D01*
X004754Y004908D02*
X005118Y004544D01*
X006095Y004544D01*
X005846Y004020D02*
X005066Y003240D01*
X002163Y003240D01*
X002132Y003271D01*
X003841Y004452D02*
X003913Y004380D01*
X005426Y004380D01*
X005606Y004200D01*
X010166Y004200D01*
X010495Y004529D01*
X010495Y005073D01*
X010810Y005073D02*
X010810Y004544D01*
X010286Y004020D01*
X005846Y004020D01*
X006296Y003840D02*
X005762Y003306D01*
X005762Y003288D01*
X006350Y003288D02*
X006722Y003660D01*
X010646Y003660D01*
X011440Y004454D01*
X011440Y005073D01*
X011754Y005073D02*
X011754Y004409D01*
X010826Y003480D01*
X007130Y003480D01*
X006938Y003288D01*
X007246Y002660D02*
X006164Y001578D01*
X006164Y001361D01*
X007172Y002003D02*
X007471Y002302D01*
X011817Y002302D01*
X012069Y002050D01*
X012069Y001361D01*
X011479Y003371D02*
X011479Y003833D01*
X012069Y004424D01*
X012069Y005073D01*
X012657Y005660D02*
X013145Y005660D01*
X013226Y005580D01*
X013226Y005364D01*
X012857Y004995D01*
X012857Y004330D01*
X012668Y004141D01*
X013715Y004708D02*
X013731Y004692D01*
X014770Y004692D01*
X015223Y004239D01*
X016022Y004239D01*
X016125Y004341D01*
X016125Y005062D01*
X016617Y005554D01*
X014606Y003060D02*
X014546Y003000D01*
X008006Y003000D01*
X007886Y003120D01*
X008298Y002660D02*
X007246Y002660D01*
X006296Y003840D02*
X010466Y003840D01*
X011125Y004499D01*
X011125Y005073D01*
X010487Y005889D02*
X010495Y005897D01*
X010495Y006082D01*
X010443Y006133D01*
X010251Y006133D01*
X010180Y006062D01*
X010180Y005073D01*
X009865Y005073D02*
X009865Y004739D01*
X009806Y004680D01*
X008193Y005271D02*
X007535Y005271D01*
X007406Y005280D01*
X007046Y005640D01*
X006085Y007507D02*
X005659Y007507D01*
X005546Y007620D01*
X005546Y008580D01*
X005246Y008880D01*
X004783Y008880D01*
X004754Y008908D01*
X006860Y009120D02*
X009866Y009120D01*
X010180Y008806D01*
X010180Y008453D01*
X009865Y008453D02*
X009865Y008790D01*
X009715Y008940D01*
X008518Y008940D01*
X008085Y008507D01*
X008546Y007980D02*
X007612Y007980D01*
X007085Y008507D01*
X008085Y007507D02*
X008128Y007550D01*
X009277Y007550D01*
X009277Y007865D02*
X008661Y007865D01*
X008546Y007980D01*
X010495Y008453D02*
X010495Y008851D01*
X012069Y008864D02*
X012069Y008453D01*
X012069Y008864D02*
X012206Y009000D01*
X012626Y009000D01*
X011666Y011880D02*
X010706Y011880D01*
X010646Y011940D01*
X011292Y015306D02*
X011995Y015306D01*
X012251Y015562D01*
X012416Y015995D02*
X011999Y015995D01*
X011817Y015814D01*
X011300Y015814D01*
X011292Y016306D02*
X010691Y016306D01*
X010314Y016684D01*
X010314Y017208D01*
X009951Y017570D01*
X007219Y017570D01*
X006178Y016288D02*
X006266Y016200D01*
X006178Y016288D02*
X005534Y016288D01*
X005548Y015774D02*
X006451Y015774D01*
X006506Y015720D01*
X012416Y015995D02*
X012774Y015637D01*
X012657Y005975D02*
X013431Y005975D01*
D33*
X012518Y012900D02*
X009866Y012900D01*
X009754Y012788D01*
X009156Y012788D01*
X009156Y015288D02*
X010217Y015288D01*
X010294Y015365D01*
X012518Y012900D02*
X012920Y013302D01*
X014038Y018684D02*
X013160Y019511D01*
X011089Y019511D01*
X011089Y019282D01*
X011101Y019156D01*
X011089Y019511D02*
X008951Y019511D01*
X009109Y019353D01*
X009109Y019156D01*
X008951Y019511D02*
X007152Y019511D01*
X007152Y019156D01*
X007152Y019511D02*
X001904Y019511D01*
X001617Y019223D01*
X001617Y017735D01*
X002136Y018216D02*
X002136Y018782D01*
X002136Y018216D02*
X002617Y017735D01*
X002736Y018782D02*
X004097Y018782D01*
X004193Y017170D02*
X003967Y016944D01*
X003967Y016188D01*
X005534Y015288D02*
X007280Y015288D01*
X007365Y015373D01*
X005534Y012788D02*
X004819Y012788D01*
X004739Y012869D01*
X005075Y011788D02*
X005534Y011788D01*
X004947Y011660D02*
X004947Y011385D01*
X004613Y011385D01*
X004550Y011322D01*
X004947Y011385D02*
X004947Y010440D01*
X004947Y010192D01*
X004715Y009960D01*
X003825Y010089D02*
X003353Y010089D01*
X003191Y010251D01*
D34*
X004180Y013857D02*
X004180Y014109D01*
X004180Y014353D01*
X005528Y014353D01*
X005534Y014288D01*
X005532Y013857D02*
X004180Y013857D01*
X005532Y013857D02*
X005534Y013788D01*
X004274Y017089D02*
X009802Y017089D01*
X009880Y017011D02*
X009880Y016467D01*
X009701Y016288D01*
X009156Y016288D01*
X004128Y017235D02*
X004128Y018617D01*
X002617Y016735D02*
X001617Y017735D01*
D35*
X005534Y014180D02*
X005546Y014180D01*
X005534Y013859D02*
X005546Y013680D01*
D36*
X008786Y009780D03*
X005906Y005160D03*
M02*
