G75*
%MOIN*%
%OFA0B0*%
%FSLAX24Y24*%
%IPPOS*%
%LPD*%
%AMOC8*
5,1,8,0,0,1.08239X$1,22.5*
%
%ADD10C,0.0160*%
%ADD11R,0.0560X0.0280*%
%ADD12R,0.0280X0.0560*%
%ADD13OC8,0.0660*%
%ADD14OC8,0.1310*%
%ADD15R,0.0532X0.0532*%
%ADD16C,0.0660*%
%ADD17C,0.0600*%
%ADD18OC8,0.0600*%
%ADD19R,0.0560X0.1060*%
%ADD20R,0.1060X0.0560*%
%ADD21R,0.0520X0.0690*%
%ADD22R,0.0060X0.0720*%
%ADD23R,0.0926X0.0296*%
%ADD24R,0.0572X0.0651*%
%ADD25R,0.0860X0.0320*%
%ADD26R,0.1123X0.0690*%
%ADD27C,0.0660*%
%ADD28OC8,0.0820*%
%ADD29R,0.0690X0.0520*%
%ADD30R,0.0720X0.0060*%
%ADD31R,0.0847X0.0493*%
%ADD32R,0.0651X0.0572*%
%ADD33C,0.0436*%
%ADD34C,0.0397*%
D10*
X001046Y000180D02*
X017188Y000180D01*
X017188Y019865D01*
X001046Y019865D01*
X001046Y000180D01*
D11*
X009277Y005660D03*
X009277Y005975D03*
X009277Y006290D03*
X009277Y006605D03*
X009277Y006920D03*
X009277Y007235D03*
X009277Y007550D03*
X009277Y007865D03*
X012657Y007865D03*
X012657Y007550D03*
X012657Y007235D03*
X012657Y006920D03*
X012657Y006605D03*
X012657Y006290D03*
X012657Y005975D03*
X012657Y005660D03*
D12*
X012069Y005073D03*
X011754Y005073D03*
X011440Y005073D03*
X011125Y005073D03*
X010810Y005073D03*
X010495Y005073D03*
X010180Y005073D03*
X009865Y005073D03*
X009865Y008453D03*
X010180Y008453D03*
X010495Y008453D03*
X010810Y008453D03*
X011125Y008453D03*
X011440Y008453D03*
X011754Y008453D03*
X012069Y008453D03*
D13*
X008085Y008507D03*
X008085Y007507D03*
X007085Y007507D03*
X007085Y008507D03*
X006085Y008507D03*
X006085Y007507D03*
D14*
X006169Y009771D03*
X006164Y001361D03*
X008132Y001361D03*
X010101Y001361D03*
X012069Y001361D03*
X014038Y001361D03*
X013983Y003751D03*
X004195Y001361D03*
X004195Y018684D03*
X006164Y018684D03*
X008132Y018684D03*
X010101Y018684D03*
X012069Y018684D03*
X014038Y018684D03*
D15*
X007782Y006015D03*
X006955Y006015D03*
D16*
X005054Y005908D02*
X004454Y005908D01*
X004454Y004908D02*
X005054Y004908D01*
X005054Y003908D02*
X004454Y003908D01*
X004454Y006908D02*
X005054Y006908D01*
X005054Y007908D02*
X004454Y007908D01*
X004454Y008908D02*
X005054Y008908D01*
D17*
X001617Y000735D03*
X015617Y000735D03*
D18*
X016617Y000735D03*
X016617Y001735D03*
X016617Y002735D03*
X016617Y003735D03*
X016617Y004735D03*
X016617Y005735D03*
X016617Y006735D03*
X016617Y007735D03*
X016617Y008735D03*
X016617Y009735D03*
X016617Y010735D03*
X016617Y011735D03*
X016617Y012735D03*
X016617Y013735D03*
X016617Y014735D03*
X016617Y015735D03*
X016617Y016735D03*
X016617Y017735D03*
X015617Y017735D03*
X015617Y016735D03*
X015617Y015735D03*
X015617Y014735D03*
X015617Y013735D03*
X015617Y012735D03*
X015617Y011735D03*
X015617Y010735D03*
X015617Y009735D03*
X015617Y008735D03*
X015617Y007735D03*
X015617Y006735D03*
X015617Y005735D03*
X015617Y004735D03*
X015617Y003735D03*
X015617Y002735D03*
X015617Y001735D03*
X002617Y001735D03*
X002617Y000735D03*
X001617Y001735D03*
X001617Y002735D03*
X001617Y003735D03*
X001617Y004735D03*
X001617Y005735D03*
X001617Y006735D03*
X001617Y007735D03*
X001617Y008735D03*
X001617Y009735D03*
X001617Y010735D03*
X001617Y011735D03*
X001617Y012735D03*
X001617Y013735D03*
X001617Y014735D03*
X001617Y015735D03*
X001617Y016735D03*
X001617Y017735D03*
X002617Y017735D03*
X002617Y016735D03*
X002617Y015735D03*
X002617Y014735D03*
X002617Y013735D03*
X002617Y012735D03*
X002617Y011735D03*
X002617Y010735D03*
X002617Y009735D03*
X002617Y008735D03*
X002617Y007735D03*
X002617Y006735D03*
X002617Y005735D03*
X002617Y004735D03*
X002617Y003735D03*
X002617Y002735D03*
D19*
X014224Y008903D03*
D20*
X012857Y004995D03*
D21*
X012683Y011792D03*
X013283Y011792D03*
X004425Y010089D03*
X003825Y010089D03*
X002736Y018782D03*
X002136Y018782D03*
D22*
X002436Y018782D03*
X004125Y010089D03*
X012983Y011792D03*
D23*
X009156Y011788D03*
X009156Y012288D03*
X009156Y012788D03*
X009156Y013288D03*
X009156Y013788D03*
X009156Y014288D03*
X009156Y014788D03*
X009156Y015288D03*
X009156Y015788D03*
X009156Y016288D03*
X005534Y016288D03*
X005534Y015788D03*
X005534Y015288D03*
X005534Y014788D03*
X005534Y014288D03*
X005534Y013788D03*
X005534Y013288D03*
X005534Y012788D03*
X005534Y012288D03*
X005534Y011788D03*
D24*
X004550Y011322D03*
X003802Y011322D03*
X015558Y018889D03*
X016306Y018889D03*
D25*
X013712Y016306D03*
X013712Y015806D03*
X013712Y015306D03*
X013712Y014806D03*
X013712Y014306D03*
X013712Y013806D03*
X013712Y013306D03*
X011292Y013306D03*
X011292Y013806D03*
X011292Y014306D03*
X011292Y014806D03*
X011292Y015306D03*
X011292Y015806D03*
X011292Y016306D03*
D26*
X003967Y016188D03*
X003967Y015086D03*
D27*
X014144Y007696D03*
X014144Y006696D03*
X014144Y005696D03*
D28*
X014144Y010633D03*
D29*
X003686Y006180D03*
X003686Y005580D03*
D30*
X003686Y005880D03*
D31*
X006618Y005271D03*
X006618Y006609D03*
X008193Y006609D03*
X008193Y005271D03*
D32*
X005786Y005906D03*
X005786Y006654D03*
D33*
X007406Y006600D03*
X007406Y005280D03*
X006686Y004680D03*
X006095Y004544D03*
X006350Y003288D03*
X006938Y003288D03*
X007886Y003120D03*
X008298Y002660D03*
X008904Y002656D03*
X007172Y001979D03*
X005762Y003288D03*
X003841Y004452D03*
X002132Y003271D03*
X007559Y009550D03*
X007406Y010020D03*
X007526Y010860D03*
X007106Y011220D03*
X006146Y010920D03*
X006746Y012288D03*
X008069Y012361D03*
X009266Y010860D03*
X008282Y009644D03*
X010646Y011940D03*
X011366Y012180D03*
X011932Y011629D03*
X012866Y010860D03*
X013315Y010831D03*
X014369Y009928D03*
X015278Y011239D03*
X015266Y012240D03*
X014341Y012495D03*
X012920Y013302D03*
X012774Y015637D03*
X012251Y015562D03*
X010294Y015365D03*
X008400Y015912D03*
X007365Y015373D03*
X006942Y015912D03*
X006506Y015720D03*
X006266Y016200D03*
X007219Y017570D03*
X007152Y019156D03*
X009109Y019156D03*
X011101Y019156D03*
X014432Y015893D03*
X010046Y012420D03*
X010826Y010740D03*
X011246Y010020D03*
X010826Y009420D03*
X011906Y009360D03*
X011906Y010020D03*
X012626Y009000D03*
X013058Y008652D03*
X014520Y007204D03*
X014532Y006208D03*
X013715Y004708D03*
X012668Y004141D03*
X011479Y003371D03*
X010487Y005889D03*
X009014Y005074D03*
X014606Y003060D03*
X016136Y003310D03*
X004778Y015660D03*
X003877Y013156D03*
X004310Y012656D03*
X004739Y012869D03*
X004706Y012000D03*
X002966Y012240D03*
X003191Y010251D03*
D34*
X005906Y005160D03*
X008786Y009780D03*
M02*
