G75*
%MOIN*%
%OFA0B0*%
%FSLAX24Y24*%
%IPPOS*%
%LPD*%
%AMOC8*
5,1,8,0,0,1.08239X$1,22.5*
%
%ADD10C,0.0160*%
%ADD11C,0.0060*%
%ADD12C,0.0010*%
%ADD13C,0.0050*%
%ADD14R,0.0118X0.0059*%
%ADD15R,0.0118X0.0118*%
%ADD16C,0.0040*%
%ADD17C,0.0020*%
D10*
X001046Y000180D02*
X017188Y000180D01*
X017188Y019865D01*
X001046Y019865D01*
X001046Y000180D01*
X003211Y000180D02*
X003211Y003330D01*
X003211Y000180D02*
X015022Y000180D01*
X015022Y003330D01*
X015022Y016715D02*
X003211Y016715D01*
X003211Y019865D01*
X015022Y019865D01*
X015022Y016715D01*
D11*
X014917Y017985D02*
X014917Y000485D01*
X014638Y000761D02*
X014438Y000761D01*
X014638Y000761D02*
X014638Y000961D01*
X014917Y000485D02*
X014919Y000455D01*
X014924Y000425D01*
X014933Y000396D01*
X014946Y000369D01*
X014961Y000343D01*
X014980Y000319D01*
X015001Y000298D01*
X015025Y000279D01*
X015051Y000264D01*
X015078Y000251D01*
X015107Y000242D01*
X015137Y000237D01*
X015167Y000235D01*
X017067Y000235D01*
X017097Y000237D01*
X017127Y000242D01*
X017156Y000251D01*
X017183Y000264D01*
X017209Y000279D01*
X017233Y000298D01*
X017254Y000319D01*
X017273Y000343D01*
X017288Y000369D01*
X017301Y000396D01*
X017310Y000425D01*
X017315Y000455D01*
X017317Y000485D01*
X017317Y017985D01*
X017315Y018015D01*
X017310Y018045D01*
X017301Y018074D01*
X017288Y018101D01*
X017273Y018127D01*
X017254Y018151D01*
X017233Y018172D01*
X017209Y018191D01*
X017183Y018206D01*
X017156Y018219D01*
X017127Y018228D01*
X017097Y018233D01*
X017067Y018235D01*
X015167Y018235D01*
X015137Y018233D01*
X015107Y018228D01*
X015078Y018219D01*
X015051Y018206D01*
X015025Y018191D01*
X015001Y018172D01*
X014980Y018151D01*
X014961Y018127D01*
X014946Y018101D01*
X014933Y018074D01*
X014924Y018045D01*
X014919Y018015D01*
X014917Y017985D01*
X014638Y018084D02*
X014638Y018284D01*
X014638Y018084D02*
X014438Y018084D01*
X013638Y018084D02*
X013438Y018084D01*
X013438Y018284D01*
X012669Y018284D02*
X012669Y018084D01*
X012469Y018084D01*
X011669Y018084D02*
X011469Y018084D01*
X011469Y018284D01*
X010701Y018284D02*
X010701Y018084D01*
X010501Y018084D01*
X009701Y018084D02*
X009501Y018084D01*
X009501Y018284D01*
X009501Y019084D02*
X009501Y019284D01*
X009701Y019284D01*
X010501Y019284D02*
X010701Y019284D01*
X010701Y019084D01*
X011469Y019084D02*
X011469Y019284D01*
X011669Y019284D01*
X012469Y019284D02*
X012669Y019284D01*
X012669Y019084D01*
X013438Y019084D02*
X013438Y019284D01*
X013638Y019284D01*
X014438Y019284D02*
X014638Y019284D01*
X014638Y019084D01*
X013122Y016556D02*
X012702Y016556D01*
X012302Y016556D01*
X011882Y016556D01*
X011859Y016554D01*
X011836Y016549D01*
X011814Y016540D01*
X011794Y016527D01*
X011776Y016512D01*
X011761Y016494D01*
X011748Y016474D01*
X011739Y016452D01*
X011734Y016429D01*
X011732Y016406D01*
X012302Y016556D02*
X012304Y016529D01*
X012309Y016502D01*
X012319Y016476D01*
X012331Y016452D01*
X012347Y016430D01*
X012365Y016410D01*
X012387Y016393D01*
X012410Y016378D01*
X012435Y016368D01*
X012461Y016360D01*
X012488Y016356D01*
X012516Y016356D01*
X012543Y016360D01*
X012569Y016368D01*
X012594Y016378D01*
X012617Y016393D01*
X012639Y016410D01*
X012657Y016430D01*
X012673Y016452D01*
X012685Y016476D01*
X012695Y016502D01*
X012700Y016529D01*
X012702Y016556D01*
X013122Y016556D02*
X013145Y016554D01*
X013168Y016549D01*
X013190Y016540D01*
X013210Y016527D01*
X013228Y016512D01*
X013243Y016494D01*
X013256Y016474D01*
X013265Y016452D01*
X013270Y016429D01*
X013272Y016406D01*
X013272Y013206D02*
X013270Y013183D01*
X013265Y013160D01*
X013256Y013138D01*
X013243Y013118D01*
X013228Y013100D01*
X013210Y013085D01*
X013190Y013072D01*
X013168Y013063D01*
X013145Y013058D01*
X013122Y013056D01*
X011882Y013056D01*
X011859Y013058D01*
X011836Y013063D01*
X011814Y013072D01*
X011794Y013085D01*
X011776Y013100D01*
X011761Y013118D01*
X011748Y013138D01*
X011739Y013160D01*
X011734Y013183D01*
X011732Y013206D01*
X012433Y012192D02*
X013533Y012192D01*
X013550Y012190D01*
X013567Y012186D01*
X013583Y012179D01*
X013597Y012169D01*
X013610Y012156D01*
X013620Y012142D01*
X013627Y012126D01*
X013631Y012109D01*
X013633Y012092D01*
X013633Y011492D01*
X013631Y011475D01*
X013627Y011458D01*
X013620Y011442D01*
X013610Y011428D01*
X013597Y011415D01*
X013583Y011405D01*
X013567Y011398D01*
X013550Y011394D01*
X013533Y011392D01*
X012433Y011392D01*
X012416Y011394D01*
X012399Y011398D01*
X012383Y011405D01*
X012369Y011415D01*
X012356Y011428D01*
X012346Y011442D01*
X012339Y011458D01*
X012335Y011475D01*
X012333Y011492D01*
X012333Y012092D01*
X012335Y012109D01*
X012339Y012126D01*
X012346Y012142D01*
X012356Y012156D01*
X012369Y012169D01*
X012383Y012179D01*
X012399Y012186D01*
X012416Y012190D01*
X012433Y012192D01*
X013644Y010883D02*
X013894Y011133D01*
X014394Y011133D01*
X014644Y010883D01*
X014644Y010383D01*
X014394Y010133D01*
X013894Y010133D01*
X013644Y010383D01*
X013644Y010883D01*
X013894Y008196D02*
X014394Y008196D01*
X014644Y007946D01*
X014644Y007446D01*
X014394Y007196D01*
X014644Y006946D01*
X014644Y006446D01*
X014394Y006196D01*
X014644Y005946D01*
X014644Y005446D01*
X014394Y005196D01*
X013894Y005196D01*
X013644Y005446D01*
X013644Y005946D01*
X013894Y006196D01*
X013644Y006446D01*
X013644Y006946D01*
X013894Y007196D01*
X013644Y007446D01*
X013644Y007946D01*
X013894Y008196D01*
X013894Y007196D02*
X014394Y007196D01*
X014394Y006196D02*
X013894Y006196D01*
X012347Y005523D02*
X012207Y005383D01*
X009587Y005383D01*
X009587Y008143D01*
X012347Y008143D01*
X012347Y005523D01*
X011906Y005683D02*
X011908Y005706D01*
X011914Y005729D01*
X011923Y005750D01*
X011936Y005770D01*
X011952Y005787D01*
X011970Y005801D01*
X011990Y005812D01*
X012012Y005820D01*
X012035Y005824D01*
X012059Y005824D01*
X012082Y005820D01*
X012104Y005812D01*
X012124Y005801D01*
X012142Y005787D01*
X012158Y005770D01*
X012171Y005750D01*
X012180Y005729D01*
X012186Y005706D01*
X012188Y005683D01*
X012186Y005660D01*
X012180Y005637D01*
X012171Y005616D01*
X012158Y005596D01*
X012142Y005579D01*
X012124Y005565D01*
X012104Y005554D01*
X012082Y005546D01*
X012059Y005542D01*
X012035Y005542D01*
X012012Y005546D01*
X011990Y005554D01*
X011970Y005565D01*
X011952Y005579D01*
X011936Y005596D01*
X011923Y005616D01*
X011914Y005637D01*
X011908Y005660D01*
X011906Y005683D01*
X013383Y004351D02*
X013383Y004151D01*
X013383Y004351D02*
X013583Y004351D01*
X014383Y004351D02*
X014583Y004351D01*
X014583Y004151D01*
X014583Y003351D02*
X014583Y003151D01*
X014383Y003151D01*
X013583Y003151D02*
X013383Y003151D01*
X013383Y003351D01*
X013438Y001961D02*
X013638Y001961D01*
X013438Y001961D02*
X013438Y001761D01*
X012669Y001761D02*
X012669Y001961D01*
X012469Y001961D01*
X011669Y001961D02*
X011469Y001961D01*
X011469Y001761D01*
X010701Y001761D02*
X010701Y001961D01*
X010501Y001961D01*
X009701Y001961D02*
X009501Y001961D01*
X009501Y001761D01*
X009501Y000961D02*
X009501Y000761D01*
X009701Y000761D01*
X010501Y000761D02*
X010701Y000761D01*
X010701Y000961D01*
X011469Y000961D02*
X011469Y000761D01*
X011669Y000761D01*
X012469Y000761D02*
X012669Y000761D01*
X012669Y000961D01*
X013438Y000961D02*
X013438Y000761D01*
X013638Y000761D01*
X014638Y001761D02*
X014638Y001961D01*
X014438Y001961D01*
X008732Y001961D02*
X008732Y001761D01*
X008732Y001961D02*
X008532Y001961D01*
X007732Y001961D02*
X007532Y001961D01*
X007532Y001761D01*
X006764Y001761D02*
X006764Y001961D01*
X006564Y001961D01*
X005764Y001961D02*
X005564Y001961D01*
X005564Y001761D01*
X004795Y001761D02*
X004795Y001961D01*
X004595Y001961D01*
X003795Y001961D02*
X003595Y001961D01*
X003595Y001761D01*
X003595Y000961D02*
X003595Y000761D01*
X003795Y000761D01*
X003317Y000485D02*
X003317Y017985D01*
X003595Y018084D02*
X003595Y018284D01*
X003595Y018084D02*
X003795Y018084D01*
X003317Y017985D02*
X003315Y018015D01*
X003310Y018045D01*
X003301Y018074D01*
X003288Y018101D01*
X003273Y018127D01*
X003254Y018151D01*
X003233Y018172D01*
X003209Y018191D01*
X003183Y018206D01*
X003156Y018219D01*
X003127Y018228D01*
X003097Y018233D01*
X003067Y018235D01*
X001167Y018235D01*
X001137Y018233D01*
X001107Y018228D01*
X001078Y018219D01*
X001051Y018206D01*
X001025Y018191D01*
X001001Y018172D01*
X000980Y018151D01*
X000961Y018127D01*
X000946Y018101D01*
X000933Y018074D01*
X000924Y018045D01*
X000919Y018015D01*
X000917Y017985D01*
X000917Y000485D01*
X000919Y000455D01*
X000924Y000425D01*
X000933Y000396D01*
X000946Y000369D01*
X000961Y000343D01*
X000980Y000319D01*
X001001Y000298D01*
X001025Y000279D01*
X001051Y000264D01*
X001078Y000251D01*
X001107Y000242D01*
X001137Y000237D01*
X001167Y000235D01*
X003067Y000235D01*
X003097Y000237D01*
X003127Y000242D01*
X003156Y000251D01*
X003183Y000264D01*
X003209Y000279D01*
X003233Y000298D01*
X003254Y000319D01*
X003273Y000343D01*
X003288Y000369D01*
X003301Y000396D01*
X003310Y000425D01*
X003315Y000455D01*
X003317Y000485D01*
X004595Y000761D02*
X004795Y000761D01*
X004795Y000961D01*
X005564Y000961D02*
X005564Y000761D01*
X005764Y000761D01*
X006564Y000761D02*
X006764Y000761D01*
X006764Y000961D01*
X007532Y000961D02*
X007532Y000761D01*
X007732Y000761D01*
X008532Y000761D02*
X008732Y000761D01*
X008732Y000961D01*
X005254Y003658D02*
X005004Y003408D01*
X004504Y003408D01*
X004254Y003658D01*
X004254Y004158D01*
X004504Y004408D01*
X004254Y004658D01*
X004254Y005158D01*
X004504Y005408D01*
X004254Y005658D01*
X004254Y006158D01*
X004504Y006408D01*
X004254Y006658D01*
X004254Y007158D01*
X004504Y007408D01*
X004254Y007658D01*
X004254Y008158D01*
X004504Y008408D01*
X004254Y008658D01*
X004254Y009158D01*
X004504Y009408D01*
X005004Y009408D01*
X005254Y009158D01*
X005254Y008658D01*
X005004Y008408D01*
X005254Y008158D01*
X005254Y007658D01*
X005004Y007408D01*
X005254Y007158D01*
X005254Y006658D01*
X005004Y006408D01*
X005254Y006158D01*
X005254Y005658D01*
X005004Y005408D01*
X005254Y005158D01*
X005254Y004658D01*
X005004Y004408D01*
X005254Y004158D01*
X005254Y003658D01*
X003986Y005230D02*
X003386Y005230D01*
X003369Y005232D01*
X003352Y005236D01*
X003336Y005243D01*
X003322Y005253D01*
X003309Y005266D01*
X003299Y005280D01*
X003292Y005296D01*
X003288Y005313D01*
X003286Y005330D01*
X003286Y006430D01*
X003288Y006447D01*
X003292Y006464D01*
X003299Y006480D01*
X003309Y006494D01*
X003322Y006507D01*
X003336Y006517D01*
X003352Y006524D01*
X003369Y006528D01*
X003386Y006530D01*
X003986Y006530D01*
X004003Y006528D01*
X004020Y006524D01*
X004036Y006517D01*
X004050Y006507D01*
X004063Y006494D01*
X004073Y006480D01*
X004080Y006464D01*
X004084Y006447D01*
X004086Y006430D01*
X004086Y005330D01*
X004084Y005313D01*
X004080Y005296D01*
X004073Y005280D01*
X004063Y005266D01*
X004050Y005253D01*
X004036Y005243D01*
X004020Y005236D01*
X004003Y005232D01*
X003986Y005230D01*
X005835Y007007D02*
X005585Y007257D01*
X005585Y008757D01*
X005835Y009007D01*
X006335Y009007D01*
X006585Y008757D01*
X006585Y007257D01*
X006335Y007007D01*
X005835Y007007D01*
X006585Y007257D02*
X006835Y007007D01*
X007335Y007007D01*
X007585Y007257D01*
X007585Y008757D01*
X007335Y009007D01*
X006835Y009007D01*
X006585Y008757D01*
X006569Y009171D02*
X006769Y009171D01*
X006769Y009371D01*
X006769Y010171D02*
X006769Y010371D01*
X006569Y010371D01*
X005769Y010371D02*
X005569Y010371D01*
X005569Y010171D01*
X005569Y009371D02*
X005569Y009171D01*
X005769Y009171D01*
X004775Y009789D02*
X004775Y010389D01*
X004773Y010406D01*
X004769Y010423D01*
X004762Y010439D01*
X004752Y010453D01*
X004739Y010466D01*
X004725Y010476D01*
X004709Y010483D01*
X004692Y010487D01*
X004675Y010489D01*
X003575Y010489D01*
X003558Y010487D01*
X003541Y010483D01*
X003525Y010476D01*
X003511Y010466D01*
X003498Y010453D01*
X003488Y010439D01*
X003481Y010423D01*
X003477Y010406D01*
X003475Y010389D01*
X003475Y009789D01*
X003477Y009772D01*
X003481Y009755D01*
X003488Y009739D01*
X003498Y009725D01*
X003511Y009712D01*
X003525Y009702D01*
X003541Y009695D01*
X003558Y009691D01*
X003575Y009689D01*
X004675Y009689D01*
X004692Y009691D01*
X004709Y009695D01*
X004725Y009702D01*
X004739Y009712D01*
X004752Y009725D01*
X004762Y009739D01*
X004769Y009755D01*
X004773Y009772D01*
X004775Y009789D01*
X007585Y008757D02*
X007835Y009007D01*
X008335Y009007D01*
X008585Y008757D01*
X008585Y007257D01*
X008335Y007007D01*
X007835Y007007D01*
X007585Y007257D01*
X007532Y018084D02*
X007532Y018284D01*
X007532Y018084D02*
X007732Y018084D01*
X008532Y018084D02*
X008732Y018084D01*
X008732Y018284D01*
X008732Y019084D02*
X008732Y019284D01*
X008532Y019284D01*
X007732Y019284D02*
X007532Y019284D01*
X007532Y019084D01*
X006764Y019084D02*
X006764Y019284D01*
X006564Y019284D01*
X005764Y019284D02*
X005564Y019284D01*
X005564Y019084D01*
X004795Y019084D02*
X004795Y019284D01*
X004595Y019284D01*
X003795Y019284D02*
X003595Y019284D01*
X003595Y019084D01*
X003086Y019082D02*
X003086Y018482D01*
X003084Y018465D01*
X003080Y018448D01*
X003073Y018432D01*
X003063Y018418D01*
X003050Y018405D01*
X003036Y018395D01*
X003020Y018388D01*
X003003Y018384D01*
X002986Y018382D01*
X001886Y018382D01*
X001869Y018384D01*
X001852Y018388D01*
X001836Y018395D01*
X001822Y018405D01*
X001809Y018418D01*
X001799Y018432D01*
X001792Y018448D01*
X001788Y018465D01*
X001786Y018482D01*
X001786Y019082D01*
X001788Y019099D01*
X001792Y019116D01*
X001799Y019132D01*
X001809Y019146D01*
X001822Y019159D01*
X001836Y019169D01*
X001852Y019176D01*
X001869Y019180D01*
X001886Y019182D01*
X002986Y019182D01*
X003003Y019180D01*
X003020Y019176D01*
X003036Y019169D01*
X003050Y019159D01*
X003063Y019146D01*
X003073Y019132D01*
X003080Y019116D01*
X003084Y019099D01*
X003086Y019082D01*
X004595Y018084D02*
X004795Y018084D01*
X004795Y018284D01*
X005564Y018284D02*
X005564Y018084D01*
X005764Y018084D01*
X006564Y018084D02*
X006764Y018084D01*
X006764Y018284D01*
D12*
X011927Y004758D02*
X011927Y004633D01*
X011952Y004608D01*
X012002Y004608D01*
X012027Y004633D01*
X012027Y004758D01*
X012075Y004708D02*
X012125Y004758D01*
X012125Y004608D01*
X012075Y004608D02*
X012175Y004608D01*
D13*
X000441Y000610D02*
X000291Y000760D01*
X000742Y000760D01*
X000742Y000610D02*
X000742Y000910D01*
X003620Y002136D02*
X003620Y002586D01*
X003846Y002586D01*
X003921Y002511D01*
X003921Y002361D01*
X003846Y002286D01*
X003620Y002286D01*
X004081Y002361D02*
X004381Y002361D01*
X004381Y002436D02*
X004381Y002136D01*
X004541Y002136D02*
X004766Y002136D01*
X004841Y002211D01*
X004841Y002511D01*
X004766Y002586D01*
X004541Y002586D01*
X004541Y002136D01*
X004381Y002436D02*
X004231Y002586D01*
X004081Y002436D01*
X004081Y002136D01*
X005002Y002136D02*
X005302Y002136D01*
X005152Y002136D02*
X005152Y002586D01*
X005002Y002436D01*
X005462Y002586D02*
X005762Y002586D01*
X005762Y002511D01*
X005462Y002211D01*
X005462Y002136D01*
X005589Y002136D02*
X005589Y002586D01*
X005814Y002586D01*
X005889Y002511D01*
X005889Y002361D01*
X005814Y002286D01*
X005589Y002286D01*
X006049Y002361D02*
X006350Y002361D01*
X006350Y002436D02*
X006199Y002586D01*
X006049Y002436D01*
X006049Y002136D01*
X006350Y002136D02*
X006350Y002436D01*
X006510Y002586D02*
X006735Y002586D01*
X006810Y002511D01*
X006810Y002211D01*
X006735Y002136D01*
X006510Y002136D01*
X006510Y002586D01*
X006970Y002511D02*
X006970Y002436D01*
X007045Y002361D01*
X007270Y002361D01*
X007270Y002211D02*
X007270Y002511D01*
X007195Y002586D01*
X007045Y002586D01*
X006970Y002511D01*
X006970Y002211D02*
X007045Y002136D01*
X007195Y002136D01*
X007270Y002211D01*
X007557Y002136D02*
X007557Y002586D01*
X007783Y002586D01*
X007858Y002511D01*
X007858Y002361D01*
X007783Y002286D01*
X007557Y002286D01*
X008018Y002361D02*
X008318Y002361D01*
X008318Y002436D02*
X008168Y002586D01*
X008018Y002436D01*
X008018Y002136D01*
X008318Y002136D02*
X008318Y002436D01*
X008478Y002586D02*
X008703Y002586D01*
X008778Y002511D01*
X008778Y002211D01*
X008703Y002136D01*
X008478Y002136D01*
X008478Y002586D01*
X008939Y002436D02*
X009089Y002586D01*
X009089Y002136D01*
X008939Y002136D02*
X009239Y002136D01*
X009399Y002211D02*
X009399Y002361D01*
X009624Y002361D01*
X009699Y002286D01*
X009699Y002211D01*
X009624Y002136D01*
X009474Y002136D01*
X009399Y002211D01*
X009526Y002136D02*
X009526Y002586D01*
X009751Y002586D01*
X009826Y002511D01*
X009826Y002361D01*
X009751Y002286D01*
X009526Y002286D01*
X009399Y002361D02*
X009549Y002511D01*
X009699Y002586D01*
X009986Y002436D02*
X010136Y002586D01*
X010287Y002436D01*
X010287Y002136D01*
X010447Y002136D02*
X010672Y002136D01*
X010747Y002211D01*
X010747Y002511D01*
X010672Y002586D01*
X010447Y002586D01*
X010447Y002136D01*
X010287Y002361D02*
X009986Y002361D01*
X009986Y002436D02*
X009986Y002136D01*
X010907Y002136D02*
X011207Y002136D01*
X011057Y002136D02*
X011057Y002586D01*
X010907Y002436D01*
X011367Y002361D02*
X011668Y002361D01*
X011720Y002286D02*
X011494Y002286D01*
X011367Y002361D02*
X011593Y002586D01*
X011593Y002136D01*
X011494Y002136D02*
X011494Y002586D01*
X011720Y002586D01*
X011795Y002511D01*
X011795Y002361D01*
X011720Y002286D01*
X011955Y002361D02*
X012255Y002361D01*
X012255Y002436D02*
X012105Y002586D01*
X011955Y002436D01*
X011955Y002136D01*
X012255Y002136D02*
X012255Y002436D01*
X012415Y002586D02*
X012640Y002586D01*
X012715Y002511D01*
X012715Y002211D01*
X012640Y002136D01*
X012415Y002136D01*
X012415Y002586D01*
X012876Y002436D02*
X013026Y002586D01*
X013026Y002136D01*
X012876Y002136D02*
X013176Y002136D01*
X013336Y002211D02*
X013336Y002286D01*
X013411Y002361D01*
X013561Y002361D01*
X013636Y002286D01*
X013636Y002211D01*
X013561Y002136D01*
X013411Y002136D01*
X013336Y002211D01*
X013463Y002136D02*
X013463Y002586D01*
X013688Y002586D01*
X013763Y002511D01*
X013763Y002361D01*
X013688Y002286D01*
X013463Y002286D01*
X013411Y002361D02*
X013336Y002436D01*
X013336Y002511D01*
X013411Y002586D01*
X013561Y002586D01*
X013636Y002511D01*
X013636Y002436D01*
X013561Y002361D01*
X013923Y002361D02*
X014224Y002361D01*
X014224Y002436D02*
X014224Y002136D01*
X014384Y002136D02*
X014609Y002136D01*
X014684Y002211D01*
X014684Y002511D01*
X014609Y002586D01*
X014384Y002586D01*
X014384Y002136D01*
X014224Y002436D02*
X014073Y002586D01*
X013923Y002436D01*
X013923Y002136D01*
X014844Y002136D02*
X014844Y002211D01*
X015144Y002511D01*
X015144Y002586D01*
X014844Y002586D01*
X014742Y000910D02*
X014742Y000610D01*
X014742Y000760D02*
X014291Y000760D01*
X014441Y000610D01*
X008505Y004882D02*
X008507Y004896D01*
X008513Y004910D01*
X008521Y004922D01*
X008533Y004930D01*
X008547Y004936D01*
X008561Y004938D01*
X008575Y004936D01*
X008589Y004930D01*
X008601Y004922D01*
X008609Y004910D01*
X008615Y004896D01*
X008617Y004882D01*
X008615Y004868D01*
X008609Y004854D01*
X008601Y004842D01*
X008589Y004834D01*
X008575Y004828D01*
X008561Y004826D01*
X008547Y004828D01*
X008533Y004834D01*
X008521Y004842D01*
X008513Y004854D01*
X008507Y004868D01*
X008505Y004882D01*
X008390Y004956D02*
X007996Y004956D01*
X008390Y005349D01*
X008390Y004956D01*
X008390Y005349D02*
X008390Y006924D01*
X006422Y006924D01*
X006422Y004956D01*
X007996Y004956D01*
X006579Y005940D02*
X006581Y005997D01*
X006587Y006054D01*
X006597Y006110D01*
X006610Y006166D01*
X006628Y006220D01*
X006649Y006273D01*
X006674Y006324D01*
X006702Y006374D01*
X006734Y006421D01*
X006768Y006467D01*
X006806Y006509D01*
X006847Y006549D01*
X006890Y006587D01*
X006936Y006621D01*
X006984Y006651D01*
X007034Y006679D01*
X007086Y006703D01*
X007140Y006723D01*
X007194Y006739D01*
X007250Y006752D01*
X007306Y006761D01*
X007363Y006766D01*
X007420Y006767D01*
X007477Y006764D01*
X007534Y006757D01*
X007590Y006746D01*
X007645Y006732D01*
X007699Y006713D01*
X007752Y006691D01*
X007803Y006666D01*
X007852Y006636D01*
X007899Y006604D01*
X007944Y006568D01*
X007986Y006530D01*
X008025Y006488D01*
X008061Y006444D01*
X008095Y006398D01*
X008125Y006349D01*
X008151Y006299D01*
X008174Y006247D01*
X008193Y006193D01*
X008209Y006138D01*
X008221Y006082D01*
X008229Y006025D01*
X008233Y005969D01*
X008233Y005911D01*
X008229Y005855D01*
X008221Y005798D01*
X008209Y005742D01*
X008193Y005687D01*
X008174Y005633D01*
X008151Y005581D01*
X008125Y005531D01*
X008095Y005482D01*
X008061Y005436D01*
X008025Y005392D01*
X007986Y005350D01*
X007944Y005312D01*
X007899Y005276D01*
X007852Y005244D01*
X007803Y005214D01*
X007752Y005189D01*
X007699Y005167D01*
X007645Y005148D01*
X007590Y005134D01*
X007534Y005123D01*
X007477Y005116D01*
X007420Y005113D01*
X007363Y005114D01*
X007306Y005119D01*
X007250Y005128D01*
X007194Y005141D01*
X007140Y005157D01*
X007086Y005177D01*
X007034Y005201D01*
X006984Y005229D01*
X006936Y005259D01*
X006890Y005293D01*
X006847Y005331D01*
X006806Y005371D01*
X006768Y005413D01*
X006734Y005459D01*
X006702Y005506D01*
X006674Y005556D01*
X006649Y005607D01*
X006628Y005660D01*
X006610Y005714D01*
X006597Y005770D01*
X006587Y005826D01*
X006581Y005883D01*
X006579Y005940D01*
X005804Y004023D02*
X005729Y004023D01*
X005654Y003948D01*
X005654Y003723D01*
X005804Y003723D01*
X005879Y003798D01*
X005879Y003948D01*
X005804Y004023D01*
X005504Y003873D02*
X005654Y003723D01*
X005504Y003873D02*
X005429Y004023D01*
X004079Y008723D02*
X004079Y009023D01*
X004079Y008873D02*
X003629Y008873D01*
X003779Y008723D01*
X003867Y017410D02*
X003942Y017485D01*
X003942Y017635D01*
X003867Y017710D01*
X003792Y017710D01*
X003716Y017635D01*
X003716Y017560D01*
X003716Y017635D02*
X003641Y017710D01*
X003566Y017710D01*
X003491Y017635D01*
X003491Y017485D01*
X003566Y017410D01*
X003716Y017871D02*
X003716Y018096D01*
X003792Y018171D01*
X003867Y018171D01*
X003942Y018096D01*
X003942Y017946D01*
X003867Y017871D01*
X003716Y017871D01*
X003566Y018021D01*
X003491Y018171D01*
X003620Y019459D02*
X003620Y019909D01*
X003846Y019909D01*
X003921Y019834D01*
X003921Y019684D01*
X003846Y019609D01*
X003620Y019609D01*
X004081Y019684D02*
X004381Y019684D01*
X004381Y019759D02*
X004381Y019459D01*
X004541Y019459D02*
X004766Y019459D01*
X004841Y019534D01*
X004841Y019834D01*
X004766Y019909D01*
X004541Y019909D01*
X004541Y019459D01*
X004381Y019759D02*
X004231Y019909D01*
X004081Y019759D01*
X004081Y019459D01*
X005002Y019459D02*
X005302Y019759D01*
X005302Y019834D01*
X005227Y019909D01*
X005077Y019909D01*
X005002Y019834D01*
X005002Y019459D02*
X005302Y019459D01*
X005589Y019459D02*
X005589Y019909D01*
X005814Y019909D01*
X005889Y019834D01*
X005889Y019684D01*
X005814Y019609D01*
X005589Y019609D01*
X006049Y019684D02*
X006350Y019684D01*
X006350Y019759D02*
X006350Y019459D01*
X006510Y019459D02*
X006735Y019459D01*
X006810Y019534D01*
X006810Y019834D01*
X006735Y019909D01*
X006510Y019909D01*
X006510Y019459D01*
X006350Y019759D02*
X006199Y019909D01*
X006049Y019759D01*
X006049Y019459D01*
X006970Y019534D02*
X007045Y019459D01*
X007195Y019459D01*
X007270Y019534D01*
X007270Y019609D01*
X007195Y019684D01*
X007120Y019684D01*
X007195Y019684D02*
X007270Y019759D01*
X007270Y019834D01*
X007195Y019909D01*
X007045Y019909D01*
X006970Y019834D01*
X007557Y019909D02*
X007557Y019459D01*
X007557Y019609D02*
X007783Y019609D01*
X007858Y019684D01*
X007858Y019834D01*
X007783Y019909D01*
X007557Y019909D01*
X008018Y019759D02*
X008018Y019459D01*
X008018Y019684D02*
X008318Y019684D01*
X008318Y019759D02*
X008318Y019459D01*
X008478Y019459D02*
X008703Y019459D01*
X008778Y019534D01*
X008778Y019834D01*
X008703Y019909D01*
X008478Y019909D01*
X008478Y019459D01*
X008318Y019759D02*
X008168Y019909D01*
X008018Y019759D01*
X008939Y019684D02*
X009239Y019684D01*
X009164Y019459D02*
X009164Y019909D01*
X008939Y019684D01*
X009526Y019609D02*
X009751Y019609D01*
X009826Y019684D01*
X009826Y019834D01*
X009751Y019909D01*
X009526Y019909D01*
X009526Y019459D01*
X009986Y019459D02*
X009986Y019759D01*
X010136Y019909D01*
X010287Y019759D01*
X010287Y019459D01*
X010447Y019459D02*
X010672Y019459D01*
X010747Y019534D01*
X010747Y019834D01*
X010672Y019909D01*
X010447Y019909D01*
X010447Y019459D01*
X010287Y019684D02*
X009986Y019684D01*
X010907Y019684D02*
X011057Y019759D01*
X011132Y019759D01*
X011207Y019684D01*
X011207Y019534D01*
X011132Y019459D01*
X010982Y019459D01*
X010907Y019534D01*
X010907Y019684D02*
X010907Y019909D01*
X011207Y019909D01*
X011494Y019909D02*
X011720Y019909D01*
X011795Y019834D01*
X011795Y019684D01*
X011720Y019609D01*
X011494Y019609D01*
X011494Y019459D02*
X011494Y019909D01*
X011955Y019759D02*
X011955Y019459D01*
X011955Y019684D02*
X012255Y019684D01*
X012255Y019759D02*
X012255Y019459D01*
X012415Y019459D02*
X012640Y019459D01*
X012715Y019534D01*
X012715Y019834D01*
X012640Y019909D01*
X012415Y019909D01*
X012415Y019459D01*
X012255Y019759D02*
X012105Y019909D01*
X011955Y019759D01*
X012876Y019684D02*
X012876Y019534D01*
X012951Y019459D01*
X013101Y019459D01*
X013176Y019534D01*
X013176Y019609D01*
X013101Y019684D01*
X012876Y019684D01*
X013026Y019834D01*
X013176Y019909D01*
X013463Y019909D02*
X013688Y019909D01*
X013763Y019834D01*
X013763Y019684D01*
X013688Y019609D01*
X013463Y019609D01*
X013463Y019459D02*
X013463Y019909D01*
X013923Y019759D02*
X013923Y019459D01*
X013923Y019684D02*
X014224Y019684D01*
X014224Y019759D02*
X014224Y019459D01*
X014384Y019459D02*
X014609Y019459D01*
X014684Y019534D01*
X014684Y019834D01*
X014609Y019909D01*
X014384Y019909D01*
X014384Y019459D01*
X014224Y019759D02*
X014073Y019909D01*
X013923Y019759D01*
X014844Y019759D02*
X014994Y019909D01*
X014994Y019459D01*
X014844Y019459D02*
X015144Y019459D01*
X012845Y017106D02*
X012770Y017181D01*
X012620Y017181D01*
X012545Y017106D01*
X012385Y017106D02*
X012310Y017181D01*
X012159Y017181D01*
X012084Y017106D01*
X012084Y016806D01*
X012159Y016731D01*
X012310Y016731D01*
X012385Y016806D01*
X012545Y016731D02*
X012845Y017031D01*
X012845Y017106D01*
X012845Y016731D02*
X012545Y016731D01*
X011928Y016731D02*
X011777Y016731D01*
X011853Y016731D02*
X011853Y017181D01*
X011928Y017181D02*
X011777Y017181D01*
X012433Y012718D02*
X012358Y012643D01*
X012358Y012568D01*
X012433Y012492D01*
X012583Y012492D01*
X012658Y012417D01*
X012658Y012342D01*
X012583Y012267D01*
X012433Y012267D01*
X012358Y012342D01*
X012433Y012718D02*
X012583Y012718D01*
X012658Y012643D01*
X012968Y012718D02*
X013118Y012718D01*
X013043Y012718D02*
X013043Y012342D01*
X012968Y012267D01*
X012893Y012267D01*
X012818Y012342D01*
X013279Y012342D02*
X013279Y012417D01*
X013354Y012492D01*
X013504Y012492D01*
X013579Y012417D01*
X013579Y012342D01*
X013504Y012267D01*
X013354Y012267D01*
X013279Y012342D01*
X013354Y012492D02*
X013279Y012568D01*
X013279Y012643D01*
X013354Y012718D01*
X013504Y012718D01*
X013579Y012643D01*
X013579Y012568D01*
X013504Y012492D01*
X017566Y017410D02*
X017491Y017485D01*
X017491Y017635D01*
X017566Y017710D01*
X017641Y017710D01*
X017716Y017635D01*
X017792Y017710D01*
X017867Y017710D01*
X017942Y017635D01*
X017942Y017485D01*
X017867Y017410D01*
X017716Y017560D02*
X017716Y017635D01*
X017716Y017871D02*
X017716Y018096D01*
X017792Y018171D01*
X017867Y018171D01*
X017942Y018096D01*
X017942Y017946D01*
X017867Y017871D01*
X017716Y017871D01*
X017566Y018021D01*
X017491Y018171D01*
D14*
X007310Y006251D03*
X007310Y005778D03*
D15*
X007310Y006015D03*
D16*
X006825Y011808D02*
X006825Y011962D01*
X006825Y011885D02*
X006365Y011885D01*
X006365Y011808D02*
X006365Y011962D01*
X006441Y012115D02*
X006365Y012192D01*
X006365Y012345D01*
X006441Y012422D01*
X006518Y012576D02*
X006365Y012729D01*
X006825Y012729D01*
X006825Y012576D02*
X006825Y012883D01*
X006748Y012422D02*
X006825Y012345D01*
X006825Y012192D01*
X006748Y012115D01*
X006441Y012115D01*
X004463Y012149D02*
X004463Y012225D01*
X004386Y012302D01*
X004233Y012302D01*
X004156Y012225D01*
X004003Y012225D02*
X003926Y012302D01*
X003772Y012302D01*
X003696Y012225D01*
X003696Y011918D01*
X003772Y011842D01*
X003926Y011842D01*
X004003Y011918D01*
X004156Y011842D02*
X004463Y012149D01*
X004463Y011842D02*
X004156Y011842D01*
X014558Y009638D02*
X014558Y009484D01*
X014635Y009407D01*
X014558Y009638D02*
X014635Y009714D01*
X014712Y009714D01*
X015019Y009407D01*
X015019Y009714D01*
X015019Y009254D02*
X015019Y008947D01*
X015019Y009100D02*
X014558Y009100D01*
X014712Y008947D01*
X014635Y008793D02*
X014558Y008717D01*
X014558Y008487D01*
X015019Y008487D01*
X015019Y008717D01*
X014942Y008793D01*
X014635Y008793D01*
X014712Y008333D02*
X015019Y008333D01*
X014788Y008333D02*
X014788Y008026D01*
X014712Y008026D02*
X014558Y008180D01*
X014712Y008333D01*
X014712Y008026D02*
X015019Y008026D01*
X014865Y007796D02*
X014865Y007566D01*
X015019Y007566D02*
X014558Y007566D01*
X014558Y007796D01*
X014635Y007873D01*
X014788Y007873D01*
X014865Y007796D01*
X015608Y017909D02*
X015761Y017909D01*
X015838Y017985D01*
X015991Y017985D02*
X016068Y017909D01*
X016221Y017909D01*
X016298Y017985D01*
X016298Y018062D01*
X016221Y018139D01*
X016145Y018139D01*
X016221Y018139D02*
X016298Y018216D01*
X016298Y018292D01*
X016221Y018369D01*
X016068Y018369D01*
X015991Y018292D01*
X015838Y018292D02*
X015761Y018369D01*
X015608Y018369D01*
X015531Y018292D01*
X015531Y017985D01*
X015608Y017909D01*
D17*
X011872Y016556D02*
X011872Y013056D01*
M02*
