G75*
%MOIN*%
%OFA0B0*%
%FSLAX24Y24*%
%IPPOS*%
%LPD*%
%AMOC8*
5,1,8,0,0,1.08239X$1,22.5*
%
%ADD10C,0.0160*%
%ADD11C,0.0080*%
%ADD12C,0.0040*%
%ADD13C,0.0060*%
%ADD14C,0.0050*%
D10*
X001046Y000180D02*
X017188Y000180D01*
X017188Y019865D01*
X001046Y019865D01*
X001046Y000180D01*
D11*
X003519Y014858D02*
X006100Y014858D01*
X006100Y016258D01*
X003519Y016258D01*
X003519Y014858D01*
X006437Y014842D02*
X009017Y014842D01*
X009017Y016242D01*
X006437Y016242D01*
X006437Y014842D01*
X009338Y014826D02*
X011919Y014826D01*
X011919Y016226D01*
X009338Y016226D01*
X009338Y014826D01*
X012153Y014826D02*
X014734Y014826D01*
X014734Y016226D01*
X012153Y016226D01*
X012153Y014826D01*
D12*
X012577Y015026D02*
X012884Y015026D01*
X012577Y015333D01*
X012577Y015410D01*
X012654Y015487D01*
X012807Y015487D01*
X012884Y015410D01*
X013037Y015410D02*
X013037Y015103D01*
X013114Y015026D01*
X013267Y015026D01*
X013344Y015103D01*
X013344Y015410D01*
X013267Y015487D01*
X013114Y015487D01*
X013037Y015410D01*
X013191Y015180D02*
X013037Y015026D01*
X010529Y015103D02*
X010453Y015026D01*
X010299Y015026D01*
X010222Y015103D01*
X010222Y015410D01*
X010299Y015487D01*
X010453Y015487D01*
X010529Y015410D01*
X010529Y015103D01*
X010376Y015180D02*
X010222Y015026D01*
X010069Y015103D02*
X009992Y015026D01*
X009839Y015026D01*
X009762Y015103D01*
X009762Y015180D01*
X009839Y015257D01*
X009915Y015257D01*
X009839Y015257D02*
X009762Y015333D01*
X009762Y015410D01*
X009839Y015487D01*
X009992Y015487D01*
X010069Y015410D01*
X007628Y015426D02*
X007628Y015119D01*
X007551Y015042D01*
X007397Y015042D01*
X007321Y015119D01*
X007321Y015426D01*
X007397Y015503D01*
X007551Y015503D01*
X007628Y015426D01*
X007474Y015196D02*
X007321Y015042D01*
X007167Y015272D02*
X006860Y015272D01*
X006937Y015042D02*
X006937Y015503D01*
X007167Y015272D01*
X004710Y015135D02*
X004634Y015058D01*
X004480Y015058D01*
X004403Y015135D01*
X004403Y015442D01*
X004480Y015518D01*
X004634Y015518D01*
X004710Y015442D01*
X004710Y015135D01*
X004557Y015211D02*
X004403Y015058D01*
X004250Y015135D02*
X004173Y015058D01*
X004020Y015058D01*
X003943Y015135D01*
X003943Y015288D01*
X004020Y015365D01*
X004097Y015365D01*
X004250Y015288D01*
X004250Y015518D01*
X003943Y015518D01*
X005898Y011891D02*
X005898Y011584D01*
X005898Y011431D02*
X006052Y011277D01*
X006052Y011354D02*
X006052Y011124D01*
X005898Y011124D02*
X006358Y011124D01*
X006358Y011354D01*
X006282Y011431D01*
X006128Y011431D01*
X006052Y011354D01*
X006205Y011584D02*
X006358Y011737D01*
X005898Y011737D01*
X008610Y006139D02*
X009071Y006139D01*
X008841Y005909D01*
X008841Y006216D01*
X008841Y005755D02*
X008764Y005678D01*
X008764Y005448D01*
X008610Y005448D02*
X009071Y005448D01*
X009071Y005678D01*
X008994Y005755D01*
X008841Y005755D01*
X008764Y005602D02*
X008610Y005755D01*
D13*
X012872Y009179D02*
X012872Y009779D01*
X012874Y009796D01*
X012878Y009813D01*
X012885Y009829D01*
X012895Y009843D01*
X012908Y009856D01*
X012922Y009866D01*
X012938Y009873D01*
X012955Y009877D01*
X012972Y009879D01*
X014072Y009879D01*
X014089Y009877D01*
X014106Y009873D01*
X014122Y009866D01*
X014136Y009856D01*
X014149Y009843D01*
X014159Y009829D01*
X014166Y009813D01*
X014170Y009796D01*
X014172Y009779D01*
X014172Y009179D01*
X014170Y009162D01*
X014166Y009145D01*
X014159Y009129D01*
X014149Y009115D01*
X014136Y009102D01*
X014122Y009092D01*
X014106Y009085D01*
X014089Y009081D01*
X014072Y009079D01*
X012972Y009079D01*
X012955Y009081D01*
X012938Y009085D01*
X012922Y009092D01*
X012908Y009102D01*
X012895Y009115D01*
X012885Y009129D01*
X012878Y009145D01*
X012874Y009162D01*
X012872Y009179D01*
X013311Y011355D02*
X014411Y011355D01*
X014428Y011357D01*
X014445Y011361D01*
X014461Y011368D01*
X014475Y011378D01*
X014488Y011391D01*
X014498Y011405D01*
X014505Y011421D01*
X014509Y011438D01*
X014511Y011455D01*
X014511Y012055D01*
X014509Y012072D01*
X014505Y012089D01*
X014498Y012105D01*
X014488Y012119D01*
X014475Y012132D01*
X014461Y012142D01*
X014445Y012149D01*
X014428Y012153D01*
X014411Y012155D01*
X013311Y012155D01*
X013294Y012153D01*
X013277Y012149D01*
X013261Y012142D01*
X013247Y012132D01*
X013234Y012119D01*
X013224Y012105D01*
X013217Y012089D01*
X013213Y012072D01*
X013211Y012055D01*
X013211Y011455D01*
X013213Y011438D01*
X013217Y011421D01*
X013224Y011405D01*
X013234Y011391D01*
X013247Y011378D01*
X013261Y011368D01*
X013277Y011361D01*
X013294Y011357D01*
X013311Y011355D01*
X011495Y012738D02*
X011495Y013338D01*
X011493Y013355D01*
X011489Y013372D01*
X011482Y013388D01*
X011472Y013402D01*
X011459Y013415D01*
X011445Y013425D01*
X011429Y013432D01*
X011412Y013436D01*
X011395Y013438D01*
X010295Y013438D01*
X010278Y013436D01*
X010261Y013432D01*
X010245Y013425D01*
X010231Y013415D01*
X010218Y013402D01*
X010208Y013388D01*
X010201Y013372D01*
X010197Y013355D01*
X010195Y013338D01*
X010195Y012738D01*
X010197Y012721D01*
X010201Y012704D01*
X010208Y012688D01*
X010218Y012674D01*
X010231Y012661D01*
X010245Y012651D01*
X010261Y012644D01*
X010278Y012640D01*
X010295Y012638D01*
X011395Y012638D01*
X011412Y012640D01*
X011429Y012644D01*
X011445Y012651D01*
X011459Y012661D01*
X011472Y012674D01*
X011482Y012688D01*
X011489Y012704D01*
X011493Y012721D01*
X011495Y012738D01*
X010274Y011712D02*
X010274Y010612D01*
X010272Y010595D01*
X010268Y010578D01*
X010261Y010562D01*
X010251Y010548D01*
X010238Y010535D01*
X010224Y010525D01*
X010208Y010518D01*
X010191Y010514D01*
X010174Y010512D01*
X009574Y010512D01*
X009557Y010514D01*
X009540Y010518D01*
X009524Y010525D01*
X009510Y010535D01*
X009497Y010548D01*
X009487Y010562D01*
X009480Y010578D01*
X009476Y010595D01*
X009474Y010612D01*
X009474Y011712D01*
X009476Y011729D01*
X009480Y011746D01*
X009487Y011762D01*
X009497Y011776D01*
X009510Y011789D01*
X009524Y011799D01*
X009540Y011806D01*
X009557Y011810D01*
X009574Y011812D01*
X010174Y011812D01*
X010191Y011810D01*
X010208Y011806D01*
X010224Y011799D01*
X010238Y011789D01*
X010251Y011776D01*
X010261Y011762D01*
X010268Y011746D01*
X010272Y011729D01*
X010274Y011712D01*
X007697Y012758D02*
X007697Y013358D01*
X007695Y013375D01*
X007691Y013392D01*
X007684Y013408D01*
X007674Y013422D01*
X007661Y013435D01*
X007647Y013445D01*
X007631Y013452D01*
X007614Y013456D01*
X007597Y013458D01*
X006497Y013458D01*
X006480Y013456D01*
X006463Y013452D01*
X006447Y013445D01*
X006433Y013435D01*
X006420Y013422D01*
X006410Y013408D01*
X006403Y013392D01*
X006399Y013375D01*
X006397Y013358D01*
X006397Y012758D01*
X006399Y012741D01*
X006403Y012724D01*
X006410Y012708D01*
X006420Y012694D01*
X006433Y012681D01*
X006447Y012671D01*
X006463Y012664D01*
X006480Y012660D01*
X006497Y012658D01*
X007597Y012658D01*
X007614Y012660D01*
X007631Y012664D01*
X007647Y012671D01*
X007661Y012681D01*
X007674Y012694D01*
X007684Y012708D01*
X007691Y012724D01*
X007695Y012741D01*
X007697Y012758D01*
X003167Y018567D02*
X002067Y018567D01*
X002050Y018569D01*
X002033Y018573D01*
X002017Y018580D01*
X002003Y018590D01*
X001990Y018603D01*
X001980Y018617D01*
X001973Y018633D01*
X001969Y018650D01*
X001967Y018667D01*
X001967Y019267D01*
X001969Y019284D01*
X001973Y019301D01*
X001980Y019317D01*
X001990Y019331D01*
X002003Y019344D01*
X002017Y019354D01*
X002033Y019361D01*
X002050Y019365D01*
X002067Y019367D01*
X003167Y019367D01*
X003184Y019365D01*
X003201Y019361D01*
X003217Y019354D01*
X003231Y019344D01*
X003244Y019331D01*
X003254Y019317D01*
X003261Y019301D01*
X003265Y019284D01*
X003267Y019267D01*
X003267Y018667D01*
X003265Y018650D01*
X003261Y018633D01*
X003254Y018617D01*
X003244Y018603D01*
X003231Y018590D01*
X003217Y018580D01*
X003201Y018573D01*
X003184Y018569D01*
X003167Y018567D01*
D14*
X006532Y012583D02*
X006532Y012508D01*
X006833Y012208D01*
X006833Y012133D01*
X007068Y012208D02*
X007068Y012583D01*
X007143Y012583D02*
X006993Y012583D01*
X006833Y012583D02*
X006532Y012583D01*
X007068Y012208D02*
X007143Y012133D01*
X007218Y012133D01*
X007293Y012208D01*
X007453Y012208D02*
X007528Y012133D01*
X007678Y012133D01*
X007753Y012208D01*
X007678Y012358D02*
X007528Y012358D01*
X007453Y012283D01*
X007453Y012208D01*
X007453Y012508D02*
X007528Y012583D01*
X007678Y012583D01*
X007753Y012508D01*
X007753Y012433D01*
X007678Y012358D01*
X010349Y011683D02*
X010424Y011758D01*
X010724Y011758D01*
X010800Y011683D01*
X010800Y011533D01*
X010724Y011458D01*
X010649Y011458D01*
X010574Y011533D01*
X010574Y011758D01*
X010349Y011683D02*
X010349Y011533D01*
X010424Y011458D01*
X010424Y011222D02*
X010349Y011147D01*
X010349Y011072D01*
X010424Y010997D01*
X010424Y010837D02*
X010349Y010762D01*
X010349Y010612D01*
X010424Y010537D01*
X010574Y010612D02*
X010574Y010762D01*
X010499Y010837D01*
X010424Y010837D01*
X010574Y010612D02*
X010649Y010537D01*
X010724Y010537D01*
X010800Y010612D01*
X010800Y010762D01*
X010724Y010837D01*
X010800Y011147D02*
X010800Y011298D01*
X010800Y011222D02*
X010424Y011222D01*
X013265Y012305D02*
X013340Y012230D01*
X013490Y012230D01*
X013565Y012305D01*
X013415Y012455D02*
X013340Y012455D01*
X013265Y012380D01*
X013265Y012305D01*
X013340Y012455D02*
X013265Y012530D01*
X013265Y012605D01*
X013340Y012680D01*
X013490Y012680D01*
X013565Y012605D01*
X013725Y012680D02*
X013875Y012680D01*
X013800Y012680D02*
X013800Y012305D01*
X013875Y012230D01*
X013950Y012230D01*
X014025Y012305D01*
X014186Y012305D02*
X014186Y012380D01*
X014261Y012455D01*
X014411Y012455D01*
X014486Y012530D01*
X014486Y012605D01*
X014411Y012680D01*
X014261Y012680D01*
X014186Y012605D01*
X014186Y012305D02*
X014261Y012230D01*
X014411Y012230D01*
X014486Y012305D01*
M02*
