G75*
%MOIN*%
%OFA0B0*%
%FSLAX24Y24*%
%IPPOS*%
%LPD*%
%AMOC8*
5,1,8,0,0,1.08239X$1,22.5*
%
%ADD10C,0.0160*%
%ADD11C,0.0030*%
%ADD12C,0.0060*%
%ADD13C,0.0040*%
%ADD14R,0.0540X0.0260*%
%ADD15R,0.0260X0.0540*%
%ADD16OC8,0.0640*%
%ADD17OC8,0.1290*%
%ADD18R,0.0512X0.0512*%
%ADD19R,0.0670X0.0827*%
%ADD20C,0.0600*%
%ADD21OC8,0.0600*%
%ADD22R,0.1040X0.0540*%
%ADD23R,0.0540X0.1040*%
%ADD24R,0.0906X0.0276*%
%ADD25R,0.0552X0.0631*%
%ADD26R,0.0670X0.1103*%
%ADD27R,0.0500X0.0670*%
%ADD28R,0.0060X0.0720*%
%ADD29R,0.0827X0.0473*%
%ADD30R,0.0631X0.0552*%
%ADD31C,0.0555*%
%ADD32R,0.0985X0.0985*%
%ADD33C,0.0640*%
%ADD34R,0.0312X0.0004*%
%ADD35R,0.0344X0.0004*%
%ADD36R,0.0368X0.0004*%
%ADD37R,0.0392X0.0004*%
%ADD38R,0.0408X0.0004*%
%ADD39R,0.0424X0.0004*%
%ADD40R,0.0432X0.0004*%
%ADD41R,0.0448X0.0004*%
%ADD42R,0.0456X0.0004*%
%ADD43R,0.0472X0.0004*%
%ADD44R,0.0480X0.0004*%
%ADD45R,0.0488X0.0004*%
%ADD46R,0.0496X0.0004*%
%ADD47R,0.0504X0.0004*%
%ADD48R,0.0512X0.0004*%
%ADD49R,0.0520X0.0004*%
%ADD50R,0.0528X0.0004*%
%ADD51R,0.0536X0.0004*%
%ADD52R,0.0536X0.0004*%
%ADD53R,0.0544X0.0004*%
%ADD54R,0.0552X0.0004*%
%ADD55R,0.0560X0.0004*%
%ADD56R,0.0560X0.0004*%
%ADD57R,0.0568X0.0004*%
%ADD58R,0.0576X0.0004*%
%ADD59R,0.0584X0.0004*%
%ADD60R,0.0592X0.0004*%
%ADD61R,0.0592X0.0004*%
%ADD62R,0.0600X0.0004*%
%ADD63R,0.0608X0.0004*%
%ADD64R,0.0608X0.0004*%
%ADD65R,0.0616X0.0004*%
%ADD66R,0.0624X0.0004*%
%ADD67R,0.0632X0.0004*%
%ADD68R,0.0632X0.0004*%
%ADD69R,0.0640X0.0004*%
%ADD70R,0.0648X0.0004*%
%ADD71R,0.0648X0.0004*%
%ADD72R,0.0656X0.0004*%
%ADD73R,0.0664X0.0004*%
%ADD74R,0.0664X0.0004*%
%ADD75R,0.0672X0.0004*%
%ADD76R,0.0680X0.0004*%
%ADD77R,0.0680X0.0004*%
%ADD78R,0.0688X0.0004*%
%ADD79R,0.0696X0.0004*%
%ADD80R,0.0700X0.0004*%
%ADD81R,0.0708X0.0004*%
%ADD82R,0.0716X0.0004*%
%ADD83R,0.0720X0.0004*%
%ADD84R,0.0720X0.0004*%
%ADD85R,0.0724X0.0004*%
%ADD86R,0.0808X0.0004*%
%ADD87R,0.0824X0.0004*%
%ADD88R,0.0832X0.0004*%
%ADD89R,0.0840X0.0004*%
%ADD90R,0.0848X0.0004*%
%ADD91R,0.0856X0.0004*%
%ADD92R,0.0860X0.0004*%
%ADD93R,0.0864X0.0004*%
%ADD94R,0.0864X0.0004*%
%ADD95R,0.0868X0.0004*%
%ADD96R,0.0872X0.0004*%
%ADD97R,0.0872X0.0004*%
%ADD98R,0.0860X0.0004*%
%ADD99R,0.0832X0.0004*%
%ADD100R,0.0824X0.0004*%
%ADD101R,0.0708X0.0004*%
%ADD102R,0.0712X0.0004*%
%ADD103R,0.0712X0.0004*%
%ADD104R,0.0700X0.0004*%
%ADD105R,0.0696X0.0004*%
%ADD106R,0.0692X0.0004*%
%ADD107R,0.0668X0.0004*%
%ADD108R,0.0660X0.0004*%
%ADD109R,0.0452X0.0004*%
%ADD110R,0.0188X0.0004*%
%ADD111R,0.0448X0.0004*%
%ADD112R,0.0440X0.0004*%
%ADD113R,0.0184X0.0004*%
%ADD114R,0.0432X0.0004*%
%ADD115R,0.0184X0.0004*%
%ADD116R,0.0424X0.0004*%
%ADD117R,0.0412X0.0004*%
%ADD118R,0.0128X0.0004*%
%ADD119R,0.0044X0.0004*%
%ADD120R,0.0400X0.0004*%
%ADD121R,0.0008X0.0004*%
%ADD122R,0.0388X0.0004*%
%ADD123R,0.0132X0.0004*%
%ADD124R,0.0360X0.0004*%
%ADD125R,0.0136X0.0004*%
%ADD126R,0.0340X0.0004*%
%ADD127R,0.0140X0.0004*%
%ADD128R,0.0328X0.0004*%
%ADD129R,0.0144X0.0004*%
%ADD130R,0.0324X0.0004*%
%ADD131R,0.0148X0.0004*%
%ADD132R,0.0320X0.0004*%
%ADD133R,0.0156X0.0004*%
%ADD134R,0.0316X0.0004*%
%ADD135R,0.0176X0.0004*%
%ADD136R,0.0080X0.0004*%
%ADD137R,0.0052X0.0004*%
%ADD138R,0.0380X0.0004*%
%ADD139R,0.0372X0.0004*%
%ADD140R,0.0356X0.0004*%
%ADD141R,0.0004X0.0004*%
%ADD142R,0.0308X0.0004*%
%ADD143R,0.0060X0.0004*%
%ADD144R,0.0240X0.0004*%
%ADD145R,0.0232X0.0004*%
%ADD146R,0.0044X0.0004*%
%ADD147R,0.0164X0.0004*%
%ADD148R,0.0056X0.0004*%
%ADD149R,0.0036X0.0004*%
%ADD150R,0.0156X0.0004*%
%ADD151R,0.0048X0.0004*%
%ADD152R,0.0024X0.0004*%
%ADD153R,0.0036X0.0004*%
%ADD154R,0.0016X0.0004*%
%ADD155R,0.0028X0.0004*%
%ADD156R,0.0012X0.0004*%
%ADD157R,0.0124X0.0004*%
%ADD158R,0.0108X0.0004*%
%ADD159R,0.0008X0.0004*%
%ADD160R,0.0092X0.0004*%
%ADD161R,0.0068X0.0004*%
%ADD162R,0.0008X0.0004*%
%ADD163R,0.0016X0.0004*%
%ADD164R,0.0024X0.0004*%
%ADD165R,0.0032X0.0004*%
%ADD166R,0.0032X0.0004*%
%ADD167R,0.0040X0.0004*%
%ADD168R,0.0056X0.0004*%
%ADD169R,0.0064X0.0004*%
%ADD170R,0.0072X0.0004*%
%ADD171R,0.0088X0.0004*%
%ADD172R,0.0096X0.0004*%
%ADD173R,0.0104X0.0004*%
%ADD174R,0.0112X0.0004*%
%ADD175R,0.0120X0.0004*%
%ADD176R,0.0124X0.0004*%
%ADD177R,0.0128X0.0004*%
%ADD178R,0.0144X0.0004*%
%ADD179R,0.0152X0.0004*%
%ADD180R,0.0152X0.0004*%
%ADD181R,0.0160X0.0004*%
%ADD182R,0.0168X0.0004*%
%ADD183R,0.0176X0.0004*%
%ADD184R,0.0184X0.0004*%
%ADD185R,0.0192X0.0004*%
%ADD186R,0.0200X0.0004*%
%ADD187R,0.0208X0.0004*%
%ADD188R,0.0216X0.0004*%
%ADD189R,0.0216X0.0004*%
%ADD190R,0.0224X0.0004*%
%ADD191R,0.0232X0.0004*%
%ADD192R,0.0240X0.0004*%
%ADD193R,0.0248X0.0004*%
%ADD194R,0.0256X0.0004*%
%ADD195R,0.0264X0.0004*%
%ADD196R,0.0272X0.0004*%
%ADD197R,0.0280X0.0004*%
%ADD198R,0.0288X0.0004*%
%ADD199R,0.0296X0.0004*%
%ADD200R,0.0304X0.0004*%
%ADD201R,0.0320X0.0004*%
%ADD202R,0.0328X0.0004*%
%ADD203R,0.0336X0.0004*%
%ADD204R,0.0336X0.0004*%
%ADD205R,0.0200X0.0004*%
%ADD206R,0.0128X0.0004*%
%ADD207R,0.0204X0.0004*%
%ADD208R,0.0216X0.0004*%
%ADD209R,0.0228X0.0004*%
%ADD210R,0.0416X0.0004*%
%ADD211R,0.0424X0.0004*%
%ADD212R,0.0428X0.0004*%
%ADD213R,0.0304X0.0004*%
%ADD214R,0.0180X0.0004*%
%ADD215R,0.0112X0.0004*%
%ADD216R,0.0176X0.0004*%
%ADD217R,0.0112X0.0004*%
%ADD218R,0.0132X0.0004*%
%ADD219R,0.0116X0.0004*%
%ADD220R,0.0332X0.0004*%
%ADD221R,0.0336X0.0004*%
%ADD222R,0.0480X0.0004*%
%ADD223R,0.0496X0.0004*%
%ADD224R,0.0512X0.0004*%
%ADD225R,0.0544X0.0004*%
%ADD226R,0.0208X0.0004*%
%ADD227R,0.0356X0.0004*%
%ADD228R,0.0208X0.0004*%
%ADD229R,0.0364X0.0004*%
%ADD230R,0.0212X0.0004*%
%ADD231R,0.0368X0.0004*%
%ADD232R,0.0220X0.0004*%
%ADD233R,0.0600X0.0004*%
%ADD234R,0.0356X0.0004*%
%ADD235R,0.0228X0.0004*%
%ADD236R,0.0236X0.0004*%
%ADD237R,0.0360X0.0004*%
%ADD238R,0.0368X0.0004*%
%ADD239R,0.0244X0.0004*%
%ADD240R,0.0252X0.0004*%
%ADD241R,0.0376X0.0004*%
%ADD242R,0.0672X0.0004*%
%ADD243R,0.0624X0.0004*%
%ADD244R,0.0596X0.0004*%
%ADD245R,0.0552X0.0004*%
%ADD246R,0.0456X0.0004*%
%ADD247R,0.0384X0.0004*%
%ADD248R,0.0352X0.0004*%
%ADD249R,0.0188X0.0004*%
%ADD250R,0.0108X0.0004*%
%ADD251R,0.0946X0.0670*%
D10*
X001046Y000180D02*
X017188Y000180D01*
X017188Y019865D01*
X001046Y019865D01*
X001046Y000180D01*
D11*
X003850Y000383D02*
X003898Y000334D01*
X003995Y000334D01*
X004044Y000383D01*
X004044Y000479D01*
X003995Y000528D01*
X003947Y000528D01*
X003850Y000479D01*
X003850Y000624D01*
X004044Y000624D01*
X004145Y000624D02*
X004145Y000431D01*
X004241Y000334D01*
X004338Y000431D01*
X004338Y000624D01*
X005474Y000502D02*
X005667Y000502D01*
X005768Y000502D02*
X005768Y000550D01*
X005817Y000550D01*
X005817Y000502D01*
X005768Y000502D01*
X005768Y000405D02*
X005768Y000357D01*
X005817Y000357D01*
X005817Y000405D01*
X005768Y000405D01*
X005916Y000357D02*
X005916Y000550D01*
X006012Y000647D01*
X006109Y000550D01*
X006109Y000357D01*
X006210Y000357D02*
X006355Y000357D01*
X006404Y000405D01*
X006404Y000599D01*
X006355Y000647D01*
X006210Y000647D01*
X006210Y000357D01*
X006109Y000502D02*
X005916Y000502D01*
X005619Y000357D02*
X005619Y000647D01*
X005474Y000502D01*
X006505Y000599D02*
X006505Y000405D01*
X006553Y000357D01*
X006650Y000357D01*
X006698Y000405D01*
X006698Y000599D02*
X006650Y000647D01*
X006553Y000647D01*
X006505Y000599D01*
X007319Y000665D02*
X007319Y000520D01*
X007416Y000568D01*
X007465Y000568D01*
X007513Y000520D01*
X007513Y000423D01*
X007465Y000375D01*
X007368Y000375D01*
X007319Y000423D01*
X007319Y000665D02*
X007513Y000665D01*
X007614Y000568D02*
X007614Y000520D01*
X007662Y000520D01*
X007662Y000568D01*
X007614Y000568D01*
X007614Y000423D02*
X007614Y000375D01*
X007662Y000375D01*
X007662Y000423D01*
X007614Y000423D01*
X007761Y000423D02*
X007810Y000375D01*
X007906Y000375D01*
X007955Y000423D01*
X008056Y000327D02*
X008250Y000327D01*
X008351Y000375D02*
X008447Y000375D01*
X008399Y000375D02*
X008399Y000665D01*
X008351Y000665D02*
X008447Y000665D01*
X008547Y000665D02*
X008741Y000375D01*
X008741Y000665D01*
X008547Y000665D02*
X008547Y000375D01*
X007955Y000617D02*
X007906Y000665D01*
X007810Y000665D01*
X007761Y000617D01*
X007761Y000423D01*
X009271Y000427D02*
X009319Y000379D01*
X009416Y000379D01*
X009465Y000427D01*
X009465Y000476D01*
X009416Y000524D01*
X009271Y000524D01*
X009271Y000427D01*
X009271Y000524D02*
X009368Y000621D01*
X009465Y000669D01*
X009566Y000572D02*
X009566Y000524D01*
X009614Y000524D01*
X009614Y000572D01*
X009566Y000572D01*
X009566Y000427D02*
X009566Y000379D01*
X009614Y000379D01*
X009614Y000427D01*
X009566Y000427D01*
X009713Y000379D02*
X009713Y000572D01*
X009810Y000669D01*
X009907Y000572D01*
X009907Y000379D01*
X010008Y000331D02*
X010201Y000331D01*
X010302Y000379D02*
X010399Y000379D01*
X010351Y000379D02*
X010351Y000669D01*
X010399Y000669D02*
X010302Y000669D01*
X010499Y000669D02*
X010692Y000379D01*
X010692Y000669D01*
X010499Y000669D02*
X010499Y000379D01*
X009907Y000524D02*
X009713Y000524D01*
X011446Y000437D02*
X011446Y000389D01*
X011446Y000437D02*
X011639Y000631D01*
X011639Y000679D01*
X011446Y000679D01*
X011740Y000582D02*
X011740Y000534D01*
X011789Y000534D01*
X011789Y000582D01*
X011740Y000582D01*
X011740Y000437D02*
X011740Y000389D01*
X011789Y000389D01*
X011789Y000437D01*
X011740Y000437D01*
X011888Y000389D02*
X011888Y000679D01*
X012081Y000389D01*
X012081Y000679D01*
X012182Y000679D02*
X012182Y000389D01*
X012376Y000389D01*
X012477Y000437D02*
X012525Y000389D01*
X012622Y000389D01*
X012670Y000437D01*
X012670Y000631D01*
X012622Y000679D01*
X012525Y000679D01*
X012477Y000631D01*
X012477Y000437D01*
X012279Y000534D02*
X012182Y000534D01*
X012182Y000679D02*
X012376Y000679D01*
X013661Y000618D02*
X013661Y000424D01*
X013709Y000376D01*
X013806Y000376D01*
X013854Y000424D01*
X013854Y000521D01*
X013758Y000521D01*
X013854Y000618D02*
X013806Y000666D01*
X013709Y000666D01*
X013661Y000618D01*
X013955Y000666D02*
X013955Y000376D01*
X014149Y000376D02*
X014149Y000666D01*
X014250Y000666D02*
X014395Y000666D01*
X014444Y000618D01*
X014444Y000424D01*
X014395Y000376D01*
X014250Y000376D01*
X014250Y000666D01*
X013955Y000666D02*
X014149Y000376D01*
X012582Y003378D02*
X012389Y003378D01*
X012288Y003426D02*
X012288Y003620D01*
X012191Y003716D01*
X012094Y003620D01*
X012094Y003426D01*
X012094Y003571D02*
X012288Y003571D01*
X012684Y003426D02*
X012780Y003426D01*
X012732Y003426D02*
X012732Y003716D01*
X012684Y003716D02*
X012780Y003716D01*
X012880Y003716D02*
X012880Y003426D01*
X013074Y003426D02*
X012880Y003716D01*
X013074Y003716D02*
X013074Y003426D01*
X013115Y004339D02*
X012922Y004339D01*
X013019Y004339D02*
X013019Y004629D01*
X012922Y004532D01*
X013217Y004532D02*
X013313Y004629D01*
X013313Y004339D01*
X013217Y004339D02*
X013410Y004339D01*
X011701Y003620D02*
X011701Y003571D01*
X011652Y003571D01*
X011652Y003620D01*
X011701Y003620D01*
X011701Y003474D02*
X011652Y003474D01*
X011652Y003426D01*
X011701Y003426D01*
X011701Y003474D01*
X011551Y003474D02*
X011503Y003426D01*
X011406Y003426D01*
X011358Y003474D01*
X011358Y003523D01*
X011406Y003571D01*
X011503Y003571D01*
X011551Y003523D01*
X011551Y003474D01*
X011503Y003571D02*
X011551Y003620D01*
X011551Y003668D01*
X011503Y003716D01*
X011406Y003716D01*
X011358Y003668D01*
X011358Y003620D01*
X011406Y003571D01*
X013596Y008690D02*
X013499Y008786D01*
X013790Y008786D01*
X013790Y008690D02*
X013790Y008883D01*
X013741Y008984D02*
X013548Y009178D01*
X013741Y009178D01*
X013790Y009129D01*
X013790Y009033D01*
X013741Y008984D01*
X013548Y008984D01*
X013499Y009033D01*
X013499Y009129D01*
X013548Y009178D01*
X005299Y009639D02*
X005299Y009833D01*
X005250Y009881D01*
X005153Y009881D01*
X005105Y009833D01*
X005105Y009785D01*
X005153Y009736D01*
X005299Y009736D01*
X005299Y009639D02*
X005250Y009591D01*
X005153Y009591D01*
X005105Y009639D01*
D12*
X004940Y017075D02*
X005234Y017075D01*
X005400Y017148D02*
X005474Y017075D01*
X005621Y017075D01*
X005694Y017148D01*
X005694Y017221D01*
X005621Y017295D01*
X005474Y017295D01*
X005400Y017368D01*
X005400Y017442D01*
X005474Y017515D01*
X005621Y017515D01*
X005694Y017442D01*
X005861Y017368D02*
X005861Y017075D01*
X005861Y017295D02*
X006154Y017295D01*
X006154Y017368D02*
X006154Y017075D01*
X006154Y017368D02*
X006008Y017515D01*
X005861Y017368D01*
X006782Y017515D02*
X006782Y017075D01*
X007002Y017075D01*
X007075Y017148D01*
X007075Y017442D01*
X007002Y017515D01*
X006782Y017515D01*
X007242Y017515D02*
X007389Y017515D01*
X007315Y017515D02*
X007315Y017075D01*
X007242Y017075D02*
X007389Y017075D01*
X007549Y017075D02*
X007549Y017515D01*
X007769Y017515D01*
X007843Y017442D01*
X007843Y017295D01*
X007769Y017221D01*
X007549Y017221D01*
X008470Y017075D02*
X008617Y017075D01*
X008543Y017075D02*
X008543Y017515D01*
X008470Y017515D02*
X008617Y017515D01*
X008777Y017515D02*
X008923Y017515D01*
X008850Y017515D02*
X008850Y017075D01*
X008777Y017075D02*
X008923Y017075D01*
X009544Y017368D02*
X009691Y017075D01*
X009838Y017368D01*
X010004Y017442D02*
X010078Y017515D01*
X010225Y017515D01*
X010298Y017442D01*
X010298Y017368D01*
X010225Y017295D01*
X010298Y017221D01*
X010298Y017148D01*
X010225Y017075D01*
X010078Y017075D01*
X010004Y017148D01*
X010151Y017295D02*
X010225Y017295D01*
X010465Y017148D02*
X010538Y017148D01*
X010538Y017075D01*
X010465Y017075D01*
X010465Y017148D01*
X010695Y017148D02*
X010768Y017075D01*
X010915Y017075D01*
X010989Y017148D01*
X010989Y017442D01*
X010915Y017515D01*
X010768Y017515D01*
X010695Y017442D01*
X010695Y017368D01*
X010768Y017295D01*
X010989Y017295D01*
X004940Y017515D02*
X004940Y017075D01*
X004773Y017075D02*
X004773Y017368D01*
X004626Y017515D01*
X004480Y017368D01*
X004480Y017075D01*
X004313Y017148D02*
X004239Y017075D01*
X004093Y017075D01*
X004019Y017148D01*
X004093Y017295D02*
X004239Y017295D01*
X004313Y017221D01*
X004313Y017148D01*
X004480Y017295D02*
X004773Y017295D01*
X004313Y017442D02*
X004239Y017515D01*
X004093Y017515D01*
X004019Y017442D01*
X004019Y017368D01*
X004093Y017295D01*
D13*
X002876Y019090D02*
X002876Y019277D01*
X002782Y019371D01*
X002689Y019277D01*
X002689Y019090D01*
X002581Y019137D02*
X002534Y019090D01*
X002441Y019090D01*
X002394Y019137D01*
X002441Y019230D02*
X002534Y019230D01*
X002581Y019184D01*
X002581Y019137D01*
X002689Y019230D02*
X002876Y019230D01*
X002581Y019324D02*
X002534Y019371D01*
X002441Y019371D01*
X002394Y019324D01*
X002394Y019277D01*
X002441Y019230D01*
X002286Y019090D02*
X002100Y019090D01*
X002100Y019371D01*
X001992Y019277D02*
X001992Y019090D01*
X001992Y019230D02*
X001805Y019230D01*
X001805Y019277D02*
X001805Y019090D01*
X001697Y019137D02*
X001650Y019090D01*
X001557Y019090D01*
X001510Y019137D01*
X001557Y019230D02*
X001650Y019230D01*
X001697Y019184D01*
X001697Y019137D01*
X001557Y019230D02*
X001510Y019277D01*
X001510Y019324D01*
X001557Y019371D01*
X001650Y019371D01*
X001697Y019324D01*
X001805Y019277D02*
X001898Y019371D01*
X001992Y019277D01*
X002001Y018891D02*
X002142Y018891D01*
X002188Y018844D01*
X002188Y018750D01*
X002142Y018704D01*
X002001Y018704D01*
X002001Y018610D02*
X002001Y018891D01*
X001898Y018891D02*
X001805Y018891D01*
X001852Y018891D02*
X001852Y018610D01*
X001898Y018610D02*
X001805Y018610D01*
X001697Y018657D02*
X001650Y018610D01*
X001510Y018610D01*
X001510Y018891D01*
X001650Y018891D01*
X001697Y018844D01*
X001697Y018657D01*
D14*
X009277Y007865D03*
X009277Y007550D03*
X009277Y007235D03*
X009277Y006920D03*
X009277Y006605D03*
X009277Y006290D03*
X009277Y005975D03*
X009277Y005660D03*
X012657Y005660D03*
X012657Y005975D03*
X012657Y006290D03*
X012657Y006605D03*
X012657Y006920D03*
X012657Y007235D03*
X012657Y007550D03*
X012657Y007865D03*
D15*
X012069Y008453D03*
X011754Y008453D03*
X011440Y008453D03*
X011125Y008453D03*
X010810Y008453D03*
X010495Y008453D03*
X010180Y008453D03*
X009865Y008453D03*
X009865Y005073D03*
X010180Y005073D03*
X010495Y005073D03*
X010810Y005073D03*
X011125Y005073D03*
X011440Y005073D03*
X011754Y005073D03*
X012069Y005073D03*
D16*
X008085Y007507D03*
X008085Y008507D03*
X007085Y008507D03*
X006085Y008507D03*
X006085Y007507D03*
X007085Y007507D03*
D17*
X004029Y010271D03*
X004195Y018684D03*
X006164Y018684D03*
X008132Y018684D03*
X010101Y018684D03*
X012069Y018684D03*
X014038Y018684D03*
X013943Y003796D03*
X014038Y001361D03*
X012069Y001361D03*
X010101Y001361D03*
X008132Y001361D03*
X006164Y001361D03*
X004195Y001361D03*
D18*
X005186Y007344D03*
X005186Y008171D03*
D19*
X005221Y009498D03*
X006323Y009498D03*
D20*
X001617Y000735D03*
X015617Y000735D03*
D21*
X016617Y000735D03*
X016617Y001735D03*
X016617Y002735D03*
X016617Y003735D03*
X016617Y004735D03*
X016617Y005735D03*
X016617Y006735D03*
X016617Y007735D03*
X016617Y008735D03*
X016617Y009735D03*
X016617Y010735D03*
X016617Y011735D03*
X016617Y012735D03*
X016617Y013735D03*
X016617Y014735D03*
X016617Y015735D03*
X016617Y016735D03*
X016617Y017735D03*
X015617Y017735D03*
X015617Y016735D03*
X015617Y015735D03*
X015617Y014735D03*
X015617Y013735D03*
X015617Y012735D03*
X015617Y011735D03*
X015617Y010735D03*
X015617Y009735D03*
X015617Y008735D03*
X015617Y007735D03*
X015617Y006735D03*
X015617Y005735D03*
X015617Y004735D03*
X015617Y003735D03*
X015617Y002735D03*
X015617Y001735D03*
X002617Y001735D03*
X002617Y000735D03*
X001617Y001735D03*
X001617Y002735D03*
X001617Y003735D03*
X001617Y004735D03*
X001617Y005735D03*
X001617Y006735D03*
X001617Y007735D03*
X001617Y008735D03*
X001617Y009735D03*
X001617Y010735D03*
X001617Y011735D03*
X001617Y012735D03*
X001617Y013735D03*
X001617Y014735D03*
X001617Y015735D03*
X001617Y016735D03*
X001617Y017735D03*
X002617Y017735D03*
X002617Y016735D03*
X002617Y015735D03*
X002617Y014735D03*
X002617Y013735D03*
X002617Y012735D03*
X002617Y011735D03*
X002617Y010735D03*
X002617Y009735D03*
X002617Y008735D03*
X002617Y007735D03*
X002617Y006735D03*
X002617Y005735D03*
X002617Y004735D03*
X002617Y003735D03*
X002617Y002735D03*
D22*
X013063Y009533D03*
D23*
X012701Y004866D03*
D24*
X010986Y011273D03*
X010986Y011773D03*
X010986Y012273D03*
X010986Y012773D03*
X010986Y013273D03*
X010986Y013773D03*
X010986Y014273D03*
X010986Y014773D03*
X010986Y015273D03*
X010986Y015773D03*
X007364Y015773D03*
X007364Y015273D03*
X007364Y014773D03*
X007364Y014273D03*
X007364Y013773D03*
X007364Y013273D03*
X007364Y012773D03*
X007364Y012273D03*
X007364Y011773D03*
X007364Y011273D03*
D25*
X006125Y011232D03*
X005377Y011232D03*
D26*
X005265Y012866D03*
X004163Y012866D03*
D27*
X004361Y011410D03*
X003761Y011410D03*
X013827Y011693D03*
X014427Y011693D03*
X014571Y009470D03*
X013971Y009470D03*
X014046Y008670D03*
X014646Y008670D03*
D28*
X014346Y008670D03*
X014271Y009470D03*
X014127Y011693D03*
X004061Y011410D03*
D29*
X006648Y006609D03*
X006648Y005271D03*
X008223Y005271D03*
X008223Y006609D03*
D30*
X004246Y007246D03*
X004246Y007994D03*
D31*
X005068Y010320D02*
X005583Y010320D01*
X005583Y015520D02*
X005068Y015520D01*
X012368Y015520D02*
X012883Y015520D01*
X012883Y010320D02*
X012368Y010320D01*
D32*
X014086Y014279D03*
X014086Y016011D03*
X005602Y014335D03*
X003870Y014335D03*
D33*
X003856Y008990D02*
X004456Y008990D01*
X004456Y005990D02*
X003856Y005990D01*
X003856Y004990D02*
X004456Y004990D01*
X004456Y003990D02*
X003856Y003990D01*
X013711Y005755D02*
X014311Y005755D01*
X014311Y006755D02*
X013711Y006755D01*
X013711Y007755D02*
X014311Y007755D01*
X014311Y010755D02*
X013711Y010755D01*
D34*
X015926Y018382D03*
X015930Y018894D03*
X015926Y019194D03*
X015926Y019198D03*
D35*
X015926Y018386D03*
D36*
X015926Y018390D03*
D37*
X015926Y018394D03*
X015902Y018878D03*
D38*
X015926Y019258D03*
X015926Y019262D03*
X015926Y019518D03*
X015926Y018398D03*
D39*
X015926Y018402D03*
D40*
X015926Y018406D03*
X015926Y019278D03*
X015926Y019514D03*
D41*
X015926Y018410D03*
D42*
X015926Y018414D03*
D43*
X015926Y018418D03*
D44*
X015926Y018422D03*
X015926Y019506D03*
D45*
X015926Y019314D03*
X015926Y018426D03*
D46*
X015926Y018430D03*
D47*
X015926Y018434D03*
X015926Y019326D03*
D48*
X015926Y019498D03*
X015926Y018438D03*
D49*
X015926Y018442D03*
X015926Y019334D03*
X015926Y019338D03*
D50*
X015926Y019342D03*
X015926Y018446D03*
D51*
X015926Y018450D03*
D52*
X015926Y018454D03*
X015926Y019346D03*
X015926Y019494D03*
D53*
X015926Y019354D03*
X015926Y018458D03*
D54*
X015926Y018462D03*
X015926Y019358D03*
D55*
X015926Y019362D03*
X015926Y018466D03*
D56*
X015926Y018470D03*
D57*
X015926Y018474D03*
X015926Y019366D03*
X015926Y019486D03*
D58*
X015926Y018482D03*
X015926Y018478D03*
D59*
X015926Y018486D03*
X015926Y019482D03*
D60*
X015926Y018490D03*
D61*
X015926Y018494D03*
D62*
X015926Y018498D03*
X015926Y018502D03*
D63*
X015926Y018506D03*
X015926Y019474D03*
D64*
X015926Y018510D03*
D65*
X015926Y018514D03*
X015926Y018518D03*
D66*
X015926Y018522D03*
X015926Y018526D03*
D67*
X015926Y018530D03*
D68*
X015926Y018534D03*
X015926Y019466D03*
D69*
X015926Y018542D03*
X015926Y018538D03*
D70*
X015926Y018546D03*
X015926Y018554D03*
X015926Y019462D03*
D71*
X015926Y018550D03*
D72*
X015926Y018558D03*
X015926Y018562D03*
X015926Y019426D03*
X015926Y019458D03*
D73*
X015926Y019454D03*
X015926Y019434D03*
X015926Y018566D03*
D74*
X015926Y018570D03*
X015926Y019430D03*
D75*
X015926Y019438D03*
X015930Y018806D03*
X015926Y018582D03*
X015926Y018578D03*
X015926Y018574D03*
D76*
X015926Y018586D03*
X015926Y018802D03*
X015926Y019442D03*
X015926Y019446D03*
D77*
X015926Y018590D03*
D78*
X015926Y018594D03*
X015926Y018598D03*
X015926Y018798D03*
D79*
X015926Y018606D03*
X015926Y018602D03*
D80*
X015928Y018610D03*
D81*
X015928Y018614D03*
X015928Y018618D03*
D82*
X015928Y018622D03*
X015928Y018626D03*
D83*
X015926Y018630D03*
D84*
X015926Y018634D03*
D85*
X015924Y018638D03*
D86*
X015926Y018642D03*
X015926Y018734D03*
D87*
X015926Y018646D03*
D88*
X015926Y018650D03*
D89*
X015926Y018654D03*
X015926Y018722D03*
D90*
X015926Y018718D03*
X015926Y018658D03*
D91*
X015926Y018662D03*
X015926Y018714D03*
D92*
X015924Y018666D03*
D93*
X015926Y018670D03*
D94*
X015926Y018674D03*
X015926Y018702D03*
X015926Y018706D03*
D95*
X015924Y018698D03*
X015924Y018682D03*
X015924Y018678D03*
D96*
X015926Y018686D03*
X015926Y018694D03*
D97*
X015926Y018690D03*
D98*
X015924Y018710D03*
D99*
X015926Y018726D03*
D100*
X015926Y018730D03*
D101*
X015916Y018766D03*
X015920Y018778D03*
D102*
X015918Y018770D03*
D103*
X015918Y018774D03*
D104*
X015920Y018782D03*
X015920Y018786D03*
D105*
X015922Y018790D03*
D106*
X015924Y018794D03*
D107*
X015932Y018810D03*
D108*
X015932Y018814D03*
X015932Y018818D03*
D109*
X016032Y018822D03*
D110*
X015700Y018838D03*
X015696Y018826D03*
X015696Y018822D03*
D111*
X016034Y018826D03*
D112*
X016034Y018830D03*
D113*
X015698Y018830D03*
D114*
X016034Y018834D03*
D115*
X015698Y018834D03*
D116*
X016038Y018838D03*
D117*
X016040Y018842D03*
D118*
X015738Y018846D03*
X015734Y018842D03*
X015818Y019218D03*
X015814Y019222D03*
D119*
X015628Y018842D03*
D120*
X016042Y018846D03*
X015926Y019254D03*
D121*
X015926Y018994D03*
X015610Y018846D03*
D122*
X016044Y018850D03*
D123*
X015744Y018850D03*
X016088Y019290D03*
D124*
X016038Y019378D03*
X016054Y018854D03*
D125*
X015926Y018922D03*
X015926Y019078D03*
X015806Y019238D03*
X015746Y018854D03*
D126*
X016060Y018858D03*
D127*
X015752Y018858D03*
X015804Y019242D03*
D128*
X015994Y019298D03*
X016058Y018862D03*
D129*
X015758Y018862D03*
D130*
X016056Y018866D03*
D131*
X015928Y018918D03*
X015764Y018866D03*
D132*
X016050Y018870D03*
X015926Y019530D03*
D133*
X015808Y019250D03*
X015772Y018870D03*
D134*
X016044Y018874D03*
D135*
X015790Y018874D03*
D136*
X015926Y019038D03*
X015926Y019042D03*
X016154Y018878D03*
D137*
X016152Y018882D03*
X016052Y018906D03*
D138*
X015904Y018882D03*
D139*
X015908Y018886D03*
D140*
X015912Y018890D03*
X016032Y019370D03*
D141*
X015760Y018894D03*
D142*
X015932Y018898D03*
D143*
X016052Y018902D03*
D144*
X015898Y018902D03*
X015926Y019146D03*
X016126Y019414D03*
X015926Y019538D03*
D145*
X016114Y019394D03*
X016118Y019398D03*
X015898Y018906D03*
D146*
X016056Y018910D03*
D147*
X015928Y018910D03*
D148*
X015814Y018910D03*
D149*
X016056Y018914D03*
D150*
X015928Y018914D03*
D151*
X015926Y019018D03*
X015810Y018914D03*
D152*
X016058Y018918D03*
D153*
X015928Y018942D03*
X015808Y018918D03*
D154*
X015802Y018926D03*
X016058Y018922D03*
D155*
X015804Y018922D03*
D156*
X016060Y018926D03*
D157*
X015928Y018926D03*
X016084Y019282D03*
X015752Y019306D03*
D158*
X015928Y018930D03*
D159*
X015798Y018930D03*
D160*
X015928Y018934D03*
D161*
X015928Y018938D03*
D162*
X015926Y018990D03*
D163*
X015926Y018998D03*
D164*
X015926Y019002D03*
D165*
X015926Y019006D03*
D166*
X015926Y019010D03*
D167*
X015926Y019014D03*
D168*
X015926Y019022D03*
X015926Y019026D03*
D169*
X015926Y019030D03*
D170*
X015926Y019034D03*
D171*
X015926Y019046D03*
D172*
X015926Y019050D03*
D173*
X015926Y019054D03*
X015926Y019058D03*
D174*
X015926Y019062D03*
D175*
X015926Y019066D03*
X015750Y019302D03*
D176*
X015928Y019070D03*
D177*
X015926Y019074D03*
X015810Y019226D03*
X015806Y019234D03*
X016086Y019286D03*
D178*
X015926Y019082D03*
X015806Y019246D03*
D179*
X015926Y019086D03*
D180*
X015926Y019090D03*
D181*
X015926Y019094D03*
D182*
X015926Y019098D03*
X015926Y019102D03*
D183*
X015926Y019106D03*
D184*
X015926Y019110D03*
D185*
X015926Y019114D03*
X015926Y019118D03*
D186*
X015926Y019122D03*
X015998Y019218D03*
X016002Y019222D03*
X016006Y019226D03*
D187*
X016010Y019238D03*
X015926Y019126D03*
D188*
X015926Y019130D03*
D189*
X015926Y019134D03*
D190*
X015926Y019138D03*
D191*
X015926Y019142D03*
X016122Y019406D03*
D192*
X015926Y019150D03*
D193*
X015926Y019154D03*
D194*
X015926Y019158D03*
D195*
X015926Y019162D03*
X015926Y019166D03*
D196*
X015926Y019170D03*
D197*
X015926Y019174D03*
X015926Y019534D03*
D198*
X015926Y019182D03*
X015926Y019178D03*
D199*
X015926Y019186D03*
D200*
X015926Y019190D03*
D201*
X015926Y019202D03*
D202*
X015926Y019206D03*
D203*
X015926Y019210D03*
D204*
X015926Y019214D03*
D205*
X016006Y019230D03*
D206*
X015810Y019230D03*
D207*
X015740Y019374D03*
X016008Y019234D03*
D208*
X016010Y019242D03*
X016010Y019246D03*
D209*
X016008Y019250D03*
D210*
X015926Y019266D03*
D211*
X015926Y019270D03*
D212*
X015924Y019274D03*
D213*
X015858Y019282D03*
D214*
X015916Y019286D03*
X015920Y019294D03*
D215*
X015758Y019286D03*
X015754Y019294D03*
D216*
X015918Y019290D03*
D217*
X015754Y019290D03*
D218*
X016088Y019294D03*
D219*
X015752Y019298D03*
D220*
X015996Y019302D03*
D221*
X015994Y019306D03*
D222*
X015926Y019310D03*
D223*
X015926Y019318D03*
X015926Y019322D03*
X015926Y019502D03*
D224*
X015926Y019330D03*
D225*
X015926Y019350D03*
D226*
X015746Y019370D03*
D227*
X015796Y019398D03*
X015796Y019402D03*
X016036Y019374D03*
D228*
X015738Y019378D03*
D229*
X016040Y019382D03*
D230*
X015736Y019382D03*
D231*
X016038Y019386D03*
D232*
X015740Y019386D03*
D233*
X015926Y019390D03*
D234*
X015800Y019394D03*
X015792Y019406D03*
D235*
X016120Y019402D03*
D236*
X016124Y019410D03*
D237*
X015790Y019410D03*
D238*
X015790Y019414D03*
X015790Y019418D03*
D239*
X016124Y019418D03*
D240*
X016124Y019422D03*
D241*
X015790Y019422D03*
D242*
X015926Y019450D03*
D243*
X015926Y019470D03*
D244*
X015924Y019478D03*
D245*
X015926Y019490D03*
D246*
X015926Y019510D03*
D247*
X015926Y019522D03*
D248*
X015926Y019526D03*
D249*
X015928Y019542D03*
D250*
X015924Y019546D03*
D251*
X008266Y005945D03*
X005786Y005945D03*
M02*
