G75*
%MOIN*%
%OFA0B0*%
%FSLAX24Y24*%
%IPPOS*%
%LPD*%
%AMOC8*
5,1,8,0,0,1.08239X$1,22.5*
%
%ADD10C,0.0160*%
%ADD11C,0.0080*%
%ADD12C,0.0060*%
%ADD13C,0.0020*%
%ADD14C,0.0050*%
%ADD15C,0.0040*%
D10*
X001046Y000180D02*
X017188Y000180D01*
X017188Y019865D01*
X001046Y019865D01*
X001046Y000180D01*
D11*
X013005Y012496D02*
X013005Y013284D01*
X013408Y012890D01*
X013005Y012496D01*
X012153Y014826D02*
X014734Y014826D01*
X014734Y016226D01*
X012153Y016226D01*
X012153Y014826D01*
X011919Y014826D02*
X009338Y014826D01*
X009338Y016226D01*
X011919Y016226D01*
X011919Y014826D01*
X009017Y014842D02*
X006437Y014842D01*
X006437Y016242D01*
X009017Y016242D01*
X009017Y014842D01*
X006100Y014858D02*
X003519Y014858D01*
X003519Y016258D01*
X006100Y016258D01*
X006100Y014858D01*
D12*
X006937Y013468D02*
X008037Y013468D01*
X008054Y013466D01*
X008071Y013462D01*
X008087Y013455D01*
X008101Y013445D01*
X008114Y013432D01*
X008124Y013418D01*
X008131Y013402D01*
X008135Y013385D01*
X008137Y013368D01*
X008137Y012768D01*
X008135Y012751D01*
X008131Y012734D01*
X008124Y012718D01*
X008114Y012704D01*
X008101Y012691D01*
X008087Y012681D01*
X008071Y012674D01*
X008054Y012670D01*
X008037Y012668D01*
X006937Y012668D01*
X006920Y012670D01*
X006903Y012674D01*
X006887Y012681D01*
X006873Y012691D01*
X006860Y012704D01*
X006850Y012718D01*
X006843Y012734D01*
X006839Y012751D01*
X006837Y012768D01*
X006837Y013368D01*
X006839Y013385D01*
X006843Y013402D01*
X006850Y013418D01*
X006860Y013432D01*
X006873Y013445D01*
X006887Y013455D01*
X006903Y013462D01*
X006920Y013466D01*
X006937Y013468D01*
X008848Y013337D02*
X008848Y012737D01*
X008850Y012720D01*
X008854Y012703D01*
X008861Y012687D01*
X008871Y012673D01*
X008884Y012660D01*
X008898Y012650D01*
X008914Y012643D01*
X008931Y012639D01*
X008948Y012637D01*
X010048Y012637D01*
X010065Y012639D01*
X010082Y012643D01*
X010098Y012650D01*
X010112Y012660D01*
X010125Y012673D01*
X010135Y012687D01*
X010142Y012703D01*
X010146Y012720D01*
X010148Y012737D01*
X010148Y013337D01*
X010146Y013354D01*
X010142Y013371D01*
X010135Y013387D01*
X010125Y013401D01*
X010112Y013414D01*
X010098Y013424D01*
X010082Y013431D01*
X010065Y013435D01*
X010048Y013437D01*
X008948Y013437D01*
X008931Y013435D01*
X008914Y013431D01*
X008898Y013424D01*
X008884Y013414D01*
X008871Y013401D01*
X008861Y013387D01*
X008854Y013371D01*
X008850Y013354D01*
X008848Y013337D01*
X009184Y012305D02*
X009784Y012305D01*
X009801Y012303D01*
X009818Y012299D01*
X009834Y012292D01*
X009848Y012282D01*
X009861Y012269D01*
X009871Y012255D01*
X009878Y012239D01*
X009882Y012222D01*
X009884Y012205D01*
X009884Y011105D01*
X009882Y011088D01*
X009878Y011071D01*
X009871Y011055D01*
X009861Y011041D01*
X009848Y011028D01*
X009834Y011018D01*
X009818Y011011D01*
X009801Y011007D01*
X009784Y011005D01*
X009184Y011005D01*
X009167Y011007D01*
X009150Y011011D01*
X009134Y011018D01*
X009120Y011028D01*
X009107Y011041D01*
X009097Y011055D01*
X009090Y011071D01*
X009086Y011088D01*
X009084Y011105D01*
X009084Y012205D01*
X009086Y012222D01*
X009090Y012239D01*
X009097Y012255D01*
X009107Y012269D01*
X009120Y012282D01*
X009134Y012292D01*
X009150Y012299D01*
X009167Y012303D01*
X009184Y012305D01*
X009184Y011478D02*
X009784Y011478D01*
X009801Y011476D01*
X009818Y011472D01*
X009834Y011465D01*
X009848Y011455D01*
X009861Y011442D01*
X009871Y011428D01*
X009878Y011412D01*
X009882Y011395D01*
X009884Y011378D01*
X009884Y010278D01*
X009882Y010261D01*
X009878Y010244D01*
X009871Y010228D01*
X009861Y010214D01*
X009848Y010201D01*
X009834Y010191D01*
X009818Y010184D01*
X009801Y010180D01*
X009784Y010178D01*
X009184Y010178D01*
X009171Y010195D02*
X009771Y010195D01*
X009788Y010193D01*
X009805Y010189D01*
X009821Y010182D01*
X009835Y010172D01*
X009848Y010159D01*
X009858Y010145D01*
X009865Y010129D01*
X009869Y010112D01*
X009871Y010095D01*
X009871Y008995D01*
X009869Y008978D01*
X009865Y008961D01*
X009858Y008945D01*
X009848Y008931D01*
X009835Y008918D01*
X009821Y008908D01*
X009805Y008901D01*
X009788Y008897D01*
X009771Y008895D01*
X009171Y008895D01*
X009154Y008897D01*
X009137Y008901D01*
X009121Y008908D01*
X009107Y008918D01*
X009094Y008931D01*
X009084Y008945D01*
X009077Y008961D01*
X009073Y008978D01*
X009071Y008995D01*
X009071Y010095D01*
X009073Y010112D01*
X009077Y010129D01*
X009084Y010145D01*
X009094Y010159D01*
X009107Y010172D01*
X009121Y010182D01*
X009137Y010189D01*
X009154Y010193D01*
X009171Y010195D01*
X009184Y010178D02*
X009167Y010180D01*
X009150Y010184D01*
X009134Y010191D01*
X009120Y010201D01*
X009107Y010214D01*
X009097Y010228D01*
X009090Y010244D01*
X009086Y010261D01*
X009084Y010278D01*
X009084Y011378D01*
X009086Y011395D01*
X009090Y011412D01*
X009097Y011428D01*
X009107Y011442D01*
X009120Y011455D01*
X009134Y011465D01*
X009150Y011472D01*
X009167Y011476D01*
X009184Y011478D01*
X009500Y007273D02*
X009500Y006853D01*
X009500Y006453D01*
X009500Y006033D01*
X009502Y006010D01*
X009507Y005987D01*
X009516Y005965D01*
X009529Y005945D01*
X009544Y005927D01*
X009562Y005912D01*
X009582Y005899D01*
X009604Y005890D01*
X009627Y005885D01*
X009650Y005883D01*
X009500Y006453D02*
X009527Y006455D01*
X009554Y006460D01*
X009580Y006470D01*
X009604Y006482D01*
X009626Y006498D01*
X009646Y006516D01*
X009663Y006538D01*
X009678Y006561D01*
X009688Y006586D01*
X009696Y006612D01*
X009700Y006639D01*
X009700Y006667D01*
X009696Y006694D01*
X009688Y006720D01*
X009678Y006745D01*
X009663Y006768D01*
X009646Y006790D01*
X009626Y006808D01*
X009604Y006824D01*
X009580Y006836D01*
X009554Y006846D01*
X009527Y006851D01*
X009500Y006853D01*
X009500Y007273D02*
X009502Y007296D01*
X009507Y007319D01*
X009516Y007341D01*
X009529Y007361D01*
X009544Y007379D01*
X009562Y007394D01*
X009582Y007407D01*
X009604Y007416D01*
X009627Y007421D01*
X009650Y007423D01*
X012850Y007423D02*
X012873Y007421D01*
X012896Y007416D01*
X012918Y007407D01*
X012938Y007394D01*
X012956Y007379D01*
X012971Y007361D01*
X012984Y007341D01*
X012993Y007319D01*
X012998Y007296D01*
X013000Y007273D01*
X013000Y006033D01*
X012998Y006010D01*
X012993Y005987D01*
X012984Y005965D01*
X012971Y005945D01*
X012956Y005927D01*
X012938Y005912D01*
X012918Y005899D01*
X012896Y005890D01*
X012873Y005885D01*
X012850Y005883D01*
D13*
X013000Y007283D02*
X009500Y007283D01*
D14*
X008921Y008839D02*
X008846Y008839D01*
X008771Y008914D01*
X008771Y009064D01*
X008696Y009139D01*
X008621Y009139D01*
X008546Y009064D01*
X008546Y008914D01*
X008621Y008839D01*
X008921Y008839D02*
X008996Y008914D01*
X008996Y009064D01*
X008921Y009139D01*
X008621Y009299D02*
X008546Y009374D01*
X008546Y009449D01*
X008621Y009524D01*
X008996Y009524D01*
X008996Y009449D02*
X008996Y009599D01*
X008846Y009760D02*
X008996Y009910D01*
X008846Y010060D01*
X008546Y010060D01*
X008634Y010122D02*
X008559Y010197D01*
X008559Y010347D01*
X008634Y010422D01*
X008709Y010422D01*
X008784Y010347D01*
X008784Y010197D01*
X008859Y010122D01*
X008934Y010122D01*
X009009Y010197D01*
X009009Y010347D01*
X008934Y010422D01*
X008634Y010582D02*
X008559Y010657D01*
X008559Y010732D01*
X008634Y010807D01*
X009009Y010807D01*
X009009Y010732D02*
X009009Y010882D01*
X008934Y011043D02*
X008634Y011043D01*
X008559Y011118D01*
X008559Y011268D01*
X008634Y011343D01*
X008934Y011343D02*
X009009Y011268D01*
X009009Y011118D01*
X008934Y011043D01*
X008771Y010060D02*
X008771Y009760D01*
X008846Y009760D02*
X008546Y009760D01*
X009959Y011105D02*
X009959Y011255D01*
X010034Y011330D01*
X010109Y011330D01*
X010184Y011255D01*
X010184Y011105D01*
X010259Y011030D01*
X010334Y011030D01*
X010409Y011105D01*
X010409Y011255D01*
X010334Y011330D01*
X010409Y011641D02*
X010409Y011791D01*
X010409Y011716D02*
X010034Y011716D01*
X009959Y011641D01*
X009959Y011565D01*
X010034Y011490D01*
X009959Y011105D02*
X010034Y011030D01*
X010034Y011951D02*
X009959Y012026D01*
X009959Y012176D01*
X010034Y012251D01*
X010334Y012251D01*
X010409Y012176D01*
X010409Y012026D01*
X010334Y011951D01*
X010034Y011951D01*
D15*
X012191Y012140D02*
X013971Y012140D01*
X013971Y013640D02*
X012191Y013640D01*
M02*
