G75*
%MOIN*%
%OFA0B0*%
%FSLAX24Y24*%
%IPPOS*%
%LPD*%
%AMOC8*
5,1,8,0,0,1.08239X$1,22.5*
%
%ADD10C,0.0160*%
%ADD11C,0.0030*%
%ADD12R,0.0540X0.0260*%
%ADD13R,0.0260X0.0540*%
%ADD14OC8,0.0640*%
%ADD15OC8,0.1290*%
%ADD16R,0.0512X0.0512*%
%ADD17C,0.0640*%
%ADD18C,0.0600*%
%ADD19OC8,0.0600*%
%ADD20R,0.0540X0.1040*%
%ADD21R,0.1040X0.0540*%
%ADD22R,0.0500X0.0670*%
%ADD23R,0.0060X0.0720*%
%ADD24R,0.0906X0.0276*%
%ADD25R,0.0552X0.0631*%
%ADD26R,0.0840X0.0300*%
%ADD27R,0.0631X0.0552*%
%ADD28R,0.1103X0.0670*%
%ADD29C,0.0640*%
%ADD30OC8,0.0800*%
%ADD31R,0.0670X0.0500*%
%ADD32R,0.0720X0.0060*%
%ADD33R,0.0827X0.0473*%
D10*
X001046Y000180D02*
X017188Y000180D01*
X017188Y019865D01*
X001046Y019865D01*
X001046Y000180D01*
D11*
X003850Y000383D02*
X003898Y000334D01*
X003995Y000334D01*
X004044Y000383D01*
X004044Y000479D01*
X003995Y000528D01*
X003947Y000528D01*
X003850Y000479D01*
X003850Y000624D01*
X004044Y000624D01*
X004145Y000624D02*
X004145Y000431D01*
X004241Y000334D01*
X004338Y000431D01*
X004338Y000624D01*
X005474Y000502D02*
X005667Y000502D01*
X005768Y000502D02*
X005768Y000550D01*
X005817Y000550D01*
X005817Y000502D01*
X005768Y000502D01*
X005768Y000405D02*
X005768Y000357D01*
X005817Y000357D01*
X005817Y000405D01*
X005768Y000405D01*
X005916Y000357D02*
X005916Y000550D01*
X006012Y000647D01*
X006109Y000550D01*
X006109Y000357D01*
X006210Y000357D02*
X006355Y000357D01*
X006404Y000405D01*
X006404Y000599D01*
X006355Y000647D01*
X006210Y000647D01*
X006210Y000357D01*
X006109Y000502D02*
X005916Y000502D01*
X005619Y000357D02*
X005619Y000647D01*
X005474Y000502D01*
X006505Y000599D02*
X006505Y000405D01*
X006553Y000357D01*
X006650Y000357D01*
X006698Y000405D01*
X006698Y000599D02*
X006650Y000647D01*
X006553Y000647D01*
X006505Y000599D01*
X007319Y000665D02*
X007319Y000520D01*
X007416Y000568D01*
X007465Y000568D01*
X007513Y000520D01*
X007513Y000423D01*
X007465Y000375D01*
X007368Y000375D01*
X007319Y000423D01*
X007319Y000665D02*
X007513Y000665D01*
X007614Y000568D02*
X007614Y000520D01*
X007662Y000520D01*
X007662Y000568D01*
X007614Y000568D01*
X007614Y000423D02*
X007614Y000375D01*
X007662Y000375D01*
X007662Y000423D01*
X007614Y000423D01*
X007761Y000423D02*
X007810Y000375D01*
X007906Y000375D01*
X007955Y000423D01*
X008056Y000327D02*
X008250Y000327D01*
X008351Y000375D02*
X008447Y000375D01*
X008399Y000375D02*
X008399Y000665D01*
X008351Y000665D02*
X008447Y000665D01*
X008547Y000665D02*
X008741Y000375D01*
X008741Y000665D01*
X008547Y000665D02*
X008547Y000375D01*
X007955Y000617D02*
X007906Y000665D01*
X007810Y000665D01*
X007761Y000617D01*
X007761Y000423D01*
X009271Y000427D02*
X009319Y000379D01*
X009416Y000379D01*
X009465Y000427D01*
X009465Y000476D01*
X009416Y000524D01*
X009271Y000524D01*
X009271Y000427D01*
X009271Y000524D02*
X009368Y000621D01*
X009465Y000669D01*
X009566Y000572D02*
X009566Y000524D01*
X009614Y000524D01*
X009614Y000572D01*
X009566Y000572D01*
X009566Y000427D02*
X009566Y000379D01*
X009614Y000379D01*
X009614Y000427D01*
X009566Y000427D01*
X009713Y000379D02*
X009713Y000572D01*
X009810Y000669D01*
X009907Y000572D01*
X009907Y000379D01*
X010008Y000331D02*
X010201Y000331D01*
X010302Y000379D02*
X010399Y000379D01*
X010351Y000379D02*
X010351Y000669D01*
X010399Y000669D02*
X010302Y000669D01*
X010499Y000669D02*
X010692Y000379D01*
X010692Y000669D01*
X010499Y000669D02*
X010499Y000379D01*
X009907Y000524D02*
X009713Y000524D01*
X011446Y000437D02*
X011446Y000389D01*
X011446Y000437D02*
X011639Y000631D01*
X011639Y000679D01*
X011446Y000679D01*
X011740Y000582D02*
X011740Y000534D01*
X011789Y000534D01*
X011789Y000582D01*
X011740Y000582D01*
X011740Y000437D02*
X011740Y000389D01*
X011789Y000389D01*
X011789Y000437D01*
X011740Y000437D01*
X011888Y000389D02*
X011888Y000679D01*
X012081Y000389D01*
X012081Y000679D01*
X012182Y000679D02*
X012182Y000389D01*
X012376Y000389D01*
X012477Y000437D02*
X012525Y000389D01*
X012622Y000389D01*
X012670Y000437D01*
X012670Y000631D01*
X012622Y000679D01*
X012525Y000679D01*
X012477Y000631D01*
X012477Y000437D01*
X012279Y000534D02*
X012182Y000534D01*
X012182Y000679D02*
X012376Y000679D01*
X013661Y000618D02*
X013661Y000424D01*
X013709Y000376D01*
X013806Y000376D01*
X013854Y000424D01*
X013854Y000521D01*
X013758Y000521D01*
X013854Y000618D02*
X013806Y000666D01*
X013709Y000666D01*
X013661Y000618D01*
X013955Y000666D02*
X013955Y000376D01*
X014149Y000376D02*
X014149Y000666D01*
X014250Y000666D02*
X014395Y000666D01*
X014444Y000618D01*
X014444Y000424D01*
X014395Y000376D01*
X014250Y000376D01*
X014250Y000666D01*
X013955Y000666D02*
X014149Y000376D01*
X013179Y003226D02*
X013179Y003516D01*
X012985Y003516D02*
X013179Y003226D01*
X012985Y003226D02*
X012985Y003516D01*
X012885Y003516D02*
X012789Y003516D01*
X012837Y003516D02*
X012837Y003226D01*
X012789Y003226D02*
X012885Y003226D01*
X012687Y003178D02*
X012494Y003178D01*
X012393Y003226D02*
X012393Y003420D01*
X012296Y003516D01*
X012199Y003420D01*
X012199Y003226D01*
X012199Y003371D02*
X012393Y003371D01*
X011806Y003371D02*
X011757Y003371D01*
X011757Y003420D01*
X011806Y003420D01*
X011806Y003371D01*
X011806Y003274D02*
X011806Y003226D01*
X011757Y003226D01*
X011757Y003274D01*
X011806Y003274D01*
X011656Y003274D02*
X011608Y003226D01*
X011511Y003226D01*
X011463Y003274D01*
X011463Y003323D01*
X011511Y003371D01*
X011608Y003371D01*
X011656Y003323D01*
X011656Y003274D01*
X011608Y003371D02*
X011656Y003420D01*
X011656Y003468D01*
X011608Y003516D01*
X011511Y003516D01*
X011463Y003468D01*
X011463Y003420D01*
X011511Y003371D01*
X012922Y004339D02*
X013115Y004339D01*
X013019Y004339D02*
X013019Y004629D01*
X012922Y004532D01*
X013217Y004532D02*
X013313Y004629D01*
X013313Y004339D01*
X013217Y004339D02*
X013410Y004339D01*
X013596Y008690D02*
X013499Y008786D01*
X013790Y008786D01*
X013790Y008690D02*
X013790Y008883D01*
X013741Y008984D02*
X013548Y009178D01*
X013741Y009178D01*
X013790Y009129D01*
X013790Y009033D01*
X013741Y008984D01*
X013548Y008984D01*
X013499Y009033D01*
X013499Y009129D01*
X013548Y009178D01*
X005299Y009639D02*
X005299Y009833D01*
X005250Y009881D01*
X005153Y009881D01*
X005105Y009833D01*
X005105Y009785D01*
X005153Y009736D01*
X005299Y009736D01*
X005299Y009639D02*
X005250Y009591D01*
X005153Y009591D01*
X005105Y009639D01*
D12*
X009277Y007865D03*
X009277Y007550D03*
X009277Y007235D03*
X009277Y006920D03*
X009277Y006605D03*
X009277Y006290D03*
X009277Y005975D03*
X009277Y005660D03*
X012657Y005660D03*
X012657Y005975D03*
X012657Y006290D03*
X012657Y006605D03*
X012657Y006920D03*
X012657Y007235D03*
X012657Y007550D03*
X012657Y007865D03*
D13*
X012069Y008453D03*
X011754Y008453D03*
X011440Y008453D03*
X011125Y008453D03*
X010810Y008453D03*
X010495Y008453D03*
X010180Y008453D03*
X009865Y008453D03*
X009865Y005073D03*
X010180Y005073D03*
X010495Y005073D03*
X010810Y005073D03*
X011125Y005073D03*
X011440Y005073D03*
X011754Y005073D03*
X012069Y005073D03*
D14*
X008085Y007507D03*
X008085Y008507D03*
X007085Y008507D03*
X006085Y008507D03*
X006085Y007507D03*
X007085Y007507D03*
D15*
X006169Y009771D03*
X006164Y001361D03*
X008132Y001361D03*
X010101Y001361D03*
X012069Y001361D03*
X014038Y001361D03*
X013943Y003796D03*
X004195Y001361D03*
X004195Y018684D03*
X006164Y018684D03*
X008132Y018684D03*
X010101Y018684D03*
X012069Y018684D03*
X014038Y018684D03*
D16*
X007782Y006015D03*
X006955Y006015D03*
D17*
X005054Y005908D02*
X004454Y005908D01*
X004454Y004908D02*
X005054Y004908D01*
X005054Y003908D02*
X004454Y003908D01*
X004454Y006908D02*
X005054Y006908D01*
X005054Y007908D02*
X004454Y007908D01*
X004454Y008908D02*
X005054Y008908D01*
D18*
X001617Y000735D03*
X015617Y000735D03*
D19*
X016617Y000735D03*
X016617Y001735D03*
X016617Y002735D03*
X016617Y003735D03*
X016617Y004735D03*
X016617Y005735D03*
X016617Y006735D03*
X016617Y007735D03*
X016617Y008735D03*
X016617Y009735D03*
X016617Y010735D03*
X016617Y011735D03*
X016617Y012735D03*
X016617Y013735D03*
X016617Y014735D03*
X016617Y015735D03*
X016617Y016735D03*
X016617Y017735D03*
X015617Y017735D03*
X015617Y016735D03*
X015617Y015735D03*
X015617Y014735D03*
X015617Y013735D03*
X015617Y012735D03*
X015617Y011735D03*
X015617Y010735D03*
X015617Y009735D03*
X015617Y008735D03*
X015617Y007735D03*
X015617Y006735D03*
X015617Y005735D03*
X015617Y004735D03*
X015617Y003735D03*
X015617Y002735D03*
X015617Y001735D03*
X002617Y001735D03*
X002617Y000735D03*
X001617Y001735D03*
X001617Y002735D03*
X001617Y003735D03*
X001617Y004735D03*
X001617Y005735D03*
X001617Y006735D03*
X001617Y007735D03*
X001617Y008735D03*
X001617Y009735D03*
X001617Y010735D03*
X001617Y011735D03*
X001617Y012735D03*
X001617Y013735D03*
X001617Y014735D03*
X001617Y015735D03*
X001617Y016735D03*
X001617Y017735D03*
X002617Y017735D03*
X002617Y016735D03*
X002617Y015735D03*
X002617Y014735D03*
X002617Y013735D03*
X002617Y012735D03*
X002617Y011735D03*
X002617Y010735D03*
X002617Y009735D03*
X002617Y008735D03*
X002617Y007735D03*
X002617Y006735D03*
X002617Y005735D03*
X002617Y004735D03*
X002617Y003735D03*
X002617Y002735D03*
D20*
X014224Y008903D03*
D21*
X012857Y004995D03*
D22*
X012683Y011792D03*
X013283Y011792D03*
X004425Y010089D03*
X003825Y010089D03*
X002736Y018782D03*
X002136Y018782D03*
D23*
X002436Y018782D03*
X004125Y010089D03*
X012983Y011792D03*
D24*
X009156Y011788D03*
X009156Y011288D03*
X009156Y012288D03*
X009156Y012788D03*
X009156Y013288D03*
X009156Y013788D03*
X009156Y014288D03*
X009156Y014788D03*
X009156Y015288D03*
X009156Y015788D03*
X005534Y015788D03*
X005534Y015288D03*
X005534Y014788D03*
X005534Y014288D03*
X005534Y013788D03*
X005534Y013288D03*
X005534Y012788D03*
X005534Y012288D03*
X005534Y011788D03*
X005534Y011288D03*
D25*
X004485Y010932D03*
X003737Y010932D03*
D26*
X010992Y013306D03*
X010992Y013806D03*
X010992Y014306D03*
X010992Y014806D03*
X010992Y015306D03*
X010992Y015806D03*
X010992Y016306D03*
X013412Y016306D03*
X013412Y015806D03*
X013412Y015306D03*
X013412Y014806D03*
X013412Y014306D03*
X013412Y013806D03*
X013412Y013306D03*
D27*
X014359Y014525D03*
X014359Y015273D03*
X005786Y006654D03*
X005786Y005906D03*
D28*
X003967Y015086D03*
X003967Y016188D03*
D29*
X014144Y007696D03*
X014144Y006696D03*
X014144Y005696D03*
D30*
X014144Y010633D03*
D31*
X003686Y006180D03*
X003686Y005580D03*
D32*
X003686Y005880D03*
D33*
X006618Y005271D03*
X006618Y006609D03*
X008193Y006609D03*
X008193Y005271D03*
M02*
