G75*
%MOIN*%
%OFA0B0*%
%FSLAX24Y24*%
%IPPOS*%
%LPD*%
%AMOC8*
5,1,8,0,0,1.08239X$1,22.5*
%
%ADD10C,0.0160*%
%ADD11C,0.0030*%
%ADD12C,0.0060*%
%ADD13OC8,0.0640*%
%ADD14R,0.0520X0.0920*%
%ADD15R,0.1457X0.0906*%
%ADD16OC8,0.1290*%
%ADD17R,0.0827X0.0670*%
%ADD18R,0.0552X0.0631*%
%ADD19C,0.0640*%
%ADD20C,0.0600*%
%ADD21OC8,0.0600*%
%ADD22R,0.0500X0.0670*%
%ADD23R,0.0060X0.0720*%
%ADD24R,0.1040X0.0540*%
%ADD25R,0.0670X0.0749*%
%ADD26R,0.0670X0.0500*%
%ADD27R,0.0720X0.0060*%
%ADD28C,0.0640*%
%ADD29OC8,0.0800*%
%ADD30R,0.0004X0.0312*%
%ADD31R,0.0004X0.0344*%
%ADD32R,0.0004X0.0368*%
%ADD33R,0.0004X0.0392*%
%ADD34R,0.0004X0.0408*%
%ADD35R,0.0004X0.0424*%
%ADD36R,0.0004X0.0432*%
%ADD37R,0.0004X0.0448*%
%ADD38R,0.0004X0.0456*%
%ADD39R,0.0004X0.0472*%
%ADD40R,0.0004X0.0480*%
%ADD41R,0.0004X0.0488*%
%ADD42R,0.0004X0.0496*%
%ADD43R,0.0004X0.0504*%
%ADD44R,0.0004X0.0512*%
%ADD45R,0.0004X0.0520*%
%ADD46R,0.0004X0.0528*%
%ADD47R,0.0004X0.0536*%
%ADD48R,0.0004X0.0536*%
%ADD49R,0.0004X0.0544*%
%ADD50R,0.0004X0.0552*%
%ADD51R,0.0004X0.0560*%
%ADD52R,0.0004X0.0560*%
%ADD53R,0.0004X0.0568*%
%ADD54R,0.0004X0.0576*%
%ADD55R,0.0004X0.0584*%
%ADD56R,0.0004X0.0592*%
%ADD57R,0.0004X0.0592*%
%ADD58R,0.0004X0.0600*%
%ADD59R,0.0004X0.0608*%
%ADD60R,0.0004X0.0608*%
%ADD61R,0.0004X0.0616*%
%ADD62R,0.0004X0.0624*%
%ADD63R,0.0004X0.0632*%
%ADD64R,0.0004X0.0632*%
%ADD65R,0.0004X0.0640*%
%ADD66R,0.0004X0.0648*%
%ADD67R,0.0004X0.0648*%
%ADD68R,0.0004X0.0656*%
%ADD69R,0.0004X0.0664*%
%ADD70R,0.0004X0.0664*%
%ADD71R,0.0004X0.0672*%
%ADD72R,0.0004X0.0680*%
%ADD73R,0.0004X0.0680*%
%ADD74R,0.0004X0.0688*%
%ADD75R,0.0004X0.0696*%
%ADD76R,0.0004X0.0700*%
%ADD77R,0.0004X0.0708*%
%ADD78R,0.0004X0.0716*%
%ADD79R,0.0004X0.0720*%
%ADD80R,0.0004X0.0720*%
%ADD81R,0.0004X0.0724*%
%ADD82R,0.0004X0.0808*%
%ADD83R,0.0004X0.0824*%
%ADD84R,0.0004X0.0832*%
%ADD85R,0.0004X0.0840*%
%ADD86R,0.0004X0.0848*%
%ADD87R,0.0004X0.0856*%
%ADD88R,0.0004X0.0860*%
%ADD89R,0.0004X0.0864*%
%ADD90R,0.0004X0.0864*%
%ADD91R,0.0004X0.0868*%
%ADD92R,0.0004X0.0872*%
%ADD93R,0.0004X0.0872*%
%ADD94R,0.0004X0.0860*%
%ADD95R,0.0004X0.0832*%
%ADD96R,0.0004X0.0824*%
%ADD97R,0.0004X0.0708*%
%ADD98R,0.0004X0.0712*%
%ADD99R,0.0004X0.0712*%
%ADD100R,0.0004X0.0700*%
%ADD101R,0.0004X0.0696*%
%ADD102R,0.0004X0.0692*%
%ADD103R,0.0004X0.0668*%
%ADD104R,0.0004X0.0660*%
%ADD105R,0.0004X0.0452*%
%ADD106R,0.0004X0.0188*%
%ADD107R,0.0004X0.0448*%
%ADD108R,0.0004X0.0440*%
%ADD109R,0.0004X0.0184*%
%ADD110R,0.0004X0.0432*%
%ADD111R,0.0004X0.0184*%
%ADD112R,0.0004X0.0424*%
%ADD113R,0.0004X0.0412*%
%ADD114R,0.0004X0.0128*%
%ADD115R,0.0004X0.0044*%
%ADD116R,0.0004X0.0400*%
%ADD117R,0.0004X0.0008*%
%ADD118R,0.0004X0.0388*%
%ADD119R,0.0004X0.0132*%
%ADD120R,0.0004X0.0360*%
%ADD121R,0.0004X0.0136*%
%ADD122R,0.0004X0.0340*%
%ADD123R,0.0004X0.0140*%
%ADD124R,0.0004X0.0328*%
%ADD125R,0.0004X0.0144*%
%ADD126R,0.0004X0.0324*%
%ADD127R,0.0004X0.0148*%
%ADD128R,0.0004X0.0320*%
%ADD129R,0.0004X0.0156*%
%ADD130R,0.0004X0.0316*%
%ADD131R,0.0004X0.0176*%
%ADD132R,0.0004X0.0080*%
%ADD133R,0.0004X0.0052*%
%ADD134R,0.0004X0.0380*%
%ADD135R,0.0004X0.0372*%
%ADD136R,0.0004X0.0356*%
%ADD137R,0.0004X0.0004*%
%ADD138R,0.0004X0.0308*%
%ADD139R,0.0004X0.0060*%
%ADD140R,0.0004X0.0240*%
%ADD141R,0.0004X0.0232*%
%ADD142R,0.0004X0.0044*%
%ADD143R,0.0004X0.0164*%
%ADD144R,0.0004X0.0056*%
%ADD145R,0.0004X0.0036*%
%ADD146R,0.0004X0.0156*%
%ADD147R,0.0004X0.0048*%
%ADD148R,0.0004X0.0024*%
%ADD149R,0.0004X0.0036*%
%ADD150R,0.0004X0.0016*%
%ADD151R,0.0004X0.0028*%
%ADD152R,0.0004X0.0012*%
%ADD153R,0.0004X0.0124*%
%ADD154R,0.0004X0.0108*%
%ADD155R,0.0004X0.0008*%
%ADD156R,0.0004X0.0092*%
%ADD157R,0.0004X0.0068*%
%ADD158R,0.0004X0.0008*%
%ADD159R,0.0004X0.0016*%
%ADD160R,0.0004X0.0024*%
%ADD161R,0.0004X0.0032*%
%ADD162R,0.0004X0.0032*%
%ADD163R,0.0004X0.0040*%
%ADD164R,0.0004X0.0056*%
%ADD165R,0.0004X0.0064*%
%ADD166R,0.0004X0.0072*%
%ADD167R,0.0004X0.0088*%
%ADD168R,0.0004X0.0096*%
%ADD169R,0.0004X0.0104*%
%ADD170R,0.0004X0.0112*%
%ADD171R,0.0004X0.0120*%
%ADD172R,0.0004X0.0124*%
%ADD173R,0.0004X0.0128*%
%ADD174R,0.0004X0.0144*%
%ADD175R,0.0004X0.0152*%
%ADD176R,0.0004X0.0152*%
%ADD177R,0.0004X0.0160*%
%ADD178R,0.0004X0.0168*%
%ADD179R,0.0004X0.0176*%
%ADD180R,0.0004X0.0184*%
%ADD181R,0.0004X0.0192*%
%ADD182R,0.0004X0.0200*%
%ADD183R,0.0004X0.0208*%
%ADD184R,0.0004X0.0216*%
%ADD185R,0.0004X0.0216*%
%ADD186R,0.0004X0.0224*%
%ADD187R,0.0004X0.0232*%
%ADD188R,0.0004X0.0240*%
%ADD189R,0.0004X0.0248*%
%ADD190R,0.0004X0.0256*%
%ADD191R,0.0004X0.0264*%
%ADD192R,0.0004X0.0272*%
%ADD193R,0.0004X0.0280*%
%ADD194R,0.0004X0.0288*%
%ADD195R,0.0004X0.0296*%
%ADD196R,0.0004X0.0304*%
%ADD197R,0.0004X0.0320*%
%ADD198R,0.0004X0.0328*%
%ADD199R,0.0004X0.0336*%
%ADD200R,0.0004X0.0336*%
%ADD201R,0.0004X0.0200*%
%ADD202R,0.0004X0.0128*%
%ADD203R,0.0004X0.0204*%
%ADD204R,0.0004X0.0216*%
%ADD205R,0.0004X0.0228*%
%ADD206R,0.0004X0.0416*%
%ADD207R,0.0004X0.0424*%
%ADD208R,0.0004X0.0428*%
%ADD209R,0.0004X0.0304*%
%ADD210R,0.0004X0.0180*%
%ADD211R,0.0004X0.0112*%
%ADD212R,0.0004X0.0176*%
%ADD213R,0.0004X0.0112*%
%ADD214R,0.0004X0.0132*%
%ADD215R,0.0004X0.0116*%
%ADD216R,0.0004X0.0332*%
%ADD217R,0.0004X0.0336*%
%ADD218R,0.0004X0.0480*%
%ADD219R,0.0004X0.0496*%
%ADD220R,0.0004X0.0512*%
%ADD221R,0.0004X0.0544*%
%ADD222R,0.0004X0.0208*%
%ADD223R,0.0004X0.0356*%
%ADD224R,0.0004X0.0208*%
%ADD225R,0.0004X0.0364*%
%ADD226R,0.0004X0.0212*%
%ADD227R,0.0004X0.0368*%
%ADD228R,0.0004X0.0220*%
%ADD229R,0.0004X0.0600*%
%ADD230R,0.0004X0.0356*%
%ADD231R,0.0004X0.0228*%
%ADD232R,0.0004X0.0236*%
%ADD233R,0.0004X0.0360*%
%ADD234R,0.0004X0.0368*%
%ADD235R,0.0004X0.0244*%
%ADD236R,0.0004X0.0252*%
%ADD237R,0.0004X0.0376*%
%ADD238R,0.0004X0.0672*%
%ADD239R,0.0004X0.0624*%
%ADD240R,0.0004X0.0596*%
%ADD241R,0.0004X0.0552*%
%ADD242R,0.0004X0.0456*%
%ADD243R,0.0004X0.0384*%
%ADD244R,0.0004X0.0352*%
%ADD245R,0.0004X0.0188*%
%ADD246R,0.0004X0.0108*%
%ADD247R,0.0787X0.0669*%
%ADD248R,0.0197X0.0591*%
%ADD249R,0.0740X0.0640*%
D10*
X001046Y000180D02*
X017188Y000180D01*
X017188Y019865D01*
X001046Y019865D01*
X001046Y000180D01*
D11*
X003981Y000456D02*
X003981Y000649D01*
X003981Y000456D02*
X004077Y000359D01*
X004174Y000456D01*
X004174Y000649D01*
X004275Y000649D02*
X004469Y000649D01*
X004469Y000504D01*
X004372Y000553D01*
X004324Y000553D01*
X004275Y000504D01*
X004275Y000408D01*
X004324Y000359D01*
X004420Y000359D01*
X004469Y000408D01*
X005581Y000380D02*
X005629Y000332D01*
X005726Y000332D01*
X005774Y000380D01*
X005774Y000574D01*
X005726Y000622D01*
X005629Y000622D01*
X005581Y000574D01*
X005875Y000574D02*
X005875Y000380D01*
X005924Y000332D01*
X006069Y000332D01*
X006069Y000622D01*
X005924Y000622D01*
X005875Y000574D01*
X006170Y000525D02*
X006170Y000332D01*
X006170Y000477D02*
X006364Y000477D01*
X006364Y000525D02*
X006267Y000622D01*
X006170Y000525D01*
X006364Y000525D02*
X006364Y000332D01*
X006463Y000332D02*
X006511Y000332D01*
X006511Y000380D01*
X006463Y000380D01*
X006463Y000332D01*
X006463Y000477D02*
X006511Y000477D01*
X006511Y000525D01*
X006463Y000525D01*
X006463Y000477D01*
X006612Y000477D02*
X006806Y000477D01*
X006660Y000622D01*
X006660Y000332D01*
X007573Y000375D02*
X007573Y000665D01*
X007766Y000665D02*
X007573Y000375D01*
X007766Y000375D02*
X007766Y000665D01*
X007866Y000665D02*
X007963Y000665D01*
X007914Y000665D02*
X007914Y000375D01*
X007866Y000375D02*
X007963Y000375D01*
X008064Y000327D02*
X008257Y000327D01*
X008359Y000423D02*
X008407Y000375D01*
X008504Y000375D01*
X008552Y000423D01*
X008552Y000617D01*
X008504Y000665D01*
X008407Y000665D01*
X008359Y000617D01*
X008651Y000568D02*
X008651Y000520D01*
X008699Y000520D01*
X008699Y000568D01*
X008651Y000568D01*
X008651Y000423D02*
X008651Y000375D01*
X008699Y000375D01*
X008699Y000423D01*
X008651Y000423D01*
X008801Y000423D02*
X008849Y000375D01*
X008946Y000375D01*
X008994Y000423D01*
X008994Y000520D02*
X008897Y000568D01*
X008849Y000568D01*
X008801Y000520D01*
X008801Y000423D01*
X008994Y000520D02*
X008994Y000665D01*
X008801Y000665D01*
X009367Y000676D02*
X009367Y000386D01*
X009560Y000676D01*
X009560Y000386D01*
X009660Y000386D02*
X009757Y000386D01*
X009709Y000386D02*
X009709Y000676D01*
X009757Y000676D02*
X009660Y000676D01*
X009858Y000338D02*
X010052Y000338D01*
X010153Y000386D02*
X010153Y000580D01*
X010249Y000676D01*
X010346Y000580D01*
X010346Y000386D01*
X010445Y000386D02*
X010445Y000434D01*
X010494Y000434D01*
X010494Y000386D01*
X010445Y000386D01*
X010445Y000531D02*
X010494Y000531D01*
X010494Y000580D01*
X010445Y000580D01*
X010445Y000531D01*
X010346Y000531D02*
X010153Y000531D01*
X010595Y000483D02*
X010643Y000531D01*
X010788Y000531D01*
X010788Y000434D01*
X010740Y000386D01*
X010643Y000386D01*
X010595Y000434D01*
X010595Y000483D01*
X010691Y000628D02*
X010788Y000531D01*
X010691Y000628D02*
X010595Y000676D01*
X011463Y000621D02*
X011463Y000427D01*
X011511Y000379D01*
X011608Y000379D01*
X011656Y000427D01*
X011656Y000621D01*
X011608Y000669D01*
X011511Y000669D01*
X011463Y000621D01*
X011757Y000669D02*
X011951Y000669D01*
X011951Y000379D01*
X011757Y000379D01*
X011854Y000524D02*
X011951Y000524D01*
X012052Y000379D02*
X012052Y000669D01*
X012245Y000669D02*
X012052Y000379D01*
X012245Y000379D02*
X012245Y000669D01*
X012344Y000572D02*
X012344Y000524D01*
X012393Y000524D01*
X012393Y000572D01*
X012344Y000572D01*
X012344Y000427D02*
X012344Y000379D01*
X012393Y000379D01*
X012393Y000427D01*
X012344Y000427D01*
X012494Y000621D02*
X012687Y000427D01*
X012687Y000379D01*
X012687Y000669D02*
X012494Y000669D01*
X012494Y000621D01*
X013636Y000613D02*
X013684Y000661D01*
X013829Y000661D01*
X013829Y000371D01*
X013684Y000371D01*
X013636Y000419D01*
X013636Y000613D01*
X013931Y000661D02*
X013931Y000371D01*
X014124Y000661D01*
X014124Y000371D01*
X014225Y000419D02*
X014225Y000516D01*
X014322Y000516D01*
X014419Y000419D02*
X014370Y000371D01*
X014274Y000371D01*
X014225Y000419D01*
X014419Y000419D02*
X014419Y000613D01*
X014370Y000661D01*
X014274Y000661D01*
X014225Y000613D01*
X013727Y012614D02*
X013533Y012614D01*
X013630Y012614D02*
X013630Y012904D01*
X013727Y012807D01*
X013432Y012856D02*
X013384Y012904D01*
X013287Y012904D01*
X013239Y012856D01*
X013239Y012807D01*
X013432Y012614D01*
X013239Y012614D01*
X013578Y019387D02*
X013530Y019435D01*
X013530Y019629D01*
X013578Y019677D01*
X013723Y019677D01*
X013723Y019387D01*
X013578Y019387D01*
X013824Y019387D02*
X013824Y019677D01*
X014018Y019677D02*
X013824Y019387D01*
X014018Y019387D02*
X014018Y019677D01*
X014119Y019629D02*
X014167Y019677D01*
X014264Y019677D01*
X014312Y019629D01*
X014312Y019435D01*
X014264Y019387D01*
X014167Y019387D01*
X014119Y019435D01*
X014119Y019532D01*
X014216Y019532D01*
X012731Y019447D02*
X012682Y019399D01*
X012586Y019399D01*
X012537Y019447D01*
X012537Y019495D01*
X012586Y019544D01*
X012634Y019544D01*
X012586Y019544D02*
X012537Y019592D01*
X012537Y019640D01*
X012586Y019689D01*
X012682Y019689D01*
X012731Y019640D01*
X012436Y019592D02*
X012436Y019544D01*
X012388Y019544D01*
X012388Y019592D01*
X012436Y019592D01*
X012436Y019447D02*
X012436Y019399D01*
X012388Y019399D01*
X012388Y019447D01*
X012436Y019447D01*
X012289Y019495D02*
X012144Y019495D01*
X012095Y019544D01*
X012095Y019640D01*
X012144Y019689D01*
X012289Y019689D01*
X012289Y019399D01*
X011994Y019399D02*
X011994Y019689D01*
X011801Y019689D02*
X011801Y019399D01*
X011897Y019495D01*
X011994Y019399D01*
X011699Y019399D02*
X011699Y019689D01*
X011603Y019592D01*
X011506Y019689D01*
X011506Y019399D01*
X010672Y019387D02*
X010478Y019580D01*
X010478Y019629D01*
X010527Y019677D01*
X010623Y019677D01*
X010672Y019629D01*
X010672Y019387D02*
X010478Y019387D01*
X010377Y019387D02*
X010377Y019435D01*
X010329Y019435D01*
X010329Y019387D01*
X010377Y019387D01*
X010377Y019532D02*
X010377Y019580D01*
X010329Y019580D01*
X010329Y019532D01*
X010377Y019532D01*
X010230Y019484D02*
X010085Y019484D01*
X010036Y019532D01*
X010036Y019629D01*
X010085Y019677D01*
X010230Y019677D01*
X010230Y019387D01*
X009935Y019387D02*
X009935Y019677D01*
X009742Y019677D02*
X009742Y019387D01*
X009838Y019484D01*
X009935Y019387D01*
X009640Y019387D02*
X009640Y019677D01*
X009544Y019580D01*
X009447Y019677D01*
X009447Y019387D01*
X008802Y019410D02*
X008608Y019410D01*
X008705Y019410D02*
X008705Y019701D01*
X008802Y019604D01*
X008507Y019604D02*
X008507Y019556D01*
X008459Y019556D01*
X008459Y019604D01*
X008507Y019604D01*
X008507Y019459D02*
X008507Y019410D01*
X008459Y019410D01*
X008459Y019459D01*
X008507Y019459D01*
X008360Y019507D02*
X008215Y019507D01*
X008166Y019556D01*
X008166Y019652D01*
X008215Y019701D01*
X008360Y019701D01*
X008360Y019410D01*
X008065Y019410D02*
X007968Y019507D01*
X007871Y019410D01*
X007871Y019701D01*
X007770Y019701D02*
X007674Y019604D01*
X007577Y019701D01*
X007577Y019410D01*
X007770Y019410D02*
X007770Y019701D01*
X008065Y019701D02*
X008065Y019410D01*
X006660Y019459D02*
X006612Y019410D01*
X006515Y019410D01*
X006466Y019459D01*
X006466Y019652D01*
X006660Y019459D01*
X006660Y019652D01*
X006612Y019701D01*
X006515Y019701D01*
X006466Y019652D01*
X006365Y019604D02*
X006365Y019556D01*
X006317Y019556D01*
X006317Y019604D01*
X006365Y019604D01*
X006365Y019459D02*
X006365Y019410D01*
X006317Y019410D01*
X006317Y019459D01*
X006365Y019459D01*
X006218Y019507D02*
X006073Y019507D01*
X006024Y019556D01*
X006024Y019652D01*
X006073Y019701D01*
X006218Y019701D01*
X006218Y019410D01*
X005923Y019410D02*
X005923Y019701D01*
X005730Y019701D02*
X005730Y019410D01*
X005827Y019507D01*
X005923Y019410D01*
X005629Y019410D02*
X005629Y019701D01*
X005532Y019604D01*
X005435Y019701D01*
X005435Y019410D01*
X004502Y019435D02*
X004454Y019387D01*
X004357Y019387D01*
X004308Y019435D01*
X004308Y019532D01*
X004357Y019580D01*
X004405Y019580D01*
X004502Y019532D01*
X004502Y019677D01*
X004308Y019677D01*
X004207Y019677D02*
X004207Y019484D01*
X004111Y019387D01*
X004014Y019484D01*
X004014Y019677D01*
D12*
X009951Y010297D02*
X009878Y010224D01*
X009878Y010004D01*
X009731Y010004D02*
X010171Y010004D01*
X010171Y010224D01*
X010098Y010297D01*
X009951Y010297D01*
X009731Y009843D02*
X009731Y009697D01*
X009731Y009770D02*
X010171Y009770D01*
X010171Y009697D02*
X010171Y009843D01*
X010098Y009530D02*
X009805Y009530D01*
X009731Y009456D01*
X009731Y009236D01*
X010171Y009236D01*
X010171Y009456D01*
X010098Y009530D01*
X009421Y009453D02*
X008981Y009453D01*
X009128Y009306D01*
X008981Y009159D01*
X009421Y009159D01*
X009421Y008993D02*
X009128Y008699D01*
X009201Y008772D02*
X008981Y008993D01*
X008981Y008699D02*
X009421Y008699D01*
X009421Y008532D02*
X009421Y008385D01*
X009421Y008459D02*
X009055Y008459D01*
X008981Y008385D01*
X008981Y008312D01*
X009055Y008239D01*
X009348Y007611D02*
X009055Y007318D01*
X008981Y007318D01*
X008981Y007161D02*
X008981Y007088D01*
X009055Y007088D01*
X009055Y007161D01*
X008981Y007161D01*
X008981Y006921D02*
X008981Y006627D01*
X009275Y006921D01*
X009348Y006921D01*
X009421Y006848D01*
X009421Y006701D01*
X009348Y006627D01*
X009275Y006461D02*
X008981Y006314D01*
X009275Y006167D01*
X009731Y005857D02*
X009731Y005783D01*
X009805Y005783D01*
X009805Y005857D01*
X009731Y005857D01*
X009951Y005616D02*
X009878Y005543D01*
X009878Y005323D01*
X009731Y005323D02*
X010171Y005323D01*
X010171Y005543D01*
X010098Y005616D01*
X009951Y005616D01*
X009805Y005166D02*
X009731Y005166D01*
X009731Y005093D01*
X009805Y005093D01*
X009805Y005166D01*
X009731Y004933D02*
X009731Y004786D01*
X009731Y004859D02*
X010171Y004859D01*
X010171Y004786D02*
X010171Y004933D01*
X009805Y004629D02*
X009731Y004629D01*
X009731Y004556D01*
X009805Y004556D01*
X009805Y004629D01*
X009731Y004389D02*
X010171Y004389D01*
X009951Y004389D02*
X009951Y004095D01*
X009805Y003938D02*
X009731Y003938D01*
X009731Y003865D01*
X009805Y003865D01*
X009805Y003938D01*
X009731Y004095D02*
X010171Y004095D01*
X010098Y003698D02*
X010171Y003625D01*
X010171Y003478D01*
X010098Y003405D01*
X009805Y003405D01*
X009731Y003478D01*
X009731Y003625D01*
X009805Y003698D01*
X009805Y006474D02*
X009731Y006547D01*
X009731Y006694D01*
X009805Y006767D01*
X009878Y006767D01*
X009951Y006694D01*
X009951Y006547D01*
X010025Y006474D01*
X010098Y006474D01*
X010171Y006547D01*
X010171Y006694D01*
X010098Y006767D01*
X010025Y006934D02*
X010171Y007081D01*
X010025Y007228D01*
X009731Y007228D01*
X009731Y007395D02*
X009731Y007688D01*
X009805Y007855D02*
X009731Y007928D01*
X009731Y008075D01*
X009805Y008149D01*
X009878Y008149D01*
X009951Y008075D01*
X009951Y007928D01*
X010025Y007855D01*
X010098Y007855D01*
X010171Y007928D01*
X010171Y008075D01*
X010098Y008149D01*
X010025Y008315D02*
X010171Y008462D01*
X010025Y008609D01*
X009731Y008609D01*
X009951Y008609D02*
X009951Y008315D01*
X010025Y008315D02*
X009731Y008315D01*
X009421Y007611D02*
X009348Y007611D01*
X009421Y007611D02*
X009421Y007318D01*
X009731Y007395D02*
X010171Y007395D01*
X009951Y007228D02*
X009951Y006934D01*
X010025Y006934D02*
X009731Y006934D01*
D13*
X008085Y007507D03*
X008085Y008507D03*
X007085Y008507D03*
X006085Y008507D03*
X006085Y007507D03*
X007085Y007507D03*
D14*
X006817Y016762D03*
X007727Y016762D03*
X008637Y016762D03*
X009719Y016747D03*
X010628Y016747D03*
X011538Y016747D03*
X012534Y016747D03*
X013443Y016747D03*
X014353Y016747D03*
X005719Y016778D03*
X004810Y016778D03*
X003900Y016778D03*
D15*
X004810Y014338D03*
X007727Y014322D03*
X010628Y014306D03*
X013443Y014306D03*
D16*
X014038Y018684D03*
X012069Y018684D03*
X010101Y018684D03*
X008132Y018684D03*
X006164Y018684D03*
X004195Y018684D03*
X006169Y009771D03*
X006164Y001361D03*
X008132Y001361D03*
X010101Y001361D03*
X012069Y001361D03*
X014038Y001361D03*
X013943Y003796D03*
X004195Y001361D03*
D17*
X008090Y005377D03*
X008090Y006479D03*
X005378Y011052D03*
X005378Y012155D03*
D18*
X013672Y008625D03*
X014420Y008625D03*
D19*
X005054Y008908D02*
X004454Y008908D01*
X004454Y007908D02*
X005054Y007908D01*
X005054Y006908D02*
X004454Y006908D01*
X004454Y005908D02*
X005054Y005908D01*
X005054Y004908D02*
X004454Y004908D01*
X004454Y003908D02*
X005054Y003908D01*
D20*
X001617Y000735D03*
X015617Y000735D03*
D21*
X016617Y000735D03*
X016617Y001735D03*
X016617Y002735D03*
X016617Y003735D03*
X016617Y004735D03*
X016617Y005735D03*
X016617Y006735D03*
X016617Y007735D03*
X016617Y008735D03*
X016617Y009735D03*
X016617Y010735D03*
X016617Y011735D03*
X016617Y012735D03*
X016617Y013735D03*
X016617Y014735D03*
X016617Y015735D03*
X016617Y016735D03*
X016617Y017735D03*
X015617Y017735D03*
X015617Y016735D03*
X015617Y015735D03*
X015617Y014735D03*
X015617Y013735D03*
X015617Y012735D03*
X015617Y011735D03*
X015617Y010735D03*
X015617Y009735D03*
X015617Y008735D03*
X015617Y007735D03*
X015617Y006735D03*
X015617Y005735D03*
X015617Y004735D03*
X015617Y003735D03*
X015617Y002735D03*
X015617Y001735D03*
X002617Y001735D03*
X002617Y000735D03*
X001617Y001735D03*
X001617Y002735D03*
X001617Y003735D03*
X001617Y004735D03*
X001617Y005735D03*
X001617Y006735D03*
X001617Y007735D03*
X001617Y008735D03*
X001617Y009735D03*
X001617Y010735D03*
X001617Y011735D03*
X001617Y012735D03*
X001617Y013735D03*
X001617Y014735D03*
X001617Y015735D03*
X001617Y016735D03*
X001617Y017735D03*
X002617Y017735D03*
X002617Y016735D03*
X002617Y015735D03*
X002617Y014735D03*
X002617Y013735D03*
X002617Y012735D03*
X002617Y011735D03*
X002617Y010735D03*
X002617Y009735D03*
X002617Y008735D03*
X002617Y007735D03*
X002617Y006735D03*
X002617Y005735D03*
X002617Y004735D03*
X002617Y003735D03*
X002617Y002735D03*
D22*
X006747Y013058D03*
X007347Y013058D03*
X010545Y013038D03*
X011145Y013038D03*
X013561Y011755D03*
X014161Y011755D03*
X013822Y009479D03*
X013222Y009479D03*
D23*
X013522Y009479D03*
X013861Y011755D03*
X010845Y013038D03*
X007047Y013058D03*
D24*
X013719Y013349D03*
D25*
X005156Y002830D03*
X004054Y002830D03*
D26*
X009874Y010862D03*
X009874Y011462D03*
X012676Y006985D03*
X012676Y006385D03*
X011696Y005750D03*
X011696Y005150D03*
X003588Y013796D03*
X003588Y014396D03*
D27*
X003588Y014096D03*
X009874Y011162D03*
X012676Y006685D03*
X011696Y005450D03*
D28*
X014144Y005696D03*
X014144Y006696D03*
X014144Y007696D03*
D29*
X014144Y010633D03*
D30*
X011289Y007600D03*
X011285Y007600D03*
X010985Y007604D03*
X010473Y007600D03*
D31*
X010477Y007600D03*
D32*
X010481Y007600D03*
D33*
X010485Y007600D03*
X010969Y007576D03*
D34*
X011349Y007600D03*
X011353Y007600D03*
X011609Y007600D03*
X010489Y007600D03*
D35*
X010493Y007600D03*
D36*
X010497Y007600D03*
X011369Y007600D03*
X011605Y007600D03*
D37*
X010501Y007600D03*
D38*
X010505Y007600D03*
D39*
X010509Y007600D03*
D40*
X010513Y007600D03*
X011597Y007600D03*
D41*
X011405Y007600D03*
X010517Y007600D03*
D42*
X010521Y007600D03*
D43*
X010525Y007600D03*
X011417Y007600D03*
D44*
X011589Y007600D03*
X010529Y007600D03*
D45*
X010533Y007600D03*
X011425Y007600D03*
X011429Y007600D03*
D46*
X011433Y007600D03*
X010537Y007600D03*
D47*
X010541Y007600D03*
D48*
X010545Y007600D03*
X011437Y007600D03*
X011585Y007600D03*
D49*
X011445Y007600D03*
X010549Y007600D03*
D50*
X010553Y007600D03*
X011449Y007600D03*
D51*
X011453Y007600D03*
X010557Y007600D03*
D52*
X010561Y007600D03*
D53*
X010565Y007600D03*
X011457Y007600D03*
X011577Y007600D03*
D54*
X010573Y007600D03*
X010569Y007600D03*
D55*
X010577Y007600D03*
X011573Y007600D03*
D56*
X010581Y007600D03*
D57*
X010585Y007600D03*
D58*
X010589Y007600D03*
X010593Y007600D03*
D59*
X010597Y007600D03*
X011565Y007600D03*
D60*
X010601Y007600D03*
D61*
X010605Y007600D03*
X010609Y007600D03*
D62*
X010613Y007600D03*
X010617Y007600D03*
D63*
X010621Y007600D03*
D64*
X010625Y007600D03*
X011557Y007600D03*
D65*
X010633Y007600D03*
X010629Y007600D03*
D66*
X010637Y007600D03*
X010645Y007600D03*
X011553Y007600D03*
D67*
X010641Y007600D03*
D68*
X010649Y007600D03*
X010653Y007600D03*
X011517Y007600D03*
X011549Y007600D03*
D69*
X011545Y007600D03*
X011525Y007600D03*
X010657Y007600D03*
D70*
X010661Y007600D03*
X011521Y007600D03*
D71*
X011529Y007600D03*
X010897Y007604D03*
X010673Y007600D03*
X010669Y007600D03*
X010665Y007600D03*
D72*
X010677Y007600D03*
X010893Y007600D03*
X011533Y007600D03*
X011537Y007600D03*
D73*
X010681Y007600D03*
D74*
X010685Y007600D03*
X010689Y007600D03*
X010889Y007600D03*
D75*
X010697Y007600D03*
X010693Y007600D03*
D76*
X010701Y007602D03*
D77*
X010705Y007602D03*
X010709Y007602D03*
D78*
X010713Y007602D03*
X010717Y007602D03*
D79*
X010721Y007600D03*
D80*
X010725Y007600D03*
D81*
X010729Y007598D03*
D82*
X010733Y007600D03*
X010825Y007600D03*
D83*
X010737Y007600D03*
D84*
X010741Y007600D03*
D85*
X010745Y007600D03*
X010813Y007600D03*
D86*
X010809Y007600D03*
X010749Y007600D03*
D87*
X010753Y007600D03*
X010805Y007600D03*
D88*
X010757Y007598D03*
D89*
X010761Y007600D03*
D90*
X010765Y007600D03*
X010793Y007600D03*
X010797Y007600D03*
D91*
X010789Y007598D03*
X010773Y007598D03*
X010769Y007598D03*
D92*
X010777Y007600D03*
X010785Y007600D03*
D93*
X010781Y007600D03*
D94*
X010801Y007598D03*
D95*
X010817Y007600D03*
D96*
X010821Y007600D03*
D97*
X010857Y007590D03*
X010869Y007594D03*
D98*
X010861Y007592D03*
D99*
X010865Y007592D03*
D100*
X010873Y007594D03*
X010877Y007594D03*
D101*
X010881Y007596D03*
D102*
X010885Y007598D03*
D103*
X010901Y007606D03*
D104*
X010905Y007606D03*
X010909Y007606D03*
D105*
X010913Y007706D03*
D106*
X010929Y007374D03*
X010917Y007370D03*
X010913Y007370D03*
D107*
X010917Y007708D03*
D108*
X010921Y007708D03*
D109*
X010921Y007372D03*
D110*
X010925Y007708D03*
D111*
X010925Y007372D03*
D112*
X010929Y007712D03*
D113*
X010933Y007714D03*
D114*
X010937Y007412D03*
X010933Y007408D03*
X011309Y007492D03*
X011313Y007488D03*
D115*
X010933Y007302D03*
D116*
X010937Y007716D03*
X011345Y007600D03*
D117*
X011085Y007600D03*
X010937Y007284D03*
D118*
X010941Y007718D03*
D119*
X010941Y007418D03*
X011381Y007762D03*
D120*
X011469Y007712D03*
X010945Y007728D03*
D121*
X011013Y007600D03*
X011169Y007600D03*
X011329Y007480D03*
X010945Y007420D03*
D122*
X010949Y007734D03*
D123*
X010949Y007426D03*
X011333Y007478D03*
D124*
X011389Y007668D03*
X010953Y007732D03*
D125*
X010953Y007432D03*
D126*
X010957Y007730D03*
D127*
X011009Y007602D03*
X010957Y007438D03*
D128*
X010961Y007724D03*
X011621Y007600D03*
D129*
X011341Y007482D03*
X010961Y007446D03*
D130*
X010965Y007718D03*
D131*
X010965Y007464D03*
D132*
X011129Y007600D03*
X011133Y007600D03*
X010969Y007828D03*
D133*
X010973Y007826D03*
X010997Y007726D03*
D134*
X010973Y007578D03*
D135*
X010977Y007582D03*
D136*
X010981Y007586D03*
X011461Y007706D03*
D137*
X010985Y007434D03*
D138*
X010989Y007606D03*
D139*
X010993Y007726D03*
D140*
X010993Y007572D03*
X011237Y007600D03*
X011505Y007800D03*
X011629Y007600D03*
D141*
X011485Y007788D03*
X011489Y007792D03*
X010997Y007572D03*
D142*
X011001Y007730D03*
D143*
X011001Y007602D03*
D144*
X011001Y007488D03*
D145*
X011005Y007730D03*
D146*
X011005Y007602D03*
D147*
X011109Y007600D03*
X011005Y007484D03*
D148*
X011009Y007732D03*
D149*
X011033Y007602D03*
X011009Y007482D03*
D150*
X011017Y007476D03*
X011013Y007732D03*
D151*
X011013Y007478D03*
D152*
X011017Y007734D03*
D153*
X011017Y007602D03*
X011373Y007758D03*
X011397Y007426D03*
D154*
X011021Y007602D03*
D155*
X011021Y007472D03*
D156*
X011025Y007602D03*
D157*
X011029Y007602D03*
D158*
X011081Y007600D03*
D159*
X011089Y007600D03*
D160*
X011093Y007600D03*
D161*
X011097Y007600D03*
D162*
X011101Y007600D03*
D163*
X011105Y007600D03*
D164*
X011113Y007600D03*
X011117Y007600D03*
D165*
X011121Y007600D03*
D166*
X011125Y007600D03*
D167*
X011137Y007600D03*
D168*
X011141Y007600D03*
D169*
X011145Y007600D03*
X011149Y007600D03*
D170*
X011153Y007600D03*
D171*
X011157Y007600D03*
X011393Y007424D03*
D172*
X011161Y007602D03*
D173*
X011165Y007600D03*
X011317Y007484D03*
X011325Y007480D03*
X011377Y007760D03*
D174*
X011173Y007600D03*
X011337Y007480D03*
D175*
X011177Y007600D03*
D176*
X011181Y007600D03*
D177*
X011185Y007600D03*
D178*
X011189Y007600D03*
X011193Y007600D03*
D179*
X011197Y007600D03*
D180*
X011201Y007600D03*
D181*
X011205Y007600D03*
X011209Y007600D03*
D182*
X011213Y007600D03*
X011309Y007672D03*
X011313Y007676D03*
X011317Y007680D03*
D183*
X011329Y007684D03*
X011217Y007600D03*
D184*
X011221Y007600D03*
D185*
X011225Y007600D03*
D186*
X011229Y007600D03*
D187*
X011233Y007600D03*
X011497Y007796D03*
D188*
X011241Y007600D03*
D189*
X011245Y007600D03*
D190*
X011249Y007600D03*
D191*
X011253Y007600D03*
X011257Y007600D03*
D192*
X011261Y007600D03*
D193*
X011265Y007600D03*
X011625Y007600D03*
D194*
X011273Y007600D03*
X011269Y007600D03*
D195*
X011277Y007600D03*
D196*
X011281Y007600D03*
D197*
X011293Y007600D03*
D198*
X011297Y007600D03*
D199*
X011301Y007600D03*
D200*
X011305Y007600D03*
D201*
X011321Y007680D03*
D202*
X011321Y007484D03*
D203*
X011465Y007414D03*
X011325Y007682D03*
D204*
X011333Y007684D03*
X011337Y007684D03*
D205*
X011341Y007682D03*
D206*
X011357Y007600D03*
D207*
X011361Y007600D03*
D208*
X011365Y007598D03*
D209*
X011373Y007532D03*
D210*
X011377Y007590D03*
X011385Y007594D03*
D211*
X011377Y007432D03*
X011385Y007428D03*
D212*
X011381Y007592D03*
D213*
X011381Y007428D03*
D214*
X011385Y007762D03*
D215*
X011389Y007426D03*
D216*
X011393Y007670D03*
D217*
X011397Y007668D03*
D218*
X011401Y007600D03*
D219*
X011409Y007600D03*
X011413Y007600D03*
X011593Y007600D03*
D220*
X011421Y007600D03*
D221*
X011441Y007600D03*
D222*
X011461Y007420D03*
D223*
X011489Y007470D03*
X011493Y007470D03*
X011465Y007710D03*
D224*
X011469Y007412D03*
D225*
X011473Y007714D03*
D226*
X011473Y007410D03*
D227*
X011477Y007712D03*
D228*
X011477Y007414D03*
D229*
X011481Y007600D03*
D230*
X011485Y007474D03*
X011497Y007466D03*
D231*
X011493Y007794D03*
D232*
X011501Y007798D03*
D233*
X011501Y007464D03*
D234*
X011505Y007464D03*
X011509Y007464D03*
D235*
X011509Y007798D03*
D236*
X011513Y007798D03*
D237*
X011513Y007464D03*
D238*
X011541Y007600D03*
D239*
X011561Y007600D03*
D240*
X011569Y007598D03*
D241*
X011581Y007600D03*
D242*
X011601Y007600D03*
D243*
X011613Y007600D03*
D244*
X011617Y007600D03*
D245*
X011633Y007602D03*
D246*
X011637Y007598D03*
D247*
X013890Y019490D03*
X016791Y019490D03*
D248*
X015853Y018427D03*
X015597Y018427D03*
X015341Y018427D03*
X015085Y018427D03*
X014829Y018427D03*
D249*
X013891Y019490D03*
X016791Y019490D03*
M02*
