G75*
%MOIN*%
%OFA0B0*%
%FSLAX24Y24*%
%IPPOS*%
%LPD*%
%AMOC8*
5,1,8,0,0,1.08239X$1,22.5*
%
%ADD10C,0.0160*%
%ADD11C,0.0060*%
%ADD12C,0.0010*%
%ADD13C,0.0050*%
%ADD14C,0.0040*%
%ADD15R,0.0118X0.0059*%
%ADD16R,0.0118X0.0118*%
D10*
X001046Y000180D02*
X017188Y000180D01*
X017188Y019865D01*
X001046Y019865D01*
X001046Y000180D01*
X003211Y000180D02*
X003211Y003330D01*
X005660Y003719D02*
X012117Y003719D01*
X012101Y005267D01*
X005644Y005267D01*
X005660Y003719D01*
X003211Y000180D02*
X015022Y000180D01*
X015022Y003330D01*
X015022Y016715D02*
X003211Y016715D01*
X003211Y019865D01*
X015022Y019865D01*
X015022Y016715D01*
D11*
X014917Y017985D02*
X014917Y000485D01*
X014638Y000761D02*
X014438Y000761D01*
X014638Y000761D02*
X014638Y000961D01*
X014917Y000485D02*
X014919Y000455D01*
X014924Y000425D01*
X014933Y000396D01*
X014946Y000369D01*
X014961Y000343D01*
X014980Y000319D01*
X015001Y000298D01*
X015025Y000279D01*
X015051Y000264D01*
X015078Y000251D01*
X015107Y000242D01*
X015137Y000237D01*
X015167Y000235D01*
X017067Y000235D01*
X017097Y000237D01*
X017127Y000242D01*
X017156Y000251D01*
X017183Y000264D01*
X017209Y000279D01*
X017233Y000298D01*
X017254Y000319D01*
X017273Y000343D01*
X017288Y000369D01*
X017301Y000396D01*
X017310Y000425D01*
X017315Y000455D01*
X017317Y000485D01*
X017317Y017985D01*
X017315Y018015D01*
X017310Y018045D01*
X017301Y018074D01*
X017288Y018101D01*
X017273Y018127D01*
X017254Y018151D01*
X017233Y018172D01*
X017209Y018191D01*
X017183Y018206D01*
X017156Y018219D01*
X017127Y018228D01*
X017097Y018233D01*
X017067Y018235D01*
X015167Y018235D01*
X015137Y018233D01*
X015107Y018228D01*
X015078Y018219D01*
X015051Y018206D01*
X015025Y018191D01*
X015001Y018172D01*
X014980Y018151D01*
X014961Y018127D01*
X014946Y018101D01*
X014933Y018074D01*
X014924Y018045D01*
X014919Y018015D01*
X014917Y017985D01*
X014638Y018084D02*
X014638Y018284D01*
X014638Y018084D02*
X014438Y018084D01*
X013638Y018084D02*
X013438Y018084D01*
X013438Y018284D01*
X012669Y018284D02*
X012669Y018084D01*
X012469Y018084D01*
X011669Y018084D02*
X011469Y018084D01*
X011469Y018284D01*
X010701Y018284D02*
X010701Y018084D01*
X010501Y018084D01*
X009701Y018084D02*
X009501Y018084D01*
X009501Y018284D01*
X009501Y019084D02*
X009501Y019284D01*
X009701Y019284D01*
X010501Y019284D02*
X010701Y019284D01*
X010701Y019084D01*
X011469Y019084D02*
X011469Y019284D01*
X011669Y019284D01*
X012469Y019284D02*
X012669Y019284D01*
X012669Y019084D01*
X013438Y019084D02*
X013438Y019284D01*
X013638Y019284D01*
X014438Y019284D02*
X014638Y019284D01*
X014638Y019084D01*
X014584Y013828D02*
X013484Y013828D01*
X013467Y013826D01*
X013450Y013822D01*
X013434Y013815D01*
X013420Y013805D01*
X013407Y013792D01*
X013397Y013778D01*
X013390Y013762D01*
X013386Y013745D01*
X013384Y013728D01*
X013384Y013128D01*
X013386Y013111D01*
X013390Y013094D01*
X013397Y013078D01*
X013407Y013064D01*
X013420Y013051D01*
X013434Y013041D01*
X013450Y013034D01*
X013467Y013030D01*
X013484Y013028D01*
X014584Y013028D01*
X014601Y013030D01*
X014618Y013034D01*
X014634Y013041D01*
X014648Y013051D01*
X014661Y013064D01*
X014671Y013078D01*
X014678Y013094D01*
X014682Y013111D01*
X014684Y013128D01*
X014684Y013728D01*
X014682Y013745D01*
X014678Y013762D01*
X014671Y013778D01*
X014661Y013792D01*
X014648Y013805D01*
X014634Y013815D01*
X014618Y013822D01*
X014601Y013826D01*
X014584Y013828D01*
X014580Y012702D02*
X013480Y012702D01*
X013463Y012700D01*
X013446Y012696D01*
X013430Y012689D01*
X013416Y012679D01*
X013403Y012666D01*
X013393Y012652D01*
X013386Y012636D01*
X013382Y012619D01*
X013380Y012602D01*
X013380Y012002D01*
X013382Y011985D01*
X013386Y011968D01*
X013393Y011952D01*
X013403Y011938D01*
X013416Y011925D01*
X013430Y011915D01*
X013446Y011908D01*
X013463Y011904D01*
X013480Y011902D01*
X014580Y011902D01*
X014597Y011904D01*
X014614Y011908D01*
X014630Y011915D01*
X014644Y011925D01*
X014657Y011938D01*
X014667Y011952D01*
X014674Y011968D01*
X014678Y011985D01*
X014680Y012002D01*
X014680Y012602D01*
X014678Y012619D01*
X014674Y012636D01*
X014667Y012652D01*
X014657Y012666D01*
X014644Y012679D01*
X014630Y012689D01*
X014614Y012696D01*
X014597Y012700D01*
X014580Y012702D01*
X012075Y011276D02*
X012075Y008656D01*
X011936Y008517D01*
X009315Y008517D01*
X009315Y011276D01*
X012075Y011276D01*
X011634Y008817D02*
X011636Y008840D01*
X011642Y008863D01*
X011651Y008884D01*
X011664Y008904D01*
X011680Y008921D01*
X011698Y008935D01*
X011718Y008946D01*
X011740Y008954D01*
X011763Y008958D01*
X011787Y008958D01*
X011810Y008954D01*
X011832Y008946D01*
X011852Y008935D01*
X011870Y008921D01*
X011886Y008904D01*
X011899Y008884D01*
X011908Y008863D01*
X011914Y008840D01*
X011916Y008817D01*
X011914Y008794D01*
X011908Y008771D01*
X011899Y008750D01*
X011886Y008730D01*
X011870Y008713D01*
X011852Y008699D01*
X011832Y008688D01*
X011810Y008680D01*
X011787Y008676D01*
X011763Y008676D01*
X011740Y008680D01*
X011718Y008688D01*
X011698Y008699D01*
X011680Y008713D01*
X011664Y008730D01*
X011651Y008750D01*
X011642Y008771D01*
X011636Y008794D01*
X011634Y008817D01*
X011650Y004999D02*
X011150Y004999D01*
X010900Y004749D01*
X010650Y004999D01*
X010150Y004999D01*
X009900Y004749D01*
X009650Y004999D01*
X009150Y004999D01*
X008900Y004749D01*
X008650Y004999D01*
X008150Y004999D01*
X007900Y004749D01*
X007650Y004999D01*
X007150Y004999D01*
X006900Y004749D01*
X006650Y004999D01*
X006150Y004999D01*
X005900Y004749D01*
X005900Y004249D01*
X006150Y003999D01*
X006650Y003999D01*
X006900Y004249D01*
X007150Y003999D01*
X007650Y003999D01*
X007900Y004249D01*
X008150Y003999D01*
X008650Y003999D01*
X008900Y004249D01*
X009150Y003999D01*
X009650Y003999D01*
X009900Y004249D01*
X010150Y003999D01*
X010650Y003999D01*
X010900Y004249D01*
X011150Y003999D01*
X011650Y003999D01*
X011900Y004249D01*
X011900Y004749D01*
X011650Y004999D01*
X011669Y001961D02*
X011469Y001961D01*
X011469Y001761D01*
X010701Y001761D02*
X010701Y001961D01*
X010501Y001961D01*
X009701Y001961D02*
X009501Y001961D01*
X009501Y001761D01*
X009501Y000961D02*
X009501Y000761D01*
X009701Y000761D01*
X010501Y000761D02*
X010701Y000761D01*
X010701Y000961D01*
X011469Y000961D02*
X011469Y000761D01*
X011669Y000761D01*
X012469Y000761D02*
X012669Y000761D01*
X012669Y000961D01*
X013438Y000961D02*
X013438Y000761D01*
X013638Y000761D01*
X013438Y001761D02*
X013438Y001961D01*
X013638Y001961D01*
X014438Y001961D02*
X014638Y001961D01*
X014638Y001761D01*
X012669Y001761D02*
X012669Y001961D01*
X012469Y001961D01*
X008732Y001961D02*
X008732Y001761D01*
X008732Y001961D02*
X008532Y001961D01*
X007732Y001961D02*
X007532Y001961D01*
X007532Y001761D01*
X006764Y001761D02*
X006764Y001961D01*
X006564Y001961D01*
X005764Y001961D02*
X005564Y001961D01*
X005564Y001761D01*
X004795Y001761D02*
X004795Y001961D01*
X004595Y001961D01*
X003795Y001961D02*
X003595Y001961D01*
X003595Y001761D01*
X003595Y000961D02*
X003595Y000761D01*
X003795Y000761D01*
X003317Y000485D02*
X003317Y017985D01*
X003595Y018084D02*
X003595Y018284D01*
X003595Y018084D02*
X003795Y018084D01*
X003317Y017985D02*
X003315Y018015D01*
X003310Y018045D01*
X003301Y018074D01*
X003288Y018101D01*
X003273Y018127D01*
X003254Y018151D01*
X003233Y018172D01*
X003209Y018191D01*
X003183Y018206D01*
X003156Y018219D01*
X003127Y018228D01*
X003097Y018233D01*
X003067Y018235D01*
X001167Y018235D01*
X001137Y018233D01*
X001107Y018228D01*
X001078Y018219D01*
X001051Y018206D01*
X001025Y018191D01*
X001001Y018172D01*
X000980Y018151D01*
X000961Y018127D01*
X000946Y018101D01*
X000933Y018074D01*
X000924Y018045D01*
X000919Y018015D01*
X000917Y017985D01*
X000917Y000485D01*
X000919Y000455D01*
X000924Y000425D01*
X000933Y000396D01*
X000946Y000369D01*
X000961Y000343D01*
X000980Y000319D01*
X001001Y000298D01*
X001025Y000279D01*
X001051Y000264D01*
X001078Y000251D01*
X001107Y000242D01*
X001137Y000237D01*
X001167Y000235D01*
X003067Y000235D01*
X003097Y000237D01*
X003127Y000242D01*
X003156Y000251D01*
X003183Y000264D01*
X003209Y000279D01*
X003233Y000298D01*
X003254Y000319D01*
X003273Y000343D01*
X003288Y000369D01*
X003301Y000396D01*
X003310Y000425D01*
X003315Y000455D01*
X003317Y000485D01*
X004595Y000761D02*
X004795Y000761D01*
X004795Y000961D01*
X005564Y000961D02*
X005564Y000761D01*
X005764Y000761D01*
X006564Y000761D02*
X006764Y000761D01*
X006764Y000961D01*
X007532Y000961D02*
X007532Y000761D01*
X007732Y000761D01*
X008532Y000761D02*
X008732Y000761D01*
X008732Y000961D01*
X005421Y003537D02*
X005221Y003537D01*
X005421Y003537D02*
X005421Y003737D01*
X005421Y004537D02*
X005421Y004737D01*
X005221Y004737D01*
X005210Y005041D02*
X005410Y005041D01*
X005410Y005241D01*
X005410Y006041D02*
X005410Y006241D01*
X005210Y006241D01*
X004410Y006241D02*
X004210Y006241D01*
X004210Y006041D01*
X004210Y005241D02*
X004210Y005041D01*
X004410Y005041D01*
X004421Y004737D02*
X004221Y004737D01*
X004221Y004537D01*
X004221Y003737D02*
X004221Y003537D01*
X004421Y003537D01*
X004634Y010538D02*
X004384Y010788D01*
X004384Y012288D01*
X004634Y012538D01*
X005134Y012538D01*
X005384Y012288D01*
X005384Y010788D01*
X005134Y010538D01*
X004634Y010538D01*
X005384Y010788D02*
X005634Y010538D01*
X006134Y010538D01*
X006384Y010788D01*
X006384Y012288D01*
X006134Y012538D01*
X005634Y012538D01*
X005384Y012288D01*
X006384Y012288D02*
X006634Y012538D01*
X007134Y012538D01*
X007384Y012288D01*
X007384Y010788D01*
X007134Y010538D01*
X006634Y010538D01*
X006384Y010788D01*
X007244Y015414D02*
X008344Y015414D01*
X008361Y015416D01*
X008378Y015420D01*
X008394Y015427D01*
X008408Y015437D01*
X008421Y015450D01*
X008431Y015464D01*
X008438Y015480D01*
X008442Y015497D01*
X008444Y015514D01*
X008444Y016114D01*
X008442Y016131D01*
X008438Y016148D01*
X008431Y016164D01*
X008421Y016178D01*
X008408Y016191D01*
X008394Y016201D01*
X008378Y016208D01*
X008361Y016212D01*
X008344Y016214D01*
X007244Y016214D01*
X007227Y016212D01*
X007210Y016208D01*
X007194Y016201D01*
X007180Y016191D01*
X007167Y016178D01*
X007157Y016164D01*
X007150Y016148D01*
X007146Y016131D01*
X007144Y016114D01*
X007144Y015514D01*
X007146Y015497D01*
X007150Y015480D01*
X007157Y015464D01*
X007167Y015450D01*
X007180Y015437D01*
X007194Y015427D01*
X007210Y015420D01*
X007227Y015416D01*
X007244Y015414D01*
X007532Y018084D02*
X007532Y018284D01*
X007532Y018084D02*
X007732Y018084D01*
X008532Y018084D02*
X008732Y018084D01*
X008732Y018284D01*
X008732Y019084D02*
X008732Y019284D01*
X008532Y019284D01*
X007732Y019284D02*
X007532Y019284D01*
X007532Y019084D01*
X006764Y019084D02*
X006764Y019284D01*
X006564Y019284D01*
X005764Y019284D02*
X005564Y019284D01*
X005564Y019084D01*
X004795Y019084D02*
X004795Y019284D01*
X004595Y019284D01*
X003795Y019284D02*
X003595Y019284D01*
X003595Y019084D01*
X004595Y018084D02*
X004795Y018084D01*
X004795Y018284D01*
X005564Y018284D02*
X005564Y018084D01*
X005764Y018084D01*
X006564Y018084D02*
X006764Y018084D01*
X006764Y018284D01*
D12*
X011656Y007892D02*
X011656Y007767D01*
X011681Y007742D01*
X011731Y007742D01*
X011756Y007767D01*
X011756Y007892D01*
X011803Y007842D02*
X011853Y007892D01*
X011853Y007742D01*
X011803Y007742D02*
X011903Y007742D01*
D13*
X000441Y000610D02*
X000291Y000760D01*
X000742Y000760D01*
X000742Y000610D02*
X000742Y000910D01*
X000667Y002760D02*
X000742Y002835D01*
X000742Y002985D01*
X000667Y003060D01*
X000592Y003060D01*
X000516Y002985D01*
X000516Y002835D01*
X000441Y002760D01*
X000366Y002760D01*
X000291Y002835D01*
X000291Y002985D01*
X000366Y003060D01*
X000291Y003221D02*
X000592Y003221D01*
X000742Y003371D01*
X000592Y003521D01*
X000291Y003521D01*
X000366Y003681D02*
X000291Y003756D01*
X000291Y003906D01*
X000366Y003981D01*
X000441Y003981D01*
X000742Y003681D01*
X000742Y003981D01*
X003620Y002586D02*
X003620Y002136D01*
X003620Y002286D02*
X003846Y002286D01*
X003921Y002361D01*
X003921Y002511D01*
X003846Y002586D01*
X003620Y002586D01*
X004081Y002436D02*
X004081Y002136D01*
X004081Y002361D02*
X004381Y002361D01*
X004381Y002436D02*
X004381Y002136D01*
X004541Y002136D02*
X004766Y002136D01*
X004841Y002211D01*
X004841Y002511D01*
X004766Y002586D01*
X004541Y002586D01*
X004541Y002136D01*
X004381Y002436D02*
X004231Y002586D01*
X004081Y002436D01*
X005002Y002436D02*
X005152Y002586D01*
X005152Y002136D01*
X005002Y002136D02*
X005302Y002136D01*
X005462Y002136D02*
X005462Y002211D01*
X005762Y002511D01*
X005762Y002586D01*
X005462Y002586D01*
X005589Y002586D02*
X005814Y002586D01*
X005889Y002511D01*
X005889Y002361D01*
X005814Y002286D01*
X005589Y002286D01*
X005589Y002136D02*
X005589Y002586D01*
X006049Y002436D02*
X006049Y002136D01*
X006049Y002361D02*
X006350Y002361D01*
X006350Y002436D02*
X006199Y002586D01*
X006049Y002436D01*
X006350Y002436D02*
X006350Y002136D01*
X006510Y002136D02*
X006735Y002136D01*
X006810Y002211D01*
X006810Y002511D01*
X006735Y002586D01*
X006510Y002586D01*
X006510Y002136D01*
X006970Y002211D02*
X007045Y002136D01*
X007195Y002136D01*
X007270Y002211D01*
X007270Y002511D01*
X007195Y002586D01*
X007045Y002586D01*
X006970Y002511D01*
X006970Y002436D01*
X007045Y002361D01*
X007270Y002361D01*
X007557Y002286D02*
X007783Y002286D01*
X007858Y002361D01*
X007858Y002511D01*
X007783Y002586D01*
X007557Y002586D01*
X007557Y002136D01*
X008018Y002136D02*
X008018Y002436D01*
X008168Y002586D01*
X008318Y002436D01*
X008318Y002136D01*
X008478Y002136D02*
X008703Y002136D01*
X008778Y002211D01*
X008778Y002511D01*
X008703Y002586D01*
X008478Y002586D01*
X008478Y002136D01*
X008318Y002361D02*
X008018Y002361D01*
X008939Y002436D02*
X009089Y002586D01*
X009089Y002136D01*
X008939Y002136D02*
X009239Y002136D01*
X009399Y002211D02*
X009399Y002361D01*
X009624Y002361D01*
X009699Y002286D01*
X009699Y002211D01*
X009624Y002136D01*
X009474Y002136D01*
X009399Y002211D01*
X009526Y002136D02*
X009526Y002586D01*
X009751Y002586D01*
X009826Y002511D01*
X009826Y002361D01*
X009751Y002286D01*
X009526Y002286D01*
X009399Y002361D02*
X009549Y002511D01*
X009699Y002586D01*
X009986Y002436D02*
X010136Y002586D01*
X010287Y002436D01*
X010287Y002136D01*
X010447Y002136D02*
X010672Y002136D01*
X010747Y002211D01*
X010747Y002511D01*
X010672Y002586D01*
X010447Y002586D01*
X010447Y002136D01*
X010287Y002361D02*
X009986Y002361D01*
X009986Y002436D02*
X009986Y002136D01*
X010907Y002136D02*
X011207Y002136D01*
X011057Y002136D02*
X011057Y002586D01*
X010907Y002436D01*
X011367Y002361D02*
X011668Y002361D01*
X011720Y002286D02*
X011494Y002286D01*
X011367Y002361D02*
X011593Y002586D01*
X011593Y002136D01*
X011494Y002136D02*
X011494Y002586D01*
X011720Y002586D01*
X011795Y002511D01*
X011795Y002361D01*
X011720Y002286D01*
X011955Y002361D02*
X012255Y002361D01*
X012255Y002436D02*
X012105Y002586D01*
X011955Y002436D01*
X011955Y002136D01*
X012255Y002136D02*
X012255Y002436D01*
X012415Y002586D02*
X012640Y002586D01*
X012715Y002511D01*
X012715Y002211D01*
X012640Y002136D01*
X012415Y002136D01*
X012415Y002586D01*
X012876Y002436D02*
X013026Y002586D01*
X013026Y002136D01*
X012876Y002136D02*
X013176Y002136D01*
X013336Y002211D02*
X013336Y002286D01*
X013411Y002361D01*
X013561Y002361D01*
X013636Y002286D01*
X013636Y002211D01*
X013561Y002136D01*
X013411Y002136D01*
X013336Y002211D01*
X013463Y002136D02*
X013463Y002586D01*
X013688Y002586D01*
X013763Y002511D01*
X013763Y002361D01*
X013688Y002286D01*
X013463Y002286D01*
X013411Y002361D02*
X013336Y002436D01*
X013336Y002511D01*
X013411Y002586D01*
X013561Y002586D01*
X013636Y002511D01*
X013636Y002436D01*
X013561Y002361D01*
X013923Y002361D02*
X014224Y002361D01*
X014224Y002436D02*
X014224Y002136D01*
X014384Y002136D02*
X014609Y002136D01*
X014684Y002211D01*
X014684Y002511D01*
X014609Y002586D01*
X014384Y002586D01*
X014384Y002136D01*
X014224Y002436D02*
X014073Y002586D01*
X013923Y002436D01*
X013923Y002136D01*
X014366Y002760D02*
X014441Y002760D01*
X014516Y002835D01*
X014516Y002985D01*
X014592Y003060D01*
X014667Y003060D01*
X014742Y002985D01*
X014742Y002835D01*
X014667Y002760D01*
X014844Y002586D02*
X015144Y002586D01*
X015144Y002511D01*
X014844Y002211D01*
X014844Y002136D01*
X014366Y002760D02*
X014291Y002835D01*
X014291Y002985D01*
X014366Y003060D01*
X014291Y003221D02*
X014592Y003221D01*
X014742Y003371D01*
X014592Y003521D01*
X014291Y003521D01*
X014366Y003681D02*
X014291Y003756D01*
X014291Y003906D01*
X014366Y003981D01*
X014441Y003981D01*
X014516Y003906D01*
X014592Y003981D01*
X014667Y003981D01*
X014742Y003906D01*
X014742Y003756D01*
X014667Y003681D01*
X014516Y003831D02*
X014516Y003906D01*
X014742Y000910D02*
X014742Y000610D01*
X014742Y000760D02*
X014291Y000760D01*
X014441Y000610D01*
X011400Y005174D02*
X011250Y005174D01*
X011175Y005249D01*
X011175Y005399D01*
X011400Y005399D01*
X011475Y005324D01*
X011475Y005249D01*
X011400Y005174D01*
X011175Y005399D02*
X011325Y005549D01*
X011475Y005624D01*
X007146Y005174D02*
X006846Y005174D01*
X006996Y005174D02*
X006996Y005624D01*
X006846Y005474D01*
X006686Y005324D02*
X006686Y005624D01*
X006686Y005324D02*
X006536Y005174D01*
X006386Y005324D01*
X006386Y005624D01*
X006225Y005549D02*
X006150Y005624D01*
X006000Y005624D01*
X005925Y005549D01*
X005925Y005474D01*
X006000Y005399D01*
X006150Y005399D01*
X006225Y005324D01*
X006225Y005249D01*
X006150Y005174D01*
X006000Y005174D01*
X005925Y005249D01*
X006088Y005287D02*
X006088Y004987D01*
X006388Y005287D01*
X006388Y004987D01*
X006313Y004912D01*
X006163Y004912D01*
X006088Y004987D01*
X005928Y004912D02*
X005628Y004912D01*
X005778Y004912D02*
X005778Y005362D01*
X005628Y005212D01*
X005467Y005287D02*
X005467Y004987D01*
X005392Y004912D01*
X005167Y004912D01*
X005167Y005362D01*
X005392Y005362D01*
X005467Y005287D01*
X005007Y005212D02*
X005007Y004912D01*
X005007Y005137D02*
X004707Y005137D01*
X004707Y005212D02*
X004857Y005362D01*
X005007Y005212D01*
X004707Y005212D02*
X004707Y004912D01*
X004547Y005137D02*
X004472Y005062D01*
X004246Y005062D01*
X004246Y004912D02*
X004246Y005362D01*
X004472Y005362D01*
X004547Y005287D01*
X004547Y005137D01*
X004695Y006416D02*
X004695Y006716D01*
X004845Y006866D01*
X004995Y006716D01*
X004995Y006416D01*
X005155Y006416D02*
X005381Y006416D01*
X005456Y006491D01*
X005456Y006791D01*
X005381Y006866D01*
X005155Y006866D01*
X005155Y006416D01*
X004995Y006641D02*
X004695Y006641D01*
X004535Y006641D02*
X004535Y006791D01*
X004460Y006866D01*
X004235Y006866D01*
X004235Y006416D01*
X004235Y006566D02*
X004460Y006566D01*
X004535Y006641D01*
X005616Y006716D02*
X005766Y006866D01*
X005766Y006416D01*
X005616Y006416D02*
X005916Y006416D01*
X006076Y006416D02*
X006376Y006416D01*
X006226Y006416D02*
X006226Y006866D01*
X006076Y006716D01*
X006163Y005362D02*
X006313Y005362D01*
X006388Y005287D01*
X006163Y005362D02*
X006088Y005287D01*
X006325Y003824D02*
X006175Y003674D01*
X006325Y003824D02*
X006325Y003374D01*
X006175Y003374D02*
X006475Y003374D01*
X006489Y009813D02*
X006489Y010264D01*
X006714Y010264D01*
X006789Y010189D01*
X006789Y010038D01*
X006714Y009963D01*
X006489Y009963D01*
X006253Y009888D02*
X006253Y010264D01*
X006178Y010264D02*
X006328Y010264D01*
X006253Y009888D02*
X006178Y009813D01*
X006103Y009813D01*
X006028Y009888D01*
X006949Y009813D02*
X007249Y010114D01*
X007249Y010189D01*
X007174Y010264D01*
X007024Y010264D01*
X006949Y010189D01*
X006949Y009813D02*
X007249Y009813D01*
X007313Y014889D02*
X007163Y014889D01*
X007088Y014964D01*
X007163Y015114D02*
X007088Y015189D01*
X007088Y015264D01*
X007163Y015339D01*
X007313Y015339D01*
X007388Y015264D01*
X007313Y015114D02*
X007163Y015114D01*
X007313Y015114D02*
X007388Y015039D01*
X007388Y014964D01*
X007313Y014889D01*
X007548Y014964D02*
X007623Y014889D01*
X007698Y014889D01*
X007773Y014964D01*
X007773Y015339D01*
X007698Y015339D02*
X007848Y015339D01*
X008008Y015189D02*
X008159Y015339D01*
X008159Y014889D01*
X008309Y014889D02*
X008008Y014889D01*
X003942Y017485D02*
X003867Y017410D01*
X003942Y017485D02*
X003942Y017635D01*
X003867Y017710D01*
X003792Y017710D01*
X003716Y017635D01*
X003716Y017560D01*
X003716Y017635D02*
X003641Y017710D01*
X003566Y017710D01*
X003491Y017635D01*
X003491Y017485D01*
X003566Y017410D01*
X003716Y017871D02*
X003716Y018096D01*
X003792Y018171D01*
X003867Y018171D01*
X003942Y018096D01*
X003942Y017946D01*
X003867Y017871D01*
X003716Y017871D01*
X003566Y018021D01*
X003491Y018171D01*
X003620Y019459D02*
X003620Y019909D01*
X003846Y019909D01*
X003921Y019834D01*
X003921Y019684D01*
X003846Y019609D01*
X003620Y019609D01*
X004081Y019684D02*
X004381Y019684D01*
X004381Y019759D02*
X004381Y019459D01*
X004541Y019459D02*
X004766Y019459D01*
X004841Y019534D01*
X004841Y019834D01*
X004766Y019909D01*
X004541Y019909D01*
X004541Y019459D01*
X004381Y019759D02*
X004231Y019909D01*
X004081Y019759D01*
X004081Y019459D01*
X005002Y019459D02*
X005302Y019759D01*
X005302Y019834D01*
X005227Y019909D01*
X005077Y019909D01*
X005002Y019834D01*
X005002Y019459D02*
X005302Y019459D01*
X005589Y019459D02*
X005589Y019909D01*
X005814Y019909D01*
X005889Y019834D01*
X005889Y019684D01*
X005814Y019609D01*
X005589Y019609D01*
X006049Y019684D02*
X006350Y019684D01*
X006350Y019759D02*
X006350Y019459D01*
X006510Y019459D02*
X006735Y019459D01*
X006810Y019534D01*
X006810Y019834D01*
X006735Y019909D01*
X006510Y019909D01*
X006510Y019459D01*
X006350Y019759D02*
X006199Y019909D01*
X006049Y019759D01*
X006049Y019459D01*
X006970Y019534D02*
X007045Y019459D01*
X007195Y019459D01*
X007270Y019534D01*
X007270Y019609D01*
X007195Y019684D01*
X007120Y019684D01*
X007195Y019684D02*
X007270Y019759D01*
X007270Y019834D01*
X007195Y019909D01*
X007045Y019909D01*
X006970Y019834D01*
X007557Y019909D02*
X007557Y019459D01*
X007557Y019609D02*
X007783Y019609D01*
X007858Y019684D01*
X007858Y019834D01*
X007783Y019909D01*
X007557Y019909D01*
X008018Y019759D02*
X008018Y019459D01*
X008018Y019684D02*
X008318Y019684D01*
X008318Y019759D02*
X008318Y019459D01*
X008478Y019459D02*
X008703Y019459D01*
X008778Y019534D01*
X008778Y019834D01*
X008703Y019909D01*
X008478Y019909D01*
X008478Y019459D01*
X008318Y019759D02*
X008168Y019909D01*
X008018Y019759D01*
X008939Y019684D02*
X009239Y019684D01*
X009164Y019459D02*
X009164Y019909D01*
X008939Y019684D01*
X009526Y019609D02*
X009751Y019609D01*
X009826Y019684D01*
X009826Y019834D01*
X009751Y019909D01*
X009526Y019909D01*
X009526Y019459D01*
X009986Y019459D02*
X009986Y019759D01*
X010136Y019909D01*
X010287Y019759D01*
X010287Y019459D01*
X010447Y019459D02*
X010672Y019459D01*
X010747Y019534D01*
X010747Y019834D01*
X010672Y019909D01*
X010447Y019909D01*
X010447Y019459D01*
X010287Y019684D02*
X009986Y019684D01*
X010907Y019684D02*
X011057Y019759D01*
X011132Y019759D01*
X011207Y019684D01*
X011207Y019534D01*
X011132Y019459D01*
X010982Y019459D01*
X010907Y019534D01*
X010907Y019684D02*
X010907Y019909D01*
X011207Y019909D01*
X011494Y019909D02*
X011720Y019909D01*
X011795Y019834D01*
X011795Y019684D01*
X011720Y019609D01*
X011494Y019609D01*
X011494Y019459D02*
X011494Y019909D01*
X011955Y019759D02*
X011955Y019459D01*
X011955Y019684D02*
X012255Y019684D01*
X012255Y019759D02*
X012255Y019459D01*
X012415Y019459D02*
X012640Y019459D01*
X012715Y019534D01*
X012715Y019834D01*
X012640Y019909D01*
X012415Y019909D01*
X012415Y019459D01*
X012255Y019759D02*
X012105Y019909D01*
X011955Y019759D01*
X012876Y019684D02*
X012876Y019534D01*
X012951Y019459D01*
X013101Y019459D01*
X013176Y019534D01*
X013176Y019609D01*
X013101Y019684D01*
X012876Y019684D01*
X013026Y019834D01*
X013176Y019909D01*
X013463Y019909D02*
X013688Y019909D01*
X013763Y019834D01*
X013763Y019684D01*
X013688Y019609D01*
X013463Y019609D01*
X013463Y019459D02*
X013463Y019909D01*
X013923Y019759D02*
X013923Y019459D01*
X013923Y019684D02*
X014224Y019684D01*
X014224Y019759D02*
X014224Y019459D01*
X014384Y019459D02*
X014609Y019459D01*
X014684Y019534D01*
X014684Y019834D01*
X014609Y019909D01*
X014384Y019909D01*
X014384Y019459D01*
X014224Y019759D02*
X014073Y019909D01*
X013923Y019759D01*
X014844Y019759D02*
X014994Y019909D01*
X014994Y019459D01*
X014844Y019459D02*
X015144Y019459D01*
X017491Y018171D02*
X017566Y018021D01*
X017716Y017871D01*
X017716Y018096D01*
X017792Y018171D01*
X017867Y018171D01*
X017942Y018096D01*
X017942Y017946D01*
X017867Y017871D01*
X017716Y017871D01*
X017641Y017710D02*
X017716Y017635D01*
X017792Y017710D01*
X017867Y017710D01*
X017942Y017635D01*
X017942Y017485D01*
X017867Y017410D01*
X017716Y017560D02*
X017716Y017635D01*
X017641Y017710D02*
X017566Y017710D01*
X017491Y017635D01*
X017491Y017485D01*
X017566Y017410D01*
X014551Y013227D02*
X014326Y013002D01*
X014626Y013002D01*
X014549Y012878D02*
X014549Y012803D01*
X014474Y012728D01*
X014549Y012653D01*
X014549Y012578D01*
X014474Y012503D01*
X014324Y012503D01*
X014249Y012578D01*
X014399Y012728D02*
X014474Y012728D01*
X014551Y012777D02*
X014551Y013227D01*
X014474Y012953D02*
X014324Y012953D01*
X014249Y012878D01*
X014091Y012852D02*
X014091Y013227D01*
X014016Y013227D02*
X014166Y013227D01*
X014088Y012953D02*
X013938Y012953D01*
X014013Y012953D02*
X014013Y012578D01*
X013938Y012503D01*
X013863Y012503D01*
X013788Y012578D01*
X013628Y012578D02*
X013553Y012503D01*
X013403Y012503D01*
X013328Y012578D01*
X013403Y012728D02*
X013328Y012803D01*
X013328Y012878D01*
X013403Y012953D01*
X013553Y012953D01*
X013628Y012878D01*
X013705Y012852D02*
X013630Y012777D01*
X013480Y012777D01*
X013405Y012852D01*
X013403Y012728D02*
X013553Y012728D01*
X013628Y012653D01*
X013628Y012578D01*
X013705Y012852D02*
X013705Y012927D01*
X013630Y013002D01*
X013480Y013002D01*
X013405Y013077D01*
X013405Y013152D01*
X013480Y013227D01*
X013630Y013227D01*
X013705Y013152D01*
X013865Y012852D02*
X013941Y012777D01*
X014016Y012777D01*
X014091Y012852D01*
X014474Y012953D02*
X014549Y012878D01*
D14*
X014216Y010574D02*
X014216Y010113D01*
X014369Y010113D02*
X014062Y010113D01*
X013909Y010190D02*
X013832Y010113D01*
X013678Y010113D01*
X013602Y010190D01*
X013602Y010497D01*
X013678Y010574D01*
X013832Y010574D01*
X013909Y010497D01*
X014062Y010420D02*
X014216Y010574D01*
X014379Y008011D02*
X014532Y008011D01*
X014609Y007934D01*
X014609Y007857D01*
X014532Y007781D01*
X014609Y007704D01*
X014609Y007627D01*
X014532Y007550D01*
X014379Y007550D01*
X014302Y007627D01*
X014149Y007550D02*
X013842Y007550D01*
X013995Y007550D02*
X013995Y008011D01*
X013842Y007857D01*
X013688Y007934D02*
X013688Y007627D01*
X013612Y007550D01*
X013381Y007550D01*
X013381Y008011D01*
X013612Y008011D01*
X013688Y007934D01*
X013228Y007857D02*
X013228Y007550D01*
X013228Y007781D02*
X012921Y007781D01*
X012921Y007857D02*
X013075Y008011D01*
X013228Y007857D01*
X012921Y007857D02*
X012921Y007550D01*
X012691Y007704D02*
X012461Y007704D01*
X012461Y007550D02*
X012461Y008011D01*
X012691Y008011D01*
X012768Y007934D01*
X012768Y007781D01*
X012691Y007704D01*
X014302Y007934D02*
X014379Y008011D01*
X014456Y007781D02*
X014532Y007781D01*
X011763Y013420D02*
X011456Y013420D01*
X011763Y013727D01*
X011763Y013804D01*
X011686Y013881D01*
X011533Y013881D01*
X011456Y013804D01*
X011149Y013881D02*
X011149Y013420D01*
X011302Y013420D02*
X010995Y013420D01*
X010842Y013497D02*
X010842Y013804D01*
X010765Y013881D01*
X010535Y013881D01*
X010535Y013420D01*
X010765Y013420D01*
X010842Y013497D01*
X010995Y013727D02*
X011149Y013881D01*
X010382Y013727D02*
X010382Y013420D01*
X010382Y013651D02*
X010075Y013651D01*
X010075Y013727D02*
X010228Y013881D01*
X010382Y013727D01*
X010075Y013727D02*
X010075Y013420D01*
X009921Y013651D02*
X009844Y013574D01*
X009614Y013574D01*
X009614Y013420D02*
X009614Y013881D01*
X009844Y013881D01*
X009921Y013804D01*
X009921Y013651D01*
X005904Y010182D02*
X005827Y010259D01*
X005673Y010259D01*
X005597Y010182D01*
X005443Y010182D02*
X005366Y010259D01*
X005136Y010259D01*
X005136Y009798D01*
X005366Y009798D01*
X005443Y009875D01*
X005443Y010182D01*
X005597Y009798D02*
X005904Y010105D01*
X005904Y010182D01*
X005904Y009798D02*
X005597Y009798D01*
X004983Y009798D02*
X004676Y009798D01*
X004676Y010259D01*
X004983Y010259D01*
X004829Y010029D02*
X004676Y010029D01*
X004522Y009798D02*
X004215Y009798D01*
X004215Y010259D01*
X006377Y008696D02*
X006377Y008235D01*
X006377Y008389D02*
X006607Y008389D01*
X006684Y008466D01*
X006684Y008619D01*
X006607Y008696D01*
X006377Y008696D01*
X006531Y008389D02*
X006684Y008235D01*
X006838Y008466D02*
X007145Y008466D01*
X007068Y008696D02*
X007068Y008235D01*
X006838Y008466D02*
X007068Y008696D01*
D15*
X004754Y009042D03*
X004754Y009515D03*
D16*
X004754Y009278D03*
M02*
