G75*
%MOIN*%
%OFA0B0*%
%FSLAX24Y24*%
%IPPOS*%
%LPD*%
%AMOC8*
5,1,8,0,0,1.08239X$1,22.5*
%
%ADD10C,0.0160*%
%ADD11OC8,0.0600*%
%ADD12R,0.0480X0.0880*%
%ADD13R,0.1417X0.0866*%
%ADD14OC8,0.1250*%
%ADD15C,0.0600*%
%ADD16R,0.0630X0.0787*%
%ADD17C,0.0560*%
%ADD18OC8,0.0560*%
%ADD19R,0.2000X0.1000*%
%ADD20C,0.0356*%
%ADD21C,0.0320*%
%ADD22C,0.0240*%
%ADD23C,0.0060*%
D10*
X001046Y000180D02*
X017188Y000180D01*
X017188Y019865D01*
X001046Y019865D01*
X001046Y000180D01*
X004821Y004137D02*
X005758Y005074D01*
X005758Y006625D01*
X005355Y007028D01*
X005355Y007788D01*
X005077Y008066D01*
X004888Y008066D01*
X004912Y007475D02*
X004810Y007373D01*
X004810Y005641D01*
X005758Y007078D02*
X005758Y008133D01*
X005790Y008101D01*
X005758Y007078D02*
X006904Y005932D01*
X006904Y002101D01*
X006164Y001361D01*
X007888Y003168D02*
X007888Y005558D01*
X006371Y007076D01*
X006371Y011524D01*
X005884Y011038D01*
X006371Y011524D02*
X006384Y011538D01*
X006384Y012818D01*
X006432Y012865D01*
X005794Y013263D02*
X005794Y016704D01*
X005719Y016778D01*
X006475Y016420D02*
X006475Y014086D01*
X005794Y013263D02*
X005573Y013042D01*
X004782Y013042D01*
X004512Y012773D01*
X004317Y012578D01*
X004317Y011023D01*
X004337Y011023D01*
X004353Y011038D01*
X004884Y011038D01*
X004317Y011023D02*
X004317Y010192D01*
X004337Y010172D01*
X003294Y012936D02*
X002991Y013239D01*
X002113Y013239D01*
X001617Y013735D01*
X003164Y014235D02*
X003223Y014294D01*
X003223Y016101D01*
X003900Y016778D01*
X006475Y016420D02*
X006817Y016762D01*
X009719Y016747D02*
X009731Y016734D01*
X009731Y015223D01*
X010853Y013432D02*
X010884Y013097D01*
X011006Y013219D01*
X011050Y013263D01*
X011022Y013318D02*
X010845Y013141D01*
X010845Y013129D01*
X010853Y013432D01*
X012400Y012893D02*
X012400Y016613D01*
X012534Y016747D01*
X014640Y015589D02*
X014652Y015578D01*
X014361Y011267D02*
X014428Y011200D01*
X015065Y011200D01*
X014357Y009704D02*
X014361Y009700D01*
X014361Y009211D02*
X014077Y009211D01*
X013499Y009574D02*
X013073Y009149D01*
X013073Y006243D01*
X012731Y005900D01*
X008719Y005900D01*
X007880Y006739D01*
X007880Y007542D01*
X008983Y007542D02*
X009892Y006633D01*
X010640Y006633D01*
X009321Y007204D02*
X008983Y007542D01*
X009097Y007656D01*
X009097Y011404D01*
X008731Y011771D01*
X007884Y011109D02*
X007884Y013200D01*
X007806Y013278D01*
X003294Y012936D02*
X003294Y007239D01*
X007888Y003168D02*
X008014Y003042D01*
X012022Y003042D01*
X012069Y002995D01*
X012069Y001361D01*
X013369Y002314D02*
X013640Y002586D01*
X013640Y007601D01*
X013522Y007719D01*
X014117Y007759D02*
X014349Y007759D01*
X014361Y007771D01*
X014782Y008074D02*
X014782Y002960D01*
X014751Y002928D01*
X014786Y002963D01*
X014286Y003684D02*
X014050Y003684D01*
X014038Y003696D01*
X014782Y008074D02*
X014955Y008247D01*
X016128Y008247D01*
X016617Y008735D01*
X013499Y009574D02*
X013499Y010515D01*
D11*
X006884Y011038D03*
X005884Y011038D03*
X005884Y012038D03*
X006884Y012038D03*
X004884Y012038D03*
X004884Y011038D03*
D12*
X006817Y016762D03*
X007727Y016762D03*
X008637Y016762D03*
X009719Y016747D03*
X010628Y016747D03*
X011538Y016747D03*
X012534Y016747D03*
X013443Y016747D03*
X014353Y016747D03*
X005719Y016778D03*
X004810Y016778D03*
X003900Y016778D03*
D13*
X004810Y014338D03*
X007727Y014322D03*
X010628Y014306D03*
X013443Y014306D03*
D14*
X014038Y018684D03*
X012069Y018684D03*
X010101Y018684D03*
X008132Y018684D03*
X006164Y018684D03*
X004195Y018684D03*
X004810Y005641D03*
X004821Y004137D03*
X004195Y001361D03*
X006164Y001361D03*
X008132Y001361D03*
X010101Y001361D03*
X012069Y001361D03*
X014038Y001361D03*
D15*
X011400Y004199D02*
X011400Y004799D01*
X010400Y004799D02*
X010400Y004199D01*
X009400Y004199D02*
X009400Y004799D01*
X008400Y004799D02*
X008400Y004199D01*
X007400Y004199D02*
X007400Y004799D01*
X006400Y004799D02*
X006400Y004199D01*
D16*
X007880Y007542D03*
X008983Y007542D03*
D17*
X015617Y000735D03*
X001617Y000735D03*
D18*
X001617Y001735D03*
X001617Y002735D03*
X001617Y003735D03*
X001617Y004735D03*
X001617Y005735D03*
X001617Y006735D03*
X001617Y007735D03*
X001617Y008735D03*
X001617Y009735D03*
X001617Y010735D03*
X001617Y011735D03*
X001617Y012735D03*
X001617Y013735D03*
X001617Y014735D03*
X001617Y015735D03*
X001617Y016735D03*
X001617Y017735D03*
X002617Y017735D03*
X002617Y016735D03*
X002617Y015735D03*
X002617Y014735D03*
X002617Y013735D03*
X002617Y012735D03*
X002617Y011735D03*
X002617Y010735D03*
X002617Y009735D03*
X002617Y008735D03*
X002617Y007735D03*
X002617Y006735D03*
X002617Y005735D03*
X002617Y004735D03*
X002617Y003735D03*
X002617Y002735D03*
X002617Y001735D03*
X002617Y000735D03*
X015617Y001735D03*
X016617Y001735D03*
X016617Y000735D03*
X016617Y002735D03*
X016617Y003735D03*
X016617Y004735D03*
X016617Y005735D03*
X016617Y006735D03*
X016617Y007735D03*
X016617Y008735D03*
X016617Y009735D03*
X016617Y010735D03*
X016617Y011735D03*
X016617Y012735D03*
X016617Y013735D03*
X016617Y014735D03*
X016617Y015735D03*
X016617Y016735D03*
X016617Y017735D03*
X015617Y017735D03*
X015617Y016735D03*
X015617Y015735D03*
X015617Y014735D03*
X015617Y013735D03*
X015617Y012735D03*
X015617Y011735D03*
X015617Y010735D03*
X015617Y009735D03*
X015617Y008735D03*
X015617Y007735D03*
X015617Y006735D03*
X015617Y005735D03*
X015617Y004735D03*
X015617Y003735D03*
X015617Y002735D03*
D19*
X010884Y013089D03*
D20*
X010853Y013432D03*
X012400Y012893D03*
X013499Y010515D03*
X013499Y009574D03*
X014077Y009211D03*
X014117Y007759D03*
X013522Y007719D03*
X010640Y006633D03*
X014286Y003684D03*
X014751Y002928D03*
X013369Y002314D03*
X005758Y008133D03*
X004888Y008066D03*
X004912Y007475D03*
X003294Y007239D03*
X004337Y010172D03*
X004512Y012773D03*
X003164Y014235D03*
X003668Y015420D03*
X006475Y014086D03*
X006432Y012865D03*
X007806Y013278D03*
X008731Y011771D03*
X007884Y011109D03*
X009731Y015223D03*
X009109Y019271D03*
X007152Y019282D03*
X011101Y019271D03*
X015065Y011200D03*
D21*
X014361Y011267D02*
X014361Y012928D01*
X014652Y013219D01*
X014652Y015578D01*
X014652Y016798D01*
X014601Y016747D01*
X014353Y016747D01*
X014652Y016798D02*
X014652Y018070D01*
X014987Y017735D01*
X015617Y017735D01*
X014652Y018070D02*
X014038Y018684D01*
X014361Y011267D02*
X014361Y009700D01*
X014361Y009211D01*
X014361Y007771D01*
X014361Y006471D01*
X014038Y006149D01*
X014038Y003696D01*
X014038Y001361D01*
X004195Y001361D02*
X003841Y001715D01*
X003841Y013255D01*
X003668Y013428D01*
X003668Y015420D01*
D22*
X004810Y014338D02*
X004810Y016778D01*
X004810Y017239D01*
X006164Y018593D01*
X006164Y018684D01*
X006306Y017806D02*
X006747Y017806D01*
X007152Y018211D01*
X007152Y019282D01*
X008132Y018684D02*
X007727Y018278D01*
X007727Y016762D01*
X007727Y014322D01*
X008637Y016762D02*
X008637Y017901D01*
X009113Y018377D01*
X009113Y019267D01*
X009109Y019271D01*
X010101Y018684D02*
X010628Y018156D01*
X010628Y016747D01*
X010628Y014306D01*
X011538Y016747D02*
X011538Y017443D01*
X011101Y017881D01*
X011101Y019271D01*
X012069Y018684D02*
X013443Y017310D01*
X013443Y016747D01*
X013443Y014306D01*
X006306Y017806D02*
X005719Y017220D01*
X005719Y016778D01*
D23*
X010884Y013089D02*
X011046Y013180D01*
X011006Y013219D01*
M02*
