G75*
%MOIN*%
%OFA0B0*%
%FSLAX24Y24*%
%IPPOS*%
%LPD*%
%AMOC8*
5,1,8,0,0,1.08239X$1,22.5*
%
%ADD10C,0.0160*%
%ADD11R,0.0500X0.0220*%
%ADD12R,0.0220X0.0500*%
%ADD13R,0.0472X0.0472*%
%ADD14R,0.0630X0.0787*%
%ADD15R,0.0512X0.0591*%
%ADD16R,0.0460X0.0630*%
%ADD17R,0.2000X0.1000*%
%ADD18R,0.1000X0.0500*%
D10*
X001046Y000180D02*
X017188Y000180D01*
X017188Y019865D01*
X001046Y019865D01*
X001046Y000180D01*
D11*
X009005Y008794D03*
X009005Y009109D03*
X009005Y009424D03*
X009005Y009739D03*
X009005Y010054D03*
X009005Y010369D03*
X009005Y010684D03*
X009005Y010999D03*
X012385Y010999D03*
X012385Y010684D03*
X012385Y010369D03*
X012385Y010054D03*
X012385Y009739D03*
X012385Y009424D03*
X012385Y009109D03*
X012385Y008794D03*
D12*
X011798Y008207D03*
X011483Y008207D03*
X011168Y008207D03*
X010853Y008207D03*
X010538Y008207D03*
X010223Y008207D03*
X009908Y008207D03*
X009593Y008207D03*
X009593Y011587D03*
X009908Y011587D03*
X010223Y011587D03*
X010538Y011587D03*
X010853Y011587D03*
X011168Y011587D03*
X011483Y011587D03*
X011798Y011587D03*
D13*
X005109Y009278D03*
X004282Y009278D03*
D14*
X006227Y009215D03*
X007329Y009215D03*
D15*
X013628Y011093D03*
X014377Y011093D03*
D16*
X014330Y012302D03*
X013730Y012302D03*
X013734Y013428D03*
X014334Y013428D03*
X008094Y015814D03*
X007494Y015814D03*
D17*
X010912Y014491D03*
D18*
X013798Y008345D03*
M02*
