G75*
%MOIN*%
%OFA0B0*%
%FSLAX24Y24*%
%IPPOS*%
%LPD*%
%AMOC8*
5,1,8,0,0,1.08239X$1,22.5*
%
%ADD10C,0.0160*%
%ADD11C,0.0080*%
%ADD12C,0.0040*%
%ADD13C,0.0060*%
%ADD14C,0.0020*%
%ADD15C,0.0050*%
D10*
X003348Y000180D02*
X019490Y000180D01*
X019490Y019865D01*
X003348Y019865D01*
X003348Y000180D01*
D11*
X015307Y012496D02*
X015307Y013284D01*
X015710Y012890D01*
X015307Y012496D01*
X014456Y014826D02*
X017036Y014826D01*
X017036Y016226D01*
X014456Y016226D01*
X014456Y014826D01*
X014221Y014826D02*
X011641Y014826D01*
X011641Y016226D01*
X014221Y016226D01*
X014221Y014826D01*
X011320Y014842D02*
X008739Y014842D01*
X008739Y016242D01*
X011320Y016242D01*
X011320Y014842D01*
X008402Y014858D02*
X005822Y014858D01*
X005822Y016258D01*
X008402Y016258D01*
X008402Y014858D01*
D12*
X006888Y015060D02*
X006811Y014983D01*
X006658Y014983D01*
X006581Y015060D01*
X006581Y015367D01*
X006658Y015443D01*
X006811Y015443D01*
X006888Y015367D01*
X006888Y015060D01*
X006734Y015136D02*
X006581Y014983D01*
X006428Y015060D02*
X006351Y014983D01*
X006197Y014983D01*
X006121Y015060D01*
X006121Y015213D01*
X006197Y015290D01*
X006274Y015290D01*
X006428Y015213D01*
X006428Y015443D01*
X006121Y015443D01*
X010458Y015312D02*
X010765Y015312D01*
X010535Y015543D01*
X010535Y015082D01*
X010918Y015082D02*
X011072Y015236D01*
X011148Y015082D02*
X011225Y015159D01*
X011225Y015466D01*
X011148Y015543D01*
X010995Y015543D01*
X010918Y015466D01*
X010918Y015159D01*
X010995Y015082D01*
X011148Y015082D01*
X013224Y015128D02*
X013301Y015051D01*
X013455Y015051D01*
X013531Y015128D01*
X013685Y015128D02*
X013685Y015435D01*
X013762Y015512D01*
X013915Y015512D01*
X013992Y015435D01*
X013992Y015128D01*
X013915Y015051D01*
X013762Y015051D01*
X013685Y015128D01*
X013685Y015051D02*
X013838Y015205D01*
X013531Y015435D02*
X013455Y015512D01*
X013301Y015512D01*
X013224Y015435D01*
X013224Y015358D01*
X013301Y015282D01*
X013224Y015205D01*
X013224Y015128D01*
X013301Y015282D02*
X013378Y015282D01*
X014493Y013640D02*
X016273Y013640D01*
X016296Y015001D02*
X015989Y015001D01*
X016296Y015001D02*
X015989Y015308D01*
X015989Y015385D01*
X016066Y015462D01*
X016220Y015462D01*
X016296Y015385D01*
X016450Y015385D02*
X016450Y015078D01*
X016527Y015001D01*
X016680Y015001D01*
X016757Y015078D01*
X016757Y015385D01*
X016680Y015462D01*
X016527Y015462D01*
X016450Y015385D01*
X016603Y015155D02*
X016450Y015001D01*
X016273Y012140D02*
X014493Y012140D01*
X013204Y011646D02*
X012744Y011646D01*
X012744Y011493D02*
X012744Y011800D01*
X013051Y011493D02*
X013204Y011646D01*
X013204Y011186D02*
X012744Y011186D01*
X012744Y011339D02*
X012744Y011032D01*
X012821Y010879D02*
X013128Y010879D01*
X013204Y010802D01*
X013204Y010572D01*
X012744Y010572D01*
X012744Y010802D01*
X012821Y010879D01*
X013051Y011032D02*
X013204Y011186D01*
X013051Y010418D02*
X012744Y010418D01*
X012744Y010112D02*
X013051Y010112D01*
X013204Y010265D01*
X013051Y010418D01*
X012974Y010418D02*
X012974Y010112D01*
X012974Y009958D02*
X012898Y009881D01*
X012898Y009651D01*
X012744Y009651D02*
X013204Y009651D01*
X013204Y009881D01*
X013128Y009958D01*
X012974Y009958D01*
X015946Y008990D02*
X016253Y008990D01*
X016099Y008990D02*
X016099Y009450D01*
X016253Y009297D01*
X016406Y009374D02*
X016483Y009450D01*
X016637Y009450D01*
X016713Y009374D01*
X016713Y009067D01*
X016637Y008990D01*
X016483Y008990D01*
X016406Y009067D01*
X012723Y004346D02*
X012647Y004346D01*
X012570Y004270D01*
X012493Y004346D01*
X012416Y004346D01*
X012340Y004270D01*
X012340Y004116D01*
X012416Y004040D01*
X012416Y003886D02*
X012340Y003809D01*
X012340Y003656D01*
X012416Y003579D01*
X012723Y003579D01*
X012800Y003656D01*
X012800Y003809D01*
X012723Y003886D01*
X012723Y004040D02*
X012800Y004116D01*
X012800Y004270D01*
X012723Y004346D01*
X012570Y004270D02*
X012570Y004193D01*
X009910Y006360D02*
X009910Y006820D01*
X009680Y006820D01*
X009603Y006743D01*
X009603Y006590D01*
X009680Y006513D01*
X009910Y006513D01*
X009757Y006513D02*
X009603Y006360D01*
X009450Y006590D02*
X009143Y006590D01*
X009220Y006360D02*
X009220Y006820D01*
X009450Y006590D01*
D13*
X011802Y006453D02*
X011829Y006455D01*
X011856Y006460D01*
X011882Y006470D01*
X011906Y006482D01*
X011928Y006498D01*
X011948Y006516D01*
X011965Y006538D01*
X011980Y006561D01*
X011990Y006586D01*
X011998Y006612D01*
X012002Y006639D01*
X012002Y006667D01*
X011998Y006694D01*
X011990Y006720D01*
X011980Y006745D01*
X011965Y006768D01*
X011948Y006790D01*
X011928Y006808D01*
X011906Y006824D01*
X011882Y006836D01*
X011856Y006846D01*
X011829Y006851D01*
X011802Y006853D01*
X011802Y007273D01*
X011804Y007296D01*
X011809Y007319D01*
X011818Y007341D01*
X011831Y007361D01*
X011846Y007379D01*
X011864Y007394D01*
X011884Y007407D01*
X011906Y007416D01*
X011929Y007421D01*
X011952Y007423D01*
X011802Y006853D02*
X011802Y006453D01*
X011802Y006033D01*
X011804Y006010D01*
X011809Y005987D01*
X011818Y005965D01*
X011831Y005945D01*
X011846Y005927D01*
X011864Y005912D01*
X011884Y005899D01*
X011906Y005890D01*
X011929Y005885D01*
X011952Y005883D01*
X012073Y008895D02*
X011473Y008895D01*
X011456Y008897D01*
X011439Y008901D01*
X011423Y008908D01*
X011409Y008918D01*
X011396Y008931D01*
X011386Y008945D01*
X011379Y008961D01*
X011375Y008978D01*
X011373Y008995D01*
X011373Y010095D01*
X011375Y010112D01*
X011379Y010129D01*
X011386Y010145D01*
X011396Y010159D01*
X011409Y010172D01*
X011423Y010182D01*
X011439Y010189D01*
X011456Y010193D01*
X011473Y010195D01*
X012073Y010195D01*
X012086Y010178D02*
X011486Y010178D01*
X011469Y010180D01*
X011452Y010184D01*
X011436Y010191D01*
X011422Y010201D01*
X011409Y010214D01*
X011399Y010228D01*
X011392Y010244D01*
X011388Y010261D01*
X011386Y010278D01*
X011386Y011378D01*
X011388Y011395D01*
X011392Y011412D01*
X011399Y011428D01*
X011409Y011442D01*
X011422Y011455D01*
X011436Y011465D01*
X011452Y011472D01*
X011469Y011476D01*
X011486Y011478D01*
X012086Y011478D01*
X012103Y011476D01*
X012120Y011472D01*
X012136Y011465D01*
X012150Y011455D01*
X012163Y011442D01*
X012173Y011428D01*
X012180Y011412D01*
X012184Y011395D01*
X012186Y011378D01*
X012186Y010278D01*
X012184Y010261D01*
X012180Y010244D01*
X012173Y010228D01*
X012163Y010214D01*
X012150Y010201D01*
X012136Y010191D01*
X012120Y010184D01*
X012103Y010180D01*
X012086Y010178D01*
X012073Y010195D02*
X012090Y010193D01*
X012107Y010189D01*
X012123Y010182D01*
X012137Y010172D01*
X012150Y010159D01*
X012160Y010145D01*
X012167Y010129D01*
X012171Y010112D01*
X012173Y010095D01*
X012173Y008995D01*
X012171Y008978D01*
X012167Y008961D01*
X012160Y008945D01*
X012150Y008931D01*
X012137Y008918D01*
X012123Y008908D01*
X012107Y008901D01*
X012090Y008897D01*
X012073Y008895D01*
X012086Y011005D02*
X011486Y011005D01*
X011469Y011007D01*
X011452Y011011D01*
X011436Y011018D01*
X011422Y011028D01*
X011409Y011041D01*
X011399Y011055D01*
X011392Y011071D01*
X011388Y011088D01*
X011386Y011105D01*
X011386Y012205D01*
X011388Y012222D01*
X011392Y012239D01*
X011399Y012255D01*
X011409Y012269D01*
X011422Y012282D01*
X011436Y012292D01*
X011452Y012299D01*
X011469Y012303D01*
X011486Y012305D01*
X012086Y012305D01*
X012103Y012303D01*
X012120Y012299D01*
X012136Y012292D01*
X012150Y012282D01*
X012163Y012269D01*
X012173Y012255D01*
X012180Y012239D01*
X012184Y012222D01*
X012186Y012205D01*
X012186Y011105D01*
X012184Y011088D01*
X012180Y011071D01*
X012173Y011055D01*
X012163Y011041D01*
X012150Y011028D01*
X012136Y011018D01*
X012120Y011011D01*
X012103Y011007D01*
X012086Y011005D01*
X012350Y012637D02*
X011250Y012637D01*
X011233Y012639D01*
X011216Y012643D01*
X011200Y012650D01*
X011186Y012660D01*
X011173Y012673D01*
X011163Y012687D01*
X011156Y012703D01*
X011152Y012720D01*
X011150Y012737D01*
X011150Y013337D01*
X011152Y013354D01*
X011156Y013371D01*
X011163Y013387D01*
X011173Y013401D01*
X011186Y013414D01*
X011200Y013424D01*
X011216Y013431D01*
X011233Y013435D01*
X011250Y013437D01*
X012350Y013437D01*
X012367Y013435D01*
X012384Y013431D01*
X012400Y013424D01*
X012414Y013414D01*
X012427Y013401D01*
X012437Y013387D01*
X012444Y013371D01*
X012448Y013354D01*
X012450Y013337D01*
X012450Y012737D01*
X012448Y012720D01*
X012444Y012703D01*
X012437Y012687D01*
X012427Y012673D01*
X012414Y012660D01*
X012400Y012650D01*
X012384Y012643D01*
X012367Y012639D01*
X012350Y012637D01*
X010440Y012768D02*
X010440Y013368D01*
X010438Y013385D01*
X010434Y013402D01*
X010427Y013418D01*
X010417Y013432D01*
X010404Y013445D01*
X010390Y013455D01*
X010374Y013462D01*
X010357Y013466D01*
X010340Y013468D01*
X009240Y013468D01*
X009223Y013466D01*
X009206Y013462D01*
X009190Y013455D01*
X009176Y013445D01*
X009163Y013432D01*
X009153Y013418D01*
X009146Y013402D01*
X009142Y013385D01*
X009140Y013368D01*
X009140Y012768D01*
X009142Y012751D01*
X009146Y012734D01*
X009153Y012718D01*
X009163Y012704D01*
X009176Y012691D01*
X009190Y012681D01*
X009206Y012674D01*
X009223Y012670D01*
X009240Y012668D01*
X010340Y012668D01*
X010357Y012670D01*
X010374Y012674D01*
X010390Y012681D01*
X010404Y012691D01*
X010417Y012704D01*
X010427Y012718D01*
X010434Y012734D01*
X010438Y012751D01*
X010440Y012768D01*
X015152Y007423D02*
X015175Y007421D01*
X015198Y007416D01*
X015220Y007407D01*
X015240Y007394D01*
X015258Y007379D01*
X015273Y007361D01*
X015286Y007341D01*
X015295Y007319D01*
X015300Y007296D01*
X015302Y007273D01*
X015302Y006033D01*
X015300Y006010D01*
X015295Y005987D01*
X015286Y005965D01*
X015273Y005945D01*
X015258Y005927D01*
X015240Y005912D01*
X015220Y005899D01*
X015198Y005890D01*
X015175Y005885D01*
X015152Y005883D01*
D14*
X015302Y007283D02*
X011802Y007283D01*
D15*
X011134Y009420D02*
X010984Y009420D01*
X010909Y009495D01*
X010909Y009570D01*
X010984Y009645D01*
X011134Y009645D01*
X011210Y009720D01*
X011210Y009795D01*
X011134Y009870D01*
X010984Y009870D01*
X010909Y009795D01*
X010749Y009495D02*
X010674Y009420D01*
X010599Y009420D01*
X010524Y009495D01*
X010524Y009870D01*
X010599Y009870D02*
X010449Y009870D01*
X010289Y009720D02*
X010139Y009870D01*
X009988Y009720D01*
X009988Y009420D01*
X009988Y009645D02*
X010289Y009645D01*
X010289Y009720D02*
X010289Y009420D01*
X011134Y009420D02*
X011210Y009495D01*
X011131Y010568D02*
X010981Y010568D01*
X010906Y010643D01*
X010906Y010718D01*
X010981Y010793D01*
X011131Y010793D01*
X011207Y010868D01*
X011207Y010943D01*
X011131Y011018D01*
X010981Y011018D01*
X010906Y010943D01*
X010746Y010643D02*
X010671Y010568D01*
X010596Y010568D01*
X010521Y010643D01*
X010521Y011018D01*
X010596Y011018D02*
X010446Y011018D01*
X010286Y010943D02*
X010286Y010643D01*
X010211Y010568D01*
X010061Y010568D01*
X009985Y010643D01*
X009985Y010943D02*
X010061Y011018D01*
X010211Y011018D01*
X010286Y010943D01*
X010167Y011428D02*
X010017Y011428D01*
X009942Y011503D01*
X009942Y011803D01*
X010017Y011878D01*
X010167Y011878D01*
X010243Y011803D01*
X010243Y011503D01*
X010167Y011428D01*
X010478Y011503D02*
X010478Y011878D01*
X010553Y011878D02*
X010403Y011878D01*
X010478Y011503D02*
X010553Y011428D01*
X010628Y011428D01*
X010703Y011503D01*
X010863Y011503D02*
X010938Y011428D01*
X011088Y011428D01*
X011163Y011503D01*
X011088Y011653D02*
X010938Y011653D01*
X010863Y011578D01*
X010863Y011503D01*
X011088Y011653D02*
X011163Y011728D01*
X011163Y011803D01*
X011088Y011878D01*
X010938Y011878D01*
X010863Y011803D01*
X011207Y010643D02*
X011131Y010568D01*
X008816Y012813D02*
X008891Y012888D01*
X008816Y012813D02*
X008666Y012813D01*
X008591Y012888D01*
X008591Y012963D01*
X008666Y013038D01*
X008816Y013038D01*
X008891Y013113D01*
X008891Y013188D01*
X008816Y013263D01*
X008666Y013263D01*
X008591Y013188D01*
X008281Y013263D02*
X008131Y013263D01*
X008206Y013263D02*
X008206Y012888D01*
X008281Y012813D01*
X008356Y012813D01*
X008431Y012888D01*
X007971Y012888D02*
X007895Y012813D01*
X007745Y012813D01*
X007670Y012888D01*
X007510Y012888D02*
X007435Y012813D01*
X007285Y012813D01*
X007210Y012888D01*
X007210Y012963D01*
X007285Y013038D01*
X007360Y013038D01*
X007285Y013038D02*
X007210Y013113D01*
X007210Y013188D01*
X007285Y013263D01*
X007435Y013263D01*
X007510Y013188D01*
X007670Y013188D02*
X007745Y013263D01*
X007895Y013263D01*
X007971Y013188D01*
X007971Y012888D01*
X011352Y013552D02*
X011427Y013477D01*
X011352Y013552D02*
X011352Y013702D01*
X011427Y013777D01*
X011502Y013777D01*
X011577Y013702D01*
X011577Y013552D01*
X011652Y013477D01*
X011727Y013477D01*
X011802Y013552D01*
X011802Y013702D01*
X011727Y013777D01*
X011802Y014087D02*
X011802Y014238D01*
X011802Y014162D02*
X011427Y014162D01*
X011352Y014087D01*
X011352Y014012D01*
X011427Y013937D01*
X011427Y014398D02*
X011352Y014473D01*
X011352Y014623D01*
X011427Y014698D01*
X011352Y014858D02*
X011652Y015158D01*
X011727Y015158D01*
X011802Y015083D01*
X011802Y014933D01*
X011727Y014858D01*
X011727Y014698D02*
X011802Y014623D01*
X011802Y014473D01*
X011727Y014398D01*
X011427Y014398D01*
X011352Y014858D02*
X011352Y015158D01*
M02*
