G75*
%MOIN*%
%OFA0B0*%
%FSLAX24Y24*%
%IPPOS*%
%LPD*%
%AMOC8*
5,1,8,0,0,1.08239X$1,22.5*
%
%ADD10C,0.0160*%
%ADD11R,0.0500X0.0220*%
%ADD12R,0.0220X0.0500*%
%ADD13R,0.0472X0.0472*%
%ADD14R,0.0512X0.0630*%
%ADD15R,0.1000X0.0500*%
%ADD16R,0.0500X0.1000*%
%ADD17R,0.0866X0.0236*%
%ADD18R,0.0512X0.0591*%
%ADD19R,0.0630X0.1063*%
%ADD20R,0.0460X0.0630*%
%ADD21R,0.0787X0.0433*%
%ADD22R,0.0591X0.0512*%
%ADD23R,0.0945X0.0945*%
%ADD24R,0.0906X0.0630*%
D10*
X003348Y000180D02*
X019490Y000180D01*
X019490Y019865D01*
X003348Y019865D01*
X003348Y000180D01*
D11*
X011580Y005660D03*
X011580Y005975D03*
X011580Y006290D03*
X011580Y006605D03*
X011580Y006920D03*
X011580Y007235D03*
X011580Y007550D03*
X011580Y007865D03*
X014960Y007865D03*
X014960Y007550D03*
X014960Y007235D03*
X014960Y006920D03*
X014960Y006605D03*
X014960Y006290D03*
X014960Y005975D03*
X014960Y005660D03*
D12*
X014372Y005073D03*
X014057Y005073D03*
X013742Y005073D03*
X013427Y005073D03*
X013112Y005073D03*
X012797Y005073D03*
X012482Y005073D03*
X012167Y005073D03*
X012167Y008453D03*
X012482Y008453D03*
X012797Y008453D03*
X013112Y008453D03*
X013427Y008453D03*
X013742Y008453D03*
X014057Y008453D03*
X014372Y008453D03*
D13*
X007489Y008171D03*
X007489Y007344D03*
D14*
X007701Y009498D03*
X008449Y009498D03*
D15*
X015015Y009518D03*
D16*
X015003Y004866D03*
D17*
X013289Y011273D03*
X013289Y011773D03*
X013289Y012273D03*
X013289Y012773D03*
X013289Y013273D03*
X013289Y013773D03*
X013289Y014273D03*
X013289Y014773D03*
X013289Y015273D03*
X013289Y015773D03*
X009667Y015773D03*
X009667Y015273D03*
X009667Y014773D03*
X009667Y014273D03*
X009667Y013773D03*
X009667Y013273D03*
X009667Y012773D03*
X009667Y012273D03*
X009667Y011773D03*
X009667Y011273D03*
D18*
X008427Y011232D03*
X007679Y011232D03*
D19*
X007568Y012866D03*
X006465Y012866D03*
D20*
X006663Y011410D03*
X006063Y011410D03*
X016129Y011693D03*
X016729Y011693D03*
X016838Y008070D03*
X016238Y008070D03*
X016248Y007230D03*
X016848Y007230D03*
D21*
X010526Y006609D03*
X010526Y005271D03*
X008951Y005271D03*
X008951Y006609D03*
D22*
X006548Y007246D03*
X006548Y007994D03*
D23*
X006172Y014335D03*
X007904Y014335D03*
X016388Y014279D03*
X016388Y016011D03*
D24*
X010568Y005945D03*
X008088Y005945D03*
M02*
