%
M48
M72
T01C0.0197
T02C0.0236
T03C0.0315
T04C0.0360
T05C0.0400
T06C0.0520
%
T01
X11088Y9780
X8198Y5340
T02
X6218Y15985
X8843Y15280
X8668Y14685
X9253Y16195
X10388Y14995
X10703Y15912
X11863Y15555
X12223Y14855
X14053Y15005
X14923Y13295
X15418Y12300
X15513Y11270
X13878Y9975
X14208Y9360
X14928Y9000
X15360Y8652
X13128Y9420
X12483Y10010
X11133Y10435
X10585Y9644
X10033Y10170
X9763Y10735
X10418Y11585
X10418Y12420
X11263Y12400
X11748Y12220
X12098Y12540
X12578Y11775
X12413Y11270
X9862Y9550
X8788Y10810
X8403Y10335
X7548Y8940
X8233Y6830
X7328Y6680
X7128Y5440
X8353Y4574
X8065Y3288
X8653Y3288
X8663Y2835
X9240Y3288
X9663Y2750
X10188Y3175
X10595Y2805
X11207Y2811
X11703Y3170
X11588Y1940
X13573Y3385
X14063Y3932
X12383Y4535
X11633Y4825
X11437Y5324
X12658Y6240
X13918Y6610
X11213Y8530
X9933Y5285
X5618Y3700
X5395Y3276
X5353Y11265
X5699Y12716
X5896Y13213
X4423Y13010
X8178Y12295
X9455Y19156
X11411Y19156
X13403Y19156
X15448Y18010
X16498Y13560
X18439Y3310
X16243Y2555
T03
X7628Y15520
X7628Y10320
X14928Y10320
X14928Y15520
T04
X3919Y17735
X4919Y17735
X4919Y16735
X3919Y16735
X3919Y15735
X4919Y15735
X4919Y14735
X3919Y14735
X3919Y13735
X4919Y13735
X4919Y12735
X3919Y12735
X3919Y11735
X4919Y11735
X4919Y10735
X3919Y10735
X3919Y9735
X4919Y9735
X4919Y8735
X3919Y8735
X3919Y7735
X4919Y7735
X4919Y6735
X3919Y6735
X3919Y5735
X4919Y5735
X4919Y4735
X3919Y4735
X3919Y3735
X4919Y3735
X4919Y2735
X3919Y2735
X3919Y1735
X4919Y1735
X4919Y735
X3919Y735
X14750Y3741
X17919Y3735
X18919Y3735
X18919Y2735
X17919Y2735
X17919Y1735
X18919Y1735
X18919Y735
X18919Y17735
X17919Y17735
X17919Y16735
X18919Y16735
X18919Y15735
X17919Y15735
X17919Y14735
X18919Y14735
X18919Y13735
X17919Y13735
X17919Y12735
X18919Y12735
X18919Y11735
X17919Y11735
X17919Y10735
X18919Y10735
X18919Y9735
X17919Y9735
X17919Y8735
X18919Y8735
X18919Y7735
X17919Y7735
X17919Y6735
X18919Y6735
X18919Y5735
X17919Y5735
X17919Y4735
X18919Y4735
X17919Y735
T05
X6458Y8990
X8388Y8507
X9388Y8507
X10388Y8507
X10388Y7507
X9388Y7507
X8388Y7507
X6458Y5990
X6458Y4990
X6458Y3990
X16293Y4010
X16293Y5010
X16293Y6010
X16293Y9010
T06
X6498Y18684
X8466Y18684
X10435Y18684
X12403Y18684
X14372Y18684
X16340Y18684
X6331Y10271
X6498Y1361
X8466Y1361
X10435Y1361
X12403Y1361
X14372Y1361
X16340Y1361
M30
