%
M48
M72
T01C0.0197
T02C0.0236
T03C0.0360
T04C0.0400
T05C0.0520
%
T01
X8786Y9780
X5906Y5160
T02
X4778Y15660
X6261Y15875
X6416Y15285
X6850Y14723
X6942Y15912
X8400Y15912
X9821Y14885
X11936Y15362
X12394Y15622
X14381Y15935
X15086Y15245
X14676Y17645
X13091Y18020
X11101Y19156
X9109Y19156
X7152Y19156
X7219Y17570
X3877Y13156
X4310Y12291
X4701Y12615
X4671Y11615
X6146Y10920
X6891Y11800
X7106Y11220
X7526Y10860
X7406Y10020
X7559Y9550
X8282Y9644
X9191Y10715
X10226Y12130
X11011Y11755
X11206Y12180
X11932Y11629
X12686Y10890
X13315Y10831
X14369Y9928
X15278Y11239
X15266Y12240
X14341Y12495
X12741Y12905
X10826Y10740
X11246Y10020
X10826Y9420
X11906Y9360
X11906Y10020
X12626Y9000
X13058Y8652
X13091Y8090
X14520Y7204
X14532Y6208
X13715Y4708
X12841Y4505
X11851Y3715
X11479Y3371
X12176Y3215
X12966Y3215
X14606Y3060
X16136Y3310
X7900Y11915
X10956Y6790
X11566Y6765
X11017Y6119
X9014Y5074
X7406Y5280
X6686Y4680
X6095Y4544
X6350Y3288
X6938Y3288
X7886Y3120
X8298Y2660
X8904Y2656
X9341Y3100
X7172Y1979
X5762Y3288
X3931Y4432
X2132Y3271
X7406Y6600
X3191Y10251
X2966Y12240
T03
X1617Y17735
X1617Y16735
X1617Y15735
X1617Y14735
X1617Y13735
X1617Y12735
X1617Y11735
X1617Y10735
X1617Y9735
X1617Y8735
X1617Y7735
X1617Y6735
X1617Y5735
X1617Y4735
X1617Y3735
X1617Y2735
X1617Y1735
X1617Y735
X2617Y735
X2617Y1735
X2617Y2735
X2617Y3735
X2617Y4735
X2617Y5735
X2617Y6735
X2617Y7735
X2617Y8735
X2617Y9735
X2617Y10735
X2617Y11735
X2617Y12735
X2617Y13735
X2617Y14735
X2617Y15735
X2617Y16735
X2617Y17735
X15617Y17735
X16617Y17735
X16617Y16735
X16617Y15735
X16617Y14735
X16617Y13735
X16617Y12735
X16617Y11735
X16617Y10735
X16617Y9735
X16617Y8735
X16617Y7735
X16617Y6735
X16617Y5735
X16617Y4735
X16617Y3735
X16617Y2735
X16617Y1735
X16617Y735
X15617Y16735
X15617Y15735
X15617Y14735
X15617Y13735
X15617Y12735
X15617Y11735
X15617Y10735
X15617Y9735
X15617Y8735
X15617Y7735
X15617Y6735
X15617Y5735
X15617Y4735
X15617Y3735
X15617Y2735
X15617Y1735
X15617Y735
T04
X4754Y8908
X4754Y7908
X4754Y6908
X4754Y5908
X4754Y4908
X4754Y3908
X6085Y7507
X6085Y8507
X7085Y8507
X7085Y7507
X8085Y7507
X8085Y8507
X14144Y7696
X14144Y6696
X14144Y5696
X14144Y10633
T05
X4195Y18684
X6164Y18684
X8132Y18684
X10101Y18684
X12069Y18684
X14038Y18684
X6169Y9771
X6164Y1361
X8132Y1361
X10101Y1361
X12069Y1361
X14038Y1361
X13943Y3796
X4195Y1361
M30
