G75*
%MOIN*%
%OFA0B0*%
%FSLAX24Y24*%
%IPPOS*%
%LPD*%
%AMOC8*
5,1,8,0,0,1.08239X$1,22.5*
%
%ADD10C,0.0160*%
%ADD11R,0.0500X0.0220*%
%ADD12R,0.0220X0.0500*%
%ADD13OC8,0.0600*%
%ADD14OC8,0.1250*%
%ADD15R,0.0472X0.0472*%
%ADD16C,0.0600*%
%ADD17C,0.0560*%
%ADD18OC8,0.0560*%
%ADD19R,0.0500X0.1000*%
%ADD20R,0.1000X0.0500*%
%ADD21R,0.0460X0.0630*%
%ADD22R,0.0866X0.0236*%
%ADD23R,0.0512X0.0591*%
%ADD24R,0.0800X0.0260*%
%ADD25R,0.0591X0.0512*%
%ADD26R,0.1063X0.0630*%
%ADD27C,0.0600*%
%ADD28OC8,0.0760*%
%ADD29R,0.0630X0.0460*%
%ADD30R,0.0787X0.0433*%
%ADD31C,0.0100*%
%ADD32C,0.0356*%
%ADD33C,0.0240*%
%ADD34C,0.0320*%
%ADD35C,0.0060*%
%ADD36OC8,0.0356*%
%ADD37C,0.0317*%
D10*
X001046Y000180D02*
X017188Y000180D01*
X017188Y019865D01*
X001046Y019865D01*
X001046Y000180D01*
X001326Y001123D02*
X001326Y001347D01*
X001418Y001255D01*
X001815Y001255D01*
X002097Y001536D01*
X002097Y001934D01*
X001815Y002215D01*
X001418Y002215D01*
X001326Y002123D01*
X001326Y002347D01*
X001418Y002255D01*
X001815Y002255D01*
X002097Y002536D01*
X002097Y002892D01*
X002137Y002892D01*
X002137Y002536D01*
X002418Y002255D01*
X002815Y002255D01*
X003097Y002536D01*
X003097Y002934D01*
X003041Y002990D01*
X005116Y002990D01*
X005207Y003028D01*
X005278Y003098D01*
X005387Y003207D01*
X005442Y003074D01*
X005548Y002967D01*
X005687Y002910D01*
X005838Y002910D01*
X005977Y002967D01*
X006056Y003047D01*
X006136Y002967D01*
X006275Y002910D01*
X006425Y002910D01*
X006564Y002967D01*
X006644Y003047D01*
X006723Y002967D01*
X006862Y002910D01*
X007013Y002910D01*
X007152Y002967D01*
X007258Y003074D01*
X007316Y003213D01*
X007316Y003230D01*
X010876Y003230D01*
X010967Y003268D01*
X011038Y003338D01*
X011101Y003401D01*
X011101Y003295D01*
X011158Y003157D01*
X011265Y003050D01*
X011404Y002993D01*
X011554Y002993D01*
X011693Y003050D01*
X011799Y003157D01*
X011857Y003295D01*
X011857Y003337D01*
X011926Y003337D01*
X012065Y003394D01*
X012136Y003465D01*
X013118Y003465D01*
X013118Y003454D01*
X013601Y002971D01*
X014285Y002971D01*
X014768Y003454D01*
X014768Y004138D01*
X014464Y004442D01*
X014667Y004442D01*
X015081Y004027D01*
X015173Y003989D01*
X015192Y003989D01*
X015137Y003934D01*
X015137Y003536D01*
X015188Y003485D01*
X015147Y003469D01*
X015068Y003390D01*
X014615Y002936D01*
X009159Y002936D01*
X009118Y002977D01*
X008979Y003034D01*
X008829Y003034D01*
X008690Y002977D01*
X008603Y002890D01*
X008512Y002981D01*
X008373Y003038D01*
X008223Y003038D01*
X008084Y002981D01*
X008013Y002910D01*
X007196Y002910D01*
X007105Y002872D01*
X006418Y002186D01*
X005822Y002186D01*
X005339Y001703D01*
X005339Y001019D01*
X005822Y000536D01*
X006506Y000536D01*
X006989Y001019D01*
X006989Y001646D01*
X007097Y001601D01*
X007247Y001601D01*
X007307Y001626D01*
X007307Y001019D01*
X007791Y000536D01*
X008474Y000536D01*
X008957Y001019D01*
X008957Y001703D01*
X008608Y002052D01*
X009625Y002052D01*
X009276Y001703D01*
X009276Y001019D01*
X009759Y000536D01*
X010443Y000536D01*
X010926Y001019D01*
X010926Y001703D01*
X010577Y002052D01*
X011594Y002052D01*
X011244Y001703D01*
X011244Y001019D01*
X011728Y000536D01*
X012411Y000536D01*
X012894Y001019D01*
X012894Y001703D01*
X012411Y002186D01*
X012284Y002186D01*
X012281Y002192D01*
X012211Y002262D01*
X012097Y002376D01*
X014787Y002376D01*
X014889Y002419D01*
X015137Y002666D01*
X015137Y002536D01*
X015418Y002255D01*
X015815Y002255D01*
X016097Y002536D01*
X016097Y002932D01*
X016137Y002932D01*
X016137Y002536D01*
X016418Y002255D01*
X016815Y002255D01*
X016908Y002347D01*
X016908Y002123D01*
X016815Y002215D01*
X016418Y002215D01*
X016137Y001934D01*
X016137Y001536D01*
X016418Y001255D01*
X016815Y001255D01*
X016908Y001347D01*
X016908Y001123D01*
X016815Y001215D01*
X016418Y001215D01*
X016137Y000934D01*
X016137Y000536D01*
X016213Y000460D01*
X016020Y000460D01*
X016024Y000463D01*
X016097Y000640D01*
X016097Y000831D01*
X016024Y001007D01*
X015889Y001142D01*
X015712Y001215D01*
X015521Y001215D01*
X015345Y001142D01*
X015210Y001007D01*
X015137Y000831D01*
X015137Y000640D01*
X015210Y000463D01*
X015213Y000460D01*
X003020Y000460D01*
X003097Y000536D01*
X003097Y000934D01*
X002815Y001215D01*
X002418Y001215D01*
X002137Y000934D01*
X002137Y000536D01*
X002213Y000460D01*
X002020Y000460D01*
X002024Y000463D01*
X002097Y000640D01*
X002097Y000831D01*
X002024Y001007D01*
X001889Y001142D01*
X001712Y001215D01*
X001521Y001215D01*
X001345Y001142D01*
X001326Y001123D01*
X001326Y001131D02*
X001334Y001131D01*
X001326Y001290D02*
X001383Y001290D01*
X001850Y001290D02*
X002383Y001290D01*
X002418Y001255D02*
X002815Y001255D01*
X003097Y001536D01*
X003097Y001934D01*
X002815Y002215D01*
X002418Y002215D01*
X002137Y001934D01*
X002137Y001536D01*
X002418Y001255D01*
X002334Y001131D02*
X001900Y001131D01*
X002038Y000973D02*
X002175Y000973D01*
X002137Y000814D02*
X002097Y000814D01*
X002097Y000656D02*
X002137Y000656D01*
X002176Y000497D02*
X002038Y000497D01*
X002900Y001131D02*
X003370Y001131D01*
X003370Y001019D02*
X003854Y000536D01*
X004537Y000536D01*
X005020Y001019D01*
X005020Y001703D01*
X004537Y002186D01*
X003854Y002186D01*
X003370Y001703D01*
X003370Y001019D01*
X003417Y000973D02*
X003058Y000973D01*
X003097Y000814D02*
X003576Y000814D01*
X003734Y000656D02*
X003097Y000656D01*
X003057Y000497D02*
X015196Y000497D01*
X015137Y000656D02*
X014471Y000656D01*
X014371Y000556D02*
X014843Y001028D01*
X014843Y001311D01*
X014088Y001311D01*
X014088Y000556D01*
X014371Y000556D01*
X014088Y000656D02*
X013988Y000656D01*
X013988Y000556D02*
X013704Y000556D01*
X013233Y001028D01*
X013233Y001311D01*
X013988Y001311D01*
X014088Y001311D01*
X014088Y001411D01*
X014843Y001411D01*
X014843Y001695D01*
X014371Y002166D01*
X014088Y002166D01*
X014088Y001411D01*
X013988Y001411D01*
X013988Y001311D01*
X013988Y000556D01*
X013988Y000814D02*
X014088Y000814D01*
X014088Y000973D02*
X013988Y000973D01*
X013988Y001131D02*
X014088Y001131D01*
X014088Y001290D02*
X013988Y001290D01*
X013988Y001411D02*
X013233Y001411D01*
X013233Y001695D01*
X013704Y002166D01*
X013988Y002166D01*
X013988Y001411D01*
X013988Y001448D02*
X014088Y001448D01*
X014088Y001607D02*
X013988Y001607D01*
X013988Y001765D02*
X014088Y001765D01*
X014088Y001924D02*
X013988Y001924D01*
X013988Y002082D02*
X014088Y002082D01*
X014455Y002082D02*
X015285Y002082D01*
X015418Y002215D02*
X015137Y001934D01*
X015137Y001536D01*
X015418Y001255D01*
X015815Y001255D01*
X016097Y001536D01*
X016097Y001934D01*
X015815Y002215D01*
X015418Y002215D01*
X015274Y002399D02*
X014841Y002399D01*
X015028Y002558D02*
X015137Y002558D01*
X014731Y002656D02*
X015306Y003231D01*
X016058Y003231D01*
X016136Y003310D01*
X016137Y003688D02*
X016097Y003688D01*
X016097Y003934D01*
X016042Y003989D01*
X016072Y003989D01*
X016164Y004027D01*
X016234Y004097D01*
X016336Y004200D01*
X016375Y004292D01*
X016375Y004298D01*
X016418Y004255D01*
X016815Y004255D01*
X016908Y004347D01*
X016908Y004123D01*
X016815Y004215D01*
X016418Y004215D01*
X016137Y003934D01*
X016137Y003688D01*
X016137Y003826D02*
X016097Y003826D01*
X016047Y003984D02*
X016187Y003984D01*
X016279Y004143D02*
X016345Y004143D01*
X016861Y004301D02*
X016908Y004301D01*
X016908Y004143D02*
X016888Y004143D01*
X016908Y003347D02*
X016908Y003123D01*
X016815Y003215D01*
X016506Y003215D01*
X016514Y003235D01*
X016514Y003255D01*
X016815Y003255D01*
X016908Y003347D01*
X016908Y003192D02*
X016839Y003192D01*
X016137Y002875D02*
X016097Y002875D01*
X016097Y002716D02*
X016137Y002716D01*
X016137Y002558D02*
X016097Y002558D01*
X015959Y002399D02*
X016274Y002399D01*
X016285Y002082D02*
X015949Y002082D01*
X016097Y001924D02*
X016137Y001924D01*
X016137Y001765D02*
X016097Y001765D01*
X016097Y001607D02*
X016137Y001607D01*
X016225Y001448D02*
X016008Y001448D01*
X015850Y001290D02*
X016383Y001290D01*
X016334Y001131D02*
X015900Y001131D01*
X016038Y000973D02*
X016175Y000973D01*
X016137Y000814D02*
X016097Y000814D01*
X016097Y000656D02*
X016137Y000656D01*
X016176Y000497D02*
X016038Y000497D01*
X015334Y001131D02*
X014843Y001131D01*
X014843Y001290D02*
X015383Y001290D01*
X015225Y001448D02*
X014843Y001448D01*
X014843Y001607D02*
X015137Y001607D01*
X015137Y001765D02*
X014772Y001765D01*
X014614Y001924D02*
X015137Y001924D01*
X014731Y002656D02*
X008904Y002656D01*
X008825Y003033D02*
X008386Y003033D01*
X008209Y003033D02*
X007217Y003033D01*
X007307Y003192D02*
X011144Y003192D01*
X011101Y003350D02*
X011049Y003350D01*
X011306Y003033D02*
X008983Y003033D01*
X008737Y001924D02*
X009497Y001924D01*
X009338Y001765D02*
X008895Y001765D01*
X008957Y001607D02*
X009276Y001607D01*
X009276Y001448D02*
X008957Y001448D01*
X008957Y001290D02*
X009276Y001290D01*
X009276Y001131D02*
X008957Y001131D01*
X008911Y000973D02*
X009323Y000973D01*
X009481Y000814D02*
X008752Y000814D01*
X008594Y000656D02*
X009640Y000656D01*
X010562Y000656D02*
X011608Y000656D01*
X011450Y000814D02*
X010721Y000814D01*
X010879Y000973D02*
X011291Y000973D01*
X011244Y001131D02*
X010926Y001131D01*
X010926Y001290D02*
X011244Y001290D01*
X011244Y001448D02*
X010926Y001448D01*
X010926Y001607D02*
X011244Y001607D01*
X011307Y001765D02*
X010864Y001765D01*
X010705Y001924D02*
X011465Y001924D01*
X012211Y002262D02*
X012211Y002262D01*
X012233Y002241D02*
X016908Y002241D01*
X016908Y001290D02*
X016850Y001290D01*
X016900Y001131D02*
X016908Y001131D01*
X015195Y000973D02*
X014788Y000973D01*
X014629Y000814D02*
X015137Y000814D01*
X013605Y000656D02*
X012531Y000656D01*
X012689Y000814D02*
X013447Y000814D01*
X013288Y000973D02*
X012848Y000973D01*
X012894Y001131D02*
X013233Y001131D01*
X013233Y001290D02*
X012894Y001290D01*
X012894Y001448D02*
X013233Y001448D01*
X013233Y001607D02*
X012894Y001607D01*
X012832Y001765D02*
X013303Y001765D01*
X013462Y001924D02*
X012674Y001924D01*
X012515Y002082D02*
X013620Y002082D01*
X013539Y003033D02*
X011652Y003033D01*
X011814Y003192D02*
X013380Y003192D01*
X013222Y003350D02*
X011958Y003350D01*
X012106Y003000D02*
X012911Y003000D01*
X014546Y003000D01*
X014711Y003033D02*
X014347Y003033D01*
X014505Y003192D02*
X014870Y003192D01*
X015028Y003350D02*
X014664Y003350D01*
X014768Y003509D02*
X015164Y003509D01*
X015137Y003667D02*
X014768Y003667D01*
X014768Y003826D02*
X015137Y003826D01*
X015187Y003984D02*
X014768Y003984D01*
X014763Y004143D02*
X014966Y004143D01*
X014807Y004301D02*
X014604Y004301D01*
X014982Y004833D02*
X014912Y004904D01*
X014897Y004910D01*
X015137Y004910D01*
X015137Y004679D01*
X014982Y004833D01*
X015039Y004777D02*
X015137Y004777D01*
X015263Y005410D02*
X014566Y005410D01*
X014568Y005413D01*
X014644Y005596D01*
X014644Y005795D01*
X014568Y005979D01*
X014427Y006120D01*
X014244Y006196D01*
X014427Y006272D01*
X014568Y006413D01*
X014601Y006493D01*
X014672Y006493D01*
X014672Y005764D01*
X014710Y005672D01*
X014780Y005602D01*
X014859Y005523D01*
X014951Y005485D01*
X015188Y005485D01*
X015263Y005410D01*
X015262Y005411D02*
X014566Y005411D01*
X014633Y005569D02*
X014813Y005569D01*
X014687Y005728D02*
X014644Y005728D01*
X014672Y005886D02*
X014607Y005886D01*
X014672Y006045D02*
X014503Y006045D01*
X014532Y006208D02*
X014400Y006196D01*
X013743Y006196D01*
X013648Y006290D01*
X012657Y006290D01*
X012227Y006290D01*
X012227Y006188D01*
X012207Y006168D01*
X012207Y005523D01*
X010430Y005523D01*
X010430Y005883D01*
X010718Y005883D01*
X010803Y005798D01*
X010942Y005741D01*
X011092Y005741D01*
X011231Y005798D01*
X011337Y005904D01*
X011395Y006043D01*
X011395Y006194D01*
X011337Y006333D01*
X011231Y006439D01*
X011092Y006497D01*
X010942Y006497D01*
X010803Y006439D01*
X010746Y006383D01*
X010201Y006383D01*
X010109Y006345D01*
X010039Y006274D01*
X010038Y006274D01*
X009968Y006204D01*
X009930Y006112D01*
X009930Y005523D01*
X009727Y005523D01*
X009727Y006483D01*
X009707Y006503D01*
X009707Y006605D01*
X009277Y006605D01*
X008847Y006605D01*
X008847Y006503D01*
X008827Y006483D01*
X008827Y006225D01*
X008702Y006225D01*
X008787Y006310D01*
X008787Y006909D01*
X008670Y007026D01*
X008311Y007026D01*
X008585Y007300D01*
X008827Y007300D01*
X008827Y007113D01*
X008827Y006727D01*
X008847Y006707D01*
X008847Y006605D01*
X009277Y006605D01*
X009277Y006605D01*
X009277Y006605D01*
X011231Y006605D01*
X011546Y006290D01*
X012657Y006290D01*
X012657Y006290D01*
X012657Y006290D01*
X013087Y006290D01*
X013087Y006225D01*
X013480Y006225D01*
X013572Y006187D01*
X013727Y006032D01*
X013750Y006009D01*
X013861Y006120D01*
X014045Y006196D01*
X014244Y006196D01*
X014045Y006196D01*
X013861Y006272D01*
X013720Y006413D01*
X013702Y006456D01*
X013700Y006454D01*
X013700Y006454D01*
X013614Y006368D01*
X013511Y006325D01*
X013087Y006325D01*
X013087Y006290D01*
X012657Y006290D01*
X011979Y006290D01*
X011896Y006373D01*
X011896Y006830D01*
X011987Y006920D01*
X012657Y006920D01*
X012227Y006920D01*
X012227Y006818D01*
X012207Y006798D01*
X012207Y006412D01*
X012227Y006392D01*
X012227Y006290D01*
X012657Y006290D01*
X012657Y006605D02*
X013455Y006605D01*
X013542Y006692D01*
X013542Y007211D01*
X013542Y008586D01*
X013476Y008652D01*
X013058Y008652D01*
X012916Y008511D01*
X012715Y008511D01*
X011754Y007550D01*
X009277Y007550D01*
X008827Y007154D02*
X008440Y007154D01*
X008585Y007300D02*
X008585Y007300D01*
X008700Y006996D02*
X008827Y006996D01*
X008827Y006837D02*
X008787Y006837D01*
X008787Y006679D02*
X008847Y006679D01*
X008847Y006520D02*
X008787Y006520D01*
X008787Y006362D02*
X008827Y006362D01*
X009277Y006605D02*
X009707Y006605D01*
X009707Y006707D01*
X009727Y006727D01*
X009727Y007270D01*
X011497Y007270D01*
X011364Y007137D01*
X011336Y007070D01*
X011245Y006979D01*
X011188Y006840D01*
X011188Y006690D01*
X011245Y006551D01*
X011352Y006444D01*
X011491Y006387D01*
X011641Y006387D01*
X011780Y006444D01*
X011886Y006551D01*
X011944Y006690D01*
X011944Y006840D01*
X011894Y006960D01*
X012207Y007273D01*
X012207Y007042D01*
X012227Y007022D01*
X012227Y006920D01*
X012657Y006920D01*
X012657Y006920D01*
X012657Y006920D01*
X013087Y006920D01*
X013087Y006885D01*
X013262Y006885D01*
X013262Y006955D01*
X013087Y006955D01*
X013087Y006920D01*
X012657Y006920D01*
X012641Y006904D01*
X012657Y007235D02*
X013518Y007235D01*
X013542Y007211D01*
X013822Y007154D02*
X013944Y007154D01*
X013861Y007120D02*
X014045Y007196D01*
X014142Y007196D01*
X014142Y007196D01*
X014045Y007196D01*
X013861Y007272D01*
X013822Y007311D01*
X013822Y007080D01*
X013861Y007120D01*
X014191Y006743D02*
X014144Y006696D01*
X013771Y006362D02*
X013599Y006362D01*
X013534Y006203D02*
X014027Y006203D01*
X013786Y006045D02*
X013715Y006045D01*
X014261Y006203D02*
X014672Y006203D01*
X014672Y006362D02*
X014517Y006362D01*
X014842Y006993D02*
X014933Y006955D01*
X015004Y006885D01*
X015134Y006755D01*
X015137Y006747D01*
X015137Y006934D01*
X015418Y007215D01*
X015815Y007215D01*
X015856Y007175D01*
X015856Y007324D01*
X015807Y007275D01*
X015627Y007275D01*
X015627Y007725D01*
X015607Y007725D01*
X015607Y007275D01*
X015426Y007275D01*
X015186Y007516D01*
X014898Y007228D01*
X014898Y007128D01*
X014842Y006993D01*
X014843Y006996D02*
X015198Y006996D01*
X015137Y006837D02*
X015051Y006837D01*
X014898Y007154D02*
X015357Y007154D01*
X015389Y007313D02*
X014983Y007313D01*
X015141Y007471D02*
X015230Y007471D01*
X015607Y007471D02*
X015627Y007471D01*
X015627Y007313D02*
X015607Y007313D01*
X015845Y007313D02*
X015856Y007313D01*
X015627Y007630D02*
X015607Y007630D01*
X015607Y007745D02*
X015607Y008195D01*
X015426Y008195D01*
X015256Y008025D01*
X015256Y008417D01*
X015418Y008255D01*
X015815Y008255D01*
X015856Y008295D01*
X015856Y008147D01*
X015807Y008195D01*
X015627Y008195D01*
X015627Y007745D01*
X015607Y007745D01*
X015607Y007788D02*
X015627Y007788D01*
X015627Y007947D02*
X015607Y007947D01*
X015607Y008105D02*
X015627Y008105D01*
X015824Y008264D02*
X015856Y008264D01*
X015409Y008264D02*
X015256Y008264D01*
X015256Y008105D02*
X015336Y008105D01*
X014756Y008105D02*
X014442Y008105D01*
X014427Y008120D02*
X014568Y007979D01*
X014644Y007795D01*
X014644Y007681D01*
X014756Y007793D01*
X014756Y009648D01*
X014623Y009648D01*
X014583Y009607D01*
X014561Y009598D01*
X014674Y009486D01*
X014674Y008320D01*
X014556Y008203D01*
X013891Y008203D01*
X013822Y008272D01*
X013822Y008080D01*
X013861Y008120D01*
X014045Y008196D01*
X014244Y008196D01*
X014427Y008120D01*
X014582Y007947D02*
X014756Y007947D01*
X014751Y007788D02*
X014644Y007788D01*
X014617Y008264D02*
X014756Y008264D01*
X014756Y008422D02*
X014674Y008422D01*
X014674Y008581D02*
X014756Y008581D01*
X014756Y008739D02*
X014674Y008739D01*
X014674Y008898D02*
X014756Y008898D01*
X014756Y009056D02*
X014674Y009056D01*
X014674Y009215D02*
X014756Y009215D01*
X014756Y009373D02*
X014674Y009373D01*
X014628Y009532D02*
X014756Y009532D01*
X014967Y009928D02*
X014369Y009928D01*
X014623Y010208D02*
X014583Y010249D01*
X014561Y010258D01*
X014704Y010401D01*
X014704Y010613D01*
X014164Y010613D01*
X014164Y010653D01*
X014699Y010653D01*
X014829Y010523D01*
X014921Y010485D01*
X015140Y010485D01*
X015119Y010476D01*
X014851Y010208D01*
X014623Y010208D01*
X014627Y010324D02*
X014967Y010324D01*
X015134Y010483D02*
X014704Y010483D01*
X014711Y010641D02*
X014164Y010641D01*
X013690Y010970D02*
X013673Y010954D01*
X013667Y010970D01*
X013690Y010970D01*
X013678Y010958D02*
X013671Y010958D01*
X013315Y010831D02*
X012864Y010380D01*
X006686Y010380D01*
X006506Y010560D01*
X005187Y010560D01*
X005007Y010380D01*
X004947Y010440D01*
X005267Y010244D02*
X005303Y010280D01*
X005511Y010280D01*
X005344Y010113D01*
X005344Y009430D01*
X005822Y008951D01*
X005585Y008714D01*
X005585Y008300D01*
X005878Y008007D01*
X006292Y008007D01*
X006339Y008054D01*
X006339Y007953D01*
X006354Y007916D01*
X006284Y007987D01*
X006105Y007987D01*
X006105Y007527D01*
X006065Y007527D01*
X006065Y007987D01*
X005886Y007987D01*
X005605Y007706D01*
X005605Y007614D01*
X005567Y007652D01*
X005501Y007680D01*
X005554Y007809D01*
X005554Y008008D01*
X005478Y008192D01*
X005338Y008332D01*
X005154Y008408D01*
X004355Y008408D01*
X004176Y008334D01*
X004176Y008517D01*
X004203Y008498D01*
X004270Y008464D01*
X004342Y008440D01*
X004417Y008428D01*
X004734Y008428D01*
X004734Y008888D01*
X004774Y008888D01*
X004774Y008428D01*
X005092Y008428D01*
X005167Y008440D01*
X005239Y008464D01*
X005306Y008498D01*
X005367Y008542D01*
X005421Y008596D01*
X005465Y008657D01*
X005499Y008724D01*
X005523Y008796D01*
X005534Y008871D01*
X005534Y008888D01*
X004774Y008888D01*
X004774Y008928D01*
X004734Y008928D01*
X004734Y009388D01*
X004428Y009388D01*
X004547Y009508D01*
X004614Y009574D01*
X004737Y009574D01*
X004819Y009656D01*
X004896Y009688D01*
X005129Y009921D01*
X005219Y010011D01*
X005267Y010128D01*
X005267Y010244D01*
X005267Y010166D02*
X005396Y010166D01*
X005344Y010007D02*
X005215Y010007D01*
X005344Y009849D02*
X005057Y009849D01*
X004898Y009690D02*
X005344Y009690D01*
X005344Y009532D02*
X004571Y009532D01*
X004734Y009373D02*
X004774Y009373D01*
X004774Y009388D02*
X004774Y008928D01*
X005534Y008928D01*
X005534Y008946D01*
X005523Y009021D01*
X005499Y009093D01*
X005465Y009160D01*
X005421Y009221D01*
X005367Y009274D01*
X005306Y009319D01*
X005239Y009353D01*
X005167Y009377D01*
X005092Y009388D01*
X004774Y009388D01*
X004774Y009215D02*
X004734Y009215D01*
X004734Y009056D02*
X004774Y009056D01*
X004774Y008898D02*
X005769Y008898D01*
X005718Y009056D02*
X005511Y009056D01*
X005559Y009215D02*
X005425Y009215D01*
X005401Y009373D02*
X005178Y009373D01*
X005504Y008739D02*
X005610Y008739D01*
X005585Y008581D02*
X005405Y008581D01*
X005585Y008422D02*
X004176Y008422D01*
X003676Y008422D02*
X002982Y008422D01*
X003097Y008536D02*
X003097Y008934D01*
X002815Y009215D01*
X002418Y009215D01*
X002376Y009173D01*
X002376Y009297D01*
X002418Y009255D01*
X002815Y009255D01*
X003097Y009536D01*
X003097Y009881D01*
X003116Y009873D01*
X003117Y009873D01*
X003172Y009818D01*
X003289Y009769D01*
X003395Y009769D01*
X003395Y009692D01*
X003512Y009574D01*
X003907Y009574D01*
X003714Y009382D01*
X003676Y009290D01*
X003676Y007510D01*
X003714Y007418D01*
X003784Y007348D01*
X003904Y007228D01*
X003996Y007190D01*
X004030Y007190D01*
X003954Y007008D01*
X003954Y006809D01*
X004031Y006625D01*
X004046Y006610D01*
X003288Y006610D01*
X003171Y006493D01*
X003171Y006490D01*
X003050Y006490D01*
X003097Y006536D01*
X003097Y006934D01*
X002815Y007215D01*
X002418Y007215D01*
X002376Y007173D01*
X002376Y007297D01*
X002418Y007255D01*
X002815Y007255D01*
X003097Y007536D01*
X003097Y007934D01*
X002815Y008215D01*
X002418Y008215D01*
X002376Y008173D01*
X002376Y008297D01*
X002418Y008255D01*
X002815Y008255D01*
X003097Y008536D01*
X003097Y008581D02*
X003676Y008581D01*
X003676Y008739D02*
X003097Y008739D01*
X003097Y008898D02*
X003676Y008898D01*
X003676Y009056D02*
X002975Y009056D01*
X002816Y009215D02*
X003676Y009215D01*
X003710Y009373D02*
X002933Y009373D01*
X003092Y009532D02*
X003864Y009532D01*
X003396Y009690D02*
X003097Y009690D01*
X003097Y009849D02*
X003141Y009849D01*
X002813Y010215D02*
X002813Y010255D01*
X002418Y010255D01*
X002376Y010297D01*
X002376Y010173D01*
X002418Y010215D01*
X002813Y010215D01*
X003097Y010621D02*
X003097Y010934D01*
X002815Y011215D01*
X002418Y011215D01*
X002376Y011173D01*
X002376Y011297D01*
X002418Y011255D01*
X002815Y011255D01*
X003097Y011536D01*
X003097Y011885D01*
X003180Y011919D01*
X003286Y012026D01*
X003344Y012165D01*
X003344Y012315D01*
X003286Y012454D01*
X003180Y012561D01*
X003077Y012603D01*
X003077Y012725D01*
X002627Y012725D01*
X002627Y012745D01*
X003077Y012745D01*
X003077Y012926D01*
X003009Y012993D01*
X003535Y012993D01*
X003556Y012942D01*
X003662Y012836D01*
X003801Y012778D01*
X003952Y012778D01*
X004091Y012836D01*
X004197Y012942D01*
X004255Y013081D01*
X004255Y013232D01*
X004197Y013371D01*
X004091Y013477D01*
X003952Y013534D01*
X003801Y013534D01*
X003701Y013493D01*
X003053Y013493D01*
X003097Y013536D01*
X003097Y013934D01*
X002815Y014215D01*
X002418Y014215D01*
X002137Y013934D01*
X002137Y013569D01*
X002097Y013609D01*
X002097Y013934D01*
X001815Y014215D01*
X001418Y014215D01*
X001326Y014123D01*
X001326Y014347D01*
X001418Y014255D01*
X001815Y014255D01*
X002097Y014536D01*
X002097Y014934D01*
X001815Y015215D01*
X001418Y015215D01*
X001326Y015123D01*
X001326Y015347D01*
X001418Y015255D01*
X001815Y015255D01*
X002097Y015536D01*
X002097Y015934D01*
X001815Y016215D01*
X001418Y016215D01*
X001326Y016123D01*
X001326Y016347D01*
X001326Y016347D01*
X001418Y016255D01*
X001815Y016255D01*
X002097Y016536D01*
X002097Y016934D01*
X001815Y017215D01*
X001418Y017215D01*
X001326Y017123D01*
X001326Y017375D01*
X001426Y017275D01*
X001607Y017275D01*
X001607Y017725D01*
X001627Y017725D01*
X001627Y017745D01*
X002077Y017745D01*
X002077Y017823D01*
X002137Y017763D01*
X002137Y017536D01*
X002418Y017255D01*
X002815Y017255D01*
X003097Y017536D01*
X003097Y017934D01*
X002815Y018215D01*
X002589Y018215D01*
X002537Y018267D01*
X003048Y018267D01*
X003166Y018385D01*
X003166Y018462D01*
X003301Y018462D01*
X003256Y016606D01*
X003236Y016586D01*
X003236Y015790D01*
X003353Y015673D01*
X003378Y015673D01*
X003378Y015673D01*
X003388Y015669D01*
X003397Y015662D01*
X003440Y015649D01*
X003482Y015633D01*
X003493Y015633D01*
X003504Y015630D01*
X003549Y015635D01*
X004400Y015659D01*
X004400Y015585D01*
X004402Y015580D01*
X004045Y015580D01*
X004045Y015163D01*
X004679Y015163D01*
X004679Y015292D01*
X004703Y015282D01*
X004853Y015282D01*
X004901Y015302D01*
X004901Y015087D01*
X004950Y015038D01*
X004901Y014989D01*
X004901Y014587D01*
X004964Y014524D01*
X004957Y014517D01*
X004933Y014476D01*
X004921Y014430D01*
X004921Y014288D01*
X004921Y014146D01*
X004933Y014101D01*
X004957Y014060D01*
X004978Y014038D01*
X004957Y014017D01*
X004933Y013976D01*
X004921Y013930D01*
X004921Y013788D01*
X004921Y013646D01*
X004933Y013601D01*
X004957Y013560D01*
X004978Y013538D01*
X004957Y013517D01*
X004933Y013476D01*
X004921Y013430D01*
X004921Y013288D01*
X004921Y013146D01*
X004933Y013101D01*
X004957Y013060D01*
X004978Y013038D01*
X004957Y013017D01*
X004933Y012976D01*
X004921Y012930D01*
X004921Y012930D01*
X004915Y012936D01*
X004776Y012993D01*
X004626Y012993D01*
X004487Y012936D01*
X004380Y012829D01*
X004323Y012690D01*
X004323Y012540D01*
X004380Y012401D01*
X004487Y012294D01*
X004626Y012237D01*
X004846Y012017D01*
X004905Y011993D01*
X004901Y011989D01*
X004901Y011920D01*
X004885Y011936D01*
X004746Y011993D01*
X004596Y011993D01*
X004457Y011936D01*
X004350Y011829D01*
X004293Y011690D01*
X004293Y011540D01*
X004316Y011484D01*
X004259Y011427D01*
X004146Y011427D01*
X004095Y011376D01*
X004062Y011395D01*
X004016Y011407D01*
X003785Y011407D01*
X003785Y010980D01*
X003689Y010980D01*
X003689Y011407D01*
X003457Y011407D01*
X003411Y011395D01*
X003370Y011371D01*
X003337Y011338D01*
X003313Y011296D01*
X003301Y011251D01*
X003301Y010980D01*
X003689Y010980D01*
X003689Y010884D01*
X003301Y010884D01*
X003301Y010615D01*
X003267Y010629D01*
X003116Y010629D01*
X003097Y010621D01*
X003097Y010641D02*
X003301Y010641D01*
X003301Y010800D02*
X003097Y010800D01*
X003073Y010958D02*
X003689Y010958D01*
X003737Y010932D02*
X003746Y010941D01*
X003746Y012300D01*
X003754Y012291D01*
X004310Y012291D01*
X004314Y012295D01*
X004314Y012975D01*
X004310Y012971D01*
X004314Y012975D02*
X004314Y013343D01*
X004329Y013359D01*
X004315Y013359D01*
X004315Y014737D01*
X003967Y015086D01*
X004764Y014288D01*
X005534Y014288D01*
X005534Y013788D01*
X005534Y013288D01*
X005534Y012788D01*
X005534Y012608D01*
X005534Y012608D01*
X005534Y012788D01*
X005534Y012788D01*
X005534Y012788D01*
X006147Y012788D01*
X006147Y012646D01*
X006135Y012601D01*
X006111Y012560D01*
X006104Y012552D01*
X006167Y012489D01*
X006167Y012087D01*
X006118Y012038D01*
X006118Y012038D01*
X006594Y012038D01*
X006677Y012121D01*
X006816Y012178D01*
X006966Y012178D01*
X007105Y012121D01*
X007211Y012014D01*
X007269Y011875D01*
X007269Y011725D01*
X007211Y011586D01*
X007211Y011586D01*
X007320Y011541D01*
X007391Y011470D01*
X008266Y011470D01*
X008357Y011432D01*
X008509Y011280D01*
X008523Y011280D01*
X008523Y011489D01*
X008572Y011538D01*
X007979Y011538D01*
X007975Y011537D01*
X007825Y011537D01*
X007686Y011594D01*
X007580Y011701D01*
X007522Y011840D01*
X007522Y011990D01*
X007580Y012129D01*
X007686Y012236D01*
X007825Y012293D01*
X007975Y012293D01*
X008114Y012236D01*
X008221Y012129D01*
X008258Y012038D01*
X008572Y012038D01*
X008523Y012087D01*
X008523Y012489D01*
X008586Y012552D01*
X008579Y012560D01*
X008555Y012601D01*
X008543Y012646D01*
X008543Y012788D01*
X009156Y012788D01*
X009156Y012608D01*
X009156Y012608D01*
X009156Y012788D01*
X009156Y012788D01*
X009156Y012788D01*
X009742Y012788D01*
X009742Y012788D01*
X009156Y012788D01*
X009156Y012788D01*
X005534Y012788D01*
X005038Y012788D01*
X005038Y012788D01*
X005534Y012788D01*
X005534Y012788D01*
X005534Y013288D01*
X005534Y013288D01*
X005534Y013086D01*
X005534Y012788D01*
X006147Y012788D01*
X006147Y012930D01*
X006135Y012976D01*
X006111Y013017D01*
X006090Y013038D01*
X006111Y013060D01*
X006135Y013101D01*
X006147Y013146D01*
X006147Y013288D01*
X005534Y013288D01*
X005534Y013288D01*
X004921Y013288D01*
X005534Y013288D01*
X005534Y013288D01*
X005534Y013788D01*
X005534Y013788D01*
X005534Y013586D01*
X005534Y013288D01*
X006147Y013288D01*
X006147Y013430D01*
X006135Y013476D01*
X006111Y013517D01*
X006090Y013538D01*
X006111Y013560D01*
X006135Y013601D01*
X006147Y013646D01*
X006147Y013788D01*
X005534Y013788D01*
X005534Y013788D01*
X004921Y013788D01*
X005534Y013788D01*
X005534Y013788D01*
X005546Y013776D01*
X005546Y013680D01*
X005534Y013653D02*
X005534Y013653D01*
X005534Y013788D02*
X005534Y014288D01*
X005534Y014288D01*
X005534Y013990D01*
X005534Y013788D01*
X005534Y013859D01*
X005534Y013811D02*
X005534Y013811D01*
X005534Y013788D02*
X005534Y013788D01*
X006147Y013788D01*
X006147Y013930D01*
X006135Y013976D01*
X006111Y014017D01*
X006090Y014038D01*
X006111Y014060D01*
X006135Y014101D01*
X006147Y014146D01*
X006147Y014288D01*
X005534Y014288D01*
X005534Y014288D01*
X004921Y014288D01*
X005534Y014288D01*
X005534Y014288D01*
X009156Y014288D01*
X009156Y014288D01*
X009156Y013788D01*
X009156Y013788D01*
X009156Y013586D01*
X009156Y013288D01*
X009156Y013288D01*
X009156Y012788D01*
X008543Y012788D01*
X008543Y012930D01*
X008555Y012976D01*
X008579Y013017D01*
X008600Y013038D01*
X008579Y013060D01*
X008555Y013101D01*
X008543Y013146D01*
X008543Y013288D01*
X009156Y013288D01*
X009156Y012990D01*
X009156Y012788D01*
X009156Y012788D01*
X009156Y012860D02*
X009156Y012860D01*
X009156Y012702D02*
X009156Y012702D01*
X009156Y013019D02*
X009156Y013019D01*
X009156Y013177D02*
X009156Y013177D01*
X009156Y013288D02*
X009156Y013288D01*
X009156Y013288D01*
X009769Y013288D01*
X009769Y013146D01*
X009757Y013101D01*
X009733Y013060D01*
X009712Y013038D01*
X009733Y013017D01*
X009757Y012976D01*
X009769Y012930D01*
X009769Y012816D01*
X010040Y013086D01*
X010130Y013176D01*
X010247Y013225D01*
X010412Y013225D01*
X010412Y013306D01*
X010992Y013306D01*
X010992Y013306D01*
X010412Y013306D01*
X010412Y013460D01*
X010425Y013505D01*
X010445Y013541D01*
X010392Y013593D01*
X010392Y014019D01*
X010430Y014056D01*
X010392Y014093D01*
X010392Y014519D01*
X010430Y014556D01*
X010430Y014556D01*
X010400Y014556D01*
X010308Y014594D01*
X010168Y014735D01*
X010141Y014671D01*
X010035Y014564D01*
X009896Y014507D01*
X009881Y014507D01*
X009788Y014468D01*
X009759Y014468D01*
X009769Y014430D01*
X009769Y014288D01*
X009156Y014288D01*
X009156Y013990D01*
X009156Y013788D01*
X009156Y013288D01*
X009174Y013306D01*
X009174Y013771D01*
X009156Y013788D01*
X008543Y013788D01*
X008543Y013646D01*
X008555Y013601D01*
X008579Y013560D01*
X008600Y013538D01*
X008579Y013517D01*
X008555Y013476D01*
X008543Y013430D01*
X008543Y013288D01*
X009156Y013288D01*
X009769Y013288D01*
X009769Y013430D01*
X009757Y013476D01*
X009733Y013517D01*
X009712Y013538D01*
X009733Y013560D01*
X009757Y013601D01*
X009769Y013646D01*
X009769Y013788D01*
X009156Y013788D01*
X009156Y013788D01*
X009156Y013788D01*
X009156Y014288D01*
X008543Y014288D01*
X008543Y014146D01*
X008555Y014101D01*
X008579Y014060D01*
X008600Y014038D01*
X008579Y014017D01*
X008555Y013976D01*
X008543Y013930D01*
X008543Y013788D01*
X009156Y013788D01*
X009769Y013788D01*
X009769Y013930D01*
X009757Y013976D01*
X009733Y014017D01*
X009712Y014038D01*
X009733Y014060D01*
X009757Y014101D01*
X009769Y014146D01*
X009769Y014288D01*
X009156Y014288D01*
X009156Y014288D01*
X009156Y014288D01*
X008543Y014288D01*
X008543Y014430D01*
X008555Y014476D01*
X008579Y014517D01*
X008586Y014524D01*
X008523Y014587D01*
X008523Y014989D01*
X008572Y015038D01*
X008523Y015087D01*
X008523Y015489D01*
X008559Y015525D01*
X008532Y015551D01*
X008530Y015557D01*
X008475Y015534D01*
X008325Y015534D01*
X008186Y015592D01*
X008145Y015632D01*
X007196Y015632D01*
X007156Y015592D01*
X007017Y015534D01*
X006866Y015534D01*
X006728Y015592D01*
X006621Y015698D01*
X006609Y015728D01*
X006581Y015661D01*
X006557Y015636D01*
X006630Y015606D01*
X006736Y015499D01*
X006794Y015360D01*
X006794Y015210D01*
X006752Y015108D01*
X006848Y015108D01*
X006865Y015101D01*
X006925Y015101D01*
X007064Y015043D01*
X007170Y014937D01*
X007228Y014798D01*
X007228Y014648D01*
X007170Y014509D01*
X007064Y014402D01*
X006925Y014345D01*
X006774Y014345D01*
X006636Y014402D01*
X006570Y014468D01*
X006137Y014468D01*
X006147Y014430D01*
X006147Y014288D01*
X005534Y014288D01*
X005534Y014287D02*
X005534Y014287D01*
X005534Y014180D02*
X005534Y014180D01*
X005534Y014128D02*
X005534Y014128D01*
X005534Y013970D02*
X005534Y013970D01*
X005534Y013494D02*
X005534Y013494D01*
X005534Y013336D02*
X005534Y013336D01*
X005534Y013288D02*
X005534Y013288D01*
X005534Y013177D02*
X005534Y013177D01*
X005534Y013019D02*
X005534Y013019D01*
X005534Y012860D02*
X005534Y012860D01*
X005534Y012788D02*
X005534Y012788D01*
X005534Y012702D02*
X005534Y012702D01*
X005233Y012793D02*
X003979Y013727D01*
X003345Y013727D01*
X003247Y013826D01*
X003282Y015322D01*
X003436Y015290D01*
X003853Y015302D01*
X003873Y015271D01*
X004306Y015231D01*
X004520Y014285D01*
X009692Y014305D01*
X009846Y014302D01*
X010108Y014303D01*
X010338Y014046D01*
X010403Y013479D01*
X009591Y012763D01*
X005233Y012793D01*
X005143Y012860D02*
X009701Y012860D01*
X009769Y012860D02*
X009813Y012860D01*
X009881Y013019D02*
X004930Y013019D01*
X004959Y013019D02*
X004229Y013019D01*
X004255Y013177D02*
X004921Y013177D01*
X004921Y013336D02*
X004212Y013336D01*
X004314Y013343D02*
X004314Y013361D01*
X004315Y013359D01*
X004292Y013494D02*
X010402Y013494D01*
X010422Y013494D02*
X009746Y013494D01*
X009769Y013336D02*
X010412Y013336D01*
X010240Y013336D02*
X004505Y013336D01*
X004718Y013177D02*
X010061Y013177D01*
X010131Y013177D02*
X009769Y013177D01*
X009732Y013019D02*
X009972Y013019D01*
X009769Y013653D02*
X010392Y013653D01*
X010384Y013653D02*
X004079Y013653D01*
X004049Y013494D02*
X004944Y013494D01*
X004921Y013653D02*
X003097Y013653D01*
X003097Y013811D02*
X004921Y013811D01*
X004931Y013970D02*
X003061Y013970D01*
X003250Y013970D02*
X010347Y013970D01*
X010392Y013970D02*
X009759Y013970D01*
X009764Y014128D02*
X010392Y014128D01*
X010265Y014128D02*
X003254Y014128D01*
X003258Y014287D02*
X004520Y014287D01*
X004484Y014445D02*
X003261Y014445D01*
X003265Y014604D02*
X004448Y014604D01*
X004522Y014591D02*
X004568Y014603D01*
X004609Y014627D01*
X004643Y014660D01*
X004666Y014701D01*
X004679Y014747D01*
X004679Y015008D01*
X004045Y015008D01*
X004045Y015163D01*
X003890Y015163D01*
X003890Y015580D01*
X003412Y015580D01*
X003366Y015568D01*
X003325Y015545D01*
X003292Y015511D01*
X003268Y015470D01*
X003256Y015424D01*
X003256Y015163D01*
X003890Y015163D01*
X003890Y015008D01*
X004045Y015008D01*
X004045Y014591D01*
X004522Y014591D01*
X004569Y014604D02*
X004901Y014604D01*
X004901Y014762D02*
X004679Y014762D01*
X004679Y014921D02*
X004901Y014921D01*
X004909Y015079D02*
X004045Y015079D01*
X003967Y015086D02*
X003420Y015086D01*
X003276Y015079D02*
X004340Y015079D01*
X004376Y014921D02*
X003273Y014921D01*
X003256Y014921D02*
X003097Y014921D01*
X003097Y014934D02*
X002815Y015215D01*
X002418Y015215D01*
X002137Y014934D01*
X002137Y014536D01*
X002418Y014255D01*
X002815Y014255D01*
X003097Y014536D01*
X003097Y014934D01*
X003097Y014762D02*
X003256Y014762D01*
X003269Y014762D02*
X004412Y014762D01*
X004430Y014788D02*
X004359Y014859D01*
X004045Y014921D02*
X003890Y014921D01*
X003890Y015008D02*
X003890Y014591D01*
X003412Y014591D01*
X003366Y014603D01*
X003325Y014627D01*
X003292Y014660D01*
X003268Y014701D01*
X003256Y014747D01*
X003256Y015008D01*
X003890Y015008D01*
X003890Y015079D02*
X002952Y015079D01*
X002815Y015255D02*
X003097Y015536D01*
X003097Y015934D01*
X002815Y016215D01*
X002418Y016215D01*
X002137Y015934D01*
X002137Y015536D01*
X002418Y015255D01*
X002815Y015255D01*
X002956Y015396D02*
X003256Y015396D01*
X003215Y015298D02*
X003215Y015290D01*
X003256Y015238D02*
X001326Y015238D01*
X001952Y015079D02*
X002282Y015079D01*
X002137Y014921D02*
X002097Y014921D01*
X002097Y014762D02*
X002137Y014762D01*
X002137Y014604D02*
X002097Y014604D01*
X002005Y014445D02*
X002228Y014445D01*
X002386Y014287D02*
X001847Y014287D01*
X001903Y014128D02*
X002331Y014128D01*
X002172Y013970D02*
X002061Y013970D01*
X002097Y013811D02*
X002137Y013811D01*
X002137Y013653D02*
X002097Y013653D01*
X001743Y013255D02*
X001783Y013215D01*
X001418Y013215D01*
X001326Y013123D01*
X001326Y013347D01*
X001418Y013255D01*
X001743Y013255D01*
X001380Y013177D02*
X001326Y013177D01*
X001326Y013336D02*
X001337Y013336D01*
X002022Y013008D02*
X002059Y012993D01*
X002224Y012993D01*
X002157Y012926D01*
X002157Y012745D01*
X002607Y012745D01*
X002607Y012725D01*
X002157Y012725D01*
X002157Y012545D01*
X002224Y012477D01*
X002164Y012452D01*
X002094Y012382D01*
X001914Y012202D01*
X001889Y012142D01*
X001815Y012215D01*
X001418Y012215D01*
X001326Y012123D01*
X001326Y012347D01*
X001418Y012255D01*
X001815Y012255D01*
X002097Y012536D01*
X002097Y012934D01*
X002022Y013008D01*
X002097Y012860D02*
X002157Y012860D01*
X002157Y012702D02*
X002097Y012702D01*
X002097Y012543D02*
X002158Y012543D01*
X002097Y012385D02*
X001945Y012385D01*
X001938Y012226D02*
X001326Y012226D01*
X001326Y011347D02*
X001418Y011255D01*
X001815Y011255D01*
X001876Y011315D01*
X001876Y011155D01*
X001815Y011215D01*
X001418Y011215D01*
X001326Y011123D01*
X001326Y011347D01*
X001326Y011275D02*
X001398Y011275D01*
X001835Y011275D02*
X001876Y011275D01*
X002376Y011275D02*
X002398Y011275D01*
X002835Y011275D02*
X003307Y011275D01*
X003301Y011117D02*
X002914Y011117D01*
X002994Y011434D02*
X004266Y011434D01*
X004293Y011592D02*
X003097Y011592D01*
X003097Y011751D02*
X004318Y011751D01*
X004430Y011909D02*
X003155Y011909D01*
X003304Y012068D02*
X004796Y012068D01*
X004637Y012226D02*
X003344Y012226D01*
X003315Y012385D02*
X004397Y012385D01*
X004323Y012543D02*
X003198Y012543D01*
X003077Y012702D02*
X004327Y012702D01*
X004411Y012860D02*
X004115Y012860D01*
X003746Y012545D02*
X003746Y012300D01*
X003746Y012545D02*
X003556Y012735D01*
X002617Y012735D01*
X003077Y012860D02*
X003638Y012860D01*
X003704Y013494D02*
X003054Y013494D01*
X003261Y013811D02*
X010365Y013811D01*
X010392Y013811D02*
X009769Y013811D01*
X009769Y014287D02*
X010392Y014287D01*
X010392Y014445D02*
X009765Y014445D01*
X010074Y014604D02*
X010299Y014604D01*
X010123Y014287D02*
X005016Y014287D01*
X004921Y014287D02*
X002847Y014287D01*
X002903Y014128D02*
X004926Y014128D01*
X004925Y014445D02*
X003005Y014445D01*
X003097Y014604D02*
X003365Y014604D01*
X003890Y014604D02*
X004045Y014604D01*
X004045Y014762D02*
X003890Y014762D01*
X003890Y015238D02*
X004045Y015238D01*
X004045Y015396D02*
X003890Y015396D01*
X003890Y015555D02*
X004045Y015555D01*
X004236Y015238D02*
X003280Y015238D01*
X003342Y015555D02*
X003097Y015555D01*
X003097Y015713D02*
X003313Y015713D01*
X003236Y015872D02*
X003097Y015872D01*
X003001Y016030D02*
X003236Y016030D01*
X003236Y016189D02*
X002842Y016189D01*
X002807Y016275D02*
X003077Y016545D01*
X003077Y016725D01*
X002627Y016725D01*
X002627Y016745D01*
X003077Y016745D01*
X003077Y016926D01*
X002807Y017195D01*
X002627Y017195D01*
X002627Y016745D01*
X002607Y016745D01*
X002607Y017195D01*
X002426Y017195D01*
X002157Y016926D01*
X002157Y016745D01*
X002607Y016745D01*
X002607Y016725D01*
X002627Y016725D01*
X002627Y016275D01*
X002807Y016275D01*
X002879Y016347D02*
X003236Y016347D01*
X003236Y016506D02*
X003038Y016506D01*
X003077Y016664D02*
X003257Y016664D01*
X003261Y016823D02*
X003077Y016823D01*
X003021Y016981D02*
X003265Y016981D01*
X003269Y017140D02*
X002863Y017140D01*
X002858Y017298D02*
X003273Y017298D01*
X003276Y017457D02*
X003017Y017457D01*
X003097Y017615D02*
X003280Y017615D01*
X003284Y017774D02*
X003097Y017774D01*
X003097Y017932D02*
X003288Y017932D01*
X003292Y018091D02*
X002940Y018091D01*
X003166Y018408D02*
X003300Y018408D01*
X003296Y018249D02*
X002555Y018249D01*
X002707Y018782D02*
X002736Y018782D01*
X003166Y019102D02*
X003166Y019180D01*
X003048Y019297D01*
X001823Y019297D01*
X001706Y019180D01*
X001706Y018385D01*
X001816Y018275D01*
X001816Y018187D01*
X001807Y018195D01*
X001627Y018195D01*
X001627Y017745D01*
X001607Y017745D01*
X001607Y018195D01*
X001426Y018195D01*
X001326Y018095D01*
X001326Y019585D01*
X003329Y019585D01*
X003317Y019102D01*
X003166Y019102D01*
X003146Y019200D02*
X003319Y019200D01*
X003323Y019359D02*
X001326Y019359D01*
X001326Y019517D02*
X003327Y019517D01*
X003599Y019191D02*
X003724Y019191D01*
X003806Y018739D01*
X003841Y018798D01*
X003916Y018873D01*
X004703Y018873D01*
X004814Y018763D01*
X004814Y018188D01*
X005215Y017786D01*
X006518Y017786D01*
X006863Y017442D01*
X006898Y017356D01*
X007005Y017249D01*
X007091Y017214D01*
X007109Y017196D01*
X007134Y017196D01*
X007144Y017192D01*
X007294Y017192D01*
X007304Y017196D01*
X009865Y017196D01*
X009975Y017086D01*
X010000Y015877D01*
X009927Y015740D01*
X008766Y015715D01*
X008770Y015818D01*
X008778Y015837D01*
X008778Y015987D01*
X008777Y015989D01*
X008791Y016305D01*
X004866Y016315D01*
X004416Y015940D01*
X003530Y015915D01*
X003523Y015982D01*
X004428Y016007D01*
X003520Y015988D01*
X003599Y019191D01*
X003596Y019042D02*
X003751Y019042D01*
X003780Y018883D02*
X003592Y018883D01*
X003588Y018725D02*
X004814Y018725D01*
X004814Y018566D02*
X003584Y018566D01*
X003580Y018408D02*
X004814Y018408D01*
X004814Y018249D02*
X003576Y018249D01*
X003572Y018091D02*
X004911Y018091D01*
X005069Y017932D02*
X003568Y017932D01*
X003564Y017774D02*
X006531Y017774D01*
X006690Y017615D02*
X003560Y017615D01*
X003557Y017457D02*
X006848Y017457D01*
X006956Y017298D02*
X003553Y017298D01*
X003549Y017140D02*
X009921Y017140D01*
X009802Y017089D02*
X009880Y017011D01*
X009977Y016981D02*
X003545Y016981D01*
X003541Y016823D02*
X009980Y016823D01*
X009984Y016664D02*
X003537Y016664D01*
X003533Y016506D02*
X009987Y016506D01*
X009990Y016347D02*
X003529Y016347D01*
X003525Y016189D02*
X004714Y016189D01*
X004524Y016030D02*
X003521Y016030D01*
X002607Y016275D02*
X002607Y016725D01*
X002157Y016725D01*
X002157Y016545D01*
X002426Y016275D01*
X002607Y016275D01*
X002607Y016347D02*
X002627Y016347D01*
X002627Y016506D02*
X002607Y016506D01*
X002607Y016664D02*
X002627Y016664D01*
X002627Y016823D02*
X002607Y016823D01*
X002607Y016981D02*
X002627Y016981D01*
X002627Y017140D02*
X002607Y017140D01*
X002375Y017298D02*
X001830Y017298D01*
X001807Y017275D02*
X002077Y017545D01*
X002077Y017725D01*
X001627Y017725D01*
X001627Y017275D01*
X001807Y017275D01*
X001891Y017140D02*
X002371Y017140D01*
X002212Y016981D02*
X002050Y016981D01*
X002097Y016823D02*
X002157Y016823D01*
X002157Y016664D02*
X002097Y016664D01*
X002066Y016506D02*
X002196Y016506D01*
X002354Y016347D02*
X001907Y016347D01*
X001842Y016189D02*
X002391Y016189D01*
X002233Y016030D02*
X002001Y016030D01*
X002097Y015872D02*
X002137Y015872D01*
X002137Y015713D02*
X002097Y015713D01*
X002097Y015555D02*
X002137Y015555D01*
X002277Y015396D02*
X001956Y015396D01*
X001391Y016189D02*
X001326Y016189D01*
X001326Y017140D02*
X001342Y017140D01*
X001326Y017298D02*
X001403Y017298D01*
X001607Y017298D02*
X001627Y017298D01*
X001627Y017457D02*
X001607Y017457D01*
X001607Y017615D02*
X001627Y017615D01*
X001627Y017774D02*
X001607Y017774D01*
X001607Y017932D02*
X001627Y017932D01*
X001627Y018091D02*
X001607Y018091D01*
X001816Y018249D02*
X001326Y018249D01*
X001326Y018408D02*
X001706Y018408D01*
X001706Y018566D02*
X001326Y018566D01*
X001326Y018725D02*
X001706Y018725D01*
X001706Y018883D02*
X001326Y018883D01*
X001326Y019042D02*
X001706Y019042D01*
X001725Y019200D02*
X001326Y019200D01*
X002077Y017774D02*
X002126Y017774D01*
X002137Y017615D02*
X002077Y017615D01*
X001989Y017457D02*
X002216Y017457D01*
X004128Y017235D02*
X004193Y017170D01*
X004274Y017089D01*
X005307Y018091D02*
X005591Y018091D01*
X005615Y018066D02*
X005331Y018066D01*
X005094Y018304D01*
X005094Y018818D01*
X005051Y018921D01*
X005020Y018952D01*
X005020Y019026D01*
X004537Y019509D01*
X003951Y019509D01*
X003937Y019585D01*
X016908Y019585D01*
X016908Y018123D01*
X016815Y018215D01*
X016418Y018215D01*
X016137Y017934D01*
X016137Y017651D01*
X016077Y017591D01*
X016077Y017725D01*
X015627Y017725D01*
X015627Y017745D01*
X016077Y017745D01*
X016077Y017926D01*
X015807Y018195D01*
X015627Y018195D01*
X015627Y017745D01*
X015607Y017745D01*
X015607Y018195D01*
X015426Y018195D01*
X015157Y017926D01*
X015157Y017745D01*
X015607Y017745D01*
X015607Y017725D01*
X015627Y017725D01*
X015627Y017275D01*
X015807Y017275D01*
X015850Y017318D01*
X015841Y017295D01*
X015841Y017190D01*
X015815Y017215D01*
X015418Y017215D01*
X015137Y016934D01*
X015137Y016536D01*
X015418Y016255D01*
X015815Y016255D01*
X015841Y016280D01*
X015841Y016190D01*
X015815Y016215D01*
X015418Y016215D01*
X015137Y015934D01*
X015137Y015536D01*
X015418Y015255D01*
X015815Y015255D01*
X015841Y015280D01*
X015841Y015190D01*
X015815Y015215D01*
X015418Y015215D01*
X015137Y014934D01*
X015137Y014536D01*
X015142Y014531D01*
X015100Y014531D01*
X014997Y014488D01*
X014919Y014409D01*
X014835Y014326D01*
X014835Y014477D01*
X014407Y014477D01*
X014407Y014089D01*
X014598Y014089D01*
X014478Y013969D01*
X014478Y013969D01*
X014399Y013890D01*
X014356Y013787D01*
X014356Y012906D01*
X014323Y012873D01*
X014266Y012873D01*
X014127Y012816D01*
X014021Y012709D01*
X013982Y012617D01*
X013918Y012682D01*
X013847Y012752D01*
X013756Y012790D01*
X013102Y012790D01*
X013119Y012830D01*
X013119Y012976D01*
X013895Y012976D01*
X014012Y013093D01*
X014012Y013519D01*
X013975Y013556D01*
X014012Y013593D01*
X014012Y014019D01*
X013975Y014056D01*
X014012Y014093D01*
X014012Y014097D01*
X014040Y014089D01*
X014312Y014089D01*
X014312Y014477D01*
X014407Y014477D01*
X014407Y014573D01*
X014835Y014573D01*
X014835Y014805D01*
X014822Y014851D01*
X014804Y014883D01*
X014855Y014934D01*
X014855Y015612D01*
X014738Y015729D01*
X014705Y015729D01*
X014759Y015860D01*
X014759Y016010D01*
X014701Y016149D01*
X014595Y016256D01*
X014456Y016313D01*
X014399Y016313D01*
X014247Y016465D01*
X014168Y016543D01*
X014066Y016586D01*
X013945Y016586D01*
X013895Y016636D01*
X012930Y016636D01*
X012812Y016519D01*
X012812Y016093D01*
X012850Y016056D01*
X012812Y016019D01*
X012812Y015593D01*
X012850Y015556D01*
X012812Y015519D01*
X012812Y015093D01*
X012850Y015056D01*
X012812Y015019D01*
X012812Y014593D01*
X012850Y014556D01*
X012812Y014519D01*
X012812Y014093D01*
X012850Y014056D01*
X012812Y014019D01*
X012812Y013593D01*
X012850Y013556D01*
X012812Y013519D01*
X012812Y013283D01*
X012666Y013283D01*
X012527Y013226D01*
X012526Y013225D01*
X011572Y013225D01*
X011572Y013306D01*
X011572Y013460D01*
X011560Y013505D01*
X011540Y013541D01*
X011592Y013593D01*
X011592Y014019D01*
X011555Y014056D01*
X011592Y014093D01*
X011592Y014519D01*
X011555Y014556D01*
X011592Y014593D01*
X011592Y015019D01*
X011555Y015056D01*
X011707Y015056D01*
X011721Y015041D01*
X011860Y014984D01*
X012011Y014984D01*
X012150Y015041D01*
X012256Y015148D01*
X012299Y015252D01*
X012319Y015244D01*
X012469Y015244D01*
X012608Y015301D01*
X012715Y015408D01*
X012772Y015546D01*
X012772Y015697D01*
X012715Y015836D01*
X012608Y015942D01*
X012469Y016000D01*
X012370Y016000D01*
X012344Y016026D01*
X012252Y016064D01*
X011563Y016064D01*
X011592Y016093D01*
X011592Y016519D01*
X011475Y016636D01*
X010565Y016636D01*
X010564Y016687D01*
X010564Y017257D01*
X010525Y017349D01*
X010093Y017782D01*
X010001Y017820D01*
X007504Y017820D01*
X007433Y017890D01*
X007294Y017948D01*
X007144Y017948D01*
X007005Y017890D01*
X006908Y017793D01*
X006756Y017945D01*
X006677Y018024D01*
X006672Y018026D01*
X006989Y018342D01*
X006989Y019026D01*
X006506Y019509D01*
X005822Y019509D01*
X005339Y019026D01*
X005339Y018342D01*
X005615Y018066D01*
X005432Y018249D02*
X005148Y018249D01*
X005094Y018408D02*
X005339Y018408D01*
X005339Y018566D02*
X005094Y018566D01*
X005094Y018725D02*
X005339Y018725D01*
X005339Y018883D02*
X005067Y018883D01*
X005005Y019042D02*
X005355Y019042D01*
X005513Y019200D02*
X004846Y019200D01*
X004688Y019359D02*
X005672Y019359D01*
X006656Y019359D02*
X007640Y019359D01*
X007791Y019509D02*
X007307Y019026D01*
X007307Y018342D01*
X007791Y017859D01*
X008474Y017859D01*
X008957Y018342D01*
X008957Y019026D01*
X008474Y019509D01*
X007791Y019509D01*
X007482Y019200D02*
X006815Y019200D01*
X006973Y019042D02*
X007323Y019042D01*
X007307Y018883D02*
X006989Y018883D01*
X006989Y018725D02*
X007307Y018725D01*
X007307Y018566D02*
X006989Y018566D01*
X006989Y018408D02*
X007307Y018408D01*
X007401Y018249D02*
X006896Y018249D01*
X006737Y018091D02*
X007559Y018091D01*
X007718Y017932D02*
X007332Y017932D01*
X007106Y017932D02*
X006768Y017932D01*
X008547Y017932D02*
X009686Y017932D01*
X009759Y017859D02*
X010443Y017859D01*
X010926Y018342D01*
X010926Y019026D01*
X010443Y019509D01*
X009759Y019509D01*
X009276Y019026D01*
X009276Y018342D01*
X009759Y017859D01*
X009528Y018091D02*
X008706Y018091D01*
X008864Y018249D02*
X009369Y018249D01*
X009276Y018408D02*
X008957Y018408D01*
X008957Y018566D02*
X009276Y018566D01*
X009276Y018725D02*
X008957Y018725D01*
X008957Y018883D02*
X009276Y018883D01*
X009292Y019042D02*
X008942Y019042D01*
X008783Y019200D02*
X009450Y019200D01*
X009609Y019359D02*
X008625Y019359D01*
X010101Y017774D02*
X012803Y017774D01*
X012770Y017806D02*
X012838Y017738D01*
X012853Y017701D01*
X013068Y017486D01*
X013147Y017408D01*
X013250Y017365D01*
X014421Y017365D01*
X014462Y017324D01*
X014601Y017267D01*
X014751Y017267D01*
X014890Y017324D01*
X014996Y017431D01*
X015054Y017570D01*
X015054Y017720D01*
X014996Y017859D01*
X014890Y017966D01*
X014751Y018023D01*
X014601Y018023D01*
X014462Y017966D01*
X014421Y017925D01*
X014417Y017925D01*
X014843Y018350D01*
X014843Y018634D01*
X014088Y018634D01*
X014088Y018734D01*
X014843Y018734D01*
X014843Y019017D01*
X014371Y019489D01*
X014088Y019489D01*
X014088Y018734D01*
X013988Y018734D01*
X013988Y019489D01*
X013704Y019489D01*
X013233Y019017D01*
X013233Y018734D01*
X013988Y018734D01*
X013988Y018634D01*
X013233Y018634D01*
X013233Y018370D01*
X013166Y018398D01*
X013016Y018398D01*
X012894Y018348D01*
X012894Y019026D01*
X012411Y019509D01*
X011728Y019509D01*
X011244Y019026D01*
X011244Y018342D01*
X011728Y017859D01*
X012411Y017859D01*
X012759Y018207D01*
X012713Y018095D01*
X012713Y017945D01*
X012770Y017806D01*
X012718Y017932D02*
X012484Y017932D01*
X012643Y018091D02*
X012713Y018091D01*
X012894Y018408D02*
X013233Y018408D01*
X013233Y018566D02*
X012894Y018566D01*
X012894Y018725D02*
X013988Y018725D01*
X014088Y018725D02*
X016908Y018725D01*
X016908Y018883D02*
X014843Y018883D01*
X014819Y019042D02*
X016908Y019042D01*
X016908Y019200D02*
X014660Y019200D01*
X014502Y019359D02*
X016908Y019359D01*
X016908Y019517D02*
X003949Y019517D01*
X006942Y015912D02*
X008400Y015912D01*
X008276Y015555D02*
X007066Y015555D01*
X006817Y015555D02*
X006681Y015555D01*
X006615Y015713D02*
X006603Y015713D01*
X006779Y015396D02*
X008523Y015396D01*
X008523Y015238D02*
X006794Y015238D01*
X006978Y015079D02*
X008531Y015079D01*
X008523Y014921D02*
X007177Y014921D01*
X007228Y014762D02*
X008523Y014762D01*
X008523Y014604D02*
X007210Y014604D01*
X007107Y014445D02*
X008547Y014445D01*
X008543Y014287D02*
X006147Y014287D01*
X006143Y014445D02*
X006593Y014445D01*
X006142Y014128D02*
X008548Y014128D01*
X008554Y013970D02*
X006136Y013970D01*
X006147Y013811D02*
X008543Y013811D01*
X008543Y013653D02*
X006147Y013653D01*
X006124Y013494D02*
X008566Y013494D01*
X008543Y013336D02*
X006147Y013336D01*
X006147Y013177D02*
X008543Y013177D01*
X008581Y013019D02*
X006109Y013019D01*
X006147Y012860D02*
X008543Y012860D01*
X008543Y012702D02*
X006147Y012702D01*
X006113Y012543D02*
X008577Y012543D01*
X008523Y012385D02*
X006167Y012385D01*
X006167Y012226D02*
X007676Y012226D01*
X007554Y012068D02*
X007158Y012068D01*
X007255Y011909D02*
X007522Y011909D01*
X007559Y011751D02*
X007269Y011751D01*
X007214Y011592D02*
X007692Y011592D01*
X008354Y011434D02*
X008523Y011434D01*
X008112Y010970D02*
X008117Y010965D01*
X008094Y010965D01*
X008089Y010970D01*
X008112Y010970D01*
X008246Y012068D02*
X008543Y012068D01*
X008523Y012226D02*
X008124Y012226D01*
X009156Y013288D02*
X009156Y013288D01*
X009174Y013306D02*
X010992Y013306D01*
X010992Y013476D01*
X010992Y013476D01*
X010992Y013306D01*
X010992Y013306D01*
X010992Y013225D01*
X010992Y013225D01*
X010992Y013306D01*
X010992Y013306D01*
X010993Y013306D02*
X011572Y013306D01*
X010993Y013306D01*
X010993Y013306D01*
X010992Y013336D02*
X010992Y013336D01*
X011572Y013336D02*
X012812Y013336D01*
X012812Y013494D02*
X011563Y013494D01*
X011592Y013653D02*
X012812Y013653D01*
X012812Y013811D02*
X011592Y013811D01*
X011592Y013970D02*
X012812Y013970D01*
X012812Y014128D02*
X011592Y014128D01*
X011592Y014287D02*
X012812Y014287D01*
X012812Y014445D02*
X011592Y014445D01*
X011592Y014604D02*
X012812Y014604D01*
X012812Y014762D02*
X011592Y014762D01*
X011592Y014921D02*
X012812Y014921D01*
X012827Y015079D02*
X012187Y015079D01*
X012293Y015238D02*
X012812Y015238D01*
X012812Y015396D02*
X012703Y015396D01*
X012772Y015555D02*
X012848Y015555D01*
X012812Y015713D02*
X012766Y015713D01*
X012812Y015872D02*
X012679Y015872D01*
X012824Y016030D02*
X012333Y016030D01*
X012812Y016189D02*
X011592Y016189D01*
X011592Y016347D02*
X012812Y016347D01*
X012812Y016506D02*
X011592Y016506D01*
X011300Y015814D02*
X010992Y015806D01*
X010430Y016056D02*
X010430Y016056D01*
X010392Y016019D01*
X010392Y015593D01*
X010430Y015556D01*
X010392Y015519D01*
X010392Y015387D01*
X010349Y015430D01*
X010279Y015500D01*
X010187Y015538D01*
X010123Y015538D01*
X010149Y015560D01*
X010157Y015574D01*
X010168Y015586D01*
X010182Y015623D01*
X010229Y015712D01*
X010241Y015724D01*
X010255Y015761D01*
X010274Y015796D01*
X010275Y015812D01*
X010281Y015827D01*
X010280Y015867D01*
X010284Y015907D01*
X010279Y015922D01*
X010276Y016074D01*
X010320Y016056D01*
X010430Y016056D01*
X010404Y016030D02*
X010277Y016030D01*
X010281Y015872D02*
X010392Y015872D01*
X010392Y015713D02*
X010230Y015713D01*
X010143Y015555D02*
X010428Y015555D01*
X010392Y015396D02*
X010383Y015396D01*
X009997Y015872D02*
X008778Y015872D01*
X008779Y016030D02*
X009997Y016030D01*
X009993Y016189D02*
X008786Y016189D01*
X008530Y015555D02*
X008524Y015555D01*
X009156Y014468D02*
X009156Y014468D01*
X009156Y014288D01*
X009156Y014288D01*
X009156Y014468D01*
X009156Y014445D02*
X009156Y014445D01*
X009156Y014287D02*
X009156Y014287D01*
X009156Y014128D02*
X009156Y014128D01*
X009156Y013970D02*
X009156Y013970D01*
X009156Y013811D02*
X009156Y013811D01*
X009156Y013788D02*
X009156Y013788D01*
X009156Y013653D02*
X009156Y013653D01*
X009156Y013494D02*
X009156Y013494D01*
X009156Y013336D02*
X009156Y013336D01*
X009740Y011538D02*
X010356Y011538D01*
X010356Y011538D01*
X009740Y011538D01*
X009740Y011538D01*
X009569Y010780D02*
X010448Y010780D01*
X010448Y010665D01*
X010450Y010660D01*
X009569Y010660D01*
X009569Y010780D01*
X007950Y009830D02*
X007904Y009719D01*
X007904Y009705D01*
X007880Y009764D01*
X007814Y009830D01*
X007950Y009830D01*
X007209Y009692D02*
X007181Y009625D01*
X007181Y009475D01*
X007224Y009370D01*
X006934Y009370D01*
X006994Y009430D01*
X006994Y010100D01*
X007030Y010100D01*
X007028Y010095D01*
X007028Y009945D01*
X007085Y009806D01*
X007192Y009699D01*
X007209Y009692D01*
X007208Y009690D02*
X006994Y009690D01*
X006994Y009532D02*
X007181Y009532D01*
X007223Y009373D02*
X006937Y009373D01*
X006994Y009849D02*
X007068Y009849D01*
X007028Y010007D02*
X006994Y010007D01*
X007429Y008870D02*
X007741Y008870D01*
X007585Y008714D01*
X007585Y008360D01*
X007585Y008360D01*
X007585Y008714D01*
X007429Y008870D01*
X007560Y008739D02*
X007610Y008739D01*
X007585Y008581D02*
X007585Y008581D01*
X007585Y008422D02*
X007585Y008422D01*
X007232Y008007D02*
X006939Y008007D01*
X006939Y008007D01*
X007232Y008007D01*
X007232Y008007D01*
X007569Y007730D02*
X007601Y007730D01*
X007585Y007714D01*
X007569Y007730D01*
X007585Y007714D02*
X007585Y007360D01*
X007585Y007360D01*
X007585Y007714D01*
X007585Y007630D02*
X007585Y007630D01*
X007585Y007471D02*
X007585Y007471D01*
X007232Y007007D02*
X007281Y006958D01*
X007198Y006923D01*
X007114Y007007D01*
X007232Y007007D01*
X007243Y006996D02*
X007125Y006996D01*
X006859Y007026D02*
X006248Y007026D01*
X006247Y007027D01*
X006284Y007027D01*
X006565Y007308D01*
X006565Y007487D01*
X006105Y007487D01*
X006105Y007527D01*
X006565Y007527D01*
X006565Y007673D01*
X006585Y007653D01*
X006585Y007300D01*
X006859Y007026D01*
X006731Y007154D02*
X006411Y007154D01*
X006565Y007313D02*
X006585Y007313D01*
X006585Y007471D02*
X006565Y007471D01*
X006565Y007630D02*
X006585Y007630D01*
X006342Y007947D02*
X006324Y007947D01*
X006105Y007947D02*
X006065Y007947D01*
X006065Y007788D02*
X006105Y007788D01*
X006105Y007630D02*
X006065Y007630D01*
X005846Y007947D02*
X005554Y007947D01*
X005546Y007788D02*
X005688Y007788D01*
X005605Y007630D02*
X005590Y007630D01*
X005514Y008105D02*
X005780Y008105D01*
X005621Y008264D02*
X005406Y008264D01*
X004774Y008581D02*
X004734Y008581D01*
X004734Y008739D02*
X004774Y008739D01*
X003676Y008264D02*
X002824Y008264D01*
X002926Y008105D02*
X003676Y008105D01*
X003676Y007947D02*
X003084Y007947D01*
X003097Y007788D02*
X003676Y007788D01*
X003676Y007630D02*
X003097Y007630D01*
X003031Y007471D02*
X003692Y007471D01*
X003820Y007313D02*
X002873Y007313D01*
X002877Y007154D02*
X004015Y007154D01*
X003954Y006996D02*
X003035Y006996D01*
X003097Y006837D02*
X003954Y006837D01*
X004008Y006679D02*
X003097Y006679D01*
X003080Y006520D02*
X003198Y006520D01*
X003171Y005990D02*
X003041Y005990D01*
X003097Y005934D01*
X003097Y005536D01*
X002815Y005255D01*
X002418Y005255D01*
X002137Y005536D01*
X002137Y005934D01*
X002229Y006026D01*
X002224Y006028D01*
X001984Y006268D01*
X001914Y006338D01*
X001909Y006349D01*
X001815Y006255D01*
X001418Y006255D01*
X001326Y006347D01*
X001326Y006123D01*
X001418Y006215D01*
X001815Y006215D01*
X002097Y005934D01*
X002097Y005536D01*
X001815Y005255D01*
X001418Y005255D01*
X001326Y005347D01*
X001326Y005123D01*
X001418Y005215D01*
X001815Y005215D01*
X002097Y004934D01*
X002097Y004536D01*
X001815Y004255D01*
X001418Y004255D01*
X001326Y004347D01*
X001326Y004123D01*
X001418Y004215D01*
X001815Y004215D01*
X002097Y003934D01*
X002097Y003649D01*
X002137Y003649D01*
X002137Y003934D01*
X002418Y004215D01*
X002815Y004215D01*
X003097Y003934D01*
X003097Y003536D01*
X003050Y003490D01*
X004166Y003490D01*
X004031Y003625D01*
X003954Y003809D01*
X003954Y004008D01*
X003973Y004054D01*
X003856Y004054D01*
X003717Y004111D01*
X003611Y004217D01*
X003553Y004356D01*
X003553Y004507D01*
X003611Y004646D01*
X003717Y004752D01*
X003856Y004810D01*
X003954Y004810D01*
X003954Y005008D01*
X004013Y005150D01*
X003288Y005150D01*
X003171Y005267D01*
X003171Y005990D01*
X003171Y005886D02*
X003097Y005886D01*
X003097Y005728D02*
X003171Y005728D01*
X003171Y005569D02*
X003097Y005569D01*
X003171Y005411D02*
X002971Y005411D01*
X002815Y005215D02*
X002418Y005215D01*
X002137Y004934D01*
X002137Y004536D01*
X002418Y004255D01*
X002815Y004255D01*
X003097Y004536D01*
X003097Y004934D01*
X002815Y005215D01*
X002937Y005094D02*
X003990Y005094D01*
X003954Y004935D02*
X003096Y004935D01*
X003097Y004777D02*
X003776Y004777D01*
X003599Y004618D02*
X003097Y004618D01*
X003020Y004460D02*
X003553Y004460D01*
X003576Y004301D02*
X002861Y004301D01*
X002888Y004143D02*
X003685Y004143D01*
X003954Y003984D02*
X003047Y003984D01*
X003097Y003826D02*
X003954Y003826D01*
X004013Y003667D02*
X003097Y003667D01*
X003069Y003509D02*
X004147Y003509D01*
X005212Y003033D02*
X005483Y003033D01*
X005393Y003192D02*
X005371Y003192D01*
X006042Y003033D02*
X006070Y003033D01*
X006630Y003033D02*
X006658Y003033D01*
X006948Y002716D02*
X003097Y002716D01*
X003097Y002558D02*
X006790Y002558D01*
X006631Y002399D02*
X002959Y002399D01*
X002949Y002082D02*
X003750Y002082D01*
X003591Y001924D02*
X003097Y001924D01*
X003097Y001765D02*
X003433Y001765D01*
X003370Y001607D02*
X003097Y001607D01*
X003008Y001448D02*
X003370Y001448D01*
X003370Y001290D02*
X002850Y001290D01*
X002225Y001448D02*
X002008Y001448D01*
X002097Y001607D02*
X002137Y001607D01*
X002137Y001765D02*
X002097Y001765D01*
X002097Y001924D02*
X002137Y001924D01*
X002285Y002082D02*
X001949Y002082D01*
X001959Y002399D02*
X002274Y002399D01*
X002137Y002558D02*
X002097Y002558D01*
X002097Y002716D02*
X002137Y002716D01*
X002137Y002875D02*
X002097Y002875D01*
X001754Y003215D02*
X001418Y003215D01*
X001326Y003123D01*
X001326Y003347D01*
X001418Y003255D01*
X001754Y003255D01*
X001754Y003215D01*
X001394Y003192D02*
X001326Y003192D01*
X002097Y003667D02*
X002137Y003667D01*
X002137Y003826D02*
X002097Y003826D01*
X002047Y003984D02*
X002187Y003984D01*
X002345Y004143D02*
X001888Y004143D01*
X001861Y004301D02*
X002372Y004301D01*
X002213Y004460D02*
X002020Y004460D01*
X002097Y004618D02*
X002137Y004618D01*
X002137Y004777D02*
X002097Y004777D01*
X002096Y004935D02*
X002138Y004935D01*
X002296Y005094D02*
X001937Y005094D01*
X001971Y005411D02*
X002262Y005411D01*
X002137Y005569D02*
X002097Y005569D01*
X002097Y005728D02*
X002137Y005728D01*
X002137Y005886D02*
X002097Y005886D01*
X001986Y006045D02*
X002208Y006045D01*
X002049Y006203D02*
X001828Y006203D01*
X001406Y006203D02*
X001326Y006203D01*
X001326Y007123D02*
X001326Y007347D01*
X001418Y007255D01*
X001815Y007255D01*
X001876Y007315D01*
X001876Y007155D01*
X001815Y007215D01*
X001418Y007215D01*
X001326Y007123D01*
X001326Y007154D02*
X001357Y007154D01*
X001360Y007313D02*
X001326Y007313D01*
X001873Y007313D02*
X001876Y007313D01*
X001876Y008155D02*
X001815Y008215D01*
X001418Y008215D01*
X001326Y008123D01*
X001326Y008347D01*
X001418Y008255D01*
X001815Y008255D01*
X001876Y008315D01*
X001876Y008155D01*
X001876Y008264D02*
X001824Y008264D01*
X001409Y008264D02*
X001326Y008264D01*
X001326Y009123D02*
X001326Y009347D01*
X001418Y009255D01*
X001815Y009255D01*
X001876Y009315D01*
X001876Y009155D01*
X001815Y009215D01*
X001418Y009215D01*
X001326Y009123D01*
X001326Y009215D02*
X001417Y009215D01*
X001816Y009215D02*
X001876Y009215D01*
X002376Y009215D02*
X002417Y009215D01*
X001876Y010155D02*
X001815Y010215D01*
X001418Y010215D01*
X001326Y010123D01*
X001326Y010347D01*
X001418Y010255D01*
X001815Y010255D01*
X001876Y010315D01*
X001876Y010155D01*
X001876Y010166D02*
X001865Y010166D01*
X001368Y010166D02*
X001326Y010166D01*
X001326Y010324D02*
X001349Y010324D01*
X002376Y008264D02*
X002409Y008264D01*
X004201Y006472D02*
X004355Y006408D01*
X004201Y006344D01*
X004201Y006472D01*
X004201Y006362D02*
X004242Y006362D01*
X004355Y006408D02*
X005154Y006408D01*
X005291Y006352D01*
X005291Y006465D01*
X005154Y006408D01*
X004355Y006408D01*
X004774Y005928D02*
X004754Y005908D01*
X005267Y006362D02*
X005291Y006362D01*
X005834Y005954D02*
X005834Y005858D01*
X006261Y005858D01*
X006261Y005687D01*
X006527Y005687D01*
X006519Y005696D01*
X006519Y006193D01*
X006259Y006193D01*
X006261Y006186D01*
X006261Y005954D01*
X005834Y005954D01*
X005834Y005886D02*
X006519Y005886D01*
X006519Y005728D02*
X006261Y005728D01*
X006261Y006045D02*
X006519Y006045D01*
X007204Y005578D02*
X007274Y005578D01*
X007369Y005673D01*
X007463Y005578D01*
X007644Y005578D01*
X007632Y005557D01*
X007620Y005511D01*
X007619Y005299D01*
X008165Y005299D01*
X008165Y005642D01*
X008218Y005696D01*
X008218Y005725D01*
X008638Y005725D01*
X008634Y005722D01*
X008611Y005667D01*
X008611Y005667D01*
X008221Y005667D01*
X008221Y005299D01*
X008165Y005299D01*
X008165Y005242D01*
X008221Y005242D01*
X008221Y004874D01*
X008611Y004874D01*
X008656Y004886D01*
X008678Y004899D01*
X008694Y004860D01*
X008800Y004753D01*
X008939Y004696D01*
X009090Y004696D01*
X009228Y004753D01*
X009335Y004860D01*
X009392Y004998D01*
X009392Y005149D01*
X009335Y005288D01*
X009272Y005350D01*
X009555Y005350D01*
X009555Y004782D01*
X009412Y004640D01*
X007079Y004640D01*
X007064Y004655D01*
X007064Y004755D01*
X007023Y004854D01*
X007095Y004854D01*
X007212Y004971D01*
X007212Y005570D01*
X007204Y005578D01*
X007212Y005569D02*
X007639Y005569D01*
X007620Y005411D02*
X007212Y005411D01*
X007212Y005252D02*
X008165Y005252D01*
X008165Y005242D02*
X007620Y005242D01*
X007620Y005030D01*
X007632Y004985D01*
X007655Y004944D01*
X007689Y004910D01*
X007730Y004886D01*
X007776Y004874D01*
X008165Y004874D01*
X008165Y005242D01*
X008221Y005242D02*
X008596Y005242D01*
X008596Y005299D01*
X008221Y005299D01*
X008221Y005242D01*
X008221Y005252D02*
X008596Y005252D01*
X008221Y005094D02*
X008165Y005094D01*
X008165Y004935D02*
X008221Y004935D01*
X008221Y005411D02*
X008165Y005411D01*
X008165Y005569D02*
X008221Y005569D01*
X007821Y005975D02*
X007782Y006015D01*
X007620Y005094D02*
X007212Y005094D01*
X007176Y004935D02*
X007664Y004935D01*
X007055Y004777D02*
X008777Y004777D01*
X009252Y004777D02*
X009549Y004777D01*
X009555Y004935D02*
X009366Y004935D01*
X009392Y005094D02*
X009555Y005094D01*
X009555Y005252D02*
X009350Y005252D01*
X009727Y005569D02*
X009930Y005569D01*
X009930Y005728D02*
X009727Y005728D01*
X009727Y005886D02*
X009930Y005886D01*
X009930Y006045D02*
X009727Y006045D01*
X009727Y006203D02*
X009968Y006203D01*
X010150Y006362D02*
X009727Y006362D01*
X009707Y006520D02*
X011276Y006520D01*
X011309Y006362D02*
X012227Y006362D01*
X012227Y006203D02*
X011391Y006203D01*
X011395Y006045D02*
X012207Y006045D01*
X012207Y005886D02*
X011319Y005886D01*
X011856Y006520D02*
X012207Y006520D01*
X012207Y006679D02*
X011939Y006679D01*
X011944Y006837D02*
X012227Y006837D01*
X012227Y006996D02*
X011930Y006996D01*
X012088Y007154D02*
X012207Y007154D01*
X012657Y007235D02*
X013298Y007235D01*
X013262Y007515D02*
X013107Y007515D01*
X013107Y007712D01*
X013166Y007712D01*
X013262Y007752D01*
X013262Y007515D01*
X013262Y007630D02*
X013107Y007630D01*
X013822Y008105D02*
X013846Y008105D01*
X013830Y008264D02*
X013822Y008264D01*
X013774Y008751D02*
X013774Y009470D01*
X012269Y009470D01*
X012284Y009435D01*
X012284Y009285D01*
X012269Y009250D01*
X012341Y009250D01*
X012412Y009321D01*
X012551Y009378D01*
X012701Y009378D01*
X012840Y009321D01*
X012946Y009214D01*
X013004Y009075D01*
X013004Y009031D01*
X013133Y009031D01*
X013272Y008973D01*
X013312Y008932D01*
X013531Y008932D01*
X013634Y008890D01*
X013713Y008811D01*
X013774Y008751D01*
X013774Y008898D02*
X013616Y008898D01*
X013774Y009056D02*
X013004Y009056D01*
X012946Y009215D02*
X013774Y009215D01*
X013774Y009373D02*
X012713Y009373D01*
X012538Y009373D02*
X012284Y009373D01*
X012284Y009970D02*
X012284Y010095D01*
X012282Y010100D01*
X012920Y010100D01*
X013023Y010143D01*
X013101Y010221D01*
X013333Y010453D01*
X013390Y010453D01*
X013529Y010510D01*
X013584Y010566D01*
X013584Y010401D01*
X013912Y010073D01*
X014019Y010073D01*
X013991Y010003D01*
X013991Y009970D01*
X012284Y009970D01*
X012284Y010007D02*
X013992Y010007D01*
X013820Y010166D02*
X013045Y010166D01*
X013204Y010324D02*
X013661Y010324D01*
X013584Y010483D02*
X013462Y010483D01*
X012253Y012042D02*
X012182Y012042D01*
X012189Y012050D01*
X012253Y012050D01*
X012253Y012042D01*
X011722Y012290D02*
X011569Y012290D01*
X011584Y012255D01*
X011584Y012152D01*
X011722Y012290D01*
X011658Y012226D02*
X011584Y012226D01*
X013119Y012860D02*
X014234Y012860D01*
X014356Y013019D02*
X013938Y013019D01*
X014012Y013177D02*
X014356Y013177D01*
X014356Y013336D02*
X014012Y013336D01*
X014012Y013494D02*
X014356Y013494D01*
X014356Y013653D02*
X014012Y013653D01*
X014012Y013811D02*
X014366Y013811D01*
X014479Y013970D02*
X014012Y013970D01*
X014312Y014128D02*
X014407Y014128D01*
X014407Y014287D02*
X014312Y014287D01*
X014312Y014445D02*
X014407Y014445D01*
X014359Y014525D02*
X014906Y014525D01*
X015051Y014670D01*
X015051Y015210D01*
X015086Y015245D01*
X014855Y015238D02*
X015841Y015238D01*
X016401Y015238D02*
X016908Y015238D01*
X016815Y015255D02*
X016908Y015347D01*
X016908Y015123D01*
X016815Y015215D01*
X016418Y015215D01*
X016401Y015198D01*
X016401Y015272D01*
X016418Y015255D01*
X016815Y015255D01*
X016908Y016123D02*
X016815Y016215D01*
X016418Y016215D01*
X016401Y016198D01*
X016401Y016272D01*
X016418Y016255D01*
X016815Y016255D01*
X016908Y016347D01*
X016907Y016347D01*
X016908Y016347D02*
X016908Y016123D01*
X016908Y016189D02*
X016842Y016189D01*
X016908Y017123D02*
X016815Y017215D01*
X016493Y017215D01*
X016533Y017255D01*
X016815Y017255D01*
X016908Y017347D01*
X016908Y017123D01*
X016908Y017140D02*
X016891Y017140D01*
X016908Y017298D02*
X016858Y017298D01*
X016617Y017735D02*
X016121Y017239D01*
X016121Y014369D01*
X016002Y014251D01*
X015156Y014251D01*
X014636Y013731D01*
X014636Y012790D01*
X014341Y012495D01*
X014719Y012477D02*
X014874Y012632D01*
X014916Y012735D01*
X014916Y013615D01*
X015137Y013836D01*
X015137Y013536D01*
X015418Y013255D01*
X015701Y013255D01*
X015741Y013215D01*
X015418Y013215D01*
X015137Y012934D01*
X015137Y012596D01*
X015052Y012561D01*
X014945Y012454D01*
X014888Y012315D01*
X014888Y012310D01*
X014674Y012310D01*
X014719Y012420D01*
X014719Y012477D01*
X014785Y012543D02*
X015034Y012543D01*
X015137Y012702D02*
X014903Y012702D01*
X014916Y012860D02*
X015137Y012860D01*
X015221Y013019D02*
X014916Y013019D01*
X014916Y013177D02*
X015380Y013177D01*
X015337Y013336D02*
X014916Y013336D01*
X014916Y013494D02*
X015179Y013494D01*
X015137Y013653D02*
X014954Y013653D01*
X015112Y013811D02*
X015137Y013811D01*
X015617Y013735D02*
X016117Y013235D01*
X016117Y010463D01*
X015892Y010239D01*
X015278Y010239D01*
X015006Y009967D01*
X014967Y009928D01*
X015256Y009417D02*
X015418Y009255D01*
X015815Y009255D01*
X015871Y009311D01*
X015856Y009274D01*
X015856Y009175D01*
X015815Y009215D01*
X015418Y009215D01*
X015256Y009054D01*
X015256Y009417D01*
X015256Y009373D02*
X015300Y009373D01*
X015256Y009215D02*
X015417Y009215D01*
X015259Y009056D02*
X015256Y009056D01*
X015816Y009215D02*
X015856Y009215D01*
X016097Y009569D02*
X016097Y009934D01*
X016035Y009995D01*
X016051Y010002D01*
X016130Y010080D01*
X016354Y010305D01*
X016358Y010315D01*
X016418Y010255D01*
X016815Y010255D01*
X016908Y010347D01*
X016908Y010123D01*
X016815Y010215D01*
X016418Y010215D01*
X016137Y009934D01*
X016137Y009609D01*
X016097Y009569D01*
X016097Y009690D02*
X016137Y009690D01*
X016137Y009849D02*
X016097Y009849D01*
X016056Y010007D02*
X016210Y010007D01*
X016215Y010166D02*
X016368Y010166D01*
X016865Y010166D02*
X016908Y010166D01*
X016908Y010324D02*
X016884Y010324D01*
X016908Y011123D02*
X016815Y011215D01*
X016418Y011215D01*
X016397Y011194D01*
X016397Y011276D01*
X016418Y011255D01*
X016815Y011255D01*
X016908Y011347D01*
X016908Y011123D01*
X016908Y011275D02*
X016835Y011275D01*
X016398Y011275D02*
X016397Y011275D01*
X015837Y011275D02*
X015835Y011275D01*
X015837Y011276D02*
X015837Y011194D01*
X015815Y011215D01*
X015656Y011215D01*
X015656Y011255D01*
X015815Y011255D01*
X015837Y011276D01*
X015617Y011735D02*
X015605Y011747D01*
X015644Y012215D02*
X015644Y012255D01*
X015815Y012255D01*
X015837Y012276D01*
X015837Y012194D01*
X015815Y012215D01*
X015644Y012215D01*
X015644Y012226D02*
X015837Y012226D01*
X016397Y012226D02*
X016908Y012226D01*
X016815Y012215D02*
X016418Y012215D01*
X016397Y012194D01*
X016397Y012276D01*
X016418Y012255D01*
X016815Y012255D01*
X016908Y012347D01*
X016908Y012123D01*
X016815Y012215D01*
X016908Y013123D02*
X016815Y013215D01*
X016418Y013215D01*
X016397Y013194D01*
X016397Y013276D01*
X016418Y013255D01*
X016815Y013255D01*
X016908Y013347D01*
X016908Y013123D01*
X016908Y013177D02*
X016854Y013177D01*
X016896Y013336D02*
X016908Y013336D01*
X016908Y014123D02*
X016815Y014215D01*
X016418Y014215D01*
X016137Y013934D01*
X016137Y013611D01*
X016097Y013651D01*
X016097Y013934D01*
X016059Y013971D01*
X016161Y014013D01*
X016279Y014132D01*
X016358Y014210D01*
X016389Y014284D01*
X016418Y014255D01*
X016815Y014255D01*
X016908Y014347D01*
X016908Y014123D01*
X016908Y014128D02*
X016903Y014128D01*
X016908Y014287D02*
X016847Y014287D01*
X016331Y014128D02*
X016276Y014128D01*
X016172Y013970D02*
X016061Y013970D01*
X016097Y013811D02*
X016137Y013811D01*
X016137Y013653D02*
X016097Y013653D01*
X015137Y014604D02*
X014835Y014604D01*
X014835Y014762D02*
X015137Y014762D01*
X015137Y014921D02*
X014841Y014921D01*
X014855Y015079D02*
X015282Y015079D01*
X015277Y015396D02*
X014855Y015396D01*
X014855Y015555D02*
X015137Y015555D01*
X015137Y015713D02*
X014754Y015713D01*
X014759Y015872D02*
X015137Y015872D01*
X015233Y016030D02*
X014751Y016030D01*
X014662Y016189D02*
X015391Y016189D01*
X015326Y016347D02*
X014365Y016347D01*
X014206Y016506D02*
X015167Y016506D01*
X015137Y016664D02*
X010564Y016664D01*
X010564Y016823D02*
X015137Y016823D01*
X015184Y016981D02*
X010564Y016981D01*
X010564Y017140D02*
X015342Y017140D01*
X015426Y017275D02*
X015157Y017545D01*
X015157Y017725D01*
X015607Y017725D01*
X015607Y017275D01*
X015426Y017275D01*
X015403Y017298D02*
X014826Y017298D01*
X015007Y017457D02*
X015245Y017457D01*
X015157Y017615D02*
X015054Y017615D01*
X015032Y017774D02*
X015157Y017774D01*
X015163Y017932D02*
X014923Y017932D01*
X014676Y017645D02*
X013466Y017645D01*
X013306Y017645D01*
X013091Y017860D01*
X013091Y018020D01*
X013455Y018128D02*
X013658Y017925D01*
X013461Y017925D01*
X013469Y017945D01*
X013469Y018095D01*
X013455Y018128D01*
X013469Y018091D02*
X013493Y018091D01*
X013464Y017932D02*
X013651Y017932D01*
X013098Y017457D02*
X010418Y017457D01*
X010547Y017298D02*
X014525Y017298D01*
X014424Y017932D02*
X014428Y017932D01*
X014583Y018091D02*
X015322Y018091D01*
X015607Y018091D02*
X015627Y018091D01*
X015627Y017932D02*
X015607Y017932D01*
X015607Y017774D02*
X015627Y017774D01*
X015627Y017615D02*
X015607Y017615D01*
X015607Y017457D02*
X015627Y017457D01*
X015627Y017298D02*
X015607Y017298D01*
X015830Y017298D02*
X015842Y017298D01*
X016077Y017615D02*
X016101Y017615D01*
X016077Y017774D02*
X016137Y017774D01*
X016137Y017932D02*
X016070Y017932D01*
X015912Y018091D02*
X016293Y018091D01*
X016908Y018249D02*
X014741Y018249D01*
X014843Y018408D02*
X016908Y018408D01*
X016908Y018566D02*
X014843Y018566D01*
X014088Y018883D02*
X013988Y018883D01*
X013988Y019042D02*
X014088Y019042D01*
X014088Y019200D02*
X013988Y019200D01*
X013988Y019359D02*
X014088Y019359D01*
X013574Y019359D02*
X012562Y019359D01*
X012720Y019200D02*
X013416Y019200D01*
X013257Y019042D02*
X012879Y019042D01*
X012894Y018883D02*
X013233Y018883D01*
X012940Y017615D02*
X010260Y017615D01*
X010516Y017932D02*
X011655Y017932D01*
X011496Y018091D02*
X010674Y018091D01*
X010833Y018249D02*
X011338Y018249D01*
X011244Y018408D02*
X010926Y018408D01*
X010926Y018566D02*
X011244Y018566D01*
X011244Y018725D02*
X010926Y018725D01*
X010926Y018883D02*
X011244Y018883D01*
X011260Y019042D02*
X010910Y019042D01*
X010752Y019200D02*
X011419Y019200D01*
X011577Y019359D02*
X010593Y019359D01*
X013412Y016306D02*
X014010Y016306D01*
X014381Y015935D01*
X014359Y015914D01*
X014359Y015273D01*
X014057Y015729D02*
X014012Y015729D01*
X014012Y015836D01*
X014057Y015729D01*
X014835Y014445D02*
X014954Y014445D01*
X014017Y012702D02*
X013898Y012702D01*
X013918Y012682D02*
X013918Y012682D01*
X014705Y012385D02*
X014916Y012385D01*
X016490Y009255D02*
X016815Y009255D01*
X016908Y009347D01*
X016908Y009123D01*
X016815Y009215D01*
X016450Y009215D01*
X016490Y009255D01*
X016816Y009215D02*
X016908Y009215D01*
X016908Y008347D02*
X016908Y008123D01*
X016815Y008215D01*
X016418Y008215D01*
X016356Y008153D01*
X016356Y008317D01*
X016418Y008255D01*
X016815Y008255D01*
X016908Y008347D01*
X016908Y008264D02*
X016824Y008264D01*
X016409Y008264D02*
X016356Y008264D01*
X016356Y007317D02*
X016418Y007255D01*
X016815Y007255D01*
X016908Y007347D01*
X016908Y007123D01*
X016815Y007215D01*
X016418Y007215D01*
X016356Y007153D01*
X016356Y007317D01*
X016356Y007313D02*
X016360Y007313D01*
X016356Y007154D02*
X016357Y007154D01*
X016877Y007154D02*
X016908Y007154D01*
X016908Y007313D02*
X016873Y007313D01*
X016908Y006347D02*
X016908Y006123D01*
X016815Y006215D01*
X016418Y006215D01*
X016356Y006153D01*
X016356Y006317D01*
X016418Y006255D01*
X016815Y006255D01*
X016908Y006347D01*
X016908Y006203D02*
X016828Y006203D01*
X016617Y005735D02*
X016617Y005554D01*
X016671Y005255D02*
X016815Y005255D01*
X016908Y005347D01*
X016908Y005123D01*
X016815Y005215D01*
X016631Y005215D01*
X016671Y005255D01*
X016668Y005252D02*
X016908Y005252D01*
X016406Y006203D02*
X016356Y006203D01*
X015856Y006203D02*
X015828Y006203D01*
X015815Y006215D02*
X015418Y006215D01*
X015188Y005985D01*
X015172Y005985D01*
X015172Y006501D01*
X015418Y006255D01*
X015815Y006255D01*
X015856Y006295D01*
X015856Y006175D01*
X015815Y006215D01*
X015406Y006203D02*
X015172Y006203D01*
X015172Y006045D02*
X015247Y006045D01*
X015311Y006362D02*
X015172Y006362D01*
X013616Y005076D02*
X013557Y005051D01*
X013557Y005135D01*
X013616Y005076D01*
X013599Y005094D02*
X013557Y005094D01*
X013373Y004545D02*
X013219Y004545D01*
X013219Y004430D01*
X013161Y004291D01*
X013055Y004184D01*
X012916Y004127D01*
X012766Y004127D01*
X012627Y004184D01*
X012520Y004291D01*
X012463Y004430D01*
X012463Y004545D01*
X012319Y004545D01*
X012319Y004374D01*
X012281Y004282D01*
X012044Y004044D01*
X012065Y004036D01*
X012136Y003965D01*
X013118Y003965D01*
X013118Y004138D01*
X013434Y004454D01*
X013395Y004493D01*
X013373Y004545D01*
X013428Y004460D02*
X013219Y004460D01*
X013166Y004301D02*
X013281Y004301D01*
X013123Y004143D02*
X012954Y004143D01*
X012728Y004143D02*
X012142Y004143D01*
X012117Y003984D02*
X013118Y003984D01*
X012516Y004301D02*
X012289Y004301D01*
X012319Y004460D02*
X012463Y004460D01*
X012857Y004995D02*
X013010Y004995D01*
X012857Y004995D02*
X013010Y004841D01*
X012207Y005569D02*
X010430Y005569D01*
X010430Y005728D02*
X012207Y005728D01*
X011192Y006679D02*
X009707Y006679D01*
X009727Y006837D02*
X011188Y006837D01*
X011262Y006996D02*
X009727Y006996D01*
X009727Y007154D02*
X011381Y007154D01*
X011638Y007830D02*
X009727Y007830D01*
X009727Y008003D01*
X011811Y008003D01*
X011638Y007830D01*
X011755Y007947D02*
X009727Y007947D01*
X009555Y008175D02*
X008944Y008175D01*
X008884Y008115D01*
X008764Y008115D01*
X008758Y008122D01*
X008687Y008192D01*
X008596Y008230D01*
X008516Y008230D01*
X008585Y008300D01*
X008585Y008653D01*
X008622Y008690D01*
X009555Y008690D01*
X009555Y008175D01*
X009555Y008264D02*
X008549Y008264D01*
X008585Y008422D02*
X009555Y008422D01*
X009555Y008581D02*
X008585Y008581D01*
X006359Y008946D02*
X006357Y008942D01*
X006353Y008946D01*
X006359Y008946D01*
X004715Y009960D02*
X004554Y009960D01*
X004425Y010089D01*
X004485Y010932D02*
X004485Y011257D01*
X004671Y011443D01*
X004671Y011615D01*
X004626Y012237D02*
X004626Y012237D01*
X003785Y011275D02*
X003689Y011275D01*
X003689Y011117D02*
X003785Y011117D01*
X004485Y010932D02*
X004513Y010960D01*
X004941Y010960D01*
X005261Y010950D02*
X005261Y010840D01*
X005770Y010840D01*
X005768Y010845D01*
X005768Y010970D01*
X005628Y010970D01*
X005579Y010950D01*
X005261Y010950D01*
X005599Y010958D02*
X005768Y010958D01*
X006167Y011298D02*
X006167Y011489D01*
X006118Y011538D01*
X006618Y011538D01*
X006677Y011479D01*
X006785Y011434D01*
X006785Y011434D01*
X006728Y011295D01*
X006728Y011145D01*
X006742Y011110D01*
X006476Y011110D01*
X006466Y011134D01*
X006360Y011241D01*
X006221Y011298D01*
X006167Y011298D01*
X006277Y011275D02*
X006728Y011275D01*
X006739Y011117D02*
X006474Y011117D01*
X006167Y011434D02*
X006785Y011434D01*
X006624Y012068D02*
X006147Y012068D01*
X004901Y015238D02*
X004679Y015238D01*
X001386Y014287D02*
X001326Y014287D01*
X001326Y014128D02*
X001331Y014128D01*
X001326Y005252D02*
X003186Y005252D01*
X004754Y004908D02*
X004758Y004904D01*
X003097Y002875D02*
X007110Y002875D01*
X006473Y002241D02*
X001326Y002241D01*
X001326Y004143D02*
X001345Y004143D01*
X001326Y004301D02*
X001372Y004301D01*
X004641Y002082D02*
X005718Y002082D01*
X005560Y001924D02*
X004800Y001924D01*
X004958Y001765D02*
X005401Y001765D01*
X005339Y001607D02*
X005020Y001607D01*
X005020Y001448D02*
X005339Y001448D01*
X005339Y001290D02*
X005020Y001290D01*
X005020Y001131D02*
X005339Y001131D01*
X005386Y000973D02*
X004974Y000973D01*
X004815Y000814D02*
X005544Y000814D01*
X005703Y000656D02*
X004657Y000656D01*
X006625Y000656D02*
X007671Y000656D01*
X007513Y000814D02*
X006784Y000814D01*
X006942Y000973D02*
X007354Y000973D01*
X007307Y001131D02*
X006989Y001131D01*
X006989Y001290D02*
X007307Y001290D01*
X007307Y001448D02*
X006989Y001448D01*
X006989Y001607D02*
X007084Y001607D01*
X007260Y001607D02*
X007307Y001607D01*
X007172Y001979D02*
X007172Y002003D01*
X007550Y002027D02*
X007575Y002052D01*
X007657Y002052D01*
X007550Y001945D01*
X007550Y002027D01*
X008006Y003000D02*
X012106Y003000D01*
X010235Y004623D02*
X010087Y004623D01*
X010077Y004597D01*
X009929Y004450D01*
X010062Y004450D01*
X010235Y004623D01*
X010230Y004618D02*
X010085Y004618D01*
X010072Y004460D02*
X009939Y004460D01*
X008006Y003000D02*
X007886Y003120D01*
X012379Y008571D02*
X012466Y008657D01*
X012412Y008679D01*
X012379Y008712D01*
X012379Y008571D01*
X012379Y008581D02*
X012389Y008581D01*
X011607Y015556D02*
X011555Y015556D01*
X011555Y015556D01*
X011563Y015564D01*
X011610Y015564D01*
X011607Y015556D01*
D11*
X012657Y007865D03*
X012657Y007550D03*
X012657Y007235D03*
X012657Y006920D03*
X012657Y006605D03*
X012657Y006290D03*
X012657Y005975D03*
X012657Y005660D03*
X009277Y005660D03*
X009277Y005975D03*
X009277Y006290D03*
X009277Y006605D03*
X009277Y006920D03*
X009277Y007235D03*
X009277Y007550D03*
X009277Y007865D03*
D12*
X009865Y008453D03*
X010180Y008453D03*
X010495Y008453D03*
X010810Y008453D03*
X011125Y008453D03*
X011440Y008453D03*
X011754Y008453D03*
X012069Y008453D03*
X012069Y005073D03*
X011754Y005073D03*
X011440Y005073D03*
X011125Y005073D03*
X010810Y005073D03*
X010495Y005073D03*
X010180Y005073D03*
X009865Y005073D03*
D13*
X008085Y007507D03*
X008085Y008507D03*
X007085Y008507D03*
X006085Y008507D03*
X006085Y007507D03*
X007085Y007507D03*
D14*
X006169Y009771D03*
X006164Y001361D03*
X008132Y001361D03*
X010101Y001361D03*
X012069Y001361D03*
X014038Y001361D03*
X013943Y003796D03*
X004195Y001361D03*
X004195Y018684D03*
X006164Y018684D03*
X008132Y018684D03*
X010101Y018684D03*
X012069Y018684D03*
X014038Y018684D03*
D15*
X007782Y006015D03*
X006955Y006015D03*
D16*
X005054Y005908D02*
X004454Y005908D01*
X004454Y004908D02*
X005054Y004908D01*
X005054Y003908D02*
X004454Y003908D01*
X004454Y006908D02*
X005054Y006908D01*
X005054Y007908D02*
X004454Y007908D01*
X004454Y008908D02*
X005054Y008908D01*
D17*
X001617Y000735D03*
X015617Y000735D03*
D18*
X016617Y000735D03*
X016617Y001735D03*
X016617Y002735D03*
X016617Y003735D03*
X016617Y004735D03*
X016617Y005735D03*
X016617Y006735D03*
X016617Y007735D03*
X016617Y008735D03*
X016617Y009735D03*
X016617Y010735D03*
X016617Y011735D03*
X016617Y012735D03*
X016617Y013735D03*
X016617Y014735D03*
X016617Y015735D03*
X016617Y016735D03*
X016617Y017735D03*
X015617Y017735D03*
X015617Y016735D03*
X015617Y015735D03*
X015617Y014735D03*
X015617Y013735D03*
X015617Y012735D03*
X015617Y011735D03*
X015617Y010735D03*
X015617Y009735D03*
X015617Y008735D03*
X015617Y007735D03*
X015617Y006735D03*
X015617Y005735D03*
X015617Y004735D03*
X015617Y003735D03*
X015617Y002735D03*
X015617Y001735D03*
X002617Y001735D03*
X002617Y000735D03*
X001617Y001735D03*
X001617Y002735D03*
X001617Y003735D03*
X001617Y004735D03*
X001617Y005735D03*
X001617Y006735D03*
X001617Y007735D03*
X001617Y008735D03*
X001617Y009735D03*
X001617Y010735D03*
X001617Y011735D03*
X001617Y012735D03*
X001617Y013735D03*
X001617Y014735D03*
X001617Y015735D03*
X001617Y016735D03*
X001617Y017735D03*
X002617Y017735D03*
X002617Y016735D03*
X002617Y015735D03*
X002617Y014735D03*
X002617Y013735D03*
X002617Y012735D03*
X002617Y011735D03*
X002617Y010735D03*
X002617Y009735D03*
X002617Y008735D03*
X002617Y007735D03*
X002617Y006735D03*
X002617Y005735D03*
X002617Y004735D03*
X002617Y003735D03*
X002617Y002735D03*
D19*
X014224Y008903D03*
D20*
X012857Y004995D03*
D21*
X012683Y011792D03*
X013283Y011792D03*
X004425Y010089D03*
X003825Y010089D03*
X002736Y018782D03*
X002136Y018782D03*
D22*
X005534Y015788D03*
X005534Y015288D03*
X005534Y014788D03*
X005534Y014288D03*
X005534Y013788D03*
X005534Y013288D03*
X005534Y012788D03*
X005534Y012288D03*
X005534Y011788D03*
X005534Y011288D03*
X009156Y011288D03*
X009156Y011788D03*
X009156Y012288D03*
X009156Y012788D03*
X009156Y013288D03*
X009156Y013788D03*
X009156Y014288D03*
X009156Y014788D03*
X009156Y015288D03*
X009156Y015788D03*
D23*
X004485Y010932D03*
X003737Y010932D03*
D24*
X010992Y013306D03*
X010992Y013806D03*
X010992Y014306D03*
X010992Y014806D03*
X010992Y015306D03*
X010992Y015806D03*
X010992Y016306D03*
X013412Y016306D03*
X013412Y015806D03*
X013412Y015306D03*
X013412Y014806D03*
X013412Y014306D03*
X013412Y013806D03*
X013412Y013306D03*
D25*
X014359Y014525D03*
X014359Y015273D03*
X005786Y006654D03*
X005786Y005906D03*
D26*
X003967Y015086D03*
X003967Y016188D03*
D27*
X014144Y007696D03*
X014144Y006696D03*
X014144Y005696D03*
D28*
X014144Y010633D03*
D29*
X003686Y006180D03*
X003686Y005580D03*
D30*
X006618Y005271D03*
X006618Y006609D03*
X008193Y006609D03*
X008193Y005271D03*
D31*
X007535Y005271D01*
X007406Y005280D01*
X007046Y005640D01*
X006052Y005640D01*
X005786Y005906D01*
X005246Y005400D02*
X005561Y005085D01*
X005561Y004920D01*
X005621Y004860D01*
X006326Y004860D01*
X006506Y004680D01*
X006686Y004680D01*
X006976Y004390D01*
X009516Y004390D01*
X009865Y004739D01*
X009865Y005073D01*
X010180Y005073D02*
X010180Y006062D01*
X010251Y006133D01*
X011003Y006133D01*
X011017Y006119D01*
X011566Y006765D02*
X011576Y006775D01*
X011576Y006995D01*
X012131Y007550D01*
X012657Y007550D01*
X012657Y007865D02*
X012866Y007865D01*
X013091Y008090D01*
X012626Y009000D02*
X012206Y009000D01*
X012069Y008864D01*
X012069Y008453D01*
X011754Y008453D02*
X011754Y009209D01*
X011906Y009360D01*
X011786Y009720D02*
X011440Y009374D01*
X011440Y008453D01*
X011125Y008453D02*
X011125Y009121D01*
X010826Y009420D01*
X011126Y009600D02*
X010946Y009780D01*
X008786Y009780D01*
X008446Y009480D02*
X008282Y009644D01*
X008446Y009480D02*
X010226Y009480D01*
X010810Y008896D01*
X010810Y008453D01*
X010495Y008453D02*
X010495Y008851D01*
X010046Y009300D01*
X007809Y009300D01*
X007559Y009550D01*
X007406Y010020D02*
X007526Y010080D01*
X011186Y010080D01*
X011246Y010020D01*
X011126Y009600D02*
X011426Y009600D01*
X011846Y010020D01*
X011906Y010020D01*
X011786Y009720D02*
X014006Y009720D01*
X014224Y009502D01*
X014224Y008903D01*
X015006Y009967D02*
X015006Y007690D01*
X014520Y007204D01*
X014792Y006743D02*
X014191Y006743D01*
X014792Y006743D02*
X014922Y006613D01*
X014922Y005814D01*
X015000Y005735D01*
X015617Y005735D01*
X016106Y005400D02*
X015866Y005160D01*
X013886Y005160D01*
X013586Y005460D01*
X013586Y005820D01*
X013431Y005975D01*
X012657Y005975D01*
X012657Y005660D02*
X013145Y005660D01*
X013226Y005580D01*
X013226Y005364D01*
X012857Y004995D01*
X012841Y004979D01*
X012841Y004505D01*
X012069Y004424D02*
X011479Y003833D01*
X011479Y003371D01*
X011851Y003715D02*
X013862Y003715D01*
X013943Y003796D01*
X013731Y004692D02*
X013715Y004708D01*
X013731Y004692D02*
X014770Y004692D01*
X015223Y004239D01*
X016022Y004239D01*
X016125Y004341D01*
X016125Y005062D01*
X016617Y005554D01*
X016106Y005400D02*
X016106Y009224D01*
X016617Y009735D01*
X015617Y010735D02*
X014971Y010735D01*
X014486Y011220D01*
X010681Y011220D01*
X010491Y011030D01*
X008406Y011030D01*
X008216Y011220D01*
X007106Y011220D01*
X007526Y010860D02*
X007846Y010860D01*
X007991Y010715D01*
X009191Y010715D01*
X009156Y011288D02*
X010459Y011288D01*
X010581Y011410D01*
X011713Y011410D01*
X011932Y011629D01*
X011932Y011546D01*
X011932Y011629D02*
X012095Y011792D01*
X012683Y011792D01*
X013283Y011792D02*
X013615Y011460D01*
X014546Y011460D01*
X014767Y011239D01*
X015278Y011239D01*
X015617Y011735D02*
X013971Y011735D01*
X013766Y011940D01*
X013766Y012180D01*
X013646Y012300D01*
X012086Y012300D01*
X011541Y011755D01*
X011011Y011755D01*
X010706Y011875D02*
X010619Y011788D01*
X009156Y011788D01*
X008027Y011788D01*
X007900Y011915D01*
X007526Y010860D02*
X006206Y010860D01*
X006146Y010920D01*
X005534Y011788D02*
X006879Y011788D01*
X006891Y011800D01*
X006860Y009120D02*
X006589Y008849D01*
X006589Y008003D01*
X007085Y007507D01*
X007983Y006609D01*
X008193Y006609D01*
X007821Y005975D02*
X009277Y005975D01*
X009277Y005660D02*
X008926Y005660D01*
X008846Y005580D01*
X008846Y005242D01*
X009014Y005074D01*
X010166Y004200D02*
X005606Y004200D01*
X005426Y004380D01*
X003983Y004380D01*
X003931Y004432D01*
X004754Y004908D02*
X005187Y004908D01*
X005551Y004544D01*
X006095Y004544D01*
X005846Y004020D02*
X005066Y003240D01*
X002163Y003240D01*
X002132Y003271D01*
X003866Y005400D02*
X005246Y005400D01*
X005037Y005908D02*
X004754Y005908D01*
X004786Y005940D01*
X005037Y005908D02*
X005786Y005160D01*
X005906Y005160D01*
X005846Y004020D02*
X010286Y004020D01*
X010810Y004544D01*
X010810Y005073D01*
X011125Y005073D02*
X011125Y004499D01*
X010466Y003840D01*
X006296Y003840D01*
X005762Y003306D01*
X005762Y003288D01*
X006350Y003288D02*
X006722Y003660D01*
X010646Y003660D01*
X011440Y004454D01*
X011440Y005073D01*
X011754Y005073D02*
X011754Y004409D01*
X010826Y003480D01*
X007130Y003480D01*
X006938Y003288D01*
X007246Y002660D02*
X006164Y001578D01*
X006164Y001361D01*
X007172Y002003D02*
X007471Y002302D01*
X011817Y002302D01*
X012069Y002050D01*
X012069Y001361D01*
X012106Y003000D02*
X012176Y003070D01*
X012176Y003215D01*
X012911Y003000D02*
X012966Y003055D01*
X012966Y003215D01*
X012069Y004424D02*
X012069Y005073D01*
X010495Y005073D02*
X010495Y004529D01*
X010166Y004200D01*
X008298Y002660D02*
X007246Y002660D01*
X006955Y006015D02*
X006955Y006149D01*
X007406Y006600D01*
X006618Y006609D02*
X005831Y006609D01*
X005786Y006654D01*
X005786Y007080D01*
X005426Y007440D01*
X004046Y007440D01*
X003926Y007560D01*
X003926Y009240D01*
X004406Y009720D01*
X004406Y010071D01*
X004425Y010089D01*
X004754Y008908D02*
X004783Y008880D01*
X005246Y008880D01*
X005546Y008580D01*
X005546Y007620D01*
X005659Y007507D01*
X006085Y007507D01*
X007085Y008507D02*
X007612Y007980D01*
X008546Y007980D01*
X008661Y007865D01*
X009277Y007865D01*
X009277Y007550D02*
X008128Y007550D01*
X008085Y007507D01*
X008085Y008507D02*
X008518Y008940D01*
X009715Y008940D01*
X009865Y008790D01*
X009865Y008453D01*
X010180Y008453D02*
X010180Y008806D01*
X009866Y009120D01*
X006860Y009120D01*
X003686Y006180D02*
X003626Y006240D01*
X002366Y006240D01*
X002126Y006480D01*
X002126Y012060D01*
X002306Y012240D01*
X002966Y012240D01*
X003877Y013156D02*
X003790Y013243D01*
X002109Y013243D01*
X001617Y013735D01*
X004778Y015660D02*
X004906Y015788D01*
X005534Y015788D01*
X006174Y015788D01*
X006261Y015875D01*
X006413Y015288D02*
X006416Y015285D01*
X006413Y015288D02*
X005534Y015288D01*
X007219Y017570D02*
X009951Y017570D01*
X010314Y017208D01*
X010314Y016684D01*
X010321Y016355D01*
X010370Y016306D01*
X010992Y016306D01*
X011300Y015814D02*
X012202Y015814D01*
X012394Y015622D01*
X011936Y015362D02*
X011880Y015306D01*
X010992Y015306D01*
X010992Y014806D02*
X010450Y014806D01*
X010281Y014975D01*
X010281Y015145D01*
X010138Y015288D01*
X009156Y015288D01*
X010636Y012540D02*
X010226Y012130D01*
X010706Y012010D02*
X010876Y012180D01*
X011206Y012180D01*
X010706Y012010D02*
X010706Y011875D01*
X010636Y012540D02*
X013706Y012540D01*
X014006Y012240D01*
X014006Y012120D01*
X014066Y012060D01*
X015086Y012060D01*
X015266Y012240D01*
X012686Y010890D02*
X012536Y010740D01*
X010826Y010740D01*
X014606Y003060D02*
X014546Y003000D01*
X003866Y005400D02*
X003686Y005580D01*
D32*
X003931Y004432D03*
X002132Y003271D03*
X005762Y003288D03*
X006350Y003288D03*
X006938Y003288D03*
X007886Y003120D03*
X008298Y002660D03*
X008904Y002656D03*
X007172Y001979D03*
X006686Y004680D03*
X006095Y004544D03*
X007406Y005280D03*
X007406Y006600D03*
X009014Y005074D03*
X011017Y006119D03*
X011566Y006765D03*
X013091Y008090D03*
X013058Y008652D03*
X012626Y009000D03*
X011906Y009360D03*
X011906Y010020D03*
X011246Y010020D03*
X010826Y009420D03*
X010826Y010740D03*
X011011Y011755D03*
X011206Y012180D03*
X011932Y011629D03*
X012686Y010890D03*
X013315Y010831D03*
X014369Y009928D03*
X015278Y011239D03*
X015266Y012240D03*
X014341Y012495D03*
X012741Y012905D03*
X011936Y015362D03*
X012394Y015622D03*
X014381Y015935D03*
X015086Y015245D03*
X014676Y017645D03*
X013091Y018020D03*
X011101Y019156D03*
X009109Y019156D03*
X007152Y019156D03*
X007219Y017570D03*
X006942Y015912D03*
X006416Y015285D03*
X006261Y015875D03*
X006850Y014723D03*
X008400Y015912D03*
X009821Y014885D03*
X010226Y012130D03*
X009191Y010715D03*
X008282Y009644D03*
X007559Y009550D03*
X007406Y010020D03*
X007526Y010860D03*
X007106Y011220D03*
X006891Y011800D03*
X006146Y010920D03*
X004671Y011615D03*
X004310Y012291D03*
X004701Y012615D03*
X003877Y013156D03*
X002966Y012240D03*
X003191Y010251D03*
X007900Y011915D03*
X004778Y015660D03*
X014520Y007204D03*
X014532Y006208D03*
X013715Y004708D03*
X012841Y004505D03*
X011851Y003715D03*
X011479Y003371D03*
X012176Y003215D03*
X012966Y003215D03*
X014606Y003060D03*
X016136Y003310D03*
D33*
X009694Y012288D02*
X009156Y012288D01*
X009694Y012288D02*
X010311Y012905D01*
X012741Y012905D01*
X012736Y012900D01*
X009821Y014885D02*
X009724Y014788D01*
X009156Y014788D01*
X006850Y014723D02*
X006784Y014788D01*
X005534Y014788D01*
X003967Y016188D02*
X003967Y016944D01*
X004193Y017170D01*
X003156Y016196D02*
X002617Y016735D01*
X003156Y016196D02*
X003156Y015357D01*
X003215Y015298D01*
X003215Y015290D02*
X003420Y015086D01*
X004701Y012615D02*
X005028Y012288D01*
X005534Y012288D01*
X005534Y011288D02*
X005516Y011270D01*
X004941Y011270D01*
X004941Y010960D01*
X004941Y010195D01*
X004946Y010190D01*
X004715Y009960D01*
X004946Y010190D02*
X004947Y010192D01*
X004947Y010440D01*
X003825Y010089D02*
X003353Y010089D01*
X003191Y010251D01*
X002617Y017735D02*
X002136Y018216D01*
X002136Y018782D01*
X002736Y018782D02*
X004097Y018782D01*
X001904Y019511D02*
X001617Y019223D01*
X001617Y017735D01*
X001904Y019511D02*
X007152Y019511D01*
X007152Y019156D01*
X007152Y019511D02*
X008951Y019511D01*
X009109Y019353D01*
X009109Y019156D01*
X008951Y019511D02*
X011089Y019511D01*
X011089Y019282D01*
X011101Y019156D01*
X011089Y019511D02*
X013160Y019511D01*
X014038Y018684D01*
D34*
X009880Y017011D02*
X009880Y015965D01*
X009726Y015810D01*
X009178Y015810D01*
X009156Y015788D01*
X009802Y017089D02*
X004274Y017089D01*
X004128Y017235D02*
X004128Y018617D01*
X002617Y016735D02*
X001617Y017735D01*
D35*
X005534Y014180D02*
X005546Y014180D01*
X005534Y013859D02*
X005546Y013680D01*
D36*
X010956Y006790D03*
X009341Y003100D03*
D37*
X005906Y005160D03*
X008786Y009780D03*
M02*
