G75*
%MOIN*%
%OFA0B0*%
%FSLAX24Y24*%
%IPPOS*%
%LPD*%
%AMOC8*
5,1,8,0,0,1.08239X$1,22.5*
%
%ADD10C,0.0160*%
%ADD11C,0.0060*%
%ADD12OC8,0.0600*%
%ADD13R,0.0480X0.0880*%
%ADD14R,0.1417X0.0866*%
%ADD15OC8,0.1250*%
%ADD16R,0.0787X0.0630*%
%ADD17R,0.0512X0.0591*%
%ADD18C,0.0600*%
%ADD19C,0.0540*%
%ADD20OC8,0.0540*%
%ADD21R,0.0460X0.0630*%
%ADD22R,0.1000X0.0500*%
%ADD23R,0.0630X0.0709*%
%ADD24C,0.0600*%
%ADD25OC8,0.0760*%
%ADD26R,0.0630X0.0460*%
%ADD27R,0.0004X0.0312*%
%ADD28R,0.0004X0.0344*%
%ADD29R,0.0004X0.0368*%
%ADD30R,0.0004X0.0392*%
%ADD31R,0.0004X0.0408*%
%ADD32R,0.0004X0.0424*%
%ADD33R,0.0004X0.0432*%
%ADD34R,0.0004X0.0448*%
%ADD35R,0.0004X0.0456*%
%ADD36R,0.0004X0.0472*%
%ADD37R,0.0004X0.0480*%
%ADD38R,0.0004X0.0488*%
%ADD39R,0.0004X0.0496*%
%ADD40R,0.0004X0.0504*%
%ADD41R,0.0004X0.0512*%
%ADD42R,0.0004X0.0520*%
%ADD43R,0.0004X0.0528*%
%ADD44R,0.0004X0.0536*%
%ADD45R,0.0004X0.0536*%
%ADD46R,0.0004X0.0544*%
%ADD47R,0.0004X0.0552*%
%ADD48R,0.0004X0.0560*%
%ADD49R,0.0004X0.0560*%
%ADD50R,0.0004X0.0568*%
%ADD51R,0.0004X0.0576*%
%ADD52R,0.0004X0.0584*%
%ADD53R,0.0004X0.0592*%
%ADD54R,0.0004X0.0592*%
%ADD55R,0.0004X0.0600*%
%ADD56R,0.0004X0.0608*%
%ADD57R,0.0004X0.0608*%
%ADD58R,0.0004X0.0616*%
%ADD59R,0.0004X0.0624*%
%ADD60R,0.0004X0.0632*%
%ADD61R,0.0004X0.0632*%
%ADD62R,0.0004X0.0640*%
%ADD63R,0.0004X0.0648*%
%ADD64R,0.0004X0.0648*%
%ADD65R,0.0004X0.0656*%
%ADD66R,0.0004X0.0664*%
%ADD67R,0.0004X0.0664*%
%ADD68R,0.0004X0.0672*%
%ADD69R,0.0004X0.0680*%
%ADD70R,0.0004X0.0680*%
%ADD71R,0.0004X0.0688*%
%ADD72R,0.0004X0.0696*%
%ADD73R,0.0004X0.0700*%
%ADD74R,0.0004X0.0708*%
%ADD75R,0.0004X0.0716*%
%ADD76R,0.0004X0.0720*%
%ADD77R,0.0004X0.0720*%
%ADD78R,0.0004X0.0724*%
%ADD79R,0.0004X0.0808*%
%ADD80R,0.0004X0.0824*%
%ADD81R,0.0004X0.0832*%
%ADD82R,0.0004X0.0840*%
%ADD83R,0.0004X0.0848*%
%ADD84R,0.0004X0.0856*%
%ADD85R,0.0004X0.0860*%
%ADD86R,0.0004X0.0864*%
%ADD87R,0.0004X0.0864*%
%ADD88R,0.0004X0.0868*%
%ADD89R,0.0004X0.0872*%
%ADD90R,0.0004X0.0872*%
%ADD91R,0.0004X0.0860*%
%ADD92R,0.0004X0.0832*%
%ADD93R,0.0004X0.0824*%
%ADD94R,0.0004X0.0708*%
%ADD95R,0.0004X0.0712*%
%ADD96R,0.0004X0.0712*%
%ADD97R,0.0004X0.0700*%
%ADD98R,0.0004X0.0696*%
%ADD99R,0.0004X0.0692*%
%ADD100R,0.0004X0.0668*%
%ADD101R,0.0004X0.0660*%
%ADD102R,0.0004X0.0452*%
%ADD103R,0.0004X0.0188*%
%ADD104R,0.0004X0.0448*%
%ADD105R,0.0004X0.0440*%
%ADD106R,0.0004X0.0184*%
%ADD107R,0.0004X0.0432*%
%ADD108R,0.0004X0.0184*%
%ADD109R,0.0004X0.0424*%
%ADD110R,0.0004X0.0412*%
%ADD111R,0.0004X0.0128*%
%ADD112R,0.0004X0.0044*%
%ADD113R,0.0004X0.0400*%
%ADD114R,0.0004X0.0008*%
%ADD115R,0.0004X0.0388*%
%ADD116R,0.0004X0.0132*%
%ADD117R,0.0004X0.0360*%
%ADD118R,0.0004X0.0136*%
%ADD119R,0.0004X0.0340*%
%ADD120R,0.0004X0.0140*%
%ADD121R,0.0004X0.0328*%
%ADD122R,0.0004X0.0144*%
%ADD123R,0.0004X0.0324*%
%ADD124R,0.0004X0.0148*%
%ADD125R,0.0004X0.0320*%
%ADD126R,0.0004X0.0156*%
%ADD127R,0.0004X0.0316*%
%ADD128R,0.0004X0.0176*%
%ADD129R,0.0004X0.0080*%
%ADD130R,0.0004X0.0052*%
%ADD131R,0.0004X0.0380*%
%ADD132R,0.0004X0.0372*%
%ADD133R,0.0004X0.0356*%
%ADD134R,0.0004X0.0004*%
%ADD135R,0.0004X0.0308*%
%ADD136R,0.0004X0.0060*%
%ADD137R,0.0004X0.0240*%
%ADD138R,0.0004X0.0232*%
%ADD139R,0.0004X0.0044*%
%ADD140R,0.0004X0.0164*%
%ADD141R,0.0004X0.0056*%
%ADD142R,0.0004X0.0036*%
%ADD143R,0.0004X0.0156*%
%ADD144R,0.0004X0.0048*%
%ADD145R,0.0004X0.0024*%
%ADD146R,0.0004X0.0036*%
%ADD147R,0.0004X0.0016*%
%ADD148R,0.0004X0.0028*%
%ADD149R,0.0004X0.0012*%
%ADD150R,0.0004X0.0124*%
%ADD151R,0.0004X0.0108*%
%ADD152R,0.0004X0.0008*%
%ADD153R,0.0004X0.0092*%
%ADD154R,0.0004X0.0068*%
%ADD155R,0.0004X0.0008*%
%ADD156R,0.0004X0.0016*%
%ADD157R,0.0004X0.0024*%
%ADD158R,0.0004X0.0032*%
%ADD159R,0.0004X0.0032*%
%ADD160R,0.0004X0.0040*%
%ADD161R,0.0004X0.0056*%
%ADD162R,0.0004X0.0064*%
%ADD163R,0.0004X0.0072*%
%ADD164R,0.0004X0.0088*%
%ADD165R,0.0004X0.0096*%
%ADD166R,0.0004X0.0104*%
%ADD167R,0.0004X0.0112*%
%ADD168R,0.0004X0.0120*%
%ADD169R,0.0004X0.0124*%
%ADD170R,0.0004X0.0128*%
%ADD171R,0.0004X0.0144*%
%ADD172R,0.0004X0.0152*%
%ADD173R,0.0004X0.0152*%
%ADD174R,0.0004X0.0160*%
%ADD175R,0.0004X0.0168*%
%ADD176R,0.0004X0.0176*%
%ADD177R,0.0004X0.0184*%
%ADD178R,0.0004X0.0192*%
%ADD179R,0.0004X0.0200*%
%ADD180R,0.0004X0.0208*%
%ADD181R,0.0004X0.0216*%
%ADD182R,0.0004X0.0216*%
%ADD183R,0.0004X0.0224*%
%ADD184R,0.0004X0.0232*%
%ADD185R,0.0004X0.0240*%
%ADD186R,0.0004X0.0248*%
%ADD187R,0.0004X0.0256*%
%ADD188R,0.0004X0.0264*%
%ADD189R,0.0004X0.0272*%
%ADD190R,0.0004X0.0280*%
%ADD191R,0.0004X0.0288*%
%ADD192R,0.0004X0.0296*%
%ADD193R,0.0004X0.0304*%
%ADD194R,0.0004X0.0320*%
%ADD195R,0.0004X0.0328*%
%ADD196R,0.0004X0.0336*%
%ADD197R,0.0004X0.0336*%
%ADD198R,0.0004X0.0200*%
%ADD199R,0.0004X0.0128*%
%ADD200R,0.0004X0.0204*%
%ADD201R,0.0004X0.0216*%
%ADD202R,0.0004X0.0228*%
%ADD203R,0.0004X0.0416*%
%ADD204R,0.0004X0.0424*%
%ADD205R,0.0004X0.0428*%
%ADD206R,0.0004X0.0304*%
%ADD207R,0.0004X0.0180*%
%ADD208R,0.0004X0.0112*%
%ADD209R,0.0004X0.0176*%
%ADD210R,0.0004X0.0112*%
%ADD211R,0.0004X0.0132*%
%ADD212R,0.0004X0.0116*%
%ADD213R,0.0004X0.0332*%
%ADD214R,0.0004X0.0336*%
%ADD215R,0.0004X0.0480*%
%ADD216R,0.0004X0.0496*%
%ADD217R,0.0004X0.0512*%
%ADD218R,0.0004X0.0544*%
%ADD219R,0.0004X0.0208*%
%ADD220R,0.0004X0.0356*%
%ADD221R,0.0004X0.0208*%
%ADD222R,0.0004X0.0364*%
%ADD223R,0.0004X0.0212*%
%ADD224R,0.0004X0.0368*%
%ADD225R,0.0004X0.0220*%
%ADD226R,0.0004X0.0600*%
%ADD227R,0.0004X0.0356*%
%ADD228R,0.0004X0.0228*%
%ADD229R,0.0004X0.0236*%
%ADD230R,0.0004X0.0360*%
%ADD231R,0.0004X0.0368*%
%ADD232R,0.0004X0.0244*%
%ADD233R,0.0004X0.0252*%
%ADD234R,0.0004X0.0376*%
%ADD235R,0.0004X0.0672*%
%ADD236R,0.0004X0.0624*%
%ADD237R,0.0004X0.0596*%
%ADD238R,0.0004X0.0552*%
%ADD239R,0.0004X0.0456*%
%ADD240R,0.0004X0.0384*%
%ADD241R,0.0004X0.0352*%
%ADD242R,0.0004X0.0188*%
%ADD243R,0.0004X0.0108*%
%ADD244C,0.0376*%
%ADD245C,0.0240*%
%ADD246C,0.0320*%
%ADD247C,0.0100*%
%ADD248C,0.0337*%
D10*
X001046Y000180D02*
X017188Y000180D01*
X017188Y019865D01*
X001046Y019865D01*
X001046Y000180D01*
X001356Y001136D02*
X001356Y001331D01*
X001422Y001265D01*
X001811Y001265D01*
X002087Y001540D01*
X002087Y001930D01*
X001811Y002205D01*
X001422Y002205D01*
X001356Y002139D01*
X001356Y002331D01*
X001422Y002265D01*
X001811Y002265D01*
X002087Y002540D01*
X002087Y002882D01*
X002147Y002882D01*
X002147Y002540D01*
X002422Y002265D01*
X002811Y002265D01*
X003056Y002510D01*
X003056Y002069D01*
X003111Y001937D01*
X003370Y001677D01*
X003370Y001019D01*
X003854Y000536D01*
X004537Y000536D01*
X005020Y001019D01*
X005020Y001703D01*
X004537Y002186D01*
X003880Y002186D01*
X003790Y002275D01*
X004451Y002275D01*
X004569Y002392D01*
X004569Y003267D01*
X004451Y003384D01*
X004334Y003384D01*
X004334Y003417D01*
X004355Y003408D01*
X005154Y003408D01*
X005296Y003467D01*
X005296Y003455D01*
X005325Y003384D01*
X004758Y003384D01*
X004641Y003267D01*
X004641Y002392D01*
X004758Y002275D01*
X005554Y002275D01*
X005671Y002392D01*
X005671Y002843D01*
X005728Y002900D01*
X005840Y002900D01*
X005982Y002959D01*
X006056Y003033D01*
X006056Y003033D01*
X006130Y002959D01*
X006273Y002900D01*
X006427Y002900D01*
X006570Y002959D01*
X006644Y003033D01*
X006718Y002959D01*
X006860Y002900D01*
X007015Y002900D01*
X007157Y002959D01*
X007174Y002975D01*
X007174Y002367D01*
X007095Y002367D01*
X006952Y002308D01*
X006843Y002199D01*
X006784Y002056D01*
X006784Y001908D01*
X006506Y002186D01*
X005822Y002186D01*
X005339Y001703D01*
X005339Y001019D01*
X005822Y000536D01*
X006506Y000536D01*
X006989Y001019D01*
X006989Y001635D01*
X007095Y001591D01*
X007249Y001591D01*
X007307Y001615D01*
X007307Y001019D01*
X007791Y000536D01*
X008474Y000536D01*
X008957Y001019D01*
X008957Y001703D01*
X008914Y001746D01*
X009063Y001895D01*
X009141Y001974D01*
X009184Y002077D01*
X009184Y002388D01*
X009233Y002437D01*
X009292Y002579D01*
X009292Y002734D01*
X009233Y002876D01*
X009124Y002985D01*
X008981Y003044D01*
X008827Y003044D01*
X008684Y002985D01*
X008603Y002904D01*
X008548Y002959D01*
X008548Y003368D01*
X009226Y004047D01*
X009264Y004139D01*
X009264Y004775D01*
X009343Y004854D01*
X009402Y004996D01*
X009402Y005151D01*
X009343Y005294D01*
X009234Y005403D01*
X009092Y005462D01*
X008937Y005462D01*
X008794Y005403D01*
X008685Y005294D01*
X008664Y005242D01*
X008664Y005300D01*
X008168Y005300D01*
X008168Y005454D01*
X008664Y005454D01*
X008664Y005716D01*
X008652Y005761D01*
X008628Y005802D01*
X008595Y005836D01*
X008554Y005860D01*
X008508Y005872D01*
X008168Y005872D01*
X008168Y005454D01*
X008013Y005454D01*
X008013Y005300D01*
X007517Y005300D01*
X007517Y005038D01*
X007529Y004993D01*
X007553Y004952D01*
X007586Y004918D01*
X007627Y004894D01*
X007673Y004882D01*
X008013Y004882D01*
X008013Y005300D01*
X008168Y005300D01*
X008168Y004882D01*
X008508Y004882D01*
X008554Y004894D01*
X008595Y004918D01*
X008628Y004952D01*
X008638Y004968D01*
X008685Y004854D01*
X008764Y004775D01*
X008764Y004292D01*
X008086Y003614D01*
X008048Y003522D01*
X008048Y002959D01*
X007969Y002880D01*
X007910Y002738D01*
X007910Y002583D01*
X007969Y002440D01*
X008078Y002331D01*
X008221Y002272D01*
X008375Y002272D01*
X008518Y002331D01*
X008599Y002413D01*
X008624Y002388D01*
X008624Y002249D01*
X008518Y002142D01*
X008474Y002186D01*
X007791Y002186D01*
X007560Y001955D01*
X007560Y002014D01*
X007636Y002090D01*
X007674Y002181D01*
X007674Y003541D01*
X007636Y003633D01*
X007565Y003703D01*
X007289Y003979D01*
X007318Y006216D01*
X007329Y006212D01*
X007483Y006212D01*
X007497Y006218D01*
X007497Y006082D01*
X007614Y005964D01*
X008567Y005964D01*
X008684Y006082D01*
X008684Y006877D01*
X008567Y006994D01*
X007614Y006994D01*
X007571Y006952D01*
X007483Y006988D01*
X007329Y006988D01*
X007328Y006988D01*
X007329Y007044D01*
X007585Y007300D01*
X007585Y007714D01*
X007292Y008007D01*
X007585Y008300D01*
X007585Y008714D01*
X007335Y008964D01*
X007335Y009225D01*
X007339Y009221D01*
X007482Y009162D01*
X007636Y009162D01*
X007650Y009168D01*
X007650Y008820D01*
X007621Y008750D01*
X007585Y008714D01*
X007585Y008300D01*
X007878Y008007D01*
X008292Y008007D01*
X008585Y008300D01*
X008585Y008714D01*
X008292Y009007D01*
X008150Y009007D01*
X008150Y009278D01*
X008205Y009256D01*
X008360Y009256D01*
X008502Y009315D01*
X008611Y009424D01*
X008622Y009449D01*
X008713Y009412D01*
X008751Y009412D01*
X008751Y009358D01*
X008753Y009356D01*
X008803Y009306D01*
X008751Y009255D01*
X008751Y008897D01*
X008803Y008846D01*
X008751Y008794D01*
X008751Y008604D01*
X008813Y008542D01*
X008751Y008481D01*
X008751Y008217D01*
X008886Y008082D01*
X008959Y008009D01*
X009150Y008009D01*
X009285Y008143D01*
X009285Y008197D01*
X009326Y008155D01*
X009501Y008155D01*
X009501Y008076D01*
X009501Y007841D01*
X009326Y007841D01*
X009311Y007827D01*
X009297Y007841D01*
X009150Y007841D01*
X009150Y007841D01*
X009054Y007841D01*
X008959Y007841D01*
X008854Y007736D01*
X008825Y007707D01*
X008753Y007635D01*
X008751Y007633D01*
X008751Y007539D01*
X008751Y007296D01*
X008771Y007276D01*
X008751Y007256D01*
X008751Y006532D01*
X008802Y006481D01*
X008793Y006477D01*
X008768Y006402D01*
X008733Y006331D01*
X008739Y006314D01*
X008733Y006296D01*
X008768Y006225D01*
X008793Y006151D01*
X008810Y006142D01*
X008818Y006126D01*
X008893Y006101D01*
X009257Y005919D01*
X009438Y005979D01*
X009523Y006149D01*
X009468Y006314D01*
X009511Y006442D01*
X009709Y006244D01*
X009900Y006244D01*
X009915Y006259D01*
X009929Y006244D01*
X010026Y006244D01*
X010193Y006244D01*
X010328Y006379D01*
X010401Y006452D01*
X010401Y006695D01*
X010401Y006789D01*
X010400Y006791D01*
X010303Y006888D01*
X010349Y006934D01*
X010466Y006817D01*
X010470Y006817D01*
X010482Y006805D01*
X010486Y006805D01*
X010494Y006797D01*
X010498Y006797D01*
X010506Y006789D01*
X010510Y006789D01*
X010514Y006785D01*
X010518Y006785D01*
X010522Y006781D01*
X010526Y006781D01*
X010530Y006777D01*
X010534Y006777D01*
X010538Y006773D01*
X010542Y006773D01*
X010546Y006769D01*
X010550Y006769D01*
X010554Y006765D01*
X010558Y006765D01*
X010562Y006761D01*
X010570Y006761D01*
X010574Y006757D01*
X010578Y006757D01*
X010682Y006653D01*
X010690Y006653D01*
X010694Y006649D01*
X010702Y006649D01*
X010880Y006649D01*
X010884Y006649D01*
X010888Y006653D01*
X010896Y006653D01*
X010916Y006673D01*
X011004Y006761D01*
X011012Y006761D01*
X011016Y006765D01*
X011032Y006765D01*
X011149Y006882D01*
X011149Y006946D01*
X011167Y006964D01*
X011178Y006953D01*
X011182Y006953D01*
X011186Y006949D01*
X011194Y006941D01*
X011198Y006941D01*
X011206Y006933D01*
X011210Y006929D01*
X011214Y006929D01*
X011226Y006917D01*
X011230Y006917D01*
X011242Y006905D01*
X011246Y006905D01*
X011258Y006893D01*
X011262Y006893D01*
X011274Y006881D01*
X011278Y006881D01*
X011286Y006873D01*
X011290Y006869D01*
X011294Y006869D01*
X011302Y006861D01*
X011306Y006857D01*
X011310Y006857D01*
X011318Y006849D01*
X011322Y006849D01*
X011326Y006845D01*
X011334Y006837D01*
X011338Y006837D01*
X011346Y006829D01*
X011350Y006825D01*
X011354Y006825D01*
X011366Y006813D01*
X011370Y006813D01*
X011382Y006801D01*
X011386Y006801D01*
X011398Y006789D01*
X011402Y006789D01*
X011406Y006785D01*
X011414Y006777D01*
X011418Y006777D01*
X011426Y006769D01*
X011430Y006765D01*
X011434Y006765D01*
X011446Y006753D01*
X011450Y006753D01*
X011458Y006745D01*
X011596Y006745D01*
X011596Y005069D01*
X011579Y005029D01*
X011579Y004929D01*
X011617Y004838D01*
X011688Y004767D01*
X012280Y004175D01*
X012280Y004063D01*
X012293Y004032D01*
X011748Y004032D01*
X010737Y005043D01*
X010737Y005590D01*
X010816Y005669D01*
X010875Y005811D01*
X010875Y005966D01*
X010816Y006109D01*
X010707Y006218D01*
X010564Y006277D01*
X010410Y006277D01*
X010267Y006218D01*
X010158Y006109D01*
X010099Y005966D01*
X010099Y005846D01*
X010047Y005846D01*
X010047Y005846D01*
X010035Y005846D01*
X010035Y005952D01*
X009900Y006087D01*
X009636Y006087D01*
X009501Y005952D01*
X009501Y005688D01*
X009636Y005553D01*
X009501Y005418D01*
X009501Y004293D01*
X009553Y004242D01*
X009501Y004190D01*
X009501Y003770D01*
X009526Y003745D01*
X009501Y003720D01*
X009501Y003624D01*
X009501Y003383D01*
X009636Y003248D01*
X009709Y003175D01*
X010193Y003175D01*
X010328Y003309D01*
X010401Y003383D01*
X010401Y003626D01*
X010401Y003720D01*
X010400Y003722D01*
X010256Y003865D01*
X010267Y003865D01*
X010401Y004000D01*
X010401Y004190D01*
X010350Y004242D01*
X010401Y004293D01*
X010401Y004484D01*
X010298Y004587D01*
X010392Y004681D01*
X011340Y003733D01*
X011259Y003700D01*
X011150Y003591D01*
X011091Y003448D01*
X011091Y003336D01*
X009941Y002186D01*
X009759Y002186D01*
X009276Y001703D01*
X009276Y001019D01*
X009759Y000536D01*
X010443Y000536D01*
X010926Y001019D01*
X010926Y001703D01*
X010545Y002084D01*
X011444Y002983D01*
X011556Y002983D01*
X011699Y003042D01*
X011808Y003151D01*
X011867Y003294D01*
X011867Y003448D01*
X011832Y003532D01*
X013158Y003532D01*
X013158Y003409D01*
X013641Y002926D01*
X014325Y002926D01*
X014808Y003409D01*
X014808Y004093D01*
X014325Y004576D01*
X014081Y004576D01*
X014103Y004630D01*
X014103Y004785D01*
X014044Y004927D01*
X013935Y005037D01*
X013792Y005096D01*
X013681Y005096D01*
X013461Y005315D01*
X013461Y005848D01*
X013479Y005830D01*
X013644Y005665D01*
X013644Y005596D01*
X013720Y005413D01*
X013861Y005272D01*
X014045Y005196D01*
X014244Y005196D01*
X014427Y005272D01*
X014568Y005413D01*
X014644Y005596D01*
X014644Y005795D01*
X014568Y005979D01*
X014427Y006120D01*
X014244Y006196D01*
X014427Y006272D01*
X014568Y006413D01*
X014644Y006596D01*
X014644Y006795D01*
X014630Y006829D01*
X014740Y006875D01*
X014849Y006984D01*
X014908Y007126D01*
X014908Y007281D01*
X014849Y007423D01*
X014740Y007533D01*
X014636Y007576D01*
X014644Y007596D01*
X014644Y007795D01*
X014568Y007979D01*
X014427Y008120D01*
X014355Y008150D01*
X014372Y008150D01*
X014372Y008577D01*
X014468Y008577D01*
X014468Y008673D01*
X014856Y008673D01*
X014856Y008944D01*
X014843Y008990D01*
X014820Y009031D01*
X014786Y009064D01*
X014745Y009088D01*
X014699Y009100D01*
X014468Y009100D01*
X014468Y008673D01*
X014372Y008673D01*
X014372Y009100D01*
X014252Y009100D01*
X014252Y009416D01*
X014377Y009540D01*
X014446Y009540D01*
X014588Y009599D01*
X014698Y009708D01*
X014757Y009851D01*
X014757Y010005D01*
X014698Y010148D01*
X014588Y010257D01*
X014569Y010265D01*
X014704Y010401D01*
X014704Y010613D01*
X014164Y010613D01*
X014164Y010653D01*
X014124Y010653D01*
X014124Y011193D01*
X013912Y011193D01*
X013841Y011121D01*
X013841Y011240D01*
X014474Y011240D01*
X014591Y011357D01*
X014591Y012153D01*
X014569Y012174D01*
X014670Y012275D01*
X014729Y012418D01*
X014729Y012572D01*
X014670Y012715D01*
X014615Y012770D01*
X014669Y012825D01*
X014712Y012927D01*
X014712Y015624D01*
X014761Y015673D01*
X014820Y015815D01*
X014820Y015970D01*
X014761Y016112D01*
X014707Y016166D01*
X014737Y016196D01*
X014761Y016237D01*
X014773Y016283D01*
X014773Y016707D01*
X014393Y016707D01*
X014393Y016787D01*
X014313Y016787D01*
X014313Y017366D01*
X014090Y017366D01*
X014044Y017354D01*
X014003Y017331D01*
X013969Y017297D01*
X013946Y017256D01*
X013933Y017210D01*
X013933Y016787D01*
X014313Y016787D01*
X014313Y016707D01*
X013933Y016707D01*
X013933Y016283D01*
X013946Y016237D01*
X013969Y016196D01*
X014003Y016163D01*
X014044Y016139D01*
X014090Y016127D01*
X014117Y016127D01*
X014103Y016112D01*
X014044Y015970D01*
X014044Y015815D01*
X014103Y015673D01*
X014152Y015624D01*
X014152Y014939D01*
X013763Y014939D01*
X013763Y016107D01*
X013766Y016107D01*
X013883Y016224D01*
X013883Y017269D01*
X013766Y017386D01*
X013758Y017386D01*
X013715Y017491D01*
X013625Y017581D01*
X013625Y017581D01*
X012879Y018327D01*
X012894Y018342D01*
X012894Y019026D01*
X012411Y019509D01*
X011728Y019509D01*
X011244Y019026D01*
X011244Y018342D01*
X011728Y017859D01*
X012411Y017859D01*
X012427Y017874D01*
X013017Y017283D01*
X013003Y017269D01*
X013003Y016371D01*
X012974Y016401D01*
X012974Y017269D01*
X012856Y017386D01*
X012211Y017386D01*
X012094Y017269D01*
X012094Y016224D01*
X012211Y016107D01*
X012561Y016107D01*
X012659Y016009D01*
X012554Y015966D01*
X012475Y015886D01*
X012470Y015891D01*
X012328Y015950D01*
X012173Y015950D01*
X012031Y015891D01*
X011921Y015782D01*
X011862Y015639D01*
X011862Y015527D01*
X011507Y015172D01*
X011469Y015080D01*
X011469Y014890D01*
X011420Y014939D01*
X010948Y014939D01*
X010948Y016107D01*
X010951Y016107D01*
X011068Y016224D01*
X011068Y017269D01*
X010951Y017386D01*
X010948Y017386D01*
X010948Y018220D01*
X010906Y018322D01*
X010926Y018342D01*
X010926Y019026D01*
X010443Y019509D01*
X009759Y019509D01*
X009276Y019026D01*
X009276Y018342D01*
X009759Y017859D01*
X010308Y017859D01*
X010308Y017386D01*
X010306Y017386D01*
X010189Y017269D01*
X010189Y016224D01*
X010306Y016107D01*
X010308Y016107D01*
X010308Y015753D01*
X010217Y015753D01*
X010074Y015694D01*
X009965Y015585D01*
X009906Y015442D01*
X009906Y015288D01*
X009965Y015145D01*
X010074Y015036D01*
X010217Y014977D01*
X010308Y014977D01*
X010308Y014939D01*
X009837Y014939D01*
X009720Y014822D01*
X009720Y013790D01*
X009837Y013673D01*
X011420Y013673D01*
X011469Y013722D01*
X011469Y013542D01*
X011458Y013553D01*
X010232Y013553D01*
X010115Y013436D01*
X010115Y012808D01*
X009969Y012808D01*
X009826Y012749D01*
X009717Y012640D01*
X009658Y012497D01*
X009658Y012379D01*
X009624Y012298D01*
X009624Y011892D01*
X009476Y011892D01*
X009359Y011775D01*
X009359Y011241D01*
X009343Y011248D01*
X009189Y011248D01*
X009046Y011189D01*
X009036Y011179D01*
X009036Y013336D01*
X009167Y013468D01*
X009238Y013538D01*
X009276Y013630D01*
X009276Y015316D01*
X009887Y015928D01*
X009958Y015998D01*
X009996Y016090D01*
X009996Y016107D01*
X010041Y016107D01*
X010159Y016224D01*
X010159Y017269D01*
X010041Y017386D01*
X009396Y017386D01*
X009279Y017269D01*
X009279Y016224D01*
X009377Y016125D01*
X008976Y015724D01*
X008976Y015798D01*
X008938Y015890D01*
X008753Y016074D01*
X008729Y016132D01*
X008719Y016142D01*
X008900Y016142D01*
X008946Y016155D01*
X008987Y016178D01*
X009021Y016212D01*
X009044Y016253D01*
X009057Y016299D01*
X009057Y016722D01*
X008677Y016722D01*
X008677Y016802D01*
X009057Y016802D01*
X009057Y017226D01*
X009044Y017272D01*
X009021Y017313D01*
X008987Y017346D01*
X008946Y017370D01*
X008900Y017382D01*
X008677Y017382D01*
X008677Y016802D01*
X008597Y016802D01*
X008597Y016722D01*
X008217Y016722D01*
X008217Y016299D01*
X008227Y016261D01*
X008180Y016241D01*
X008071Y016132D01*
X008047Y016074D01*
X008047Y016122D01*
X008050Y016122D01*
X008167Y016239D01*
X008167Y017285D01*
X008050Y017402D01*
X008047Y017402D01*
X008047Y017859D01*
X008474Y017859D01*
X008957Y018342D01*
X008957Y019026D01*
X008474Y019509D01*
X007791Y019509D01*
X007307Y019026D01*
X007307Y018342D01*
X007407Y018243D01*
X007407Y017912D01*
X007296Y017958D01*
X007142Y017958D01*
X006999Y017899D01*
X006890Y017790D01*
X006831Y017647D01*
X006831Y017493D01*
X006868Y017402D01*
X006494Y017402D01*
X006377Y017285D01*
X006377Y016574D01*
X006343Y016588D01*
X006189Y016588D01*
X006139Y016568D01*
X006139Y016738D01*
X005759Y016738D01*
X005759Y016158D01*
X005878Y016158D01*
X005878Y016123D01*
X005896Y016079D01*
X005896Y012629D01*
X005855Y012670D01*
X005076Y012670D01*
X005127Y012792D01*
X005127Y012946D01*
X005068Y013089D01*
X005059Y013098D01*
X005059Y013705D01*
X005601Y013705D01*
X005718Y013822D01*
X005718Y014854D01*
X005601Y014971D01*
X005571Y014971D01*
X005571Y015984D01*
X005522Y016101D01*
X005465Y016158D01*
X005679Y016158D01*
X005679Y016738D01*
X005299Y016738D01*
X005299Y016324D01*
X005250Y016374D01*
X005250Y017226D01*
X005313Y017290D01*
X005312Y017287D01*
X005299Y017242D01*
X005299Y016818D01*
X005679Y016818D01*
X005679Y016738D01*
X005759Y016738D01*
X005759Y016818D01*
X005679Y016818D01*
X005679Y017398D01*
X005456Y017398D01*
X005410Y017386D01*
X005407Y017384D01*
X005882Y017859D01*
X006506Y017859D01*
X006989Y018342D01*
X006989Y019026D01*
X006506Y019509D01*
X005822Y019509D01*
X005339Y019026D01*
X005339Y018342D01*
X005400Y018282D01*
X004628Y017510D01*
X004538Y017420D01*
X004537Y017418D01*
X004487Y017418D01*
X004370Y017301D01*
X004370Y016255D01*
X004487Y016138D01*
X004580Y016138D01*
X004679Y016039D01*
X004558Y015989D01*
X004497Y015929D01*
X004180Y015929D01*
X004180Y016138D01*
X004223Y016138D01*
X004340Y016255D01*
X004340Y017301D01*
X004223Y017418D01*
X003776Y017418D01*
X003776Y017937D01*
X003854Y017859D01*
X004537Y017859D01*
X005020Y018342D01*
X005020Y019026D01*
X004537Y019509D01*
X003854Y019509D01*
X003672Y019327D01*
X003347Y019327D01*
X003347Y019365D01*
X003230Y019482D01*
X002004Y019482D01*
X001887Y019365D01*
X001887Y018570D01*
X001957Y018500D01*
X001957Y018499D01*
X002011Y018367D01*
X002113Y018265D01*
X002297Y018081D01*
X002147Y017930D01*
X002147Y017540D01*
X002422Y017265D01*
X002811Y017265D01*
X003056Y017510D01*
X003056Y016932D01*
X002803Y017185D01*
X002627Y017185D01*
X002627Y016745D01*
X002607Y016745D01*
X002607Y017185D01*
X002430Y017185D01*
X002167Y016922D01*
X002167Y016745D01*
X002607Y016745D01*
X002607Y016725D01*
X002627Y016725D01*
X002627Y016285D01*
X002803Y016285D01*
X003056Y016538D01*
X003056Y015961D01*
X002811Y016205D01*
X002422Y016205D01*
X002147Y015930D01*
X002147Y015540D01*
X002422Y015265D01*
X002811Y015265D01*
X003056Y015510D01*
X003056Y014961D01*
X002811Y015205D01*
X002422Y015205D01*
X002147Y014930D01*
X002147Y014540D01*
X002422Y014265D01*
X002811Y014265D01*
X003056Y014510D01*
X003056Y013961D01*
X002811Y014205D01*
X002422Y014205D01*
X002147Y013930D01*
X002147Y013540D01*
X002422Y013265D01*
X002733Y013265D01*
X002836Y013162D01*
X002836Y013152D01*
X002803Y013185D01*
X002627Y013185D01*
X002627Y012745D01*
X002607Y012745D01*
X002607Y013185D01*
X002430Y013185D01*
X002167Y012922D01*
X002167Y012745D01*
X002607Y012745D01*
X002607Y012725D01*
X002167Y012725D01*
X002167Y012581D01*
X002087Y012661D01*
X002087Y012930D01*
X001811Y013205D01*
X001422Y013205D01*
X001356Y013139D01*
X001356Y013331D01*
X001422Y013265D01*
X001811Y013265D01*
X002087Y013540D01*
X002087Y013930D01*
X001811Y014205D01*
X001422Y014205D01*
X001356Y014139D01*
X001356Y014331D01*
X001422Y014265D01*
X001811Y014265D01*
X002087Y014540D01*
X002087Y014930D01*
X001811Y015205D01*
X001422Y015205D01*
X001356Y015139D01*
X001356Y015331D01*
X001422Y015265D01*
X001811Y015265D01*
X002087Y015540D01*
X002087Y015930D01*
X001811Y016205D01*
X001422Y016205D01*
X001356Y016139D01*
X001356Y016331D01*
X001422Y016265D01*
X001811Y016265D01*
X002087Y016540D01*
X002087Y016930D01*
X001811Y017205D01*
X001422Y017205D01*
X001356Y017139D01*
X001356Y017360D01*
X001430Y017285D01*
X001607Y017285D01*
X001607Y017725D01*
X001627Y017725D01*
X001627Y017745D01*
X002067Y017745D01*
X002067Y017922D01*
X001803Y018185D01*
X001627Y018185D01*
X001627Y017745D01*
X001607Y017745D01*
X001607Y018185D01*
X001430Y018185D01*
X001356Y018111D01*
X001356Y019555D01*
X016878Y019555D01*
X016878Y018139D01*
X016811Y018205D01*
X016422Y018205D01*
X016147Y017930D01*
X016147Y017540D01*
X016422Y017265D01*
X016811Y017265D01*
X016878Y017331D01*
X016878Y017139D01*
X016811Y017205D01*
X016422Y017205D01*
X016147Y016930D01*
X016147Y016540D01*
X016422Y016265D01*
X016811Y016265D01*
X016878Y016331D01*
X016878Y016139D01*
X016811Y016205D01*
X016422Y016205D01*
X016147Y015930D01*
X016147Y015540D01*
X016422Y015265D01*
X016811Y015265D01*
X016878Y015331D01*
X016878Y015139D01*
X016811Y015205D01*
X016422Y015205D01*
X016147Y014930D01*
X016147Y014540D01*
X016422Y014265D01*
X016811Y014265D01*
X016878Y014331D01*
X016878Y014139D01*
X016811Y014205D01*
X016422Y014205D01*
X016147Y013930D01*
X016147Y013540D01*
X016422Y013265D01*
X016811Y013265D01*
X016878Y013331D01*
X016878Y013139D01*
X016811Y013205D01*
X016422Y013205D01*
X016147Y012930D01*
X016147Y012540D01*
X016164Y012523D01*
X016069Y012523D01*
X016087Y012540D01*
X016087Y012930D01*
X015811Y013205D01*
X015422Y013205D01*
X015147Y012930D01*
X015147Y012611D01*
X015046Y012569D01*
X014937Y012460D01*
X014878Y012317D01*
X014878Y012163D01*
X014937Y012020D01*
X015046Y011911D01*
X015147Y011869D01*
X015147Y011605D01*
X015058Y011568D01*
X014949Y011459D01*
X014890Y011316D01*
X014890Y011162D01*
X014949Y011019D01*
X015058Y010910D01*
X015147Y010873D01*
X015147Y010540D01*
X015422Y010265D01*
X015793Y010265D01*
X015733Y010205D01*
X015422Y010205D01*
X015147Y009930D01*
X015147Y009540D01*
X015422Y009265D01*
X015811Y009265D01*
X016087Y009540D01*
X016087Y009852D01*
X016147Y009912D01*
X016147Y009540D01*
X016422Y009265D01*
X016811Y009265D01*
X016878Y009331D01*
X016878Y009139D01*
X016811Y009205D01*
X016422Y009205D01*
X016147Y008930D01*
X016147Y008661D01*
X016087Y008601D01*
X016087Y008930D01*
X015811Y009205D01*
X015422Y009205D01*
X015147Y008930D01*
X015147Y008540D01*
X015422Y008265D01*
X015811Y008265D01*
X015856Y008310D01*
X015856Y008132D01*
X015803Y008185D01*
X015627Y008185D01*
X015627Y007745D01*
X015607Y007745D01*
X015607Y008185D01*
X015430Y008185D01*
X015167Y007922D01*
X015167Y007745D01*
X015607Y007745D01*
X015607Y007725D01*
X015627Y007725D01*
X015627Y007285D01*
X015803Y007285D01*
X015856Y007338D01*
X015856Y007160D01*
X015811Y007205D01*
X015422Y007205D01*
X015147Y006930D01*
X015147Y006540D01*
X015422Y006265D01*
X015811Y006265D01*
X015856Y006310D01*
X015856Y006160D01*
X015811Y006205D01*
X015422Y006205D01*
X015147Y005930D01*
X015147Y005540D01*
X015422Y005265D01*
X015811Y005265D01*
X015856Y005310D01*
X015856Y005160D01*
X015811Y005205D01*
X015422Y005205D01*
X015147Y004930D01*
X015147Y004540D01*
X015422Y004265D01*
X015811Y004265D01*
X015856Y004310D01*
X015856Y004160D01*
X015811Y004205D01*
X015422Y004205D01*
X015147Y003930D01*
X015147Y003540D01*
X015422Y003265D01*
X015748Y003265D01*
X015748Y003233D01*
X015760Y003205D01*
X015422Y003205D01*
X015147Y002930D01*
X015147Y002540D01*
X015422Y002265D01*
X015811Y002265D01*
X016087Y002540D01*
X016087Y002922D01*
X016147Y002922D01*
X016147Y002540D01*
X016422Y002265D01*
X016811Y002265D01*
X016878Y002331D01*
X016878Y002139D01*
X016811Y002205D01*
X016422Y002205D01*
X016147Y001930D01*
X016147Y001540D01*
X016422Y001265D01*
X016811Y001265D01*
X016878Y001331D01*
X016878Y001139D01*
X016811Y001205D01*
X016422Y001205D01*
X016147Y000930D01*
X016147Y000540D01*
X016197Y000490D01*
X016024Y000490D01*
X016087Y000642D01*
X016087Y000829D01*
X016015Y001001D01*
X015883Y001134D01*
X015710Y001205D01*
X015523Y001205D01*
X015350Y001134D01*
X015218Y001001D01*
X015147Y000829D01*
X015147Y000642D01*
X015209Y000490D01*
X003036Y000490D01*
X003087Y000540D01*
X003087Y000930D01*
X002811Y001205D01*
X002422Y001205D01*
X002147Y000930D01*
X002147Y000540D01*
X002197Y000490D01*
X002024Y000490D01*
X002087Y000642D01*
X002087Y000829D01*
X002015Y001001D01*
X001883Y001134D01*
X001710Y001205D01*
X001523Y001205D01*
X001356Y001136D01*
X001356Y001290D02*
X001398Y001290D01*
X001836Y001290D02*
X002398Y001290D01*
X002422Y001265D02*
X002811Y001265D01*
X003087Y001540D01*
X003087Y001930D01*
X002811Y002205D01*
X002422Y002205D01*
X002147Y001930D01*
X002147Y001540D01*
X002422Y001265D01*
X002348Y001131D02*
X001885Y001131D01*
X002027Y000973D02*
X002189Y000973D01*
X002147Y000814D02*
X002087Y000814D01*
X002087Y000656D02*
X002147Y000656D01*
X002190Y000497D02*
X002027Y000497D01*
X002885Y001131D02*
X003370Y001131D01*
X003370Y001290D02*
X002836Y001290D01*
X002994Y001448D02*
X003370Y001448D01*
X003370Y001607D02*
X003087Y001607D01*
X003087Y001765D02*
X003282Y001765D01*
X003124Y001924D02*
X003087Y001924D01*
X003056Y002082D02*
X002934Y002082D01*
X003056Y002241D02*
X001356Y002241D01*
X001934Y002082D02*
X002299Y002082D01*
X002147Y001924D02*
X002087Y001924D01*
X002087Y001765D02*
X002147Y001765D01*
X002147Y001607D02*
X002087Y001607D01*
X001994Y001448D02*
X002239Y001448D01*
X003044Y000973D02*
X003417Y000973D01*
X003576Y000814D02*
X003087Y000814D01*
X003087Y000656D02*
X003734Y000656D01*
X003043Y000497D02*
X015207Y000497D01*
X015147Y000656D02*
X014471Y000656D01*
X014371Y000556D02*
X014843Y001028D01*
X014843Y001311D01*
X014088Y001311D01*
X014088Y000556D01*
X014371Y000556D01*
X014088Y000656D02*
X013988Y000656D01*
X013988Y000556D02*
X013704Y000556D01*
X013233Y001028D01*
X013233Y001311D01*
X013988Y001311D01*
X014088Y001311D01*
X014088Y001411D01*
X014843Y001411D01*
X014843Y001695D01*
X014371Y002166D01*
X014088Y002166D01*
X014088Y001411D01*
X013988Y001411D01*
X013988Y001311D01*
X013988Y000556D01*
X013988Y000814D02*
X014088Y000814D01*
X014088Y000973D02*
X013988Y000973D01*
X013988Y001131D02*
X014088Y001131D01*
X014088Y001290D02*
X013988Y001290D01*
X013988Y001411D02*
X013233Y001411D01*
X013233Y001695D01*
X013704Y002166D01*
X013988Y002166D01*
X013988Y001411D01*
X013988Y001448D02*
X014088Y001448D01*
X014088Y001607D02*
X013988Y001607D01*
X013988Y001765D02*
X014088Y001765D01*
X014088Y001924D02*
X013988Y001924D01*
X013988Y002082D02*
X014088Y002082D01*
X014455Y002082D02*
X015299Y002082D01*
X015422Y002205D02*
X015147Y001930D01*
X015147Y001540D01*
X015422Y001265D01*
X015811Y001265D01*
X016087Y001540D01*
X016087Y001930D01*
X015811Y002205D01*
X015422Y002205D01*
X015288Y002399D02*
X010861Y002399D01*
X011019Y002558D02*
X015147Y002558D01*
X015147Y002716D02*
X011178Y002716D01*
X011336Y002875D02*
X015147Y002875D01*
X015250Y003033D02*
X014432Y003033D01*
X014590Y003192D02*
X015408Y003192D01*
X015337Y003350D02*
X014749Y003350D01*
X014808Y003509D02*
X015179Y003509D01*
X015147Y003667D02*
X014808Y003667D01*
X014808Y003826D02*
X015147Y003826D01*
X015201Y003984D02*
X014808Y003984D01*
X014758Y004143D02*
X015359Y004143D01*
X015386Y004301D02*
X014599Y004301D01*
X014441Y004460D02*
X015228Y004460D01*
X015147Y004618D02*
X014098Y004618D01*
X014103Y004777D02*
X015147Y004777D01*
X015152Y004935D02*
X014037Y004935D01*
X013798Y005094D02*
X015310Y005094D01*
X015277Y005411D02*
X014566Y005411D01*
X014633Y005569D02*
X015147Y005569D01*
X015147Y005728D02*
X014644Y005728D01*
X014607Y005886D02*
X015147Y005886D01*
X015261Y006045D02*
X014503Y006045D01*
X014532Y006208D02*
X014798Y006208D01*
X014841Y006164D01*
X014845Y006247D02*
X014841Y006251D01*
X014517Y006362D02*
X015326Y006362D01*
X015420Y006203D02*
X014261Y006203D01*
X014244Y006196D02*
X014045Y006196D01*
X013871Y006268D01*
X013871Y006146D01*
X013886Y006130D01*
X014045Y006196D01*
X014244Y006196D01*
X014027Y006203D02*
X013871Y006203D01*
X013582Y005728D02*
X013461Y005728D01*
X013461Y005569D02*
X013656Y005569D01*
X013722Y005411D02*
X013461Y005411D01*
X013524Y005252D02*
X013909Y005252D01*
X014380Y005252D02*
X015856Y005252D01*
X016416Y005252D02*
X016878Y005252D01*
X016811Y005265D02*
X016878Y005331D01*
X016878Y005139D01*
X016811Y005205D01*
X016422Y005205D01*
X016416Y005199D01*
X016416Y005271D01*
X016422Y005265D01*
X016811Y005265D01*
X016878Y006139D02*
X016811Y006205D01*
X016422Y006205D01*
X016416Y006199D01*
X016416Y006271D01*
X016422Y006265D01*
X016811Y006265D01*
X016878Y006331D01*
X016878Y006139D01*
X016878Y006203D02*
X016813Y006203D01*
X016420Y006203D02*
X016416Y006203D01*
X015856Y006203D02*
X015813Y006203D01*
X015167Y006520D02*
X014613Y006520D01*
X014644Y006679D02*
X015147Y006679D01*
X015147Y006837D02*
X014649Y006837D01*
X014854Y006996D02*
X015212Y006996D01*
X015371Y007154D02*
X014908Y007154D01*
X014895Y007313D02*
X015403Y007313D01*
X015430Y007285D02*
X015607Y007285D01*
X015607Y007725D01*
X015167Y007725D01*
X015167Y007549D01*
X015430Y007285D01*
X015607Y007313D02*
X015627Y007313D01*
X015627Y007471D02*
X015607Y007471D01*
X015607Y007630D02*
X015627Y007630D01*
X015617Y007735D02*
X014869Y007735D01*
X014841Y007708D01*
X014644Y007630D02*
X015167Y007630D01*
X015167Y007788D02*
X014644Y007788D01*
X014582Y007947D02*
X015192Y007947D01*
X015350Y008105D02*
X014442Y008105D01*
X014468Y008150D02*
X014699Y008150D01*
X014745Y008162D01*
X014786Y008186D01*
X014820Y008219D01*
X014843Y008260D01*
X014856Y008306D01*
X014856Y008577D01*
X014468Y008577D01*
X014468Y008150D01*
X014468Y008264D02*
X014372Y008264D01*
X014372Y008422D02*
X014468Y008422D01*
X014468Y008581D02*
X015147Y008581D01*
X015147Y008739D02*
X014856Y008739D01*
X014825Y008625D02*
X014841Y008609D01*
X014825Y008625D02*
X014420Y008625D01*
X014786Y008625D01*
X014794Y008617D01*
X014774Y008578D02*
X014420Y008625D01*
X014372Y008739D02*
X014468Y008739D01*
X014468Y008898D02*
X014372Y008898D01*
X014372Y009056D02*
X014468Y009056D01*
X014252Y009215D02*
X016878Y009215D01*
X016617Y008735D02*
X016136Y008255D01*
X016136Y003310D01*
X016524Y003265D02*
X016811Y003265D01*
X016878Y003331D01*
X016878Y003139D01*
X016811Y003205D01*
X016513Y003205D01*
X016524Y003233D01*
X016524Y003265D01*
X016825Y003192D02*
X016878Y003192D01*
X016147Y002875D02*
X016087Y002875D01*
X016087Y002716D02*
X016147Y002716D01*
X016147Y002558D02*
X016087Y002558D01*
X015945Y002399D02*
X016288Y002399D01*
X016299Y002082D02*
X015934Y002082D01*
X016087Y001924D02*
X016147Y001924D01*
X016147Y001765D02*
X016087Y001765D01*
X016087Y001607D02*
X016147Y001607D01*
X016239Y001448D02*
X015994Y001448D01*
X015836Y001290D02*
X016398Y001290D01*
X016348Y001131D02*
X015885Y001131D01*
X016027Y000973D02*
X016189Y000973D01*
X016147Y000814D02*
X016087Y000814D01*
X016087Y000656D02*
X016147Y000656D01*
X016190Y000497D02*
X016027Y000497D01*
X015348Y001131D02*
X014843Y001131D01*
X014843Y001290D02*
X015398Y001290D01*
X015239Y001448D02*
X014843Y001448D01*
X014843Y001607D02*
X015147Y001607D01*
X015147Y001765D02*
X014772Y001765D01*
X014614Y001924D02*
X015147Y001924D01*
X015206Y000973D02*
X014788Y000973D01*
X014629Y000814D02*
X015147Y000814D01*
X013605Y000656D02*
X012531Y000656D01*
X012411Y000536D02*
X012894Y001019D01*
X012894Y001703D01*
X012411Y002186D01*
X011728Y002186D01*
X011244Y001703D01*
X011244Y001019D01*
X011728Y000536D01*
X012411Y000536D01*
X012689Y000814D02*
X013447Y000814D01*
X013288Y000973D02*
X012848Y000973D01*
X012894Y001131D02*
X013233Y001131D01*
X013233Y001290D02*
X012894Y001290D01*
X012894Y001448D02*
X013233Y001448D01*
X013233Y001607D02*
X012894Y001607D01*
X012832Y001765D02*
X013303Y001765D01*
X013462Y001924D02*
X012674Y001924D01*
X012515Y002082D02*
X013620Y002082D01*
X013534Y003033D02*
X011678Y003033D01*
X011825Y003192D02*
X013375Y003192D01*
X013217Y003350D02*
X011867Y003350D01*
X011842Y003509D02*
X013158Y003509D01*
X013158Y004032D02*
X013043Y004032D01*
X013056Y004063D01*
X013056Y004218D01*
X012997Y004360D01*
X012888Y004470D01*
X012745Y004529D01*
X012633Y004529D01*
X012096Y005066D01*
X012096Y008416D01*
X012378Y008699D01*
X012406Y008671D01*
X012549Y008612D01*
X012670Y008612D01*
X012670Y008575D01*
X012729Y008433D01*
X012838Y008323D01*
X012980Y008264D01*
X013135Y008264D01*
X013216Y008298D01*
X013216Y008247D01*
X013333Y008130D01*
X013885Y008130D01*
X013861Y008120D01*
X013720Y007979D01*
X013707Y007946D01*
X013236Y007946D01*
X013144Y007908D01*
X013070Y007833D01*
X012999Y007763D01*
X012961Y007671D01*
X012961Y005162D01*
X012999Y005070D01*
X013327Y004742D01*
X013327Y004630D01*
X013386Y004488D01*
X013469Y004404D01*
X013158Y004093D01*
X013158Y004032D01*
X013208Y004143D02*
X013056Y004143D01*
X013022Y004301D02*
X013366Y004301D01*
X013414Y004460D02*
X012898Y004460D01*
X012544Y004618D02*
X013332Y004618D01*
X013293Y004777D02*
X012386Y004777D01*
X012227Y004935D02*
X013134Y004935D01*
X012989Y005094D02*
X012096Y005094D01*
X012096Y005252D02*
X012961Y005252D01*
X012961Y005411D02*
X012096Y005411D01*
X012096Y005569D02*
X012961Y005569D01*
X012961Y005728D02*
X012096Y005728D01*
X012096Y005886D02*
X012961Y005886D01*
X012961Y006045D02*
X012096Y006045D01*
X012096Y006203D02*
X012961Y006203D01*
X012961Y006362D02*
X012096Y006362D01*
X012096Y006520D02*
X012961Y006520D01*
X012961Y006679D02*
X012096Y006679D01*
X012096Y006837D02*
X012961Y006837D01*
X012961Y006996D02*
X012096Y006996D01*
X012096Y007154D02*
X012961Y007154D01*
X012961Y007313D02*
X012096Y007313D01*
X012096Y007471D02*
X012961Y007471D01*
X012961Y007630D02*
X012096Y007630D01*
X012096Y007788D02*
X013025Y007788D01*
X013216Y008264D02*
X012096Y008264D01*
X012101Y008422D02*
X012739Y008422D01*
X012670Y008581D02*
X012260Y008581D01*
X011944Y008972D02*
X011704Y008732D01*
X011634Y008662D01*
X011596Y008570D01*
X011596Y007825D01*
X011458Y007825D01*
X011450Y007817D01*
X011446Y007817D01*
X011434Y007805D01*
X011430Y007805D01*
X011426Y007801D01*
X011426Y007801D01*
X011418Y007793D01*
X011414Y007793D01*
X011406Y007785D01*
X011406Y007785D01*
X011402Y007781D01*
X011398Y007781D01*
X011386Y007769D01*
X011382Y007769D01*
X011370Y007757D01*
X011366Y007757D01*
X011354Y007745D01*
X011350Y007745D01*
X011346Y007741D01*
X011346Y007741D01*
X011338Y007733D01*
X011334Y007733D01*
X011326Y007725D01*
X011326Y007725D01*
X011322Y007721D01*
X011318Y007721D01*
X011310Y007713D01*
X011306Y007713D01*
X011302Y007709D01*
X011302Y007709D01*
X011290Y007697D01*
X011286Y007697D01*
X011278Y007689D01*
X011274Y007689D01*
X011266Y007681D01*
X011266Y007681D01*
X011262Y007677D01*
X011258Y007677D01*
X011246Y007665D01*
X011242Y007665D01*
X011230Y007653D01*
X011226Y007653D01*
X011214Y007641D01*
X011210Y007641D01*
X011206Y007637D01*
X011206Y007637D01*
X011198Y007629D01*
X011194Y007629D01*
X011186Y007621D01*
X011186Y007621D01*
X011185Y007620D01*
X011181Y007624D01*
X011181Y007636D01*
X011177Y007640D01*
X011177Y007644D01*
X011173Y007648D01*
X011173Y007652D01*
X011169Y007656D01*
X011169Y007660D01*
X011161Y007668D01*
X011161Y007672D01*
X011153Y007680D01*
X011036Y007797D01*
X011036Y007797D01*
X011032Y007801D01*
X011032Y007801D01*
X011028Y007805D01*
X011028Y007805D01*
X011024Y007809D01*
X011020Y007809D01*
X011016Y007813D01*
X011016Y007813D01*
X011012Y007817D01*
X011008Y007817D01*
X011004Y007821D01*
X011000Y007821D01*
X010996Y007825D01*
X010988Y007825D01*
X010916Y007897D01*
X010916Y007897D01*
X010912Y007901D01*
X010908Y007905D01*
X010904Y007909D01*
X010900Y007913D01*
X010896Y007913D01*
X010892Y007917D01*
X010884Y007917D01*
X010880Y007921D01*
X010702Y007921D01*
X010698Y007917D01*
X010686Y007917D01*
X010682Y007913D01*
X010678Y007913D01*
X010666Y007901D01*
X010666Y007901D01*
X010578Y007813D01*
X010574Y007813D01*
X010570Y007809D01*
X010562Y007809D01*
X010558Y007805D01*
X010554Y007805D01*
X010550Y007801D01*
X010546Y007801D01*
X010542Y007797D01*
X010538Y007797D01*
X010534Y007793D01*
X010530Y007793D01*
X010526Y007789D01*
X010522Y007789D01*
X010518Y007785D01*
X010514Y007785D01*
X010510Y007781D01*
X010506Y007781D01*
X010498Y007773D01*
X010494Y007773D01*
X010486Y007765D01*
X010482Y007765D01*
X010470Y007753D01*
X010466Y007753D01*
X010349Y007636D01*
X010345Y007632D01*
X010341Y007628D01*
X010337Y007624D01*
X010333Y007620D01*
X010329Y007616D01*
X010325Y007612D01*
X010321Y007608D01*
X010317Y007604D01*
X010317Y007600D01*
X010309Y007592D01*
X010309Y007588D01*
X010306Y007585D01*
X010267Y007625D01*
X009961Y007625D01*
X010193Y007625D01*
X010328Y007760D01*
X010401Y007833D01*
X010401Y008076D01*
X010401Y008170D01*
X010400Y008172D01*
X010303Y008269D01*
X010401Y008367D01*
X010401Y008557D01*
X010120Y008839D01*
X009636Y008839D01*
X009621Y008824D01*
X009600Y008846D01*
X009651Y008897D01*
X009651Y009006D01*
X010267Y009006D01*
X010401Y009141D01*
X010401Y009457D01*
X010401Y009552D01*
X010400Y009553D01*
X010377Y009576D01*
X010401Y009601D01*
X010401Y010223D01*
X010401Y010319D01*
X010328Y010392D01*
X010328Y010392D01*
X010296Y010425D01*
X010280Y010440D01*
X010389Y010549D01*
X010389Y011648D01*
X010426Y011611D01*
X010569Y011552D01*
X010723Y011552D01*
X010866Y011611D01*
X010975Y011720D01*
X011034Y011863D01*
X011034Y011967D01*
X011037Y011960D01*
X011146Y011851D01*
X011289Y011792D01*
X011356Y011792D01*
X011356Y010395D01*
X011323Y010408D01*
X011169Y010408D01*
X011076Y010370D01*
X011076Y010441D01*
X011155Y010520D01*
X011214Y010663D01*
X011214Y010817D01*
X011155Y010960D01*
X011046Y011069D01*
X010903Y011128D01*
X010749Y011128D01*
X010606Y011069D01*
X010497Y010960D01*
X010438Y010817D01*
X010438Y010663D01*
X010497Y010520D01*
X010576Y010441D01*
X010576Y009719D01*
X010497Y009640D01*
X010438Y009497D01*
X010438Y009343D01*
X010497Y009200D01*
X010606Y009091D01*
X010749Y009032D01*
X010903Y009032D01*
X011046Y009091D01*
X011155Y009200D01*
X011214Y009343D01*
X011214Y009497D01*
X011156Y009637D01*
X011169Y009632D01*
X011323Y009632D01*
X011466Y009691D01*
X011575Y009800D01*
X011576Y009803D01*
X011577Y009800D01*
X011656Y009721D01*
X011656Y009659D01*
X011577Y009580D01*
X011518Y009437D01*
X011518Y009283D01*
X011577Y009140D01*
X011686Y009031D01*
X011829Y008972D01*
X011944Y008972D01*
X011870Y008898D02*
X009651Y008898D01*
X010220Y008739D02*
X011711Y008739D01*
X011600Y008581D02*
X010378Y008581D01*
X010401Y008422D02*
X011596Y008422D01*
X011596Y008264D02*
X010308Y008264D01*
X010401Y008170D02*
X010401Y008170D01*
X010401Y008105D02*
X011596Y008105D01*
X011596Y007947D02*
X010401Y007947D01*
X010356Y007788D02*
X010521Y007788D01*
X010342Y007630D02*
X010198Y007630D01*
X009961Y007625D02*
X009961Y007625D01*
X009501Y007947D02*
X008353Y007947D01*
X008292Y008007D02*
X007878Y008007D01*
X007585Y007714D01*
X007585Y007300D01*
X007878Y007007D01*
X008292Y007007D01*
X008585Y007300D01*
X008585Y007714D01*
X008292Y008007D01*
X008391Y008105D02*
X008863Y008105D01*
X008886Y008082D02*
X008886Y008082D01*
X008751Y008264D02*
X008549Y008264D01*
X008585Y008422D02*
X008751Y008422D01*
X008774Y008581D02*
X008585Y008581D01*
X008560Y008739D02*
X008751Y008739D01*
X008751Y008898D02*
X008402Y008898D01*
X008150Y009056D02*
X008751Y009056D01*
X008751Y009215D02*
X008150Y009215D01*
X008560Y009373D02*
X008751Y009373D01*
X009144Y009683D02*
X009154Y009707D01*
X009154Y009853D01*
X009098Y009989D01*
X009036Y010051D01*
X009036Y010541D01*
X009046Y010531D01*
X009189Y010472D01*
X009343Y010472D01*
X009409Y010499D01*
X009476Y010432D01*
X009761Y010432D01*
X009750Y010422D01*
X009721Y010392D01*
X009649Y010320D01*
X009648Y010319D01*
X009648Y010319D01*
X009648Y010234D01*
X009636Y010234D01*
X009501Y010099D01*
X009501Y009683D01*
X009144Y009683D01*
X009147Y009690D02*
X009501Y009690D01*
X009501Y009849D02*
X009154Y009849D01*
X009080Y010007D02*
X009501Y010007D01*
X009568Y010166D02*
X009036Y010166D01*
X009036Y010324D02*
X009653Y010324D01*
X009721Y010392D02*
X009721Y010392D01*
X009426Y010483D02*
X009369Y010483D01*
X009163Y010483D02*
X009036Y010483D01*
X008536Y010483D02*
X008532Y010483D01*
X008532Y010641D02*
X008536Y010641D01*
X008532Y010800D02*
X008536Y010800D01*
X008532Y010958D02*
X008536Y010958D01*
X008532Y011117D02*
X008536Y011117D01*
X008532Y011275D02*
X008536Y011275D01*
X008532Y011434D02*
X008536Y011434D01*
X008532Y011592D02*
X008536Y011592D01*
X008532Y011751D02*
X008536Y011751D01*
X008532Y011909D02*
X008536Y011909D01*
X008532Y011933D02*
X008536Y011936D01*
X008536Y010051D01*
X008532Y010048D01*
X008532Y011933D01*
X009036Y011909D02*
X009624Y011909D01*
X009624Y012068D02*
X009036Y012068D01*
X009036Y012226D02*
X009624Y012226D01*
X009658Y012385D02*
X009036Y012385D01*
X009036Y012543D02*
X009677Y012543D01*
X009778Y012702D02*
X009036Y012702D01*
X009036Y012860D02*
X010115Y012860D01*
X010115Y013019D02*
X009036Y013019D01*
X009036Y013177D02*
X010115Y013177D01*
X010115Y013336D02*
X009036Y013336D01*
X009193Y013494D02*
X010173Y013494D01*
X009720Y013811D02*
X009276Y013811D01*
X009276Y013653D02*
X011469Y013653D01*
X011719Y013038D02*
X011145Y013038D01*
X011180Y012523D02*
X010795Y012523D01*
X010795Y012298D01*
X010866Y012269D01*
X010975Y012160D01*
X010978Y012153D01*
X010978Y012257D01*
X011037Y012400D01*
X011146Y012509D01*
X011180Y012523D01*
X011030Y012385D02*
X010795Y012385D01*
X010909Y012226D02*
X010978Y012226D01*
X011034Y011909D02*
X011088Y011909D01*
X010987Y011751D02*
X011356Y011751D01*
X011356Y011592D02*
X010820Y011592D01*
X010472Y011592D02*
X010389Y011592D01*
X010389Y011434D02*
X011356Y011434D01*
X011356Y011275D02*
X010389Y011275D01*
X010389Y011117D02*
X010721Y011117D01*
X010931Y011117D02*
X011356Y011117D01*
X011356Y010958D02*
X011156Y010958D01*
X011214Y010800D02*
X011356Y010800D01*
X011356Y010641D02*
X011205Y010641D01*
X011117Y010483D02*
X011356Y010483D01*
X011856Y010483D02*
X011956Y010483D01*
X011956Y010408D02*
X011856Y010408D01*
X011856Y011241D01*
X011906Y011241D01*
X011956Y011191D01*
X011956Y010408D01*
X011956Y010641D02*
X011856Y010641D01*
X011856Y010800D02*
X011956Y010800D01*
X011956Y010958D02*
X011856Y010958D01*
X011856Y011117D02*
X011956Y011117D01*
X012670Y011199D02*
X012670Y013003D01*
X012700Y012973D01*
X012843Y012914D01*
X012856Y012914D01*
X012856Y011384D01*
X012672Y011200D01*
X012670Y011199D01*
X012670Y011275D02*
X012747Y011275D01*
X012670Y011434D02*
X012856Y011434D01*
X012856Y011592D02*
X012670Y011592D01*
X012670Y011751D02*
X012856Y011751D01*
X012856Y011909D02*
X012670Y011909D01*
X012670Y012068D02*
X012856Y012068D01*
X012856Y012226D02*
X012670Y012226D01*
X012670Y012385D02*
X012856Y012385D01*
X012856Y012543D02*
X012670Y012543D01*
X012670Y012702D02*
X012856Y012702D01*
X012856Y012860D02*
X012670Y012860D01*
X013565Y012771D02*
X013565Y011760D01*
X013561Y011755D01*
X013561Y011077D01*
X013315Y010831D01*
X013211Y010727D01*
X013211Y009490D01*
X013222Y009479D01*
X013222Y008817D01*
X013058Y008652D01*
X013572Y008652D01*
X013620Y008604D01*
X013672Y008625D01*
X013542Y008495D01*
X013672Y008625D02*
X013766Y008511D01*
X013846Y008105D02*
X012096Y008105D01*
X012096Y007947D02*
X013707Y007947D01*
X013707Y007446D02*
X013461Y007446D01*
X013461Y007177D01*
X013629Y007345D01*
X013699Y007416D01*
X013716Y007422D01*
X013707Y007446D01*
X013596Y007313D02*
X013461Y007313D01*
X014802Y007471D02*
X015244Y007471D01*
X015607Y007788D02*
X015627Y007788D01*
X015627Y007947D02*
X015607Y007947D01*
X015607Y008105D02*
X015627Y008105D01*
X015856Y008264D02*
X014844Y008264D01*
X014856Y008422D02*
X015265Y008422D01*
X015147Y008898D02*
X014856Y008898D01*
X014794Y009056D02*
X015273Y009056D01*
X015314Y009373D02*
X014252Y009373D01*
X014368Y009532D02*
X015156Y009532D01*
X015147Y009690D02*
X014679Y009690D01*
X014756Y009849D02*
X015147Y009849D01*
X015224Y010007D02*
X014756Y010007D01*
X014680Y010166D02*
X015382Y010166D01*
X015363Y010324D02*
X014627Y010324D01*
X014704Y010483D02*
X015205Y010483D01*
X015147Y010641D02*
X014164Y010641D01*
X014164Y010653D02*
X014704Y010653D01*
X014704Y010865D01*
X014376Y011193D01*
X014164Y011193D01*
X014164Y010653D01*
X014144Y010633D02*
X014782Y010633D01*
X014841Y010574D01*
X014704Y010800D02*
X015147Y010800D01*
X015010Y010958D02*
X014611Y010958D01*
X014452Y011117D02*
X014909Y011117D01*
X014890Y011275D02*
X014509Y011275D01*
X014591Y011434D02*
X014939Y011434D01*
X015116Y011592D02*
X014591Y011592D01*
X014591Y011751D02*
X015147Y011751D01*
X015051Y011909D02*
X014591Y011909D01*
X014591Y012068D02*
X014917Y012068D01*
X014878Y012226D02*
X014621Y012226D01*
X014715Y012385D02*
X014906Y012385D01*
X015020Y012543D02*
X014729Y012543D01*
X014676Y012702D02*
X015147Y012702D01*
X015147Y012860D02*
X014684Y012860D01*
X014712Y013019D02*
X015235Y013019D01*
X015394Y013177D02*
X014712Y013177D01*
X014712Y013336D02*
X015352Y013336D01*
X015422Y013265D02*
X015811Y013265D01*
X016087Y013540D01*
X016087Y013930D01*
X015811Y014205D01*
X015422Y014205D01*
X015147Y013930D01*
X015147Y013540D01*
X015422Y013265D01*
X015193Y013494D02*
X014712Y013494D01*
X014712Y013653D02*
X015147Y013653D01*
X015147Y013811D02*
X014712Y013811D01*
X014712Y013970D02*
X015186Y013970D01*
X015345Y014128D02*
X014712Y014128D01*
X014712Y014287D02*
X015401Y014287D01*
X015422Y014265D02*
X015811Y014265D01*
X016087Y014540D01*
X016087Y014930D01*
X015811Y015205D01*
X015422Y015205D01*
X015147Y014930D01*
X015147Y014540D01*
X015422Y014265D01*
X015242Y014445D02*
X014712Y014445D01*
X014712Y014604D02*
X015147Y014604D01*
X015147Y014762D02*
X014712Y014762D01*
X014712Y014921D02*
X015147Y014921D01*
X015296Y015079D02*
X014712Y015079D01*
X014712Y015238D02*
X016878Y015238D01*
X016296Y015079D02*
X015937Y015079D01*
X016087Y014921D02*
X016147Y014921D01*
X016147Y014762D02*
X016087Y014762D01*
X016087Y014604D02*
X016147Y014604D01*
X016242Y014445D02*
X015991Y014445D01*
X015833Y014287D02*
X016401Y014287D01*
X016345Y014128D02*
X015888Y014128D01*
X016047Y013970D02*
X016186Y013970D01*
X016147Y013811D02*
X016087Y013811D01*
X016087Y013653D02*
X016147Y013653D01*
X016193Y013494D02*
X016040Y013494D01*
X015882Y013336D02*
X016352Y013336D01*
X016394Y013177D02*
X015839Y013177D01*
X015998Y013019D02*
X016235Y013019D01*
X016147Y012860D02*
X016087Y012860D01*
X016087Y012702D02*
X016147Y012702D01*
X016147Y012543D02*
X016087Y012543D01*
X016109Y012243D02*
X016617Y011735D01*
X016147Y011751D02*
X016087Y011751D01*
X016147Y011809D02*
X016147Y011540D01*
X016422Y011265D01*
X016811Y011265D01*
X016878Y011331D01*
X016878Y011139D01*
X016811Y011205D01*
X016422Y011205D01*
X016356Y011139D01*
X016356Y011150D01*
X016318Y011242D01*
X016179Y011381D01*
X016108Y011451D01*
X016030Y011484D01*
X016087Y011540D01*
X016087Y011869D01*
X016147Y011809D01*
X016147Y011592D02*
X016087Y011592D01*
X016126Y011434D02*
X016254Y011434D01*
X016284Y011275D02*
X016412Y011275D01*
X016821Y011275D02*
X016878Y011275D01*
X016878Y010331D02*
X016878Y010139D01*
X016811Y010205D01*
X016422Y010205D01*
X016331Y010114D01*
X016356Y010175D01*
X016356Y010331D01*
X016422Y010265D01*
X016811Y010265D01*
X016878Y010331D01*
X016878Y010324D02*
X016870Y010324D01*
X016878Y010166D02*
X016851Y010166D01*
X016382Y010166D02*
X016352Y010166D01*
X016356Y010324D02*
X016363Y010324D01*
X016147Y009849D02*
X016087Y009849D01*
X016087Y009690D02*
X016147Y009690D01*
X016156Y009532D02*
X016078Y009532D01*
X015919Y009373D02*
X016314Y009373D01*
X016273Y009056D02*
X015960Y009056D01*
X016087Y008898D02*
X016147Y008898D01*
X016147Y008739D02*
X016087Y008739D01*
X016543Y008265D02*
X016811Y008265D01*
X016878Y008331D01*
X016878Y008139D01*
X016811Y008205D01*
X016483Y008205D01*
X016543Y008265D01*
X016541Y008264D02*
X016878Y008264D01*
X016878Y007331D02*
X016878Y007139D01*
X016811Y007205D01*
X016422Y007205D01*
X016416Y007199D01*
X016416Y007271D01*
X016422Y007265D01*
X016811Y007265D01*
X016878Y007331D01*
X016878Y007313D02*
X016859Y007313D01*
X016862Y007154D02*
X016878Y007154D01*
X015856Y007313D02*
X015830Y007313D01*
X013920Y009479D02*
X013822Y009479D01*
X013920Y009479D02*
X014369Y009928D01*
X014008Y010073D02*
X013981Y010005D01*
X013981Y009994D01*
X013509Y009994D01*
X013491Y009994D01*
X013491Y010484D01*
X013535Y010502D01*
X013584Y010551D01*
X013584Y010401D01*
X013912Y010073D01*
X014008Y010073D01*
X013981Y010007D02*
X013491Y010007D01*
X013491Y010166D02*
X013820Y010166D01*
X013661Y010324D02*
X013491Y010324D01*
X013491Y010483D02*
X013584Y010483D01*
X014124Y010800D02*
X014164Y010800D01*
X014164Y010958D02*
X014124Y010958D01*
X014124Y011117D02*
X014164Y011117D01*
X014161Y011755D02*
X014161Y012315D01*
X014341Y012495D01*
X013953Y012503D02*
X013923Y012473D01*
X013881Y012370D01*
X013881Y012270D01*
X013874Y012270D01*
X013845Y012270D01*
X013845Y012613D01*
X013970Y012613D01*
X013953Y012572D01*
X013953Y012503D01*
X013953Y012543D02*
X013845Y012543D01*
X013845Y012385D02*
X013887Y012385D01*
X013565Y012771D02*
X013688Y012893D01*
X014341Y012893D01*
X014432Y012983D01*
X014432Y015893D01*
X014795Y016030D02*
X015247Y016030D01*
X015147Y015930D02*
X015147Y015540D01*
X015422Y015265D01*
X015811Y015265D01*
X016087Y015540D01*
X016087Y015930D01*
X015811Y016205D01*
X015422Y016205D01*
X015147Y015930D01*
X015147Y015872D02*
X014820Y015872D01*
X014777Y015713D02*
X015147Y015713D01*
X015147Y015555D02*
X014712Y015555D01*
X014712Y015396D02*
X015291Y015396D01*
X015942Y015396D02*
X016291Y015396D01*
X016147Y015555D02*
X016087Y015555D01*
X016087Y015713D02*
X016147Y015713D01*
X016147Y015872D02*
X016087Y015872D01*
X015986Y016030D02*
X016247Y016030D01*
X016405Y016189D02*
X015828Y016189D01*
X015811Y016265D02*
X016087Y016540D01*
X016087Y016930D01*
X015811Y017205D01*
X015422Y017205D01*
X015147Y016930D01*
X015147Y016540D01*
X015422Y016265D01*
X015811Y016265D01*
X015893Y016347D02*
X016340Y016347D01*
X016182Y016506D02*
X016052Y016506D01*
X016087Y016664D02*
X016147Y016664D01*
X016147Y016823D02*
X016087Y016823D01*
X016035Y016981D02*
X016198Y016981D01*
X016356Y017140D02*
X015877Y017140D01*
X015803Y017285D02*
X015627Y017285D01*
X015627Y017725D01*
X015627Y017745D01*
X016067Y017745D01*
X016067Y017922D01*
X015803Y018185D01*
X015627Y018185D01*
X015627Y017745D01*
X015607Y017745D01*
X015607Y018185D01*
X015430Y018185D01*
X015167Y017922D01*
X015167Y017745D01*
X015607Y017745D01*
X015607Y017725D01*
X015627Y017725D01*
X016067Y017725D01*
X016067Y017549D01*
X015803Y017285D01*
X015816Y017298D02*
X016389Y017298D01*
X016231Y017457D02*
X015974Y017457D01*
X016067Y017615D02*
X016147Y017615D01*
X016147Y017774D02*
X016067Y017774D01*
X016056Y017932D02*
X016149Y017932D01*
X016307Y018091D02*
X015898Y018091D01*
X015627Y018091D02*
X015607Y018091D01*
X015607Y017932D02*
X015627Y017932D01*
X015627Y017774D02*
X015607Y017774D01*
X015607Y017725D02*
X015167Y017725D01*
X015167Y017549D01*
X015430Y017285D01*
X015607Y017285D01*
X015607Y017725D01*
X015607Y017615D02*
X015627Y017615D01*
X015627Y017457D02*
X015607Y017457D01*
X015607Y017298D02*
X015627Y017298D01*
X015417Y017298D02*
X014736Y017298D01*
X014737Y017297D02*
X014704Y017331D01*
X014663Y017354D01*
X014617Y017366D01*
X014393Y017366D01*
X014393Y016787D01*
X014773Y016787D01*
X014773Y017210D01*
X014761Y017256D01*
X014737Y017297D01*
X014773Y017140D02*
X015356Y017140D01*
X015198Y016981D02*
X014773Y016981D01*
X014773Y016823D02*
X015147Y016823D01*
X015147Y016664D02*
X014773Y016664D01*
X014773Y016506D02*
X015182Y016506D01*
X015340Y016347D02*
X014773Y016347D01*
X014730Y016189D02*
X015405Y016189D01*
X014393Y016823D02*
X014313Y016823D01*
X014313Y016981D02*
X014393Y016981D01*
X014393Y017140D02*
X014313Y017140D01*
X014313Y017298D02*
X014393Y017298D01*
X013970Y017298D02*
X013855Y017298D01*
X013883Y017140D02*
X013933Y017140D01*
X013933Y016981D02*
X013883Y016981D01*
X013883Y016823D02*
X013933Y016823D01*
X013933Y016664D02*
X013883Y016664D01*
X013883Y016506D02*
X013933Y016506D01*
X013933Y016347D02*
X013883Y016347D01*
X013848Y016189D02*
X013977Y016189D01*
X014068Y016030D02*
X013763Y016030D01*
X013763Y015872D02*
X014044Y015872D01*
X014086Y015713D02*
X013763Y015713D01*
X013763Y015555D02*
X014152Y015555D01*
X014152Y015396D02*
X013763Y015396D01*
X013763Y015238D02*
X014152Y015238D01*
X014152Y015079D02*
X013763Y015079D01*
X013123Y015079D02*
X013121Y015079D01*
X013123Y015081D02*
X013123Y014939D01*
X012982Y014939D01*
X013123Y015081D01*
X012637Y016030D02*
X010948Y016030D01*
X010948Y015872D02*
X012011Y015872D01*
X011893Y015713D02*
X010948Y015713D01*
X010948Y015555D02*
X011862Y015555D01*
X011731Y015396D02*
X010948Y015396D01*
X010948Y015238D02*
X011573Y015238D01*
X011469Y015079D02*
X010948Y015079D01*
X010628Y015357D02*
X010621Y015365D01*
X010308Y015872D02*
X009831Y015872D01*
X009971Y016030D02*
X010308Y016030D01*
X010224Y016189D02*
X010123Y016189D01*
X010159Y016347D02*
X010189Y016347D01*
X010189Y016506D02*
X010159Y016506D01*
X010159Y016664D02*
X010189Y016664D01*
X010189Y016823D02*
X010159Y016823D01*
X010159Y016981D02*
X010189Y016981D01*
X010189Y017140D02*
X010159Y017140D01*
X010130Y017298D02*
X010217Y017298D01*
X010308Y017457D02*
X008047Y017457D01*
X008047Y017615D02*
X010308Y017615D01*
X010308Y017774D02*
X008047Y017774D01*
X008327Y017370D02*
X008373Y017382D01*
X008597Y017382D01*
X008597Y016802D01*
X008217Y016802D01*
X008217Y017226D01*
X008229Y017272D01*
X008253Y017313D01*
X008286Y017346D01*
X008327Y017370D01*
X008244Y017298D02*
X008154Y017298D01*
X008167Y017140D02*
X008217Y017140D01*
X008217Y016981D02*
X008167Y016981D01*
X008167Y016823D02*
X008217Y016823D01*
X008217Y016664D02*
X008167Y016664D01*
X008167Y016506D02*
X008217Y016506D01*
X008217Y016347D02*
X008167Y016347D01*
X008128Y016189D02*
X008116Y016189D01*
X008047Y015751D02*
X008071Y015692D01*
X008180Y015583D01*
X008323Y015524D01*
X008476Y015524D01*
X008476Y014955D01*
X008047Y014955D01*
X008047Y015751D01*
X008047Y015713D02*
X008063Y015713D01*
X008047Y015555D02*
X008250Y015555D01*
X008047Y015396D02*
X008476Y015396D01*
X008476Y015238D02*
X008047Y015238D01*
X008047Y015079D02*
X008476Y015079D01*
X009276Y015079D02*
X010031Y015079D01*
X009927Y015238D02*
X009276Y015238D01*
X009355Y015396D02*
X009906Y015396D01*
X009952Y015555D02*
X009514Y015555D01*
X009672Y015713D02*
X010120Y015713D01*
X009818Y014921D02*
X009276Y014921D01*
X009276Y014762D02*
X009720Y014762D01*
X009720Y014604D02*
X009276Y014604D01*
X009276Y014445D02*
X009720Y014445D01*
X009720Y014287D02*
X009276Y014287D01*
X009276Y014128D02*
X009720Y014128D01*
X009720Y013970D02*
X009276Y013970D01*
X008321Y013689D02*
X008214Y013582D01*
X008176Y013490D01*
X008176Y012737D01*
X008147Y012749D01*
X007992Y012749D01*
X007850Y012690D01*
X007740Y012581D01*
X007681Y012438D01*
X007681Y012317D01*
X007650Y012242D01*
X007650Y011229D01*
X007603Y011248D01*
X007494Y011248D01*
X007494Y011255D01*
X007559Y011320D01*
X007597Y011412D01*
X007597Y012543D01*
X007660Y012543D01*
X007777Y012660D01*
X007777Y013456D01*
X007660Y013573D01*
X006696Y013573D01*
X006696Y014836D01*
X007029Y015170D01*
X007036Y015153D01*
X007145Y015044D01*
X007287Y014985D01*
X007407Y014985D01*
X007407Y014955D01*
X006935Y014955D01*
X006818Y014838D01*
X006818Y013806D01*
X006935Y013689D01*
X008321Y013689D01*
X008285Y013653D02*
X006696Y013653D01*
X006696Y013811D02*
X006818Y013811D01*
X006818Y013970D02*
X006696Y013970D01*
X006696Y014128D02*
X006818Y014128D01*
X006818Y014287D02*
X006696Y014287D01*
X006696Y014445D02*
X006818Y014445D01*
X006818Y014604D02*
X006696Y014604D01*
X006696Y014762D02*
X006818Y014762D01*
X006780Y014921D02*
X006901Y014921D01*
X006938Y015079D02*
X007110Y015079D01*
X006942Y015912D02*
X006817Y016037D01*
X006817Y016762D01*
X006377Y016823D02*
X006139Y016823D01*
X006139Y016818D02*
X006139Y017242D01*
X006127Y017287D01*
X006103Y017329D01*
X006070Y017362D01*
X006029Y017386D01*
X005983Y017398D01*
X005759Y017398D01*
X005759Y016818D01*
X006139Y016818D01*
X006139Y016664D02*
X006377Y016664D01*
X006377Y016981D02*
X006139Y016981D01*
X006139Y017140D02*
X006377Y017140D01*
X006390Y017298D02*
X006121Y017298D01*
X005759Y017298D02*
X005679Y017298D01*
X005679Y017140D02*
X005759Y017140D01*
X005759Y016981D02*
X005679Y016981D01*
X005679Y016823D02*
X005759Y016823D01*
X005759Y016664D02*
X005679Y016664D01*
X005679Y016506D02*
X005759Y016506D01*
X005759Y016347D02*
X005679Y016347D01*
X005679Y016189D02*
X005759Y016189D01*
X005896Y016030D02*
X005551Y016030D01*
X005571Y015872D02*
X005896Y015872D01*
X005896Y015713D02*
X005571Y015713D01*
X005571Y015555D02*
X005896Y015555D01*
X005896Y015396D02*
X005571Y015396D01*
X005571Y015238D02*
X005896Y015238D01*
X005896Y015079D02*
X005571Y015079D01*
X005652Y014921D02*
X005896Y014921D01*
X005896Y014762D02*
X005718Y014762D01*
X005718Y014604D02*
X005896Y014604D01*
X005896Y014445D02*
X005718Y014445D01*
X005718Y014287D02*
X005896Y014287D01*
X005896Y014128D02*
X005718Y014128D01*
X005718Y013970D02*
X005896Y013970D01*
X005896Y013811D02*
X005707Y013811D01*
X005896Y013653D02*
X005059Y013653D01*
X005059Y013494D02*
X005896Y013494D01*
X005896Y013336D02*
X005059Y013336D01*
X005059Y013177D02*
X005896Y013177D01*
X005896Y013019D02*
X005097Y013019D01*
X005127Y012860D02*
X005896Y012860D01*
X005896Y012702D02*
X005089Y012702D01*
X004784Y012481D02*
X004784Y012426D01*
X004702Y012392D01*
X004698Y012388D01*
X004629Y012388D01*
X004486Y012329D01*
X004377Y012220D01*
X004318Y012077D01*
X004318Y011923D01*
X004377Y011780D01*
X004486Y011671D01*
X004629Y011612D01*
X004783Y011612D01*
X004887Y011655D01*
X004902Y011640D01*
X005855Y011640D01*
X005896Y011681D01*
X005896Y011526D01*
X005855Y011567D01*
X004902Y011567D01*
X004784Y011450D01*
X004784Y010655D01*
X004902Y010537D01*
X005128Y010537D01*
X005128Y009383D01*
X005092Y009388D01*
X004774Y009388D01*
X004774Y008928D01*
X004734Y008928D01*
X004734Y009388D01*
X004417Y009388D01*
X004342Y009377D01*
X004270Y009353D01*
X004203Y009319D01*
X004142Y009274D01*
X004121Y009254D01*
X004121Y012852D01*
X004206Y012937D01*
X004265Y013079D01*
X004265Y013234D01*
X004206Y013376D01*
X004096Y013485D01*
X003954Y013544D01*
X003799Y013544D01*
X003776Y013535D01*
X003776Y015440D01*
X003805Y015411D01*
X003907Y015369D01*
X004521Y015369D01*
X004558Y015331D01*
X004701Y015272D01*
X004855Y015272D01*
X004931Y015303D01*
X004931Y014971D01*
X004018Y014971D01*
X003901Y014854D01*
X003901Y013822D01*
X004018Y013705D01*
X004419Y013705D01*
X004419Y013098D01*
X004410Y013089D01*
X004351Y012946D01*
X004351Y012792D01*
X004410Y012649D01*
X004519Y012540D01*
X004662Y012481D01*
X004784Y012481D01*
X004620Y012385D02*
X004121Y012385D01*
X004121Y012543D02*
X004516Y012543D01*
X004388Y012702D02*
X004121Y012702D01*
X004129Y012860D02*
X004351Y012860D01*
X004381Y013019D02*
X004239Y013019D01*
X004265Y013177D02*
X004419Y013177D01*
X004419Y013336D02*
X004222Y013336D01*
X004076Y013494D02*
X004419Y013494D01*
X004419Y013653D02*
X003776Y013653D01*
X003776Y013811D02*
X003912Y013811D01*
X003901Y013970D02*
X003776Y013970D01*
X003776Y014128D02*
X003901Y014128D01*
X003901Y014287D02*
X003776Y014287D01*
X003776Y014445D02*
X003901Y014445D01*
X003901Y014604D02*
X003776Y014604D01*
X003776Y014762D02*
X003901Y014762D01*
X003968Y014921D02*
X003776Y014921D01*
X003776Y015079D02*
X004931Y015079D01*
X004931Y015238D02*
X003776Y015238D01*
X003776Y015396D02*
X003841Y015396D01*
X003963Y015649D02*
X004766Y015649D01*
X004778Y015660D01*
X004656Y016030D02*
X004180Y016030D01*
X004273Y016189D02*
X004436Y016189D01*
X004370Y016347D02*
X004340Y016347D01*
X004340Y016506D02*
X004370Y016506D01*
X004370Y016664D02*
X004340Y016664D01*
X004340Y016823D02*
X004370Y016823D01*
X004370Y016981D02*
X004340Y016981D01*
X004340Y017140D02*
X004370Y017140D01*
X004370Y017298D02*
X004340Y017298D01*
X004575Y017457D02*
X003776Y017457D01*
X003776Y017615D02*
X004733Y017615D01*
X004892Y017774D02*
X003776Y017774D01*
X003776Y017932D02*
X003781Y017932D01*
X003416Y017385D02*
X003369Y017337D01*
X003056Y017298D02*
X002844Y017298D01*
X002849Y017140D02*
X003056Y017140D01*
X003056Y016981D02*
X003007Y016981D01*
X002627Y016981D02*
X002607Y016981D01*
X002607Y016823D02*
X002627Y016823D01*
X002607Y016725D02*
X002167Y016725D01*
X002167Y016549D01*
X002430Y016285D01*
X002607Y016285D01*
X002607Y016725D01*
X002607Y016664D02*
X002627Y016664D01*
X002627Y016506D02*
X002607Y016506D01*
X002607Y016347D02*
X002627Y016347D01*
X002865Y016347D02*
X003056Y016347D01*
X003056Y016189D02*
X002828Y016189D01*
X002986Y016030D02*
X003056Y016030D01*
X003056Y016506D02*
X003023Y016506D01*
X002405Y016189D02*
X001828Y016189D01*
X001893Y016347D02*
X002368Y016347D01*
X002210Y016506D02*
X002052Y016506D01*
X002087Y016664D02*
X002167Y016664D01*
X002167Y016823D02*
X002087Y016823D01*
X002035Y016981D02*
X002226Y016981D01*
X002385Y017140D02*
X001877Y017140D01*
X001803Y017285D02*
X002067Y017549D01*
X002067Y017725D01*
X001627Y017725D01*
X001627Y017285D01*
X001803Y017285D01*
X001816Y017298D02*
X002389Y017298D01*
X002231Y017457D02*
X001974Y017457D01*
X002067Y017615D02*
X002147Y017615D01*
X002147Y017774D02*
X002067Y017774D01*
X002056Y017932D02*
X002149Y017932D01*
X002288Y018091D02*
X001898Y018091D01*
X002129Y018249D02*
X001356Y018249D01*
X001356Y018408D02*
X001995Y018408D01*
X001890Y018566D02*
X001356Y018566D01*
X001356Y018725D02*
X001887Y018725D01*
X001887Y018883D02*
X001356Y018883D01*
X001356Y019042D02*
X001887Y019042D01*
X001887Y019200D02*
X001356Y019200D01*
X001356Y019359D02*
X001887Y019359D01*
X001356Y019517D02*
X016878Y019517D01*
X016878Y019359D02*
X014502Y019359D01*
X014371Y019489D02*
X014088Y019489D01*
X014088Y018734D01*
X014843Y018734D01*
X014843Y019017D01*
X014371Y019489D01*
X014088Y019359D02*
X013988Y019359D01*
X013988Y019489D02*
X013704Y019489D01*
X013233Y019017D01*
X013233Y018734D01*
X013988Y018734D01*
X013988Y019489D01*
X013988Y019200D02*
X014088Y019200D01*
X014088Y019042D02*
X013988Y019042D01*
X013988Y018883D02*
X014088Y018883D01*
X014088Y018734D02*
X013988Y018734D01*
X013988Y018634D01*
X014088Y018634D01*
X014088Y018734D01*
X014088Y018725D02*
X016878Y018725D01*
X016878Y018883D02*
X014843Y018883D01*
X014819Y019042D02*
X016878Y019042D01*
X016878Y019200D02*
X014660Y019200D01*
X014843Y018634D02*
X014088Y018634D01*
X014088Y017879D01*
X014371Y017879D01*
X014843Y018350D01*
X014843Y018634D01*
X014843Y018566D02*
X016878Y018566D01*
X016878Y018408D02*
X014843Y018408D01*
X014741Y018249D02*
X016878Y018249D01*
X016844Y017298D02*
X016878Y017298D01*
X016877Y017140D02*
X016878Y017140D01*
X016878Y016189D02*
X016828Y016189D01*
X015259Y017457D02*
X013729Y017457D01*
X013591Y017615D02*
X015167Y017615D01*
X015167Y017774D02*
X013432Y017774D01*
X013274Y017932D02*
X013651Y017932D01*
X013704Y017879D02*
X013988Y017879D01*
X013988Y018634D01*
X013233Y018634D01*
X013233Y018350D01*
X013704Y017879D01*
X013988Y017932D02*
X014088Y017932D01*
X014088Y018091D02*
X013988Y018091D01*
X013988Y018249D02*
X014088Y018249D01*
X014088Y018408D02*
X013988Y018408D01*
X013988Y018566D02*
X014088Y018566D01*
X013988Y018725D02*
X012894Y018725D01*
X012894Y018883D02*
X013233Y018883D01*
X013257Y019042D02*
X012879Y019042D01*
X012720Y019200D02*
X013416Y019200D01*
X013574Y019359D02*
X012562Y019359D01*
X012894Y018566D02*
X013233Y018566D01*
X013233Y018408D02*
X012894Y018408D01*
X012957Y018249D02*
X013334Y018249D01*
X013493Y018091D02*
X013115Y018091D01*
X012686Y017615D02*
X010948Y017615D01*
X010948Y017457D02*
X012844Y017457D01*
X012945Y017298D02*
X013003Y017298D01*
X013003Y017140D02*
X012974Y017140D01*
X012974Y016981D02*
X013003Y016981D01*
X013003Y016823D02*
X012974Y016823D01*
X012974Y016664D02*
X013003Y016664D01*
X013003Y016506D02*
X012974Y016506D01*
X012534Y016487D02*
X012534Y016747D01*
X012094Y016823D02*
X011958Y016823D01*
X011958Y016787D02*
X011958Y017210D01*
X011946Y017256D01*
X011922Y017297D01*
X011889Y017331D01*
X011848Y017354D01*
X011802Y017366D01*
X011578Y017366D01*
X011578Y016787D01*
X011498Y016787D01*
X011498Y017366D01*
X011275Y017366D01*
X011229Y017354D01*
X011188Y017331D01*
X011154Y017297D01*
X011131Y017256D01*
X011118Y017210D01*
X011118Y016787D01*
X011498Y016787D01*
X011498Y016707D01*
X011118Y016707D01*
X011118Y016283D01*
X011131Y016237D01*
X011154Y016196D01*
X011188Y016163D01*
X011229Y016139D01*
X011275Y016127D01*
X011498Y016127D01*
X011498Y016707D01*
X011578Y016707D01*
X011578Y016787D01*
X011958Y016787D01*
X011958Y016707D02*
X011578Y016707D01*
X011578Y016127D01*
X011802Y016127D01*
X011848Y016139D01*
X011889Y016163D01*
X011922Y016196D01*
X011946Y016237D01*
X011958Y016283D01*
X011958Y016707D01*
X011958Y016664D02*
X012094Y016664D01*
X012094Y016506D02*
X011958Y016506D01*
X011958Y016347D02*
X012094Y016347D01*
X012129Y016189D02*
X011915Y016189D01*
X011578Y016189D02*
X011498Y016189D01*
X011498Y016347D02*
X011578Y016347D01*
X011578Y016506D02*
X011498Y016506D01*
X011498Y016664D02*
X011578Y016664D01*
X011578Y016823D02*
X011498Y016823D01*
X011498Y016981D02*
X011578Y016981D01*
X011578Y017140D02*
X011498Y017140D01*
X011498Y017298D02*
X011578Y017298D01*
X011921Y017298D02*
X012122Y017298D01*
X012094Y017140D02*
X011958Y017140D01*
X011958Y016981D02*
X012094Y016981D01*
X012527Y017774D02*
X010948Y017774D01*
X010948Y017932D02*
X011655Y017932D01*
X011496Y018091D02*
X010948Y018091D01*
X010936Y018249D02*
X011338Y018249D01*
X011244Y018408D02*
X010926Y018408D01*
X010926Y018566D02*
X011244Y018566D01*
X011244Y018725D02*
X010926Y018725D01*
X010926Y018883D02*
X011244Y018883D01*
X011260Y019042D02*
X010910Y019042D01*
X010752Y019200D02*
X011419Y019200D01*
X011577Y019359D02*
X010593Y019359D01*
X009609Y019359D02*
X008625Y019359D01*
X008783Y019200D02*
X009450Y019200D01*
X009292Y019042D02*
X008942Y019042D01*
X008957Y018883D02*
X009276Y018883D01*
X009276Y018725D02*
X008957Y018725D01*
X008957Y018566D02*
X009276Y018566D01*
X009276Y018408D02*
X008957Y018408D01*
X008864Y018249D02*
X009369Y018249D01*
X009528Y018091D02*
X008706Y018091D01*
X008547Y017932D02*
X009686Y017932D01*
X009307Y017298D02*
X009029Y017298D01*
X009057Y017140D02*
X009279Y017140D01*
X009279Y016981D02*
X009057Y016981D01*
X009057Y016823D02*
X009279Y016823D01*
X009279Y016664D02*
X009057Y016664D01*
X009057Y016506D02*
X009279Y016506D01*
X009279Y016347D02*
X009057Y016347D01*
X008997Y016189D02*
X009314Y016189D01*
X009282Y016030D02*
X008797Y016030D01*
X008945Y015872D02*
X009124Y015872D01*
X009731Y016734D02*
X009719Y016747D01*
X008677Y016823D02*
X008597Y016823D01*
X008597Y016981D02*
X008677Y016981D01*
X008677Y017140D02*
X008597Y017140D01*
X008597Y017298D02*
X008677Y017298D01*
X007407Y017932D02*
X007359Y017932D01*
X007407Y018091D02*
X006737Y018091D01*
X006896Y018249D02*
X007401Y018249D01*
X007307Y018408D02*
X006989Y018408D01*
X006989Y018566D02*
X007307Y018566D01*
X007307Y018725D02*
X006989Y018725D01*
X006989Y018883D02*
X007307Y018883D01*
X007323Y019042D02*
X006973Y019042D01*
X006815Y019200D02*
X007482Y019200D01*
X007640Y019359D02*
X006656Y019359D01*
X005672Y019359D02*
X004688Y019359D01*
X004846Y019200D02*
X005513Y019200D01*
X005355Y019042D02*
X005005Y019042D01*
X005020Y018883D02*
X005339Y018883D01*
X005339Y018725D02*
X005020Y018725D01*
X005020Y018566D02*
X005339Y018566D01*
X005339Y018408D02*
X005020Y018408D01*
X004927Y018249D02*
X005367Y018249D01*
X005209Y018091D02*
X004769Y018091D01*
X004610Y017932D02*
X005050Y017932D01*
X005480Y017457D02*
X006846Y017457D01*
X006831Y017615D02*
X005638Y017615D01*
X005797Y017774D02*
X006883Y017774D01*
X007079Y017932D02*
X006579Y017932D01*
X005299Y017140D02*
X005250Y017140D01*
X005250Y016981D02*
X005299Y016981D01*
X005299Y016823D02*
X005250Y016823D01*
X005250Y016664D02*
X005299Y016664D01*
X005299Y016506D02*
X005250Y016506D01*
X005276Y016347D02*
X005299Y016347D01*
X003900Y016778D02*
X003900Y015712D01*
X003963Y015649D01*
X003056Y015396D02*
X002942Y015396D01*
X003056Y015238D02*
X001356Y015238D01*
X001937Y015079D02*
X002296Y015079D01*
X002147Y014921D02*
X002087Y014921D01*
X002087Y014762D02*
X002147Y014762D01*
X002147Y014604D02*
X002087Y014604D01*
X001991Y014445D02*
X002242Y014445D01*
X002401Y014287D02*
X001833Y014287D01*
X001888Y014128D02*
X002345Y014128D01*
X002186Y013970D02*
X002047Y013970D01*
X002087Y013811D02*
X002147Y013811D01*
X002147Y013653D02*
X002087Y013653D01*
X002040Y013494D02*
X002193Y013494D01*
X002352Y013336D02*
X001882Y013336D01*
X001839Y013177D02*
X002422Y013177D01*
X002607Y013177D02*
X002627Y013177D01*
X002627Y013019D02*
X002607Y013019D01*
X002607Y012860D02*
X002627Y012860D01*
X002811Y013177D02*
X002821Y013177D01*
X002264Y013019D02*
X001998Y013019D01*
X002087Y012860D02*
X002167Y012860D01*
X002167Y012702D02*
X002087Y012702D01*
X001617Y012735D02*
X002132Y012219D01*
X002132Y003271D01*
X001744Y003265D02*
X001744Y003205D01*
X001422Y003205D01*
X001356Y003139D01*
X001356Y003331D01*
X001422Y003265D01*
X001744Y003265D01*
X001408Y003192D02*
X001356Y003192D01*
X002087Y002875D02*
X002147Y002875D01*
X002147Y002716D02*
X002087Y002716D01*
X002087Y002558D02*
X002147Y002558D01*
X002288Y002399D02*
X001945Y002399D01*
X002521Y003205D02*
X002521Y003265D01*
X002811Y003265D01*
X003056Y003510D01*
X003056Y002961D01*
X002811Y003205D01*
X002521Y003205D01*
X002825Y003192D02*
X003056Y003192D01*
X003056Y003350D02*
X002896Y003350D01*
X003055Y003509D02*
X003056Y003509D01*
X003056Y003961D02*
X002811Y004205D01*
X002422Y004205D01*
X002412Y004196D01*
X002412Y004275D01*
X002422Y004265D01*
X002811Y004265D01*
X003056Y004510D01*
X003056Y003961D01*
X003056Y003984D02*
X003032Y003984D01*
X003056Y004143D02*
X002874Y004143D01*
X002847Y004301D02*
X003056Y004301D01*
X003056Y004460D02*
X003006Y004460D01*
X003056Y004961D02*
X002811Y005205D01*
X002422Y005205D01*
X002412Y005196D01*
X002412Y005275D01*
X002422Y005265D01*
X002811Y005265D01*
X003056Y005510D01*
X003056Y004961D01*
X003056Y005094D02*
X002923Y005094D01*
X003056Y005252D02*
X002412Y005252D01*
X001852Y005252D02*
X001356Y005252D01*
X001422Y005265D02*
X001811Y005265D01*
X001852Y005306D01*
X001852Y005164D01*
X001811Y005205D01*
X001422Y005205D01*
X001356Y005139D01*
X001356Y005331D01*
X001422Y005265D01*
X001356Y006139D02*
X001356Y006331D01*
X001422Y006265D01*
X001811Y006265D01*
X001852Y006306D01*
X001852Y006164D01*
X001811Y006205D01*
X001422Y006205D01*
X001356Y006139D01*
X001356Y006203D02*
X001420Y006203D01*
X001813Y006203D02*
X001852Y006203D01*
X002412Y006203D02*
X002420Y006203D01*
X002422Y006205D02*
X002412Y006196D01*
X002412Y006275D01*
X002422Y006265D01*
X002811Y006265D01*
X003056Y006510D01*
X003056Y005961D01*
X002811Y006205D01*
X002422Y006205D01*
X002813Y006203D02*
X003056Y006203D01*
X003056Y006045D02*
X002972Y006045D01*
X002908Y006362D02*
X003056Y006362D01*
X003056Y006961D02*
X002811Y007205D01*
X002422Y007205D01*
X002412Y007196D01*
X002412Y007275D01*
X002422Y007265D01*
X002811Y007265D01*
X003056Y007510D01*
X003056Y006961D01*
X003056Y006996D02*
X003021Y006996D01*
X003056Y007154D02*
X002862Y007154D01*
X002859Y007313D02*
X003056Y007313D01*
X003056Y007471D02*
X003017Y007471D01*
X003056Y007961D02*
X002811Y008205D01*
X002422Y008205D01*
X002412Y008196D01*
X002412Y008275D01*
X002422Y008265D01*
X002811Y008265D01*
X003056Y008510D01*
X003056Y007961D01*
X003056Y008105D02*
X002911Y008105D01*
X003056Y008264D02*
X002412Y008264D01*
X001852Y008264D02*
X001356Y008264D01*
X001422Y008265D02*
X001811Y008265D01*
X001852Y008306D01*
X001852Y008164D01*
X001811Y008205D01*
X001422Y008205D01*
X001356Y008139D01*
X001356Y008331D01*
X001422Y008265D01*
X001356Y007331D02*
X001422Y007265D01*
X001811Y007265D01*
X001852Y007306D01*
X001852Y007164D01*
X001811Y007205D01*
X001422Y007205D01*
X001356Y007139D01*
X001356Y007331D01*
X001356Y007313D02*
X001375Y007313D01*
X001371Y007154D02*
X001356Y007154D01*
X002968Y008422D02*
X003056Y008422D01*
X003056Y008961D02*
X002811Y009205D01*
X002422Y009205D01*
X002412Y009196D01*
X002412Y009275D01*
X002422Y009265D01*
X002811Y009265D01*
X003056Y009510D01*
X003056Y008961D01*
X003056Y009056D02*
X002960Y009056D01*
X003056Y009215D02*
X002412Y009215D01*
X002919Y009373D02*
X003056Y009373D01*
X002803Y010205D02*
X002422Y010205D01*
X002412Y010196D01*
X002412Y010275D01*
X002422Y010265D01*
X002803Y010265D01*
X002803Y010205D01*
X003191Y010251D02*
X003191Y010267D01*
X003416Y010491D01*
X003056Y010961D02*
X002811Y011205D01*
X002422Y011205D01*
X002412Y011196D01*
X002412Y011275D01*
X002422Y011265D01*
X002811Y011265D01*
X003056Y011510D01*
X003056Y010961D01*
X003056Y011117D02*
X002900Y011117D01*
X002821Y011275D02*
X003056Y011275D01*
X003056Y011434D02*
X002980Y011434D01*
X003412Y011294D02*
X003416Y011298D01*
X004121Y011275D02*
X004784Y011275D01*
X004784Y011117D02*
X004121Y011117D01*
X004121Y010958D02*
X004784Y010958D01*
X004784Y010800D02*
X004121Y010800D01*
X004121Y010641D02*
X004798Y010641D01*
X005128Y010483D02*
X004121Y010483D01*
X004121Y010324D02*
X005128Y010324D01*
X005128Y010166D02*
X004121Y010166D01*
X004121Y010007D02*
X005128Y010007D01*
X005128Y009849D02*
X004121Y009849D01*
X004121Y009690D02*
X005128Y009690D01*
X005128Y009532D02*
X004121Y009532D01*
X004121Y009373D02*
X004331Y009373D01*
X004310Y009353D02*
X004754Y008908D01*
X004734Y008888D02*
X004774Y008888D01*
X004774Y008428D01*
X005092Y008428D01*
X005167Y008440D01*
X005239Y008464D01*
X005306Y008498D01*
X005367Y008542D01*
X005421Y008596D01*
X005465Y008657D01*
X005499Y008724D01*
X005503Y008735D01*
X005585Y008653D01*
X005585Y008360D01*
X005447Y008223D01*
X005338Y008332D01*
X005154Y008408D01*
X004355Y008408D01*
X004171Y008332D01*
X004121Y008282D01*
X004121Y008563D01*
X004142Y008542D01*
X004203Y008498D01*
X004270Y008464D01*
X004342Y008440D01*
X004417Y008428D01*
X004734Y008428D01*
X004734Y008888D01*
X004734Y008739D02*
X004774Y008739D01*
X004774Y008581D02*
X004734Y008581D01*
X004734Y009056D02*
X004774Y009056D01*
X004774Y009215D02*
X004734Y009215D01*
X004734Y009373D02*
X004774Y009373D01*
X004310Y009353D02*
X004310Y009523D01*
X004314Y009526D01*
X004314Y012652D01*
X004310Y012656D01*
X004383Y012226D02*
X004121Y012226D01*
X004121Y012068D02*
X004318Y012068D01*
X004323Y011909D02*
X004121Y011909D01*
X004121Y011751D02*
X004406Y011751D01*
X004706Y012000D02*
X004861Y012155D01*
X005378Y012155D01*
X005896Y011592D02*
X004121Y011592D01*
X004121Y011434D02*
X004784Y011434D01*
X005628Y010537D02*
X005768Y010537D01*
X005628Y010397D01*
X005628Y010537D01*
X005628Y010483D02*
X005713Y010483D01*
X005913Y010596D02*
X005921Y010596D01*
X005917Y010600D01*
X005913Y010596D01*
X006371Y010596D02*
X006453Y010679D01*
X006835Y010297D01*
X006835Y010272D01*
X006511Y010596D01*
X006371Y010596D01*
X006416Y010641D02*
X006491Y010641D01*
X006624Y010483D02*
X006650Y010483D01*
X006783Y010324D02*
X006808Y010324D01*
X007514Y011275D02*
X007650Y011275D01*
X007650Y011434D02*
X007597Y011434D01*
X007597Y011592D02*
X007650Y011592D01*
X007650Y011751D02*
X007597Y011751D01*
X007597Y011909D02*
X007650Y011909D01*
X007650Y012068D02*
X007597Y012068D01*
X007597Y012226D02*
X007650Y012226D01*
X007681Y012385D02*
X007597Y012385D01*
X007660Y012543D02*
X007725Y012543D01*
X007777Y012702D02*
X007877Y012702D01*
X007777Y012860D02*
X008176Y012860D01*
X008176Y013019D02*
X007777Y013019D01*
X007777Y013177D02*
X008176Y013177D01*
X008176Y013336D02*
X007777Y013336D01*
X007739Y013494D02*
X008178Y013494D01*
X007097Y012543D02*
X007097Y012454D01*
X007075Y012508D01*
X007040Y012543D01*
X007097Y012543D01*
X007097Y012122D02*
X007097Y011608D01*
X007029Y011608D01*
X006936Y011570D01*
X006936Y011947D01*
X006966Y011959D01*
X007075Y012068D01*
X007097Y012122D01*
X007097Y012068D02*
X007074Y012068D01*
X007097Y011909D02*
X006936Y011909D01*
X006936Y011751D02*
X007097Y011751D01*
X006990Y011592D02*
X006936Y011592D01*
X008532Y010324D02*
X008536Y010324D01*
X008532Y010166D02*
X008536Y010166D01*
X009036Y011275D02*
X009359Y011275D01*
X009359Y011434D02*
X009036Y011434D01*
X009036Y011592D02*
X009359Y011592D01*
X009359Y011751D02*
X009036Y011751D01*
X010124Y011892D02*
X010258Y011892D01*
X010258Y012017D01*
X010295Y012107D01*
X010295Y012120D01*
X010266Y012091D01*
X010124Y012032D01*
X010124Y011892D01*
X010124Y011909D02*
X010258Y011909D01*
X010279Y012068D02*
X010209Y012068D01*
X010389Y010958D02*
X010496Y010958D01*
X010438Y010800D02*
X010389Y010800D01*
X010389Y010641D02*
X010447Y010641D01*
X010534Y010483D02*
X010323Y010483D01*
X010396Y010324D02*
X010576Y010324D01*
X010576Y010166D02*
X010401Y010166D01*
X010401Y010007D02*
X010576Y010007D01*
X010576Y009849D02*
X010401Y009849D01*
X010401Y009690D02*
X010547Y009690D01*
X010452Y009532D02*
X010401Y009532D01*
X010401Y009552D02*
X010401Y009552D01*
X010401Y009373D02*
X010438Y009373D01*
X010401Y009215D02*
X010491Y009215D01*
X010317Y009056D02*
X010690Y009056D01*
X010961Y009056D02*
X011661Y009056D01*
X011546Y009215D02*
X011161Y009215D01*
X011214Y009373D02*
X011518Y009373D01*
X011557Y009532D02*
X011200Y009532D01*
X011463Y009690D02*
X011656Y009690D01*
X012670Y009690D02*
X012792Y009690D01*
X012792Y009532D02*
X012670Y009532D01*
X012670Y009388D02*
X012670Y010521D01*
X012789Y010472D01*
X012931Y010472D01*
X012931Y009994D01*
X012909Y009994D01*
X012792Y009877D01*
X012792Y009351D01*
X012703Y009388D01*
X012670Y009388D01*
X012739Y009373D02*
X012792Y009373D01*
X012792Y009849D02*
X012670Y009849D01*
X012670Y010007D02*
X012931Y010007D01*
X012931Y010166D02*
X012670Y010166D01*
X012670Y010324D02*
X012931Y010324D01*
X012763Y010483D02*
X012670Y010483D01*
X011719Y012806D02*
X011719Y013038D01*
X011469Y014921D02*
X011439Y014921D01*
X011162Y016189D02*
X011033Y016189D01*
X011068Y016347D02*
X011118Y016347D01*
X011118Y016506D02*
X011068Y016506D01*
X011068Y016664D02*
X011118Y016664D01*
X011118Y016823D02*
X011068Y016823D01*
X011068Y016981D02*
X011118Y016981D01*
X011118Y017140D02*
X011068Y017140D01*
X011040Y017298D02*
X011155Y017298D01*
X014424Y017932D02*
X015177Y017932D01*
X015336Y018091D02*
X014583Y018091D01*
X016833Y014287D02*
X016878Y014287D01*
X016839Y013177D02*
X016878Y013177D01*
X016878Y012331D02*
X016878Y012139D01*
X016811Y012205D01*
X016543Y012205D01*
X016483Y012265D01*
X016811Y012265D01*
X016878Y012331D01*
X016878Y012226D02*
X016522Y012226D01*
X013719Y013326D02*
X013719Y013349D01*
X009501Y008105D02*
X009246Y008105D01*
X008959Y007841D02*
X008959Y007841D01*
X008959Y007841D01*
X008906Y007788D02*
X008511Y007788D01*
X008585Y007630D02*
X008751Y007630D01*
X008751Y007633D02*
X008751Y007633D01*
X008825Y007707D02*
X008825Y007707D01*
X008751Y007471D02*
X008585Y007471D01*
X008585Y007313D02*
X008751Y007313D01*
X008751Y007154D02*
X008440Y007154D01*
X008751Y006996D02*
X007329Y006996D01*
X007440Y007154D02*
X007731Y007154D01*
X007585Y007313D02*
X007585Y007313D01*
X007585Y007471D02*
X007585Y007471D01*
X007585Y007630D02*
X007585Y007630D01*
X007511Y007788D02*
X007659Y007788D01*
X007818Y007947D02*
X007353Y007947D01*
X007292Y008007D02*
X006878Y008007D01*
X007292Y008007D01*
X007391Y008105D02*
X007780Y008105D01*
X007621Y008264D02*
X007549Y008264D01*
X007585Y008422D02*
X007585Y008422D01*
X007585Y008581D02*
X007585Y008581D01*
X007560Y008739D02*
X007610Y008739D01*
X007650Y008898D02*
X007402Y008898D01*
X007335Y009056D02*
X007650Y009056D01*
X007355Y009215D02*
X007335Y009215D01*
X006835Y009215D02*
X006816Y009215D01*
X006816Y009251D02*
X006835Y009271D01*
X006835Y008964D01*
X006816Y008945D01*
X006816Y009251D01*
X006816Y009056D02*
X006835Y009056D01*
X006816Y008069D02*
X006878Y008007D01*
X006816Y007945D01*
X006816Y008069D01*
X006816Y007947D02*
X006818Y007947D01*
X006316Y007955D02*
X006284Y007987D01*
X006105Y007987D01*
X006105Y007527D01*
X006065Y007527D01*
X006065Y007987D01*
X005919Y007987D01*
X005939Y008007D01*
X006292Y008007D01*
X006316Y008030D01*
X006316Y007955D01*
X006105Y007947D02*
X006065Y007947D01*
X006065Y007788D02*
X006105Y007788D01*
X006105Y007630D02*
X006065Y007630D01*
X006065Y007487D02*
X006105Y007487D01*
X006105Y007027D01*
X006284Y007027D01*
X006316Y007059D01*
X006316Y004873D01*
X006315Y004873D01*
X006191Y004925D01*
X006218Y004951D01*
X006274Y005087D01*
X006274Y005233D01*
X006218Y005369D01*
X006114Y005472D01*
X005979Y005528D01*
X005833Y005528D01*
X005796Y005513D01*
X005796Y007117D01*
X005886Y007027D01*
X006065Y007027D01*
X006065Y007487D01*
X006065Y007471D02*
X006105Y007471D01*
X006105Y007313D02*
X006065Y007313D01*
X006065Y007154D02*
X006105Y007154D01*
X006316Y006996D02*
X005796Y006996D01*
X005796Y006837D02*
X006316Y006837D01*
X006316Y006679D02*
X005796Y006679D01*
X005796Y006520D02*
X006316Y006520D01*
X006316Y006362D02*
X005796Y006362D01*
X005796Y006203D02*
X006316Y006203D01*
X006316Y006045D02*
X005796Y006045D01*
X005796Y005886D02*
X006316Y005886D01*
X006316Y005728D02*
X005796Y005728D01*
X005796Y005569D02*
X006316Y005569D01*
X006316Y005411D02*
X006176Y005411D01*
X006266Y005252D02*
X006316Y005252D01*
X006316Y005094D02*
X006274Y005094D01*
X006316Y004935D02*
X006202Y004935D01*
X006444Y004373D02*
X006466Y004351D01*
X006609Y004292D01*
X006763Y004292D01*
X006793Y004305D01*
X006789Y003928D01*
X006788Y003927D01*
X006788Y003878D01*
X006787Y003830D01*
X006788Y003829D01*
X006788Y003827D01*
X006806Y003783D01*
X006813Y003766D01*
X006345Y004234D01*
X006345Y004246D01*
X006424Y004325D01*
X006444Y004373D01*
X006401Y004301D02*
X006587Y004301D01*
X006785Y004301D02*
X006793Y004301D01*
X006791Y004143D02*
X006437Y004143D01*
X006595Y003984D02*
X006789Y003984D01*
X006789Y003826D02*
X006754Y003826D01*
X007289Y003984D02*
X008456Y003984D01*
X008298Y003826D02*
X007443Y003826D01*
X007565Y003703D02*
X007565Y003703D01*
X007601Y003667D02*
X008139Y003667D01*
X008048Y003509D02*
X007674Y003509D01*
X007674Y003350D02*
X008048Y003350D01*
X008048Y003192D02*
X007674Y003192D01*
X007674Y003033D02*
X008048Y003033D01*
X007966Y002875D02*
X007674Y002875D01*
X007674Y002716D02*
X007910Y002716D01*
X007920Y002558D02*
X007674Y002558D01*
X007674Y002399D02*
X008010Y002399D01*
X007674Y002241D02*
X008616Y002241D01*
X008613Y002399D02*
X008585Y002399D01*
X008904Y002656D02*
X008904Y002133D01*
X008132Y001361D01*
X007513Y000814D02*
X006784Y000814D01*
X006942Y000973D02*
X007354Y000973D01*
X007307Y001131D02*
X006989Y001131D01*
X006989Y001290D02*
X007307Y001290D01*
X007307Y001448D02*
X006989Y001448D01*
X006989Y001607D02*
X007057Y001607D01*
X007286Y001607D02*
X007307Y001607D01*
X007628Y002082D02*
X007687Y002082D01*
X007174Y002399D02*
X005671Y002399D01*
X005671Y002558D02*
X007174Y002558D01*
X007174Y002716D02*
X005671Y002716D01*
X005702Y002875D02*
X007174Y002875D01*
X006884Y002241D02*
X003825Y002241D01*
X004054Y002830D02*
X004054Y003861D01*
X004081Y003889D01*
X004735Y003889D01*
X004754Y003908D01*
X004355Y004408D02*
X005154Y004408D01*
X005296Y004350D01*
X005296Y004467D01*
X005154Y004408D01*
X004355Y004408D01*
X004220Y004352D01*
X004229Y004374D01*
X004229Y004460D01*
X004355Y004408D01*
X004231Y004460D02*
X004229Y004460D01*
X003841Y004452D02*
X003841Y013121D01*
X003877Y013156D01*
X003056Y013970D02*
X003047Y013970D01*
X003056Y014128D02*
X002888Y014128D01*
X002833Y014287D02*
X003056Y014287D01*
X003056Y014445D02*
X002991Y014445D01*
X002937Y015079D02*
X003056Y015079D01*
X002291Y015396D02*
X001942Y015396D01*
X002087Y015555D02*
X002147Y015555D01*
X002147Y015713D02*
X002087Y015713D01*
X002087Y015872D02*
X002147Y015872D01*
X002247Y016030D02*
X001986Y016030D01*
X001405Y016189D02*
X001356Y016189D01*
X001356Y017140D02*
X001356Y017140D01*
X001356Y017298D02*
X001417Y017298D01*
X001607Y017298D02*
X001627Y017298D01*
X001627Y017457D02*
X001607Y017457D01*
X001607Y017615D02*
X001627Y017615D01*
X001627Y017774D02*
X001607Y017774D01*
X001607Y017932D02*
X001627Y017932D01*
X001627Y018091D02*
X001607Y018091D01*
X002607Y017140D02*
X002627Y017140D01*
X003003Y017457D02*
X003056Y017457D01*
X003900Y017105D02*
X003900Y016778D01*
X003370Y018463D02*
X003305Y018528D01*
X003347Y018570D01*
X003347Y018607D01*
X003370Y018607D01*
X003370Y018463D01*
X003370Y018566D02*
X003343Y018566D01*
X003347Y019359D02*
X003703Y019359D01*
X004810Y014338D02*
X004739Y014267D01*
X002578Y012285D02*
X002578Y012205D01*
X002422Y012205D01*
X002412Y012196D01*
X002412Y012275D01*
X002393Y012323D01*
X002430Y012285D01*
X002578Y012285D01*
X002578Y012226D02*
X002412Y012226D01*
X001751Y012205D02*
X001422Y012205D01*
X001356Y012139D01*
X001356Y012331D01*
X001422Y012265D01*
X001691Y012265D01*
X001751Y012205D01*
X001730Y012226D02*
X001356Y012226D01*
X001356Y011331D02*
X001422Y011265D01*
X001811Y011265D01*
X001852Y011306D01*
X001852Y011164D01*
X001811Y011205D01*
X001422Y011205D01*
X001356Y011139D01*
X001356Y011331D01*
X001356Y011275D02*
X001412Y011275D01*
X001821Y011275D02*
X001852Y011275D01*
X001852Y010306D02*
X001852Y010164D01*
X001811Y010205D01*
X001422Y010205D01*
X001356Y010139D01*
X001356Y010331D01*
X001422Y010265D01*
X001811Y010265D01*
X001852Y010306D01*
X001851Y010166D02*
X001852Y010166D01*
X001382Y010166D02*
X001356Y010166D01*
X001356Y010324D02*
X001363Y010324D01*
X001356Y009331D02*
X001422Y009265D01*
X001811Y009265D01*
X001852Y009306D01*
X001852Y009164D01*
X001811Y009205D01*
X001422Y009205D01*
X001356Y009139D01*
X001356Y009331D01*
X001356Y009215D02*
X001852Y009215D01*
X004121Y008422D02*
X005585Y008422D01*
X005585Y008581D02*
X005405Y008581D01*
X005406Y008264D02*
X005488Y008264D01*
X005296Y007467D02*
X005296Y007350D01*
X005154Y007408D01*
X004355Y007408D01*
X004171Y007332D01*
X004121Y007282D01*
X004121Y007535D01*
X004171Y007484D01*
X004355Y007408D01*
X005154Y007408D01*
X005296Y007467D01*
X005296Y006467D02*
X005296Y006350D01*
X005154Y006408D01*
X004355Y006408D01*
X004171Y006332D01*
X004121Y006282D01*
X004121Y006535D01*
X004171Y006484D01*
X004355Y006408D01*
X005154Y006408D01*
X005296Y006467D01*
X005296Y006362D02*
X005267Y006362D01*
X005296Y005467D02*
X005296Y005350D01*
X005154Y005408D01*
X004355Y005408D01*
X004171Y005332D01*
X004121Y005282D01*
X004121Y005535D01*
X004171Y005484D01*
X004355Y005408D01*
X005154Y005408D01*
X005296Y005467D01*
X005296Y005411D02*
X005159Y005411D01*
X005277Y004460D02*
X005296Y004460D01*
X004350Y005411D02*
X004121Y005411D01*
X004121Y006362D02*
X004242Y006362D01*
X004136Y006520D02*
X004121Y006520D01*
X004121Y007313D02*
X004152Y007313D01*
X004121Y007471D02*
X004204Y007471D01*
X003056Y005411D02*
X002957Y005411D01*
X001852Y004306D02*
X001852Y004164D01*
X001811Y004205D01*
X001422Y004205D01*
X001356Y004139D01*
X001356Y004331D01*
X001422Y004265D01*
X001811Y004265D01*
X001852Y004306D01*
X001852Y004301D02*
X001847Y004301D01*
X001386Y004301D02*
X001356Y004301D01*
X001356Y004143D02*
X001359Y004143D01*
X002983Y003033D02*
X003056Y003033D01*
X003056Y002399D02*
X002945Y002399D01*
X003776Y003922D02*
X003776Y004064D01*
X003860Y004064D01*
X003844Y004047D01*
X003816Y004020D01*
X003776Y003922D01*
X003776Y003984D02*
X003802Y003984D01*
X004485Y003350D02*
X004724Y003350D01*
X004641Y003192D02*
X004569Y003192D01*
X004569Y003033D02*
X004641Y003033D01*
X004641Y002875D02*
X004569Y002875D01*
X004569Y002716D02*
X004641Y002716D01*
X004641Y002558D02*
X004569Y002558D01*
X004569Y002399D02*
X004641Y002399D01*
X004641Y002082D02*
X005718Y002082D01*
X005560Y001924D02*
X004800Y001924D01*
X004958Y001765D02*
X005401Y001765D01*
X005339Y001607D02*
X005020Y001607D01*
X005020Y001448D02*
X005339Y001448D01*
X005339Y001290D02*
X005020Y001290D01*
X005020Y001131D02*
X005339Y001131D01*
X005386Y000973D02*
X004974Y000973D01*
X004815Y000814D02*
X005544Y000814D01*
X005703Y000656D02*
X004657Y000656D01*
X006625Y000656D02*
X007671Y000656D01*
X008594Y000656D02*
X009640Y000656D01*
X009481Y000814D02*
X008752Y000814D01*
X008911Y000973D02*
X009323Y000973D01*
X009276Y001131D02*
X008957Y001131D01*
X008957Y001290D02*
X009276Y001290D01*
X009276Y001448D02*
X008957Y001448D01*
X008957Y001607D02*
X009276Y001607D01*
X009338Y001765D02*
X008932Y001765D01*
X009091Y001924D02*
X009497Y001924D01*
X009655Y002082D02*
X009184Y002082D01*
X009184Y002241D02*
X009995Y002241D01*
X010154Y002399D02*
X009196Y002399D01*
X009283Y002558D02*
X010312Y002558D01*
X010471Y002716D02*
X009292Y002716D01*
X009234Y002875D02*
X010629Y002875D01*
X010788Y003033D02*
X009009Y003033D01*
X008799Y003033D02*
X008548Y003033D01*
X008548Y003192D02*
X009692Y003192D01*
X009534Y003350D02*
X008548Y003350D01*
X008688Y003509D02*
X009501Y003509D01*
X009501Y003667D02*
X008846Y003667D01*
X009005Y003826D02*
X009501Y003826D01*
X009501Y003984D02*
X009163Y003984D01*
X009264Y004143D02*
X009501Y004143D01*
X009501Y004301D02*
X009264Y004301D01*
X009264Y004460D02*
X009501Y004460D01*
X009501Y004618D02*
X009264Y004618D01*
X009266Y004777D02*
X009501Y004777D01*
X009501Y004935D02*
X009377Y004935D01*
X009402Y005094D02*
X009501Y005094D01*
X009501Y005252D02*
X009361Y005252D01*
X009501Y005411D02*
X009215Y005411D01*
X008813Y005411D02*
X008168Y005411D01*
X008013Y005411D02*
X007308Y005411D01*
X007310Y005569D02*
X007517Y005569D01*
X007517Y005454D02*
X008013Y005454D01*
X008013Y005872D01*
X007673Y005872D01*
X007627Y005860D01*
X007586Y005836D01*
X007553Y005802D01*
X007529Y005761D01*
X007517Y005716D01*
X007517Y005454D01*
X007517Y005252D02*
X007306Y005252D01*
X007304Y005094D02*
X007517Y005094D01*
X007569Y004935D02*
X007302Y004935D01*
X007300Y004777D02*
X008763Y004777D01*
X008764Y004618D02*
X007298Y004618D01*
X007296Y004460D02*
X008764Y004460D01*
X008764Y004301D02*
X007293Y004301D01*
X007291Y004143D02*
X008615Y004143D01*
X008612Y004935D02*
X008652Y004935D01*
X008664Y005252D02*
X008668Y005252D01*
X008664Y005569D02*
X009620Y005569D01*
X009636Y005553D02*
X009648Y005553D01*
X009636Y005553D01*
X009648Y005553D02*
X009648Y005553D01*
X009501Y005728D02*
X008661Y005728D01*
X008647Y006045D02*
X009005Y006045D01*
X008776Y006203D02*
X008684Y006203D01*
X008684Y006362D02*
X008748Y006362D01*
X008763Y006520D02*
X008684Y006520D01*
X008684Y006679D02*
X008751Y006679D01*
X008751Y006837D02*
X008684Y006837D01*
X009484Y006362D02*
X009592Y006362D01*
X009505Y006203D02*
X010252Y006203D01*
X010311Y006362D02*
X011596Y006362D01*
X011596Y006520D02*
X010401Y006520D01*
X010401Y006679D02*
X010656Y006679D01*
X010702Y006649D02*
X010702Y006649D01*
X010880Y006649D02*
X010880Y006649D01*
X010916Y006673D02*
X010916Y006673D01*
X010921Y006679D02*
X011596Y006679D01*
X011426Y006769D02*
X011426Y006769D01*
X011406Y006785D02*
X011406Y006785D01*
X011346Y006829D02*
X011346Y006829D01*
X011334Y006837D02*
X011104Y006837D01*
X011186Y006949D02*
X011186Y006949D01*
X011206Y006933D02*
X011206Y006933D01*
X011286Y006873D02*
X011286Y006873D01*
X011294Y006869D02*
X011294Y006869D01*
X011294Y006869D01*
X011302Y006861D02*
X011302Y006861D01*
X011326Y006845D02*
X011326Y006845D01*
X011596Y006203D02*
X010721Y006203D01*
X010842Y006045D02*
X011596Y006045D01*
X011596Y005886D02*
X010875Y005886D01*
X010840Y005728D02*
X011596Y005728D01*
X011596Y005569D02*
X010737Y005569D01*
X010737Y005411D02*
X011596Y005411D01*
X011596Y005252D02*
X010737Y005252D01*
X010737Y005094D02*
X011596Y005094D01*
X011579Y004935D02*
X010845Y004935D01*
X011004Y004777D02*
X011678Y004777D01*
X011688Y004767D02*
X011688Y004767D01*
X011837Y004618D02*
X011162Y004618D01*
X011321Y004460D02*
X011995Y004460D01*
X012154Y004301D02*
X011479Y004301D01*
X011638Y004143D02*
X012280Y004143D01*
X011248Y003826D02*
X010296Y003826D01*
X010401Y003720D02*
X010401Y003720D01*
X010401Y003667D02*
X011226Y003667D01*
X011116Y003509D02*
X010401Y003509D01*
X010369Y003350D02*
X011091Y003350D01*
X010946Y003192D02*
X010210Y003192D01*
X010386Y003984D02*
X011089Y003984D01*
X010931Y004143D02*
X010401Y004143D01*
X010401Y004301D02*
X010772Y004301D01*
X010614Y004460D02*
X010401Y004460D01*
X010455Y004618D02*
X010329Y004618D01*
X010099Y005886D02*
X010035Y005886D01*
X009942Y006045D02*
X010131Y006045D01*
X009594Y006045D02*
X009471Y006045D01*
X009501Y005886D02*
X007314Y005886D01*
X007312Y005728D02*
X007520Y005728D01*
X007534Y006045D02*
X007316Y006045D01*
X007318Y006203D02*
X007497Y006203D01*
X008013Y005728D02*
X008168Y005728D01*
X008168Y005569D02*
X008013Y005569D01*
X008013Y005252D02*
X008168Y005252D01*
X008168Y005094D02*
X008013Y005094D01*
X008013Y004935D02*
X008168Y004935D01*
X006816Y006020D02*
X006816Y007069D01*
X006829Y007056D01*
X006816Y006020D01*
X006816Y006045D02*
X006816Y006045D01*
X006816Y006203D02*
X006818Y006203D01*
X006816Y006362D02*
X006820Y006362D01*
X006816Y006520D02*
X006822Y006520D01*
X006816Y006679D02*
X006824Y006679D01*
X006816Y006837D02*
X006826Y006837D01*
X006816Y006996D02*
X006828Y006996D01*
X008085Y008507D02*
X007900Y008692D01*
X009506Y007088D02*
X009533Y007061D01*
X009553Y007081D01*
X009531Y007102D01*
X009517Y007088D01*
X009506Y007088D01*
X010354Y006837D02*
X010446Y006837D01*
X010401Y006789D02*
X010401Y006789D01*
X011185Y007620D02*
X011185Y007620D01*
X011181Y007630D02*
X011198Y007630D01*
X011153Y007680D02*
X011153Y007680D01*
X011045Y007788D02*
X011409Y007788D01*
X013951Y003782D02*
X013983Y003751D01*
X015847Y004301D02*
X015856Y004301D01*
X016416Y004271D02*
X016416Y004199D01*
X016422Y004205D01*
X016811Y004205D01*
X016878Y004139D01*
X016878Y004331D01*
X016811Y004265D01*
X016422Y004265D01*
X016416Y004271D01*
X016847Y004301D02*
X016878Y004301D01*
X016874Y004143D02*
X016878Y004143D01*
X016878Y002241D02*
X010702Y002241D01*
X010547Y002082D02*
X011624Y002082D01*
X011465Y001924D02*
X010705Y001924D01*
X010864Y001765D02*
X011307Y001765D01*
X011244Y001607D02*
X010926Y001607D01*
X010926Y001448D02*
X011244Y001448D01*
X011244Y001290D02*
X010926Y001290D01*
X010926Y001131D02*
X011244Y001131D01*
X011291Y000973D02*
X010879Y000973D01*
X010721Y000814D02*
X011450Y000814D01*
X011608Y000656D02*
X010562Y000656D01*
X006784Y001924D02*
X006768Y001924D01*
X006794Y002082D02*
X006610Y002082D01*
X005762Y003288D02*
X005754Y003298D01*
X001394Y013177D02*
X001356Y013177D01*
X001356Y014287D02*
X001401Y014287D01*
X016836Y001290D02*
X016878Y001290D01*
D11*
X010171Y003478D02*
X010098Y003405D01*
X009805Y003405D01*
X009731Y003478D01*
X009731Y003625D01*
X009805Y003698D01*
X009805Y003865D02*
X009805Y003938D01*
X009731Y003938D01*
X009731Y003865D01*
X009805Y003865D01*
X009731Y004095D02*
X010171Y004095D01*
X009951Y004095D02*
X009951Y004389D01*
X010171Y004389D02*
X009731Y004389D01*
X009731Y004556D02*
X009731Y004629D01*
X009805Y004629D01*
X009805Y004556D01*
X009731Y004556D01*
X009731Y004786D02*
X009731Y004933D01*
X009731Y004859D02*
X010171Y004859D01*
X010171Y004786D02*
X010171Y004933D01*
X010171Y005323D02*
X009731Y005323D01*
X009878Y005323D02*
X009878Y005543D01*
X009951Y005616D01*
X010098Y005616D01*
X010171Y005543D01*
X010171Y005323D01*
X009805Y005166D02*
X009731Y005166D01*
X009731Y005093D01*
X009805Y005093D01*
X009805Y005166D01*
X009805Y005783D02*
X009805Y005857D01*
X009731Y005857D01*
X009731Y005783D01*
X009805Y005783D01*
X009275Y006167D02*
X008981Y006314D01*
X009275Y006461D01*
X009348Y006627D02*
X009421Y006701D01*
X009421Y006848D01*
X009348Y006921D01*
X009275Y006921D01*
X008981Y006627D01*
X008981Y006921D01*
X008981Y007088D02*
X008981Y007161D01*
X009055Y007161D01*
X009055Y007088D01*
X008981Y007088D01*
X009055Y007318D02*
X008981Y007391D01*
X008981Y007538D01*
X009055Y007611D01*
X009201Y007611D01*
X009275Y007538D01*
X009275Y007465D01*
X009201Y007318D01*
X009421Y007318D01*
X009421Y007611D01*
X009731Y007688D02*
X009731Y007395D01*
X010171Y007395D01*
X010025Y007228D02*
X009731Y007228D01*
X009951Y007228D02*
X009951Y006934D01*
X010025Y006934D02*
X010171Y007081D01*
X010025Y007228D01*
X010025Y006934D02*
X009731Y006934D01*
X009805Y006767D02*
X009731Y006694D01*
X009731Y006547D01*
X009805Y006474D01*
X009951Y006547D02*
X009951Y006694D01*
X009878Y006767D01*
X009805Y006767D01*
X009951Y006547D02*
X010025Y006474D01*
X010098Y006474D01*
X010171Y006547D01*
X010171Y006694D01*
X010098Y006767D01*
X010098Y007855D02*
X010025Y007855D01*
X009951Y007928D01*
X009951Y008075D01*
X009878Y008149D01*
X009805Y008149D01*
X009731Y008075D01*
X009731Y007928D01*
X009805Y007855D01*
X010098Y007855D02*
X010171Y007928D01*
X010171Y008075D01*
X010098Y008149D01*
X010025Y008315D02*
X010171Y008462D01*
X010025Y008609D01*
X009731Y008609D01*
X009951Y008609D02*
X009951Y008315D01*
X010025Y008315D02*
X009731Y008315D01*
X009421Y008385D02*
X009421Y008532D01*
X009421Y008459D02*
X009055Y008459D01*
X008981Y008385D01*
X008981Y008312D01*
X009055Y008239D01*
X009128Y008699D02*
X009421Y008993D01*
X009421Y009159D02*
X008981Y009159D01*
X009128Y009306D01*
X008981Y009453D01*
X009421Y009453D01*
X009731Y009456D02*
X009731Y009236D01*
X010171Y009236D01*
X010171Y009456D01*
X010098Y009530D01*
X009805Y009530D01*
X009731Y009456D01*
X009731Y009697D02*
X009731Y009843D01*
X009731Y009770D02*
X010171Y009770D01*
X010171Y009697D02*
X010171Y009843D01*
X010171Y010004D02*
X010171Y010224D01*
X010098Y010297D01*
X009951Y010297D01*
X009878Y010224D01*
X009878Y010004D01*
X009731Y010004D02*
X010171Y010004D01*
X009421Y008699D02*
X008981Y008699D01*
X009201Y008772D02*
X008981Y008993D01*
X010098Y003698D02*
X010171Y003625D01*
X010171Y003478D01*
D12*
X008085Y007507D03*
X008085Y008507D03*
X007085Y008507D03*
X006085Y008507D03*
X006085Y007507D03*
X007085Y007507D03*
D13*
X006817Y016762D03*
X007727Y016762D03*
X008637Y016762D03*
X009719Y016747D03*
X010628Y016747D03*
X011538Y016747D03*
X012534Y016747D03*
X013443Y016747D03*
X014353Y016747D03*
X005719Y016778D03*
X004810Y016778D03*
X003900Y016778D03*
D14*
X004810Y014338D03*
X007727Y014322D03*
X010628Y014306D03*
X013443Y014306D03*
D15*
X014038Y018684D03*
X012069Y018684D03*
X010101Y018684D03*
X008132Y018684D03*
X006164Y018684D03*
X004195Y018684D03*
X006169Y009771D03*
X006164Y001361D03*
X008132Y001361D03*
X010101Y001361D03*
X012069Y001361D03*
X014038Y001361D03*
X013983Y003751D03*
X004195Y001361D03*
D16*
X008090Y005377D03*
X008090Y006479D03*
X005378Y011052D03*
X005378Y012155D03*
D17*
X013672Y008625D03*
X014420Y008625D03*
D18*
X005054Y008908D02*
X004454Y008908D01*
X004454Y007908D02*
X005054Y007908D01*
X005054Y006908D02*
X004454Y006908D01*
X004454Y005908D02*
X005054Y005908D01*
X005054Y004908D02*
X004454Y004908D01*
X004454Y003908D02*
X005054Y003908D01*
D19*
X001617Y000735D03*
X015617Y000735D03*
D20*
X016617Y000735D03*
X016617Y001735D03*
X016617Y002735D03*
X016617Y003735D03*
X016617Y004735D03*
X016617Y005735D03*
X016617Y006735D03*
X016617Y007735D03*
X016617Y008735D03*
X016617Y009735D03*
X016617Y010735D03*
X016617Y011735D03*
X016617Y012735D03*
X016617Y013735D03*
X016617Y014735D03*
X016617Y015735D03*
X016617Y016735D03*
X016617Y017735D03*
X015617Y017735D03*
X015617Y016735D03*
X015617Y015735D03*
X015617Y014735D03*
X015617Y013735D03*
X015617Y012735D03*
X015617Y011735D03*
X015617Y010735D03*
X015617Y009735D03*
X015617Y008735D03*
X015617Y007735D03*
X015617Y006735D03*
X015617Y005735D03*
X015617Y004735D03*
X015617Y003735D03*
X015617Y002735D03*
X015617Y001735D03*
X002617Y001735D03*
X002617Y000735D03*
X001617Y001735D03*
X001617Y002735D03*
X001617Y003735D03*
X001617Y004735D03*
X001617Y005735D03*
X001617Y006735D03*
X001617Y007735D03*
X001617Y008735D03*
X001617Y009735D03*
X001617Y010735D03*
X001617Y011735D03*
X001617Y012735D03*
X001617Y013735D03*
X001617Y014735D03*
X001617Y015735D03*
X001617Y016735D03*
X001617Y017735D03*
X002617Y017735D03*
X002617Y016735D03*
X002617Y015735D03*
X002617Y014735D03*
X002617Y013735D03*
X002617Y012735D03*
X002617Y011735D03*
X002617Y010735D03*
X002617Y009735D03*
X002617Y008735D03*
X002617Y007735D03*
X002617Y006735D03*
X002617Y005735D03*
X002617Y004735D03*
X002617Y003735D03*
X002617Y002735D03*
D21*
X006747Y013058D03*
X007347Y013058D03*
X010545Y013038D03*
X011145Y013038D03*
X013561Y011755D03*
X014161Y011755D03*
X013822Y009479D03*
X013222Y009479D03*
X002917Y018967D03*
X002317Y018967D03*
D22*
X013719Y013349D03*
D23*
X005156Y002830D03*
X004054Y002830D03*
D24*
X014144Y005696D03*
X014144Y006696D03*
X014144Y007696D03*
D25*
X014144Y010633D03*
D26*
X009874Y010862D03*
X009874Y011462D03*
D27*
X010483Y007285D03*
X010995Y007289D03*
X011295Y007285D03*
X011299Y007285D03*
D28*
X010487Y007285D03*
D29*
X010491Y007285D03*
D30*
X010495Y007285D03*
X010979Y007261D03*
D31*
X011359Y007285D03*
X011363Y007285D03*
X011619Y007285D03*
X010499Y007285D03*
D32*
X010503Y007285D03*
D33*
X010507Y007285D03*
X011379Y007285D03*
X011615Y007285D03*
D34*
X010511Y007285D03*
D35*
X010515Y007285D03*
D36*
X010519Y007285D03*
D37*
X010523Y007285D03*
X011607Y007285D03*
D38*
X011415Y007285D03*
X010527Y007285D03*
D39*
X010531Y007285D03*
D40*
X010535Y007285D03*
X011427Y007285D03*
D41*
X011599Y007285D03*
X010539Y007285D03*
D42*
X010543Y007285D03*
X011435Y007285D03*
X011439Y007285D03*
D43*
X011443Y007285D03*
X010547Y007285D03*
D44*
X010551Y007285D03*
D45*
X010555Y007285D03*
X011447Y007285D03*
X011595Y007285D03*
D46*
X011455Y007285D03*
X010559Y007285D03*
D47*
X010563Y007285D03*
X011459Y007285D03*
D48*
X011463Y007285D03*
X010567Y007285D03*
D49*
X010571Y007285D03*
D50*
X010575Y007285D03*
X011467Y007285D03*
X011587Y007285D03*
D51*
X010583Y007285D03*
X010579Y007285D03*
D52*
X010587Y007285D03*
X011583Y007285D03*
D53*
X010591Y007285D03*
D54*
X010595Y007285D03*
D55*
X010599Y007285D03*
X010603Y007285D03*
D56*
X010607Y007285D03*
X011575Y007285D03*
D57*
X010611Y007285D03*
D58*
X010615Y007285D03*
X010619Y007285D03*
D59*
X010623Y007285D03*
X010627Y007285D03*
D60*
X010631Y007285D03*
D61*
X010635Y007285D03*
X011567Y007285D03*
D62*
X010643Y007285D03*
X010639Y007285D03*
D63*
X010647Y007285D03*
X010655Y007285D03*
X011563Y007285D03*
D64*
X010651Y007285D03*
D65*
X010659Y007285D03*
X010663Y007285D03*
X011527Y007285D03*
X011559Y007285D03*
D66*
X011555Y007285D03*
X011535Y007285D03*
X010667Y007285D03*
D67*
X010671Y007285D03*
X011531Y007285D03*
D68*
X011539Y007285D03*
X010907Y007289D03*
X010683Y007285D03*
X010679Y007285D03*
X010675Y007285D03*
D69*
X010687Y007285D03*
X010903Y007285D03*
X011543Y007285D03*
X011547Y007285D03*
D70*
X010691Y007285D03*
D71*
X010695Y007285D03*
X010699Y007285D03*
X010899Y007285D03*
D72*
X010707Y007285D03*
X010703Y007285D03*
D73*
X010711Y007287D03*
D74*
X010715Y007287D03*
X010719Y007287D03*
D75*
X010723Y007287D03*
X010727Y007287D03*
D76*
X010731Y007285D03*
D77*
X010735Y007285D03*
D78*
X010739Y007283D03*
D79*
X010743Y007285D03*
X010835Y007285D03*
D80*
X010747Y007285D03*
D81*
X010751Y007285D03*
D82*
X010755Y007285D03*
X010823Y007285D03*
D83*
X010819Y007285D03*
X010759Y007285D03*
D84*
X010763Y007285D03*
X010815Y007285D03*
D85*
X010767Y007283D03*
D86*
X010771Y007285D03*
D87*
X010775Y007285D03*
X010803Y007285D03*
X010807Y007285D03*
D88*
X010799Y007283D03*
X010783Y007283D03*
X010779Y007283D03*
D89*
X010787Y007285D03*
X010795Y007285D03*
D90*
X010791Y007285D03*
D91*
X010811Y007283D03*
D92*
X010827Y007285D03*
D93*
X010831Y007285D03*
D94*
X010867Y007275D03*
X010879Y007279D03*
D95*
X010871Y007277D03*
D96*
X010875Y007277D03*
D97*
X010883Y007279D03*
X010887Y007279D03*
D98*
X010891Y007281D03*
D99*
X010895Y007283D03*
D100*
X010911Y007291D03*
D101*
X010915Y007291D03*
X010919Y007291D03*
D102*
X010923Y007391D03*
D103*
X010939Y007059D03*
X010927Y007055D03*
X010923Y007055D03*
D104*
X010927Y007393D03*
D105*
X010931Y007393D03*
D106*
X010931Y007057D03*
D107*
X010935Y007393D03*
D108*
X010935Y007057D03*
D109*
X010939Y007397D03*
D110*
X010943Y007399D03*
D111*
X010947Y007097D03*
X010943Y007093D03*
X011319Y007177D03*
X011323Y007173D03*
D112*
X010943Y006987D03*
D113*
X010947Y007401D03*
X011355Y007285D03*
D114*
X011095Y007285D03*
X010947Y006969D03*
D115*
X010951Y007403D03*
D116*
X010951Y007103D03*
X011391Y007447D03*
D117*
X011479Y007397D03*
X010955Y007413D03*
D118*
X011023Y007285D03*
X011179Y007285D03*
X011339Y007165D03*
X010955Y007105D03*
D119*
X010959Y007419D03*
D120*
X010959Y007111D03*
X011343Y007163D03*
D121*
X011399Y007353D03*
X010963Y007417D03*
D122*
X010963Y007117D03*
D123*
X010967Y007415D03*
D124*
X011019Y007287D03*
X010967Y007123D03*
D125*
X010971Y007409D03*
X011631Y007285D03*
D126*
X011351Y007167D03*
X010971Y007131D03*
D127*
X010975Y007403D03*
D128*
X010975Y007149D03*
D129*
X011139Y007285D03*
X011143Y007285D03*
X010979Y007513D03*
D130*
X010983Y007511D03*
X011007Y007411D03*
D131*
X010983Y007263D03*
D132*
X010987Y007267D03*
D133*
X010991Y007271D03*
X011471Y007391D03*
D134*
X010995Y007119D03*
D135*
X010999Y007291D03*
D136*
X011003Y007411D03*
D137*
X011003Y007257D03*
X011247Y007285D03*
X011515Y007485D03*
X011639Y007285D03*
D138*
X011495Y007473D03*
X011499Y007477D03*
X011007Y007257D03*
D139*
X011011Y007415D03*
D140*
X011011Y007287D03*
D141*
X011011Y007173D03*
D142*
X011015Y007415D03*
D143*
X011015Y007287D03*
D144*
X011119Y007285D03*
X011015Y007169D03*
D145*
X011019Y007417D03*
D146*
X011043Y007287D03*
X011019Y007167D03*
D147*
X011027Y007161D03*
X011023Y007417D03*
D148*
X011023Y007163D03*
D149*
X011027Y007419D03*
D150*
X011027Y007287D03*
X011383Y007443D03*
X011407Y007111D03*
D151*
X011031Y007287D03*
D152*
X011031Y007157D03*
D153*
X011035Y007287D03*
D154*
X011039Y007287D03*
D155*
X011091Y007285D03*
D156*
X011099Y007285D03*
D157*
X011103Y007285D03*
D158*
X011107Y007285D03*
D159*
X011111Y007285D03*
D160*
X011115Y007285D03*
D161*
X011123Y007285D03*
X011127Y007285D03*
D162*
X011131Y007285D03*
D163*
X011135Y007285D03*
D164*
X011147Y007285D03*
D165*
X011151Y007285D03*
D166*
X011155Y007285D03*
X011159Y007285D03*
D167*
X011163Y007285D03*
D168*
X011167Y007285D03*
X011403Y007109D03*
D169*
X011171Y007287D03*
D170*
X011175Y007285D03*
X011327Y007169D03*
X011335Y007165D03*
X011387Y007445D03*
D171*
X011183Y007285D03*
X011347Y007165D03*
D172*
X011187Y007285D03*
D173*
X011191Y007285D03*
D174*
X011195Y007285D03*
D175*
X011199Y007285D03*
X011203Y007285D03*
D176*
X011207Y007285D03*
D177*
X011211Y007285D03*
D178*
X011215Y007285D03*
X011219Y007285D03*
D179*
X011223Y007285D03*
X011319Y007357D03*
X011323Y007361D03*
X011327Y007365D03*
D180*
X011339Y007369D03*
X011227Y007285D03*
D181*
X011231Y007285D03*
D182*
X011235Y007285D03*
D183*
X011239Y007285D03*
D184*
X011243Y007285D03*
X011507Y007481D03*
D185*
X011251Y007285D03*
D186*
X011255Y007285D03*
D187*
X011259Y007285D03*
D188*
X011263Y007285D03*
X011267Y007285D03*
D189*
X011271Y007285D03*
D190*
X011275Y007285D03*
X011635Y007285D03*
D191*
X011283Y007285D03*
X011279Y007285D03*
D192*
X011287Y007285D03*
D193*
X011291Y007285D03*
D194*
X011303Y007285D03*
D195*
X011307Y007285D03*
D196*
X011311Y007285D03*
D197*
X011315Y007285D03*
D198*
X011331Y007365D03*
D199*
X011331Y007169D03*
D200*
X011475Y007099D03*
X011335Y007367D03*
D201*
X011343Y007369D03*
X011347Y007369D03*
D202*
X011351Y007367D03*
D203*
X011367Y007285D03*
D204*
X011371Y007285D03*
D205*
X011375Y007283D03*
D206*
X011383Y007217D03*
D207*
X011387Y007275D03*
X011395Y007279D03*
D208*
X011387Y007117D03*
X011395Y007113D03*
D209*
X011391Y007277D03*
D210*
X011391Y007113D03*
D211*
X011395Y007447D03*
D212*
X011399Y007111D03*
D213*
X011403Y007355D03*
D214*
X011407Y007353D03*
D215*
X011411Y007285D03*
D216*
X011419Y007285D03*
X011423Y007285D03*
X011603Y007285D03*
D217*
X011431Y007285D03*
D218*
X011451Y007285D03*
D219*
X011471Y007105D03*
D220*
X011499Y007155D03*
X011503Y007155D03*
X011475Y007395D03*
D221*
X011479Y007097D03*
D222*
X011483Y007399D03*
D223*
X011483Y007095D03*
D224*
X011487Y007397D03*
D225*
X011487Y007099D03*
D226*
X011491Y007285D03*
D227*
X011495Y007159D03*
X011507Y007151D03*
D228*
X011503Y007479D03*
D229*
X011511Y007483D03*
D230*
X011511Y007149D03*
D231*
X011515Y007149D03*
X011519Y007149D03*
D232*
X011519Y007483D03*
D233*
X011523Y007483D03*
D234*
X011523Y007149D03*
D235*
X011551Y007285D03*
D236*
X011571Y007285D03*
D237*
X011579Y007283D03*
D238*
X011591Y007285D03*
D239*
X011611Y007285D03*
D240*
X011623Y007285D03*
D241*
X011627Y007285D03*
D242*
X011643Y007287D03*
D243*
X011647Y007283D03*
D244*
X010487Y005889D03*
X009014Y005074D03*
X007406Y005280D03*
X006686Y004680D03*
X006095Y004544D03*
X006350Y003288D03*
X006938Y003288D03*
X007886Y003120D03*
X008298Y002660D03*
X008904Y002656D03*
X007172Y001979D03*
X005762Y003288D03*
X003841Y004452D03*
X002132Y003271D03*
X007406Y006600D03*
X007559Y009550D03*
X007406Y010020D03*
X007526Y010860D03*
X007106Y011220D03*
X006146Y010920D03*
X006746Y012288D03*
X008069Y012361D03*
X009266Y010860D03*
X008282Y009644D03*
X010646Y011940D03*
X011366Y012180D03*
X011932Y011629D03*
X012866Y010860D03*
X013315Y010831D03*
X014369Y009928D03*
X015278Y011239D03*
X015266Y012240D03*
X014341Y012495D03*
X012920Y013302D03*
X012774Y015637D03*
X012251Y015562D03*
X010294Y015365D03*
X008400Y015912D03*
X007365Y015373D03*
X006942Y015912D03*
X006506Y015720D03*
X006266Y016200D03*
X007219Y017570D03*
X007152Y019156D03*
X009109Y019156D03*
X011101Y019156D03*
X014432Y015893D03*
X010046Y012420D03*
X010826Y010740D03*
X011246Y010020D03*
X010826Y009420D03*
X011906Y009360D03*
X011906Y010020D03*
X012626Y009000D03*
X013058Y008652D03*
X014520Y007204D03*
X014532Y006208D03*
X013715Y004708D03*
X012668Y004141D03*
X011479Y003371D03*
X014606Y003060D03*
X016136Y003310D03*
X004778Y015660D03*
X003877Y013156D03*
X004310Y012656D03*
X004739Y012869D03*
X004706Y012000D03*
X002966Y012240D03*
X003191Y010251D03*
D245*
X004739Y012869D02*
X004739Y014267D01*
X004810Y014338D02*
X005251Y014779D01*
X005251Y015920D01*
X004810Y016361D01*
X004810Y016778D01*
X004810Y017239D01*
X006164Y018593D01*
X006164Y018684D01*
X006306Y017806D02*
X006747Y017806D01*
X007152Y018211D01*
X007152Y019156D01*
X007727Y018278D02*
X007727Y016762D01*
X007727Y015373D01*
X007365Y015373D01*
X007727Y015373D02*
X007727Y014322D01*
X008637Y016762D02*
X008637Y017901D01*
X009113Y018377D01*
X009113Y019267D01*
X009109Y019156D01*
X008132Y018684D02*
X007727Y018278D01*
X006306Y017806D02*
X005719Y017220D01*
X005719Y016778D01*
X010101Y018684D02*
X010628Y018156D01*
X010628Y016747D01*
X010628Y015357D01*
X010628Y014306D01*
X010621Y015365D02*
X010294Y015365D01*
X011538Y016747D02*
X011538Y017443D01*
X011101Y017881D01*
X011101Y019156D01*
X012069Y018684D02*
X013443Y017310D01*
X013443Y016747D01*
X013443Y014306D01*
X012920Y013783D01*
X012920Y013302D01*
D246*
X014841Y010574D02*
X014841Y008609D01*
X014841Y007708D01*
X015109Y007440D01*
X015146Y007440D01*
X015146Y007080D01*
X014841Y006775D01*
X014841Y006251D01*
X014841Y006164D01*
X014841Y003060D01*
X014841Y002164D01*
X014038Y001361D01*
X014841Y010574D02*
X014841Y016952D01*
X014636Y016747D01*
X014353Y016747D01*
X014841Y016952D02*
X014841Y017719D01*
X014857Y017735D01*
X015617Y017735D01*
X014841Y017719D02*
X014841Y017881D01*
X014038Y018684D01*
X004195Y018684D02*
X003912Y018967D01*
X002917Y018967D01*
X002317Y018967D02*
X002317Y018571D01*
X002534Y018353D01*
X002971Y018353D01*
X003416Y017908D01*
X003416Y017385D01*
X003416Y011298D01*
X003416Y010491D01*
X003416Y002141D01*
X004195Y001361D01*
D247*
X005156Y002830D02*
X005304Y002830D01*
X005762Y003288D01*
X005546Y003505D01*
X005546Y007967D01*
X006085Y008507D01*
X005378Y009214D01*
X005378Y011052D01*
X006146Y010920D02*
X006146Y016080D01*
X006266Y016200D01*
X006206Y016140D01*
X006506Y015720D02*
X006446Y015660D01*
X006446Y014940D01*
X006446Y013020D01*
X006709Y013020D01*
X006747Y013058D01*
X006446Y013020D02*
X006446Y011040D01*
X007085Y010401D01*
X007085Y008507D01*
X006566Y009374D02*
X006169Y009771D01*
X006566Y009374D02*
X006566Y004800D01*
X006686Y004680D01*
X006095Y004544D02*
X006095Y004130D01*
X006938Y003288D01*
X007424Y003491D02*
X007038Y003877D01*
X007085Y007507D01*
X007406Y006600D02*
X007970Y006600D01*
X007991Y006598D01*
X008011Y006593D01*
X008031Y006584D01*
X008048Y006572D01*
X008063Y006557D01*
X008075Y006540D01*
X008084Y006520D01*
X008089Y006500D01*
X008091Y006479D01*
X008090Y005377D02*
X007993Y005280D01*
X007406Y005280D01*
X007886Y005172D02*
X007886Y003120D01*
X008298Y003472D02*
X008298Y002660D01*
X008298Y003472D02*
X009014Y004189D01*
X009014Y005074D01*
X008090Y005377D02*
X007886Y005172D01*
X007424Y003491D02*
X007424Y002231D01*
X007172Y001979D01*
X006350Y003288D02*
X006352Y003290D01*
X005786Y003856D01*
X005786Y005040D01*
X005906Y005160D01*
X007900Y008692D02*
X007900Y012192D01*
X008069Y012361D01*
X008282Y012037D02*
X008426Y012180D01*
X008426Y013440D01*
X008726Y013740D01*
X008726Y015748D01*
X008562Y015912D01*
X008400Y015912D01*
X009026Y015420D02*
X009746Y016140D01*
X009746Y016719D01*
X009719Y016747D01*
X009026Y015420D02*
X009026Y013680D01*
X008786Y013440D01*
X008786Y009780D01*
X008282Y009644D02*
X008282Y012037D01*
X007347Y011461D02*
X007347Y013058D01*
X006746Y012288D02*
X006686Y012228D01*
X006686Y011160D01*
X007286Y010560D01*
X007286Y010140D01*
X007406Y010020D01*
X007706Y009697D02*
X007559Y009550D01*
X007706Y009697D02*
X007706Y010680D01*
X007526Y010860D01*
X007106Y011220D02*
X007347Y011461D01*
X009266Y010860D02*
X009508Y010862D01*
X009874Y010862D01*
X009874Y011462D02*
X009874Y012248D01*
X010046Y012420D01*
X010545Y012041D02*
X010545Y013038D01*
X010545Y012041D02*
X010646Y011940D01*
X011366Y012180D02*
X011719Y012533D01*
X011719Y012806D01*
X011719Y013038D02*
X011719Y015030D01*
X012251Y015562D01*
X012774Y015601D02*
X012774Y015637D01*
X012774Y015601D02*
X012085Y014912D01*
X012085Y012179D01*
X011966Y012060D01*
X011726Y012060D01*
X011606Y011940D01*
X011606Y010200D01*
X011426Y010020D01*
X011246Y010020D01*
X010826Y009420D02*
X010826Y010740D01*
X011906Y010020D02*
X011906Y009360D01*
X012420Y009206D02*
X012626Y009000D01*
X012420Y009206D02*
X012420Y014731D01*
X013128Y015440D01*
X013128Y015893D01*
X012534Y016487D01*
X013531Y013326D02*
X013106Y012900D01*
X013106Y011280D01*
X012866Y011040D01*
X012866Y010860D01*
X012206Y011295D02*
X012206Y008880D01*
X011846Y008520D01*
X011846Y004996D01*
X011829Y004979D01*
X012668Y004141D01*
X013589Y004834D02*
X013715Y004708D01*
X013211Y005211D01*
X013211Y007621D01*
X013286Y007696D01*
X014144Y007696D01*
X013841Y007204D02*
X014520Y007204D01*
X013841Y007204D02*
X013621Y006983D01*
X013621Y006042D01*
X013967Y005696D01*
X014144Y005696D01*
X013951Y003782D02*
X011644Y003782D01*
X010487Y004940D01*
X010487Y005889D01*
X011479Y003371D02*
X010101Y001993D01*
X010101Y001361D01*
X014606Y003060D02*
X014841Y003060D01*
X015617Y009735D02*
X016106Y010224D01*
X016106Y011100D01*
X015967Y011239D01*
X015278Y011239D01*
X015266Y012240D02*
X016112Y012240D01*
X016617Y011735D01*
X013719Y013326D02*
X013531Y013326D01*
X011932Y011629D02*
X011971Y011590D01*
X011971Y011530D01*
X012206Y011295D01*
X007286Y015780D02*
X006446Y014940D01*
X007286Y015780D02*
X007286Y017340D01*
X007219Y017407D01*
X007219Y017570D01*
X003086Y013266D02*
X002617Y013735D01*
X003086Y013266D02*
X003086Y012360D01*
X002966Y012240D01*
D248*
X008786Y009780D03*
X005906Y005160D03*
M02*
