G75*
%MOIN*%
%OFA0B0*%
%FSLAX24Y24*%
%IPPOS*%
%LPD*%
%AMOC8*
5,1,8,0,0,1.08239X$1,22.5*
%
%ADD10C,0.0160*%
%ADD11R,0.0480X0.0880*%
%ADD12R,0.1417X0.0866*%
%ADD13R,0.0787X0.0630*%
%ADD14R,0.0512X0.0591*%
%ADD15R,0.0460X0.0630*%
%ADD16R,0.1000X0.0500*%
%ADD17R,0.0630X0.0709*%
%ADD18R,0.0630X0.0460*%
D10*
X001046Y000180D02*
X017188Y000180D01*
X017188Y019865D01*
X001046Y019865D01*
X001046Y000180D01*
D11*
X006817Y016762D03*
X007727Y016762D03*
X008637Y016762D03*
X009719Y016747D03*
X010628Y016747D03*
X011538Y016747D03*
X012534Y016747D03*
X013443Y016747D03*
X014353Y016747D03*
X005719Y016778D03*
X004810Y016778D03*
X003900Y016778D03*
D12*
X004810Y014338D03*
X007727Y014322D03*
X010628Y014306D03*
X013443Y014306D03*
D13*
X008090Y006479D03*
X008090Y005377D03*
X005378Y011052D03*
X005378Y012155D03*
D14*
X013672Y008625D03*
X014420Y008625D03*
D15*
X013822Y009479D03*
X013222Y009479D03*
X013561Y011755D03*
X014161Y011755D03*
X011145Y013038D03*
X010545Y013038D03*
X007347Y013058D03*
X006747Y013058D03*
X002917Y018967D03*
X002317Y018967D03*
D16*
X013719Y013349D03*
D17*
X005156Y002830D03*
X004054Y002830D03*
D18*
X009874Y010862D03*
X009874Y011462D03*
M02*
