%
M48
M72
T01C0.0360
T02C0.0400
%
T01
X4969Y3011
X6938Y3011
X8906Y3011
X10875Y3011
X10875Y8129
X8906Y8129
X6938Y8129
X4969Y8129
X4139Y22562
X6107Y22578
X8076Y22554
X10044Y22554
X12013Y22578
X13981Y22593
T02
X1517Y2960
X1517Y3960
X1517Y4960
X1517Y5960
X1517Y6960
X1517Y7960
X2517Y7960
X2517Y6960
X2517Y5960
X2517Y4960
X2517Y3960
X2517Y2960
X2517Y8960
X2517Y9960
X2517Y10960
X2517Y11960
X2517Y12960
X2517Y13960
X2517Y14960
X1517Y14960
X1517Y13960
X1517Y12960
X1517Y11960
X1517Y10960
X1517Y9960
X1517Y8960
X5509Y14460
X5509Y15460
X6509Y15460
X7509Y15460
X7509Y14460
X6509Y14460
X2517Y15960
X2517Y16960
X2517Y17960
X2517Y18960
X2517Y19960
X2517Y20960
X2517Y21960
X1517Y21960
X1517Y20960
X1517Y19960
X1517Y18960
X1517Y17960
X1517Y16960
X1517Y15960
X15532Y15960
X16532Y15960
X16532Y16960
X15532Y16960
X15532Y17960
X16532Y17960
X16532Y18960
X15532Y18960
X15532Y19960
X16532Y19960
X16532Y20960
X15532Y20960
X15532Y21960
X16532Y21960
X16532Y14960
X15532Y14960
X15532Y13960
X16532Y13960
X16532Y12960
X15532Y12960
X15532Y11960
X16532Y11960
X16532Y10960
X15532Y10960
X15532Y9960
X16532Y9960
X16532Y8960
X15532Y8960
X15532Y7960
X16532Y7960
X16532Y6960
X15532Y6960
X15532Y5960
X16532Y5960
X16532Y4960
X15532Y4960
X15532Y3960
X16532Y3960
X16532Y2960
X15532Y2960
M30
